<svg xmlns="http://www.w3.org/2000/svg" width="354" height="336" fill="none"><g clip-path="url(#a)"><path fill="#EAC4FF" d="M52.534 161.564c-68.714 39.752-68.714 104.145 0 143.897 68.713 39.752 180.141 39.752 248.932 0s68.714-104.145 0-143.897c-68.713-39.752-180.219-39.752-248.932 0Z"/><path fill="#E0E0E0" d="M151.735 322.121c18.334 0 33.196-8.604 33.196-19.217 0-10.614-14.862-19.217-33.196-19.217-18.333 0-33.196 8.603-33.196 19.217 0 10.613 14.863 19.217 33.196 19.217Z"/><path fill="#E0E0E0" d="M207.372 308.328c19.658 0 35.595-9.228 35.595-20.612 0-11.384-15.937-20.612-35.595-20.612-19.659 0-35.595 9.228-35.595 20.612 0 11.384 15.936 20.612 35.595 20.612Z"/><path fill="#BA68C8" d="m41.159 278.805-7.197 4.184c.078-3.952-.232-11.391-2.321-21.154-4.797-22.24-14.47-26.114-19.19-34.793-4.953-9.144 1.393-14.568 7.428-13.638 5.34.853 13.929 7.439 18.185 21.155 5.571 18.054 4.178 36.032 3.095 44.246Z"/><path fill="#fff" d="m41.159 278.805-7.197 4.184c.078-3.952-.232-11.391-2.321-21.154-4.797-22.24-14.47-26.114-19.19-34.793-4.953-9.144 1.393-14.568 7.428-13.638 5.34.853 13.929 7.439 18.185 21.155 5.571 18.054 4.178 36.032 3.095 44.246Z" opacity=".5"/><path fill="#fff" d="M36.903 277.022c-.232 0-.387-.232-.31-.464 3.792-26.812-8.125-49.903-17.797-57.73a.477.477 0 0 1-.078-.542.477.477 0 0 1 .542-.078c9.827 7.982 21.899 31.306 18.107 58.427-.077.31-.31.465-.464.387Z"/><path fill="#BA68C8" d="m37.522 280.897-3.637 2.092-.619.31c-1.16-5.424-4.333-11.003-10.369-17.048-7.042-7.051-16.869-13.638-15.09-19.604 1.703-5.889 9.673-4.34 15.09-.853 5.184 3.332 16.172 15.498 14.625 35.103Z"/><path fill="#fff" d="m37.522 280.897-3.637 2.092-.619.31c-1.16-5.424-4.333-11.003-10.369-17.048-7.042-7.051-16.869-13.638-15.09-19.604 1.703-5.889 9.673-4.34 15.09-.853 5.184 3.332 16.172 15.498 14.625 35.103Z" opacity=".65"/><path fill="#fff" d="M35.587 279.192c-.154 0-.31-.155-.31-.387-.54-13.096-14.934-30.066-21.743-32.856-.232-.077-.31-.31-.232-.465.077-.232.31-.31.464-.232 7.197 2.945 21.667 19.915 22.208 33.553.078.232-.077.387-.387.387.078 0 0 0 0 0Z"/><path fill="#BA68C8" d="m64.218 318.944 62.446-94.924-42.095-24.409-62.446 95.001 42.095 24.332Z"/><path fill="#fff" d="m64.218 318.944 62.446-94.924-42.095-24.409-62.446 95.001 42.095 24.332Z" opacity=".2"/><path fill="#BA68C8" d="m126.664 224.02-62.446 94.924 25.303-14.645 45.5-68.965-8.357-11.314Z"/><path fill="#000" d="m126.664 224.02-62.446 94.924 25.303-14.645 45.5-68.965-8.357-11.314Z" opacity=".2"/><path fill="#BA68C8" d="m239.949 18.132 4.178 18.443 16.947 9.996-4.256-18.675-16.869-9.764Z"/><path fill="#000" d="m239.949 18.132 4.178 18.443 16.947 9.996-4.256-18.675-16.869-9.764Z" opacity=".2"/><path fill="#BA68C8" d="m203.425 109.337 53.393-81.441-16.869-9.764L304.097 0l11.685 61.914-16.792-9.687-53.47 81.441-42.095-24.331Z"/><path fill="#fff" d="m203.425 109.337 53.393-81.441-16.869-9.764L304.097 0l11.685 61.914-16.792-9.687-53.47 81.441-42.095-24.331Z" opacity=".2"/><path fill="#BA68C8" d="m298.99 52.227-53.47 81.441 9.518 10.771 48.208-73.537 16.791 9.764-4.255-18.752-16.792-9.687Z"/><path fill="#000" d="m298.99 52.227-53.47 81.441 9.518 10.771 48.208-73.537 16.791 9.764-4.255-18.752-16.792-9.687Z" opacity=".2"/><path fill="#BA68C8" d="m212.866 120.185-9.441-10.771 42.095 24.254 9.518 10.771-42.172-24.254Z"/><path fill="#000" d="m212.866 120.185-9.441-10.771 42.095 24.254 9.518 10.771-42.172-24.254Z" opacity=".4"/><path fill="#000" d="m303.246 70.902-4.256-18.675 16.792 9.687 4.256 18.752-16.792-9.764Z" opacity=".2"/><path fill="#FFA8A7" d="M238.092 268.964v17.667c-.619 4.03-3.56 7.981-8.899 11.081-12.071 6.974-31.649 6.974-43.72 0-6.19-3.564-9.208-8.369-9.053-13.096 0-.387.077-.852.154-1.239v-.078a211.34 211.34 0 0 0 1.161-13.483c.387-6.819.387-9.841.31-13.483-.078-4.572-1.935-8.059-6.732-12.088-4.798-4.03-14.238-17.745-14.238-17.745l62.987-32.391 17.875 56.8c-.077-.155.155 13.56.155 18.055Z"/><path fill="#FFA8A7" d="M220.449 182.254s-1.161 4.804-6.809-1.55c-5.649-6.354-14.857-15.963-24.53-25.262-4.643-4.416-23.291-19.449-35.75-30.84-3.946-4.107-9.672-6.974-13.541-4.029-3.869 3.022-3.869 10.383-1.47 14.025 2.166 3.255 6.809 7.671 10.368 10.926 0 .232-.077.387-.077.62-.696 5.889-1.857 12.476-2.476 19.604-.31 4.262-5.417 9.609-5.339 13.948 1.47 6.2 9.672 12.864 15.476 17.513 5.803 4.649 8.279 6.509 8.279 7.981-.077 2.247-9.517-5.889-13.696-8.756.232 13.328-8.28 14.878-8.28 14.878 1.239 2.557 8.512 8.214 18.804 21.387 4.101 5.192 45.422-29.058 45.422-29.058l9.827-6.277 6.887-11.468-3.095-3.642Z"/><path fill="#F28F8F" d="M216.967 194.032c-3.869 4.882-19.113 20.457-7.119 41.069-1.316-1.24-1.935-2.17-2.244-2.557a27.065 27.065 0 0 1-4.024-7.517c0-.077-.077-.155-.077-.31-2.709-7.826-1.78-15.885 3.25-22.626 4.023-5.347 11.297-10.461 12.226-16.195 0-.233.077-.388.077-.62.232 1.859.387 5.579-2.089 8.756Z"/><path fill="#F28F8F" d="M137.575 123.595c-1.548 3.487-1.084 8.291.773 11.081 2.167 3.254 6.81 7.671 10.369 10.925 0 .155 0 .31-.077.465 1.548 1.318 3.25 2.79 5.107 4.417 4.411 3.952 10.292 8.989 14.78 12.863 2.244 1.938 12.768 10.461 16.559 13.871-5.881-6.432-19.113-18.21-25.767-24.797-5.03-4.959-12.459-11.855-14.857-14.645-2.399-2.79-3.792-4.649-4.643-5.657-3.018-3.642-2.322-7.826-2.244-8.523Z" opacity=".5"/><path fill="#F28F8F" d="M148.872 216.969c2.089-.155 4.798-1.705 5.881-3.565 1.548-2.557 1.857-4.572 1.393-8.601-.077-1.008-.387-2.867-1.161-5.579-1.393-1.008-2.785-2.093-4.101-2.945.232 13.328-8.28 14.878-8.28 14.878.542 1.162 2.399 2.944 5.108 5.812h1.16ZM142.063 163.191c-.31.31 4.333 4.882 4.875 5.115 1.779 1.007 5.107-.233 6.5-1.473.928-.775 1.547-1.782 2.012-2.867 1.547-3.719.773-7.981 0-11.933-.155-.62-.31-1.317-.852-1.627-.077 2.092-1.934 2.944-3.25 4.184-1.315 1.162-2.553 2.402-3.869 3.565-1.857 1.704-3.636 3.332-5.416 5.036Z"/><path fill="#F28F8F" d="m152.741 165.594 24.607 24.951-28.708-24.177 4.101-.774Z"/><path fill="#F28F8F" d="M149.414 186.903c2.399-.775 4.411-2.712 5.184-5.037.697-2.015.619-4.184.465-6.354-.155-1.782-.232-3.642-.929-5.347l-11.53 3.952c-1.006 1.938-1.779 3.875-1.779 5.58.619 2.479 2.244 5.036 4.488 7.516 1.238.155 2.785.077 4.101-.31Z"/><path fill="#FFA8A7" d="M146.319 145.369c5.029-.465 7.738 1.782 8.821 6.276.464 1.705.464 4.417 0 7.827-.464 3.409-3.637 7.439-7.815 6.819h-.233c-6.654-1.085-7.428-4.649-7.428-10.461.077-5.734 2.167-10.074 6.655-10.461Z"/><path fill="#F28F8F" d="M152.277 146.686c.387.31 2.476 2.402 2.554 8.214 0 6.354-3.173 7.671-6.733 8.291-3.559.543-8.279-1.627-8.279-4.804.309 4.262 1.702 6.974 7.351 7.904h.232c4.101.62 7.274-3.41 7.815-6.819.465-3.41.465-6.122 0-7.826-.619-2.17-1.547-3.875-2.94-4.96Z" opacity=".5"/><path fill="#FFA8A7" d="M146.396 165.671c4.643-.387 7.042 1.627 8.048 5.734.387 1.55.464 4.03 0 7.129-.465 3.1-3.328 6.819-7.119 6.199h-.155c-6.113-1.007-6.732-4.262-6.732-9.531 0-5.192 1.857-9.144 5.958-9.531Z"/><path fill="#F28F8F" d="M152.896 167.841c.619.93 1.161 3.332.774 6.974-.464 4.727-1.548 7.051-5.649 7.361-4.256.31-6.887-1.705-7.351-3.797.387 3.41 1.857 5.657 6.577 6.432h.155c3.792.542 6.655-3.177 7.119-6.199.464-3.1.387-5.58 0-7.129-.387-1.473-.929-2.712-1.625-3.642Z" opacity=".5"/><path fill="#FFA8A7" d="M146.706 194.342c4.797-.465 8.357 1.86 8.357 5.967v7.438c0 3.952-3.482 7.052-7.351 6.432h-.155c-6.268-1.007-6.268-6.819-6.268-9.841-.155-3.022 1.083-9.609 5.417-9.996Z"/><path fill="#F28F8F" d="M152.741 195.659c2.09 2.17 1.316 6.664 1.084 11.081-.078 3.022-1.703 5.579-5.881 5.579-4.179 0-6.036-2.557-6.578-5.036.31 2.867 1.548 6.121 6.113 6.896h.155c3.869.542 7.351-2.557 7.351-6.432v-7.438c.078-2.015-.774-3.642-2.244-4.65Z" opacity=".5"/><path fill="#BA68C8" d="m93.468 192.87 103.225-78.342 42.173 24.332-103.303 78.341-42.095-24.331ZM238.866 138.86l9.44 10.771-104.309 78.961-8.434-11.391 103.303-78.341Z"/><path fill="#000" d="m238.866 138.86 9.44 10.771-104.309 78.961-8.434-11.391 103.303-78.341Z" opacity=".2"/><path fill="#BA68C8" d="m93.468 192.87 8.357 11.39 42.172 24.332-8.434-11.391-42.095-24.331Z"/><path fill="#000" d="m93.468 192.87 8.357 11.39 42.172 24.332-8.434-11.391-42.095-24.331Z" opacity=".4"/><path fill="#FFA8A7" d="M237.86 250.754c0-11.004.773-25.727 2.631-38.435 1.779-12.708 1.47-23.556.928-26.656-.542-3.099-.696-7.516-5.416-13.25-2.245-2.635-7.119-6.587-11.221-11.391-4.101-4.882-7.97-10.229-10.136-13.173-2.167-2.945-7.584 1.782-7.352 11.158.233 7.671 5.417 14.335 7.429 17.203 2.476 3.487 4.178 6.896 4.411 8.988.154 1.782.386 5.579-2.09 8.679-3.869 4.882-19.113 20.457-7.119 41.069v18.907l27.935-3.099Z"/><path fill="#FFA8A7" d="M215.574 153.66s4.643 6.354 6.113 7.129c1.47.775 1.935-1.007 1.935-1.007-2.167-3.022-6.113-8.446-9.054-11.856.387.62 1.238 2.945 1.006 5.734Z"/><path fill="#fff" d="M215.574 153.66s4.643 6.354 6.113 7.129c1.393.775 1.935-1.007 1.935-1.007-2.167-3.022-6.113-8.446-9.054-11.856.387.62 1.238 2.945 1.006 5.734Z" opacity=".6"/><path fill="#F28F8F" d="M223.622 159.782s-.465-.698-.697-1.007c.232 1.472-.851 2.169-.851 2.169 1.161.388 1.548-1.162 1.548-1.162Z"/><path fill="#BA68C8" d="M177.89 295.697c-1.316-2.247-3.56-4.339-6.577-6.121-10.834-6.277-28.322-6.277-39.155 0-3.095 1.782-5.262 3.874-6.577 6.121h-1.548v5.657c.232 3.952 2.863 7.826 8.125 10.848 10.833 6.277 28.321 6.277 39.155 0 5.184-3.022 7.892-6.896 8.124-10.848v-5.657h-1.547Z"/><path fill="#000" d="M177.89 295.697c-1.316-2.247-3.56-4.339-6.577-6.121-10.834-6.277-28.322-6.277-39.155 0-3.095 1.782-5.262 3.874-6.577 6.121h-1.548v5.657c.232 3.952 2.863 7.826 8.125 10.848 10.833 6.277 28.321 6.277 39.155 0 5.184-3.022 7.892-6.896 8.124-10.848v-5.657h-1.547Z" opacity=".25"/><path fill="#000" d="M151.735 284.926c-7.119 0-14.16 1.55-19.577 4.65-3.095 1.782-5.262 3.874-6.577 6.121h-1.548v5.657c.232 3.952 2.863 7.826 8.125 10.848 5.417 3.1 12.458 4.65 19.577 4.65v-31.926Z" opacity=".1"/><path fill="#000" d="M136.646 287.484c-1.547.619-3.095 1.317-4.488 2.092-3.095 1.782-5.262 3.874-6.577 6.121h-1.548v5.657c.232 3.952 2.863 7.826 8.125 10.848a34.298 34.298 0 0 0 4.488 2.093v-26.811Z" opacity=".1"/><path fill="#BA68C8" d="M166.824 287.484c1.548.619 3.096 1.317 4.489 2.092 3.095 1.782 5.261 3.874 6.577 6.121h1.47v5.657c-.232 3.952-2.94 7.826-8.125 10.848a34.298 34.298 0 0 1-4.488 2.093v-26.811h.077Z" opacity=".5"/><path fill="#BA68C8" d="M132.158 284.384c-10.833 6.277-10.833 16.35 0 22.627 9.44 5.501 24.065 6.121 34.821 2.014.155-.077.31-.077.465-.155a30.844 30.844 0 0 0 3.946-1.859c8.976-5.192 10.524-13.096 4.488-19.218-1.161-1.239-2.708-2.324-4.488-3.409-10.911-6.199-28.399-6.199-39.232 0Z"/><path fill="#000" d="M132.158 284.384c-10.833 6.277-10.833 16.35 0 22.627 9.44 5.501 24.065 6.121 34.821 2.014.155-.077.31-.077.465-.155a30.844 30.844 0 0 0 3.946-1.859c8.976-5.192 10.524-13.096 4.488-19.218-1.161-1.239-2.708-2.324-4.488-3.409-10.911-6.199-28.399-6.199-39.232 0Z" opacity=".2"/><path fill="#F5F5F5" d="M175.801 287.793c.154.155 3.869 4.107 2.863 9.842-.929 5.501-8.667 10.151-11.298 11.235a30.858 30.858 0 0 0 3.947-1.859c8.976-5.192 10.523-13.096 4.488-19.218ZM127.67 303.601c-.155-.155-3.869-4.107-2.863-9.841.929-5.502 8.667-10.151 11.297-11.236a30.847 30.847 0 0 0-3.946 1.86c-8.976 5.269-10.524 13.173-4.488 19.217Z" opacity=".5"/><path fill="#BA68C8" d="M169.92 306.236c10.059-5.812 10.059-15.266 0-21.077-10.06-5.812-26.31-5.812-36.369 0-10.06 5.811-10.06 15.265 0 21.077 10.059 5.811 26.309 5.811 36.369 0Z"/><path fill="#fff" d="M169.92 306.236c10.059-5.812 10.059-15.266 0-21.077-10.06-5.812-26.31-5.812-36.369 0-10.06 5.811-10.06 15.265 0 21.077 10.059 5.811 26.309 5.811 36.369 0Z" opacity=".4"/><path fill="#fff" d="M176.342 300.114c2.09-3.797 1.393-8.059-2.012-11.623-.619-.698-1.392-1.317-2.166-1.937a24.44 24.44 0 0 0-2.09-1.395c-.386-.233-.851-.465-1.238-.698 1.084 1.783.697 3.642-5.416 4.03-11.839.697 3.172 12.011 3.172 12.011s7.584-3.642 9.75-.388Z" opacity=".2"/><path fill="#fff" d="M175.104 297.015c1.78-.233 2.631-2.015 1.935-4.107-.697-2.093-2.709-3.565-4.488-3.41-1.78.233-2.631 2.015-1.935 4.107.697 2.092 2.708 3.564 4.488 3.41Z" opacity=".5"/><path fill="#BA68C8" d="M156.301 306.468c-.619-4.417-19.81-16.582-19.81-16.582s-4.256-1.705-2.863-4.727c-.774.387-1.393.852-2.089 1.317-.464.31-.851.62-1.238 1.007-5.726 4.96-5.726 11.469 0 16.506.387.31.774.697 1.238 1.007.619.465 1.238.852 1.935 1.24a16.7 16.7 0 0 0 2.011 1.085c.542.232 1.161.542 1.703.775.619.232 1.161.464 1.78.619a36.28 36.28 0 0 0 5.726 1.395c.464.078.851.155 1.315.155 1.857.233 3.792.388 5.726.388 2.399 0 4.72-.233 7.042-.543.077-.077-3.018-.775-2.476-3.642Z"/><path fill="#fff" d="M156.301 306.468c-.619-4.417-19.81-16.582-19.81-16.582s-4.256-1.705-2.863-4.727c-.774.387-1.393.852-2.089 1.317-.464.31-.851.62-1.238 1.007-5.726 4.96-5.726 11.469 0 16.506.387.31.774.697 1.238 1.007.619.465 1.238.852 1.935 1.24a16.7 16.7 0 0 0 2.011 1.085c.542.232 1.161.542 1.703.775.619.232 1.161.464 1.78.619a36.28 36.28 0 0 0 5.726 1.395c.464.078.851.155 1.315.155 1.857.233 3.792.388 5.726.388 2.399 0 4.72-.233 7.042-.543.077-.077-3.018-.775-2.476-3.642Z" opacity=".3"/><path fill="#BA68C8" d="M138.194 287.871c-7.197 4.184-7.506 10.771-.851 15.11.309.155.541.388.851.543 7.506 4.339 19.654 4.339 27.083 0 7.506-4.34 7.506-11.314 0-15.653-.31-.155-.619-.31-.929-.543-7.506-3.796-18.958-3.642-26.154.543Z"/><path fill="#000" d="M138.194 287.871c-7.197 4.184-7.506 10.771-.851 15.11.309.155.541.388.851.543 7.506 4.339 19.654 4.339 27.083 0 7.506-4.34 7.506-11.314 0-15.653-.31-.155-.619-.31-.929-.543-7.506-3.796-18.958-3.642-26.154.543Z" opacity=".2"/><path fill="#BA68C8" d="M151.735 306.313c10.129 0 18.339-4.753 18.339-10.616 0-5.863-8.21-10.616-18.339-10.616-10.128 0-18.339 4.753-18.339 10.616 0 5.863 8.211 10.616 18.339 10.616Z"/><path fill="#000" d="M151.735 306.313c10.129 0 18.339-4.753 18.339-10.616 0-5.863-8.21-10.616-18.339-10.616-10.128 0-18.339 4.753-18.339 10.616 0 5.863 8.211 10.616 18.339 10.616Z" opacity=".5"/><path fill="#BA68C8" d="M138.813 291.125c7.119-4.106 18.726-4.106 25.922 0 2.941 1.705 4.643 3.797 5.185 6.045-.542 2.169-2.244 4.339-5.185 6.044-7.119 4.107-18.726 4.107-25.922 0-2.941-1.705-4.643-3.797-5.185-6.044.542-2.17 2.244-4.34 5.185-6.045Z"/><path fill="#000" d="M138.813 291.125c7.119-4.106 18.726-4.106 25.922 0 2.941 1.705 4.643 3.797 5.185 6.045-.542 2.169-2.244 4.339-5.185 6.044-7.119 4.107-18.726 4.107-25.922 0-2.941-1.705-4.643-3.797-5.185-6.044.542-2.17 2.244-4.34 5.185-6.045Z" opacity=".35"/><path fill="#BA68C8" d="M163.265 298.874v-2.169c0-.93-.619-1.783-1.935-2.557h-.077c-2.476-1.395-5.03-1.24-7.274-.698-.928.233-1.857.543-2.708.853-1.161.387-2.089.697-2.94.929-.542.078-.929.155-1.393.155-.387 0-.774-.155-1.161-.31l.077-.077c.078-.078.155-.155.31-.155a3.64 3.64 0 0 1 .774-.388c1.393-.619 2.785-.542 4.101-.077l2.321-2.402v-2.17c-2.089-.697-4.256-.775-6.422-.232a8.819 8.819 0 0 0-2.012.697l-2.322-1.395-2.785 1.628v2.169l.928.543c-.309.465-.387.852-.387 1.239v2.17c0 .93.619 1.782 2.012 2.557 1.316.775 2.631 1.085 3.869 1.085h.774c1.47-.077 2.863-.465 4.179-.93.309-.077.541-.155.773-.31l-2.398 2.402v2.17c3.327 1.317 6.577.698 9.053-.387l2.322 1.317 2.785-1.627v-2.17l-.928-.542c.309-.388.464-.853.464-1.318Zm-5.881-.155c-.232.155-.464.233-.619.31-1.702.698-3.405.543-4.565.078 2.166-.775 4.023-1.472 5.571-.62-.155.077-.232.155-.387.232Z"/><path fill="#BA68C8" d="M154.057 293.45c-.078 0-.078 0 0 0a18.762 18.762 0 0 0-2.709.853c-1.16.387-2.089.697-2.94.929-.542.078-.929.155-1.393.155A2.61 2.61 0 0 1 145.7 295c-.929-.542-1.006-1.317.309-2.17.078-.077.155-.155.31-.155.232-.155.541-.31.773-.387 1.393-.62 2.786-.543 4.102-.078l2.321-2.402c-2.089-.697-4.256-.775-6.423-.232a8.828 8.828 0 0 0-2.011.697l-2.322-1.395-2.786 1.628 2.322 1.317c-2.322 1.782-2.399 3.642.232 5.192 1.316.775 2.631 1.084 3.869 1.084h.774c1.47-.077 2.863-.464 4.178-.929 2.709-.93 4.875-1.938 6.655-.93 1.238.697.851 1.55-.464 2.324-.232.155-.464.233-.619.31-1.703.698-3.482.543-4.643 0l-2.476 2.48c3.327 1.317 6.577.697 9.053-.387l2.322 1.317 2.785-1.627-2.321-1.318c2.321-1.782 2.631-3.797-.155-5.346h-.077c-2.554-1.318-5.107-1.085-7.351-.543Z"/><path fill="#fff" d="M154.057 293.45c-.078 0-.078 0 0 0a18.762 18.762 0 0 0-2.709.853c-1.16.387-2.089.697-2.94.929-.542.078-.929.155-1.393.155A2.61 2.61 0 0 1 145.7 295c-.929-.542-1.006-1.317.309-2.17.078-.077.155-.155.31-.155.232-.155.541-.31.773-.387 1.393-.62 2.786-.543 4.102-.078l2.321-2.402c-2.089-.697-4.256-.775-6.423-.232a8.828 8.828 0 0 0-2.011.697l-2.322-1.395-2.786 1.628 2.322 1.317c-2.322 1.782-2.399 3.642.232 5.192 1.316.775 2.631 1.084 3.869 1.084h.774c1.47-.077 2.863-.464 4.178-.929 2.709-.93 4.875-1.938 6.655-.93 1.238.697.851 1.55-.464 2.324-.232.155-.464.233-.619.31-1.703.698-3.482.543-4.643 0l-2.476 2.48c3.327 1.317 6.577.697 9.053-.387l2.322 1.317 2.785-1.627-2.321-1.318c2.321-1.782 2.631-3.797-.155-5.346h-.077c-2.554-1.318-5.107-1.085-7.351-.543Z" opacity=".3"/><path fill="#F5F5F5" d="m139.819 290.506 2.785-1.318 2.322 1.085-2.322-1.395-2.785 1.628ZM146.628 289.653c1.548-.31 3.947-.387 6.036.233l-1.625 2.324 2.321-2.402c-2.476-.852-4.643-.775-6.732-.155ZM161.253 294.148c.077 0 .077 0 0 0 2.786 1.627 2.476 3.564.155 5.424 2.089-2.247 1.702-3.797-.542-5.115-2.244-1.317-5.107-1.317-6.887-.929 2.322-.62 4.875-.853 7.274.62Z" opacity=".45"/><path fill="#F5F5F5" d="m161.485 299.494 1.78 1.395-2.321 1.627 2.863-1.627-2.322-1.395ZM156.688 299.029c-2.477 1.163-4.488.388-4.488.388l-2.631 2.092 2.476-2.48c1.238.543 2.94.698 4.643 0ZM148.408 295.232c-1.083.388-2.554.31-3.327-.31-.774-.697-.31-1.472.928-2.092-1.315.853-1.161 1.627-.309 2.17a2.61 2.61 0 0 0 1.315.387c.387 0 .851-.077 1.393-.155ZM142.063 291.9c-.232.155-1.857 1.783-1.161 3.332.774 1.705 3.25 2.79 5.262 2.945a9.43 9.43 0 0 1-3.869-1.085c-2.631-1.55-2.554-3.409-.232-5.192Z" opacity=".45"/><path fill="#BA68C8" d="M183.152 287.716c-1.316-2.247-3.56-4.339-6.578-6.122-10.833-6.276-28.321-6.276-39.154 0-3.095 1.783-5.262 3.875-6.577 6.122h-1.471v5.657c.233 3.952 2.863 7.826 8.125 10.848 10.834 6.277 28.322 6.277 39.155 0 5.184-3.022 7.893-6.896 8.125-10.848v-5.657h-1.625Z"/><path fill="#000" d="M183.152 287.716c-1.316-2.247-3.56-4.339-6.578-6.122-10.833-6.276-28.321-6.276-39.154 0-3.095 1.783-5.262 3.875-6.577 6.122h-1.471v5.657c.233 3.952 2.863 7.826 8.125 10.848 10.834 6.277 28.322 6.277 39.155 0 5.184-3.022 7.893-6.896 8.125-10.848v-5.657h-1.625Z" opacity=".25"/><path fill="#000" d="M156.997 276.945c-7.119 0-14.16 1.55-19.577 4.649-3.095 1.783-5.262 3.875-6.577 6.122h-1.471v5.657c.233 3.952 2.863 7.826 8.125 10.848 5.417 3.1 12.459 4.649 19.578 4.649v-31.925h-.078Z" opacity=".1"/><path fill="#000" d="M141.831 279.502c-1.548.62-3.096 1.317-4.488 2.092-3.096 1.783-5.262 3.875-6.578 6.122h-1.47v5.657c.232 3.952 2.863 7.826 8.125 10.848a34.295 34.295 0 0 0 4.488 2.092v-26.811h-.077Z" opacity=".1"/><path fill="#BA68C8" d="M172.086 279.502c1.548.62 3.096 1.317 4.488 2.092 3.096 1.783 5.262 3.875 6.578 6.122h1.47v5.657c-.232 3.952-2.94 7.826-8.125 10.848a34.295 34.295 0 0 1-4.488 2.092v-26.811h.077Z" opacity=".5"/><path fill="#BA68C8" d="M137.42 276.403c-10.833 6.276-10.833 16.35 0 22.626 9.44 5.502 24.065 6.122 34.821 2.015.155-.077.31-.077.464-.155a30.664 30.664 0 0 0 3.947-1.86c8.976-5.191 10.524-13.095 4.488-19.217-1.161-1.24-2.708-2.325-4.488-3.409-10.911-6.199-28.476-6.199-39.232 0Z"/><path fill="#000" d="M137.42 276.403c-10.833 6.276-10.833 16.35 0 22.626 9.44 5.502 24.065 6.122 34.821 2.015.155-.077.31-.077.464-.155a30.664 30.664 0 0 0 3.947-1.86c8.976-5.191 10.524-13.095 4.488-19.217-1.161-1.24-2.708-2.325-4.488-3.409-10.911-6.199-28.476-6.199-39.232 0Z" opacity=".2"/><path fill="#F5F5F5" d="M181.062 279.812c.078.155 3.869 4.107 2.864 9.841-.929 5.502-8.667 10.151-11.298 11.236a30.65 30.65 0 0 0 3.946-1.86c8.977-5.191 10.524-13.095 4.488-19.217ZM132.932 295.697c-.155-.155-3.869-4.107-2.863-9.841.928-5.501 8.666-10.151 11.297-11.236a30.919 30.919 0 0 0-3.946 1.86c-9.054 5.192-10.524 13.096-4.488 19.217Z" opacity=".5"/><path fill="#BA68C8" d="M175.182 298.254c10.059-5.811 10.059-15.265 0-21.077-10.06-5.811-26.31-5.811-36.369 0-10.06 5.812-10.06 15.266 0 21.077 10.059 5.812 26.309 5.812 36.369 0Z"/><path fill="#fff" d="M175.182 298.254c10.059-5.811 10.059-15.265 0-21.077-10.06-5.811-26.31-5.811-36.369 0-10.06 5.812-10.06 15.266 0 21.077 10.059 5.812 26.309 5.812 36.369 0Z" opacity=".4"/><path fill="#fff" d="M181.527 292.133c2.089-3.797 1.393-8.059-2.012-11.623-.619-.698-1.393-1.318-2.167-1.938a24.183 24.183 0 0 0-2.089-1.394c-.387-.233-.851-.465-1.238-.698 1.083 1.782.696 3.642-5.417 4.03-11.839.697 3.173 12.01 3.173 12.01s7.66-3.642 9.75-.387Z" opacity=".2"/><path fill="#fff" d="M180.289 289.033c1.779-.232 2.631-2.014 1.934-4.107-.696-2.092-2.708-3.564-4.488-3.409-1.78.232-2.631 2.015-1.934 4.107.773 2.092 2.708 3.564 4.488 3.409Z" opacity=".5"/><path fill="#BA68C8" d="M161.563 298.487c-.619-4.417-19.81-16.583-19.81-16.583s-4.256-1.704-2.863-4.727c-.774.388-1.393.853-2.089 1.318-.464.31-.851.62-1.238 1.007-5.726 4.959-5.726 11.468 0 16.505.387.31.774.698 1.238 1.008a16.42 16.42 0 0 0 1.934 1.239c.619.388 1.316.775 2.012 1.085.542.233 1.161.543 1.703.775.619.233 1.16.465 1.779.62a36.318 36.318 0 0 0 5.727 1.395c.464.077.851.155 1.315.155 1.857.232 3.792.387 5.726.387 2.399 0 4.72-.232 7.042-.542.077-.078-3.018-.775-2.476-3.642Z"/><path fill="#fff" d="M161.563 298.487c-.619-4.417-19.81-16.583-19.81-16.583s-4.256-1.704-2.863-4.727c-.774.388-1.393.853-2.089 1.318-.464.31-.851.62-1.238 1.007-5.726 4.959-5.726 11.468 0 16.505.387.31.774.698 1.238 1.008a16.42 16.42 0 0 0 1.934 1.239c.619.388 1.316.775 2.012 1.085.542.233 1.161.543 1.703.775.619.233 1.16.465 1.779.62a36.318 36.318 0 0 0 5.727 1.395c.464.077.851.155 1.315.155 1.857.232 3.792.387 5.726.387 2.399 0 4.72-.232 7.042-.542.077-.078-3.018-.775-2.476-3.642Z" opacity=".3"/><path fill="#BA68C8" d="M143.456 279.89c-7.197 4.184-7.506 10.771-.852 15.11.31.155.542.387.852.542 7.506 4.34 19.654 4.34 27.083 0 7.506-4.339 7.506-11.313 0-15.652-.31-.155-.619-.31-.929-.543-7.583-3.797-19.035-3.642-26.154.543Z"/><path fill="#000" d="M143.456 279.89c-7.197 4.184-7.506 10.771-.852 15.11.31.155.542.387.852.542 7.506 4.34 19.654 4.34 27.083 0 7.506-4.339 7.506-11.313 0-15.652-.31-.155-.619-.31-.929-.543-7.583-3.797-19.035-3.642-26.154.543Z" opacity=".2"/><path fill="#BA68C8" d="M156.997 298.332c10.129 0 18.339-4.753 18.339-10.616 0-5.863-8.21-10.616-18.339-10.616-10.128 0-18.339 4.753-18.339 10.616 0 5.863 8.211 10.616 18.339 10.616Z"/><path fill="#000" d="M156.997 298.332c10.129 0 18.339-4.753 18.339-10.616 0-5.863-8.21-10.616-18.339-10.616-10.128 0-18.339 4.753-18.339 10.616 0 5.863 8.211 10.616 18.339 10.616Z" opacity=".5"/><path fill="#BA68C8" d="M143.997 283.222c7.119-4.107 18.726-4.107 25.923 0 2.94 1.704 4.643 3.796 5.184 6.044-.541 2.169-2.244 4.339-5.184 6.044-7.119 4.107-18.726 4.107-25.923 0-2.94-1.705-4.643-3.797-5.184-6.044.541-2.248 2.321-4.417 5.184-6.044Z"/><path fill="#000" d="M143.997 283.222c7.119-4.107 18.726-4.107 25.923 0 2.94 1.704 4.643 3.796 5.184 6.044-.541 2.169-2.244 4.339-5.184 6.044-7.119 4.107-18.726 4.107-25.923 0-2.94-1.705-4.643-3.797-5.184-6.044.541-2.248 2.321-4.417 5.184-6.044Z" opacity=".35"/><path fill="#BA68C8" d="M168.527 290.893v-2.17c0-.93-.619-1.782-1.935-2.557h-.077c-2.476-1.395-5.03-1.24-7.274-.697-.928.232-1.857.542-2.708.852-1.161.388-2.089.698-2.941.93-.541.078-.928.155-1.392.155-.387 0-.774-.155-1.161-.31l.077-.077c.078-.078.155-.155.31-.155.232-.155.541-.31.774-.388 1.392-.62 2.785-.542 4.101-.077l2.321-2.402v-2.17c-2.089-.698-4.256-.775-6.422-.233a8.821 8.821 0 0 0-2.012.698l-2.322-1.395-2.785 1.627v2.17l.928.542c-.309.465-.387.853-.387 1.24v2.17c0 .93.619 1.782 2.012 2.557 1.316.775 2.631 1.085 3.869 1.085h.774c1.47-.078 2.863-.465 4.179-.93.309-.078.541-.155.773-.31l-2.398 2.402v2.17c3.327 1.317 6.577.697 9.053-.388l2.321 1.318 2.786-1.628v-2.014l-.928-.543c.309-.542.464-1.007.464-1.472Zm-5.881-.155c-.232.155-.464.233-.619.31-1.702.697-3.405.542-4.566.078 2.167-.775 4.024-1.473 5.572-.62-.155.077-.31.155-.387.232Z"/><path fill="#BA68C8" d="M159.241 285.469a18.627 18.627 0 0 0-2.708.852c-1.161.388-2.089.698-2.941.93-.541.078-.928.155-1.392.155a2.61 2.61 0 0 1-1.316-.387c-.928-.543-1.006-1.318.31-2.17.077-.078.154-.155.309-.155a3.64 3.64 0 0 1 .774-.388c1.393-.619 2.786-.542 4.101-.077l2.322-2.402c-2.09-.698-4.256-.775-6.423-.233a8.838 8.838 0 0 0-2.012.698l-2.321-1.395-2.786 1.627 2.321 1.318c-2.321 1.782-2.398 3.642.233 5.191 1.315.775 2.63 1.085 3.869 1.085h.773c1.471-.077 2.863-.465 4.179-.93 2.708-.93 4.875-1.937 6.655-.93 1.238.698.851 1.55-.465 2.325-.232.155-.464.233-.619.31-1.702.697-3.482.542-4.643 0l-2.476 2.48c3.328 1.317 6.578.697 9.054-.388l2.321 1.318 2.786-1.628-2.322-1.317c2.322-1.782 2.631-3.797-.154-5.347h-.078c-2.553-1.317-5.107-1.085-7.351-.542Z"/><path fill="#fff" d="M159.241 285.469a18.627 18.627 0 0 0-2.708.852c-1.161.388-2.089.698-2.941.93-.541.078-.928.155-1.392.155a2.61 2.61 0 0 1-1.316-.387c-.928-.543-1.006-1.318.31-2.17.077-.078.154-.155.309-.155a3.64 3.64 0 0 1 .774-.388c1.393-.619 2.786-.542 4.101-.077l2.322-2.402c-2.09-.698-4.256-.775-6.423-.233a8.838 8.838 0 0 0-2.012.698l-2.321-1.395-2.786 1.627 2.321 1.318c-2.321 1.782-2.398 3.642.233 5.191 1.315.775 2.63 1.085 3.869 1.085h.773c1.471-.077 2.863-.465 4.179-.93 2.708-.93 4.875-1.937 6.655-.93 1.238.698.851 1.55-.465 2.325-.232.155-.464.233-.619.31-1.702.697-3.482.542-4.643 0l-2.476 2.48c3.328 1.317 6.578.697 9.054-.388l2.321 1.318 2.786-1.628-2.322-1.317c2.322-1.782 2.631-3.797-.154-5.347h-.078c-2.553-1.317-5.107-1.085-7.351-.542Z" opacity=".3"/><path fill="#F5F5F5" d="m145.003 282.524 2.863-1.317 2.322 1.085-2.322-1.395-2.863 1.627ZM151.89 281.672c1.548-.31 3.946-.388 6.036.232l-1.625 2.325 2.321-2.402c-2.476-.852-4.72-.775-6.732-.155ZM166.515 286.166s.077 0 0 0c2.786 1.627 2.476 3.565.155 5.424 2.089-2.247 1.702-3.797-.542-5.114-2.244-1.317-5.107-1.317-6.887-.93 2.244-.62 4.798-.852 7.274.62Z" opacity=".45"/><path fill="#F5F5F5" d="m166.67 291.513 1.779 1.395-2.244 1.627 2.786-1.627-2.321-1.395ZM161.95 291.048c-2.477 1.162-4.489.387-4.489.387l-2.63 2.093 2.476-2.48c1.16.542 2.94.697 4.643 0ZM153.592 287.251c-1.083.387-2.553.31-3.327-.31-.774-.697-.309-1.472.929-2.092-1.316.852-1.161 1.627-.31 2.17a2.61 2.61 0 0 0 1.316.387c.464 0 .928-.077 1.392-.155ZM147.325 283.919c-.233.155-1.857 1.782-1.161 3.332.774 1.705 3.25 2.79 5.262 2.945a9.446 9.446 0 0 1-3.869-1.085c-2.631-1.55-2.554-3.41-.232-5.192Z" opacity=".45"/><path fill="#BA68C8" d="M176.884 278.417c-1.316-2.247-3.56-4.339-6.577-6.121-10.834-6.277-28.322-6.277-39.155 0-3.095 1.782-5.262 3.874-6.577 6.121h-1.47v5.657c.232 3.952 2.863 7.826 8.125 10.848 10.833 6.277 28.321 6.277 39.154 0 5.184-3.022 7.893-6.896 8.125-10.848v-5.657h-1.625Z"/><path fill="#000" d="M176.884 278.417c-1.316-2.247-3.56-4.339-6.577-6.121-10.834-6.277-28.322-6.277-39.155 0-3.095 1.782-5.262 3.874-6.577 6.121h-1.47v5.657c.232 3.952 2.863 7.826 8.125 10.848 10.833 6.277 28.321 6.277 39.154 0 5.184-3.022 7.893-6.896 8.125-10.848v-5.657h-1.625Z" opacity=".25"/><path fill="#000" d="M150.729 267.569c-7.119 0-14.16 1.55-19.577 4.649-3.095 1.782-5.262 3.875-6.577 6.122h-1.47v5.656c.232 3.952 2.863 7.827 8.125 10.849 5.416 3.099 12.458 4.649 19.577 4.649v-31.925h-.078Z" opacity=".1"/><path fill="#000" d="M135.563 270.203c-1.548.62-3.095 1.318-4.488 2.093-3.095 1.782-5.262 3.874-6.578 6.121h-1.47v5.657c.232 3.952 2.863 7.826 8.125 10.848a34.298 34.298 0 0 0 4.488 2.093v-26.812h-.077Z" opacity=".1"/><path fill="#BA68C8" d="M165.819 270.203c1.547.62 3.095 1.318 4.488 2.093 3.095 1.782 5.261 3.874 6.577 6.121h1.47v5.657c-.232 3.952-2.94 7.826-8.125 10.848a34.298 34.298 0 0 1-4.488 2.093v-26.812h.078Z" opacity=".5"/><path fill="#BA68C8" d="M131.152 267.104c-10.833 6.277-10.833 16.35 0 22.627 9.441 5.501 24.065 6.121 34.821 2.014.155-.077.31-.077.465-.155a30.844 30.844 0 0 0 3.946-1.859c8.976-5.192 10.524-13.096 4.488-19.218-1.161-1.239-2.708-2.324-4.488-3.409-10.911-6.277-28.476-6.277-39.232 0Z"/><path fill="#000" d="M131.152 267.104c-10.833 6.277-10.833 16.35 0 22.627 9.441 5.501 24.065 6.121 34.821 2.014.155-.077.31-.077.465-.155a30.844 30.844 0 0 0 3.946-1.859c8.976-5.192 10.524-13.096 4.488-19.218-1.161-1.239-2.708-2.324-4.488-3.409-10.911-6.277-28.476-6.277-39.232 0Z" opacity=".2"/><path fill="#F5F5F5" d="M174.717 270.513c.078.155 3.869 4.107 2.863 9.841-.928 5.502-8.666 10.152-11.297 11.236a30.78 30.78 0 0 0 3.946-1.859c9.054-5.192 10.524-13.096 4.488-19.218ZM126.664 286.321c-.155-.155-3.869-4.107-2.863-9.841.929-5.502 8.667-10.151 11.298-11.236a30.798 30.798 0 0 0-3.947 1.86c-9.053 5.192-10.524 13.095-4.488 19.217Z" opacity=".5"/><path fill="#BA68C8" d="M150.73 293.295c14.231 0 25.767-6.661 25.767-14.878s-11.536-14.878-25.767-14.878c-14.232 0-25.768 6.661-25.768 14.878s11.536 14.878 25.768 14.878Z"/><path fill="#fff" d="M150.73 293.295c14.231 0 25.767-6.661 25.767-14.878s-11.536-14.878-25.767-14.878c-14.232 0-25.768 6.661-25.768 14.878s11.536 14.878 25.768 14.878Z" opacity=".4"/><path fill="#fff" d="M126.122 282.834c-2.089-3.797-1.392-8.059 2.012-11.623.619-.698 1.393-1.317 2.167-1.937.619-.465 1.315-.93 2.089-1.395.387-.233.851-.465 1.238-.698-1.083 1.783-.696 3.642 5.417 4.03 11.839.697-3.173 12.011-3.173 12.011s-7.583-3.642-9.75-.388Z" opacity=".2"/><path fill="#fff" d="M127.361 279.735c-1.78-.233-2.631-2.015-1.935-4.107.696-2.092 2.708-3.565 4.488-3.41 1.78.233 2.631 2.015 1.935 4.107-.697 2.092-2.709 3.565-4.488 3.41Z" opacity=".5"/><path fill="#BA68C8" d="M146.087 289.188c.619-4.417 19.809-16.582 19.809-16.582s4.256-1.705 2.863-4.727c.774.387 1.393.852 2.089 1.317.465.31.851.62 1.238 1.007 5.726 4.96 5.726 11.469 0 16.506-.387.31-.773.697-1.238 1.007-.619.465-1.238.852-1.934 1.24-.619.387-1.316.775-2.012 1.085-.542.232-1.161.542-1.703.774-.619.233-1.16.465-1.779.62a36.306 36.306 0 0 1-5.726 1.395c-.465.078-.852.155-1.316.155-1.857.233-3.792.388-5.726.388-2.399 0-4.72-.233-7.042-.543 0-.155 3.096-.775 2.477-3.642Z"/><path fill="#fff" d="M146.087 289.188c.619-4.417 19.809-16.582 19.809-16.582s4.256-1.705 2.863-4.727c.774.387 1.393.852 2.089 1.317.465.31.851.62 1.238 1.007 5.726 4.96 5.726 11.469 0 16.506-.387.31-.773.697-1.238 1.007-.619.465-1.238.852-1.934 1.24-.619.387-1.316.775-2.012 1.085-.542.232-1.161.542-1.703.774-.619.233-1.16.465-1.779.62a36.306 36.306 0 0 1-5.726 1.395c-.465.078-.852.155-1.316.155-1.857.233-3.792.388-5.726.388-2.399 0-4.72-.233-7.042-.543 0-.155 3.096-.775 2.477-3.642Z" opacity=".3"/><path fill="#BA68C8" d="M164.271 270.591c7.196 4.184 7.506 10.771.851 15.11-.309.155-.542.388-.851.543-7.506 4.339-19.655 4.339-27.083 0-7.429-4.34-7.506-11.314 0-15.653.309-.155.619-.31.928-.543 7.506-3.797 18.959-3.642 26.155.543Z"/><path fill="#000" d="M164.271 270.591c7.196 4.184 7.506 10.771.851 15.11-.309.155-.542.388-.851.543-7.506 4.339-19.655 4.339-27.083 0-7.429-4.34-7.506-11.314 0-15.653.309-.155.619-.31.928-.543 7.506-3.797 18.959-3.642 26.155.543Z" opacity=".2"/><path fill="#BA68C8" d="M163.652 270.901c7.119 4.107 7.119 10.848 0 14.955-7.119 4.107-18.726 4.107-25.923 0-7.119-4.107-7.119-10.848 0-14.955 7.197-4.107 18.804-4.107 25.923 0Z"/><path fill="#000" d="M163.652 270.901c7.119 4.107 7.119 10.848 0 14.955-7.119 4.107-18.726 4.107-25.923 0-7.119-4.107-7.119-10.848 0-14.955 7.197-4.107 18.804-4.107 25.923 0Z" opacity=".5"/><path fill="#BA68C8" d="M163.652 273.845c-7.119-4.106-18.726-4.106-25.923 0-2.94 1.705-4.642 3.797-5.184 6.045.542 2.169 2.244 4.339 5.184 6.044 7.119 4.107 18.727 4.107 25.923 0 2.94-1.705 4.643-3.797 5.184-6.044-.541-2.248-2.244-4.34-5.184-6.045Z"/><path fill="#000" d="M163.652 273.845c-7.119-4.106-18.726-4.106-25.923 0-2.94 1.705-4.642 3.797-5.184 6.045.542 2.169 2.244 4.339 5.184 6.044 7.119 4.107 18.727 4.107 25.923 0 2.94-1.705 4.643-3.797 5.184-6.044-.541-2.248-2.244-4.34-5.184-6.045Z" opacity=".35"/><path fill="#BA68C8" d="M162.259 281.594v-2.169c0-.93-.619-1.783-1.934-2.558h-.078c-2.476-1.394-5.03-1.239-7.274-.697-.928.233-1.857.543-2.708.852-1.161.388-2.089.698-2.94.93-.542.078-.929.155-1.393.155-.387 0-.774-.155-1.161-.31l.077-.077c.078-.078.155-.155.31-.155a3.64 3.64 0 0 1 .774-.388c1.393-.619 2.785-.542 4.101-.077l2.321-2.402v-2.17c-2.089-.697-4.256-.775-6.422-.232a8.819 8.819 0 0 0-2.012.697l-2.322-1.395-2.785 1.628v2.169l.928.543c-.309.465-.387.852-.387 1.239v2.17c0 .93.62 1.782 2.012 2.557 1.316.775 2.631 1.085 3.869 1.085h.774c1.47-.077 2.863-.465 4.179-.93.309-.077.541-.155.774-.31l-2.399 2.402v2.17c3.327 1.317 6.577.698 9.053-.387l2.322 1.317 2.785-1.627v-2.17l-.928-.542c.309-.388.464-.853.464-1.318Zm-5.958-.232c-.232.155-.465.232-.619.31-1.703.697-3.405.542-4.566.077 2.167-.775 4.024-1.472 5.572-.62a.426.426 0 0 1-.387.233Z"/><path fill="#BA68C8" d="M152.973 276.17a18.877 18.877 0 0 0-2.708.852c-1.161.388-2.089.698-2.94.93-.542.078-.929.155-1.393.155-.464 0-.929-.155-1.316-.387-.928-.543-1.006-1.317.31-2.17.077-.077.155-.155.309-.155.232-.155.542-.31.774-.387 1.393-.62 2.786-.543 4.101-.078l2.322-2.402c-2.09-.697-4.256-.775-6.423-.232a8.836 8.836 0 0 0-2.012.697l-2.321-1.395-2.786 1.628 2.322 1.317c-2.322 1.782-2.399 3.642.232 5.192 1.315.774 2.631 1.084 3.869 1.084h.774c1.47-.077 2.863-.464 4.178-.929 2.708-.93 4.875-1.938 6.655-.93 1.238.697.851 1.549-.464 2.324-.233.155-.465.233-.62.31-1.702.698-3.482.543-4.642 0l-2.477 2.48c3.328 1.317 6.578.697 9.054-.387l2.321 1.317 2.786-1.627-2.321-1.318c2.321-1.782 2.631-3.797-.155-5.346h-.077c-2.554-1.318-5.108-1.163-7.352-.543Z"/><path fill="#fff" d="M152.973 276.17a18.877 18.877 0 0 0-2.708.852c-1.161.388-2.089.698-2.94.93-.542.078-.929.155-1.393.155-.464 0-.929-.155-1.316-.387-.928-.543-1.006-1.317.31-2.17.077-.077.155-.155.309-.155.232-.155.542-.31.774-.387 1.393-.62 2.786-.543 4.101-.078l2.322-2.402c-2.09-.697-4.256-.775-6.423-.232a8.836 8.836 0 0 0-2.012.697l-2.321-1.395-2.786 1.628 2.322 1.317c-2.322 1.782-2.399 3.642.232 5.192 1.315.774 2.631 1.084 3.869 1.084h.774c1.47-.077 2.863-.464 4.178-.929 2.708-.93 4.875-1.938 6.655-.93 1.238.697.851 1.549-.464 2.324-.233.155-.465.233-.62.31-1.702.698-3.482.543-4.642 0l-2.477 2.48c3.328 1.317 6.578.697 9.054-.387l2.321 1.317 2.786-1.627-2.321-1.318c2.321-1.782 2.631-3.797-.155-5.346h-.077c-2.554-1.318-5.108-1.163-7.352-.543Z" opacity=".3"/><path fill="#F5F5F5" d="m138.735 273.226 2.863-1.318 2.322 1.008-2.399-1.318-2.786 1.628ZM145.622 272.296c1.548-.31 3.947-.388 6.036.232l-1.625 2.325 2.321-2.402c-2.476-.775-4.72-.698-6.732-.155ZM160.247 276.79s0 .077 0 0c2.786 1.627 2.476 3.564.155 5.424 2.089-2.247 1.702-3.797-.542-5.114-2.244-1.317-5.107-1.317-6.887-.93 2.244-.62 4.798-.775 7.274.62ZM160.402 282.214l1.78 1.395-2.244 1.55 2.785-1.627-2.321-1.318ZM155.682 281.749c-2.476 1.163-4.488.388-4.488.388l-2.631 2.092 2.476-2.48c1.161.543 2.94.698 4.643 0ZM147.325 277.875c-1.084.387-2.554.31-3.328-.31-.774-.698-.309-1.472.929-2.092-1.316.852-1.161 1.627-.31 2.169.387.233.852.388 1.316.388.464 0 .851 0 1.393-.155ZM141.057 274.543c-.232.155-1.857 1.782-1.161 3.332.774 1.705 3.25 2.789 5.262 2.944a9.428 9.428 0 0 1-3.869-1.084c-2.631-1.55-2.631-3.41-.232-5.192Z" opacity=".45"/><path fill="#fff" d="m126.277 275.628.697-5.347.696 5.347 9.131.387-9.131.388-.696 5.269-.697-5.269-9.208-.388 9.208-.387Z"/><path fill="#BA68C8" d="M292.103 286.399h-.077l-15.012-8.679c-.077-.078-.077-.155-.077-.233 0-.077.077-.155.077-.232l18.726-10.848c.077-.078.155-.078.232 0l15.012 8.678c.077.078.077.155.077.233 0 .077-.077.155-.077.232l-18.726 10.849c-.077-.078-.077 0-.155 0Zm-14.47-8.912 14.548 8.369 18.261-10.538-14.547-8.369-18.262 10.538Z" opacity=".3"/><path fill="#BA68C8" d="M292.103 283.996v-77.721l-11.22-6.431v77.643l11.22 6.509Z"/><path fill="#000" d="M292.103 283.996v-77.721l-11.22-6.431v77.643l11.22 6.509Z" opacity=".2"/><path fill="#BA68C8" d="m292.103 283.996 15.012-8.678v-77.644l-15.012 8.601v77.721Z"/><path fill="#BA68C8" d="m307.115 197.674-11.22-6.509-15.012 8.679 11.22 6.431 15.012-8.601Z"/><path fill="#fff" d="m307.115 197.674-11.22-6.509-15.012 8.679 11.22 6.431 15.012-8.601Z" opacity=".25"/><path fill="#fff" d="m307.115 197.674-15.167 8.291-4.952-2.712-6.19-3.409 6.035 3.642 4.953 2.944c-.155 1.705-.155 70.67-.155 72.375 0 1.704.077 3.487.309 5.191.233-1.704.31-3.487.31-5.191 0-1.628 0-70.593-.155-72.22l15.012-8.911Z" opacity=".3"/><path fill="#BA68C8" d="M264.014 302.594h-.077l-15.012-8.679c-.077-.077-.077-.155-.077-.232 0-.078.077-.155.077-.233l18.726-10.848c.077-.078.155-.078.232 0l15.012 8.678c.077.078.077.155.077.233 0 .077-.077.155-.077.232l-18.726 10.849h-.155Zm-14.547-8.911 14.547 8.368 18.262-10.538-14.548-8.369-18.261 10.539Z" opacity=".3"/><path fill="#BA68C8" d="M264.014 300.192v-46.571l-11.22-6.509v46.571l11.22 6.509Z"/><path fill="#fff" d="M264.014 300.192v-46.571l-11.22-6.509v46.571l11.22 6.509Z" opacity=".1"/><path fill="#BA68C8" d="m264.014 300.192 15.012-8.679v-46.571l-15.012 8.679v46.571Z"/><path fill="#fff" d="m264.014 300.192 15.012-8.679v-46.571l-15.012 8.679v46.571Z" opacity=".3"/><path fill="#BA68C8" d="m279.026 244.942-11.22-6.509-15.012 8.679 11.22 6.509 15.012-8.679Z"/><path fill="#fff" d="m279.026 244.942-11.22-6.509-15.012 8.679 11.22 6.509 15.012-8.679Z" opacity=".55"/><path fill="#fff" d="m264.246 253.931 14.78-8.911-15.167 8.368c-1.625-.929-3.25-1.859-4.875-2.712l-6.19-3.409 6.036 3.642a165.016 165.016 0 0 0 4.952 2.944c-.077 1.783-.077 10.229-.155 11.934v23.789c0 1.782.078 3.564.078 5.346l.232 5.347.232-5.347c.077-1.782.077-3.564.077-5.346v-23.789c.078-1.783 0-10.229 0-11.856Z" opacity=".3"/><path fill="#BA68C8" d="M235.925 318.867h-.077l-15.012-8.679c-.077-.078-.077-.155-.077-.233 0-.077.077-.155.077-.232l18.726-10.849c.077-.077.155-.077.232 0l15.012 8.757c.077.077.077.155.077.232 0 .078-.077.155-.077.233l-18.726 10.848c-.078-.077-.078-.077-.155-.077Zm-14.547-8.912 14.547 8.369 18.262-10.538-14.548-8.369-18.261 10.538Z" opacity=".3"/><path fill="#BA68C8" d="M235.925 316.464v-16.35l-11.22-6.509v16.35l11.22 6.509Z"/><path fill="#000" d="M235.925 316.464v-16.35l-11.22-6.509v16.35l11.22 6.509Z" opacity=".45"/><path fill="#BA68C8" d="m235.925 316.464 15.012-8.678v-16.351l-15.012 8.679v16.35Z"/><path fill="#000" d="m235.925 316.464 15.012-8.678v-16.351l-15.012 8.679v16.35Z" opacity=".3"/><path fill="#BA68C8" d="m250.937 291.435-11.22-6.509-15.012 8.679 11.22 6.509 15.012-8.679Z"/><path fill="#000" d="m250.937 291.435-11.22-6.509-15.012 8.679 11.22 6.509 15.012-8.679Z" opacity=".15"/><path fill="#fff" d="m250.937 291.435-15.167 8.369-4.952-2.712-6.19-3.409 6.035 3.642 4.953 2.944c-.078 1.007-.155 12.088-.155 13.096 0 1.085.077 2.092.309 3.177.232-1.085.31-2.092.31-3.177 0-1.008 0-11.934-.077-12.941l14.934-8.989Z" opacity=".3"/><path fill="#BA68C8" d="M320.192 270.126h-.077l-15.012-8.679c-.077-.077-.077-.155-.077-.232 0-.078.077-.155.077-.233l18.726-10.848c.078-.078.155-.078.232 0l15.012 8.679c.077.077.077.155.077.232 0 .078-.077.155-.077.233l-18.726 10.848h-.155Zm-14.47-8.911 14.548 8.369 18.261-10.539-14.547-8.369-18.262 10.539Z" opacity=".3"/><path fill="#BA68C8" d="M320.192 267.724V160.247l-11.22-6.509v107.477l11.22 6.509Z"/><path fill="#fff" d="M320.192 267.724V160.247l-11.22-6.509v107.477l11.22 6.509Z" opacity=".3"/><path fill="#BA68C8" d="m320.192 267.724 15.012-8.679V151.568l-15.012 8.679v107.477Z"/><path fill="#fff" d="m320.192 267.724 15.012-8.679V151.568l-15.012 8.679v107.477Z" opacity=".55"/><path fill="#BA68C8" d="m335.204 151.568-11.22-6.509-15.012 8.679 11.22 6.509 15.012-8.679Z"/><path fill="#fff" d="m335.204 151.568-11.22-6.509-15.012 8.679 11.22 6.509 15.012-8.679Z" opacity=".75"/><path fill="#fff" d="m320.424 160.479 14.78-8.911-15.166 8.369c-1.625-.93-3.25-1.86-4.875-2.712l-6.191-3.41 6.036 3.642a165.06 165.06 0 0 0 4.952 2.945c-.077 2.015-.077 26.888-.155 28.903v66.408c0 2.015.078 4.029.078 6.044l.232 6.044.232-6.044c.077-2.015.077-4.029.077-6.044v-66.408c.078-2.015.078-26.888 0-28.826Z" opacity=".3"/><path fill="#BA68C8" d="M59.343 93.994 15.933 119.1l21.744-39.906 21.666 14.8Z" opacity=".5"/><path fill="#BA68C8" d="m59.343 112.281-43.41 25.107 21.744-39.985 21.666 14.878Z" opacity=".3"/><path fill="#BA68C8" d="m59.343 130.491-43.41 25.107 21.744-39.907 21.666 14.8Z" opacity=".15"/><path fill="#000" d="M158.08 182.486c3.483-3.022 8.048-5.812 13.619-8.291 6.268-2.867 13.851-5.347 19.036-8.446 6.809-4.03 9.363-8.912 8.899-13.793-.31-2.79-1.935-5.812-8.203-7.904-1.625-.543-3.559-.93-5.648-1.085-3.096-.155-5.804.465-7.971 1.085-11.529 3.487-16.404 8.833-20.273 14.103-3.869 5.191-8.589 8.213-17.024 13.173-3.637 2.092-7.506 4.184-10.91 6.276 0 0-.078 0-.078.078-1.702 1.085-3.637 2.092-4.952 3.254-2.167 1.86-4.101 3.797-4.875 5.812s-.387 4.184 1.934 6.199c.619.543 1.393 1.085 2.709 1.395 1.083.31 2.476.465 3.869.465 2.708.077 5.416-.155 7.66-.62 2.244-.465 4.101-1.085 5.804-1.705 7.428-2.789 12.226-6.431 16.404-9.996Z" opacity=".2"/><path fill="#FFA8A7" d="M122.718 79.658c-.619 1.705-2.476 5.27-2.322 5.735.31 1.24.387 2.014.078 3.41-.155.852-7.584 3.796-7.584 3.796l-.154-1.162c-.155-.775 0-1.627.309-2.325.851-2.015 2.631-6.431 3.173-9.918l6.5.464Z"/><path fill="#F28F8F" d="m120.551 88.027-7.893 3.565.155 1.007s7.429-2.945 7.583-3.797c.078-.31.155-.542.155-.775Z"/><path fill="#37474F" d="m96.718 103.138-2.399 24.254c-.077 1.162.62 1.937 1.625 2.634l2.399 1.705c.696.465 1.006.62 1.934.62.387 0 1.084-.31 1.393-.388h.078l.154-.077 27.548-12.553c2.012-.93 3.405-2.867 3.559-5.037l2.167-22.084c.077-.465-.232-1.163-.697-1.473l-4.101-2.944c-.387-.31-1.083-.388-1.547-.155l-31.262 14.18c-.232.078-.464.31-.619.543-.077.31-.232.542-.232.775Z"/><path fill="#263238" d="m96.718 103.138-2.399 24.254c-.077 1.162.62 1.937 1.625 2.634l2.399 1.705c.696.465 1.006.62 1.934.62.387 0 1.084-.31 1.393-.388-1.083.388-1.78-.232-1.702-1.472l2.244-22.859c0-.388.232-.775.464-1.162l-5.726-4.107c-.077.31-.232.542-.232.775Z"/><path fill="#455A64" d="M102.289 107.632c.078-.775.697-1.627 1.393-1.937l29.482-13.406c1.161-.542 2.012.078 1.857 1.395l-2.012 20.69c-.232 2.169-1.547 4.107-3.559 5.036l-27.548 12.554c-1.16.542-2.011-.078-1.857-1.395l2.244-22.937Z"/><path fill="#37474F" d="M133.938 93.219v.31l-2.012 20.689c-.155 1.783-1.316 3.332-2.941 4.107l-27.547 12.554c-.155.077-.232.077-.309.077v-.31l2.244-22.859c0-.388.387-.853.696-1.007l29.482-13.406c.232-.155.387-.155.387-.155Zm.077-1.162c-.232 0-.541.077-.774.155l-29.481 13.405c-.697.31-1.316 1.163-1.393 1.937l-2.244 22.86c-.078.929.387 1.549 1.083 1.549.232 0 .542-.077.774-.155l27.47-12.475c2.012-.93 3.405-2.867 3.559-5.037l2.012-20.69c.155-.93-.309-1.55-1.006-1.55Z"/><path fill="#BA68C8" d="m131.771 88.802-31.339 14.413a2.631 2.631 0 0 0-1.625 2.247l-2.399 25.029.465.31 2.476-25.261c.077-.853.619-1.55 1.315-1.86l31.571-14.49-.464-.388Z"/><path fill="#000" d="M99.349 104.067c-.31.388-.465.853-.542 1.318l-2.399 25.029.465.31 2.476-25.262c.077-.387.155-.775.387-1.162l-.387-.233Z" opacity=".2"/><path fill="#000" d="M99.736 104.377c.232-.31.541-.62.928-.775l31.571-14.49-.386-.31-31.339 14.413c-.465.233-.852.542-1.084.93" opacity=".2"/><path fill="#BA68C8" d="m120.938 90.817-.387 3.797 1.393 1.007.464-4.96c0-.232-.155-.386-.387-.31l-1.083.466Z"/><path fill="#000" d="m120.938 90.817-.387 3.797 1.393 1.007.464-4.96c0-.232-.155-.386-.387-.31l-1.083.466Z" opacity=".4"/><path fill="#BA68C8" d="m110.259 93.529-.619 6.122 1.316.929 1.006-.464.464-4.96c0-.232.232-.542.464-.697l7.584-3.41 1.547-.697c.232-.078.387 0 .387.31l-.464 4.96 1.006-.466.619-6.121v-.078c0-.232-.155-.542-.31-.62l-.541-.387c-.232-.155-.542-.155-.774-.078l-11.143 5.037c-.309.078-.464.387-.542.62Z"/><path fill="#000" d="m111.575 94.536-.619 6.122 1.006-.465.464-4.96c0-.232.232-.542.464-.697l7.584-3.41 1.547-.697c.232-.077.387 0 .387.31l-.464 4.96 1.006-.465.619-6.122v-.077c0-.233-.155-.31-.387-.155l-11.143 5.037c-.232 0-.387.31-.464.62Z" opacity=".2"/><path fill="#FFA8A7" d="M119.313 90.584c.155 0 .309.078.464.155.232-.31.619-.542 1.006-.542.155 0 .387.077.387.232v.155c-.077.543-.155 1.085-.232 1.705-.077.388-.155.852-.464 1.085a.822.822 0 0 1-.929.155c-.077.232-.309.465-.619.542-.077 0-.851.078-.774 0-.309.543-.928 1.085-1.78.93 0 0-.232.62-1.315.465-1.083-.155-1.625-1.317-1.625-1.317.077-.31.155-.465.542-.62.154-.078.387-.155.541-.233.232-.155.465-.465.619-.62.155-.232.387-.464.697-.542.309-.077.619-.077.851.155 0-.232.155-.387.31-.62.154-.155.309-.31.541-.31.078 0 .542.078.542.233.155-.31.387-.62.696-.853.155-.155.387-.155.542-.155Z"/><path fill="#FFA8A7" d="M123.801 79.116c-.464 2.247-1.702 4.184-1.161 6.122.387 1.24.465 1.162.31 2.402-.078.465-.232 1.24-.387 1.705-.077.232-.155.542-.31.775-.077.31-.232.542-.387.852-.154.31-.464.62-.696.93-.464.542-.851 1.007-1.47 1.394 0 0-.078 0-.078.078-.154.078-.309 0-.386-.155-.465-.542-.155-1.317.154-1.86.31-.62.619-1.24.619-1.86v-.774l-.696-.155s-2.244-.543-2.244-1.628c-.077-1.084.774-2.092 1.47-3.332.619-1.317.929-2.092 1.548-5.346l3.714.852Z"/><path fill="#F28F8F" d="M121.866 90.972c-.541.852-1.16 1.55-1.857 2.17-.154.077-.232.232-.464.232-1.006-.232-.542-1.55-.232-2.17.309-.542.619-1.162.619-1.782.077.62-.232 1.24-.542 1.86-.309.542-.773 1.705.078 1.937 1.006-.465 1.779-1.472 2.398-2.247ZM119.855 88.492c-.233-.155-.542-.232-.852-.387-.232-.155-.386-.31-.464-.465-.309-.465-.619-1.085-.542-1.705 0 0 0-.078-.077-.078-.232.62-.077 1.395.31 2.015.154.31.387.465.696.698.155.077.31.155.464.155.155.077.31.077.465 0 .077-.078 0-.233 0-.233Z"/><path fill="#E6E6E6" d="M136.956 34.482c-4.798-.387-8.59.62-11.066 6.897-2.785 7.129-5.571 12.63-6.964 17.822-1.393 5.192-3.405 21.62-3.405 21.62s3.637 3.177 7.584 1.704l6.035-18.674 7.816-15.033V34.482Z"/><path fill="#37474F" d="M191.431 152.343c.31-.232.852.62.852 1.162 0 1.55-1.006 3.797-3.25 5.812-2.244 2.015-7.661 4.184-9.209 4.959-1.547.775-3.791 3.022-5.184 4.107-2.554 2.015-4.875 2.325-6.268 1.937-.542-.155-.851-.62-1.083-1.084-.542-1.085-.619-1.318-.465-1.395l24.607-15.498Z"/><path fill="#455A64" d="M165.354 164.586c.387 1.163 1.161 2.945 1.857 3.952.774.62 1.858.543 2.709.388 2.166-.465 3.869-1.55 5.571-3.1 1.083-.93 2.167-1.937 3.714-2.635 1.625-.774 5.34-2.402 6.887-3.254 1.393-.697 2.941-1.937 3.869-3.255.774-1.084 1.78-3.022 1.625-4.029-.696-2.092-1.547-3.1-3.018-3.177-1.547 0-3.25.775-5.648 1.86-.697.31-1.625.775-2.012.93a64.555 64.555 0 0 0-3.869 1.782c-.929.465-1.857.852-2.863.852-.465 0-.929-.077-1.316-.387-.464-.388-.851-1.085-1.315-.853 0 0-7.042 5.657-7.661 6.122-.619.465.387 1.24 1.47 4.804Z"/><path fill="#FAFAFA" d="M181.527 151.878c.309 0 .696.233.928.387.31.233.619.465.851.698.31.31-.154.697-.541.31-.31-.233-.619-.543-1.161-.775-.232-.155-.696-.233-.928-.078-.155.078-.387.155-.387.155-.078-.31.851-.697 1.238-.697ZM177.812 153.428c.233-.155.542-.233.852-.155.387.077.696.232 1.006.542l1.006 1.008c.154.232-.465.542-.62.31-.232-.233-.619-.698-.928-.93-.155-.155-.851-.62-1.316-.465l-.232.077c-.077-.077 0-.232.078-.31.077 0 .077 0 .154-.077ZM175.723 154.513a.848.848 0 0 1 .619 0c.232.077.465.31.697.465.464.465.619.697.851 1.162.155.31-.464.542-.619.387-.464-.697-.697-1.084-1.316-1.472-.541-.232-.851-.232-.851-.232 0-.078.078-.155.155-.155s.387-.078.464-.155Z"/><path fill="#FFA8A7" d="M159.086 151.646s3.947 7.051 5.03 8.601c.387.465 1.47.155 2.089.077.619-.077 1.625-.155 2.322 0 2.012.543 3.172.31 2.708-2.402-.077-.542.078-.93.774-1.162.464-.155 1.083-.233 1.47-.543.078-.077-.077-.155-.155-.232-.619-.31-1.006-.542-1.47-1.55-1.393-3.099-2.708-9.376-2.708-9.376l-10.06 6.587ZM128.985 167.376c1.239-1.937 1.858-5.657 4.566-13.328l9.905 7.284-5.649 11.081c-.31.542-.31 1.394-.464 1.549-1.316 1.938-8.358-6.586-8.358-6.586Z"/><path fill="#455A64" d="M125.349 171.56c0-.077-.078-1.007 0-1.162.232-1.008.851-1.24 1.625-1.782 1.006-.698 1.934-1.473 2.166-1.86.232-.388.31-.543.697-.698.696-.309 1.779-.309 3.172.388 2.244 1.162 2.941 2.635 2.786 4.184-.077 1.163-.232 2.712.851 3.41.464.31 1.083-1.627 1.083-1.627.619 1.084-.232 2.557-.696 4.726-.309 1.473-.232 2.17-.077 3.642.232 1.938.464 1.938 1.47 2.015.851.078 3.327-.077 4.875 1.007 2.089 1.473 1.547 3.41 1.547 3.41-.232.697-2.553 4.262-10.755 2.944-2.399-.387-7.429-4.106-7.352-4.494.078-.31 0-.775 0-1.085 0-.852-.077-1.704-.077-2.557 0-.775.077-1.627-.155-2.402-.154-.697-.232-1.317-.309-2.015l-.464-5.114c0-.387-.465-.465-.387-.93Z"/><path fill="#263238" d="M124.343 171.173c-.774.775-.31 3.099.773 5.811.465 1.24 1.393 3.332 1.084 5.502-.232 2.247-.31 3.255.232 4.34.928 1.627 5.649 3.719 8.512 4.339 0 0-2.554-3.255-2.863-8.136-.31-4.882-.619-8.059-2.863-10.229-2.863-2.712-4.875-1.627-4.875-1.627Z"/><path fill="#37474F" d="M144.848 187.213s-1.625 3.099-8.047 3.022c-2.476-.078-3.869-1.24-3.947-5.114-.077-4.572-.464-9.221-1.934-11.546-1.47-2.247-3.869-3.41-5.649-3.255-.309.078-.696.388-1.006.775 0 0 1.857-.62 4.72 1.782 2.09 1.783 2.709 5.425 2.631 9.997 0 1.937-.154 4.184.465 5.656.541 1.395 1.702 2.325 3.018 2.712 3.482 1.008 8.202-.62 9.363-2.092.773-.93.386-1.937.386-1.937Z"/><path fill="#FAFAFA" d="M137.188 182.021s.464.31.541.775c.078.465-.077 1.395-1.005 2.015-.387.232-.697.155-.078-.62.619-.853.542-2.17.542-2.17ZM136.878 179.619s.232.155.232.775c0 .31-.541 1.705-1.16 2.015-.697.31-.31-.465 0-.853.309-.31.851-1.317.928-1.937ZM137.11 176.984s.233.078 0 .93c-.077.31-.928 1.163-1.392 1.24-.465.078-.619-.155-.078-.542.387-.31 1.393-1.163 1.47-1.628Z"/><path fill="#37474F" d="M153.36 78.729s3.869 4.649 6.191 13.25c2.863 10.461 3.946 18.598 4.797 24.409.542 3.72 1.084 7.207 2.399 14.336 1.238 6.741 4.256 21.309 4.256 21.309s-.542 2.247-3.482 3.565c-3.018 1.317-6.191.774-6.191.774s-2.011-3.487-6.345-11.778c-2.863-5.579-3.404-8.679-3.946-11.546-.387-2.169-.929-6.354-.851-8.291L134.17 97.481s-1.702-1.782-3.25-5.58c-2.244-5.733.619-13.87.619-13.87l21.821.698Z"/><path fill="#37474F" d="M153.36 78.729s3.869 4.649 6.191 13.25c2.863 10.461 3.946 18.598 4.797 24.409.542 3.72 1.084 7.207 2.399 14.336 1.238 6.741 4.256 21.309 4.256 21.309s-.542 2.247-3.482 3.565c-3.018 1.317-6.191.774-6.191.774s-2.011-3.487-6.345-11.778c-2.863-5.579-3.404-8.679-3.946-11.546-.387-2.169-.929-6.354-.851-8.291L134.17 97.481s-1.702-1.782-3.25-5.58c-2.244-5.733.619-13.87.619-13.87l21.821.698Z"/><path fill="#263238" d="M164.039 114.296c-.851-5.657-2.012-13.018-4.488-22.317-.697-2.712-1.625-4.959-2.476-6.896l-20.351-.388c-1.548 3.565-2.709 7.982.619 13.406l.851 6.431 11.839 20.148c-.077 1.937.464 6.121.851 8.291.542 2.867 1.006 5.889 3.947 11.546.154.232.232.465.386.697 1.316-1.937 3.328-5.037 4.024-6.819 1.161-2.79 1.935-8.059 3.173-14.8.541-2.48 1.083-6.044 1.625-9.299Z"/><path fill="#37474F" d="M139.974 78.729c-1.006 1.007-3.483 4.494-3.947 9.84-.155 2.248.464 6.51 3.095 9.687.774 11.778 3.173 34.56 3.173 34.56-3.095 3.177-3.946 5.269-5.726 11.081-1.084 3.487-4.256 14.103-5.494 17.977 7.583.31 8.976 6.819 8.976 6.819s9.131-14.8 13.774-23.169c3.404-6.199 3.869-7.671 4.797-11.313.929-3.642 1.083-7.129 2.244-14.801 1.161-7.671 3.095-18.287 3.637-25.803.542-7.594.619-15.576.619-15.576l-25.148.698Z"/><path fill="#263238" d="M129.991 87.95c.774-.233 1.858-.93 2.244-1.627.233-.388.387-.93.619-1.705.233-.775.465-1.782.929-2.867l.619.232c-.464 1.008-.696 1.937-.928 2.712-.233.775-.387 1.395-.697 1.86-.464.775-1.78 1.705-2.786 1.937v-.542ZM145.158 94.769c-.155 0-.31 0-.387-.078-.928-.232-1.625-.852-3.095-2.634-1.083-1.395-1.006-2.402-.774-4.03.077-.62.696-3.874.774-4.727l.619.31c-.077.853-.697 3.875-.697 4.495-.154 1.627-.232 2.402.697 3.564 1.315 1.705 1.934 2.248 2.708 2.403.697.154 3.947-.388 4.798-1.008.464-.31 1.315-4.65 1.857-8.369l.619.078c-.232 1.86-1.161 8.136-2.089 8.834-1.006.62-3.792 1.162-5.03 1.162Z"/><path fill="#F5F5F5" d="M131.307 37.892c-2.167 4.107-1.857 7.826-1.238 13.638.541 5.347 1.006 8.679 1.47 15.265.542 7.594-.464 12.321-.464 12.321s.232 3.177 9.595 5.58c16.559 4.184 24.452-.62 24.452-.62s.387-9.3-.232-21.543c-.696-13.638-.929-15.652-2.012-18.907a8.586 8.586 0 0 0-4.256-4.34c-1.625-.774-5.571-2.014-7.893-2.944-5.416-2.092-11.684-1.937-11.684-1.937-4.72-.233-6.655 1.395-7.738 3.487Z"/><path fill="#E0E0E0" d="M137.884 35.257c.387 0 .697 0 1.084.078h.232c1.006 0 6.5.077 11.22 1.937.928.388 2.166.775 3.327 1.24 1.78.62 3.56 1.24 4.488 1.705 1.703.775 3.095 2.17 3.792 3.874 1.006 3.1 1.238 4.804 1.934 18.675.542 10.538.31 18.985.233 21-1.084.542-4.721 2.014-10.988 2.014-3.869 0-8.125-.542-12.536-1.705-7.816-2.014-8.899-4.417-9.054-4.882.155-.93.929-5.501.465-12.398-.387-5.579-.774-8.834-1.238-12.94l-.233-2.402c-.619-5.812-.851-9.222 1.161-13.174 1.006-1.472 2.322-3.022 6.113-3.022Zm0-.775c-3.869 0-5.571 1.473-6.577 3.487-2.167 4.107-1.857 7.827-1.238 13.638.541 5.347 1.006 8.68 1.47 15.266.542 7.594-.464 12.32-.464 12.32s.232 3.178 9.595 5.58c5.03 1.317 9.286 1.704 12.768 1.704 7.892 0 11.761-2.324 11.761-2.324s.387-9.299-.232-21.542c-.696-13.638-.928-15.653-2.012-18.907a8.584 8.584 0 0 0-4.255-4.34c-1.625-.775-5.572-2.014-7.893-2.944-4.798-1.86-10.292-1.938-11.453-1.938h-1.47Z"/><path fill="#FFA8A7" d="m151.194 31.77-.465 5.037c-2.785.62-9.44.155-10.678-1.55l.232-4.571 10.911 1.084Z"/><path fill="#F28F8F" d="M158.313 18.907s1.238.93 2.244 4.34L158.7 24.64c-.62-2.402-1.316-4.804-.387-5.734Z"/><path fill="#FFA8A7" d="M153.438 9.531c4.72.31 5.494 2.79 4.797 10.771 1.625 7.594-.619 10.616-1.625 11.623-2.244 1.163-4.488 1.395-7.506.62-2.321-.62-8.202-2.324-10.678-6.044-2.941-4.34-3.637-10.848-.542-13.328 4.334-3.41 13.697-3.72 15.554-3.642Z"/><path fill="#F28F8F" d="M156.61 31.925c-.541.543-3.714 1.55-5.648 1.318l.154-1.473c.078 0 2.709.543 5.494.155Z"/><path fill="#263238" d="M153.902 15.11c-.077.31-.232.698-.464 1.008-.542.852-1.316 1.24-2.09 1.782.31 1.007.619 2.015.619 3.022 0 .31 0 .697-.232.93-.309.465-.851.465-1.16 0-.31-.543-.542-1.085-.929-1.628a2.959 2.959 0 0 0-1.934-1.007c-2.864-.31-2.864 4.107-1.703 5.657 1.857 2.48 3.405.852 3.405.852s.928 3.797-1.78 5.425c0 0-4.411 1.084-7.428-.465-1.393-2.868-3.25-4.495-4.721-7.517-2.553-5.27-1.315-9.918.387-10.848-.464-2.48 1.006-4.882 4.179-6.354 3.172-1.473 7.506-.698 10.833-.155 2.012.31 4.024.232 5.958-.31.31-.078.542-.155.852-.155.309 0 .619.077.773.31.233.31.155.697 0 1.084-.154.31-.387.62-.541 1.008.696-.155 1.393.31 1.702.93.464.93.232 2.014-.309 2.867-.542.852-1.471 1.395-2.399 1.627-.929.31-1.935.31-2.941.31.155.465.078 1.085-.077 1.627Z"/><path fill="#E6E6E6" d="M150.884 34.715c.697 0 1.47 1.472 2.941 2.944 0 0-3.947 2.325-9.905 1.395-5.881-.93-7.042-4.494-7.042-4.494s1.316-1.007 2.09-1.705c.851-.852 1.315-.852 1.315-.852l-.077 1.24s1.16 1.162 4.72 1.937c3.559.542 5.958-.465 5.958-.465Z"/><path fill="#FFA8A7" d="M171.854 69.585s-1.702-8.524-2.94-14.413c-1.238-5.967-.774-12.863-10.137-15.188-1.548 2.402-2.554 5.967-2.012 10.539.542 4.494 2.554 11.623 3.095 14.025.542 2.402 2.244 7.13 4.488 10.461 2.941 4.417 8.512 11.856 10.756 14.645 1.006 1.24 1.935 2.558 2.863 3.875 1.006 1.395 2.322 2.48 3.482 3.797.542.62 1.316 1.007 2.09 1.24.541.155 1.006-.078 1.47.077.464.155.774.62 1.393.62s1.16-.465 1.779-.387c.619.077 1.239.31 1.858.232.541 0 1.006-.077 1.547.155.464.155 1.083.775 1.625.465s.387-1.007.232-1.472c-.387-.93-1.393-1.86-2.244-2.325-1.006-.542-1.857-1.317-2.94-1.705-.929-.387-1.78-1.162-2.476-1.937-.465-.542-.774-1.395.154-1.395 1.161 0 2.554.465 3.637-.31.697-.542.465-1.162-.232-1.472-1.161-.542-2.244-1.085-3.327-1.782-1.084-.698-2.089-1.472-3.25-2.092-.542-.31-1.238-.62-1.857-.853-1.78-.697-2.476-2.48-3.405-4.03-1.238-2.246-4.256-7.903-5.649-10.77Z"/><path fill="#E6E6E6" d="M158.313 60.519s-1.625-6.432-2.09-9.144c-.387-2.712-.696-9.686 2.167-12.01 2.012.464 7.429 1.471 8.976 6.508 1.548 5.115 3.869 18.443 3.869 18.443l7.042 16.582s0 1.55-2.941 3.565c-2.94 2.015-4.41 1.317-4.41 1.317s-5.804-8.756-8.59-13.096c-1.857-2.944-2.321-4.881-4.023-12.165Z"/><path fill="#BA68C8" d="M105.307 32.7v-9.996l8.357-.852c.155 0 .31 0 .464.077.387.233 4.256 2.48 4.411 2.557.387.233.542.853.155 1.24l-9.054 9.531-4.333-2.557Z"/><path fill="#BA68C8" d="M78.998 55.25V24.33c0-.465.31-1.007.696-1.24l25.149-14.49c.387-.232 1.006-.232 1.393 0l3.946 2.325c.387.232.696.775.696 1.24v30.918c0 .465-.309 1.007-.696 1.24l-25.148 14.49c-.387.232-1.007.232-1.393 0l-3.947-2.325c-.387-.232-.696-.775-.696-1.24Z"/><path fill="#000" d="M84.879 58.892c-.31.154-.62-.078-.62-.466V27.508c0-.232.078-.464.233-.697l-5.34-3.1c-.154.233-.154.466-.154.698v30.918c0 .465.31 1.007.696 1.24l3.947 2.325c.31.154.85.154 1.238 0Z" opacity=".15"/><path fill="#BA68C8" d="m118.075 24.409-7.197.775V12.166c0-.465-.309-.62-.696-.388l-25.148 14.49c-.387.233-.697.776-.697 1.24v30.919c0 .465.31.62.697.387l25.148-14.49c.387-.233.696-.775.696-1.24v-8.989l7.893-8.291c.465-.62.078-1.473-.696-1.395Z"/><path fill="#fff" d="m118.075 24.409-7.197.775V12.166c0-.465-.309-.62-.696-.388l-25.148 14.49c-.387.233-.697.776-.697 1.24v30.919c0 .465.31.62.697.387l25.148-14.49c.387-.233.696-.775.696-1.24v-8.989l7.893-8.291c.465-.62.078-1.473-.696-1.395Z" opacity=".35"/><path fill="#fff" d="M104.92 38.357c.078-.155.078-.31 0-.388l-1.083-1.162c-.232-.31-.31-.775-.155-1.395s.464-1.162.851-1.395l1.703-1.24c.077-.077.154-.232.232-.387.077-.697.155-1.472.155-2.247 0-.697-.078-1.395-.155-2.092 0-.155-.078-.155-.232-.155l-1.703.697c-.387.155-.696 0-.851-.387v-.078c-.155-.387-.077-1.007.155-1.55l1.083-2.402c.078-.155.078-.31 0-.387a4.727 4.727 0 0 0-2.244-1.705c-.077 0-.155 0-.232.155l-1.393 2.247c-.309.465-.696.775-1.083.853-.387 0-.62-.31-.697-.775l-.154-2.17c0-.155-.078-.155-.155-.155-1.006.31-2.167 1.008-3.173 1.86a.593.593 0 0 0-.154.387l-.233 2.402c-.077.543-.31 1.163-.696 1.55-.387.388-.774.62-1.083.465l-1.316-.62c-.077-.077-.154 0-.31.155a25.465 25.465 0 0 0-2.243 4.34c-.078.155-.078.31 0 .387l1.083 1.163c.232.232.31.774.155 1.394v.078c-.155.62-.465 1.085-.851 1.395l-1.703 1.24a.592.592 0 0 0-.155.387c-.077.697-.154 1.472-.154 2.247 0 .697.077 1.395.154 2.092 0 .155.078.155.233.155l1.702-.697c.387-.155.696 0 .851.387.155.388.078 1.008-.155 1.55l-1.083 2.402c-.077.155-.077.31 0 .388a4.726 4.726 0 0 0 2.244 1.704c.078 0 .155-.077.232-.155l1.393-2.247c.31-.465.697-.775 1.083-.775.387 0 .62.31.697.775l.155 2.17c0 .155.077.155.154.155a7.333 7.333 0 0 0 1.625-.698c.542-.31 1.084-.697 1.625-1.084a.592.592 0 0 0 .155-.388l.232-2.402c.078-.542.31-1.162.697-1.55.387-.465.773-.62 1.083-.465l1.315.698c.078 0 .155 0 .233-.155.773-1.55 1.547-3.022 2.166-4.572Zm-7.66 3.564c-2.631 1.473-4.72-.077-4.72-3.642 0-3.487 2.166-7.594 4.797-9.066 2.63-1.472 4.72.155 4.72 3.642-.077 3.487-2.166 7.517-4.797 9.066Z"/></g><defs><clipPath id="a"><path fill="#fff" d="M.998 0h352.003v335.294H.998z"/></clipPath></defs></svg>