<svg xmlns="http://www.w3.org/2000/svg" width="342" height="379" fill="none"><path fill="url(#a)" d="M341.526 271.251c0 24.175-80.187 107.749-173.168 107.749C75.376 379 0 359.402 0 335.227c0-24.175 75.376-43.773 168.358-43.773 92.981 0 173.168-44.378 173.168-20.203Z"/><path fill="url(#b)" d="M300.158 283.475c0 18.411-60.761 82.057-131.218 82.057-70.456 0-127.572-14.925-127.572-33.336 0-18.41 57.116-33.335 127.572-33.335 70.457 0 131.218-33.796 131.218-15.386Z"/><rect width="172.206" height="277.385" fill="url(#c)" rx="30" transform="matrix(.97113 -.23853 0 1 102.939 91.995)"/><rect width="172.206" height="273.22" fill="url(#d)" rx="30" transform="matrix(.97113 -.23853 0 1 112.559 94.235)"/><g filter="url(#e)"><rect width="149.587" height="250.245" fill="url(#f)" rx="30" transform="matrix(.97113 -.23853 0 1 119.293 103.692)"/></g><rect width="149.587" height="250.245" fill="#fff" rx="30" transform="matrix(.97113 -.23853 0 1 125.066 103.692)"/><rect width="149.587" height="250.245" fill="url(#g)" rx="30" transform="matrix(.97113 -.23853 0 1 125.066 103.692)"/><rect width="3.848" height="24.051" x="105.825" y="162.54" fill="url(#h)" rx="1.924"/><rect width="3.848" height="15.393" x="105.825" y="197.174" fill="url(#i)" rx="1.924"/><g filter="url(#j)" shape-rendering="crispEdges" transform="matrix(.95732 -.28903 0 1 23.523 205.74)"><rect width="155.851" height="37.888" fill="url(#k)" rx="5"/><rect width="155.851" height="37.888" fill="url(#l)" rx="5"/><rect width="155.851" height="37.888" fill="url(#m)" rx="5"/></g><rect width="155.851" height="33.672" fill="url(#n)" rx="5" transform="matrix(.95732 -.28903 0 1 28.334 211.512)"/><g filter="url(#o)"><path fill="#FCDEA2" d="m78.301 202.439-1.006 6.841-13.248 2.068 13.248 1.956-3.225 10.179 6.771-7.864 6.905 4.945-4.013-8.065 8.188-9.14-9.596 4.714-4.024-5.634Z"/></g><g filter="url(#p)"><path fill="#FFC655" d="m79.499 203.607-.91 6.181-11.97 1.868 11.97 1.768-2.914 9.198 6.119-7.106 6.239 4.468-3.626-7.288 7.399-8.259-8.671 4.26-3.636-5.09Z"/></g><g filter="url(#q)"><path fill="#FCDEA2" d="m47.439 209.233-1.163 7.906-15.314 2.391 15.314 2.26-3.728 11.767 7.827-9.09 7.981 5.716-4.638-9.323 9.464-10.565-11.092 5.449-4.651-6.511Z"/></g><g filter="url(#r)"><path fill="#FFC655" d="m48.823 210.582-1.05 7.144-13.838 2.16 13.837 2.043-3.369 10.632 7.073-8.214 7.212 5.165-4.192-8.424 8.552-9.546-10.023 4.924-4.202-5.884Z"/></g><g filter="url(#s)"><path fill="#FCDEA2" d="m106.339 194.739-.994 6.759-13.092 2.044 13.092 1.933-3.187 10.06 6.691-7.772 6.824 4.887-3.966-7.97 8.092-9.033-9.483 4.659-3.977-5.567Z"/></g><g filter="url(#t)"><path fill="#FFC655" d="m107.522 195.892-.898 6.108-11.83 1.847 11.83 1.746-2.881 9.09 6.047-7.022 6.166 4.415-3.584-7.201 7.312-8.162-8.569 4.209-3.593-5.03Z"/></g><g filter="url(#u)"><path fill="#FCDEA2" d="m134.06 187.141-.881 5.996-11.613 1.812 11.613 1.714-2.827 8.923 5.935-6.893 6.052 4.334-3.517-7.069 7.177-8.011-8.412 4.132-3.527-4.938Z"/></g><g filter="url(#v)"><path fill="#FFC655" d="m135.109 188.164-.796 5.418-10.493 1.638 10.493 1.549-2.555 8.062 5.363-6.229 5.469 3.917-3.178-6.388 6.485-7.239-7.601 3.734-3.187-4.462Z"/></g><g filter="url(#w)"><path fill="#FCDEA2" d="M73.033 3.708 71.145 16.54l-24.856 3.88 24.856 3.67-6.051 19.098 12.704-14.755 12.955 9.278-7.529-15.131L98.586 5.432l-18.004 8.845-7.55-10.57Z"/></g><g filter="url(#x)"><path fill="#FFC655" d="m75.278 5.898-1.705 11.596L51.113 21l22.46 3.316-5.468 17.257 11.479-13.332 11.706 8.383-6.803-13.673 13.88-15.495L82.1 15.448l-6.82-9.55Z"/></g><g filter="url(#y)"><path fill="#FCDEA2" d="m159.217 181.187-.771 5.246-10.161 1.586 10.161 1.5-2.474 7.807 5.193-6.031 5.296 3.792-3.077-6.185 6.279-7.01-7.36 3.615-3.086-4.32Z"/></g><g filter="url(#z)"><path fill="#FFC655" d="m160.135 182.082-.697 4.74-9.181 1.433 9.181 1.356-2.235 7.054 4.693-5.45 4.785 3.427-2.781-5.589 5.674-6.334-6.65 3.267-2.789-3.904Z"/></g><g filter="url(#A)" shape-rendering="crispEdges" transform="matrix(.95732 -.28903 0 1 69.7 292.864)"><rect width="155.851" height="37.888" fill="url(#B)" rx="5"/><rect width="155.851" height="37.888" fill="url(#C)" rx="5"/><rect width="155.851" height="37.888" fill="url(#D)" rx="5"/></g><rect width="155.851" height="33.672" fill="url(#E)" rx="5" transform="matrix(.95732 -.28903 0 1 74.51 298.636)"/><g filter="url(#F)"><path fill="#FCDEA2" d="m127.063 290.525-1.006 6.841-13.249 2.068 13.249 1.956-3.226 10.179 6.772-7.864 6.905 4.945-4.013-8.065 8.188-9.14-9.596 4.714-4.024-5.634Z"/></g><g filter="url(#G)"><path fill="#FFC655" d="m128.26 291.693-.909 6.181-11.971 1.868 11.971 1.768-2.914 9.198 6.118-7.106 6.24 4.468-3.626-7.288 7.398-8.259-8.671 4.26-3.636-5.09Z"/></g><g filter="url(#H)"><path fill="#FCDEA2" d="m96.2 297.318-1.162 7.907-15.314 2.391 15.314 2.26-3.729 11.767 7.827-9.091 7.982 5.716-4.639-9.322 9.465-10.565-11.093 5.449-4.65-6.512Z"/></g><g filter="url(#I)"><path fill="#FFC655" d="m97.585 298.668-1.051 7.144-13.838 2.16 13.838 2.043-3.369 10.632 7.072-8.214 7.212 5.165-4.191-8.424 8.552-9.546-10.023 4.924-4.202-5.884Z"/></g><g filter="url(#J)"><path fill="#FCDEA2" d="m155.101 282.825-.994 6.759-13.093 2.044 13.093 1.933-3.188 10.06 6.692-7.772 6.823 4.887-3.965-7.97 8.091-9.033-9.483 4.659-3.976-5.567Z"/></g><g filter="url(#K)"><path fill="#FFC655" d="m156.283 283.978-.898 6.108-11.83 1.847 11.83 1.746-2.88 9.09 6.046-7.022 6.166 4.416-3.583-7.202 7.311-8.162-8.569 4.209-3.593-5.03Z"/></g><g filter="url(#L)"><path fill="#FCDEA2" d="m182.822 275.227-.882 5.995-11.612 1.813 11.612 1.714-2.827 8.923 5.935-6.893 6.053 4.334-3.518-7.069 7.177-8.012-8.411 4.132-3.527-4.937Z"/></g><g filter="url(#M)"><path fill="#FFC655" d="m183.871 276.25-.797 5.418-10.493 1.638 10.493 1.548-2.554 8.063 5.363-6.229 5.468 3.917-3.178-6.388 6.485-7.239-7.6 3.734-3.187-4.462Z"/></g><g filter="url(#N)"><path fill="#FCDEA2" d="m207.979 269.272-.771 5.247-10.161 1.586 10.161 1.5-2.474 7.807 5.193-6.032 5.296 3.793-3.078-6.186 6.28-7.01-7.36 3.616-3.086-4.321Z"/></g><g filter="url(#O)"><path fill="#FFC655" d="m208.897 270.168-.697 4.74-9.181 1.433 9.181 1.356-2.235 7.054 4.692-5.45 4.785 3.427-2.781-5.589 5.675-6.334-6.651 3.267-2.788-3.904Z"/></g><path fill="#EDDBFE" d="M206.283 328.345c6.415.564 17.53 1.463 26.306 1.839 5.265.23 8.315-.293 10.05-.982 0 .188 0 .376-.021.564-.042.919-.794 1.65-1.714 1.713-16.568.919-29.752.314-34.433.042-.961-.063-1.546-1.107-1.044-1.943.229-.439.522-.836.856-1.233Z"/><path fill="url(#P)" d="M232.589 330.184c-8.776-.377-19.891-1.296-26.306-1.839 6.31-7.731 26.306-12.933 26.306-12.933h5.641c3.886 5.599 4.451 10.927 4.409 13.79-1.755.689-4.785 1.211-10.05.982Z"/><path fill="url(#Q)" d="m239.192 306.177-.523 10.467a2.404 2.404 0 0 1-2.047 2.257c-1.129.167-2.633.188-4.242-.355-.982-.335-1.713-1.149-1.901-2.173l-1.818-10.176h10.531v-.02Z"/><path fill="#EDDBFE" d="M304.757 340.401c2.779-.501 4.032-2.361 4.555-4.367 0 .021 0 .042.02.063.418 2.11-.543 4.283-2.444 5.328-2.298 1.253-4.806 1.462-6.749 1.358a6.256 6.256 0 0 1-5.056-3.009l-.021-.021c2.11 1.338 5.056 1.484 9.695.648Z"/><path fill="url(#R)" d="M291.635 309.394h4.659c7.104-.188 11.555 19.16 13.017 26.64-.522 1.985-1.776 3.865-4.555 4.367-4.638.836-7.584.668-9.673-.669-3.824-6.519-5.725-16.067-6.645-21.646-1.044-6.331 3.197-8.692 3.197-8.692Z"/><path fill="url(#S)" d="m295.709 299.679 2.591 10.279a2.783 2.783 0 0 1-1.463 3.155c-1.441.753-3.489 1.526-5.348 1.296-.878-.105-1.609-.731-1.902-1.546l-3.802-10.823 9.924-2.361Z"/><path fill="#D8A0FE" d="M204.696 164.182s23.108 144.502 22.732 145.296c0 0 6.394 2.904 13.351.376 0 0-2.089-77.245-6.978-106.872 0 0 39.447 69.054 51.984 103.445 0 0 6.539-.773 11.951-4.346 0 0-42.477-124.276-53.823-140.824l-39.217 2.925Z"/><path fill="#7D1CAB" d="M232.881 202.23a.698.698 0 0 0 .355-.105c.314-.208.418-.626.209-.94l-8.629-13.79a.67.67 0 0 0-.439-.313l-6.351-1.275a.66.66 0 0 0-.794.544.659.659 0 0 0 .543.794l6.08 1.211 8.483 13.54c.084.209.313.334.543.334Z"/><path fill="url(#T)" d="M98.617 22.668s15.608 3.448 25.094 7.815a8.677 8.677 0 0 1 4.241 4.262c2.842 6.226 11.325 21.813 27.789 29.251-2.361 3.155-6.184 9.695-7.856 20.706-9.883-7.355-18.428-19.661-22.523-39.803 0 0-3.114 1.693-7.021-.188-2.047-1.003-4.429-2.423-6.205-3.53-1.776-1.108-3.093-2.842-3.615-4.848-.669-2.654-.272-4.994-.272-7.522l-8.023-2.486c0-.021-2.423-.92-1.609-3.657Z"/><path fill="url(#U)" d="M147.885 84.702c1.672-11.011 5.474-17.551 7.856-20.706 10.238 4.617 23.527 6.1 40.471.23a18.32 18.32 0 0 1 4.848-.961c9.026-.523 38.737-1.484 63.329 6.623a19.156 19.156 0 0 1 11.534 10.489c6.644 15.273 17.425 50.04-12.474 67.591a75.535 75.535 0 0 0-7.208-13.664c4.805-8.128 6.247-19.223-2.299-33.66-6.226 16.819-9.151 41.37-9.757 52.234a23.02 23.02 0 0 0 1.838 10.447l.147.355a1.238 1.238 0 0 1-.878 1.693c-16.84 3.782-34.349 2.758-39.573 2.319a2.16 2.16 0 0 1-1.922-1.651c-8.19-34.495-8.211-58.022-6.206-72.898-7.668 1.755-31.09 5.411-49.706-8.441Z"/><path fill="#7D1CAB" d="M197.55 94.125c.334 0 .626-.25.668-.585 1.922-14.521 5.829-20.852 5.871-20.915.209-.313.105-.731-.209-.94-.313-.21-.731-.105-.94.209-.167.271-4.116 6.602-6.08 21.479a.698.698 0 0 0 .585.773c.042-.021.063-.021.105-.021Z"/><path fill="url(#V)" d="M239.087 43.186s1.713 18.01 3.196 23.339c.23.814-.125 1.65-.856 2.089-2.549 1.462-8.65 3.823-16.987-.272a3.79 3.79 0 0 1-2.11-3.573l.731-17.404 16.026-4.179Z"/><path fill="url(#W)" d="M222.706 20.14s-5.454 12.515-5.809 19.076c-.376 6.56-1.776 10.823 5.809 12.16 7.584 1.317 13.998-2.465 17.446-9.005 0 0 5.432-10.07 4.221-14.208-1.233-4.116-21.667-8.023-21.667-8.023Z"/><path fill="url(#X)" d="m237.561 37.67-.439-.188c-.543-.251-.793-.899-.501-1.442 1.066-2.068 3.155-6.811.46-7.919-3.469-1.42-17.238-4.241-20.205-9.11-2.862-4.7-.334-10.76 3.469-12.473a.518.518 0 0 1 .689.23l.314.606c.209.418.815.355.961-.105.125-.418.689-.501.919-.125.919 1.462 3.385 3.823 9.966 5.056 9.361 1.734 15.566 5.516 15.713 11.993 0 .418.438.648.794.418.689-.418 1.796-.627 3.28.627 2.57 2.173 1.525 7.773-4.116 12.39-.272.209-.272.648.021.836 1.024.668 2.549 2.256-1.4 4.367-4.095 2.193-7.146 2.005-8.316 1.817a.518.518 0 0 1-.418-.627l1.254-5.683a.52.52 0 0 0-.502-.626h-1.943v-.042Z"/><path fill="url(#Y)" d="M237.331 38.882s2.069-8.003 5.662-5.746c3.594 2.235-1.859 8.963-4.743 9.256l-.919-3.51Z"/><path fill="#F8A570" d="M121.204 43.019a.696.696 0 0 0 .439-.147.691.691 0 0 0 .104-.96c-.585-.732-5.829-7.126-7.835-8.275-.731-.418-1.17-.836-1.275-1.233-.041-.188-.021-.396.084-.647l6.143 1.233 3.489 2.987c.292.251.71.21.961-.083a.672.672 0 0 0-.083-.961l-3.615-3.113a.55.55 0 0 0-.314-.147l-6.811-1.358c-.272-.063-.543.063-.71.293-.502.731-.669 1.42-.502 2.11.188.794.815 1.483 1.922 2.11 1.526.857 5.893 6.018 7.46 7.94.146.167.334.25.543.25Z"/><path fill="url(#Z)" d="m237.583 156.639-24.07.293 8.42-7.94c2.09-1.964 5.286-2.298 7.71-.731a18.329 18.329 0 0 1 4.283 3.823s15.023-5.495 22.294-17.759c2.277 3.364 4.91 7.96 7.208 13.664-6.519 3.824-14.981 6.853-25.845 8.65Z"/><path fill="#EDDBFE" d="M234.993 159.753h-.146l-61.115-.063c-1.504 0-2.737-1.212-2.737-2.716 0-1.505 1.233-2.737 2.737-2.696l61.115.063c1.504 0 2.737 1.212 2.737 2.716 0 1.442-1.149 2.612-2.591 2.696Z"/><path fill="#EDDBFE" d="M118.802 104.843H169.7a9.733 9.733 0 0 1 8.775 5.495l23.526 49.373h-63.245c-2.424 0-4.597-1.463-5.474-3.699l-18.241-45.674c-1.065-2.632.899-5.495 3.761-5.495Z"/><path fill="#D8A0FE" d="M152.848 137.511c2.105-.694 2.906-4.001 1.79-7.387-1.117-3.387-3.727-5.57-5.831-4.876-2.104.693-2.905 4.001-1.789 7.387 1.116 3.386 3.726 5.569 5.83 4.876Z"/><defs><filter id="z" width="27.317" height="22.584" x="142.257" y="179.082" color-interpolation-filters="sRGB" filterUnits="userSpaceOnUse"><feFlood flood-opacity="0" result="BackgroundImageFix"/><feColorMatrix in="SourceAlpha" result="hardAlpha" values="0 0 0 0 0 0 0 0 0 0 0 0 0 0 0 0 0 0 127 0"/><feOffset dx="-4" dy="1"/><feGaussianBlur stdDeviation="2"/><feComposite in2="hardAlpha" operator="out"/><feColorMatrix values="0 0 0 0 0 0 0 0 0 0 0 0 0 0 0 0 0 0 0.25 0"/><feBlend in2="BackgroundImageFix" result="effect1_dropShadow_508_15941"/><feBlend in="SourceGraphic" in2="effect1_dropShadow_508_15941" result="shape"/></filter><filter id="e" width="161.269" height="289.311" x="111.293" y="70.318" color-interpolation-filters="sRGB" filterUnits="userSpaceOnUse"><feFlood flood-opacity="0" result="BackgroundImageFix"/><feColorMatrix in="SourceAlpha" result="hardAlpha" values="0 0 0 0 0 0 0 0 0 0 0 0 0 0 0 0 0 0 127 0"/><feMorphology in="SourceAlpha" operator="dilate" radius="4" result="effect1_dropShadow_508_15941"/><feOffset dy="4"/><feGaussianBlur stdDeviation="2"/><feComposite in2="hardAlpha" operator="out"/><feColorMatrix values="0 0 0 0 0 0 0 0 0 0 0 0 0 0 0 0 0 0 0.25 0"/><feBlend in2="BackgroundImageFix" result="effect1_dropShadow_508_15941"/><feBlend in="SourceGraphic" in2="effect1_dropShadow_508_15941" result="shape"/></filter><filter id="p" width="33.187" height="27.015" x="58.618" y="200.607" color-interpolation-filters="sRGB" filterUnits="userSpaceOnUse"><feFlood flood-opacity="0" result="BackgroundImageFix"/><feColorMatrix in="SourceAlpha" result="hardAlpha" values="0 0 0 0 0 0 0 0 0 0 0 0 0 0 0 0 0 0 127 0"/><feOffset dx="-4" dy="1"/><feGaussianBlur stdDeviation="2"/><feComposite in2="hardAlpha" operator="out"/><feColorMatrix values="0 0 0 0 0 0 0 0 0 0 0 0 0 0 0 0 0 0 0.25 0"/><feBlend in2="BackgroundImageFix" result="effect1_dropShadow_508_15941"/><feBlend in="SourceGraphic" in2="effect1_dropShadow_508_15941" result="shape"/></filter><filter id="q" width="40.22" height="32.325" x="22.962" y="206.233" color-interpolation-filters="sRGB" filterUnits="userSpaceOnUse"><feFlood flood-opacity="0" result="BackgroundImageFix"/><feColorMatrix in="SourceAlpha" result="hardAlpha" values="0 0 0 0 0 0 0 0 0 0 0 0 0 0 0 0 0 0 127 0"/><feOffset dx="-4" dy="1"/><feGaussianBlur stdDeviation="2"/><feComposite in2="hardAlpha" operator="out"/><feColorMatrix values="0 0 0 0 0 0 0 0 0 0 0 0 0 0 0 0 0 0 0.25 0"/><feBlend in2="BackgroundImageFix" result="effect1_dropShadow_508_15941"/><feBlend in="SourceGraphic" in2="effect1_dropShadow_508_15941" result="shape"/></filter><filter id="r" width="37.114" height="29.979" x="25.935" y="207.582" color-interpolation-filters="sRGB" filterUnits="userSpaceOnUse"><feFlood flood-opacity="0" result="BackgroundImageFix"/><feColorMatrix in="SourceAlpha" result="hardAlpha" values="0 0 0 0 0 0 0 0 0 0 0 0 0 0 0 0 0 0 127 0"/><feOffset dx="-4" dy="1"/><feGaussianBlur stdDeviation="2"/><feComposite in2="hardAlpha" operator="out"/><feColorMatrix values="0 0 0 0 0 0 0 0 0 0 0 0 0 0 0 0 0 0 0.25 0"/><feBlend in2="BackgroundImageFix" result="effect1_dropShadow_508_15941"/><feBlend in="SourceGraphic" in2="effect1_dropShadow_508_15941" result="shape"/></filter><filter id="s" width="35.546" height="28.796" x="84.253" y="191.739" color-interpolation-filters="sRGB" filterUnits="userSpaceOnUse"><feFlood flood-opacity="0" result="BackgroundImageFix"/><feColorMatrix in="SourceAlpha" result="hardAlpha" values="0 0 0 0 0 0 0 0 0 0 0 0 0 0 0 0 0 0 127 0"/><feOffset dx="-4" dy="1"/><feGaussianBlur stdDeviation="2"/><feComposite in2="hardAlpha" operator="out"/><feColorMatrix values="0 0 0 0 0 0 0 0 0 0 0 0 0 0 0 0 0 0 0.25 0"/><feBlend in2="BackgroundImageFix" result="effect1_dropShadow_508_15941"/><feBlend in="SourceGraphic" in2="effect1_dropShadow_508_15941" result="shape"/></filter><filter id="t" width="32.89" height="26.791" x="86.793" y="192.892" color-interpolation-filters="sRGB" filterUnits="userSpaceOnUse"><feFlood flood-opacity="0" result="BackgroundImageFix"/><feColorMatrix in="SourceAlpha" result="hardAlpha" values="0 0 0 0 0 0 0 0 0 0 0 0 0 0 0 0 0 0 127 0"/><feOffset dx="-4" dy="1"/><feGaussianBlur stdDeviation="2"/><feComposite in2="hardAlpha" operator="out"/><feColorMatrix values="0 0 0 0 0 0 0 0 0 0 0 0 0 0 0 0 0 0 0.25 0"/><feBlend in2="BackgroundImageFix" result="effect1_dropShadow_508_15941"/><feBlend in="SourceGraphic" in2="effect1_dropShadow_508_15941" result="shape"/></filter><filter id="u" width="32.432" height="26.445" x="113.566" y="184.141" color-interpolation-filters="sRGB" filterUnits="userSpaceOnUse"><feFlood flood-opacity="0" result="BackgroundImageFix"/><feColorMatrix in="SourceAlpha" result="hardAlpha" values="0 0 0 0 0 0 0 0 0 0 0 0 0 0 0 0 0 0 127 0"/><feOffset dx="-4" dy="1"/><feGaussianBlur stdDeviation="2"/><feComposite in2="hardAlpha" operator="out"/><feColorMatrix values="0 0 0 0 0 0 0 0 0 0 0 0 0 0 0 0 0 0 0.25 0"/><feBlend in2="BackgroundImageFix" result="effect1_dropShadow_508_15941"/><feBlend in="SourceGraphic" in2="effect1_dropShadow_508_15941" result="shape"/></filter><filter id="v" width="30.077" height="24.667" x="115.82" y="185.164" color-interpolation-filters="sRGB" filterUnits="userSpaceOnUse"><feFlood flood-opacity="0" result="BackgroundImageFix"/><feColorMatrix in="SourceAlpha" result="hardAlpha" values="0 0 0 0 0 0 0 0 0 0 0 0 0 0 0 0 0 0 127 0"/><feOffset dx="-4" dy="1"/><feGaussianBlur stdDeviation="2"/><feComposite in2="hardAlpha" operator="out"/><feColorMatrix values="0 0 0 0 0 0 0 0 0 0 0 0 0 0 0 0 0 0 0.25 0"/><feBlend in2="BackgroundImageFix" result="effect1_dropShadow_508_15941"/><feBlend in="SourceGraphic" in2="effect1_dropShadow_508_15941" result="shape"/></filter><filter id="w" width="60.297" height="47.482" x="38.289" y=".708" color-interpolation-filters="sRGB" filterUnits="userSpaceOnUse"><feFlood flood-opacity="0" result="BackgroundImageFix"/><feColorMatrix in="SourceAlpha" result="hardAlpha" values="0 0 0 0 0 0 0 0 0 0 0 0 0 0 0 0 0 0 127 0"/><feOffset dx="-4" dy="1"/><feGaussianBlur stdDeviation="2"/><feComposite in2="hardAlpha" operator="out"/><feColorMatrix values="0 0 0 0 0 0 0 0 0 0 0 0 0 0 0 0 0 0 0.25 0"/><feBlend in2="BackgroundImageFix" result="effect1_dropShadow_508_15941"/><feBlend in="SourceGraphic" in2="effect1_dropShadow_508_15941" result="shape"/></filter><filter id="x" width="55.255" height="43.675" x="43.113" y="2.898" color-interpolation-filters="sRGB" filterUnits="userSpaceOnUse"><feFlood flood-opacity="0" result="BackgroundImageFix"/><feColorMatrix in="SourceAlpha" result="hardAlpha" values="0 0 0 0 0 0 0 0 0 0 0 0 0 0 0 0 0 0 127 0"/><feOffset dx="-4" dy="1"/><feGaussianBlur stdDeviation="2"/><feComposite in2="hardAlpha" operator="out"/><feColorMatrix values="0 0 0 0 0 0 0 0 0 0 0 0 0 0 0 0 0 0 0.25 0"/><feBlend in2="BackgroundImageFix" result="effect1_dropShadow_508_15941"/><feBlend in="SourceGraphic" in2="effect1_dropShadow_508_15941" result="shape"/></filter><filter id="y" width="29.378" height="24.14" x="140.285" y="178.187" color-interpolation-filters="sRGB" filterUnits="userSpaceOnUse"><feFlood flood-opacity="0" result="BackgroundImageFix"/><feColorMatrix in="SourceAlpha" result="hardAlpha" values="0 0 0 0 0 0 0 0 0 0 0 0 0 0 0 0 0 0 127 0"/><feOffset dx="-4" dy="1"/><feGaussianBlur stdDeviation="2"/><feComposite in2="hardAlpha" operator="out"/><feColorMatrix values="0 0 0 0 0 0 0 0 0 0 0 0 0 0 0 0 0 0 0.25 0"/><feBlend in2="BackgroundImageFix" result="effect1_dropShadow_508_15941"/><feBlend in="SourceGraphic" in2="effect1_dropShadow_508_15941" result="shape"/></filter><filter id="o" width="35.874" height="29.044" x="56.047" y="199.439" color-interpolation-filters="sRGB" filterUnits="userSpaceOnUse"><feFlood flood-opacity="0" result="BackgroundImageFix"/><feColorMatrix in="SourceAlpha" result="hardAlpha" values="0 0 0 0 0 0 0 0 0 0 0 0 0 0 0 0 0 0 127 0"/><feOffset dx="-4" dy="1"/><feGaussianBlur stdDeviation="2"/><feComposite in2="hardAlpha" operator="out"/><feColorMatrix values="0 0 0 0 0 0 0 0 0 0 0 0 0 0 0 0 0 0 0.25 0"/><feBlend in2="BackgroundImageFix" result="effect1_dropShadow_508_15941"/><feBlend in="SourceGraphic" in2="effect1_dropShadow_508_15941" result="shape"/></filter><filter id="A" width="161.199" height="90.456" x="57.699" y="241.057" color-interpolation-filters="sRGB" filterUnits="userSpaceOnUse"><feFlood flood-opacity="0" result="BackgroundImageFix"/><feColorMatrix in="SourceAlpha" result="hardAlpha" values="0 0 0 0 0 0 0 0 0 0 0 0 0 0 0 0 0 0 127 0"/><feMorphology in="SourceAlpha" radius="5" result="effect1_dropShadow_508_15941"/><feOffset dx="-7" dy="-3"/><feGaussianBlur stdDeviation="5"/><feComposite in2="hardAlpha" operator="out"/><feColorMatrix values="0 0 0 0 0.333333 0 0 0 0 0.305556 0 0 0 0 0.333333 0 0 0 1 0"/><feBlend in2="BackgroundImageFix" result="effect1_dropShadow_508_15941"/><feBlend in="SourceGraphic" in2="effect1_dropShadow_508_15941" result="shape"/></filter><filter id="F" width="35.874" height="29.044" x="104.808" y="287.525" color-interpolation-filters="sRGB" filterUnits="userSpaceOnUse"><feFlood flood-opacity="0" result="BackgroundImageFix"/><feColorMatrix in="SourceAlpha" result="hardAlpha" values="0 0 0 0 0 0 0 0 0 0 0 0 0 0 0 0 0 0 127 0"/><feOffset dx="-4" dy="1"/><feGaussianBlur stdDeviation="2"/><feComposite in2="hardAlpha" operator="out"/><feColorMatrix values="0 0 0 0 0 0 0 0 0 0 0 0 0 0 0 0 0 0 0.25 0"/><feBlend in2="BackgroundImageFix" result="effect1_dropShadow_508_15941"/><feBlend in="SourceGraphic" in2="effect1_dropShadow_508_15941" result="shape"/></filter><filter id="G" width="33.187" height="27.015" x="107.38" y="288.693" color-interpolation-filters="sRGB" filterUnits="userSpaceOnUse"><feFlood flood-opacity="0" result="BackgroundImageFix"/><feColorMatrix in="SourceAlpha" result="hardAlpha" values="0 0 0 0 0 0 0 0 0 0 0 0 0 0 0 0 0 0 127 0"/><feOffset dx="-4" dy="1"/><feGaussianBlur stdDeviation="2"/><feComposite in2="hardAlpha" operator="out"/><feColorMatrix values="0 0 0 0 0 0 0 0 0 0 0 0 0 0 0 0 0 0 0.25 0"/><feBlend in2="BackgroundImageFix" result="effect1_dropShadow_508_15941"/><feBlend in="SourceGraphic" in2="effect1_dropShadow_508_15941" result="shape"/></filter><filter id="H" width="40.22" height="32.325" x="71.724" y="294.318" color-interpolation-filters="sRGB" filterUnits="userSpaceOnUse"><feFlood flood-opacity="0" result="BackgroundImageFix"/><feColorMatrix in="SourceAlpha" result="hardAlpha" values="0 0 0 0 0 0 0 0 0 0 0 0 0 0 0 0 0 0 127 0"/><feOffset dx="-4" dy="1"/><feGaussianBlur stdDeviation="2"/><feComposite in2="hardAlpha" operator="out"/><feColorMatrix values="0 0 0 0 0 0 0 0 0 0 0 0 0 0 0 0 0 0 0.25 0"/><feBlend in2="BackgroundImageFix" result="effect1_dropShadow_508_15941"/><feBlend in="SourceGraphic" in2="effect1_dropShadow_508_15941" result="shape"/></filter><filter id="I" width="37.114" height="29.979" x="74.697" y="295.668" color-interpolation-filters="sRGB" filterUnits="userSpaceOnUse"><feFlood flood-opacity="0" result="BackgroundImageFix"/><feColorMatrix in="SourceAlpha" result="hardAlpha" values="0 0 0 0 0 0 0 0 0 0 0 0 0 0 0 0 0 0 127 0"/><feOffset dx="-4" dy="1"/><feGaussianBlur stdDeviation="2"/><feComposite in2="hardAlpha" operator="out"/><feColorMatrix values="0 0 0 0 0 0 0 0 0 0 0 0 0 0 0 0 0 0 0.25 0"/><feBlend in2="BackgroundImageFix" result="effect1_dropShadow_508_15941"/><feBlend in="SourceGraphic" in2="effect1_dropShadow_508_15941" result="shape"/></filter><filter id="J" width="35.546" height="28.796" x="133.014" y="279.825" color-interpolation-filters="sRGB" filterUnits="userSpaceOnUse"><feFlood flood-opacity="0" result="BackgroundImageFix"/><feColorMatrix in="SourceAlpha" result="hardAlpha" values="0 0 0 0 0 0 0 0 0 0 0 0 0 0 0 0 0 0 127 0"/><feOffset dx="-4" dy="1"/><feGaussianBlur stdDeviation="2"/><feComposite in2="hardAlpha" operator="out"/><feColorMatrix values="0 0 0 0 0 0 0 0 0 0 0 0 0 0 0 0 0 0 0.25 0"/><feBlend in2="BackgroundImageFix" result="effect1_dropShadow_508_15941"/><feBlend in="SourceGraphic" in2="effect1_dropShadow_508_15941" result="shape"/></filter><filter id="K" width="32.89" height="26.791" x="135.555" y="280.978" color-interpolation-filters="sRGB" filterUnits="userSpaceOnUse"><feFlood flood-opacity="0" result="BackgroundImageFix"/><feColorMatrix in="SourceAlpha" result="hardAlpha" values="0 0 0 0 0 0 0 0 0 0 0 0 0 0 0 0 0 0 127 0"/><feOffset dx="-4" dy="1"/><feGaussianBlur stdDeviation="2"/><feComposite in2="hardAlpha" operator="out"/><feColorMatrix values="0 0 0 0 0 0 0 0 0 0 0 0 0 0 0 0 0 0 0.25 0"/><feBlend in2="BackgroundImageFix" result="effect1_dropShadow_508_15941"/><feBlend in="SourceGraphic" in2="effect1_dropShadow_508_15941" result="shape"/></filter><filter id="L" width="32.432" height="26.445" x="162.328" y="272.227" color-interpolation-filters="sRGB" filterUnits="userSpaceOnUse"><feFlood flood-opacity="0" result="BackgroundImageFix"/><feColorMatrix in="SourceAlpha" result="hardAlpha" values="0 0 0 0 0 0 0 0 0 0 0 0 0 0 0 0 0 0 127 0"/><feOffset dx="-4" dy="1"/><feGaussianBlur stdDeviation="2"/><feComposite in2="hardAlpha" operator="out"/><feColorMatrix values="0 0 0 0 0 0 0 0 0 0 0 0 0 0 0 0 0 0 0.25 0"/><feBlend in2="BackgroundImageFix" result="effect1_dropShadow_508_15941"/><feBlend in="SourceGraphic" in2="effect1_dropShadow_508_15941" result="shape"/></filter><filter id="M" width="30.077" height="24.667" x="164.581" y="273.25" color-interpolation-filters="sRGB" filterUnits="userSpaceOnUse"><feFlood flood-opacity="0" result="BackgroundImageFix"/><feColorMatrix in="SourceAlpha" result="hardAlpha" values="0 0 0 0 0 0 0 0 0 0 0 0 0 0 0 0 0 0 127 0"/><feOffset dx="-4" dy="1"/><feGaussianBlur stdDeviation="2"/><feComposite in2="hardAlpha" operator="out"/><feColorMatrix values="0 0 0 0 0 0 0 0 0 0 0 0 0 0 0 0 0 0 0.25 0"/><feBlend in2="BackgroundImageFix" result="effect1_dropShadow_508_15941"/><feBlend in="SourceGraphic" in2="effect1_dropShadow_508_15941" result="shape"/></filter><filter id="N" width="29.378" height="24.14" x="189.047" y="266.272" color-interpolation-filters="sRGB" filterUnits="userSpaceOnUse"><feFlood flood-opacity="0" result="BackgroundImageFix"/><feColorMatrix in="SourceAlpha" result="hardAlpha" values="0 0 0 0 0 0 0 0 0 0 0 0 0 0 0 0 0 0 127 0"/><feOffset dx="-4" dy="1"/><feGaussianBlur stdDeviation="2"/><feComposite in2="hardAlpha" operator="out"/><feColorMatrix values="0 0 0 0 0 0 0 0 0 0 0 0 0 0 0 0 0 0 0.25 0"/><feBlend in2="BackgroundImageFix" result="effect1_dropShadow_508_15941"/><feBlend in="SourceGraphic" in2="effect1_dropShadow_508_15941" result="shape"/></filter><filter id="O" width="27.317" height="22.584" x="191.019" y="267.168" color-interpolation-filters="sRGB" filterUnits="userSpaceOnUse"><feFlood flood-opacity="0" result="BackgroundImageFix"/><feColorMatrix in="SourceAlpha" result="hardAlpha" values="0 0 0 0 0 0 0 0 0 0 0 0 0 0 0 0 0 0 127 0"/><feOffset dx="-4" dy="1"/><feGaussianBlur stdDeviation="2"/><feComposite in2="hardAlpha" operator="out"/><feColorMatrix values="0 0 0 0 0 0 0 0 0 0 0 0 0 0 0 0 0 0 0.25 0"/><feBlend in2="BackgroundImageFix" result="effect1_dropShadow_508_15941"/><feBlend in="SourceGraphic" in2="effect1_dropShadow_508_15941" result="shape"/></filter><filter id="j" width="161.199" height="90.456" x="11.523" y="153.933" color-interpolation-filters="sRGB" filterUnits="userSpaceOnUse"><feFlood flood-opacity="0" result="BackgroundImageFix"/><feColorMatrix in="SourceAlpha" result="hardAlpha" values="0 0 0 0 0 0 0 0 0 0 0 0 0 0 0 0 0 0 127 0"/><feMorphology in="SourceAlpha" radius="5" result="effect1_dropShadow_508_15941"/><feOffset dx="-7" dy="-3"/><feGaussianBlur stdDeviation="5"/><feComposite in2="hardAlpha" operator="out"/><feColorMatrix values="0 0 0 0 0.333333 0 0 0 0 0.305556 0 0 0 0 0.333333 0 0 0 1 0"/><feBlend in2="BackgroundImageFix" result="effect1_dropShadow_508_15941"/><feBlend in="SourceGraphic" in2="effect1_dropShadow_508_15941" result="shape"/></filter><linearGradient id="Y" x1="225.419" x2="256.556" y1="26.114" y2="49.939" gradientUnits="userSpaceOnUse"><stop stop-color="#FEBBBA"/><stop offset="1" stop-color="#FF928E"/></linearGradient><linearGradient id="Z" x1="207.165" x2="228.958" y1="104.08" y2="136.77" gradientUnits="userSpaceOnUse"><stop stop-color="#FEBBBA"/><stop offset="1" stop-color="#FF928E"/></linearGradient><linearGradient id="c" x1="86.268" x2="86.098" y1="-89.136" y2="277.385" gradientUnits="userSpaceOnUse"><stop stop-color="#47055A"/><stop offset=".521" stop-color="#4C3C56"/><stop offset=".979" stop-color="#97088E"/></linearGradient><linearGradient id="X" x1="243.476" x2="214.477" y1="12.298" y2="49.635" gradientUnits="userSpaceOnUse"><stop stop-color="#09005D"/><stop offset="1" stop-color="#1A0F91"/></linearGradient><linearGradient id="f" x1="74.937" x2="74.777" y1="-80.415" y2="250.245" gradientUnits="userSpaceOnUse"><stop/><stop offset=".521" stop-color="#494949"/><stop offset=".979" stop-color="#550865"/></linearGradient><linearGradient id="W" x1="221.557" x2="252.694" y1="31.162" y2="54.986" gradientUnits="userSpaceOnUse"><stop stop-color="#FEBBBA"/><stop offset="1" stop-color="#FF928E"/></linearGradient><linearGradient id="h" x1="107.749" x2="107.749" y1="162.54" y2="186.591" gradientUnits="userSpaceOnUse"><stop stop-color="#FCDEA2"/><stop offset="1" stop-color="#795204"/></linearGradient><linearGradient id="i" x1="107.749" x2="107.749" y1="197.174" y2="212.567" gradientUnits="userSpaceOnUse"><stop stop-color="#FCDEA2"/><stop offset="1" stop-color="#795204"/></linearGradient><linearGradient id="k" x1="77.926" x2="87.384" y1="0" y2="65.34" gradientUnits="userSpaceOnUse"><stop stop-color="#9A13B0"/><stop offset="1" stop-color="#531F66" stop-opacity="0"/></linearGradient><linearGradient id="l" x1="77.926" x2="87.384" y1="0" y2="65.34" gradientUnits="userSpaceOnUse"><stop stop-color="#9A13B0"/><stop offset="1" stop-color="#531F66" stop-opacity="0"/></linearGradient><linearGradient id="m" x1="77.926" x2="87.384" y1="0" y2="65.34" gradientUnits="userSpaceOnUse"><stop stop-color="#9A13B0"/><stop offset="1" stop-color="#531F66" stop-opacity="0"/></linearGradient><linearGradient id="V" x1="236.324" x2="230.867" y1="83.727" y2="55.076" gradientUnits="userSpaceOnUse"><stop stop-color="#FEBBBA"/><stop offset="1" stop-color="#FF928E"/></linearGradient><linearGradient id="B" x1="77.926" x2="87.384" y1="0" y2="65.34" gradientUnits="userSpaceOnUse"><stop stop-color="#9A13B0"/><stop offset="1" stop-color="#531F66" stop-opacity="0"/></linearGradient><linearGradient id="C" x1="77.926" x2="87.384" y1="0" y2="65.34" gradientUnits="userSpaceOnUse"><stop stop-color="#9A13B0"/><stop offset="1" stop-color="#531F66" stop-opacity="0"/></linearGradient><linearGradient id="D" x1="77.926" x2="87.384" y1="0" y2="65.34" gradientUnits="userSpaceOnUse"><stop stop-color="#9A13B0"/><stop offset="1" stop-color="#531F66" stop-opacity="0"/></linearGradient><linearGradient id="U" x1="282.101" x2="130.869" y1="63.216" y2="120.973" gradientUnits="userSpaceOnUse"><stop offset="0" stop-color="#C166FF"/><stop offset="1" stop-color="#A317E6"/></linearGradient><linearGradient id="P" x1="242.293" x2="211.881" y1="315.452" y2="337.567" gradientUnits="userSpaceOnUse"><stop offset="0" stop-color="#C166FF"/><stop offset="1" stop-color="#A317E6"/></linearGradient><linearGradient id="Q" x1="239.184" x2="228.645" y1="312.577" y2="312.577" gradientUnits="userSpaceOnUse"><stop stop-color="#FEBBBA"/><stop offset="1" stop-color="#FF928E"/></linearGradient><linearGradient id="R" x1="309.11" x2="283.221" y1="309.478" y2="314.603" gradientUnits="userSpaceOnUse"><stop offset="0" stop-color="#C166FF"/><stop offset="1" stop-color="#A317E6"/></linearGradient><linearGradient id="S" x1="298.373" x2="285.779" y1="307.081" y2="307.081" gradientUnits="userSpaceOnUse"><stop stop-color="#FEBBBA"/><stop offset="1" stop-color="#FF928E"/></linearGradient><linearGradient id="T" x1="125.137" x2="175.019" y1="41.784" y2="106.68" gradientUnits="userSpaceOnUse"><stop stop-color="#FEBBBA"/><stop offset="1" stop-color="#FF928E"/></linearGradient><radialGradient id="E" cx="0" cy="0" r="1" gradientTransform="matrix(10.5517 105.02628 -458.17248 46.03134 87.932 19.813)" gradientUnits="userSpaceOnUse"><stop stop-color="#DBDBDB"/><stop offset=".552" stop-color="#E499FF"/><stop offset=".964" stop-color="#EFEFEF" stop-opacity="0"/></radialGradient><radialGradient id="n" cx="0" cy="0" r="1" gradientTransform="matrix(10.5517 105.02628 -458.17248 46.03134 87.932 19.813)" gradientUnits="userSpaceOnUse"><stop stop-color="#DBDBDB"/><stop offset=".552" stop-color="#E499FF"/><stop offset=".964" stop-color="#EFEFEF" stop-opacity="0"/></radialGradient><radialGradient id="g" cx="0" cy="0" r="1" gradientTransform="matrix(0 125.122 -74.7933 0 74.793 125.122)" gradientUnits="userSpaceOnUse"><stop stop-color="#fff"/><stop offset=".458" stop-color="#C8A6FF" stop-opacity="0"/><stop offset="1" stop-color="#fff"/></radialGradient><radialGradient id="d" cx="0" cy="0" r="1" gradientTransform="rotate(90.026 -3.242 89.429) scale(180.509 113.796)" gradientUnits="userSpaceOnUse"><stop stop-color="#A153B8"/><stop offset=".521" stop-color="#955BB9"/><stop offset=".979" stop-color="#D171CB"/></radialGradient><radialGradient id="a" cx="0" cy="0" r="1" gradientTransform="matrix(221.75144 427.62835 -1270.4345 658.79797 -14.43 120.691)" gradientUnits="userSpaceOnUse"><stop stop-color="#fff" stop-opacity="0"/><stop offset=".545" stop-color="#782EB3" stop-opacity=".12"/><stop offset=".979" stop-color="#fff" stop-opacity="0"/></radialGradient><radialGradient id="b" cx="0" cy="0" r="1" gradientTransform="rotate(64.216 -162.007 326.52) scale(112.284 332.549)" gradientUnits="userSpaceOnUse"><stop offset=".14" stop-color="#F8EFFF" stop-opacity="0"/><stop offset=".312" stop-color="#9716FD" stop-opacity=".22"/><stop offset=".821" stop-color="#710EBF" stop-opacity="0"/><stop offset="1" stop-color="#fff" stop-opacity=".142"/></radialGradient></defs></svg>