<svg xmlns="http://www.w3.org/2000/svg" width="296" height="351" fill="none"><g opacity=".65"><path fill="url(#a)" d="M.4 343.351c0 4.091 14.56 7.408 32.516 7.408 17.96 0 32.516-3.317 32.516-7.408 0-4.092-14.559-7.408-32.516-7.408-17.959 0-32.518 3.316-32.515 7.408Z" opacity=".55" style="mix-blend-mode:multiply"/></g><path fill="url(#b)" d="M35.196 333.531c.563.098 1.112.232 1.649.398 3.472 1.084 6.361 3.562 8.049 6.797.495.951-.01 2.122-1.03 2.38-2.946.746-6.886 1.113-11.195.926-3.968-.172-7.586-.786-10.378-1.661-1.01-.316-1.438-1.532-.878-2.452 1.97-3.237 5.185-5.589 8.947-6.335.095-.018.19-.037.285-.053.003 0 .006-.002.006-.008l4.543.008h.002Z"/><path fill="url(#c)" d="M34.518 333.524s-.005 0-.005-.006V212.62c0-1.096-.716-1.985-1.6-1.985-.883 0-1.6.889-1.6 1.985v120.898l3.203.006h.002Z"/><path fill="url(#d)" d="M32.916 199.553c-3.808 0-6.905 3.179-6.905 7.086v10.327c0 3.907 3.097 7.089 6.905 7.089 3.81 0 6.906-3.182 6.906-7.089v-10.327c0-3.909-3.1-7.086-6.906-7.086Z"/><path fill="url(#e)" d="M40.708 205.228c-.57-4.168-3.112-6.504-6.325-7.131v-1.426c0-.802-.591-1.503-1.37-1.556-.854-.058-1.566.638-1.566 1.503v1.476c-3.213.625-5.755 2.963-6.323 7.131-.08.588.357 1.116.935 1.116h13.714c.578 0 1.017-.528.935-1.116v.003Z"/><path fill="url(#f)" d="M42.5 248.5c14.98 0 1.648-8.508 1.648-23.5s1.48-17.5-13.5-17.5S29 227.5 18 248.5c21 17.5 9.52 0 24.5 0Z" style="mix-blend-mode:screen"/><g style="mix-blend-mode:multiply"><path fill="#FDFDFD" d="M281.026 312.666c3.318 8.064-44.99 11.802-69.305 14.383-29.411 3.122-44.109-4.682-40.154-14.383 2.36-5.843 19.002-10.875 42.021-10.153 23.018.722 63.277-.045 67.438 10.153Z" opacity=".03"/><path fill="#FBFBFB" d="M280.734 312.717c3.087 7.862-44.46 11.579-68.234 14.104-28.692 3.048-43.064-4.597-39.265-14.12 2.303-5.77 18.588-10.745 41.101-10.036 22.513.707 62.497.121 66.398 10.052Z" opacity=".06"/><path fill="#F9F9F9" d="M280.44 312.769c2.866 7.65-43.929 11.352-67.164 13.825-27.972 2.973-42.033-4.522-38.376-13.857 2.237-5.705 18.175-10.614 40.184-9.923 22.01.691 61.732.28 65.356 9.955Z" opacity=".1"/><path fill="#F6F6F6" d="M280.148 312.822c2.645 7.442-43.4 11.128-66.095 13.545-27.251 2.903-41.004-4.444-37.485-13.592 2.17-5.639 17.761-10.482 39.265-9.807 21.503.677 60.966.437 64.315 9.854Z" opacity=".13"/><path fill="#F4F4F4" d="M279.855 312.87c2.427 7.234-42.871 10.901-65.024 13.266-26.532 2.829-39.976-4.371-36.596-13.332 2.103-5.576 17.348-10.352 38.348-9.691 21 .662 60.201.596 63.272 9.757Z" opacity=".16"/><path fill="#F2F2F2" d="M279.563 312.917c2.206 7.023-42.342 10.675-63.956 12.987-25.813 2.754-38.946-4.295-35.705-13.069 2.034-5.509 16.937-10.221 37.431-9.575 20.494.646 59.433.754 62.232 9.657h-.002Z" opacity=".19"/><path fill="#F0F0F0" d="M279.27 312.968c1.985 6.813-41.812 10.451-62.884 12.707-25.092 2.682-37.92-4.218-34.817-12.804 1.967-5.444 16.523-10.092 36.512-9.459 19.988.63 58.667.909 61.189 9.556Z" opacity=".23"/><path fill="#EEE" d="M278.977 313.021c1.767 6.601-41.281 10.223-61.817 12.427-24.372 2.61-36.892-4.144-33.928-12.541 1.901-5.38 16.11-9.96 35.595-9.345 19.485.614 57.903 1.065 60.15 9.459Z" opacity=".26"/><path fill="#ECECEC" d="M278.684 313.073c1.546 6.387-40.752 9.999-60.745 12.148-23.651 2.536-35.867-4.071-33.037-12.277 1.831-5.315 15.697-9.829 34.675-9.23 18.979.601 57.137 1.22 59.107 9.359Z" opacity=".29"/><path fill="#E9E9E9" d="M278.391 313.121c1.328 6.175-40.223 9.773-59.674 11.869-22.931 2.462-34.843-3.997-32.149-12.016 1.765-5.252 15.284-9.699 33.759-9.114 18.476.585 56.369 1.374 58.064 9.261Z" opacity=".32"/><path fill="#E7E7E7" d="M278.098 313.172c1.107 5.96-39.694 9.548-58.606 11.589-22.212 2.391-33.818-3.923-31.257-11.753 1.695-5.186 14.869-9.567 32.839-8.998 17.97.57 55.604 1.527 57.024 9.162Z" opacity=".35"/><path fill="#E5E5E5" d="M277.81 313.224c.888 5.745-39.165 9.322-57.535 11.31-21.491 2.317-32.794-3.852-30.369-11.489 1.625-5.122 14.456-9.438 31.922-8.884 17.464.553 54.839 1.676 55.982 9.063Z" opacity=".39"/><path fill="#E3E3E3" d="M277.515 313.274c.67 5.529-38.634 9.098-56.467 11.031-20.772 2.243-31.771-3.778-29.48-11.226 1.556-5.059 14.045-9.306 31.003-8.768 16.96.538 54.076 1.824 54.941 8.963h.003Z" opacity=".42"/><path fill="#E1E1E1" d="M277.222 313.322c.452 5.312-38.104 8.871-55.396 10.751-20.05 2.169-30.749-3.707-28.589-10.965 1.487-4.996 13.632-9.174 30.086-8.652 16.455.522 53.311 1.972 53.899 8.866Z" opacity=".45"/><path fill="#DFDFDF" d="M276.93 313.374c.236 5.093-37.575 8.644-54.325 10.471-19.331 2.099-29.727-3.635-27.701-10.7 1.415-4.933 13.219-9.045 29.17-8.537 15.951.509 52.548 2.12 52.858 8.766h-.002Z" opacity=".48"/><path fill="#DCDCDC" d="M276.637 313.424c.02 4.875-37.046 8.421-53.257 10.192-18.612 2.025-28.707-3.564-26.809-10.437 1.346-4.872 12.805-8.913 28.25-8.42 15.445.493 51.787 2.262 51.816 8.665Z" opacity=".52"/><path fill="#DADADA" d="M276.346 313.474c-.192 4.653-36.514 8.193-52.185 9.912-17.89 1.951-27.688-3.493-25.921-10.173 1.274-4.809 12.391-8.785 27.333-8.307 14.939.477 51.027 2.404 50.776 8.568h-.003Z" opacity=".55"/><path fill="#D8D8D8" d="M276.052 313.524c-.403 4.431-35.985 7.969-51.117 9.633-17.171 1.879-26.67-3.425-25.032-9.91 1.2-4.748 11.978-8.652 26.414-8.191 14.436.461 50.272 2.547 49.733 8.468h.002Z" opacity=".58"/><path fill="#D6D6D6" d="M275.759 313.577c-.611 4.207-35.457 7.742-50.046 9.353-16.45 1.806-25.654-3.356-24.141-9.649 1.127-4.684 11.564-8.52 25.497-8.075 13.929.446 49.517 2.687 48.69 8.371Z" opacity=".61"/><path fill="#D4D4D4" d="M275.467 313.626c-.817 3.983-34.927 7.519-48.978 9.074-15.73 1.732-24.639-3.285-23.252-9.385 1.053-4.624 11.153-8.391 24.577-7.959 13.427.432 48.767 2.823 47.65 8.27h.003Z" opacity=".65"/><path fill="#D2D2D2" d="M275.173 313.676c-1.019 3.76-34.398 7.292-47.907 8.795-15.011 1.658-23.627-3.216-22.361-9.122.976-4.563 10.74-8.259 23.661-7.845 12.921.416 48.022 2.963 46.607 8.172Z" opacity=".68"/><path fill="#CFCFCF" d="M274.881 313.728c-1.219 3.538-33.866 7.065-46.836 8.515-14.289 1.587-22.615-3.148-21.472-8.858.901-4.503 10.326-8.13 22.741-7.729 12.417.4 47.28 3.102 45.567 8.072Z" opacity=".71"/><path fill="#CDCDCD" d="M274.589 313.777c-1.415 3.316-33.338 6.841-45.768 8.235-13.57 1.514-21.603-3.081-20.584-8.597.822-4.442 9.913-7.998 21.825-7.613 11.911.385 46.545 3.242 44.524 7.975h.003Z" opacity=".74"/><path fill="#CBCBCB" d="M274.296 313.827c-1.608 3.095-32.808 6.614-44.697 7.956-12.851 1.439-20.594-3.013-19.692-8.333.742-4.382 9.499-7.867 20.907-7.498 11.405.369 45.814 3.388 43.485 7.875h-.003Z" opacity=".77"/><path fill="#C9C9C9" d="M274.002 313.876c-1.798 2.879-32.279 6.391-43.628 7.677-12.13 1.366-19.588-2.944-18.805-8.069.663-4.321 9.087-7.738 19.989-7.382 10.902.353 45.087 3.538 42.442 7.774h.002Z" opacity=".81"/><path fill="#C7C7C7" d="M273.709 313.929c-1.985 2.668-31.751 6.163-42.558 7.397-11.41 1.295-18.583-2.879-17.913-7.806.578-4.26 8.673-7.606 19.072-7.268 10.396.34 44.363 3.693 41.401 7.677h-.002Z" opacity=".84"/><path fill="#C5C5C5" d="M273.417 313.979c-2.172 2.46-31.219 5.94-41.486 7.118-10.689 1.221-17.582-2.81-17.025-7.542.493-4.2 8.262-7.477 18.152-7.152 9.893.324 43.644 3.856 40.359 7.576Z" opacity=".87"/><path fill="#C2C2C2" d="M273.124 314.033c-2.357 2.257-30.689 5.713-40.418 6.839-9.969 1.147-16.58-2.742-16.136-7.282.406-4.141 7.849-7.344 17.235-7.036 9.387.308 42.923 4.028 39.319 7.479Z" opacity=".9"/><path fill="silver" d="M272.83 314.08c-2.547 2.059-30.16 5.488-39.347 6.559-9.25 1.075-15.581-2.673-15.245-7.018.316-4.081 7.435-7.216 16.316-6.92 8.881.292 42.201 4.205 38.276 7.379Z" opacity=".94"/><path fill="#BEBEBE" d="M272.538 314.129c-2.737 1.866-29.631 5.262-38.278 6.28-8.529 1.001-14.585-2.605-14.357-6.755.229-4.149 7.022-7.083 15.399-6.807 8.378.277 41.477 4.39 37.234 7.282h.002Z" opacity=".97"/><path fill="#BCBCBC" d="M272.244 314.182c-2.931 1.676-29.103 5.035-37.208 6-7.81.928-13.591-2.534-13.465-6.491.126-3.957 6.608-6.952 14.482-6.691 7.871.264 40.747 4.577 36.193 7.182h-.002Z"/></g><path fill="#0C0C0C" d="M255.248 251.049c-.637-6.068-3.213-25.197-10.319-24.799-7.17.4-9.494 20.022-10.052 26.252-.76.177-1.351.999-1.351 1.956 0 1.042.696 1.835 1.554 1.772.855-.064 1.549-.957 1.549-1.996 0-.828-.442-1.489-1.053-1.7.56-6.045 2.838-25.077 9.353-25.443 6.472-.367 8.999 18.206 9.639 24.101-.583.3-1.005 1.009-1.005 1.819 0 1.028.678 1.814 1.516 1.753.837-.061 1.512-.944 1.512-1.972 0-.957-.588-1.692-1.343-1.743Z"/><path fill="#1D1125" d="m230.897 246.686 1.769 73.624 41.114-6.337-3.043-68.394-39.84 1.107Z"/><path fill="#FCDEA2" d="m231.891 286.101.085 3.744c13.023-1.166 23.355 10.856 23.355 26.974l3.023-.466c0-18.156-11.762-31.599-26.463-30.254v.002Z"/><path fill="url(#g)" d="M220.614 246.687h10.283l1.769 73.623-13.858-2.728 1.806-70.895Z"/><path fill="#0C0C0C" d="M261.978 250.569c-.632-6.045-3.187-25.094-10.237-24.702-7.114.398-9.417 19.939-9.969 26.145-.755.174-1.338.996-1.338 1.948 0 1.036.69 1.827 1.541 1.763.85-.063 1.538-.951 1.538-1.987 0-.823-.439-1.485-1.045-1.693.554-6.021 2.814-24.974 9.276-25.337 6.418-.364 8.927 18.135 9.559 24.006-.578.3-.997 1.007-.997 1.811 0 1.025.673 1.806 1.505 1.745.83-.06 1.503-.938 1.503-1.961 0-.952-.583-1.685-1.333-1.738h-.003Z"/><path fill="url(#h)" d="m88.683 340.615-15.402-4.819c-5.737-1.577-9.738-6.902-9.723-13l.044-308.847C63.602 8.386 67.629 3.7 73.007 3L88.71.53c-5.331 1.025-9.433 5.831-9.39 11.692l.044 315.394c0 6.187 3.986 11.288 9.318 12.999Z"/><path fill="url(#i)" d="m91.758.372 101.877 8.42c5.981.496 10.591 5.621 10.591 11.782V312.14c0 5.771-4.057 10.695-9.6 11.655l-99.825 17.225c-8.077 1.395-15.44-4.998-15.44-13.405L79.323 12.22C79.287 5.292 85.034-.184 91.76.372h-.002Z"/><path fill="url(#j)" d="M201.875 20.635v291.39c0 4.456-3.136 8.26-7.417 8.996L97.702 337.69c-7.833 1.35-14.97-4.848-14.97-13.002l-.028-312.57c0-5.492 4.574-9.81 9.905-9.352l101.148 8.803c4.592.398 8.121 4.34 8.121 9.069l-.003-.003Z"/><path fill="#AE35E9" d="m147.547 319.565-2.106.356c-1.05.177-1.906-.664-1.906-1.877v-2.436c0-1.213.856-2.336 1.906-2.507l2.106-.343c1.045-.171 1.893.672 1.893 1.877v2.423c0 1.205-.848 2.331-1.893 2.507Zm-2.106-5.591c-.632.102-1.145.783-1.145 1.51v2.433c0 .731.516 1.237 1.145 1.131l2.106-.353c.629-.105 1.14-.783 1.14-1.51v-2.426c0-.727-.511-1.234-1.14-1.131l-2.106.346ZM96.638 327.967c-.226.037-.409-.135-.409-.385v-5.729c0-.25.183-.482.409-.519.226-.037.408.134.408.385v5.723c0 .251-.182.483-.408.522v.003ZM98.965 327.574c-.227.037-.406-.135-.406-.385v-5.718c0-.251.182-.483.406-.52.225-.037.405.135.405.385v5.713c0 .25-.182.483-.406.519v.006ZM101.28 327.185c-.224.037-.406-.134-.406-.382v-5.708c0-.25.182-.479.406-.516.223-.037.405.134.405.385v5.705c0 .25-.179.482-.405.519v-.003ZM192.691 311.904a.272.272 0 0 1-.254-.087l-2.245-2.423c-.131-.142-.128-.403.005-.588l2.191-3.011c.136-.187.36-.224.496-.084.138.14.138.406.002.593l-1.946 2.679 2.005 2.164c.134.145.129.411-.01.596a.4.4 0 0 1-.241.158l-.003.003Z"/><path fill="url(#k)" d="m68.548 127.769-26.858.103c-.982.003-1.78-.812-1.78-1.819v-.063c0-1.004.793-1.819 1.77-1.819l26.857-.04c.981 0 1.775.815 1.775 1.819 0 1.005-.791 1.819-1.767 1.822l.003-.003Z"/><path fill="url(#l)" d="M68.499 75.638 41.64 74.9c-.963-.024-1.731-.83-1.731-1.82v-.063c0-1.022.822-1.845 1.818-1.819l26.858.8c.96.025 1.726.832 1.726 1.818 0 1.023-.82 1.843-1.816 1.82l.003.002Z"/><path fill="url(#m)" d="m54.356 146.705-13.665.287c-1.726.037-3.724-1.379-3.724-3.15V56.404c0-1.788 1.942-3.203 3.68-3.145l13.748.466c1.661.056 2.979 1.455 2.979 3.161v86.655c0 1.722-1.34 3.127-3.018 3.161v.003Z"/><path fill="#1D1125" d="m56.564 146.704-14.246.298c-1.726.037-3.144-1.389-3.144-3.161V56.403c0-1.788 1.444-3.222 3.182-3.161l14.246.485c1.662.055 2.98 1.455 2.98 3.16v86.656c0 1.722-1.341 3.127-3.018 3.161Z"/><path fill="#FCDEA2" d="M53.223 66.552c0 .63-.092 1.212-.275 1.75a4.264 4.264 0 0 1-.775 1.395 3.449 3.449 0 0 1-1.21.912 3.491 3.491 0 0 1-1.572.303 3.64 3.64 0 0 1-1.576-.38 3.783 3.783 0 0 1-1.22-.972 4.496 4.496 0 0 1-.786-1.44 5.51 5.51 0 0 1-.277-1.772c0-.632.092-1.217.277-1.758a4.168 4.168 0 0 1 .786-1.395c.339-.39.745-.693 1.22-.906a3.518 3.518 0 0 1 1.577-.296 3.58 3.58 0 0 1 1.571.39c.473.243.873.57 1.21.979.334.408.593.885.775 1.431a5.52 5.52 0 0 1 .275 1.758Zm-1.751-.045c0-.43-.047-.82-.142-1.168a2.728 2.728 0 0 0-.408-.889 1.892 1.892 0 0 0-.652-.569 2.006 2.006 0 0 0-.879-.216 1.99 1.99 0 0 0-.886.166c-.259.121-.477.298-.657.532-.18.235-.316.525-.41.868-.096.343-.145.73-.145 1.162 0 .433.05.828.144 1.176.095.348.231.643.411.889.177.245.395.432.657.564.26.132.555.203.886.21.33.008.622-.047.879-.165.257-.12.475-.296.652-.533.177-.235.313-.525.409-.867.094-.343.14-.73.14-1.166v.006ZM47.239 75.434a.395.395 0 0 1 .138.048c.041.023.08.055.118.094.039.04.08.095.129.164l3.516 5.31c-.013-.17-.024-.33-.031-.488a9.093 9.093 0 0 1-.01-.446v-4.613l1.51.031v8.71l-.892-.013a.682.682 0 0 1-.334-.076.807.807 0 0 1-.264-.269l-3.49-5.26c.01.154.018.301.026.449.007.145.01.282.01.411v4.682l-1.518-.024V75.4l.907.018c.074 0 .138.008.187.016h-.002ZM49.07 95.95l2.74.023v1.617l-4.458-.035V88.82l1.718.02v7.11ZM50.244 110.947h-1.728v-8.731l1.728.007v8.724ZM47.239 115.618a.458.458 0 0 1 .138.044.48.48 0 0 1 .118.093c.039.039.08.092.129.161l3.516 5.225c-.013-.169-.024-.33-.031-.488a9.097 9.097 0 0 1-.01-.446v-4.613l1.51-.005v8.71l-.892.008a.746.746 0 0 1-.334-.069.764.764 0 0 1-.264-.261l-3.49-5.177c.01.153.018.3.026.445.007.145.01.282.01.411v4.683l-1.518.013v-8.745h.907a.964.964 0 0 1 .187.008l-.002.003ZM51.882 128.948v1.556l-3.036.034v2.038l2.325-.029v1.495l-2.325.031v2.08l3.036-.044v1.555l-4.764.077v-8.74l4.764-.05v-.003Z"/><path fill="url(#n)" d="m239.518 208.85-.293.016c-2.683.166-7.691-.918-7.691-6.694v-45.65c0-5.304 4.895-6.575 7.576-6.625-2.373.451-4.197 3.071-4.197 6.177v46.952c0 3.288 2.032 5.808 4.603 5.827l.002-.003Z"/><path fill="#1D1125" d="m291.086 205.634-51.754 3.216c-2.686.166-4.872-2.444-4.872-5.829v-46.955c0-3.388 2.186-6.182 4.872-6.245l51.754-1.195c2.497-.058 4.515 2.531 4.515 5.782v45.059c0 3.251-2.018 6.011-4.515 6.167Z"/><path fill="#FCDEA2" d="m277.208 165.138-21.853.981-.863-3.211c-.334-1.237-1.259-2.043-2.301-2.001l-3.128.126c-.678.027-1.225.744-1.225 1.598 0 .854.549 1.524 1.225 1.495l2.252-.098c.524-.024.986.38 1.156.999l.783 2.908 4.666 17.787c.239.915.94 1.474 1.706 1.366l14.636-2.099c.94-.134 1.728-1.044 1.946-2.238l2.723-14.858c.267-1.458-.578-2.808-1.723-2.755ZM277.283 189.914c0 2.08-1.305 3.862-2.915 3.976-1.618.116-2.933-1.487-2.933-3.58s1.315-3.873 2.933-3.978c1.613-.103 2.915 1.5 2.915 3.58v.002ZM259.347 191.405c0 2.117-1.349 3.928-3.015 4.047-1.672.119-3.031-1.508-3.031-3.636 0-2.127 1.359-3.941 3.031-4.049 1.666-.108 3.015 1.521 3.015 3.638Z"/><path fill="url(#o)" d="M233.792 102.147c-1.197-.016-3.886-.292-3.886-3.11V75.76c0-2.541 2.563-3.023 3.745-2.994h.113c-1.069.087-1.909 1.007-1.909 2.148v25.087c0 1.139.856 2.075 1.937 2.149v-.003Z"/><path fill="#1D1125" d="m261.975 102.304-28.019-.137c-1.159-.005-2.093-.97-2.093-2.159v-25.1c0-1.218.981-2.194 2.165-2.16l28.018.841c1.138.035 2.042.992 2.042 2.16v24.396c0 1.197-.947 2.164-2.113 2.159Z"/><path fill="#FCDEA2" d="M248.035 78.92c-3.927-.12-7.124 3.649-7.124 8.423 0 4.775 3.197 8.708 7.124 8.787 3.909.08 7.063-3.693 7.063-8.425 0-4.733-3.154-8.666-7.063-8.787v.002Zm-1.058 12.33-2.928-3.509 1.153-1.326 1.775 2.133 4.071-4.687 1.142 1.381-5.213 6.008Z"/><path fill="#AE35E9" d="m196.039 18.13-.277-.024v-.174c0-.276-.185-.514-.413-.535l-.779-.068c-.228-.021-.413.187-.413.464v.174l-.277-.024c-.291-.027-.524.237-.524.585v3.796c0 .348.233.652.524.675l2.159.182c.288.024.522-.237.522-.585v-3.788c0-.348-.234-.652-.522-.675v-.003ZM190.219 22.732c-.162-.013-.295-.184-.295-.38v-4.76c0-.195.131-.343.295-.33.162.013.296.185.296.38V22.4c0 .195-.131.343-.296.33v.002ZM189.029 22.632c-.164-.013-.295-.185-.295-.38v-3.55c0-.196.133-.344.295-.33.162.013.296.184.296.38V22.3c0 .195-.131.345-.296.33v.002ZM187.835 22.535c-.164-.013-.295-.185-.295-.38v-2.338c0-.198.133-.346.295-.33.165.013.295.185.295.383v2.338c0 .195-.133.345-.295.33v-.003ZM186.641 22.437c-.164-.014-.295-.185-.295-.38v-1.126c0-.197.133-.345.295-.33.164.014.295.185.295.38v1.126c0 .198-.133.345-.295.332v-.002ZM94.522 9.978c-.655-.849-1.538-1.368-2.48-1.442-.943-.087-1.827.27-2.494 1.015-.144.164-.144.446 0 .625.072.09.174.148.275.163a.332.332 0 0 0 .261-.118c.522-.58 1.218-.865 1.957-.807.74.074 1.436.475 1.96 1.144.072.09.16.148.262.148.103.016.187-.029.262-.105.144-.164.144-.446 0-.625l-.003.002Zm-1.027 1.134c-.378-.506-.899-.804-1.451-.846-.552-.045-1.058.166-1.448.595a.483.483 0 0 0 0 .625c.058.09.159.148.261.164.1 0 .188-.03.262-.119a1.12 1.12 0 0 1 .927-.374c.35.029.684.221.93.535.072.09.16.148.262.148.103.015.188-.03.262-.106a.459.459 0 0 0 .116-.314.49.49 0 0 0-.116-.313l-.005.005Zm-1.449.836c-.42-.045-.767.342-.767.849 0 .522.349.967.77.996.421.03.768-.358.768-.865 0-.506-.35-.951-.77-.98ZM132.774 29.9a2.67 2.67 0 0 1-1.721-.777c-.477-.47-.847-1.123-1.104-1.962-.257-.838-.385-1.837-.385-2.992.002-1.157.133-2.13.39-2.924.257-.79.624-1.384 1.104-1.771.478-.388 1.051-.556 1.718-.504a2.701 2.701 0 0 1 1.716.778c.478.467.845 1.113 1.099 1.946.254.83.383 1.821.383 2.97 0 1.15-.129 2.13-.383 2.93-.254.798-.621 1.394-1.096 1.787-.478.396-1.051.567-1.719.52h-.002Zm0-1.616c.519.04.93-.255 1.23-.885.301-.63.452-1.58.452-2.85 0-.841-.069-1.55-.205-2.133-.139-.583-.332-1.028-.583-1.34-.252-.31-.55-.479-.894-.508-.516-.042-.925.253-1.228.883-.3.63-.452 1.577-.454 2.837-.003.843.064 1.56.2 2.146.136.585.331 1.036.583 1.344.252.311.552.48.896.504l.003.002ZM140.245 30.396a3.398 3.398 0 0 1-1.592-.504 3.105 3.105 0 0 1-1.48-2.697 3.003 3.003 0 0 1 .226-1.204c.154-.359.362-.654.624-.88.262-.23.555-.365.879-.41v-.07c-.424-.154-.768-.46-1.03-.913a3.006 3.006 0 0 1-.391-1.537c0-.543.116-1.018.355-1.424.239-.405.567-.716.983-.927.416-.211.892-.296 1.426-.253a2.88 2.88 0 0 1 1.412.482c.414.28.74.64.979 1.083.239.443.359.936.359 1.477 0 .57-.131 1.06-.395 1.47-.265.415-.604.663-1.017.752v.071c.321.093.611.274.868.543.257.27.462.594.616.976.154.382.231.793.231 1.234 0 .57-.131 1.065-.393 1.492a2.547 2.547 0 0 1-1.081.975c-.459.222-.986.311-1.579.27v-.006Zm0-1.471c.308.023.575-.024.804-.143.228-.118.405-.295.529-.532.126-.237.19-.517.192-.838 0-.335-.069-.638-.203-.907a1.747 1.747 0 0 0-.541-.651 1.515 1.515 0 0 0-.781-.283 1.359 1.359 0 0 0-.789.161c-.231.13-.413.32-.544.57-.134.247-.198.54-.195.878 0 .321.059.611.185.864.125.256.303.459.534.614.228.156.501.243.811.267h-.002Zm0-4.798c.251.018.475-.03.668-.143.195-.116.346-.284.459-.509.113-.224.17-.487.172-.793 0-.3-.059-.57-.169-.807a1.438 1.438 0 0 0-.457-.567 1.311 1.311 0 0 0-.676-.242 1.175 1.175 0 0 0-.685.134 1.098 1.098 0 0 0-.46.493c-.108.22-.162.48-.159.783-.003.306.051.578.161.818.111.24.265.435.463.582.197.148.423.232.678.25h.005ZM145.525 24.176c-.242-.018-.45-.145-.624-.377a1.32 1.32 0 0 1-.257-.82c0-.308.082-.564.257-.77.172-.205.38-.297.624-.279.234.019.439.145.614.377.174.232.262.504.264.81a1.246 1.246 0 0 1-.126.558.96.96 0 0 1-.318.383.654.654 0 0 1-.434.116v.002Zm0 5.21c-.242-.019-.45-.143-.624-.375a1.32 1.32 0 0 1-.257-.82c0-.308.082-.564.257-.77.172-.205.38-.297.624-.279.234.019.439.143.614.375.174.232.262.5.264.809a1.246 1.246 0 0 1-.126.559.96.96 0 0 1-.318.382.671.671 0 0 1-.434.119ZM150.806 31.175a3.205 3.205 0 0 1-1.523-.49 3.052 3.052 0 0 1-1.053-1.134c-.257-.469-.396-.999-.411-1.592l1.497.114c.013.284.087.535.218.756.134.219.308.395.529.527.219.132.465.209.74.23.29.02.55-.024.773-.14.223-.113.401-.285.526-.509.126-.224.188-.49.185-.799 0-.316-.061-.6-.19-.851a1.535 1.535 0 0 0-.56-.61 1.885 1.885 0 0 0-.883-.27l-.719-.056v-1.463l.719.055c.283.021.532-.02.745-.132.213-.108.38-.274.501-.495.12-.22.182-.483.177-.786a1.857 1.857 0 0 0-.152-.786 1.384 1.384 0 0 0-.439-.548 1.295 1.295 0 0 0-.665-.237 1.325 1.325 0 0 0-.691.119c-.21.1-.383.25-.514.453-.128.203-.197.45-.205.743l-1.42-.113c.01-.585.144-1.091.395-1.516a2.5 2.5 0 0 1 1.017-.962c.424-.216.899-.303 1.426-.261a2.718 2.718 0 0 1 1.412.506c.401.293.709.667.93 1.123.218.456.329.95.329 1.482 0 .588-.131 1.07-.401 1.447s-.624.61-1.063.699v.082c.57.147 1.006.45 1.312.914.306.464.455 1.023.452 1.674 0 .586-.128 1.1-.385 1.54-.257.44-.611.775-1.061 1.004-.449.23-.965.322-1.548.28v.002ZM158.14 31.779a2.568 2.568 0 0 1-1.667-.762c-.465-.461-.819-1.105-1.068-1.93-.249-.825-.373-1.808-.373-2.945 0-1.138.129-2.095.378-2.876.249-.78.603-1.363 1.068-1.745.463-.382 1.017-.548 1.662-.496a2.604 2.604 0 0 1 1.662.765c.462.456.816 1.094 1.063 1.914.246.817.37 1.793.37 2.924 0 1.13-.124 2.098-.37 2.881-.247.786-.601 1.37-1.063 1.761-.463.39-1.017.559-1.665.512l.003-.003Zm0-1.593c.503.038.901-.253 1.192-.872.292-.62.436-1.555.436-2.805 0-.828-.067-1.526-.2-2.099-.134-.572-.321-1.012-.565-1.318-.244-.305-.532-.472-.866-.498-.5-.04-.896.25-1.189.87-.292.62-.439 1.55-.441 2.792 0 .83.061 1.534.195 2.111.133.578.321 1.018.565 1.324.244.306.534.47.868.495h.005ZM136.01 33.53l-.018-.003-.442-1.403-.416-.029v2.041l.329.021v-1.331h.013l.413 1.352.224.016.413-1.287.013.003v1.326l.326.024v-2.038l-.416-.032-.439 1.34ZM137.99 32.894a.543.543 0 0 0-.313-.121.481.481 0 0 0-.314.076.567.567 0 0 0-.203.26c-.048.117-.072.251-.072.41 0 .158.024.295.072.416a.708.708 0 0 0 .203.29.528.528 0 0 0 .314.121.478.478 0 0 0 .313-.076.56.56 0 0 0 .203-.261c.049-.116.072-.25.072-.406 0-.156-.023-.298-.072-.42a.709.709 0 0 0-.203-.29Zm-.09.917a.326.326 0 0 1-.085.158.163.163 0 0 1-.138.05.19.19 0 0 1-.139-.07.39.39 0 0 1-.085-.172.973.973 0 0 1-.028-.24.9.9 0 0 1 .028-.235.325.325 0 0 1 .085-.158.17.17 0 0 1 .139-.05c.054.003.1.03.138.071.036.043.064.1.085.172.018.07.028.15.028.24a.9.9 0 0 1-.028.234ZM139.389 32.963a.375.375 0 0 0-.216-.085.324.324 0 0 0-.226.06.408.408 0 0 0-.134.204h-.012v-.272l-.316-.023v1.526l.331.024v-.883a.39.39 0 0 1 .031-.166.198.198 0 0 1 .079-.1.202.202 0 0 1 .119-.03.199.199 0 0 1 .156.09.38.38 0 0 1 .057.224v.897l.331.023v-.97a.894.894 0 0 0-.051-.311.493.493 0 0 0-.144-.208h-.005ZM139.925 34.313c-.002.09-.01.177-.023.264a4.636 4.636 0 0 1-.038.232l-.031.16.213.016.049-.163a2.794 2.794 0 0 0 .098-.49l.007-.109-.272-.018v.11l-.003-.002ZM141.4 34.22l.231-.274c.108-.119.192-.222.254-.309.059-.087.1-.166.126-.24a.746.746 0 0 0 .036-.224.679.679 0 0 0-.072-.316.573.573 0 0 0-.496-.324.536.536 0 0 0-.293.058.48.48 0 0 0-.197.213.737.737 0 0 0-.072.343l.318.024c0-.066.01-.122.028-.166a.228.228 0 0 1 .085-.103.24.24 0 0 1 .254.016c.036.026.065.06.088.108.02.044.031.097.031.155a.395.395 0 0 1-.026.148.567.567 0 0 1-.075.134 2.04 2.04 0 0 1-.12.15l-.565.63v.309l1.132.082v-.35l-.665-.048v-.014l-.002-.002ZM143.273 32.785a.546.546 0 0 0-.341-.147.476.476 0 0 0-.342.097.703.703 0 0 0-.221.34 1.79 1.79 0 0 0-.077.562c0 .221.026.414.077.577.052.161.126.288.221.377.095.09.211.14.344.15a.466.466 0 0 0 .342-.1.735.735 0 0 0 .221-.345c.051-.153.077-.343.077-.564 0-.221-.026-.411-.077-.57a.86.86 0 0 0-.221-.371l-.003-.005Zm-.126 1.44c-.054.113-.125.166-.218.16a.225.225 0 0 1-.159-.089.624.624 0 0 1-.105-.242 1.695 1.695 0 0 1-.036-.393c0-.23.028-.401.082-.514.054-.111.126-.164.216-.158a.216.216 0 0 1 .156.09c.044.054.08.134.103.236.026.106.036.232.036.388 0 .235-.026.408-.08.52l.005.002ZM145.386 33.894a.648.648 0 0 0-.149-.132.83.83 0 0 0-.19-.092l-.141-.056c-.033-.013-.067-.026-.098-.042a.373.373 0 0 1-.079-.055.22.22 0 0 1-.054-.074.19.19 0 0 1-.018-.095c0-.045.01-.082.031-.116a.19.19 0 0 1 .084-.074.29.29 0 0 1 .139-.018c.08.005.144.034.19.079.046.047.075.11.08.192l.321.024a.722.722 0 0 0-.075-.324.606.606 0 0 0-.513-.33.592.592 0 0 0-.309.056.502.502 0 0 0-.213.2.616.616 0 0 0-.077.316c0 .15.039.272.116.367a.744.744 0 0 0 .316.219l.172.068a.776.776 0 0 1 .146.071c.039.024.07.053.09.085a.207.207 0 0 1 .031.116c0 .05-.01.092-.036.126a.216.216 0 0 1-.098.082.293.293 0 0 1-.149.021.382.382 0 0 1-.154-.045.28.28 0 0 1-.108-.11.37.37 0 0 1-.046-.174l-.323-.024c.002.148.03.271.082.374a.597.597 0 0 0 .221.24c.095.058.205.09.334.1a.671.671 0 0 0 .328-.05.464.464 0 0 0 .211-.195.658.658 0 0 0 .074-.316.69.69 0 0 0-.036-.227.583.583 0 0 0-.097-.177l-.003-.01ZM146.659 33.61a.525.525 0 0 0-.699-.145.612.612 0 0 0-.2.262c-.046.113-.072.25-.072.406 0 .155.023.3.072.422a.649.649 0 0 0 .203.284.558.558 0 0 0 .313.119.519.519 0 0 0 .26-.04.448.448 0 0 0 .182-.15.57.57 0 0 0 .095-.237l-.303-.047a.23.23 0 0 1-.049.092.173.173 0 0 1-.077.053.251.251 0 0 1-.1.013.224.224 0 0 1-.141-.056.303.303 0 0 1-.093-.134.524.524 0 0 1-.033-.198l.806.056v-.117c0-.129-.012-.242-.041-.34a.775.775 0 0 0-.118-.25l-.005.008Zm-.642.388c0-.052.01-.102.031-.147a.247.247 0 0 1 .09-.111.19.19 0 0 1 .131-.034.214.214 0 0 1 .125.05.294.294 0 0 1 .085.116.404.404 0 0 1 .031.163l-.493-.037ZM147.947 33.602a.393.393 0 0 0-.239-.103.28.28 0 0 0-.167.032.326.326 0 0 0-.108.1.467.467 0 0 0-.062.121h-.015v-.256l-.324-.023v2.088l.329.023v-.812h.01a.547.547 0 0 0 .065.13c.028.042.064.079.107.11a.341.341 0 0 0 .162.053.37.37 0 0 0 .244-.071.544.544 0 0 0 .172-.253c.044-.114.065-.253.065-.425 0-.171-.024-.319-.065-.437a.629.629 0 0 0-.174-.272v-.005Zm-.124.917a.366.366 0 0 1-.084.153.178.178 0 0 1-.136.048.192.192 0 0 1-.134-.066.389.389 0 0 1-.085-.164.936.936 0 0 1-.028-.237c0-.09.01-.169.028-.232a.324.324 0 0 1 .085-.148.175.175 0 0 1 .136-.044c.054.002.1.026.136.066.036.039.064.094.082.16a.89.89 0 0 1 .029.232.89.89 0 0 1-.029.232ZM148.967 34.8a.132.132 0 0 1-.046 0 .113.113 0 0 1-.059-.019.13.13 0 0 1-.039-.047.24.24 0 0 1-.012-.092v-.736l.223.016v-.316l-.223-.016v-.364l-.327-.024v.364l-.161-.01v.316l.161.01v.791c0 .098.016.182.049.25a.35.35 0 0 0 .139.154.433.433 0 0 0 .205.055c.044 0 .08 0 .108-.008l.07-.018-.052-.317-.036.005v.006ZM150.149 33.864a.526.526 0 0 0-.395-.219.456.456 0 0 0-.303.076.579.579 0 0 0-.198.262c-.046.113-.072.25-.072.406 0 .155.023.3.072.421a.659.659 0 0 0 .2.285c.088.071.19.108.314.119a.503.503 0 0 0 .256-.04.438.438 0 0 0 .183-.148.613.613 0 0 0 .095-.237l-.303-.047a.26.26 0 0 1-.049.092.179.179 0 0 1-.077.053.25.25 0 0 1-.1.013.228.228 0 0 1-.142-.056.292.292 0 0 1-.092-.131.514.514 0 0 1-.033-.198l.801.055v-.116c0-.129-.013-.242-.041-.34a.736.736 0 0 0-.118-.247l.002-.003Zm-.639.387c0-.052.01-.102.031-.147a.252.252 0 0 1 .089-.111.193.193 0 0 1 .131-.034c.049.002.09.02.126.05a.304.304 0 0 1 .085.116.404.404 0 0 1 .031.163l-.491-.034-.002-.003ZM151.859 33.798a.32.32 0 0 0-.223.061.367.367 0 0 0-.131.2h-.013a.41.41 0 0 0-.113-.218.316.316 0 0 0-.205-.093.282.282 0 0 0-.206.064.406.406 0 0 0-.123.2h-.013v-.269l-.311-.024v1.516l.326.024v-.91c0-.055.008-.102.026-.145a.236.236 0 0 1 .069-.092.146.146 0 0 1 .098-.029.165.165 0 0 1 .131.077.306.306 0 0 1 .049.181v.944l.316.024v-.925c0-.08.015-.143.048-.188a.155.155 0 0 1 .139-.063.183.183 0 0 1 .131.071.312.312 0 0 1 .052.193v.936l.326.023V34.34a.647.647 0 0 0-.103-.388.347.347 0 0 0-.267-.153h-.003ZM153.401 33.996a.39.39 0 0 0-.236-.103.267.267 0 0 0-.164.032.423.423 0 0 0-.17.219h-.01v-.76l-.326-.023v2.016l.321.024v-.242h.015a.543.543 0 0 0 .064.129.341.341 0 0 0 .27.163.358.358 0 0 0 .241-.071.55.55 0 0 0 .172-.25c.041-.114.062-.254.062-.422 0-.169-.021-.32-.064-.438a.653.653 0 0 0-.172-.271l-.003-.003Zm-.123.912a.346.346 0 0 1-.085.153.175.175 0 0 1-.133.047.19.19 0 0 1-.134-.065.414.414 0 0 1-.085-.161.853.853 0 0 1-.028-.237c0-.09.01-.167.028-.233a.346.346 0 0 1 .082-.147.185.185 0 0 1 .134-.045.197.197 0 0 1 .136.066c.036.04.064.095.082.16a.905.905 0 0 1 0 .465l.003-.003ZM154.764 34.2a.516.516 0 0 0-.39-.219.447.447 0 0 0-.301.076.57.57 0 0 0-.197.261 1.05 1.05 0 0 0-.07.404c0 .155.023.3.07.419a.674.674 0 0 0 .2.284c.087.069.19.108.311.116a.509.509 0 0 0 .257-.04.462.462 0 0 0 .182-.147.568.568 0 0 0 .092-.237l-.3-.047a.231.231 0 0 1-.049.092.173.173 0 0 1-.077.053.244.244 0 0 1-.1.013.224.224 0 0 1-.141-.056.328.328 0 0 1-.093-.131.51.51 0 0 1-.033-.196l.796.056v-.116c0-.13-.013-.243-.041-.34a.76.76 0 0 0-.118-.248l.002.002Zm-.634.384c0-.052.01-.102.031-.147a.246.246 0 0 1 .09-.11.189.189 0 0 1 .131-.035.208.208 0 0 1 .123.05.303.303 0 0 1 .085.116.42.42 0 0 1 .03.163l-.488-.034-.002-.003ZM155.798 34.087c-.018-.003-.036-.008-.052-.008a.226.226 0 0 0-.174.06.364.364 0 0 0-.108.206h-.013v-.263l-.316-.024v1.51l.324.024v-.854c0-.06.01-.116.033-.16a.253.253 0 0 1 .087-.106.215.215 0 0 1 .129-.032.27.27 0 0 1 .074.014c.026.008.049.013.064.02v-.371a.25.25 0 0 0-.048-.013v-.003Z"/><g style="mix-blend-mode:multiply"><path fill="#FDFDFD" d="m158.835 266.386-65.301 6.728c-5.09.524-9.243-3.757-9.243-9.565v-78.438c0-5.808 4.153-10.65 9.243-10.817l65.301-2.124c4.595-.151 8.295 4.162 8.295 9.627v73.833c0 5.467-3.7 10.279-8.295 10.753v.003Z" opacity=".03"/><path fill="#FBFBFB" d="m159.284 265.929-65.302 6.728c-5.09.524-9.242-3.757-9.242-9.565v-78.438c0-5.808 4.152-10.65 9.242-10.817l65.302-2.124c4.594-.151 8.295 4.162 8.295 9.627v73.833c0 5.467-3.701 10.279-8.295 10.753v.003Z" opacity=".06"/><path fill="#F9F9F9" d="m159.728 265.468-65.302 6.728c-5.09.524-9.243-3.757-9.243-9.565v-78.438c0-5.808 4.153-10.65 9.243-10.817l65.302-2.124c4.594-.151 8.295 4.162 8.295 9.627v73.833c0 5.467-3.701 10.279-8.295 10.753v.003Z" opacity=".1"/><path fill="#F7F7F7" d="m160.171 265.014-65.3 6.728c-5.091.525-9.244-3.757-9.244-9.565V183.74c0-5.808 4.153-10.651 9.243-10.817l65.301-2.125c4.595-.15 8.296 4.163 8.296 9.628v73.832c0 5.468-3.701 10.279-8.296 10.753v.003Z" opacity=".13"/><path fill="#F5F5F5" d="m160.618 264.557-65.3 6.728c-5.091.525-9.244-3.757-9.244-9.564v-78.438c0-5.808 4.153-10.651 9.243-10.817l65.301-2.125c4.595-.15 8.296 4.163 8.296 9.628v73.832c0 5.468-3.701 10.279-8.296 10.754v.002Z" opacity=".16"/><path fill="#F3F3F3" d="m161.062 264.098-65.302 6.728c-5.09.524-9.243-3.757-9.243-9.565v-78.438c0-5.807 4.153-10.65 9.243-10.816l65.302-2.125c4.594-.151 8.295 4.162 8.295 9.628v73.832c0 5.467-3.701 10.279-8.295 10.753v.003Z" opacity=".19"/><path fill="#F1F1F1" d="m161.509 263.643-65.3 6.728c-5.091.524-9.244-3.757-9.244-9.565v-78.438c0-5.808 4.153-10.65 9.243-10.816l65.301-2.125c4.595-.151 8.296 4.162 8.296 9.627v73.833c0 5.467-3.701 10.279-8.296 10.753v.003Z" opacity=".23"/><path fill="#EFEFEF" d="m161.954 263.186-65.301 6.728c-5.09.525-9.243-3.757-9.243-9.564v-78.438c0-5.808 4.153-10.651 9.243-10.817l65.301-2.125c4.594-.15 8.295 4.163 8.295 9.628v73.832c0 5.468-3.701 10.279-8.295 10.754v.002Z" opacity=".26"/><path fill="#EDEDED" d="m162.398 262.726-65.302 6.728c-5.09.524-9.243-3.757-9.243-9.565v-78.438c0-5.808 4.153-10.65 9.243-10.816l65.302-2.125c4.594-.151 8.295 4.162 8.295 9.627v73.833c0 5.467-3.701 10.279-8.295 10.753v.003Z" opacity=".29"/><path fill="#EBEBEB" d="m162.844 262.268-65.301 6.727c-5.09.525-9.243-3.756-9.243-9.564v-78.438c0-5.808 4.153-10.651 9.243-10.817l65.301-2.125c4.595-.15 8.295 4.163 8.295 9.628v73.832c0 5.468-3.7 10.279-8.295 10.754v.003Z" opacity=".32"/><path fill="#E9E9E9" d="m163.288 261.814-65.301 6.728c-5.09.525-9.243-3.756-9.243-9.564V180.54c0-5.808 4.153-10.651 9.243-10.817l65.301-2.125c4.595-.15 8.295 4.163 8.295 9.628v73.832c0 5.468-3.7 10.279-8.295 10.754v.002Z" opacity=".35"/><path fill="#E7E7E7" d="m163.733 261.357-65.301 6.728c-5.09.525-9.243-3.757-9.243-9.565v-78.437c0-5.808 4.153-10.651 9.243-10.817l65.301-2.125c4.595-.15 8.295 4.163 8.295 9.628v73.832c0 5.468-3.7 10.279-8.295 10.753v.003Z" opacity=".39"/><path fill="#E5E5E5" d="m164.182 260.897-65.302 6.728c-5.09.524-9.242-3.757-9.242-9.565v-78.438c0-5.808 4.152-10.65 9.242-10.817l65.302-2.124c4.594-.151 8.295 4.162 8.295 9.627v73.833c0 5.467-3.701 10.279-8.295 10.753v.003Z" opacity=".42"/><path fill="#E3E3E3" d="m164.624 260.444-65.301 6.727c-5.09.525-9.243-3.756-9.243-9.564v-78.438c0-5.808 4.153-10.651 9.243-10.817l65.301-2.125c4.595-.15 8.295 4.163 8.295 9.628v73.832c0 5.468-3.7 10.279-8.295 10.754v.003Z" opacity=".45"/><path fill="#E1E1E1" d="m165.07 259.986-65.301 6.728c-5.09.524-9.243-3.757-9.243-9.565v-78.437c0-5.808 4.153-10.651 9.243-10.817l65.301-2.125c4.594-.15 8.295 4.163 8.295 9.628v73.832c0 5.468-3.701 10.279-8.295 10.753v.003Z" opacity=".48"/><path fill="#DFDFDF" d="m165.516 259.529-65.301 6.728c-5.09.525-9.243-3.756-9.243-9.564v-78.438c0-5.808 4.153-10.651 9.243-10.817l65.301-2.125c4.595-.15 8.296 4.163 8.296 9.628v73.832c0 5.468-3.701 10.279-8.296 10.754v.002Z" opacity=".52"/><path fill="#DDD" d="m165.96 259.074-65.302 6.728c-5.09.524-9.243-3.757-9.243-9.565v-78.438c0-5.808 4.153-10.65 9.243-10.817l65.302-2.124c4.594-.151 8.295 4.162 8.295 9.627v73.833c0 5.467-3.701 10.279-8.295 10.753v.003Z" opacity=".55"/><path fill="#DBDBDB" d="m166.404 258.616-65.301 6.728c-5.09.524-9.243-3.757-9.243-9.565v-78.438c0-5.807 4.153-10.65 9.243-10.816l65.301-2.125c4.595-.15 8.295 4.163 8.295 9.628v73.832c0 5.468-3.7 10.279-8.295 10.753v.003Z" opacity=".58"/><path fill="#D9D9D9" d="m166.851 258.155-65.302 6.728c-5.09.525-9.243-3.756-9.243-9.564v-78.438c0-5.808 4.153-10.651 9.243-10.817l65.302-2.125c4.594-.15 8.295 4.163 8.295 9.628v73.832c0 5.468-3.701 10.279-8.295 10.754v.002Z" opacity=".61"/><path fill="#D7D7D7" d="m167.294 257.7-65.301 6.728c-5.09.525-9.243-3.757-9.243-9.564v-78.438c0-5.808 4.153-10.651 9.243-10.817l65.301-2.125c4.595-.15 8.296 4.163 8.296 9.628v73.832c0 5.468-3.701 10.279-8.296 10.754v.002Z" opacity=".65"/><path fill="#D5D5D5" d="m167.74 257.245-65.301 6.728c-5.09.525-9.243-3.757-9.243-9.564v-78.438c0-5.808 4.153-10.651 9.243-10.817l65.301-2.125c4.595-.15 8.295 4.163 8.295 9.628v73.832c0 5.468-3.7 10.279-8.295 10.754v.002Z" opacity=".68"/><path fill="#D3D3D3" d="m168.187 256.786-65.302 6.727c-5.09.525-9.243-3.756-9.243-9.564v-78.438c0-5.808 4.153-10.651 9.243-10.817l65.302-2.125c4.594-.15 8.295 4.163 8.295 9.628v73.832c0 5.468-3.701 10.279-8.295 10.754v.003Z" opacity=".71"/><path fill="#D1D1D1" d="m168.63 256.332-65.301 6.728c-5.09.524-9.243-3.757-9.243-9.565v-78.438c0-5.808 4.153-10.65 9.243-10.817l65.301-2.124c4.595-.151 8.296 4.162 8.296 9.627v73.833c0 5.467-3.701 10.279-8.296 10.753v.003Z" opacity=".74"/><path fill="#CFCFCF" d="m169.076 255.874-65.301 6.728c-5.09.525-9.243-3.756-9.243-9.564V174.6c0-5.808 4.153-10.651 9.243-10.817l65.301-2.125c4.595-.15 8.296 4.163 8.296 9.628v73.832c0 5.468-3.701 10.279-8.296 10.754v.002Z" opacity=".77"/><path fill="#CDCDCD" d="m169.523 255.415-65.302 6.728c-5.09.524-9.243-3.757-9.243-9.565V174.14c0-5.808 4.153-10.65 9.243-10.816l65.302-2.125c4.594-.151 8.295 4.162 8.295 9.627v73.833c0 5.467-3.701 10.279-8.295 10.753v.003Z" opacity=".81"/><path fill="#CBCBCB" d="m169.967 254.958-65.302 6.728c-5.09.524-9.243-3.757-9.243-9.565v-78.438c0-5.808 4.153-10.65 9.243-10.817l65.302-2.124c4.594-.151 8.295 4.162 8.295 9.627v73.833c0 5.467-3.701 10.279-8.295 10.753v.003Z" opacity=".84"/><path fill="#C9C9C9" d="m170.414 254.497-65.302 6.728c-5.09.525-9.242-3.757-9.242-9.564v-78.438c0-5.808 4.152-10.651 9.242-10.817l65.302-2.125c4.594-.15 8.295 4.163 8.295 9.628v73.832c0 5.468-3.701 10.279-8.295 10.754v.002Z" opacity=".87"/><path fill="#C7C7C7" d="m170.857 254.044-65.301 6.728c-5.09.525-9.243-3.757-9.243-9.565V172.77c0-5.808 4.153-10.651 9.243-10.817l65.301-2.125c4.595-.15 8.296 4.163 8.296 9.628v73.832c0 5.468-3.701 10.279-8.296 10.753v.003Z" opacity=".9"/><path fill="#C5C5C5" d="m171.302 253.589-65.301 6.728c-5.091.524-9.243-3.757-9.243-9.565v-78.438c0-5.807 4.152-10.65 9.243-10.816l65.301-2.125c4.594-.151 8.295 4.162 8.295 9.627v73.833c0 5.467-3.701 10.279-8.295 10.753v.003Z" opacity=".94"/><path fill="#C3C3C3" d="m171.749 253.13-65.301 6.728c-5.09.525-9.243-3.757-9.243-9.565v-78.437c0-5.808 4.153-10.651 9.243-10.817l65.301-2.125c4.595-.15 8.295 4.163 8.295 9.628v73.832c0 5.468-3.7 10.279-8.295 10.753v.003Z" opacity=".97"/><path fill="#C1C1C1" d="m172.194 252.674-65.302 6.728c-5.09.524-9.243-3.757-9.243-9.565V171.4c0-5.808 4.153-10.651 9.243-10.817l65.302-2.125c4.594-.15 8.295 4.163 8.295 9.628v73.832c0 5.468-3.701 10.279-8.295 10.753v.003Z"/></g><g style="mix-blend-mode:multiply"><path fill="#FDFDFD" d="m151.222 296.156-49.595 6.177c-1.962.245-3.554-1.379-3.554-3.625v-12.414c0-2.246 1.595-4.245 3.554-4.461l49.595-5.446c1.818-.201 3.29 1.386 3.29 3.543v11.913c0 2.157-1.472 4.089-3.29 4.313Z" opacity=".03"/><path fill="#FBFBFB" d="m151.669 295.699-49.594 6.177c-1.963.245-3.555-1.379-3.555-3.625v-12.414c0-2.247 1.595-4.245 3.555-4.461l49.594-5.447c1.818-.2 3.29 1.387 3.29 3.544v11.913c0 2.157-1.472 4.089-3.29 4.313Z" opacity=".06"/><path fill="#F9F9F9" d="m152.114 295.239-49.594 6.176c-1.962.246-3.555-1.378-3.555-3.624v-12.415c0-2.246 1.595-4.244 3.555-4.46l49.594-5.447c1.818-.2 3.29 1.387 3.29 3.543v11.914c0 2.156-1.472 4.088-3.29 4.313Z" opacity=".1"/><path fill="#F7F7F7" d="m152.558 294.782-49.594 6.177c-1.963.245-3.555-1.379-3.555-3.625V284.92c0-2.246 1.595-4.245 3.555-4.461l49.594-5.446c1.818-.201 3.29 1.386 3.29 3.543v11.913c0 2.157-1.472 4.089-3.29 4.313Z" opacity=".13"/><path fill="#F5F5F5" d="m153.005 294.328-49.594 6.177c-1.962.245-3.555-1.379-3.555-3.625v-12.414c0-2.247 1.595-4.245 3.555-4.461l49.594-5.447c1.818-.2 3.29 1.387 3.29 3.544v11.913c0 2.156-1.472 4.089-3.29 4.313Z" opacity=".16"/><path fill="#F3F3F3" d="m153.449 293.868-49.595 6.177c-1.962.245-3.554-1.379-3.554-3.625v-12.414c0-2.247 1.595-4.245 3.554-4.461l49.595-5.447c1.818-.2 3.29 1.387 3.29 3.544v11.913c0 2.156-1.472 4.089-3.29 4.313Z" opacity=".19"/><path fill="#F1F1F1" d="M153.894 293.413 104.3 299.59c-1.962.245-3.555-1.379-3.555-3.625v-12.414c0-2.246 1.595-4.245 3.555-4.461l49.594-5.446c1.818-.201 3.29 1.386 3.29 3.543V289.1c0 2.157-1.472 4.089-3.29 4.313Z" opacity=".23"/><path fill="#EFEFEF" d="m154.339 292.957-49.594 6.177c-1.962.245-3.555-1.379-3.555-3.625v-12.415c0-2.246 1.595-4.244 3.555-4.46l49.594-5.447c1.818-.2 3.29 1.387 3.29 3.543v11.914c0 2.156-1.472 4.089-3.29 4.313Z" opacity=".26"/><path fill="#EDEDED" d="m154.784 292.496-49.594 6.177c-1.962.245-3.554-1.379-3.554-3.625v-12.414c0-2.246 1.594-4.244 3.554-4.461l49.594-5.446c1.818-.201 3.29 1.386 3.29 3.543v11.913c0 2.157-1.472 4.089-3.29 4.313Z" opacity=".29"/><path fill="#EBEBEB" d="m155.231 292.042-49.594 6.177c-1.962.245-3.554-1.379-3.554-3.625V282.18c0-2.246 1.595-4.245 3.554-4.461l49.594-5.446c1.819-.201 3.29 1.386 3.29 3.543v11.913c0 2.157-1.471 4.089-3.29 4.313Z" opacity=".32"/><path fill="#E9E9E9" d="m155.674 291.585-49.594 6.177c-1.962.245-3.554-1.379-3.554-3.625v-12.414c0-2.246 1.595-4.245 3.554-4.461l49.594-5.446c1.819-.201 3.29 1.386 3.29 3.543v11.913c0 2.157-1.471 4.089-3.29 4.313Z" opacity=".35"/><path fill="#E7E7E7" d="m156.12 291.127-49.595 6.177c-1.962.246-3.554-1.378-3.554-3.625v-12.414c0-2.246 1.595-4.244 3.554-4.461l49.595-5.446c1.818-.2 3.29 1.387 3.29 3.543v11.914c0 2.156-1.472 4.088-3.29 4.312Z" opacity=".39"/><path fill="#E5E5E5" d="m156.568 290.671-49.594 6.177c-1.962.245-3.555-1.379-3.555-3.625v-12.414c0-2.246 1.595-4.245 3.555-4.461l49.594-5.446c1.818-.201 3.29 1.386 3.29 3.543v11.913c0 2.157-1.472 4.089-3.29 4.313Z" opacity=".42"/><path fill="#E3E3E3" d="m157.011 290.214-49.595 6.177c-1.962.245-3.554-1.379-3.554-3.625v-12.414c0-2.247 1.595-4.245 3.554-4.461l49.595-5.447c1.818-.2 3.29 1.387 3.29 3.544v11.913c0 2.156-1.472 4.089-3.29 4.313Z" opacity=".45"/><path fill="#E1E1E1" d="m157.456 289.757-49.594 6.177c-1.962.245-3.554-1.379-3.554-3.625v-12.414c0-2.247 1.595-4.245 3.554-4.461l49.594-5.447c1.819-.2 3.29 1.387 3.29 3.543v11.914c0 2.156-1.471 4.089-3.29 4.313Z" opacity=".48"/><path fill="#DFDFDF" d="m157.904 289.3-49.595 6.177c-1.962.245-3.554-1.379-3.554-3.625v-12.414c0-2.246 1.595-4.244 3.554-4.461l49.595-5.446c1.818-.201 3.289 1.386 3.289 3.543v11.913c0 2.157-1.471 4.089-3.289 4.313Z" opacity=".52"/><path fill="#DDD" d="m158.346 288.842-49.594 6.177c-1.962.245-3.555-1.379-3.555-3.625V278.98c0-2.246 1.595-4.245 3.555-4.461l49.594-5.447c1.818-.2 3.29 1.387 3.29 3.544v11.913c0 2.157-1.472 4.089-3.29 4.313Z" opacity=".55"/><path fill="#DBDBDB" d="m158.791 288.382-49.595 6.176c-1.962.246-3.554-1.378-3.554-3.624v-12.415c0-2.246 1.595-4.244 3.554-4.46l49.595-5.447c1.818-.2 3.289 1.387 3.289 3.543v11.914c0 2.156-1.471 4.089-3.289 4.313Z" opacity=".58"/><path fill="#D9D9D9" d="m159.237 287.927-49.594 6.176c-1.962.246-3.555-1.378-3.555-3.625v-12.414c0-2.246 1.595-4.244 3.555-4.46l49.594-5.447c1.818-.2 3.29 1.387 3.29 3.543v11.914c0 2.156-1.472 4.088-3.29 4.313Z" opacity=".61"/><path fill="#D7D7D7" d="m159.681 287.471-49.594 6.177c-1.963.245-3.555-1.379-3.555-3.625v-12.414c0-2.246 1.595-4.245 3.555-4.461l49.594-5.446c1.818-.201 3.29 1.386 3.29 3.543v11.913c0 2.157-1.472 4.089-3.29 4.313Z" opacity=".65"/><path fill="#D5D5D5" d="m160.125 287.014-49.595 6.177c-1.962.245-3.554-1.379-3.554-3.625v-12.415c0-2.246 1.595-4.244 3.554-4.46l49.595-5.447c1.818-.2 3.289 1.387 3.289 3.543v11.914c0 2.156-1.471 4.089-3.289 4.313Z" opacity=".68"/><path fill="#D3D3D3" d="m160.572 286.556-49.594 6.177c-1.962.245-3.554-1.378-3.554-3.625v-12.414c0-2.246 1.595-4.244 3.554-4.461l49.594-5.446c1.819-.201 3.29 1.387 3.29 3.543v11.913c0 2.157-1.471 4.089-3.29 4.313Z" opacity=".71"/><path fill="#D1D1D1" d="m161.017 286.099-49.594 6.177c-1.962.245-3.555-1.379-3.555-3.625v-12.414c0-2.247 1.595-4.245 3.555-4.461l49.594-5.447c1.818-.2 3.29 1.387 3.29 3.544v11.913c0 2.156-1.472 4.089-3.29 4.313Z" opacity=".74"/><path fill="#CFCFCF" d="m161.461 285.644-49.594 6.177c-1.962.245-3.554-1.379-3.554-3.625v-12.415c0-2.246 1.595-4.244 3.554-4.46l49.594-5.447c1.819-.2 3.29 1.387 3.29 3.543v11.914c0 2.156-1.471 4.089-3.29 4.313Z" opacity=".77"/><path fill="#CDCDCD" d="m161.909 285.185-49.594 6.177c-1.962.245-3.554-1.379-3.554-3.625v-12.414c0-2.246 1.594-4.244 3.554-4.461l49.594-5.446c1.819-.201 3.29 1.386 3.29 3.543v11.913c0 2.157-1.471 4.089-3.29 4.313Z" opacity=".81"/><path fill="#CBCBCB" d="m162.353 284.728-49.594 6.177c-1.962.245-3.555-1.379-3.555-3.625v-12.414c0-2.246 1.595-4.245 3.555-4.461l49.594-5.447c1.818-.2 3.29 1.387 3.29 3.544v11.913c0 2.157-1.472 4.089-3.29 4.313Z" opacity=".84"/><path fill="#C9C9C9" d="m162.798 284.268-49.595 6.177c-1.962.245-3.554-1.379-3.554-3.625v-12.415c0-2.246 1.595-4.244 3.554-4.46l49.595-5.447c1.818-.2 3.289 1.387 3.289 3.543v11.914c0 2.156-1.471 4.089-3.289 4.313Z" opacity=".87"/><path fill="#C7C7C7" d="m163.245 283.815-49.595 6.176c-1.962.246-3.554-1.378-3.554-3.625v-12.414c0-2.246 1.595-4.244 3.554-4.46l49.595-5.447c1.818-.2 3.289 1.387 3.289 3.543v11.914c0 2.156-1.471 4.088-3.289 4.313Z" opacity=".9"/><path fill="#C5C5C5" d="m163.689 283.355-49.594 6.177c-1.962.245-3.554-1.379-3.554-3.625v-12.414c0-2.246 1.594-4.245 3.554-4.461l49.594-5.447c1.818-.2 3.29 1.387 3.29 3.544v11.913c0 2.157-1.472 4.089-3.29 4.313Z" opacity=".94"/><path fill="#C3C3C3" d="m164.136 282.901-49.595 6.177c-1.962.245-3.554-1.379-3.554-3.625v-12.415c0-2.246 1.595-4.244 3.554-4.46l49.595-5.447c1.818-.2 3.289 1.387 3.289 3.543v11.914c0 2.156-1.471 4.089-3.289 4.313Z" opacity=".97"/><path fill="#C1C1C1" d="m164.58 282.445-49.594 6.177c-1.962.245-3.555-1.379-3.555-3.625v-12.415c0-2.246 1.595-4.244 3.555-4.46l49.594-5.447c1.818-.2 3.29 1.387 3.29 3.543v11.914c0 2.156-1.472 4.089-3.29 4.313Z"/></g><path fill="url(#p)" d="m179.967 241.781-64.78 6.676c-5.09.524-9.764-3.702-9.764-9.51V160.51c0-5.808 4.152-10.651 9.242-10.817l65.302-2.125c4.594-.15 8.295 4.163 8.295 9.628v73.832c0 5.468-3.701 10.279-8.295 10.753Z"/><path fill="#1D1125" d="m182.717 241.507-65.301 6.728c-5.09.524-9.243-3.757-9.243-9.565v-78.437c0-5.808 4.153-10.651 9.243-10.817l65.301-2.125c4.595-.15 8.296 4.163 8.296 9.628v73.832c0 5.468-3.701 10.279-8.296 10.753v.003Z"/><path fill="#fff" d="m136.828 234.97-15.689 1.531c-.642.064-1.164.704-1.164 1.432s.522 1.265 1.164 1.202l15.689-1.566c.626-.063 1.132-.693 1.132-1.41s-.506-1.25-1.132-1.189ZM148.909 228.8l-27.77 2.599c-.642.061-1.163.699-1.163 1.426 0 .728.521 1.268 1.163 1.205l27.77-2.657c.613-.058 1.112-.683 1.112-1.392 0-.71-.499-1.239-1.112-1.181ZM169.697 230.579c0 1.144-.788 2.151-1.764 2.246-.976.095-1.769-.757-1.769-1.906 0-1.15.793-2.154 1.769-2.246.973-.093 1.764.761 1.764 1.906ZM174.423 230.12c0 1.141-.783 2.143-1.749 2.238-.968.095-1.754-.754-1.754-1.898s.786-2.146 1.754-2.238c.966-.093 1.749.759 1.749 1.898ZM179.18 229.659c0 1.136-.776 2.133-1.736 2.227-.961.095-1.742-.751-1.742-1.892 0-1.142.781-2.138 1.742-2.228.958-.092 1.736.757 1.736 1.893Z"/><path fill="#FCDEA2" d="M170.034 167.472c-1.78-2.149-6.305-3.462-10.497-4.273-.12-.024-.241.05-.305.176-1.641 3.346-4.759 5.71-8.357 5.9-3.616.193-6.78-1.864-8.483-5.075-.064-.121-.187-.182-.31-.147-4.32 1.247-9.041 3.058-10.915 5.452-3.55 4.547-7.887 11.346-8.822 12.825-.103.161-.072.377.064.483l8.622 6.801c.125.1.303.066.408-.076l3.21-4.456c.182-.253.527-.126.527.196v33.771c0 .192.133.334.3.319l30.454-2.637c.159-.013.287-.176.287-.364v-33.056c0-.314.329-.48.504-.256l3.084 3.955c.098.126.267.137.385.023l8.072-7.627a.38.38 0 0 0 .059-.471c-.865-1.316-4.915-7.411-8.287-11.46v-.003Z"/><path fill="url(#q)" d="m172.992 271.448-49.012 6.103c-1.962.246-4.137-1.307-4.137-3.553v-12.415c0-2.246 1.972-4.286 3.935-4.5l49.216-5.404c1.819-.201 3.29 1.386 3.29 3.543v11.913c0 2.157-1.471 4.089-3.29 4.313h-.002Z"/><path fill="#FCDEA2" d="m175.189 271.196-49.594 6.177c-1.962.245-3.555-1.379-3.555-3.625v-12.415c0-2.246 1.595-4.244 3.555-4.46l49.594-5.447c1.818-.2 3.29 1.387 3.29 3.543v11.914c0 2.156-1.472 4.089-3.29 4.313Z"/><path fill="#000" d="M132.705 262.546c.437-.05.809-.045 1.12.013.308.061.562.164.757.316.196.151.337.346.427.583.09.237.133.509.133.815a1.843 1.843 0 0 1-.264.973c-.09.15-.208.29-.352.419a2.462 2.462 0 0 1-.511.348c.442.068.768.226.981.472.21.247.318.585.318 1.02 0 .316-.054.617-.159.899a2.272 2.272 0 0 1-.462.759 2.474 2.474 0 0 1-.75.556c-.298.148-.64.246-1.025.29l-2.524.303v-7.5l2.314-.266h-.003Zm-.966 1.289v2.025l.884-.103c.187-.021.357-.058.503-.113.147-.053.27-.127.367-.217a.868.868 0 0 0 .226-.337c.052-.134.08-.293.08-.475 0-.181-.02-.34-.064-.466a.612.612 0 0 0-.2-.293.739.739 0 0 0-.342-.134 1.98 1.98 0 0 0-.488 0l-.966.11v.003Zm1.153 4.991c.216-.027.393-.077.532-.153.139-.077.249-.169.334-.28a1.04 1.04 0 0 0 .175-.364c.033-.134.048-.268.048-.406 0-.15-.02-.284-.059-.4a.617.617 0 0 0-.187-.285.748.748 0 0 0-.339-.153 1.628 1.628 0 0 0-.514-.008l-1.145.135v2.051l1.153-.137h.002ZM138.985 268.045a1.419 1.419 0 0 0 1.017-.603 1.92 1.92 0 0 0 .27-.591c.061-.227.092-.477.092-.751v-4.434l1.33-.153v4.429c0 .451-.061.872-.187 1.265a3.349 3.349 0 0 1-.539 1.041 2.893 2.893 0 0 1-1.986 1.11c-.421.05-.801.019-1.137-.095a2.057 2.057 0 0 1-.858-.54 2.498 2.498 0 0 1-.542-.917 3.734 3.734 0 0 1-.19-1.226v-4.448l1.338-.153v4.442c0 .275.031.517.092.731.062.211.155.387.273.527.118.14.264.243.436.306s.368.082.588.055l.003.005ZM145.855 265.608v2.852l-1.322.158v-2.855l-2.33-4.302 1.169-.135c.116-.013.205.008.275.063.069.056.123.13.164.225l1.051 2.217c.071.15.133.287.192.419.057.129.108.258.152.39.041-.142.09-.285.143-.427.054-.145.116-.298.183-.459l1.037-2.454a.845.845 0 0 1 .16-.248.415.415 0 0 1 .272-.14l1.168-.134-2.316 4.83h.002ZM154.183 260.091v7.373l-.675.082a.495.495 0 0 1-.257-.029.564.564 0 0 1-.205-.177l-3.157-4.313c.008.119.016.235.021.351.005.116.005.221.005.322v4.276l-1.161.139v-7.402l.691-.079c.057-.006.103-.011.141-.008.039 0 .075.008.108.023a.47.47 0 0 1 .093.064.76.76 0 0 1 .095.11l3.179 4.335a7.061 7.061 0 0 1-.033-.715v-4.221l1.153-.131h.002ZM161.56 262.906c0 .536-.077 1.042-.231 1.519-.155.477-.37.899-.65 1.265a3.58 3.58 0 0 1-1.012.907 3.274 3.274 0 0 1-1.312.443c-.483.058-.92.016-1.315-.129a2.602 2.602 0 0 1-1.02-.667 3.092 3.092 0 0 1-.657-1.115 4.454 4.454 0 0 1-.234-1.471c0-.538.077-1.047.234-1.521.154-.478.375-.899.657-1.266a3.612 3.612 0 0 1 1.02-.904 3.287 3.287 0 0 1 1.315-.438c.48-.055.919-.01 1.312.135a2.57 2.57 0 0 1 1.012.672c.28.303.495.675.65 1.113.154.437.231.925.231 1.455v.002Zm-1.323.156c0-.385-.044-.722-.128-1.02a2.001 2.001 0 0 0-.373-.736 1.377 1.377 0 0 0-.59-.422 1.677 1.677 0 0 0-.789-.079 1.983 1.983 0 0 0-.791.261c-.234.14-.431.327-.596.562a2.67 2.67 0 0 0-.375.825 3.96 3.96 0 0 0-.131 1.052c0 .385.044.73.131 1.028.088.295.211.54.375.733.165.192.362.332.596.419.234.084.498.111.791.076.293-.034.557-.123.789-.263.231-.14.428-.327.59-.559.162-.232.288-.506.373-.82a3.97 3.97 0 0 0 .128-1.054v-.003ZM170.7 258.195l-1.913 7.514-1.156.137-1.266-4.627a5.019 5.019 0 0 1-.115-.464 5.513 5.513 0 0 1-.057.264c-.02.084-.041.158-.059.229l-1.284 4.935-1.166.14-1.929-7.1 1.084-.124a.418.418 0 0 1 .283.058c.077.05.125.127.149.224l.965 4.015.072.364c.026.129.049.269.072.414a7.617 7.617 0 0 1 .177-.812l1.123-4.252a.573.573 0 0 1 .146-.248.45.45 0 0 1 .275-.134l.375-.043c.11-.013.2.008.272.064a.498.498 0 0 1 .157.221l1.112 3.986c.033.103.064.216.092.338.028.124.057.253.082.39.023-.143.044-.28.067-.409a9 9 0 0 1 .067-.358l.958-4.224a.513.513 0 0 1 .144-.247.455.455 0 0 1 .277-.132l1.001-.116-.005-.003Z"/><path fill="#FFDAD0" d="m182.007 261.528-8.157-1.779a.376.376 0 0 0-.287.053l.981-.783c.233-.193.544-.261.842-.201l5.727 1.239.896 1.469-.002.002ZM185.53 262.801c-.131.082-.224.301-.224.575v.192l-.002-.008a9.212 9.212 0 0 0-.321-.675c-.049-.097-.098-.184-.136-.258a7.882 7.882 0 0 0-.152-.274l-2.817-4.308a.35.35 0 0 0-.046-.063l-.003-.003-.015-.016c-.016-.031-.049-.055-.072-.079-.154-.184-.342-.24-.504-.184-.007-.008-.018 0-.025 0h-.023l1.248-.567a.639.639 0 0 1 .804.216l3.089 4.68-.804.769.003.003Z"/><path fill="url(#r)" d="M195.948 263.947v8.181c0 .387-.175.759-.481 1.007l-1.024.622c.115-.106.192-.319.192-.583v-8.154c0-.416-.195-.796-.431-.849l-8.475-1.758a.25.25 0 0 0-.183.034l.861-.825a.886.886 0 0 1 .786-.229l8.005 1.632c.436.094.75.474.75.922Z"/><path fill="#F2B199" d="M185.336 270.473c-.352.595-.886 1.289-1.628 1.12-.727-.166-5.573-1.318-6.269-1.484-.39-.095-.704-.738-.704-1.437 0-.456.134-.82.334-.997l-.228-.055c-.388-.09-.701-.73-.701-1.429 0-.453.133-.82.333-.999l-.156-.034c-.388-.09-.701-.725-.701-1.424 0-.456.133-.82.334-1.002l-2.104-.469c-.38-.084-.691-.714-.691-1.408 0-.693.309-1.189.691-1.107l8.164 1.774-1.017-1.655c-.308-.504-.362-1.316-.118-1.817.244-.503.691-.503 1.004-.002l2.818 4.305s.313.527.611 1.22l.031 6.897-.003.003Z"/><path fill="url(#s)" d="M194.634 265.017v8.154c0 .416-.195.709-.431.651l-8.223-1.835c-.232-.055-.64-.886-.642-1.292l-.034-7.418s0 .005.003.008v-.222c0-.411.19-.704.421-.654l8.475 1.759c.236.053.431.432.431.849Z"/><path fill="#E7E2EF" d="M187.29 264.769c0 .493-.234.835-.524.767-.288-.069-.519-.519-.519-1.01 0-.49.231-.833.519-.767.288.066.524.517.524 1.01Z"/><path fill="url(#t)" d="m30.392 183.404-1 .061c-2.18.137-4.611-1.25-4.611-4.313v-6.899c0-2.869 2.275-4.487 4.455-4.587l.65-.024c-1.952.345-3.457 2.175-3.457 4.289v7.529c0 2.312 1.77 4.068 3.963 3.944Z"/><g style="mix-blend-mode:multiply"><path fill="#FDFDFD" d="m79.323 175.986 6.61-.2c1.877-.082 3.557 1.537 3.557 3.627.062-.002.113 2.151.113 2.223v2.773c0 .069-.051 2.312-.113 2.315 0 .311-.059.614-.123.907-.362 1.676-1.836 2.987-3.436 3.079l-6.608.271v-14.995Z" opacity=".03"/><path fill="#FBFBFB" d="m79.322 175.852 6.587-.2c1.816-.079 3.606 1.479 3.606 3.501.126-.005.226 2.133.226 2.273v2.915c0 .14-.1 2.368-.226 2.376 0 .3-.085.595-.144.878-.349 1.621-1.92 2.892-3.467 2.984l-6.582.271v-14.998Z" opacity=".06"/><path fill="#F9F9F9" d="m79.322 175.718 6.564-.201c1.752-.076 3.655 1.421 3.655 3.375.187-.008.339 2.114.339 2.325v3.058c0 .208-.152 2.423-.34 2.434 0 .29-.107.577-.166.848-.337 1.566-2.003 2.8-3.495 2.887l-6.557.269v-14.998.003Z" opacity=".1"/><path fill="#F7F7F7" d="m79.323 175.58 6.54-.201c1.69-.073 3.704 1.363 3.704 3.248.25-.01.452 2.096.452 2.376v3.2c0 .28-.203 2.481-.452 2.494 0 .28-.133.559-.19.82-.326 1.511-2.085 2.707-3.526 2.792l-6.528.269v-15.001.003Z" opacity=".13"/><path fill="#F5F5F5" d="m79.322 175.444 6.515-.203c1.629-.071 3.755 1.308 3.755 3.121.313-.013.565 2.078.565 2.426v3.345c0 .348-.252 2.536-.565 2.555 0 .269-.16.538-.213.791-.313 1.452-2.17 2.615-3.554 2.697l-6.503.268v-15Z" opacity=".16"/><path fill="#F3F3F3" d="m79.322 175.306 6.492-.203c1.564-.068 3.804 1.25 3.804 2.993.375-.016.678 2.059.678 2.478v3.488c0 .419-.303 2.591-.678 2.615 0 .258-.183.519-.237.762-.3 1.397-2.252 2.523-3.585 2.599l-6.477.269v-15.003l.003.002Z" opacity=".19"/><path fill="#F1F1F1" d="m79.323 175.171 6.469-.203c1.502-.066 3.852 1.192 3.852 2.866.44-.019.791 2.04.791 2.528v3.63c0 .488-.354 2.65-.79 2.674 0 .247-.209.5-.26.732-.29 1.342-2.335 2.428-3.614 2.505l-6.448.269v-15.003.002Z" opacity=".23"/><path fill="#EFEFEF" d="m79.322 175.035 6.446-.203c1.438-.063 3.904 1.134 3.904 2.74.5-.021.904 2.022.904 2.581v3.772c0 .559-.403 2.705-.904 2.734 0 .237-.234.482-.28.704-.278 1.286-2.417 2.336-3.644 2.407l-6.424.269v-15.006l-.002.002Z" opacity=".26"/><path fill="#EDEDED" d="m79.322 174.901 6.423-.203c1.376-.061 3.952 1.078 3.952 2.613.563-.024 1.017 2.003 1.017 2.631v3.915c0 .627-.454 2.76-1.017 2.794 0 .227-.256.461-.303.678-.264 1.231-2.501 2.243-3.672 2.312l-6.397.269v-15.009h-.003Z" opacity=".29"/><path fill="#EBEBEB" d="m79.322 174.766 6.397-.203c1.315-.058 4.001 1.02 4.001 2.486.627-.026 1.13 1.985 1.13 2.681v4.057c0 .699-.506 2.819-1.13 2.856 0 .216-.282.442-.326.648-.252 1.173-2.583 2.151-3.703 2.217l-6.372.269v-15.008l.003-.003Z" opacity=".32"/><path fill="#E9E9E9" d="m79.322 174.627 6.374-.206c1.25-.055 4.05.963 4.05 2.357.689-.029 1.243 1.967 1.243 2.734v4.202c0 .767-.555 2.874-1.243 2.913 0 .206-.308.425-.35.62-.24 1.118-2.665 2.056-3.73 2.12l-6.344.268v-15.011.003Z" opacity=".35"/><path fill="#E7E7E7" d="m79.322 174.485 6.351-.206c1.19-.052 4.101.905 4.101 2.231.75-.035 1.359 1.948 1.359 2.784v4.344c0 .839-.606 2.929-1.359 2.974 0 .198-.33.406-.372.591-.228 1.062-2.748 1.964-3.762 2.024l-6.318.269v-15.011Z" opacity=".39"/><path fill="#E5E5E5" d="m79.322 174.351 6.328-.206c1.127-.05 4.15.849 4.15 2.104.814-.037 1.472 1.93 1.472 2.836v4.487c0 .907-.658 2.987-1.472 3.035 0 .187-.357.385-.395.561-.216 1.007-2.833 1.872-3.791 1.928l-6.292.268v-15.013Z" opacity=".42"/><path fill="#E3E3E3" d="m79.322 174.215 6.305-.205c1.063-.048 4.199.791 4.199 1.977.875-.04 1.584 1.911 1.584 2.887v4.629c0 .975-.706 3.042-1.584 3.092 0 .177-.383.367-.419.533-.205.952-2.915 1.779-3.821 1.832l-6.267.269v-15.014h.003Z" opacity=".45"/><path fill="#E1E1E1" d="m79.322 174.08 6.28-.206c1-.045 4.25.733 4.25 1.851.94-.042 1.697 1.89 1.697 2.937v4.771c0 1.047-.758 3.098-1.698 3.153 0 .166-.405.348-.439.504-.192.894-2.997 1.687-3.85 1.737l-6.237.269V174.08h-.003Z" opacity=".48"/><path fill="#DFDFDF" d="m79.322 173.946 6.256-.208c.94-.042 4.3.677 4.3 1.721 1-.044 1.81 1.872 1.81 2.99v4.914c0 1.115-.81 3.156-1.81 3.214 0 .155-.432.329-.463.474-.18.839-3.082 1.592-3.88 1.64l-6.213.269v-15.017.003Z" opacity=".52"/><path fill="#DDD" d="m79.322 173.806 6.233-.208c.876-.039 4.348.62 4.348 1.595 1.063-.047 1.923 1.853 1.923 3.04v5.056c0 1.187-.857 3.211-1.923 3.274 0 .145-.457.309-.486.446-.169.783-3.163 1.5-3.908 1.545l-6.187.269v-15.019.002Z" opacity=".55"/><path fill="#DBDBDB" d="m79.322 173.672 6.21-.208c.814-.037 4.4.561 4.4 1.468 1.126-.05 2.036 1.835 2.036 3.093v5.201c0 1.255-.91 3.266-2.037 3.332 0 .135-.48.29-.508.417-.157.727-3.247 1.408-3.94 1.447l-6.161.269v-15.019Z" opacity=".58"/><path fill="#D9D9D9" d="m79.322 173.534 6.187-.208c.75-.035 4.448.503 4.448 1.341 1.189-.052 2.15 1.817 2.15 3.143v5.344c0 1.326-.961 3.321-2.15 3.393 0 .123-.506.271-.532.387-.144.67-3.328 1.316-3.968 1.353l-6.132.268v-15.021h-.003Z" opacity=".61"/><path fill="#D7D7D7" d="m79.322 173.399 6.16-.208c.69-.029 4.498.448 4.498 1.215 1.25-.055 2.262 1.798 2.262 3.193v5.486c0 1.395-1.009 3.38-2.262 3.454 0 .113-.532.253-.555.358-.133.614-3.413 1.221-3.999 1.255l-6.107.269v-15.022h.003Z" opacity=".65"/><path fill="#D5D5D5" d="m79.322 173.268 6.138-.211c.627-.027 4.546.39 4.546 1.086 1.314-.058 2.375 1.779 2.375 3.245v5.629c0 1.465-1.06 3.435-2.375 3.511 0 .103-.555.235-.576.33-.12.559-3.495 1.128-4.027 1.16l-6.081.269v-15.025.006Z" opacity=".68"/><path fill="#D3D3D3" d="m79.322 173.13 6.115-.211c.562-.023 4.597.333 4.597.96 1.376-.061 2.488 1.761 2.488 3.295v5.771c0 1.535-1.112 3.491-2.488 3.572 0 .093-.58.214-.599.304-.107.503-3.577 1.036-4.057 1.065l-6.053.269V173.13h-.003Z" opacity=".71"/><path fill="#D1D1D1" d="m79.322 172.99 6.092-.211c.5-.021 4.645.275 4.645.833 1.441-.063 2.602 1.743 2.602 3.346v5.913c0 1.606-1.16 3.549-2.602 3.633 0 .082-.606.195-.621.274-.098.448-3.66.944-4.086.968l-6.028.269v-15.027l-.002.002Z" opacity=".74"/><path fill="#CFCFCF" d="m79.322 172.854 6.069-.211c.439-.019 4.694.218 4.694.706 1.503-.066 2.715 1.724 2.715 3.398v6.059c0 1.674-1.212 3.603-2.715 3.693 0 .071-.629.177-.644.245-.085.39-3.745.852-4.117.873l-6.002.269v-15.032Z" opacity=".77"/><path fill="#CDCDCD" d="m79.322 172.721 6.043-.211c.375-.016 4.746.161 4.746.58 1.564-.069 2.827 1.705 2.827 3.448v6.201c0 1.745-1.263 3.659-2.827 3.751 0 .063-.655.158-.668.216-.072.335-3.827.757-4.148.775l-5.976.269v-15.029h.003Z" opacity=".81"/><path fill="#CBCBCB" d="m79.322 172.581 6.02-.214c.313-.013 4.795.103 4.795.451 1.628-.071 2.94 1.687 2.94 3.501v6.343c0 1.814-1.312 3.717-2.94 3.812 0 .053-.681.137-.691.187-.06.28-3.909.665-4.176.68l-5.948.269v-15.029Z" opacity=".84"/><path fill="#C9C9C9" d="m79.322 172.444 5.996-.214c.25-.01 4.844.045 4.844.324 1.69-.073 3.054 1.669 3.054 3.552v6.485c0 1.882-1.364 3.772-3.054 3.873 0 .042-.704.118-.714.158-.049.224-3.993.572-4.206.585l-5.923.269v-15.032h.003Z" opacity=".87"/><path fill="#C7C7C7" d="m79.322 172.31 5.974-.214c.187-.008 4.892-.01 4.892.198 1.751-.077 3.166 1.65 3.166 3.601v6.628c0 1.953-1.415 3.828-3.166 3.93 0 .032-.73.101-.735.13-.035.168-4.075.479-4.234.487l-5.897.269v-15.032.003Z" opacity=".9"/><path fill="#C5C5C5" d="m79.323 172.173 5.95-.214c.126-.005 4.944-.068 4.944.072 1.816-.079 3.28 1.632 3.28 3.654v6.77c0 2.022-1.464 3.886-3.28 3.991 0 .021-.755.082-.758.1-.023.111-4.158.385-4.266.393l-5.87.269v-15.035Z" opacity=".94"/><path fill="#C3C3C3" d="m79.323 172.035 5.924-.213c.062-.003 4.993-.127 4.993-.056 1.877-.081 3.393 1.611 3.393 3.704v6.913c0 2.093-1.516 3.941-3.393 4.052 0 .01-.778.06-.78.071-.014.055-4.24.293-4.295.295l-5.842.269v-15.037.002Z" opacity=".97"/><path fill="#C1C1C1" d="M93.77 175.258v7.057c0 2.162-1.566 3.997-3.505 4.113l-.804.042-10.141.469v-15.037l10.945-.398c1.942-.085 3.506 1.592 3.506 3.757v-.003Z"/></g><path fill="#1D1125" d="m97.18 179.586-66.79 3.826c-2.184.124-3.958-1.64-3.958-3.942v-7.537c0-2.301 1.774-4.247 3.957-4.342l66.791-2.926c1.934-.084 3.498 1.595 3.498 3.754v7.063c0 2.156-1.564 3.996-3.498 4.107v-.003Z"/><path fill="#fff" d="M35.694 175.136a1.71 1.71 0 0 0-.544-.274 5.466 5.466 0 0 0-.732-.174 4.33 4.33 0 0 1-.593-.164.954.954 0 0 1-.406-.258.632.632 0 0 1-.146-.432c0-.153.04-.288.125-.404a.89.89 0 0 1 .365-.284 1.53 1.53 0 0 1 1.007-.077c.151.04.292.092.426.156.134.066.239.139.319.224a.241.241 0 0 0 .177.052.336.336 0 0 0 .249-.134.407.407 0 0 0 .108-.266c0-.127-.06-.24-.178-.346a1.632 1.632 0 0 0-.66-.379 2.382 2.382 0 0 0-.875-.111 2.22 2.22 0 0 0-.922.232 1.653 1.653 0 0 0-.648.567c-.159.237-.238.517-.238.836 0 .237.038.44.113.616.074.174.182.322.32.443a1.6 1.6 0 0 0 .504.293c.195.074.416.129.665.163.267.045.496.103.686.174.19.072.336.166.436.285a.676.676 0 0 1 .152.459c0 .15-.049.287-.149.408-.1.119-.231.219-.398.296a1.439 1.439 0 0 1-.547.129 1.726 1.726 0 0 1-.724-.103 1.92 1.92 0 0 1-.59-.385.34.34 0 0 0-.484.056.413.413 0 0 0-.064.453c.028.058.07.108.123.148.255.226.52.387.797.477.277.089.595.126.952.105.337-.018.642-.1.917-.245a1.82 1.82 0 0 0 .663-.583c.167-.242.251-.522.251-.835 0-.272-.038-.499-.118-.678a1.124 1.124 0 0 0-.341-.44h.002ZM39.853 173.918a1.751 1.751 0 0 0-.578-.395 1.596 1.596 0 0 0-.683-.119 1.772 1.772 0 0 0-.896.306c-.283.19-.514.451-.689.788-.174.335-.261.733-.261 1.192 0 .406.082.764.246 1.073.164.306.398.543.701.706.303.164.655.235 1.058.214.257-.013.501-.079.735-.195.233-.116.416-.245.547-.388.108-.1.161-.205.161-.321a.316.316 0 0 0-.087-.227.278.278 0 0 0-.22-.087.461.461 0 0 0-.221.082c-.06.055-.129.113-.206.176-.08.061-.177.114-.295.161a1.518 1.518 0 0 1-.442.082 1.153 1.153 0 0 1-.642-.142 1.154 1.154 0 0 1-.457-.475 1.446 1.446 0 0 1-.147-.525l2.55-.129a.399.399 0 0 0 .376-.377 2.152 2.152 0 0 0-.154-.785 1.895 1.895 0 0 0-.399-.612l.003-.003Zm-2.05.567c.103-.113.224-.2.363-.258a1.32 1.32 0 0 1 .429-.095.997.997 0 0 1 .855.393c.102.131.162.29.177.472v.055l-2.103.105c.012-.071.01-.163.03-.224.065-.184.147-.332.252-.448h-.002ZM44.352 173.157a.342.342 0 0 0-.261.129.427.427 0 0 0-.103.285v.184c-.06-.074-.108-.147-.19-.213a1.514 1.514 0 0 0-1.048-.338 1.61 1.61 0 0 0-.891.317 2.034 2.034 0 0 0-.635.783 2.57 2.57 0 0 0-.233 1.123c0 .419.077.775.233 1.088.157.314.37.557.637.728.27.169.573.245.91.229.19-.01.37-.052.534-.134.164-.079.308-.174.431-.287.105-.098.182-.198.25-.298v.179a.38.38 0 0 0 .102.277c.07.071.154.105.262.1a.362.362 0 0 0 .26-.127.42.42 0 0 0 .105-.287v-3.361a.392.392 0 0 0-.106-.28.326.326 0 0 0-.26-.1l.003.003Zm-.888 3.377a1.071 1.071 0 0 1-.604.219.957.957 0 0 1-.603-.156 1.165 1.165 0 0 1-.406-.49 1.68 1.68 0 0 1-.146-.715c0-.266.048-.514.146-.733.098-.218.234-.395.41-.527.178-.132.376-.205.602-.216a.974.974 0 0 1 .603.156c.172.116.309.276.406.487.098.208.147.446.147.717 0 .272-.05.509-.147.728a1.346 1.346 0 0 1-.406.53h-.002ZM47.658 172.962a1.29 1.29 0 0 0-.432.1 1.382 1.382 0 0 0-.375.235c-.11.097-.208.211-.287.34-.047.076-.072.161-.106.245v-.372a.392.392 0 0 0-.105-.279.323.323 0 0 0-.26-.1.35.35 0 0 0-.261.126.439.439 0 0 0-.103.29v3.296c0 .113.033.205.103.276a.323.323 0 0 0 .262.101.366.366 0 0 0 .259-.127.42.42 0 0 0 .105-.287v-1.864c0-.187.026-.356.077-.509.052-.153.121-.287.208-.403a.993.993 0 0 1 .29-.267.657.657 0 0 1 .314-.1.486.486 0 0 1 .239.04.417.417 0 0 0 .21.039.342.342 0 0 0 .226-.108c.067-.068.1-.171.1-.311a.317.317 0 0 0-.138-.266.486.486 0 0 0-.326-.092v-.003ZM51.307 175.969c-.092.006-.162.032-.208.085-.049.052-.11.103-.187.153a.93.93 0 0 1-.234.1 1.426 1.426 0 0 1-.357.053 1.032 1.032 0 0 1-.632-.153 1.175 1.175 0 0 1-.426-.483 1.575 1.575 0 0 1-.157-.714c0-.272.052-.512.157-.728.105-.219.249-.393.434-.527.185-.132.406-.206.662-.219a1.3 1.3 0 0 1 .278.016.733.733 0 0 1 .234.066c.059.034.105.066.143.1.039.034.08.063.126.087a.332.332 0 0 0 .178.029.259.259 0 0 0 .213-.124.454.454 0 0 0-.098-.604 1.127 1.127 0 0 0-.472-.224c-.2-.05-.43-.068-.691-.055-.37.018-.699.126-.984.327-.285.2-.506.464-.668.788a2.48 2.48 0 0 0-.239 1.102c0 .409.078.762.229 1.073.152.314.367.556.645.728.277.171.603.245.98.226.255-.013.491-.058.702-.137.21-.076.38-.174.508-.284.129-.114.19-.225.19-.341a.398.398 0 0 0-.082-.255c-.056-.066-.136-.098-.241-.093l-.003.008ZM55.385 173.446a1.164 1.164 0 0 0-.383-.596c-.183-.142-.437-.206-.768-.19a1.242 1.242 0 0 0-.46.111 1.659 1.659 0 0 0-.686.593c-.017.029-.023.055-.038.084v-1.919a.383.383 0 0 0-.105-.277.319.319 0 0 0-.255-.1.35.35 0 0 0-.259.127.423.423 0 0 0-.1.287v4.933c0 .113.033.205.1.276a.317.317 0 0 0 .26.101.355.355 0 0 0 .254-.127.414.414 0 0 0 .105-.287v-2.049c0-.182.039-.348.118-.501a.984.984 0 0 1 .835-.527c.2-.01.357.026.47.108.113.082.19.195.236.343.046.148.07.308.07.49v2.046c0 .113.033.206.1.274a.311.311 0 0 0 .256.1.35.35 0 0 0 .255-.126.413.413 0 0 0 .102-.285v-2.043a2.97 2.97 0 0 0-.11-.841l.003-.005ZM95.534 175.297l-1.595-1.692a3.427 3.427 0 0 0 .58-2.349c-.156-1.352-1.155-2.415-2.378-2.528-.863-.079-1.705.279-2.314.986a3.42 3.42 0 0 0-.793 2.612c.154 1.361 1.158 2.426 2.388 2.534.12.01.242.013.362.005a2.714 2.714 0 0 0 1.726-.764l1.595 1.692a.266.266 0 0 0 .213.087.308.308 0 0 0 .213-.111.365.365 0 0 0 0-.477l.003.005Zm-4.035-1.109c-.958-.085-1.741-.915-1.86-1.972a2.673 2.673 0 0 1 .617-2.043c.411-.475.956-.749 1.53-.776.093-.005.186 0 .278.006.953.087 1.731.915 1.855 1.969a2.673 2.673 0 0 1-.607 2.035s-.002 0-.005.003c0 0 0 .005-.002.005-.476.549-1.133.831-1.806.77v.003Z"/><path fill="#000" d="m79.321 143.686 124.909 54.872.011-106.251-124.92-3.862v55.241Z" opacity=".25"/><path fill="url(#u)" d="m106.939 89.297 40.621 29.448-25.87.11-42.367-30.412 27.616.854Z"/><path fill="url(#v)" d="M135.481 138.299s-13.475-5.584-13.616-12.821l-.175-6.622 25.872-.113.378 6.395c.303 7.042-12.456 13.158-12.456 13.158l-.003.003Z"/><path fill="url(#w)" d="m133.124 90.11 38.99 28.53-24.554.108L106.936 89.3l26.188.81Z"/><path fill="url(#x)" d="M161.151 137.626s-12.913-5.441-13.213-12.483l-.378-6.395 24.554-.106.558 6.182c.447 6.857-11.521 12.805-11.521 12.805v-.003Z"/><path fill="url(#y)" d="m157.985 90.877 37.46 27.66-23.335.1-38.99-28.53 24.865.77Z"/><path fill="url(#z)" d="M185.499 136.985s-12.387-5.307-12.833-12.164l-.558-6.182 23.335-.101.719 5.977c.578 6.683-10.663 12.47-10.663 12.47Z"/><path fill="url(#A)" d="m181.63 91.608 36.019 26.832-22.202.098-37.46-27.66 23.643.73Z"/><path fill="url(#B)" d="M208.64 136.375s-11.896-5.177-12.474-11.86l-.719-5.977 22.205-.097.865 5.781c.696 6.517-9.875 12.151-9.875 12.151l-.002.002Z"/><path fill="#2B1C22" d="M161.141 137.621c-.46.258-.735.39-.735.39s-10.634-4.482-12.825-10.561a6.3 6.3 0 0 0 .352-2.307c.287 6.886 12.633 12.23 13.208 12.481v-.003ZM185.479 136.964c-.444.259-.714.404-.714.404s-10.118-4.332-12.404-10.234a6.046 6.046 0 0 0 .308-2.315c.437 6.646 12.086 11.837 12.81 12.145ZM208.594 136.353c-.441.258-.696.401-.696.401s-9.625-4.187-11.978-9.897a6.483 6.483 0 0 0 .252-2.336c.557 6.451 11.631 11.492 12.425 11.832h-.003ZM230.603 135.766c-.44.272-.694.414-.694.414s-9.212-4.07-11.603-9.617c.216-.751.29-1.532.208-2.33.665 6.274 11.328 11.196 12.089 11.533ZM121.869 125.483l-.179-6.625-42.368-30.415v55.244l.784-.417.012-53.324 40.817 29.292.179 6.619c.134 7.248 13.619 12.818 13.619 12.818s.275-.129.74-.377c-.578-.253-13.468-5.747-13.601-12.818l-.003.003Z"/><path fill="url(#C)" d="m204.241 92.31 34.56 26.043-21.154.09-36.019-26.832 22.613.698Z"/><path fill="url(#D)" d="M230.647 135.797s-11.439-5.053-12.135-11.573l-.865-5.781 21.154-.093.999 5.597c.801 6.359-9.15 11.85-9.15 11.85h-.003Z"/><path fill="#1D1125" d="m80.12 89.946-.013 53.324 32.817-29.424-32.804-23.9Z"/><path fill="url(#E)" d="M169.428 56.215c-5.534-7.308-14.335-12.386-24.403-13.005-10.226-.63-19.436 3.477-25.36 10.395l-39.543-2.117-.013 36.186 124.575 3.88V58.06l-35.256-1.843v-.002Z"/><path fill="url(#F)" fill-opacity=".5" d="M169.428 56.215c-5.534-7.308-14.335-12.386-24.403-13.005-10.226-.63-19.436 3.477-25.36 10.395l-39.543-2.117-.013 36.186 124.575 3.88V58.06l-35.256-1.843v-.002Z"/><path fill="url(#G)" fill-opacity=".2" d="M169.428 56.215c-5.534-7.308-14.335-12.386-24.403-13.005-10.226-.63-19.436 3.477-25.36 10.395l-39.543-2.117-.013 36.186 124.575 3.88V58.06l-35.256-1.843v-.002Z"/><path fill="#2B1C22" d="m204.685 91.546-.444.765-124.92-3.865.014-36.557.783-.409-.013 36.191 124.58 3.875Z"/><path fill="url(#H)" d="m79.322 88.444 124.924 3.862 15.355 11.669-122.032-2.238-18.247-13.293Z" style="mix-blend-mode:multiply"/><path fill="#68336D" d="M121.888 17.795h52.631v21.482h-52.631z"/><defs><linearGradient id="r" x1="190.75" x2="190.75" y1="260.436" y2="275.953" gradientUnits="userSpaceOnUse"><stop offset=".14" stop-color="#FFB1B6"/><stop offset=".26" stop-color="#FBA4AC"/><stop offset=".51" stop-color="#F5909D"/><stop offset=".76" stop-color="#F28494"/><stop offset="1" stop-color="#F18091"/></linearGradient><linearGradient id="H" x1="149.605" x2="149.27" y1="89.111" y2="104.789" gradientUnits="userSpaceOnUse"><stop stop-color="#999"/><stop offset=".11" stop-color="#B1B1B1"/><stop offset=".32" stop-color="#DBDBDB"/><stop offset=".49" stop-color="#F5F5F5"/><stop offset=".59" stop-color="#fff"/></linearGradient><linearGradient id="c" x1="31.316" x2="34.518" y1="272.079" y2="272.079" gradientUnits="userSpaceOnUse"><stop stop-color="#0C0D0C"/><stop offset=".11" stop-color="#494848"/><stop offset=".38" stop-color="#1A1A1A"/><stop offset=".49" stop-color="#2E2E2E"/><stop offset=".69" stop-color="#4E4E4E"/><stop offset=".79" stop-color="#5B5B5B"/><stop offset="1" stop-color="#202120"/></linearGradient><linearGradient id="d" x1="24.251" x2="41.517" y1="211.804" y2="211.804" gradientUnits="userSpaceOnUse"><stop stop-color="#D7DBDC"/><stop offset=".16" stop-color="#EBECEC"/><stop offset=".39" stop-color="#D9D9D9"/><stop offset=".61" stop-color="#F2F2F2"/><stop offset=".76" stop-color="#fff"/><stop offset="1" stop-color="#DDE1E2"/></linearGradient><linearGradient id="e" x1="24.184" x2="41.584" y1="200.731" y2="200.731" gradientUnits="userSpaceOnUse"><stop stop-color="#0C0D0C"/><stop offset="1" stop-color="#494848"/></linearGradient><linearGradient id="E" x1="142.397" x2="142.397" y1="43.147" y2="91.554" gradientUnits="userSpaceOnUse"><stop/><stop offset=".607" stop-color="#381F2A"/></linearGradient><linearGradient id="g" x1="225.737" x2="225.737" y1="237.863" y2="332.406" gradientUnits="userSpaceOnUse"><stop stop-color="#663945"/><stop offset=".24" stop-color="#6C3E48"/><stop offset=".59" stop-color="#7F4D50"/><stop offset="1" stop-color="#9E665F"/></linearGradient><linearGradient id="h" x1="63.931" x2="79.807" y1="170.574" y2="170.574" gradientUnits="userSpaceOnUse"><stop stop-color="#663945"/><stop offset=".24" stop-color="#6C3E48"/><stop offset=".59" stop-color="#7F4D50"/><stop offset="1" stop-color="#9E665F"/></linearGradient><linearGradient id="i" x1="141.773" x2="141.773" y1="-26.979" y2="327.938" gradientUnits="userSpaceOnUse"><stop stop-color="#FFFAF7"/><stop offset="1" stop-color="#FFB1B6"/></linearGradient><linearGradient id="j" x1="142.288" x2="142.288" y1="4.319" y2="371.941" gradientUnits="userSpaceOnUse"><stop stop-color="#693470"/><stop offset=".5" stop-color="#5E2354"/><stop offset="1" stop-color="#3F2142"/></linearGradient><linearGradient id="k" x1="55.126" x2="55.099" y1="124.166" y2="127.746" gradientUnits="userSpaceOnUse"><stop stop-color="#0C0D0C"/><stop offset=".11" stop-color="#494848"/><stop offset=".38" stop-color="#1A1A1A"/><stop offset=".49" stop-color="#2E2E2E"/><stop offset=".69" stop-color="#4E4E4E"/><stop offset=".79" stop-color="#5B5B5B"/><stop offset="1" stop-color="#202120"/></linearGradient><linearGradient id="l" x1="55.162" x2="55.059" y1="71.594" y2="75.29" gradientUnits="userSpaceOnUse"><stop stop-color="#0C0D0C"/><stop offset=".11" stop-color="#494848"/><stop offset=".38" stop-color="#1A1A1A"/><stop offset=".49" stop-color="#2E2E2E"/><stop offset=".69" stop-color="#4E4E4E"/><stop offset=".79" stop-color="#5B5B5B"/><stop offset="1" stop-color="#202120"/></linearGradient><linearGradient id="m" x1="36.967" x2="57.374" y1="100.124" y2="100.124" gradientUnits="userSpaceOnUse"><stop stop-color="#663945"/><stop offset=".24" stop-color="#6C3E48"/><stop offset=".59" stop-color="#7F4D50"/><stop offset="1" stop-color="#9E665F"/></linearGradient><linearGradient id="n" x1="231.534" x2="239.518" y1="179.392" y2="179.392" gradientUnits="userSpaceOnUse"><stop stop-color="#663945"/><stop offset=".24" stop-color="#6C3E48"/><stop offset=".59" stop-color="#7F4D50"/><stop offset="1" stop-color="#9E665F"/></linearGradient><linearGradient id="o" x1="229.906" x2="233.792" y1="87.455" y2="87.455" gradientUnits="userSpaceOnUse"><stop stop-color="#663945"/><stop offset=".24" stop-color="#6C3E48"/><stop offset=".59" stop-color="#7F4D50"/><stop offset="1" stop-color="#9E665F"/></linearGradient><linearGradient id="p" x1="103.229" x2="132.499" y1="198.032" y2="198.032" gradientUnits="userSpaceOnUse"><stop stop-color="#663945"/><stop offset=".24" stop-color="#6C3E48"/><stop offset=".59" stop-color="#7F4D50"/><stop offset="1" stop-color="#9E665F"/></linearGradient><linearGradient id="q" x1="129.61" x2="168.241" y1="248.099" y2="280.619" gradientUnits="userSpaceOnUse"><stop stop-color="#663945"/><stop offset=".24" stop-color="#6C3E48"/><stop offset=".59" stop-color="#7F4D50"/><stop offset="1" stop-color="#9E665F"/></linearGradient><linearGradient id="b" x1="20.285" x2="46.889" y1="338.804" y2="338.804" gradientUnits="userSpaceOnUse"><stop stop-color="#0C0D0C"/><stop offset="1" stop-color="#494848"/></linearGradient><linearGradient id="s" x1="189.971" x2="189.971" y1="276.137" y2="261.334" gradientUnits="userSpaceOnUse"><stop stop-color="#794350"/><stop offset=".2" stop-color="#7C4552"/><stop offset=".38" stop-color="#874B59"/><stop offset=".55" stop-color="#995764"/><stop offset=".71" stop-color="#B26774"/><stop offset=".87" stop-color="#D37B89"/><stop offset="1" stop-color="#F38F9E"/></linearGradient><linearGradient id="t" x1="24.78" x2="30.392" y1="175.559" y2="175.559" gradientUnits="userSpaceOnUse"><stop stop-color="#663945"/><stop offset=".24" stop-color="#6C3E48"/><stop offset=".59" stop-color="#7F4D50"/><stop offset="1" stop-color="#9E665F"/></linearGradient><linearGradient id="u" x1="103.831" x2="124.495" y1="87.323" y2="120.519" gradientUnits="userSpaceOnUse"><stop stop-color="#693470"/><stop offset=".5" stop-color="#5E2354"/><stop offset="1" stop-color="#3F2142"/></linearGradient><linearGradient id="v" x1="134.816" x2="134.816" y1="114.754" y2="137.31" gradientUnits="userSpaceOnUse"><stop stop-color="#693470"/><stop offset=".5" stop-color="#5E2354"/><stop offset="1" stop-color="#3F2142"/></linearGradient><linearGradient id="w" x1="171.491" x2="113.239" y1="89.38" y2="127.615" gradientUnits="userSpaceOnUse"><stop offset="0" stop-color="#C166FF" stop-opacity=".49"/><stop offset="1" stop-color="#A317E6"/></linearGradient><linearGradient id="x" x1="172.444" x2="144.603" y1="118.693" y2="129.619" gradientUnits="userSpaceOnUse"><stop offset="0" stop-color="#C166FF" stop-opacity=".49"/><stop offset="1" stop-color="#A317E6"/></linearGradient><linearGradient id="y" x1="154.685" x2="175.671" y1="89.374" y2="120.391" gradientUnits="userSpaceOnUse"><stop stop-color="#693470"/><stop offset=".5" stop-color="#5E2354"/><stop offset="1" stop-color="#3F2142"/></linearGradient><linearGradient id="z" x1="184.145" x2="184.145" y1="114.755" y2="137.311" gradientUnits="userSpaceOnUse"><stop stop-color="#693470"/><stop offset=".5" stop-color="#5E2354"/><stop offset="1" stop-color="#3F2142"/></linearGradient><linearGradient id="A" x1="217.078" x2="162.936" y1="90.953" y2="125.585" gradientUnits="userSpaceOnUse"><stop offset="0" stop-color="#C166FF" stop-opacity=".49"/><stop offset="1" stop-color="#A317E6"/></linearGradient><linearGradient id="B" x1="218.329" x2="192.548" y1="118.489" y2="128.338" gradientUnits="userSpaceOnUse"><stop offset="0" stop-color="#C166FF" stop-opacity=".49"/><stop offset="1" stop-color="#A317E6"/></linearGradient><linearGradient id="C" x1="200.736" x2="220.512" y1="89.702" y2="119.956" gradientUnits="userSpaceOnUse"><stop stop-color="#693470"/><stop offset=".5" stop-color="#5E2354"/><stop offset="1" stop-color="#3F2142"/></linearGradient><linearGradient id="D" x1="228.744" x2="228.744" y1="114.757" y2="137.313" gradientUnits="userSpaceOnUse"><stop stop-color="#693470"/><stop offset=".5" stop-color="#5E2354"/><stop offset="1" stop-color="#3F2142"/></linearGradient><radialGradient id="f" cx="0" cy="0" r="1" gradientTransform="rotate(87.735 -88.003 115.115) scale(88.5692 88.7637)" gradientUnits="userSpaceOnUse"><stop stop-color="#FCDEA2" stop-opacity=".27"/><stop offset=".02" stop-color="#D1D2D2"/><stop offset=".11" stop-color="#F5C86E" stop-opacity=".12"/><stop offset=".22" stop-color="#FCDEA2" stop-opacity=".06"/><stop offset=".32" stop-color="#CA8F18" stop-opacity="0"/><stop offset=".43" stop-color="#C1840A"/><stop offset=".55" stop-color="#FDF1DA" stop-opacity=".05"/><stop offset=".68" stop-color="#F9C867" stop-opacity=".26"/><stop offset=".82" stop-color="#D58E02" stop-opacity=".17"/><stop offset="1" stop-color="#FECD6A" stop-opacity=".24"/></radialGradient><radialGradient id="F" cx="0" cy="0" r="1" gradientTransform="matrix(0 5.17164 -90.4252 0 142.397 45.102)" gradientUnits="userSpaceOnUse"><stop offset=".3" stop-color="#692E98"/><stop offset="1" stop-color="#692E98" stop-opacity="0"/></radialGradient><radialGradient id="G" cx="0" cy="0" r="1" gradientTransform="rotate(6.751 -572.895 1217.522) scale(51.5188 9.56976)" gradientUnits="userSpaceOnUse"><stop stop-color="#692E98"/><stop offset="1" stop-color="#692E98" stop-opacity="0"/></radialGradient><radialGradient id="a" cx="0" cy="0" r="1" gradientTransform="matrix(-30.4213 0 0 -6.90162 30.255 341.242)" gradientUnits="userSpaceOnUse"><stop/><stop offset=".07" stop-color="#1F1F1F"/><stop offset=".21" stop-color="#595959"/><stop offset=".36" stop-color="#8C8C8C"/><stop offset=".5" stop-color="#B5B5B5"/><stop offset=".64" stop-color="#D5D5D5"/><stop offset=".77" stop-color="#ECECEC"/><stop offset=".89" stop-color="#FAFAFA"/><stop offset="1" stop-color="#fff"/></radialGradient></defs></svg>