<svg width="268" height="279" viewBox="0 0 268 279" fill="none" xmlns="http://www.w3.org/2000/svg">
<g opacity="0.68">
<path opacity="0.68" d="M6.13095 195.026C3.36638 191.889 3.40478 182.786 5.59339 179.222C7.78201 175.658 12.3896 173.799 16.4213 174.884C14.5398 167.485 16.0757 159.622 18.3795 152.301C20.069 146.878 22.2576 141.455 26.0973 137.31C31.972 130.88 41.1872 128.285 49.8265 128.982C58.4658 129.679 66.6443 133.282 74.0933 137.775C79.0465 118.407 84.5756 97.9551 98.8976 84.0878C117.174 66.4244 147.585 64.3714 169.164 77.6964C190.743 91.0214 202.761 117.671 200.649 143.121C208.559 142.307 217.045 143.547 223.342 148.427C229.639 153.308 233.056 162.488 229.715 169.771C246.188 165.975 264.58 177.866 267.997 194.561" fill="#FFF2CC"/>
</g>
<g opacity="0.24">
<path opacity="0.24" d="M6.13097 190.177C3.36637 187.679 3.40477 180.522 5.59341 177.689C7.78205 174.893 12.3897 173.402 16.4214 174.26C14.54 168.407 16.0759 162.182 18.3797 156.441C20.0692 152.154 22.2578 147.905 26.0975 144.587C31.9723 139.518 41.1876 137.467 49.827 137.989C58.4664 138.511 66.645 141.381 74.094 144.923C79.0473 129.639 84.5765 113.498 98.8987 102.539C117.176 88.5972 147.586 86.9943 169.166 97.4691C190.745 107.944 202.763 129.043 200.651 149.098C208.561 148.464 217.047 149.433 223.344 153.273C229.641 157.112 233.059 164.381 229.718 170.122C246.19 167.102 264.583 176.534 268 189.692" fill="#FFF2CC"/>
</g>
<g opacity="0.61">
<path opacity="0.61" d="M22.8345 193.864C23.9098 187.941 32.0903 182.017 37.5823 183.416C39.157 176.67 47.7599 173.173 53.1367 177.081C54.9034 169.882 57.0541 162.067 62.8918 158.035C69.4976 153.428 78.715 155.691 84.86 161.038C90.9665 166.386 94.6535 174.202 98.1868 181.729C98.7629 179.837 101.259 179.344 102.872 180.331C104.485 181.318 105.407 183.21 106.214 185.02C115.085 180.331 121.384 170.499 122.306 159.928L138.782 156.184C140.356 163.465 142.162 171.158 147.193 176.341C152.224 181.483 161.633 182.429 165.551 176.258C166.434 174.901 167.049 173.173 168.431 172.474C171.158 171.075 173.808 174.531 175.152 177.451C177.572 172.35 185.253 171.528 188.594 175.97C191.36 165.81 201.499 158.652 211.331 159.886C221.124 161.12 229.42 170.664 229.881 181.236C236.371 178.562 247.24 186.172 249.16 193.33" fill="white"/>
</g>
<g opacity="0.79">
<path opacity="0.79" d="M123.435 163.375C122.82 164.68 122.475 166.096 122.36 167.55C122.36 167.774 122.321 167.997 122.398 168.184C122.59 168.668 123.243 168.817 123.742 168.668C124.241 168.519 124.625 168.109 124.971 167.736C125.239 172.62 127.659 177.391 131.46 180.597C131.652 180.746 131.882 180.932 132.113 180.895C132.305 180.858 132.497 180.746 132.65 180.597C136.259 177.13 138.218 172.098 137.795 167.177C138.679 167.736 139.946 166.805 140.022 165.761C140.099 164.717 139.446 163.785 138.871 162.928" fill="white"/>
</g>
<g filter="url(#filter0_d_322_16452)">
<path d="M143.403 154.875V147.047H119.942V154.875V154.838C116.871 156.776 115.373 160.168 115.373 163.971H147.934C147.972 160.131 146.475 156.813 143.403 154.875Z" fill="#7D1CAB"/>
<path d="M127.621 148.911C132.766 150.961 143.44 154.838 143.44 154.838V147.01H122.898C124.434 147.681 126.008 148.277 127.621 148.911Z" fill="#4A1975"/>
<path d="M153.042 117.785L161.912 127.85C164.062 130.31 165.061 133.516 164.638 136.722L162.219 154.913C162.066 156.18 160.799 157.075 159.493 156.851C158.341 156.665 157.496 155.659 157.573 154.503L158.034 146.302C158.303 141.27 154.732 136.759 149.663 135.753L153.042 117.785Z" fill="url(#paint0_linear_322_16452)"/>
<path d="M110.881 117.785L102.011 127.85C99.8609 130.31 98.8625 133.516 99.2849 136.722L101.704 154.913C101.858 156.18 103.125 157.075 104.43 156.851C105.582 156.665 106.427 155.659 106.35 154.503L105.889 146.302C105.62 141.27 109.191 136.759 114.26 135.753L110.881 117.785Z" fill="url(#paint1_linear_322_16452)"/>
<path d="M158.684 124.234L153.001 117.785L149.622 135.753C150.621 135.939 151.581 136.275 152.425 136.722C154.461 132.547 156.496 128.372 158.684 124.234Z" fill="#7D1CAB"/>
<path d="M106.119 129.304C108.039 131.727 110.036 134.112 111.994 136.498C112.723 136.163 113.453 135.939 114.259 135.753L110.88 117.785L103.738 125.912C104.622 127.142 105.39 128.409 106.119 129.304Z" fill="#7D1CAB"/>
<path d="M115.217 144.363C115.217 144.363 109.726 130.682 109.995 116.293C110.264 101.904 106.616 69.9954 117.022 49.2321C123.281 36.8562 127.197 31.7492 129.309 29.6617C130.269 28.7298 131.882 28.8416 132.688 29.8854C135.952 34.135 144.399 45.3553 146.511 50.2013C149.122 56.2775 155.112 67.9079 153.039 117.747C153.039 117.747 152.002 136.237 148.354 144.326H115.217V144.363Z" fill="white"/>
<path opacity="0.37" d="M115.563 65.6341C117.099 55.7184 119.557 45.4672 125.7 37.1918C125.969 36.8563 126.276 36.5953 126.583 36.4089C128.158 33.9487 129.732 31.5257 131.306 29.0654C130.615 28.9536 129.885 29.1399 129.309 29.6618C127.159 31.7493 123.281 36.819 117.061 49.1949C106.617 69.9582 110.303 101.83 110.034 116.256C109.765 130.682 115.256 144.326 115.256 144.326L148.623 144.177C116.101 143.841 113.49 115.548 113.067 99.8543C112.722 88.4476 113.835 76.929 115.563 65.6341Z" fill="#95A1E6"/>
<path d="M142.289 49.4933C143.71 49.717 145.092 49.9779 146.513 50.2389C144.439 45.3556 135.992 34.1725 132.69 29.9229C131.884 28.8419 130.271 28.7301 129.311 29.6993C127.161 31.7868 123.283 36.8564 117.062 49.2324C116.947 49.4933 116.793 49.7543 116.678 50.0525C125.01 48.0022 133.842 48.1886 142.289 49.4933Z" fill="url(#paint2_linear_322_16452)"/>
<path d="M125.932 40.0997C128.389 36.9312 130.693 33.6508 133.151 30.4822C132.997 30.2586 132.844 30.0722 132.69 29.8858C131.884 28.8048 130.271 28.6929 129.311 29.6621C127.161 31.7497 123.283 36.8193 117.062 49.1953C116.947 49.4562 116.793 49.7171 116.678 50.0154C117.869 49.7171 119.059 49.4935 120.249 49.3071C121.555 45.9522 123.705 42.97 125.932 40.0997Z" fill="#7D1CAB"/>
<path d="M147.203 148.538H116.639C115.256 148.538 114.143 147.457 114.143 146.115C114.143 144.773 115.256 143.692 116.639 143.692H147.203C148.585 143.692 149.699 144.773 149.699 146.115C149.66 147.457 148.585 148.538 147.203 148.538Z" fill="#7D1CAB"/>
<path d="M131.192 60.6016C123.935 60.6016 118.06 66.3049 118.06 73.3503C118.06 80.3956 123.935 86.099 131.192 86.099C138.449 86.099 144.324 80.3956 144.324 73.3503C144.363 66.3049 138.449 60.6016 131.192 60.6016ZM131.192 82.3713C126.047 82.3713 121.862 78.3081 121.862 73.313C121.862 68.3179 126.047 64.2547 131.192 64.2547C136.338 64.2547 140.523 68.3179 140.523 73.313C140.523 78.3454 136.338 82.3713 131.192 82.3713Z" fill="#7D1CAB"/>
<path opacity="0.37" d="M133.282 82.1837C138.303 81.0601 141.435 76.1975 140.278 71.3228C139.12 66.4481 134.112 63.4073 129.09 64.5309C124.069 65.6545 120.937 70.5171 122.094 75.3918C123.252 80.2665 128.261 83.3074 133.282 82.1837Z" fill="#95A1E6"/>
<g opacity="0.6">
<path opacity="0.6" d="M121.939 73.9844C122.285 78.6813 126.278 82.409 131.231 82.409C131.999 82.409 132.729 82.2971 133.458 82.148C129.58 79.4641 125.74 76.7429 121.939 73.9844Z" fill="#FCFAF5"/>
<path opacity="0.6" d="M138.334 79.1655C139.717 77.5999 140.523 75.5496 140.523 73.3503C140.523 68.3552 136.338 64.292 131.192 64.292C127.852 64.292 124.934 66.0067 123.283 68.5416C128.274 72.1947 133.266 75.736 138.334 79.1655Z" fill="#FCFAF5"/>
</g>
<path d="M132.111 62.4658C132.111 61.9812 131.727 61.6084 131.227 61.6084C130.728 61.6084 130.344 61.9812 130.344 62.4658C130.344 62.9504 130.728 63.3231 131.227 63.3231C131.688 63.3604 132.111 62.9504 132.111 62.4658Z" stroke="url(#paint3_linear_322_16452)" stroke-width="0.250189" stroke-miterlimit="10"/>
<path d="M132.111 84.1982C132.111 83.7136 131.727 83.3408 131.227 83.3408C130.728 83.3408 130.344 83.7136 130.344 84.1982C130.344 84.6828 130.728 85.0556 131.227 85.0556C131.688 85.0556 132.111 84.6828 132.111 84.1982Z" stroke="url(#paint4_linear_322_16452)" stroke-width="0.250189" stroke-miterlimit="10"/>
<path d="M139.751 66.2679C140.097 65.9324 140.097 65.3732 139.751 65.0378C139.406 64.7023 138.83 64.7023 138.484 65.0378C138.139 65.3732 138.139 65.9324 138.484 66.2679C138.83 66.6034 139.406 66.6034 139.751 66.2679Z" stroke="url(#paint5_linear_322_16452)" stroke-width="0.250189" stroke-miterlimit="10"/>
<path d="M123.28 81.8866C123.768 81.8866 124.163 81.5028 124.163 81.0292C124.163 80.5557 123.768 80.1719 123.28 80.1719C122.792 80.1719 122.397 80.5557 122.397 81.0292C122.397 81.5028 122.792 81.8866 123.28 81.8866Z" stroke="url(#paint6_linear_322_16452)" stroke-width="0.250189" stroke-miterlimit="10"/>
<path d="M142.4 74.2079C142.899 74.2079 143.283 73.8351 143.283 73.3505C143.283 72.8659 142.899 72.4932 142.4 72.4932C141.9 72.4932 141.516 72.8659 141.516 73.3505C141.516 73.8351 141.9 74.2079 142.4 74.2079Z" stroke="url(#paint7_linear_322_16452)" stroke-width="0.250189" stroke-miterlimit="10"/>
<path d="M120.014 74.2079C120.513 74.2079 120.897 73.8351 120.897 73.3505C120.897 72.8659 120.513 72.4932 120.014 72.4932C119.515 72.4932 119.131 72.8659 119.131 73.3505C119.131 73.8351 119.515 74.2079 120.014 74.2079Z" stroke="url(#paint8_linear_322_16452)" stroke-width="0.250189" stroke-miterlimit="10"/>
<path d="M138.484 81.6263C138.83 81.9618 139.406 81.9618 139.751 81.6263C140.097 81.2908 140.097 80.7316 139.751 80.3962C139.406 80.0607 138.83 80.0607 138.484 80.3962C138.139 80.7689 138.139 81.2908 138.484 81.6263Z" stroke="url(#paint9_linear_322_16452)" stroke-width="0.250189" stroke-miterlimit="10"/>
<path d="M123.28 66.5292C123.768 66.5292 124.163 66.1453 124.163 65.6718C124.163 65.1983 123.768 64.8145 123.28 64.8145C122.792 64.8145 122.397 65.1983 122.397 65.6718C122.397 66.1453 122.792 66.5292 123.28 66.5292Z" stroke="url(#paint10_linear_322_16452)" stroke-width="0.250189" stroke-miterlimit="10"/>
<path d="M109.881 91.6166C109.881 91.6166 131.921 84.3849 152.502 91.2812" stroke="url(#paint11_linear_322_16452)" stroke-width="0.500305" stroke-miterlimit="10" stroke-dasharray="4 4"/>
<path d="M112.57 60.5276C118.714 58.9619 134.534 55.8307 150.046 60.1921" stroke="url(#paint12_linear_322_16452)" stroke-width="0.500305" stroke-miterlimit="10" stroke-dasharray="4 4"/>
<path d="M109.881 96.7983C109.881 96.7983 131.921 89.5666 152.502 96.4628" stroke="url(#paint13_linear_322_16452)" stroke-width="0.500305" stroke-miterlimit="10" stroke-dasharray="4 4"/>
</g>
<g opacity="0.79">
<path opacity="0.79" d="M139.908 169.6C140.407 171.352 141.175 173.029 142.135 174.52C143.095 176.049 144.285 177.428 145.667 178.583C147.05 179.739 148.624 180.708 150.313 181.416C152.003 182.125 153.807 182.609 155.651 182.87C153.769 182.945 151.849 182.609 150.083 181.976C148.278 181.342 146.627 180.373 145.168 179.18C143.709 177.95 142.519 176.496 141.597 174.856C140.714 173.178 140.1 171.389 139.908 169.6Z" fill="white"/>
</g>
<g opacity="0.79">
<path opacity="0.79" d="M123.779 171.352C123.587 172.992 123.088 174.557 122.397 176.086C121.706 177.577 120.784 178.993 119.709 180.298C118.634 181.565 117.367 182.721 115.984 183.653C114.602 184.622 113.066 185.368 111.454 185.852C112.951 185.069 114.333 184.175 115.601 183.168C116.868 182.162 118.058 181.044 119.095 179.776C120.131 178.546 121.053 177.204 121.859 175.788C122.627 174.408 123.28 172.917 123.779 171.352Z" fill="white"/>
</g>
<g opacity="0.79">
<path opacity="0.79" d="M125.273 180C125.158 180.559 124.966 181.081 124.774 181.603C124.582 182.125 124.352 182.647 124.083 183.131C123.814 183.616 123.546 184.1 123.238 184.585C122.931 185.07 122.586 185.517 122.202 185.927C122.317 185.368 122.509 184.846 122.701 184.324C122.893 183.802 123.123 183.28 123.392 182.796C123.661 182.311 123.93 181.827 124.237 181.342C124.544 180.895 124.889 180.447 125.273 180Z" fill="white"/>
</g>
<g opacity="0.79">
<path opacity="0.79" d="M132.187 183.729C132.379 183.952 132.494 184.176 132.609 184.437C132.724 184.66 132.763 184.921 132.801 185.182C132.839 185.443 132.878 185.667 132.839 185.928C132.839 186.189 132.801 186.45 132.686 186.711C132.494 186.487 132.379 186.263 132.263 186.002C132.148 185.779 132.11 185.518 132.071 185.257C132.033 184.996 131.995 184.772 132.033 184.511C132.033 184.25 132.071 183.989 132.187 183.729Z" fill="white"/>
</g>
<g opacity="0.79">
<path opacity="0.79" d="M137.334 179.739L138.371 181.342C138.716 181.864 139.062 182.349 139.446 182.871C139.83 183.355 140.214 183.84 140.598 184.324L141.865 185.741C141.251 185.48 140.675 185.144 140.176 184.734C139.676 184.324 139.216 183.84 138.793 183.318C138.409 182.796 138.064 182.237 137.795 181.64C137.565 181.044 137.373 180.41 137.334 179.739Z" fill="white"/>
</g>
<g filter="url(#filter1_d_322_16452)">
<path d="M64.5268 168.163H95.7438V165.964H64.5268V168.163Z" fill="#18004C"/>
<path d="M82.8132 191.817L95.2923 168.258H64.6129L52.0954 191.817" stroke="#18004C" stroke-width="0.488436" stroke-miterlimit="10"/>
<path d="M90.608 176.683H60.0822" stroke="#18004C" stroke-width="0.488436" stroke-miterlimit="10"/>
<path d="M85.2314 186.785H54.7056" stroke="#18004C" stroke-width="0.488436" stroke-miterlimit="10"/>
<path d="M83.1973 192.376L85.0404 188.909L83.3125 188.946L81.5079 192.413L83.1973 192.376Z" fill="#4F6AFF"/>
<path d="M52.8654 192.376L54.7084 188.909L52.9806 188.946L51.1759 192.413L52.8654 192.376Z" fill="#4F6AFF"/>
<path d="M101.897 190.214L95.2924 168.258" stroke="#18004C" stroke-width="0.488436" stroke-miterlimit="10"/>
<path d="M71.2951 190.214L64.6908 168.258" stroke="#18004C" stroke-width="0.488436" stroke-miterlimit="10"/>
<path d="M100.207 99.0723C100.207 99.0723 93.6029 108.876 91.7982 107.646C91.7982 107.646 88.9184 106.229 89.9551 100.452C89.9551 99.8924 89.9551 99.5196 89.9551 99.4078C89.9551 99.4078 89.4944 93.7044 88.5344 92.5488C88.4192 92.437 88.1121 92.176 88.1505 92.176C91.107 91.4678 92.259 97.5439 93.0653 100.862C93.1037 101.011 98.6713 96.7984 98.6713 96.7984C98.6713 96.7984 101.628 93.0334 101.82 93.2571C102.127 93.5553 100.975 95.27 100.975 95.27C100.975 95.27 101.052 95.4564 101.282 95.5682C101.513 95.6801 101.628 95.7919 101.705 96.0901C101.781 96.3883 102.089 96.5374 102.127 96.7238C102.165 96.8357 100.86 98.6249 100.207 99.0723Z" fill="#FEB38C"/>
<path d="M98.7849 96.7617C98.7849 96.7617 99.3608 95.1216 99.6296 95.1588C99.86 95.1961 100.973 95.6807 100.935 96.0908C100.897 96.5008 99.9752 96.1653 99.9752 96.1653C99.9752 96.1653 100.167 97.0972 99.668 97.2091C99.2072 97.3209 98.7849 96.7617 98.7849 96.7617Z" fill="#FEB38C"/>
<path d="M100.245 96.0898C100.245 96.0898 100.207 96.4999 100.553 96.5744C100.553 96.5744 100.629 97.0218 101.09 96.9099C101.09 96.9099 100.975 97.0963 101.244 97.1336C101.244 97.1336 100.053 98.3637 100.245 96.0898Z" fill="#F79A88"/>
<path d="M100.017 95.2705C100.247 95.3451 100.477 95.4196 100.708 95.5314C100.823 95.5687 100.938 95.606 101.053 95.7178C101.092 95.7551 101.169 95.8297 101.207 95.9042C101.245 95.9788 101.207 96.0906 101.13 96.1652C100.9 96.3515 100.593 96.3515 100.362 96.3515C100.286 96.3515 100.209 96.3515 100.209 96.3515C100.209 96.3143 100.209 96.4261 100.209 96.4634L100.247 96.8361L100.17 96.4634C100.17 96.3888 100.132 96.3515 100.17 96.277C100.247 96.2397 100.286 96.2397 100.362 96.2397C100.593 96.2397 100.861 96.2024 101.053 96.0533C101.092 96.016 101.13 95.9415 101.092 95.9042C101.092 95.8669 101.015 95.7924 100.977 95.7551C100.861 95.6806 100.746 95.6433 100.669 95.5687L100.017 95.2705Z" fill="#EC7A65"/>
<path d="M101.013 95.1582C101.013 95.1955 100.975 95.27 100.975 95.3073C100.936 95.3446 100.936 95.3819 100.898 95.4191C100.86 95.4564 100.821 95.4937 100.783 95.4937C100.744 95.531 100.706 95.531 100.629 95.531C100.744 95.4191 100.86 95.3073 101.013 95.1582Z" fill="#EC7A65"/>
<path d="M101.514 95.792C101.437 95.9038 101.398 96.0157 101.283 96.1275C101.206 96.2393 101.091 96.3139 100.976 96.3884C100.861 96.463 100.746 96.5375 100.631 96.5748C100.554 96.6121 100.477 96.6121 100.4 96.6121C100.323 96.6121 100.247 96.5375 100.208 96.5003C100.285 96.6121 100.439 96.5748 100.554 96.5375C100.669 96.463 100.784 96.3884 100.861 96.3139C101.13 96.1275 101.322 95.9784 101.514 95.792Z" fill="#EC7A65"/>
<path d="M100.551 96.5747C100.628 96.7239 100.666 96.8357 100.782 96.873C100.858 96.9102 101.012 96.873 101.089 96.7984C101.204 96.7239 101.319 96.612 101.396 96.5375C101.511 96.4256 101.626 96.3511 101.742 96.2393C101.665 96.3511 101.55 96.4629 101.434 96.5747C101.319 96.6866 101.242 96.7984 101.127 96.873C101.012 96.9475 100.858 97.0221 100.705 96.9475C100.59 96.873 100.551 96.7239 100.551 96.5747Z" fill="#EC7A65"/>
<path d="M101.052 96.835C101.091 96.9095 101.129 96.9841 101.168 97.0586C101.206 97.0959 101.206 97.1332 101.244 97.1332C101.244 97.1332 101.283 97.1332 101.321 97.1332C101.398 97.1332 101.475 97.1332 101.552 97.0959C101.667 97.0959 101.705 97.0959 101.82 97.0586C101.782 97.1332 101.667 97.1705 101.59 97.2077C101.513 97.245 101.398 97.2823 101.321 97.245C101.283 97.245 101.206 97.245 101.206 97.2077C101.168 97.1705 101.168 97.1332 101.129 97.0959C101.091 97.0214 101.052 96.9095 101.052 96.835Z" fill="#EC7A65"/>
<path d="M81.6611 96.2766C81.6611 96.2766 77.7445 95.8293 78.2053 95.6056C78.6661 95.3819 81.9682 94.1891 82.5826 93.8163C83.2353 93.4435 83.6577 93.5181 83.6577 93.5181L88.3038 83.0805C88.3806 82.4841 87.2287 80.993 86.6911 80.6948C85.1552 79.8374 83.3121 79.7256 81.5843 80.0611C75.9783 81.1794 67.1085 85.0562 64.1135 87.852C64.1135 87.852 77.5142 100.228 81.8914 99.6315" fill="#18004C"/>
<path d="M63.2714 86.9198C66.9191 85.1678 70.6821 83.6022 74.5218 82.2975C77.0176 81.4401 79.7438 80.3964 82.3932 80.3218C82.6236 80.3218 82.6236 79.9863 82.3932 79.9863C79.7054 80.0609 76.9408 81.1046 74.445 81.962C70.5669 83.304 66.8039 84.8696 63.1178 86.6216C62.8874 86.7335 63.0794 86.9944 63.2714 86.9198Z" fill="#18004C"/>
<path d="M82.4296 85.3919C82.4296 85.4664 82.3528 85.541 82.276 85.541C81.9304 85.541 81.1241 85.4664 81.0089 86.3611C80.8937 87.2557 81.7768 87.7776 82.3144 87.8149C82.468 87.8149 82.8136 87.8522 82.9288 87.964C83.2359 88.2995 83.3895 89.045 83.6583 89.9769C84.1959 92.0272 82.5448 92.9591 82.5448 92.9591C82.5448 92.9591 88.074 95.6058 87.9972 92.9591C87.9972 92.9591 87.5748 88.1131 87.5748 88.0758C87.9972 87.6658 89.6867 87.4794 88.6116 84.0126C87.6516 80.8068 85.2326 81.0305 84.6182 81.1423C84.0807 81.2169 82.276 81.3287 82.4296 85.3919Z" fill="#FEB38C"/>
<path d="M86.3071 80.8066C86.3071 80.8066 82.9281 85.1308 82.3522 85.5035C82.3522 85.5035 80.0483 80.2102 86.3071 80.8066Z" fill="#18004C"/>
<path d="M81.3923 86.6223C81.3923 86.6223 81.9299 85.504 82.6594 86.9951Z" fill="#EC7A65"/>
<path d="M87.5739 88.0381C87.5739 88.0381 85.9996 88.3363 85.1933 88.2617C84.387 88.1872 88.3803 92.6604 87.5739 88.0381Z" fill="#1E274D"/>
<path d="M85.7705 81.2169C85.8472 83.1553 83.9274 85.3174 81.8539 85.2056C81.6236 85.2056 81.6236 85.5038 81.8539 85.5411C84.081 85.6529 86.1928 83.3044 86.116 81.2169C86.0776 81.0306 85.7705 81.0306 85.7705 81.2169Z" fill="#18004C"/>
<path d="M83.6593 88.9338C83.6593 89.3066 83.3522 89.6421 82.9298 89.6421C82.5074 89.6421 82.2003 89.3439 82.2003 88.9338C82.2003 88.5238 82.5074 88.2256 82.9298 88.2256C83.3522 88.2256 83.6593 88.5238 83.6593 88.9338Z" fill="white"/>
<path d="M83.6593 90.3128C83.6593 90.6855 83.3522 91.021 82.9298 91.021C82.5074 91.021 82.2003 90.7228 82.2003 90.3128C82.2003 89.9027 82.5074 89.6045 82.9298 89.6045C83.3522 89.6045 83.6593 89.94 83.6593 90.3128Z" fill="white"/>
<path d="M83.9276 87.4054L82.9292 88.7847L82.0077 87.3682L83.9276 87.4054Z" fill="#7D1CAB"/>
<path d="M83.3856 158.603L83.9999 162.815C83.9999 162.815 84.9598 165.611 85.8814 164.53C86.8029 163.449 87.686 162.89 87.686 162.89L87.9932 158.528L83.3856 158.603Z" fill="#F5836B"/>
<path d="M85.7687 158.752L85.9223 164.455C85.9223 164.455 83.0425 164.865 84.1177 163.002L83.5033 159.05L85.7687 158.752Z" fill="#FEB38C"/>
<path d="M73.4809 158.715L72.137 162.89C72.137 162.89 71.1003 163.747 70.7547 163.747C70.0635 163.71 69.718 162.592 69.718 162.592L69.6028 158.715H73.4809Z" fill="#F5836B"/>
<path d="M71.5591 157.597L70.5992 164.53C70.5992 164.53 68.6793 165.015 69.7544 163.151L69.524 157.82L71.5591 157.597Z" fill="#FEB38C"/>
<path d="M87.9931 162.853L91.6025 165.686C91.7944 165.835 91.6409 166.059 91.3721 166.059L86.0349 166.096C85.9197 166.096 85.8045 166.059 85.7661 165.947L85.3821 165.127C85.2669 164.903 85.0365 164.866 85.0365 165.127L84.8445 165.91C84.8445 166.022 83.5774 165.984 83.5774 165.872C83.5006 165.201 83.6542 162.928 83.7694 162.294C83.7694 162.219 83.8846 162.145 83.9998 162.107C84.115 162.107 84.2302 162.107 84.307 162.182C84.6526 162.517 85.8045 163.524 86.4188 163.338C86.8412 163.188 87.3788 162.965 87.5323 162.816C87.6475 162.741 87.8779 162.741 87.9931 162.853Z" fill="#7D1CAB"/>
<path d="M69.679 162.443L67.6055 165.798C67.3752 166.133 67.4904 166.506 67.9127 166.73C68.5655 167.103 69.0646 167.848 69.487 167.848C70.2166 167.885 71.3685 167.103 72.0212 166.842C72.482 166.655 72.8276 166.394 72.7508 166.022L72.2516 162.667C72.2516 162.629 72.1748 162.592 72.1364 162.629L71.3301 163.338C71.0613 163.561 70.3701 163.524 70.2166 163.263C70.1014 163.077 69.7942 162.443 69.7942 162.443C69.7558 162.406 69.7174 162.406 69.679 162.443Z" fill="#7D1CAB"/>
<path d="M79.7784 106.49C78.2041 109.174 77.3978 111.112 76.5146 114.542C75.4779 118.493 65.8402 151.893 65.3795 159.087C66.6466 159.386 76.5914 159.348 77.3978 159.311C79.9704 152.154 83.4261 128.856 84.5397 124.345C84.6933 123.637 85.8068 123.786 85.73 124.494C85.1156 129.639 81.2375 151.371 79.5864 159.311C80.2776 159.647 90.4912 159.572 91.2592 159.46C92.1039 150.626 96.5964 117.114 89.8385 106.266C86.6899 105.856 82.927 106.415 79.7784 106.49Z" fill="#4A1975"/>
<path d="M89.1461 106.714C89.1461 106.714 92.141 114.057 92.141 123.414C92.141 132.77 88.7621 159.163 88.7621 159.163" stroke="white" stroke-width="0.225875" stroke-miterlimit="10"/>
<path d="M67.3754 159.013L81.3136 107.161" stroke="white" stroke-width="0.225875" stroke-miterlimit="10"/>
<path d="M83.2344 107.422C83.2344 107.422 83.1576 115.996 79.2027 115.287" stroke="white" stroke-width="0.225875" stroke-miterlimit="10"/>
<path d="M91.4509 115.698C87.496 116.369 88.0335 107.236 88.0335 107.236" stroke="white" stroke-width="0.225875" stroke-miterlimit="10"/>
<path opacity="0.21" d="M89.8371 106.787L77.0124 116.927C77.0124 116.927 76.9356 110.44 79.201 106.303L89.8371 106.787Z" fill="#1E274D"/>
<path d="M89.1083 92.5488C89.0315 92.7725 91.5658 98.8859 91.4506 100.973C91.3354 103.061 91.3738 106.08 91.489 106.379C91.489 106.379 88.302 108.205 79.0483 106.789C76.2069 104.366 78.7027 96.1647 79.6626 93.5926C79.6626 93.5926 81.4673 92.6979 82.2736 92.6607C82.2736 92.6234 85.6142 93.9654 89.1083 92.5488Z" fill="url(#paint14_linear_322_16452)"/>
<path d="M82.2363 92.6228L83.5418 90.9453C83.5418 90.9453 85.1161 92.0263 87.4583 92.8092L87.4199 95.754C87.4199 95.8286 87.3047 95.9031 87.2279 95.8286C86.4984 95.4558 83.2346 94.0393 82.2363 92.6228Z" fill="white"/>
<path d="M87.7638 90.8711C87.7638 90.8711 88.1478 92.2131 87.4182 92.7722L88.4549 95.6425C88.5317 95.8662 88.6853 95.8662 88.7237 95.7544C88.8773 95.0088 89.1845 93.4432 88.9925 92.474L87.7638 90.8711Z" fill="white"/>
<path d="M88.264 95.8659C88.264 96.0896 88.1873 96.2387 88.0337 96.2387C87.9185 96.2387 87.8033 96.0523 87.8033 95.8659C87.8033 95.6423 87.8801 95.4932 88.0337 95.4932C88.1873 95.4932 88.264 95.6423 88.264 95.8659Z" fill="white"/>
<path d="M88.3796 97.5437C88.3796 97.7673 88.3028 97.9164 88.1492 97.9164C87.9956 97.9164 87.9188 97.7301 87.9188 97.5437C87.9188 97.32 87.9956 97.1709 88.1492 97.1709C88.3028 97.1709 88.3796 97.32 88.3796 97.5437Z" fill="white"/>
<path d="M88.4566 99.3708C88.4566 99.5945 88.3798 99.7436 88.2262 99.7436C88.0726 99.7436 87.9958 99.5572 87.9958 99.3708C87.9958 99.1472 88.0726 98.998 88.2262 98.998C88.3798 98.998 88.4566 99.1472 88.4566 99.3708Z" fill="white"/>
<path d="M88.2262 101.756C88.3535 101.756 88.4566 101.589 88.4566 101.384C88.4566 101.178 88.3535 101.011 88.2262 101.011C88.099 101.011 87.9958 101.178 87.9958 101.384C87.9958 101.589 88.099 101.756 88.2262 101.756Z" fill="white"/>
<path d="M88.4566 103.396C88.4566 103.62 88.3798 103.769 88.2262 103.769C88.0726 103.769 87.9958 103.583 87.9958 103.396C87.9958 103.173 88.0726 103.023 88.2262 103.023C88.3798 103.023 88.4566 103.173 88.4566 103.396Z" fill="white"/>
<path d="M88.2262 105.782C88.3535 105.782 88.4566 105.615 88.4566 105.409C88.4566 105.203 88.3535 105.036 88.2262 105.036C88.099 105.036 87.9958 105.203 87.9958 105.409C87.9958 105.615 88.099 105.782 88.2262 105.782Z" fill="white"/>
<path d="M81.2 125.501L69.2584 118.083L74.2117 110.59L84.5021 117.001C85.3853 117.561 85.654 118.716 85.0781 119.574L81.2 125.501Z" fill="#EDDBFE"/>
<path d="M79.3555 117.971C79.3555 118.866 78.626 119.574 77.7044 119.574C76.7829 119.574 76.0533 118.866 76.0533 117.971C76.0533 117.076 76.7829 116.368 77.7044 116.368C78.5876 116.405 79.3555 117.114 79.3555 117.971Z" fill="white"/>
<path opacity="0.6" d="M76.9722 112.081C76.9722 112.081 75.0523 112.938 76.5498 118.232C76.6266 118.53 76.7034 118.828 76.6266 119.126L76.281 121.4C76.2426 121.661 76.2042 121.959 76.3962 122.109C76.665 122.295 78.2009 123.637 78.3545 123.711C78.7385 123.823 78.3161 122.034 78.3929 121.102C78.3929 120.916 78.4313 121.699 78.4697 122.034L78.5081 122.78C78.9688 122.593 78.9688 121.736 79.0072 121.438C79.084 121.065 79.0072 120.804 78.9688 120.729C78.7769 120.319 78.3545 119.462 78.3161 118.716C78.2777 118.269 78.5849 116.629 78.8536 113.609L76.9722 112.081Z" fill="#1E274D"/>
<path d="M76.706 99.1829C73.135 118.53 75.4388 122.183 75.7076 122.332C76.0148 122.518 77.6659 124.009 77.8579 124.084C78.2802 124.233 77.8195 122.257 77.8963 121.214C77.8963 121.027 77.9347 121.885 77.9731 122.257L78.0115 123.077C78.5106 122.854 78.5106 121.922 78.5874 121.624C78.7026 121.214 78.6258 120.915 78.549 120.841C78.3186 120.394 77.8963 119.462 77.8195 118.642C77.7811 118.157 81.16 102.463 81.736 100.152C82.5423 97.0209 81.544 93.405 80.3921 93.2932C79.0098 93.0695 77.0131 97.58 76.706 99.1829Z" fill="#FEB38C"/>
</g>
<defs>
<filter id="filter0_d_322_16452" x="48.8356" y="0.226158" width="180.639" height="250.066" filterUnits="userSpaceOnUse" color-interpolation-filters="sRGB">
<feFlood flood-opacity="0" result="BackgroundImageFix"/>
<feColorMatrix in="SourceAlpha" type="matrix" values="0 0 0 0 0 0 0 0 0 0 0 0 0 0 0 0 0 0 127 0" result="hardAlpha"/>
<feOffset dx="7.19346" dy="28.7738"/>
<feGaussianBlur stdDeviation="28.7738"/>
<feComposite in2="hardAlpha" operator="out"/>
<feColorMatrix type="matrix" values="0 0 0 0 0.448936 0 0 0 0 0.35 0 0 0 0 0.5 0 0 0 0.1 0"/>
<feBlend mode="normal" in2="BackgroundImageFix" result="effect1_dropShadow_322_16452"/>
<feBlend mode="normal" in="SourceGraphic" in2="effect1_dropShadow_322_16452" result="shape"/>
</filter>
<filter id="filter1_d_322_16452" x="0.82168" y="51.1119" width="166.05" height="227.623" filterUnits="userSpaceOnUse" color-interpolation-filters="sRGB">
<feFlood flood-opacity="0" result="BackgroundImageFix"/>
<feColorMatrix in="SourceAlpha" type="matrix" values="0 0 0 0 0 0 0 0 0 0 0 0 0 0 0 0 0 0 127 0" result="hardAlpha"/>
<feOffset dx="7.19346" dy="28.7738"/>
<feGaussianBlur stdDeviation="28.7738"/>
<feComposite in2="hardAlpha" operator="out"/>
<feColorMatrix type="matrix" values="0 0 0 0 0.448936 0 0 0 0 0.35 0 0 0 0 0.5 0 0 0 0.1 0"/>
<feBlend mode="normal" in2="BackgroundImageFix" result="effect1_dropShadow_322_16452"/>
<feBlend mode="normal" in="SourceGraphic" in2="effect1_dropShadow_322_16452" result="shape"/>
</filter>
<linearGradient id="paint0_linear_322_16452" x1="164.589" y1="117.891" x2="145.566" y2="120.065" gradientUnits="userSpaceOnUse">
<stop offset="3.0811e-07" stop-color="#C166FF"/>
<stop offset="1" stop-color="#A317E6"/>
</linearGradient>
<linearGradient id="paint1_linear_322_16452" x1="114.116" y1="117.891" x2="95.093" y2="120.065" gradientUnits="userSpaceOnUse">
<stop offset="3.0811e-07" stop-color="#C166FF"/>
<stop offset="1" stop-color="#A317E6"/>
</linearGradient>
<linearGradient id="paint2_linear_322_16452" x1="146.228" y1="29.0945" x2="113.734" y2="42.6541" gradientUnits="userSpaceOnUse">
<stop offset="3.0811e-07" stop-color="#C166FF"/>
<stop offset="1" stop-color="#A317E6"/>
</linearGradient>
<linearGradient id="paint3_linear_322_16452" x1="132.094" y1="61.613" x2="130.027" y2="62.2434" gradientUnits="userSpaceOnUse">
<stop offset="3.0811e-07" stop-color="#C166FF"/>
<stop offset="1" stop-color="#A317E6"/>
</linearGradient>
<linearGradient id="paint4_linear_322_16452" x1="132.094" y1="83.3455" x2="130.028" y2="83.9765" gradientUnits="userSpaceOnUse">
<stop offset="3.0811e-07" stop-color="#C166FF"/>
<stop offset="1" stop-color="#A317E6"/>
</linearGradient>
<linearGradient id="paint5_linear_322_16452" x1="139.993" y1="64.7908" x2="137.905" y2="65.4287" gradientUnits="userSpaceOnUse">
<stop offset="3.0811e-07" stop-color="#C166FF"/>
<stop offset="1" stop-color="#A317E6"/>
</linearGradient>
<linearGradient id="paint6_linear_322_16452" x1="124.146" y1="80.1765" x2="122.08" y2="80.8076" gradientUnits="userSpaceOnUse">
<stop offset="3.0811e-07" stop-color="#C166FF"/>
<stop offset="1" stop-color="#A317E6"/>
</linearGradient>
<linearGradient id="paint7_linear_322_16452" x1="143.266" y1="72.4978" x2="141.2" y2="73.1289" gradientUnits="userSpaceOnUse">
<stop offset="3.0811e-07" stop-color="#C166FF"/>
<stop offset="1" stop-color="#A317E6"/>
</linearGradient>
<linearGradient id="paint8_linear_322_16452" x1="120.88" y1="72.4978" x2="118.814" y2="73.1289" gradientUnits="userSpaceOnUse">
<stop offset="3.0811e-07" stop-color="#C166FF"/>
<stop offset="1" stop-color="#A317E6"/>
</linearGradient>
<linearGradient id="paint9_linear_322_16452" x1="139.993" y1="80.1492" x2="137.905" y2="80.7871" gradientUnits="userSpaceOnUse">
<stop offset="3.0811e-07" stop-color="#C166FF"/>
<stop offset="1" stop-color="#A317E6"/>
</linearGradient>
<linearGradient id="paint10_linear_322_16452" x1="124.146" y1="64.8191" x2="122.08" y2="65.4502" gradientUnits="userSpaceOnUse">
<stop offset="3.0811e-07" stop-color="#C166FF"/>
<stop offset="1" stop-color="#A317E6"/>
</linearGradient>
<linearGradient id="paint11_linear_322_16452" x1="152.094" y1="88.3098" x2="148.585" y2="101.688" gradientUnits="userSpaceOnUse">
<stop offset="3.0811e-07" stop-color="#C166FF"/>
<stop offset="1" stop-color="#A317E6"/>
</linearGradient>
<linearGradient id="paint12_linear_322_16452" x1="149.688" y1="57.9757" x2="147.275" y2="68.4543" gradientUnits="userSpaceOnUse">
<stop offset="3.0811e-07" stop-color="#C166FF"/>
<stop offset="1" stop-color="#A317E6"/>
</linearGradient>
<linearGradient id="paint13_linear_322_16452" x1="152.094" y1="93.4914" x2="148.585" y2="106.869" gradientUnits="userSpaceOnUse">
<stop offset="3.0811e-07" stop-color="#C166FF"/>
<stop offset="1" stop-color="#A317E6"/>
</linearGradient>
<linearGradient id="paint14_linear_322_16452" x1="91.3574" y1="92.5888" x2="75.0098" y2="97.1021" gradientUnits="userSpaceOnUse">
<stop offset="3.0811e-07" stop-color="#C166FF"/>
<stop offset="1" stop-color="#A317E6"/>
</linearGradient>
</defs>
</svg>
