<svg width="241" height="189" fill="none" xmlns="http://www.w3.org/2000/svg"><path d="M104.161 15.879H39.107c.248-.336.5-.667.758-.993 1.092-1.383 2.077-2.86 3.078-4.328 1.96-2.876 4.116-5.69 7.1-7.228a7.715 7.715 0 0 1 3.623-.878c1.426 0 2.858.347 4.369.793 1.547.457 2.997.693 4.567.693.181 0 .364-.003.55-.01.093-.002.188-.008.283-.012.316-.22.635-.457.966-.731C66.208 1.678 67.92.208 70.236.018c.149-.013.293-.018.434-.018 2.475 0 3.739 1.834 5.754 3.278.468.335 1.262 1.193 1.92 1.193.11 0 .217-.024.317-.078.997-.54 1.924-1.212 2.956-1.67C83.89 1.713 86.307.393 88.8.375h.046c2.395 0 4.779 1.305 5.706 3.928.88 2.49.929 5.406 3.145 6.96 1.885 1.322 5.307 2.392 6.464 4.616ZM65.71 73.721H17.887c.26-.353.526-.7.797-1.044 1.15-1.456 2.186-3.01 3.24-4.555 2.064-3.028 4.332-5.99 7.474-7.608a8.117 8.117 0 0 1 3.813-.925c1.5 0 3.008.365 4.597.834 1.631.482 3.157.73 4.81.73.19 0 .382-.003.576-.01.099-.003.199-.008.298-.013.334-.231.67-.481 1.017-.77 1.902-1.585 3.706-3.132 6.142-3.332.156-.013.308-.02.456-.02 2.607 0 3.937 1.93 6.059 3.45.49.352 1.327 1.256 2.02 1.256a.694.694 0 0 0 .334-.082c1.049-.568 2.024-1.275 3.11-1.758 1.003-.445 2.031-.947 3.08-1.381V73.72ZM241 44.142h-49.013v-5.637H164.09l.672-.989c2.443-3.582 5.127-7.087 8.845-9a9.607 9.607 0 0 1 4.51-1.095c1.776 0 3.559.432 5.44.987 1.929.57 3.734.864 5.689.864a21.449 21.449 0 0 0 1.035-.029c.395-.273.792-.568 1.203-.91 2.251-1.875 4.385-3.706 7.267-3.943.186-.016.366-.023.541-.023 3.083 0 4.657 2.284 7.166 4.082.582.417 1.571 1.486 2.392 1.486.137 0 .269-.03.394-.097 1.24-.672 2.396-1.51 3.68-2.08 2.832-1.258 5.841-2.9 8.947-2.924h.057c2.98 0 5.951 1.625 7.105 4.892 1.096 3.1 1.157 6.732 3.917 8.668 2.346 1.646 6.61 2.979 8.05 5.748ZM219.577 83.211h-27.591V69.908c1.734.242 2.752 1.615 4.291 2.717.392.282 1.06 1.003 1.612 1.002a.55.55 0 0 0 .267-.065c.837-.453 1.616-1.019 2.482-1.403 1.911-.848 3.941-1.957 6.036-1.972h.038c2.011 0 4.014 1.095 4.793 3.3.74 2.091.78 4.54 2.642 5.847 1.583 1.11 4.459 2.01 5.43 3.877Z" fill="#D6E8F2"/><path d="M191.844 110.138h-45.68v-3.581h45.68v3.581Z" fill="#81ABC0"/><path d="M65.71 129.802h126.278V38.504H65.711v91.298Z" fill="#E2DAC8"/><path d="M65.855 129.802h126.132v-19.84H65.855v19.84Z" fill="#003452"/><path d="M65.71 110.47h41.964v-3.58H65.711v3.58Z" fill="#C1C3B8"/><path d="M65.71 109.034h41.964v-.705H65.711v.705Z" fill="#4C7B8F"/><path d="M191.988 110.47h-41.963v-3.58h41.963v3.58Z" fill="#C1C3B8"/><path d="M191.988 109.034h-41.963v-.705h41.963v.705Z" fill="#4C7B8F"/><path d="M69.243 101.493h34.251v-54.09h-34.25v54.09Z" fill="#C1C3B8"/><path d="M70.717 99.724h31.306V49.175H70.717v50.549Z" fill="#4C7B8F"/><path d="M71.559 98.947h29.618V49.952H71.559v48.995Z" fill="#81ABC0"/><path d="M72.73 97.731h27.28V51.166H72.73V97.73Z" fill="#E2DAC8"/><path d="M75.331 94.557h22.076V54.34H75.33v40.218Z" fill="#99C5DF"/><path d="M94.496 94.557H75.331V54.855c.143.098.289.191.437.28l20.2 36.802-1.472 2.62ZM97.407 83.576 81.624 56.138a8.236 8.236 0 0 0 3.714-1.798h2.756l9.313 16.519v12.717Z" fill="#B0D9EC"/><path d="m75.331 68.957 14.415 25.6h-4.704l-9.71-17.85v-7.75Z" fill="#99C5DF"/><path d="M153.002 101.493h34.25v-54.09h-34.25v54.09Z" fill="#C1C3B8"/><path d="M154.475 99.724h31.306V49.175h-31.306v50.549Z" fill="#4C7B8F"/><path d="M155.316 98.947h29.62V49.952h-29.62v48.995Z" fill="#81ABC0"/><path d="M156.488 97.731h27.281V51.166h-27.281V97.73Z" fill="#E2DAC8"/><path d="M159.087 94.557h22.077V54.34h-22.077v40.218Z" fill="#99C5DF"/><path d="M181.164 94.557h-22.077V55.511c.268.127.544.24.828.337l21.249 38.71ZM181.165 83.576l-15.936-27.702a8.272 8.272 0 0 0 2.722-1.534h3.899l9.315 16.519v12.717Z" fill="#B0D9EC"/><path d="m159.087 68.957 14.415 25.6h-4.706l-9.709-17.85v-7.75Z" fill="#99C5DF"/><path d="M107.163 129.856h42.769V53.828h-42.769v76.028Z" fill="#C1C3B8"/><path d="M109.183 129.799h38.731V55.764h-38.731v74.035Z" fill="#4C7B8F"/><path d="M110.122 128.631h36.85V57.004h-36.85v71.627Z" fill="#E2DAC8"/><path d="M112.277 99.218h32.811V58.352h-32.811v40.866Z" fill="#99C5DF"/><path d="M115.121 103.477a1.422 1.422 0 1 1-2.845 0 1.422 1.422 0 0 1 2.845 0Z" fill="#4361EE"/><path d="M128.807 99.232h-.196l-.025-.014h.22l.001.014Zm-16.52-40.88h-.01v-.014l.01.013Z" fill="#DCE6DE"/><path d="M128.806 99.218h-.22l-16.309-9.168V58.352h.01l19.761 24.628c-.842.046-1.599.138-2.223.284-2.058.48-2.534 2.292-2.656 3.32-.21 1.776.111 5.41.775 7.305.153.438.337 1.212.529 2.192 0 .295.021.547.067.746.111.473.201 1.31.266 2.391Z" fill="#B0D9EC"/><path d="M131.255 58.35h-11.151l-.01-.013h11.151l.01.013Z" fill="#DCE6DE"/><path d="M145.088 84.619a37.925 37.925 0 0 0-1.209-.359 23.314 23.314 0 0 0-1.323-.329h-.005a35.25 35.25 0 0 0-1.132-.23l-21.316-25.35h11.15l13.835 16.783v9.485Z" fill="#B0D9EC"/><path d="m112.277 73.201 21.424 26.03h-6.994l-14.43-18.149v-7.88Z" fill="#99C5DF"/><path d="M93.424 134.585h70.244v-5.936H93.424v5.936Z" fill="#C1C3B8"/><path d="M65.71 55.984v-15.43h126.278v14.88a8.283 8.283 0 0 1-4.595-7.002 8.18 8.18 0 0 1-.141 1.17v-2.198h-34.251v5.16a8.298 8.298 0 0 1-3.07 2.787v-1.524h-9.737a8.264 8.264 0 0 1-2.368-5.395 8.265 8.265 0 0 1-2.369 5.395h-11.785a8.26 8.26 0 0 1-2.368-5.4 8.268 8.268 0 0 1-2.37 5.4h-11.772v.015a8.273 8.273 0 0 1-2.382-5.405 8.247 8.247 0 0 1-1.286 4.03v-5.063h-34.25v6.54a8.265 8.265 0 0 1-3.533 2.04Z" fill="#97AAAB"/><path d="M102.022 54.2v-5.025H88.327a8.343 8.343 0 0 1-.07-.746 8.307 8.307 0 0 1-.071.746H71.804a8.57 8.57 0 0 1-.07-.746 8.286 8.286 0 0 1-.07.746h-.949v2.842a8.313 8.313 0 0 1-1.472 1.929v-6.54h34.251v5.063a8.318 8.318 0 0 1-1.472 1.73Z" fill="#869FA3"/><path d="M101.179 54.86V49.95H88.476a8.095 8.095 0 0 1-.147-.777h13.694v5.024a8.18 8.18 0 0 1-.844.661Zm-30.462-2.845v-2.841h.948a8.224 8.224 0 0 1-.948 2.841Zm17.323-2.064H71.953a8.254 8.254 0 0 1-.147-.777h16.382a8.126 8.126 0 0 1-.148.777Z" fill="#4C7B8F"/><path d="M100.009 55.526v-4.36H88.867a8.228 8.228 0 0 1-.392-1.214h12.702v4.908a8.15 8.15 0 0 1-1.168.666Zm-27.28-3.552a8.263 8.263 0 0 1-.777-2.022H88.04c-.1.417-.231.823-.392 1.214H72.728v.808Z" fill="#6693A7"/><path d="M97.407 56.25v-1.91h-6.23a8.294 8.294 0 0 1-2.31-3.174h11.144v4.36a8.198 8.198 0 0 1-2.604.724Zm-22.075-1.394a8.324 8.324 0 0 1-2.602-2.882v-.808h14.918a8.295 8.295 0 0 1-2.31 3.174H75.332v.516Z" fill="#97AAAB"/><path d="M96.52 56.299a8.232 8.232 0 0 1-5.343-1.958h6.23v1.91a8.299 8.299 0 0 1-.887.048Zm-16.524 0a8.225 8.225 0 0 1-4.228-1.162l-.437-.796v.516-.516h10.007-4.748l1.034 1.798c-.526.104-1.07.16-1.628.16Z" fill="#72A0B7"/><path d="M75.768 55.135a8.362 8.362 0 0 1-.437-.28v-.516l.437.796ZM81.623 56.137l-1.034-1.798h4.748a8.235 8.235 0 0 1-3.714 1.798Z" fill="#7EAABD"/><path d="M185.781 52.944v-3.77h-14.838a8.343 8.343 0 0 1-.07-.746 8.343 8.343 0 0 1-.071.746h-16.328v.342a8.43 8.43 0 0 1-.124-1.074 8.262 8.262 0 0 1-1.348 4.123v-5.16h34.25v2.197a8.25 8.25 0 0 1-1.471 3.342Z" fill="#869FA3"/><path d="M184.937 53.917V49.95H171.09a8.586 8.586 0 0 1-.147-.777h14.838v3.77c-.256.345-.538.67-.844.973Zm-29.62-1.991a8.252 8.252 0 0 1-.842-2.41v-.342h16.327a8.252 8.252 0 0 1-.147.777h-15.338v1.975Z" fill="#4C7B8F"/><path d="M183.767 54.877v-3.71h-12.286a8.434 8.434 0 0 1-.392-1.214h13.847v3.965c-.359.354-.75.676-1.169.96Zm-27.28-1.29a8.337 8.337 0 0 1-1.171-1.66v-1.974h15.338c-.1.417-.232.823-.392 1.214h-13.775v2.42Z" fill="#6693A7"/><path d="M181.167 56.046V54.34h-7.375a8.294 8.294 0 0 1-2.309-3.174h12.286v3.71a8.216 8.216 0 0 1-2.602 1.17Zm-22.077-.534a8.296 8.296 0 0 1-2.602-1.927v-2.42h13.775a8.298 8.298 0 0 1-2.311 3.175h-8.862v1.172Z" fill="#97AAAB"/><path d="M179.131 56.299a8.229 8.229 0 0 1-5.341-1.958h7.374v1.706a8.303 8.303 0 0 1-2.033.252Zm-16.523 0a8.258 8.258 0 0 1-2.693-.449l-.828-1.51v1.173-1.172h8.863-3.605l.883 1.534a8.262 8.262 0 0 1-2.62.424Z" fill="#72A0B7"/><path d="M159.915 55.85a8.014 8.014 0 0 1-.828-.337v-1.172l.828 1.509ZM165.231 55.873l-.882-1.534h3.604a8.252 8.252 0 0 1-2.722 1.534Z" fill="#7EAABD"/><path d="M147.914 56.096v-.33h-4.752a8.268 8.268 0 0 1-2.967-1.937h9.737v1.523a8.2 8.2 0 0 1-2.018.744Zm-15.423-.33h-5.851a8.268 8.268 0 0 1-2.967-1.937h11.785a8.277 8.277 0 0 1-2.967 1.937Zm-16.523 0h-5.851a8.274 8.274 0 0 1-2.954-1.923v-.014h11.772a8.277 8.277 0 0 1-2.967 1.937Z" fill="#869FA3"/><path d="M146.087 56.299a8.258 8.258 0 0 1-2.926-.533h4.752v.33a8.255 8.255 0 0 1-1.826.203Zm-16.523 0a8.257 8.257 0 0 1-2.925-.533h5.851a8.258 8.258 0 0 1-2.926.533Zm-16.522 0a8.258 8.258 0 0 1-2.926-.533h5.851a8.257 8.257 0 0 1-2.925.533Z" fill="#4C7B8F"/><path d="M55.068 38.085 69.762 11.69h117.531l16.522 26.396H55.068Z" fill="#fff"/><path d="m71.633 38.085 8.24-24.648H68.765L55.068 38.085h16.565Z" fill="url(#a)"/><path d="m88.118 38.085 5.386-24.648h13.225l-2.089 24.648H88.118Z" fill="url(#b)"/><path d="m121.162 38.085-.87-24.648h13.409l3.983 24.648h-16.522Z" fill="url(#c)"/><path d="m154.207 38.085-8.239-24.648h14.786l10.018 24.648h-16.565Z" fill="url(#d)"/><path d="m187.294 38.085-10.075-24.648h11.193l15.404 24.648h-16.522Z" fill="url(#e)"/><path d="M55.068 38.085v7.46a8.283 8.283 0 0 0 16.565 0v-7.46H55.068Z" fill="#4361EE"/><path d="M71.592 38.085v7.46a8.282 8.282 0 1 0 16.564 0v-7.46H71.592Z" fill="#fff"/><path d="M88.118 38.085v7.46a8.282 8.282 0 1 0 16.564 0v-7.46H88.118Z" fill="#4361EE"/><path d="M104.638 38.085v7.46a8.283 8.283 0 0 0 16.566 0v-7.46h-16.566Z" fill="#fff"/><path d="M121.161 38.085v7.46a8.282 8.282 0 1 0 16.564 0v-7.46h-16.564Z" fill="#4361EE"/><path d="M137.683 38.085v7.46a8.282 8.282 0 1 0 16.565 0v-7.46h-16.565Z" fill="#fff"/><path d="M154.206 38.085v7.46a8.283 8.283 0 0 0 16.565 0v-7.46h-16.565ZM187.251 38.085v7.46a8.283 8.283 0 0 0 16.565 0v-7.46h-16.565Z" fill="#4361EE"/><path d="M170.729 38.085v7.46a8.283 8.283 0 1 0 16.565 0v-7.46h-16.565Z" fill="#fff"/><path d="M191.25 13.435H66.62V10.89h124.63v2.545Z" fill="#003452"/><path d="M88.085 145.809c-1.397 1.157-2.972 2.901-4.28 4.728l2.014-8.227c1.706 1.686 8.305-1.298 11.433-3.89 3.184-2.64 4.054-6.913 2.939-8.186-.755-.861-5.406-1.269-8.59 1.369-1.469 1.22-3.167 3.178-4.414 5.116l2.041-8.342.1-.03c1.275.999 5.633-.99 7.722-2.721 2.172-1.801 2.767-4.714 2.005-5.584-.514-.586-3.687-.865-5.858.934-1.005.834-2.164 2.174-3.015 3.5l1.361-5.559.133.051c1.175.211 2.746-3.058 3.104-5.045.357-1.988-.664-3.856-1.481-3.981-.551-.082-2.416 1.229-2.774 3.216-.327 1.824-.07 5.01.882 5.685-.456 1.559-1.057 3.61-1.756 6.004-.496-1.624-1.4-3.439-2.268-4.6-1.688-2.26-4.567-3.003-5.474-2.287-.613.484-1.052 3.637.634 5.898 1.383 1.852 4.32 4.268 6.07 4.534l-3.136 10.741c-.272-2.746-2.112-6.844-3.848-9.167-2.473-3.314-6.695-4.399-8.025-3.352-.898.708-1.542 5.335.93 8.648 2.423 3.246 8.11 7.682 10.181 6.482-1.245 4.275-2.493 8.552-3.605 12.387-.382-3.111-2.42-7.606-4.342-10.181-2.806-3.758-7.598-4.993-9.106-3.802-1.02.804-1.75 6.052 1.057 9.812 2.71 3.634 9.026 8.582 11.452 7.41-1.823 6.304-3.1 10.772-3.07 10.826l2.346.151 2.474-10.106c2.406 1.231 9.233-1.927 12.575-4.697 3.612-2.995 4.599-7.845 3.333-9.291-.855-.976-6.133-1.438-9.744 1.556Z" fill="#4C7B8F"/><path d="M67.398 158.165S51.391 135.28 45.78 128.52c-5.614-6.762-18.7-16.022-18.7-16.022s10.603 4.631 17.271 10.486c6.668 5.854 12.948 15.217 17.295 22.103 4.346 6.883 7.508 11.078 8.174 11.663.668.585-2.421 1.415-2.421 1.415Z" fill="#81ABC0"/><path d="M65.376 153.024s-4.587-5.593-6.211-10.865c-1.225-3.978 1.118-12.77 5.802-13.104 5.302-.38 5.004 4.788 4.505 9.001-1.315 11.128-4.096 14.968-4.096 14.968Z" fill="#81ABC0"/><path d="M64.326 151.736s-4.548-5.624-9.382-8.283c-3.645-2.005-12.731-1.495-14.007 3.026-1.445 5.114 3.677 5.87 7.904 6.236 11.161.968 15.485-.979 15.485-.979ZM55.696 139.515s-4.585-5.594-6.21-10.865c-1.226-3.977 1.117-12.77 5.801-13.105 5.302-.378 5.004 4.79 4.507 9.005-1.317 11.127-4.098 14.965-4.098 14.965Z" fill="#81ABC0"/><path d="M54.648 138.228s-4.548-5.625-9.381-8.285c-3.647-2.004-12.732-1.495-14.009 3.028-1.445 5.113 3.677 5.871 7.904 6.236 11.163.967 15.486-.979 15.486-.979ZM36.877 119.007s-4.24-3.975-6.096-7.029c-1.6-2.637-2.254-7.349.787-8.146 2.407-.63 4.028.406 4.63 4.902.6 4.499.68 10.273.68 10.273Z" fill="#81ABC0"/><path d="M37.343 118.604s-5.27-2.446-8.799-3.022c-3.045-.5-7.66.661-7.259 3.78.318 2.469 1.886 3.583 6.28 2.455 4.395-1.125 9.778-3.213 9.778-3.213ZM45.02 125.177s-4.24-3.971-6.096-7.025c-1.602-2.638-2.254-7.352.788-8.148 2.407-.628 4.027.408 4.629 4.905.6 4.497.679 10.268.679 10.268Z" fill="#81ABC0"/><path d="M45.458 125.173s-5.144-2.699-8.64-3.448c-3.017-.647-7.684.287-7.433 3.421.196 2.48 1.706 3.67 6.15 2.759 4.447-.91 9.923-2.732 9.923-2.732Z" fill="#81ABC0"/><path d="M81.588 151.461c0 9.578-7.765 17.344-17.343 17.344-9.579 0-17.344-7.766-17.344-17.344 0-9.58 7.765-17.345 17.344-17.345 9.578 0 17.343 7.765 17.343 17.345Z" fill="url(#f)"/><path d="M64.243 137.085c-7.926 0-14.375 6.447-14.375 14.374 0 7.927 6.449 14.374 14.375 14.374 7.925 0 14.375-6.447 14.375-14.374 0-7.927-6.45-14.374-14.375-14.374Zm0 30.705c-9.006 0-16.325-7.329-16.325-16.331 0-9.001 7.32-16.327 16.325-16.327 9.003 0 16.327 7.326 16.327 16.327 0 9.002-7.324 16.331-16.327 16.331Z" fill="url(#g)"/><path d="M70.403 154.765c0 1.664-.578 2.932-1.736 3.807-1.157.868-2.888 1.305-5.19 1.305-1.184 0-2.19-.081-3.022-.241a11.314 11.314 0 0 1-2.338-.704v-3.659c.821.387 1.749.711 2.78.972 1.032.263 1.939.393 2.723.393 1.608 0 2.412-.465 2.412-1.394 0-.348-.108-.633-.32-.851-.213-.217-.582-.465-1.104-.74a26.749 26.749 0 0 0-2.093-.965c-1.247-.524-2.165-1.007-2.75-1.453-.586-.446-1.014-.958-1.279-1.533-.266-.576-.4-1.286-.4-2.129 0-1.443.56-2.557 1.678-3.347 1.119-.789 2.703-1.183 4.757-1.183 1.956 0 3.858.425 5.708 1.278l-1.337 3.196a24.514 24.514 0 0 0-2.279-.857 7.151 7.151 0 0 0-2.165-.335c-1.307 0-1.96.354-1.96 1.062 0 .395.21.739.632 1.029.42.291 1.343.722 2.767 1.294 1.267.513 2.198.994 2.788 1.436.59.448 1.026.96 1.307 1.542.281.58.421 1.273.421 2.077ZM107.318 164.596c0 9.579-7.765 17.344-17.343 17.344-9.58 0-17.343-7.765-17.343-17.344s7.764-17.345 17.343-17.345c9.578 0 17.343 7.766 17.343 17.345Z" fill="#FFA91F"/><path d="M89.973 150.221c-7.925 0-14.374 6.447-14.374 14.375 0 7.924 6.448 14.373 14.374 14.373 7.925 0 14.376-6.449 14.376-14.373 0-7.928-6.451-14.375-14.376-14.375Zm0 30.704c-9.005 0-16.325-7.328-16.325-16.329 0-9.002 7.32-16.329 16.325-16.329 9.002 0 16.328 7.327 16.328 16.329 0 9.001-7.326 16.329-16.328 16.329Z" fill="url(#h)"/><path d="M96.132 167.902c0 1.665-.578 2.933-1.736 3.807-1.158.869-2.889 1.306-5.191 1.306-1.184 0-2.19-.081-3.022-.241a11.364 11.364 0 0 1-2.337-.704v-3.66c.82.387 1.748.711 2.78.973 1.031.263 1.938.393 2.722.393 1.609 0 2.412-.466 2.412-1.395 0-.348-.107-.632-.32-.85-.213-.217-.58-.465-1.104-.74a26.941 26.941 0 0 0-2.092-.966c-1.248-.524-2.165-1.007-2.752-1.453-.585-.446-1.012-.957-1.278-1.533-.266-.575-.4-1.286-.4-2.127 0-1.444.56-2.559 1.678-3.348 1.12-.79 2.703-1.184 4.757-1.184 1.956 0 3.859.425 5.708 1.279l-1.336 3.195a24.77 24.77 0 0 0-2.28-.858 7.174 7.174 0 0 0-2.165-.333c-1.306 0-1.96.353-1.96 1.06 0 .396.21.74.633 1.03.42.291 1.342.723 2.766 1.294 1.268.513 2.198.994 2.788 1.437.59.447 1.026.958 1.307 1.541.281.582.422 1.272.422 2.077Z" fill="#FF7B00"/><path d="M154.962 185.869c0 1.649-7.407 2.986-16.545 2.986-9.136 0-16.543-1.337-16.543-2.986 0-1.65 7.407-2.987 16.543-2.987 9.138 0 16.545 1.337 16.545 2.987Z" fill="#E2DAC8"/><path d="M154.166 182.141s1.454 2.899 1.102 3.567c-.35.665-2.799 1.773-3.711 1.985-.913.213-1.566.353-1.666.025-.3-.953 2.584-2.26 1.555-1.735-.77.391 2.058-.919 1.8-2.3-.205-1.124-.036-1.245-.036-1.245l.956-.297ZM127.522 181.694s.533 3.2 0 3.731c-.533.534-3.2.868-4.133.804-.932-.069-1.598-.128-1.599-.47-.005-.999 3.137-1.399 1.998-1.2-.852.146 2.238-.269 2.401-1.664.133-1.134.335-1.201.335-1.201h.998Z" fill="#4361EE"/><path d="M151.266 158.72c.302-.414-.861-17.579-.911-24.2a285.37 285.37 0 0 0-.04-2.969h.003s-.117-12.832-2.131-14.976a1.69 1.69 0 0 0-.432-.311l-19.429.17c-.136 1.681-2.304 10.774-2.488 14.012-.042.74-.089 1.528-.142 2.371-.334 5.294-1.2 18.083-.832 23.957a31.94 31.94 0 0 0-.026 1.312c.002 3.531 0 25.463 0 25.463h3.107s2.504-9.333 2.977-16.798c.255-4.015.097-6.596-.104-8.131.172-.207.292-.426.332-.65.272-1.537 3.13-16.115 4.853-22.506.348-1.287.659-2.474.948-3.613l.968-.018c.183 1.011.408 2.077.697 3.226 1.175 4.652 3.858 15.22 5.961 21.256.042.691.233 1.688.63 3.115l6.82 24.537 2.993-.832s-.087-9.665-1.631-16.984c-.76-3.606-1.533-5.962-2.123-7.431Z" fill="#003452"/><path d="m122.188 98.376 7.859 2.657s1.328-7.084 1.439-9.296c.11-2.214-.413-8.321-1.037-8.2-.624.12-3.279.01-4.496 3.551-1.219 3.542-3.765 11.288-3.765 11.288Z" fill="#AA1B00"/><path d="M127.17 86.584c.122-1.029.598-2.84 2.656-3.32 3.32-.775 10.404-.035 14.054.996 1.735.49 3.764 1.107 5.312 2.545 1.551 1.44 1.661 7.305 0 11.841-1.659 4.538-2.323 6.862-2.212 8.743.111 1.882.443 3.875 1.328 6.861.884 2.99 2.324 3.21.553 4.538-1.77 1.328-10.735 2.768-15.493 1.44-3.248-.906-3.653-2.435-3.653-2.435s.332-6.087.222-9.96c-.111-3.874-1.328-12.05-1.992-13.945-.664-1.895-.985-5.528-.775-7.304Z" fill="#4361EE"/><path d="M120.342 138.144s6.422-15.64 7.603-20.657c1.18-5.018 1.192-18.116.596-20.66-.596-2.544 2.959-13.81 2.959-13.81l1.752-.074-1.766 8.795 8.915.962 2.151-8.77 1.328.33s-1.091 9.986-1.328 16.774c-.236 6.787 1.774 11.484 2.245 14.535.59 3.843-.135 10.032-1.411 15.492-1.277 5.461-3.209 12.543-3.209 12.543l-19.835-5.46Z" fill="url(#i)"/><path d="m142.551 110.845 4.691-1.07.402 2.005-5.093 1.689v-2.624Z" fill="#FFA91F"/><path d="M131.499 69.824c-.741 1-.849 2.233-1.005 5.715-.141 3.183 1.599 4.925 3.037 5.48 1.439.552 3.853-.017 5.219-2.12 1.367-2.102 2.093-5.091.592-8.743-.699-1.703-2.988-2.214-4.205-2.103-1.217.112-3.06.994-3.638 1.771Z" fill="#FF8D7E"/><path d="M134.23 85.443s1.046-3.886.731-5.546c-.315-1.66-.869-3.32-.869-3.32l6.085-3.756s.522 5.543.522 8.198c0 2.165.248 3.004-.056 4.424-.344 1.611-1.501 2.422-4.005 1.537-2.546-.901-2.408-1.537-2.408-1.537Z" fill="#FF8D7E"/><path d="M142.251 75.305c0 .923-.653 1.672-1.458 1.672-.804 0-1.458-.749-1.458-1.672 0-.924.654-1.672 1.458-1.672.805 0 1.458.748 1.458 1.672Z" fill="#FF8D7E"/><path d="M139.928 73.177c-.043-.18-.866-.96-.986-1.103.611 2.398.359 4.9-.76 6.381-1.366 1.81-3.39 2.183-4.934 1.945-1.06-.162-1.748-1.065-2.53-2.693l.045.635c.434 3.176.916 4.93 3.329 5.475 1.492.337 3.618-.59 4.985-2.399 1.367-1.809 1.718-4.678.851-8.241Z" fill="#003452"/><path d="M139.435 67.262c-.971-.84-2.41-.997-3.633-.85-1.123.136-1.984 2.45-2.262 2.833-.057.079-.029.21.07.24.352.107.683.163 1.049.213.862.121 1.612.714 2.288 1.227 1.143.867 2.194 1.682 2.875 2.983.081.157.259.16.373.041 1.994-2.1 1.288-4.918-.76-6.687Z" fill="#003452"/><path d="M139.149 68.29c-.127-.78-1.345-1.437-1.901-1.851-1.776-1.327-4.391-1.092-6.326-.241a4.439 4.439 0 0 0-1.945 1.63c-.565.873-.257 1.854-1.036 2.545-.163.064-.326.126-.476.193-.624.28-1.187.812-1.273 1.526-.213 1.793 1.559 2.524 3.056 2.765 2.174.349 3.075-1.87 4.719-2.779.915-.505 2.079-.21 3.067-.49.717-.203 1.133-.776 1.491-1.388.352-.604.741-1.192.624-1.91ZM132.72 75.54a.38.38 0 0 1-.758 0 .38.38 0 0 1 .758 0ZM136.603 75.16a.379.379 0 1 1-.758 0 .379.379 0 0 1 .758 0ZM135.367 74.061l-.061.145c-.019.066.001.116.048.152l.02.016.056.021.04.016.033-.001.027.005a.987.987 0 0 0 .185-.012c.177-.011.352-.032.527-.053.227.006.457.043.68.036.069-.002.126-.038.136-.112.13-1.03-1.253-.601-1.691-.213Z" fill="#003452"/><path d="M132.707 74.465a.468.468 0 0 0-.033-.359c-.037-.075-.101-.09-.16-.08l-.012-.003c-.191-.006-.38.07-.555.158a.773.773 0 0 0-.33.178c-.185.1-.408.243-.419.432a.211.211 0 0 0 .14.204l.135.033c.356-.077.664-.324 1.038-.283.151.016.253-.142.198-.275l-.002-.005ZM132.155 80.416c-.047-.075.214-1.305.805-1.471.592-.165 1.064-.299 1.514-.054.451.243 1.562 1.404 1.562 1.404s-.402 1.018-1.562 1.088c-1.159.072-1.656-.029-1.988-.251-.331-.222-.331-.716-.331-.716Z" fill="#003452"/><path d="M135.098 80.346c-.493-.14-.48.216-1.413.242-.271.007-.656-.07-.927-.074-.147-.002-.083.2.032.297.152.13.271.324 1.119.322.146 0 .402-.06.55-.112.427-.099.84-.618.639-.675Z" fill="#fff"/><path d="M133.843 74.087s-1.801 4.748-1.571 5.196c.476.926 1.516.515 2.113.302.597-.212.483-4.608.382-5.062-.1-.453-.782-.66-.782-.66l-.142.224Z" fill="#FFB8DE"/><path d="m147.6 145.143-61.96-34.834 15.052-26.774 61.962 34.833-15.054 26.775Z" fill="#81ABC0"/><path d="M154.807 124.342a3.738 3.738 0 0 1-1.427-5.088 3.721 3.721 0 0 1 2.231-1.76l-49.769-27.978a3.734 3.734 0 0 1-6.937 2.666l-6.802 12.099a3.737 3.737 0 0 1 3.553 5.555 3.714 3.714 0 0 1-2.235 1.761l49.777 27.982a3.698 3.698 0 0 1 .343-2.82 3.735 3.735 0 0 1 5.086-1.426c.379.213.705.486.973.796l6.394-11.368a3.675 3.675 0 0 1-1.187-.419Z" fill="#4C7B8F"/><path d="m94.22 115.063-1.041-.513-.003-.002.898-2.581.992.557-.847 2.539Zm59.011-1.654-.254-.085-.398-.132-11.354-3.783-1.106-.622 13.137 4.559-.025.063Zm-58.89-2.212 1.56-4.483c.366.991.311 2.13-.248 3.123a3.728 3.728 0 0 1-1.312 1.36Z" fill="#537E96"/><path d="m95.065 112.524-.992-.557.268-.77c.53-.322.986-.781 1.312-1.359a3.725 3.725 0 0 0 .247-3.124l4.12-11.843 40.098 13.916 1.107.622-40.615-13.531-5.545 16.646Z" fill="#315B6F"/><path d="m158.34 147.491-67.438-22.469 9.709-29.144 67.438 22.468-9.709 29.145Z" fill="#81ABC0"/><path d="M161.471 125.696a3.734 3.734 0 0 1-.507-6.876l-54.167-18.046a3.732 3.732 0 0 1-4.532 5.193 3.692 3.692 0 0 1-1.775-1.26l-4.388 13.168a3.738 3.738 0 0 1 4.541 4.783 3.716 3.716 0 0 1-1.86 2.151l54.173 18.051a3.744 3.744 0 0 1-.198-2.838 3.737 3.737 0 0 1 4.727-2.362c.412.137.783.343 1.109.596l4.119-12.372c-.411.006-.83-.05-1.242-.188Z" fill="#99C5DF"/><path d="M138.956 124.843c-1.744 5.234-7.405 8.066-12.639 6.322-5.238-1.744-8.069-7.405-6.326-12.639 1.746-5.24 7.405-8.07 12.641-6.325 5.238 1.744 8.068 7.405 6.324 12.642Z" fill="#81ABC0"/><path d="m152.976 113.323-.398-.132h.001l.397.132Z" fill="#4F7C92"/><path d="m153.872 116.457-2.281-.76c.32-.608.656-1.492.99-2.506l.398.132 2.674.891c-.653.899-1.267 1.677-1.781 2.243Z" fill="#6693A7"/><path d="M148.535 122.452c-.563 0-1.027-.142-1.228-.378-.503-.59.555-1.75 1.381-2.783l.436-.542a6.931 6.931 0 0 0-.337.016c-.355.028-.662.056-.904.056-.178 0-.32-.015-.421-.056-.238-.095-.285-.332-.285-.332s1.796-.719 2.727-1.043c.183-.063.36-.129.531-.193.21-.248.458-.535.762-.888a3.36 3.36 0 0 0 .392-.612l2.281.76a11.45 11.45 0 0 1-.306.324c-1.302 1.314-1.126 3.226-2.367 4.554-.745.798-1.816 1.117-2.662 1.117Z" fill="#72A0B7"/><path d="M146.238 92.285c.351 2.75 4.901 5.878 6.493 8.085a110.597 110.597 0 0 1 2.066 2.952s-2.237 10.464-3.757 12.235c-1.52 1.771-1.683 1.95-2.508 2.982-.827 1.034-1.884 2.194-1.381 2.784.502.591 2.648.588 3.889-.738 1.241-1.33 1.066-3.241 2.367-4.555 2.533-2.559 8.325-11.763 7.882-13.785-.442-2.023-9.396-13.237-10.895-13.68-1.499-.443-4.332 2.337-4.156 3.72Z" fill="#FF8D7E"/><path d="M145.545 86.077c-1.34 1.852-1.026 5.392.011 7.748 1.42 3.226 4.425 7.441 5.435 8.327 1.01.885 7.981-7.226 7.981-7.226s-3.54-3.288-5.533-5.28c-1.991-1.992-3.167-2.854-4.716-3.628-1.551-.775-2.637-.687-3.178.059Z" fill="#4361EE"/><path d="M147.024 117.683s1.796-.719 2.727-1.044c.932-.324 1.771-.708 1.771-.708l-1.042 1.752-.729.33s-.502-.046-1.117 0c-.615.048-1.088.096-1.326 0-.237-.094-.284-.33-.284-.33Z" fill="#FF8D7E"/><path d="M215.213 137.083s5.742-18.65 8.023-24.347c2.284-5.701 9.004-14.662 9.004-14.662s-6.059 5.352-9.24 10.674c-3.179 5.322-5.351 12.895-6.765 18.405-1.415 5.51-2.619 8.977-2.937 9.508-.316.533 1.915.422 1.915.422Z" fill="#4C7B8F"/><path d="M215.457 133.231s1.85-4.702 1.801-8.556c-.038-2.907-3.48-8.254-6.666-7.472-3.609.885-2.301 4.257-1.066 6.953 3.258 7.116 5.931 9.075 5.931 9.075Z" fill="#4C7B8F"/><path d="M215.879 132.149s1.819-4.716 4.464-7.521c1.994-2.115 8.146-3.723 9.964-.989 2.056 3.093-1.187 4.691-3.92 5.84-7.216 3.036-10.508 2.67-10.508 2.67ZM218.997 122.172s1.853-4.702 1.802-8.555c-.037-2.907-3.479-8.255-6.667-7.472-3.605.885-2.3 4.257-1.066 6.953 3.259 7.117 5.931 9.074 5.931 9.074Z" fill="#4C7B8F"/><path d="M219.419 121.092s1.818-4.715 4.463-7.519c1.995-2.116 8.146-3.723 9.964-.99 2.056 3.093-1.187 4.692-3.921 5.842-7.215 3.035-10.506 2.667-10.506 2.667ZM227.119 104.5s1.969-3.55 2.549-5.98c.5-2.096-.077-5.37-2.269-5.248-1.737.097-2.593 1.133-2.028 4.252.564 3.119 1.748 6.976 1.748 6.976Z" fill="#4C7B8F"/><path d="M226.724 104.334s2.981-2.754 5.202-3.894c1.918-.983 5.236-1.201 5.639.957.316 1.711-.488 2.786-3.651 2.98-3.164.192-7.19-.043-7.19-.043ZM223.024 110.35s1.968-3.549 2.549-5.98c.499-2.096-.078-5.37-2.271-5.247-1.735.097-2.592 1.135-2.026 4.254.563 3.118 1.748 6.973 1.748 6.973Z" fill="#4C7B8F"/><path d="M222.732 110.442s2.841-2.898 5.007-4.143c1.867-1.078 5.169-1.459 5.677.68.4 1.691-.349 2.806-3.501 3.154-3.15.347-7.183.309-7.183.309Z" fill="#4C7B8F"/><path d="M201.644 123.607s-5.579-16.667-7.758-21.748c-2.181-5.083-8.429-13.005-8.429-13.005s5.573 4.686 8.552 9.408c2.982 4.724 5.103 11.493 6.499 16.424 1.393 4.933 2.554 8.027 2.852 8.499.296.472-1.716.422-1.716.422Z" fill="#FFB8DE"/><path d="M201.34 120.143s-1.77-4.195-1.81-7.665c-.029-2.618 2.953-7.507 5.84-6.874 3.267.718 2.165 3.785 1.113 6.236-2.779 6.483-5.143 8.303-5.143 8.303Z" fill="#FFB8DE"/><path d="M200.935 119.18s-1.742-4.207-4.184-6.675c-1.843-1.859-7.418-3.171-8.994-.672-1.783 2.83 1.171 4.2 3.657 5.175 6.565 2.573 9.521 2.172 9.521 2.172ZM197.907 110.263s-1.769-4.192-1.807-7.663c-.031-2.621 2.95-7.51 5.837-6.873 3.268.715 2.166 3.782 1.114 6.235-2.779 6.48-5.144 8.301-5.144 8.301Z" fill="#FFB8DE"/><path d="M197.506 109.3s-1.742-4.204-4.184-6.672c-1.841-1.861-7.416-3.173-8.994-.674-1.783 2.83 1.172 4.198 3.66 5.175 6.562 2.575 9.518 2.171 9.518 2.171ZM190.211 94.53s-1.85-3.155-2.424-5.328c-.499-1.879-.05-4.84 1.927-4.778 1.566.05 2.358.965 1.918 3.787-.438 2.82-1.421 6.319-1.421 6.319Z" fill="#FFB8DE"/><path d="M190.562 94.37s-2.745-2.417-4.771-3.393c-1.75-.844-4.741-.966-5.054.987-.251 1.546.496 2.496 3.351 2.6 2.85.106 6.474-.194 6.474-.194ZM194.023 99.705s-1.849-3.152-2.425-5.326c-.498-1.878-.049-4.84 1.927-4.778 1.567.05 2.36.965 1.922 3.786-.441 2.821-1.424 6.318-1.424 6.318Z" fill="#FFB8DE"/><path d="M194.288 99.782s-2.622-2.547-4.599-3.621c-1.704-.929-4.687-1.199-5.097.736-.324 1.534.377 2.522 3.222 2.763 2.843.244 6.474.122 6.474.122Z" fill="#FFB8DE"/><path d="M217.918 114.303h-5.962l10.909 67.637h5.663l-10.61-67.637ZM185.868 114.303h-5.963l10.908 67.637h5.664l-10.609-67.637Z" fill="#4361EE"/><path d="M179.905 114.303h38.014l7.732 49.301h-37.795l-7.951-49.301Z" fill="#4361EE"/><path d="M179.784 114.303h5.962l-10.908 67.637h-5.663l10.609-67.637ZM211.833 114.303h5.962l-10.908 67.637h-5.662l10.608-67.637Z" fill="#4361EE"/><path d="M217.797 114.303h-38.014l-7.732 49.301h37.795l7.951-49.301Z" fill="url(#j)"/><path d="m175.087 159.677 6.671-42.778h33.356l-7.468 42.778h-32.559Z" fill="#003452"/><path d="m187.207 130.261 9.968-9.322 6.738 9.322h-16.706Z" fill="#fff"/><path d="m185.935 151.997 6.608-23.983h6.866l-1.392 23.983h-12.082Z" fill="#fff"/><path d="M42.519 39.442H0c.162-.22.327-.435.496-.648.713-.905 1.357-1.87 2.011-2.829 1.282-1.88 2.69-3.72 4.641-4.725a5.045 5.045 0 0 1 2.368-.573c.932 0 1.868.226 2.855.518 1.012.299 1.96.453 2.986.453.118 0 .238-.002.358-.006l.186-.009c.207-.144.415-.298.631-.477 1.181-.985 2.301-1.946 3.814-2.07.097-.008.192-.012.284-.012 1.617 0 2.444 1.198 3.761 2.142.305.219.825.78 1.255.78a.427.427 0 0 0 .207-.05c.65-.354 1.257-.793 1.931-1.092 1.487-.66 3.066-1.523 4.696-1.534h.03c1.565 0 3.123.853 3.729 2.566.575 1.627.607 3.534 2.056 4.55 1.231.864 3.468 1.563 4.224 3.016Z" fill="#D6E8F2"/><defs><linearGradient id="a" x1="56.733" y1="13.229" x2="84.45" y2="24.569" gradientUnits="userSpaceOnUse"><stop stop-color="#3A0CA3"/><stop offset="1" stop-color="#4361EE"/></linearGradient><linearGradient id="b" x1="89.367" y1="13.229" x2="111.554" y2="20.04" gradientUnits="userSpaceOnUse"><stop stop-color="#3A0CA3"/><stop offset="1" stop-color="#4361EE"/></linearGradient><linearGradient id="c" x1="121.459" y1="13.229" x2="142.421" y2="19.242" gradientUnits="userSpaceOnUse"><stop stop-color="#3A0CA3"/><stop offset="1" stop-color="#4361EE"/></linearGradient><linearGradient id="d" x1="147.632" y1="13.229" x2="175.349" y2="24.569" gradientUnits="userSpaceOnUse"><stop stop-color="#3A0CA3"/><stop offset="1" stop-color="#4361EE"/></linearGradient><linearGradient id="e" x1="179.004" y1="13.229" x2="208.099" y2="25.994" gradientUnits="userSpaceOnUse"><stop stop-color="#3A0CA3"/><stop offset="1" stop-color="#4361EE"/></linearGradient><linearGradient id="f" x1="46.902" y1="151.46" x2="81.589" y2="151.46" gradientUnits="userSpaceOnUse"><stop stop-color="#F28F3B"/><stop offset=".36" stop-color="#F4A745"/><stop offset="1" stop-color="#F9DC5C"/></linearGradient><linearGradient id="g" x1="47.919" y1="151.461" x2="80.571" y2="151.461" gradientUnits="userSpaceOnUse"><stop stop-color="#F28F3B"/><stop offset=".36" stop-color="#F4A745"/><stop offset="1" stop-color="#F9DC5C"/></linearGradient><linearGradient id="h" x1="73.649" y1="164.596" x2="106.302" y2="164.596" gradientUnits="userSpaceOnUse"><stop stop-color="#F28F3B"/><stop offset=".36" stop-color="#F4A745"/><stop offset="1" stop-color="#F9DC5C"/></linearGradient><linearGradient id="i" x1="120.342" y1="113.273" x2="145.006" y2="113.273" gradientUnits="userSpaceOnUse"><stop stop-color="#F28F3B"/><stop offset=".36" stop-color="#F4A745"/><stop offset="1" stop-color="#F9DC5C"/></linearGradient><linearGradient id="j" x1="175.12" y1="113.889" x2="227.36" y2="133.596" gradientUnits="userSpaceOnUse"><stop stop-color="#3A0CA3"/><stop offset="1" stop-color="#4361EE"/></linearGradient></defs></svg>