<svg width="282" height="188" fill="none" xmlns="http://www.w3.org/2000/svg"><path d="M184.954 18.183c-19.452 0-36.67 9.568-47.203 24.254-6.091 8.492-16.649 12.467-26.797 9.97a58.141 58.141 0 0 0-14.136-1.679c-31.681.12-57.602 25.956-57.822 57.637-.224 32.249 25.85 58.462 58.048 58.462 19.507 0 36.766-9.621 47.292-24.378 6.069-8.509 16.797-12.237 26.957-9.785a58.135 58.135 0 0 0 13.661 1.618c31.855 0 57.716-25.657 58.047-57.433.333-32.028-26.017-58.667-58.047-58.666Z" fill="#D0EFF4"/><path d="M249.142 149.388c-.113 0-.222.012-.334.017-1.373-6.157-6.864-10.761-13.435-10.761-6.571 0-12.063 4.604-13.436 10.761-.111-.005-.22-.017-.333-.017a8.397 8.397 0 0 0 0 16.794h27.538a8.398 8.398 0 0 0 0-16.794Z" fill="url(#a)"/><path d="M224.923 155.453c-.071 0-.141.008-.213.011-.877-3.934-4.385-6.875-8.583-6.875-4.197 0-7.706 2.941-8.583 6.875-.071-.003-.141-.011-.213-.011a5.365 5.365 0 0 0 0 10.729h17.592a5.365 5.365 0 0 0 0-10.729Z" fill="#9DC11E"/><path d="M91.437 96.624 65.44 51.738a2.966 2.966 0 0 0-4.092-1.082l-10.341 6.167-4.415 2.634L34.95 66.4c-1.422.848-1.896 2.708-1.059 4.154l25.997 44.887a2.967 2.967 0 0 0 4.092 1.082l26.398-15.744c1.423-.848 1.896-2.708 1.059-4.154Z" fill="#FF8B0D"/><path d="m35.27 65.777 26.398-15.744c1.422-.848 3.253-.364 4.091 1.083l25.997 44.886c.838 1.446.364 3.306-1.058 4.154L64.299 115.9a2.966 2.966 0 0 1-4.091-1.082L34.21 69.932c-.838-1.447-.364-3.306 1.059-4.155Z" fill="url(#b)"/><path d="m46.911 58.834 4.416-2.633 29.03 50.123-4.416 2.633-29.03-50.123Z" fill="#252535"/><path d="m56.267 86.307 3.13-1.867 13.045 22.522-3.13 1.868-13.045-22.523Z" fill="#FFEEA4"/><path d="m55.876 59.505 3.13-1.867 24.683 42.616-3.13 1.868-24.683-42.617ZM46.97 64.663l4.985 8.608-8.466 5.049-4.985-8.608 8.465-5.049Z" fill="#FF8B0D"/><path d="M86.31 150.772h37.761a2.462 2.462 0 0 1 2.462 2.462v10.234a2.461 2.461 0 0 1-2.462 2.461H86.309a.518.518 0 0 1-.518-.518V151.29c0-.286.232-.518.518-.518Z" fill="#709632"/><path d="M99.29 150.772h34.44a2.606 2.606 0 0 1 2.606 2.606v9.945a2.606 2.606 0 0 1-2.606 2.606H99.29v-15.157Z" fill="#9DC11E"/><path d="M124.525 150.772v15.157h11.485c.18 0 .326-.232.326-.52v-14.117c0-.287-.146-.52-.326-.52h-11.485ZM119.435 165.929v-15.157h-4.18v15.157h4.18Z" fill="#BEE02F"/><path d="M136.331 152.677H98.697v-.684h37.634v.684ZM136.331 154.396H98.697v-.684h37.634v.684ZM136.331 156.114H98.697v-.683h37.634v.683ZM136.331 157.833H98.697v-.684h37.634v.684ZM136.331 159.552H98.697v-.684h37.634v.684ZM136.331 161.27H98.697v-.683h37.634v.683ZM136.331 162.989H98.697v-.683h37.634v.683ZM136.331 164.708H98.697v-.683h37.634v.683Z" fill="#709632"/><path d="M116.326 166.062h-10.677v-15.539h10.677v15.539Z" fill="#fff"/><path d="M116.326 166.062h-10.677v-7.997h10.677v7.997Z" fill="#D0EFF4"/><path d="M79.736 135.704h37.762a2.461 2.461 0 0 1 2.462 2.461v10.234a2.462 2.462 0 0 1-2.462 2.462H79.736a.518.518 0 0 1-.518-.518v-14.121c0-.286.232-.518.518-.518Z" fill="#709632"/><path d="M92.717 135.704h34.44a2.606 2.606 0 0 1 2.606 2.606v9.945a2.606 2.606 0 0 1-2.606 2.606h-34.44v-15.157Z" fill="#9DC11E"/><path d="M117.952 135.704v15.157h11.485c.179 0 .326-.233.326-.52v-14.117c0-.288-.147-.52-.326-.52h-11.485ZM112.862 150.861v-15.157h-4.18v15.157h4.18Z" fill="#BEE02F"/><path d="M129.757 137.609H92.124v-.684h37.633v.684ZM129.757 139.327H92.124v-.683h37.633v.683ZM129.757 141.046H92.124v-.683h37.633v.683ZM129.757 142.765H92.124v-.684h37.633v.684ZM129.757 144.483H92.124v-.683h37.633v.683ZM129.757 146.202H92.124v-.683h37.633v.683ZM129.757 147.921H92.124v-.684h37.633v.684ZM129.757 149.64H92.124v-.684h37.633v.684Z" fill="#709632"/><path d="M109.752 150.994H99.076v-15.539h10.676v15.539Z" fill="#fff"/><path d="M109.752 150.994H99.076v-7.997h10.676v7.997Z" fill="#D0EFF4"/><path d="M259.575 167.046H22.424v-1.188h237.151v1.188Z" fill="#579BAA"/><path d="M70.922 135.381V35.769h135.202v99.612H70.922Z" fill="#98D3E5"/><path d="M73.398 132.905V33.292h135.203v99.613H73.398Z" fill="#fff"/><path d="m166.019 122.894-33.249.016v-.016c0-18.241 15.009-33.25 33.249-33.25 18.24 0 33.25 15.009 33.25 33.25h-33.25Z" fill="url(#c)"/><path d="m166.019 122.894-26.03-20.688a33.272 33.272 0 0 1 26.03-12.562c18.24 0 33.25 15.009 33.25 33.25h-33.25Z" fill="#4361EE"/><path d="m166.02 122.894.124-33.25a33.258 33.258 0 0 1 23.43 9.783 33.261 33.261 0 0 1 9.695 23.467H166.02Z" fill="#D8A0FE"/><path d="m166.02 122.894 25.457-21.389a33.26 33.26 0 0 1 7.792 21.389H166.02Z" fill="#E9C9FF"/><path d="M182.618 123.808c.016-.303.026-.608.026-.914 0-9.182-7.443-16.625-16.625-16.625-9.181 0-16.624 7.443-16.624 16.625 0 .306.009.611.025.914h33.198Z" fill="#fff"/><path d="M168.261 122.894a2.241 2.241 0 1 1-4.483 0 2.241 2.241 0 0 1 4.483 0Z" fill="#294459"/><path d="m166.02 122.894 9.166-21.389" stroke="#294459" stroke-width="4" stroke-miterlimit="10"/><path d="M131.838 45.602a2.67 2.67 0 0 0-2.668 2.667 2.67 2.67 0 0 0 2.668 2.668 2.67 2.67 0 0 0 2.667-2.668 2.67 2.67 0 0 0-2.667-2.667Zm0 6.087a3.424 3.424 0 0 1-3.42-3.42 3.424 3.424 0 0 1 3.42-3.42 3.423 3.423 0 0 1 3.419 3.42 3.423 3.423 0 0 1-3.419 3.42Z" fill="#E71C2E"/><path d="M198.64 48.898h-59.489a.63.63 0 0 1 0-1.257h59.489a.629.629 0 1 1 0 1.257Z" fill="#D0EFF4"/><path d="M131.838 55.598a2.67 2.67 0 0 0-2.668 2.667 2.67 2.67 0 0 0 2.668 2.668 2.67 2.67 0 0 0 2.667-2.668 2.67 2.67 0 0 0-2.667-2.667Zm0 6.087a3.424 3.424 0 0 1-3.42-3.42 3.424 3.424 0 0 1 3.42-3.42 3.423 3.423 0 0 1 3.419 3.42 3.423 3.423 0 0 1-3.419 3.42Z" fill="#9DC11E"/><path d="M198.64 58.894h-59.489a.63.63 0 0 1 0-1.257h59.489a.629.629 0 1 1 0 1.257Z" fill="#D0EFF4"/><path d="M131.838 65.594a2.67 2.67 0 0 0-2.668 2.667 2.67 2.67 0 0 0 2.668 2.668 2.67 2.67 0 0 0 2.667-2.668 2.67 2.67 0 0 0-2.667-2.667Zm0 6.087a3.423 3.423 0 0 1-3.42-3.42 3.423 3.423 0 0 1 3.42-3.419 3.423 3.423 0 0 1 3.419 3.42 3.423 3.423 0 0 1-3.419 3.419Z" fill="#E71C2E"/><path d="M198.64 68.89h-59.489a.63.63 0 0 1 0-1.257h59.489a.63.63 0 0 1 0 1.257Z" fill="#D0EFF4"/><path d="M131.838 75.59a2.67 2.67 0 0 0-2.668 2.668 2.67 2.67 0 0 0 2.668 2.667 2.67 2.67 0 0 0 2.667-2.667 2.67 2.67 0 0 0-2.667-2.668Zm0 6.087a3.424 3.424 0 0 1-3.42-3.42 3.424 3.424 0 0 1 3.42-3.42 3.423 3.423 0 0 1 3.419 3.42 3.423 3.423 0 0 1-3.419 3.42Z" fill="#9DC11E"/><path d="M198.64 78.886h-59.489a.629.629 0 1 1 0-1.257h59.489a.629.629 0 1 1 0 1.257Z" fill="#D0EFF4"/><path d="m130.501 46.932 2.674 2.674M133.175 46.932l-2.674 2.674M130.501 66.924l2.674 2.674M133.175 66.924l-2.674 2.674M130.501 58.894l.779.778 2.351-2.351M130.501 78.815l.779.778 2.351-2.351" stroke="#294459" stroke-width="1.333" stroke-miterlimit="10"/><path d="M115.453 94.432H84.308V87.42h31.145v7.013Z" fill="#98D3E5"/><path d="M115.453 98.562H84.308v-1.88h31.145v1.88ZM99.88 102.691H84.308v-1.88H99.88v1.88Z" fill="#D0EFF4"/><path d="M115.453 114.415H84.308v-7.013h31.145v7.013Z" fill="#98D3E5"/><path d="M115.453 118.545H84.308v-1.881h31.145v1.881ZM99.88 122.674H84.308v-1.88H99.88v1.88Z" fill="#D0EFF4"/><path d="M81.664 165.858h-18.78a1.194 1.194 0 0 1-1.193-1.193v-3.732c0-.658.535-1.193 1.194-1.193h18.78c.658 0 1.192.535 1.192 1.193v3.732c0 .658-.534 1.193-1.193 1.193Z" fill="#FF8B0D"/><path d="M76.572 165.858h-18.78a1.193 1.193 0 0 1-1.192-1.193v-3.732c0-.658.533-1.193 1.192-1.193h18.78c.659 0 1.193.535 1.193 1.193v3.732c0 .658-.534 1.193-1.193 1.193Z" fill="#ECB220"/><path d="M66.387 165.858v-6.118h-8.595c-.659 0-1.192.535-1.192 1.193v3.732c0 .658.533 1.193 1.192 1.193h8.595Z" fill="#ECB220"/><path d="M67.564 159.74v6.118h2.172v-6.118h-2.172ZM70.883 159.74v6.118h1.147v-6.118h-1.147Z" fill="#FFEEA4"/><path d="M106.818 165.858h-18.78a1.194 1.194 0 0 1-1.192-1.193v-3.732c0-.658.534-1.193 1.193-1.193h18.779c.659 0 1.193.535 1.193 1.193v3.732c0 .658-.534 1.193-1.193 1.193Z" fill="#FF8B0D"/><path d="M101.726 165.858h-18.78a1.194 1.194 0 0 1-1.193-1.193v-3.732c0-.658.534-1.193 1.193-1.193h18.78c.658 0 1.192.535 1.192 1.193v3.732c0 .658-.534 1.193-1.192 1.193Z" fill="#ECB220"/><path d="M91.54 165.858v-6.118h-8.594c-.659 0-1.193.535-1.193 1.193v3.732c0 .658.534 1.193 1.193 1.193h8.595Z" fill="#ECB220"/><path d="M92.718 159.74v6.118h2.171v-6.118h-2.171ZM96.037 159.74v6.118h1.147v-6.118h-1.147Z" fill="#FFEEA4"/><path d="M90.661 159.74h-18.78a1.193 1.193 0 0 1-1.192-1.192v-3.732c0-.659.534-1.193 1.193-1.193h18.78c.658 0 1.192.534 1.192 1.193v3.732c0 .658-.534 1.192-1.193 1.192Z" fill="#FF8B0D"/><path d="M85.568 159.74h-18.78a1.193 1.193 0 0 1-1.192-1.192v-3.732c0-.659.534-1.193 1.193-1.193h18.78c.658 0 1.192.534 1.192 1.193v3.732c0 .658-.534 1.192-1.193 1.192Z" fill="#ECB220"/><path d="M75.383 159.74v-6.117H66.79c-.659 0-1.193.534-1.193 1.193v3.732c0 .658.534 1.192 1.193 1.192h8.594Z" fill="#ECB220"/><path d="M76.56 153.623v6.117h2.172v-6.117h-2.171ZM79.88 153.623v6.117h1.147v-6.117H79.88Z" fill="#FFEEA4"/><path d="M96.558 153.623h-18.78a1.193 1.193 0 0 1-1.193-1.193v-3.731c0-.659.534-1.193 1.193-1.193h18.78c.658 0 1.192.534 1.192 1.193v3.731c0 .659-.534 1.193-1.192 1.193Z" fill="#FF8B0D"/><path d="M91.465 153.623h-18.78a1.193 1.193 0 0 1-1.193-1.193v-3.731c0-.659.534-1.193 1.193-1.193h18.78c.659 0 1.192.534 1.192 1.193v3.731c0 .659-.533 1.193-1.192 1.193Z" fill="#ECB220"/><path d="M81.28 153.623v-6.117h-8.595c-.659 0-1.193.534-1.193 1.193v3.731c0 .659.534 1.193 1.193 1.193h8.594Z" fill="#ECB220"/><path d="M82.457 147.506v6.117h2.171v-6.117h-2.171ZM85.775 147.506v6.117h1.147v-6.117h-1.147Z" fill="#FFEEA4"/><path d="M95.761 147.506h-18.78a1.193 1.193 0 0 1-1.192-1.193v-3.731c0-.659.534-1.193 1.193-1.193h18.78c.658 0 1.192.534 1.192 1.193v3.731c0 .659-.534 1.193-1.193 1.193Z" fill="#FF8B0D"/><path d="M90.67 147.506H71.89a1.193 1.193 0 0 1-1.193-1.193v-3.731c0-.659.534-1.193 1.193-1.193h18.78c.658 0 1.193.534 1.193 1.193v3.731c0 .659-.535 1.193-1.193 1.193Z" fill="#ECB220"/><path d="M80.484 147.506v-6.117H71.89c-.659 0-1.193.534-1.193 1.193v3.731c0 .659.534 1.193 1.193 1.193h8.594Z" fill="#ECB220"/><path d="M81.662 141.389v6.117h2.172v-6.117h-2.172ZM84.98 141.389v6.117h1.147v-6.117h-1.146Z" fill="#FFEEA4"/><path d="M99.103 141.389h-18.78a1.193 1.193 0 0 1-1.192-1.193v-3.731c0-.659.534-1.193 1.192-1.193h18.78c.659 0 1.193.534 1.193 1.193v3.731c0 .658-.534 1.193-1.193 1.193Z" fill="#FF8B0D"/><path d="M94.01 141.389H75.23a1.193 1.193 0 0 1-1.192-1.193v-3.731c0-.659.534-1.193 1.193-1.193h18.78c.659 0 1.193.534 1.193 1.193v3.731c0 .658-.534 1.193-1.194 1.193Z" fill="#ECB220"/><path d="M83.825 141.389v-6.117h-8.594c-.659 0-1.193.534-1.193 1.193v3.731c0 .658.534 1.193 1.193 1.193h8.594Z" fill="#ECB220"/><path d="M85.003 135.272v6.117h2.171v-6.117h-2.171ZM88.322 135.272v6.117h1.147v-6.117h-1.147Z" fill="#FFEEA4"/><path d="M92.39 135.272H73.61a1.193 1.193 0 0 1-1.193-1.193v-3.731c0-.659.534-1.193 1.193-1.193h18.78c.659 0 1.192.534 1.192 1.193v3.731c0 .659-.533 1.193-1.192 1.193Z" fill="#FF8B0D"/><path d="M87.297 135.272h-18.78c-.659 0-1.193-.534-1.193-1.193v-3.731c0-.659.534-1.193 1.193-1.193h18.78c.659 0 1.193.534 1.193 1.193v3.731c0 .659-.534 1.193-1.193 1.193Z" fill="#ECB220"/><path d="M77.112 135.272v-6.117h-8.595c-.659 0-1.193.534-1.193 1.193v3.731c0 .659.534 1.193 1.193 1.193h8.595Z" fill="#ECB220"/><path d="M78.29 129.155v6.117h2.17v-6.117h-2.17ZM81.607 129.155v6.117h1.148v-6.117h-1.148Z" fill="#FFEEA4"/><path d="M215.938 101.593v64.186" stroke="#33334D" stroke-width="7" stroke-miterlimit="10"/><path d="m212.005 158.599.036 1.369s-5.185.074-6.469 5.89l14.252-.013-.228-7.313-7.591.067Z" fill="#252538"/><path d="M217.833 90.759h5.383c3.97 0 7.219 3.249 7.219 7.219 0 3.971-3.249 7.219-7.219 7.219h-5.383c-3.97 0-7.219-3.248-7.219-7.219 0-3.97 3.249-7.219 7.219-7.219Z" fill="#33334D"/><path d="M224.753 101.593v64.186" stroke="#33334D" stroke-width="7" stroke-miterlimit="10"/><path d="m220.818 158.565.037 1.403s-5.185.074-6.469 5.89l14.252-.013-.228-7.347-7.592.067Z" fill="#2C2C42"/><path d="M229.721 96.725h-19.488V73.7c0-5.334 4.324-9.657 9.656-9.657h.176c5.333 0 9.656 4.323 9.656 9.656v23.026Z" fill="#fff"/><path d="M217.771 81.6c.612 1.707 2.392 5.458 2.392 5.458s1.23-2.244 2.383-5.359l-2.455-11.42-2.32 11.32Z" fill="#EDCB3A"/><path d="m234.006 67.494-9.384-3.997c.621 1.941 3.3 8.358-4.461 20.34l-.002-.017-.003.016c-7.489-11.002-5.081-18.398-4.46-20.339l-9.384 3.997s-.093 7.51 3.394 17.434l-.041 14.438h8.795l1.497-1.663 1.797 1.663h8.899l-.041-14.438c3.487-9.924 3.394-17.434 3.394-17.434Z" fill="url(#d)"/><path d="M222.886 68.213a3.857 3.857 0 0 0-5.455 0l2.728 2.728 2.727-2.728Z" fill="#EDCB3A"/><path d="M224.548 64.82c0-10.09-1.97-4.846-4.4-4.846-2.431 0-4.401-4.594-4.401 4.846 0 3.536 1.97 3.231 4.401 3.231 2.43 0 4.4.305 4.4-3.23Z" fill="#FFB692"/><path d="M215.839 61.872c.414-5.401 2.186-1.898 4.309-1.898 2.353 0 4.275-4.917 4.394 3.932-3.76 1.229-6.677-.198-8.703-2.034Z" fill="#D88D87"/><path d="M225.99 65.81c-.604-1.986-1.468-2.59-1.468-2.59s-1.149 2.584-4.364 3.422c-3.215-.838-4.364-3.422-4.364-3.422s-.863.604-1.468 2.59c-.604 1.986.979 4.462.979 4.462l4.853-2.216 4.853 2.216s1.583-2.476.979-4.462Z" fill="#E8E8F9"/><path d="M229.632 47.141c-.038 5.314-4.377 9.592-9.691 9.554-5.315-.037-9.593-4.377-9.555-9.691.038-5.315 4.377-9.593 9.691-9.555 5.315.038 9.593 4.377 9.555 9.692Z" fill="#54321A"/><path d="m229.017 53.032-18.1-.129a1.291 1.291 0 0 1-1.282-1.3l.001-.246a1.292 1.292 0 0 1 1.301-1.282l18.1.128a1.291 1.291 0 0 1 1.282 1.301l-.001.246a1.292 1.292 0 0 1-1.301 1.282Z" fill="#D88D87"/><path d="m210.375 51.544.001-.117a.615.615 0 0 1 .62-.611l17.972.127c.339.003.613.28.611.62l-.001.117a.616.616 0 0 1-.62.611l-17.972-.127a.616.616 0 0 1-.611-.62Z" fill="#AA635F"/><path d="M218.223 55.08c.803-.198 1.921-.53 2.959-1.034.682-.333 1.374.511 1.067 1.315-.327.854-.96 1.683-2.18 1.896-.999.176-1.666-.034-2.108-.372-.627-.479-.454-1.629.262-1.805Z" fill="#252538"/><path d="M220.069 57.257c1.22-.213 1.852-1.042 2.179-1.897.046-.12.067-.241.072-.36-.454-.158-1.043-.188-1.809.05-1.182.366-1.698 1.267-1.907 2.154l-.001.006c.384.117.863.153 1.466.047Z" fill="#FF9292"/><path d="M219.395 56.304c.139.197.601.123 1.032-.165.431-.287.668-.68.529-.878-.139-.197-.601-.123-1.032.165-.431.288-.668.681-.529.878Z" fill="#FFABAB"/><path d="M218.222 55.08c.804-.198 1.921-.53 2.959-1.035.419-.204.841.037 1.033.438-.582.616-1.504 1.154-2.61 1.454a6.363 6.363 0 0 1-2.023.225c-.045-.473.189-.97.641-1.082Z" fill="#fff"/><path d="M221.733 59.395c-.003.419-.817.752-1.817.745-1-.007-1.809-.352-1.806-.771.003-.419.817-.752 1.817-.745 1 .007 1.809.352 1.806.77Z" fill="#D88D87"/><path d="M219.899 62.65a7.895 7.895 0 0 1-7.839-7.951l.062-8.766a7.57 7.57 0 0 1 7.623-7.515l.652.005a7.568 7.568 0 0 1 7.515 7.623l-.062 8.766a7.895 7.895 0 0 1-7.951 7.838Z" fill="#FFB692"/><path d="M218.223 55.08c.803-.198 1.921-.53 2.959-1.034.682-.333 1.374.511 1.067 1.315-.327.854-.96 1.683-2.18 1.896-.999.176-1.666-.034-2.108-.372-.627-.479-.454-1.629.262-1.805Z" fill="#252538"/><path d="M220.069 57.257c1.22-.213 1.852-1.042 2.179-1.897.046-.12.067-.241.072-.36-.454-.158-1.043-.188-1.809.05-1.182.366-1.698 1.267-1.907 2.154l-.001.006c.384.117.863.153 1.466.047Z" fill="#FF9292"/><path d="M219.395 56.304c.139.197.601.123 1.032-.165.431-.287.668-.68.529-.878-.139-.197-.601-.123-1.032.165-.431.288-.668.681-.529.878Z" fill="#FFABAB"/><path d="M218.222 55.08c.804-.198 1.921-.53 2.959-1.035.419-.204.841.037 1.033.438-.582.616-1.504 1.154-2.61 1.454a6.363 6.363 0 0 1-2.023.225c-.045-.473.189-.97.641-1.082Z" fill="#fff"/><path d="M215.63 49.631a.925.925 0 1 0-.013 1.85.925.925 0 0 0 .013-1.85ZM222.631 49.681a.924.924 0 1 0-.013 1.848.924.924 0 0 0 .013-1.848Z" fill="#252538"/><path d="m219.212 54.42-.229-.003a1.2 1.2 0 0 1-1.192-1.209l.017-2.36a1.2 1.2 0 0 1 1.209-1.193l.228.002a1.202 1.202 0 0 1 1.193 1.21l-.017 2.36a1.202 1.202 0 0 1-1.209 1.192Z" fill="#D88D87"/><path d="m224.188 47.994-1.598-.516a.667.667 0 1 0-.409 1.268l1.598.516a.665.665 0 1 0 .409-1.268ZM215.703 47.429l-1.605.493a.665.665 0 1 0 .391 1.274l1.605-.493a.667.667 0 0 0-.391-1.274Z" fill="#54321A"/><path d="M221.733 59.395c-.003.419-.817.752-1.817.745-1-.007-1.809-.352-1.806-.771.003-.419.817-.752 1.817-.745 1 .007 1.809.352 1.806.77Z" fill="#D88D87"/><path d="M219.801 53.677a.348.348 0 0 1-.345-.35l.018-2.468a.347.347 0 1 1 .694.005l-.017 2.468a.348.348 0 0 1-.35.345Z" fill="#F79C97"/><path d="M226.063 39.594a4.636 4.636 0 0 0 3.514 8.52 9.601 9.601 0 0 0-3.514-8.52ZM214.103 39.51a4.636 4.636 0 0 1-3.635 8.468 9.604 9.604 0 0 1 3.635-8.469Z" fill="#54321A"/><path d="m219.772 46.061 5.264.038a7.717 7.717 0 0 0-7.662-7.771l-5.263-.038a7.716 7.716 0 0 0 7.661 7.771Z" fill="#54321A"/><path d="m220.628 44.09 4.071 1.214a6.226 6.226 0 0 0-4.188-7.745l-4.07-1.213a6.225 6.225 0 0 0 4.187 7.745Z" fill="#54321A"/><path d="m221.462 43.804 3.574 2.295a6.227 6.227 0 0 0-1.876-8.603l-3.574-2.294a6.225 6.225 0 0 0 1.876 8.602Z" fill="#54321A"/><path d="M225.053 39.398c-2.58 2.04-7.014 4.379-12.216 2.22a7.755 7.755 0 0 0 2.732 3.161c3.405.573 7.507-.568 10.399-2.854a6.234 6.234 0 0 0-.915-2.527Z" fill="#875330"/><path d="m233.782 98.229-36.826-16.547-7.338 16.566 36.828 16.547 7.336-16.566Z" fill="#709632"/><path d="m197.641 83.457-6.247 14.106 34.366 15.457 6.249-14.106-34.368-15.457Z" fill="#9DC11E"/><path d="m198.327 85.232-5.159 11.645 31.907 14.368 5.158-11.645-31.906-14.368Z" fill="#709632"/><path d="M225.625 106.681a3.05 3.05 0 0 0-4.024 1.554l-23.869-10.808a3.05 3.05 0 0 0-1.553-4.023l1.598-3.609a3.05 3.05 0 0 0 4.023-1.553l23.869 10.808a3.05 3.05 0 0 0 1.554 4.023l-1.598 3.608Z" fill="#9DC11E"/><path d="M208.13 96.708a3.968 3.968 0 1 0 7.258 3.214 3.97 3.97 0 1 0-7.258-3.214Z" fill="#709632"/><path d="m237.591 99.305-33.814-22.06-9.819 15.227 33.814 22.059 9.819-15.226Z" fill="#709632"/><path d="m204.177 79.105-8.36 12.965 31.553 20.602 8.361-12.965-31.554-20.602Z" fill="#9DC11E"/><path d="m204.579 80.965-6.902 10.703 29.292 19.144 6.902-10.704-29.292-19.144Z" fill="#709632"/><path d="M228.22 106.389a3.05 3.05 0 0 0-4.216.911l-21.903-14.38a3.05 3.05 0 0 0-.911-4.216l2.139-3.317a3.048 3.048 0 0 0 4.215-.91l21.904 14.38a3.05 3.05 0 0 0 .911 4.216l-2.139 3.316Z" fill="#9DC11E"/><path d="M212.483 93.823a3.97 3.97 0 1 0 6.673 4.3 3.97 3.97 0 0 0-6.673-4.3Z" fill="#709632"/><path d="m241.192 100.849-29.529-27.534-12.285 13.317 29.529 27.534 12.285-13.317Z" fill="#709632"/><path d="m211.74 75.217-10.461 11.339 27.551 25.709 10.461-11.339-27.551-25.71Z" fill="#9DC11E"/><path d="m211.816 77.118-8.636 9.36 25.573 23.886 8.636-9.362-25.573-23.884Z" fill="#709632"/><path d="M230.745 106.221a3.05 3.05 0 0 0-4.31.174L207.323 88.47a3.048 3.048 0 0 0-.174-4.31l2.677-2.9a3.05 3.05 0 0 0 4.309-.174l19.112 17.925a3.049 3.049 0 0 0 .174 4.309l-2.676 2.901Z" fill="#9DC11E"/><path d="M217.398 91.14a3.968 3.968 0 1 0 5.834 5.383 3.97 3.97 0 0 0-5.834-5.382Z" fill="#709632"/><path d="M222.439 101.649c.848-2.562-3.038-3.105-3.038-3.105l-1.898-1.977s-1.687 1.767.351 3.124c0 0-2.401.429-4.037-.378-1.997-.984-1.278 4.218.362 5.774.891.845 2.408-.172 3.937.108 2.131.391 5.155-.515 4.323-3.546Z" fill="#FFB692"/><path d="m217.608 102.501.034.196s-2.519.764-4.655.227a7.236 7.236 0 0 1-.103-.347c.836.295 2.421.594 4.724-.076ZM217.754 103.968s-2.264.713-4.029.565a5.45 5.45 0 0 1-.193-.321c.751.079 2.281.123 4.191-.455l.031.211ZM217.483 101.146s-2.545.857-4.872-.261a4.516 4.516 0 0 1 .004-.482c.896.464 2.559 1.04 4.836.609l.032.134Z" fill="#D88D87"/><path d="M221.513 101.593c25.496-5.628 9.788-32.004 9.788-32.004" stroke="url(#e)" stroke-width="7" stroke-miterlimit="10"/><path d="m185.939 57.039-.368.563a3.411 3.411 0 0 1-5.714-3.727l.368-.564a3.411 3.411 0 0 1 5.714 3.728Z" fill="#FFB692"/><path d="m186.593 55.498 2.015-6.035a.782.782 0 0 0-.747-1.03c-.792.004-1.917.576-2.213 1.986-.438 2.08-3.411.822-2.956 4.124.305 2.222 1.861 2.202 2.846 1.951a1.518 1.518 0 0 0 1.055-.996ZM180.903 57.303a.891.891 0 0 1-1.202.367l-3.123-1.843a.891.891 0 0 1-.367-1.203.892.892 0 0 1 1.203-.366l3.122 1.843a.89.89 0 0 1 .367 1.202Z" fill="#FFB692"/><path d="M178.572 54.941a28.19 28.19 0 0 1 1.694.856l.424.234c.153.1.283.24.364.406.166.33.136.755-.086 1.056a1.04 1.04 0 0 1-.972.42 1.12 1.12 0 0 1-.487-.197l-.4-.257a31.1 31.1 0 0 1-1.574-1.067c.576.267 1.135.56 1.691.86l.417.226c.145.088.249.13.387.142a.75.75 0 0 0 .682-.31.74.74 0 0 0 .069-.743.749.749 0 0 0-.247-.304l-.391-.248a27.58 27.58 0 0 1-1.571-1.074Z" fill="#D88D87"/><path d="M181.583 55.66a.891.891 0 0 1-1.202.367l-3.123-1.843a.891.891 0 0 1-.366-1.203.891.891 0 0 1 1.202-.367l3.123 1.844c.431.23.596.77.366 1.202Z" fill="#FFB692"/><path d="M179.254 53.299c.576.267 1.141.551 1.694.855l.425.234a1.03 1.03 0 0 1 .277 1.462 1.036 1.036 0 0 1-.972.42 1.112 1.112 0 0 1-.487-.197l-.4-.257a31.48 31.48 0 0 1-1.574-1.067c.576.267 1.136.561 1.691.86l.417.226c.145.088.249.13.387.142a.748.748 0 0 0 .682-.31.737.737 0 0 0 .069-.743.759.759 0 0 0-.246-.304l-.392-.248a28.257 28.257 0 0 1-1.571-1.073Z" fill="#D88D87"/><path d="M182.204 53.959a.893.893 0 0 1-1.203.367l-3.122-1.843a.891.891 0 0 1-.367-1.203.892.892 0 0 1 1.202-.367l3.123 1.844c.431.23.596.77.367 1.202Z" fill="#FFB692"/><path d="M179.873 51.597c.576.268 1.141.552 1.694.855.143.077.268.145.424.235.153.1.283.24.364.406.165.33.136.755-.087 1.056a1.037 1.037 0 0 1-.971.42 1.12 1.12 0 0 1-.487-.198l-.4-.256a31.032 31.032 0 0 1-1.574-1.067c.576.267 1.135.56 1.691.86l.416.225a.84.84 0 0 0 .388.143.75.75 0 0 0 .682-.31.74.74 0 0 0 .069-.743.75.75 0 0 0-.247-.304l-.391-.248a27.632 27.632 0 0 1-1.571-1.074Z" fill="#D88D87"/><path d="M183.628 52.78a.893.893 0 0 1-1.203.367l-3.123-1.843a.891.891 0 0 1-.366-1.202.89.89 0 0 1 1.202-.367l3.123 1.843c.431.23.596.771.367 1.203Z" fill="#FFB692"/><path d="M181.297 50.419c.576.267 1.141.551 1.695.855.143.077.268.144.424.234.152.1.283.24.363.406.167.33.136.755-.086 1.056a1.036 1.036 0 0 1-.971.42 1.121 1.121 0 0 1-.488-.197l-.399-.257a31.034 31.034 0 0 1-1.574-1.067c.576.267 1.135.561 1.691.86l.416.226c.145.089.249.13.387.143a.75.75 0 0 0 .683-.31.74.74 0 0 0 .069-.744.757.757 0 0 0-.247-.303l-.392-.25a27.827 27.827 0 0 1-1.571-1.072Z" fill="#D88D87"/><path d="M208.49 69.833c-11.277 6.176-21.864 6.344-25.206-11.773" stroke="url(#f)" stroke-width="7" stroke-miterlimit="10"/><path d="m83.623 157.03-42.735 9.959a2.803 2.803 0 0 1-3.368-2.094l-14.45-62.011a2.804 2.804 0 0 1 2.094-3.367L67.9 89.558a2.804 2.804 0 0 1 3.367 2.095l14.45 62.01a2.803 2.803 0 0 1-2.094 3.367Z" fill="#252535"/><path d="m88.497 155.891-44.174 10.294a2.065 2.065 0 0 1-2.48-1.543l-14.787-63.449a2.066 2.066 0 0 1 1.543-2.48l44.175-10.295a2.066 2.066 0 0 1 2.48 1.543L90.04 153.41a2.066 2.066 0 0 1-1.543 2.481Z" fill="#373F51"/><path d="m74.319 102.496-40.882 9.528-1.997-8.574 40.88-9.527 1.999 8.573Z" fill="#FFFFFD"/><path d="m72.806 96.004-40.882 9.527-.485-2.081 40.882-9.527.485 2.081Z" fill="#D0EFF4"/><path d="m40.036 115.125-3.225.752a2.41 2.41 0 0 0-1.801 2.895l.751 3.225a2.41 2.41 0 0 0 2.896 1.801l3.225-.751a2.412 2.412 0 0 0 1.801-2.896l-.752-3.225a2.411 2.411 0 0 0-2.895-1.801ZM50.835 112.608l-3.225.752a2.412 2.412 0 0 0-1.801 2.896l.751 3.225a2.411 2.411 0 0 0 2.896 1.801l3.225-.752a2.41 2.41 0 0 0 1.801-2.895l-.752-3.226a2.412 2.412 0 0 0-2.895-1.801ZM61.633 110.092l-3.224.752a2.41 2.41 0 0 0-1.801 2.895l.75 3.225a2.41 2.41 0 0 0 2.896 1.801l3.226-.751a2.411 2.411 0 0 0 1.8-2.896l-.75-3.225a2.411 2.411 0 0 0-2.897-1.801ZM42.69 126.512l-3.225.751a2.412 2.412 0 0 0-1.801 2.896l.752 3.225a2.41 2.41 0 0 0 2.895 1.801l3.225-.751a2.412 2.412 0 0 0 1.802-2.896l-.752-3.225a2.411 2.411 0 0 0-2.896-1.801ZM53.488 123.996l-3.225.751a2.412 2.412 0 0 0-1.801 2.896l.752 3.225a2.412 2.412 0 0 0 2.895 1.801l3.225-.752a2.41 2.41 0 0 0 1.801-2.895l-.751-3.225a2.41 2.41 0 0 0-2.896-1.801ZM64.287 121.479l-3.225.752a2.41 2.41 0 0 0-1.801 2.895l.751 3.225a2.41 2.41 0 0 0 2.896 1.801l3.225-.751a2.412 2.412 0 0 0 1.801-2.896l-.752-3.225a2.411 2.411 0 0 0-2.895-1.801ZM45.344 137.898l-3.226.752a2.412 2.412 0 0 0-1.8 2.896l.751 3.225a2.411 2.411 0 0 0 2.896 1.801l3.225-.752a2.41 2.41 0 0 0 1.8-2.895l-.75-3.226a2.412 2.412 0 0 0-2.896-1.801ZM56.142 135.382l-3.225.752a2.41 2.41 0 0 0-1.8 2.895l.75 3.225a2.41 2.41 0 0 0 2.896 1.801l3.225-.751a2.411 2.411 0 0 0 1.801-2.895l-.751-3.226a2.411 2.411 0 0 0-2.896-1.801ZM66.94 132.866l-3.225.751a2.412 2.412 0 0 0-1.8 2.896l.75 3.225a2.411 2.411 0 0 0 2.896 1.801l3.226-.751a2.412 2.412 0 0 0 1.8-2.896l-.751-3.225a2.411 2.411 0 0 0-2.896-1.801ZM77.947 130.301l-3.225.751a2.412 2.412 0 0 0-1.801 2.896l.751 3.225a2.41 2.41 0 0 0 2.896 1.801l3.225-.751a2.412 2.412 0 0 0 1.801-2.896l-.751-3.225a2.41 2.41 0 0 0-2.896-1.801ZM47.997 149.286l-3.225.751a2.412 2.412 0 0 0-1.801 2.896l.751 3.225a2.411 2.411 0 0 0 2.896 1.801l3.225-.751a2.412 2.412 0 0 0 1.801-2.896l-.752-3.226a2.41 2.41 0 0 0-2.895-1.8ZM58.796 146.769l-3.225.752a2.41 2.41 0 0 0-1.801 2.895l.751 3.225a2.41 2.41 0 0 0 2.896 1.801l3.225-.751a2.412 2.412 0 0 0 1.801-2.896l-.752-3.225a2.411 2.411 0 0 0-2.895-1.801ZM69.594 144.253l-3.226.751a2.412 2.412 0 0 0-1.8 2.896l.75 3.225a2.411 2.411 0 0 0 2.897 1.801l3.225-.752a2.41 2.41 0 0 0 1.8-2.895l-.75-3.225a2.411 2.411 0 0 0-2.896-1.801ZM80.6 141.687l-3.225.752a2.412 2.412 0 0 0-1.8 2.896l.75 3.225a2.411 2.411 0 0 0 2.896 1.801l3.226-.751a2.412 2.412 0 0 0 1.8-2.896l-.75-3.225a2.412 2.412 0 0 0-2.896-1.802Z" fill="#1C77B5"/><path d="m40.976 114.906-3.225.752a2.41 2.41 0 0 0-1.8 2.895l.75 3.225a2.41 2.41 0 0 0 2.896 1.801l3.225-.751a2.412 2.412 0 0 0 1.801-2.896l-.751-3.225a2.411 2.411 0 0 0-2.896-1.801ZM51.774 112.389l-3.225.752a2.411 2.411 0 0 0-1.801 2.896l.752 3.225a2.411 2.411 0 0 0 2.895 1.801l3.226-.752a2.41 2.41 0 0 0 1.8-2.895l-.751-3.226a2.412 2.412 0 0 0-2.896-1.801ZM62.573 109.873l-3.225.752a2.41 2.41 0 0 0-1.801 2.895l.752 3.225a2.41 2.41 0 0 0 2.895 1.801l3.225-.751a2.411 2.411 0 0 0 1.801-2.896l-.751-3.225a2.411 2.411 0 0 0-2.896-1.801ZM43.63 126.293l-3.225.751a2.412 2.412 0 0 0-1.802 2.896l.752 3.225a2.411 2.411 0 0 0 2.896 1.801l3.225-.752a2.41 2.41 0 0 0 1.801-2.895l-.752-3.225a2.411 2.411 0 0 0-2.895-1.801ZM54.429 123.777l-3.226.751a2.411 2.411 0 0 0-1.8 2.895l.75 3.226a2.411 2.411 0 0 0 2.896 1.801l3.226-.752a2.411 2.411 0 0 0 1.8-2.895l-.75-3.225a2.41 2.41 0 0 0-2.896-1.801ZM65.227 121.26l-3.226.751a2.412 2.412 0 0 0-1.8 2.896l.75 3.226a2.412 2.412 0 0 0 2.896 1.801l3.226-.752a2.412 2.412 0 0 0 1.8-2.896l-.75-3.225a2.41 2.41 0 0 0-2.896-1.801ZM46.283 137.68l-3.225.751a2.412 2.412 0 0 0-1.801 2.896l.751 3.225a2.411 2.411 0 0 0 2.896 1.801l3.225-.752a2.41 2.41 0 0 0 1.801-2.895l-.751-3.225a2.41 2.41 0 0 0-2.896-1.801ZM57.082 135.163l-3.225.752a2.41 2.41 0 0 0-1.801 2.895l.751 3.226a2.412 2.412 0 0 0 2.895 1.801l3.226-.752a2.411 2.411 0 0 0 1.8-2.896l-.75-3.225a2.412 2.412 0 0 0-2.896-1.801ZM67.88 132.647l-3.225.751a2.412 2.412 0 0 0-1.8 2.896l.751 3.225a2.411 2.411 0 0 0 2.896 1.801l3.225-.751a2.412 2.412 0 0 0 1.8-2.896l-.75-3.225a2.411 2.411 0 0 0-2.896-1.801ZM78.887 130.082l-3.226.751a2.412 2.412 0 0 0-1.8 2.896l.75 3.225a2.411 2.411 0 0 0 2.896 1.801l3.226-.752a2.41 2.41 0 0 0 1.8-2.895l-.75-3.225a2.41 2.41 0 0 0-2.896-1.801ZM48.936 149.066l-3.225.752a2.412 2.412 0 0 0-1.801 2.896l.752 3.225a2.411 2.411 0 0 0 2.895 1.801l3.226-.752a2.41 2.41 0 0 0 1.8-2.895l-.751-3.226a2.412 2.412 0 0 0-2.896-1.801ZM59.735 146.55l-3.225.752a2.41 2.41 0 0 0-1.801 2.895l.752 3.225a2.41 2.41 0 0 0 2.895 1.801l3.225-.751a2.412 2.412 0 0 0 1.802-2.896l-.752-3.225a2.411 2.411 0 0 0-2.896-1.801ZM70.534 144.034l-3.225.751a2.412 2.412 0 0 0-1.801 2.896l.751 3.225a2.411 2.411 0 0 0 2.896 1.801l3.225-.751a2.412 2.412 0 0 0 1.801-2.896l-.751-3.225a2.41 2.41 0 0 0-2.896-1.801ZM81.54 141.469l-3.225.751a2.412 2.412 0 0 0-1.801 2.896l.751 3.225a2.411 2.411 0 0 0 2.896 1.801l3.225-.752a2.41 2.41 0 0 0 1.801-2.895l-.751-3.225a2.411 2.411 0 0 0-2.896-1.801Z" fill="#D0EFF4"/><path d="m78.896 126.426-6.025 1.405a1.34 1.34 0 0 1-1.608-1.001l-3.892-16.7a1.34 1.34 0 0 1 1-1.608l6.026-1.404c.72-.168 1.44.28 1.607 1l3.892 16.701c.168.72-.28 1.44-1 1.607Z" fill="#AD1E58"/><path d="m79.836 126.207-6.026 1.405a1.34 1.34 0 0 1-1.607-1l-3.892-16.701a1.34 1.34 0 0 1 1-1.608l6.025-1.404c.72-.168 1.44.28 1.608 1l3.892 16.701c.168.72-.28 1.44-1 1.607Z" fill="#E71C2E"/><defs><linearGradient id="a" x1="225.905" y1="134.428" x2="231.15" y2="160.495" gradientUnits="userSpaceOnUse"><stop stop-color="#57CC99"/><stop offset=".62" stop-color="#6FDF99"/><stop offset="1" stop-color="#80ED99"/></linearGradient><linearGradient id="b" x1="33.798" y1="82.966" x2="92.172" y2="82.966" gradientUnits="userSpaceOnUse"><stop stop-color="#F28F3B"/><stop offset=".36" stop-color="#F4A745"/><stop offset="1" stop-color="#F9DC5C"/></linearGradient><linearGradient id="c" x1="137.232" y1="89.364" x2="189.471" y2="131.821" gradientUnits="userSpaceOnUse"><stop stop-color="#3A0CA3"/><stop offset="1" stop-color="#4361EE"/></linearGradient><linearGradient id="d" x1="208.17" y1="63.195" x2="241.056" y2="73.519" gradientUnits="userSpaceOnUse"><stop stop-color="#3A0CA3"/><stop offset="1" stop-color="#4361EE"/></linearGradient><linearGradient id="e" x1="222.491" y1="69.32" x2="240.873" y2="72.724" gradientUnits="userSpaceOnUse"><stop stop-color="#3A0CA3"/><stop offset="1" stop-color="#4361EE"/></linearGradient><linearGradient id="f" x1="184.976" y1="57.929" x2="207.89" y2="73.041" gradientUnits="userSpaceOnUse"><stop stop-color="#3A0CA3"/><stop offset="1" stop-color="#4361EE"/></linearGradient></defs></svg>