<svg width="213" height="218" fill="none" xmlns="http://www.w3.org/2000/svg"><path d="m90.21 23.78-4.076 1.25a30.341 30.341 0 0 0-4.241-7.134l2.84-3.05c.775-.833.722-2.164-.119-2.975l-2.243-2.165c-.845-.816-2.17-.807-2.957.023l-2.816 2.97a31.364 31.364 0 0 0-7.43-4.234l.933-3.961c.268-1.137-.453-2.305-1.612-2.614l-3.1-.823c-1.171-.312-2.347.363-2.624 1.508l-.948 3.928a31.876 31.876 0 0 0-8.878-.002l-1.203-3.949C51.38 1.387 50.12.69 48.919.998l-3.218.822c-1.218.311-1.918 1.519-1.559 2.696L45.36 8.51a32.286 32.286 0 0 0-7.915 4.535l-3.218-2.964c-.945-.87-2.454-.861-3.37.027l-2.449 2.372c-.926.897-.9 2.337.061 3.211l3.32 3.024a32.036 32.036 0 0 0-4.53 7.979l-4.655-1.038c-1.32-.294-2.664.477-2.999 1.724l-.893 3.328c-.338 1.255.47 2.505 1.8 2.788l4.802 1.023c-.34 2.97-.252 6.018.309 9.06l-4.926 1.51c-1.326.406-2.099 1.74-1.722 2.978l1.003 3.291c.377 1.238 1.758 1.9 3.079 1.48l5.04-1.605a30.38 30.38 0 0 0 4.95 7.392l-3.694 3.895c-.942.993-.914 2.487.063 3.332l2.59 2.24c.97.839 2.51.709 3.436-.287l3.719-3.996a31.465 31.465 0 0 0 7.93 3.672l-1.258 5.21c-.307 1.27.472 2.475 1.736 2.689l3.343.563c1.251.21 2.502-.641 2.799-1.9l1.231-5.223a32.028 32.028 0 0 0 8.55-.783l1.507 4.946c.36 1.178 1.609 1.777 2.788 1.34l3.116-1.157c1.164-.432 1.818-1.727 1.463-2.891l-1.49-4.892a32.248 32.248 0 0 0 6.966-4.721l3.624 3.3c.866.79 2.212.675 3.008-.25l2.103-2.45c.787-.915.732-2.292-.122-3.078l-3.532-3.254a32.001 32.001 0 0 0 3.787-7.341l4.534.965c1.113.237 2.212-.511 2.456-1.668l.649-3.068c.243-1.15-.453-2.28-1.558-2.526l-4.398-.98a30.67 30.67 0 0 0-.218-8.199l4.172-1.328c1.076-.342 1.67-1.52 1.332-2.631l-.9-2.957c-.339-1.112-1.486-1.746-2.565-1.415l-.002-.001ZM64.605 58.175c-11.932 4.124-24.884-2.166-28.544-14.182s3.546-24.588 15.704-27.97c11.744-3.267 23.764 3.313 27.201 14.6 3.439 11.287-2.835 23.568-14.361 27.552Z" fill="url(#a)"/><path d="m34.788 8.736-2.935.786-.209 2.909 3.144-3.695Z" fill="url(#b)"/><path d="m63.96 1.165 3.36-.987.752 2.471-4.112-1.484Z" fill="url(#c)"/><path d="m80.356 9.194 3.38-.882-.265 2.123-3.115-1.241Z" fill="url(#d)"/><path d="m90.51 23.726 3.453-.76-.603 1.972-2.85-1.212Z" fill="url(#e)"/><path d="m91.948 48.573 3.415-.53-.413-2.792-3.002 3.322Z" fill="url(#f)"/><path d="m83.099 64.44 3.1-.36-.427-2.242L83.1 64.44Z" fill="url(#g)"/><path d="m69.995 74.124-2.78.336 1.243-4.064 1.537 3.728Z" fill="url(#h)"/><path d="m54.84 75.64-3.265.3 1.496-3.593 1.77 3.293Z" fill="url(#i)"/><path d="m20.816 25.872 3.237-.876-.557 2.723-2.68-1.847Z" fill="url(#j)"/><path d="m22.099 52.958 3.07-.46-.966-2.333-2.104 2.793Z" fill="url(#k)"/><path d="m33.77 68.63 3.013-.407-.346-1.975-2.667 2.382Z" fill="url(#l)"/><path d="m93.587 23.041-4.11 1.26a30.648 30.648 0 0 0-4.275-7.191l2.863-3.076c.782-.84.73-2.182-.118-3L85.684 8.85c-.853-.823-2.187-.814-2.982.023l-2.84 2.995a31.568 31.568 0 0 0-7.492-4.268l.941-3.994c.27-1.146-.456-2.324-1.625-2.635L68.56.142c-1.181-.314-2.368.366-2.647 1.52l-.956 3.962a32.161 32.161 0 0 0-8.952-.003L54.794 1.64C54.436.465 53.166-.237 51.954.073l-3.246.83c-1.228.313-1.933 1.53-1.571 2.718l1.226 4.025a32.567 32.567 0 0 0-7.98 4.573L37.138 9.23c-.954-.878-2.474-.868-3.398.026l-2.469 2.393c-.934.905-.907 2.356.061 3.237l3.347 3.049a32.3 32.3 0 0 0-4.568 8.043l-4.694-1.045c-1.33-.297-2.686.48-3.024 1.738l-.902 3.354c-.34 1.266.475 2.526 1.817 2.811l4.84 1.03A30.897 30.897 0 0 0 28.46 43l-4.967 1.523c-1.337.41-2.116 1.754-1.735 3.002l1.01 3.319c.381 1.248 1.773 1.915 3.105 1.49l5.082-1.617a30.617 30.617 0 0 0 4.991 7.453l-3.725 3.926c-.949 1.002-.921 2.507.064 3.359l2.611 2.257c.979.847 2.53.715 3.465-.289l3.75-4.028a31.772 31.772 0 0 0 7.995 3.702l-1.269 5.254c-.309 1.28.476 2.494 1.75 2.71l3.372.567c1.26.213 2.522-.646 2.822-1.916l1.242-5.266a32.3 32.3 0 0 0 8.62-.79l1.52 4.987c.361 1.187 1.622 1.791 2.81 1.35l3.143-1.167c1.174-.436 1.833-1.74 1.475-2.914l-1.503-4.932a32.494 32.494 0 0 0 7.024-4.76l3.654 3.328c.873.795 2.23.68 3.032-.254l2.121-2.468c.793-.923.738-2.312-.123-3.104l-3.562-3.281a32.244 32.244 0 0 0 3.82-7.402l4.57.974c1.123.238 2.23-.516 2.477-1.682l.655-3.093c.246-1.16-.457-2.299-1.57-2.547l-4.436-.988c.293-2.714.231-5.49-.219-8.266l4.207-1.339c1.084-.345 1.684-1.532 1.343-2.653l-.909-2.98c-.341-1.121-1.497-1.76-2.585-1.427l.001.003ZM67.77 57.72c-12.03 4.158-25.09-2.183-28.78-14.297-3.69-12.114 3.577-24.788 15.835-28.2 11.842-3.294 23.96 3.34 27.426 14.72 3.466 11.378-2.859 23.76-14.481 27.777Z" fill="#FF8D8A"/><path d="M138.162 191.595c-3.158-1.047-5.517-3.727-6.182-7.019l-4.596-22.743-39.308 1.395-4.838 23.693c-.678 3.318 2.035 6.648 5.158 7.87l16.446 6.434a21.372 21.372 0 0 0 9.615 1.394l34.756-2.973a2.157 2.157 0 0 0 1.949-1.91c.118-1.025.83-2.175-.139-2.496l-12.861-3.644v-.001Z" fill="#BFC8D6"/><path d="M138.55 190.212a9.243 9.243 0 0 1-6.176-6.932l-4.591-22.457-38.35 1.38-4.834 23.395a6.845 6.845 0 0 0 4.234 7.769l16.43 6.354a21.595 21.595 0 0 0 9.604 1.376l34.721-2.936a2.143 2.143 0 0 0 .487-4.17l-11.526-3.779h.001Z" fill="#D8DEE8"/><path d="M7.75 176.946c-4.262.255-7.75-2.511-7.75-6.166V39.063c0-3.655 3.488-6.477 7.75-6.292l197.134 8.542c3.129.136 5.663 2.774 5.663 5.883V159.22c0 3.108-2.534 5.788-5.663 5.974L7.75 176.947v-.001Z" fill="#BFC8D6"/><path d="M9.524 176.946c-4.263.255-7.75-2.511-7.75-6.166V39.063c0-3.655 3.487-6.477 7.75-6.292l197.133 8.542c3.129.136 5.664 2.774 5.664 5.883V159.22c0 3.108-2.535 5.788-5.664 5.974L9.524 176.947v-.001Z" fill="#EBEFF2"/><path d="M206.657 43.95 9.524 35.84c-2.28-.094-4.132 1.412-4.132 3.363v131.379c0 1.952 1.852 3.428 4.131 3.296l197.134-11.32c1.677-.097 3.033-1.526 3.033-3.194V47.094c0-1.667-1.356-3.075-3.033-3.144Z" fill="#D8DEE8" style="mix-blend-mode:multiply" opacity=".3"/><path d="M9.523 162.689c-.888.043-1.61-.539-1.61-1.298V39.301c0-.76.723-1.349 1.61-1.314l197.133 7.807a1.244 1.244 0 0 1 1.186 1.228v104.683c0 .651-.532 1.207-1.186 1.239L9.523 162.689Z" fill="#BFC8D6"/><path d="M186.077 157.042c-16.585-10.259-5.001-39.428-23.626-54.083-18.777-14.775-45.2 3.347-58.353-11.955-9.794-11.393 1.666-25.151-7.685-35.866-14.666-16.804-52.207 6.307-69.455-10.247-2.449-2.351-4.92-5.917-6.326-11.638l-11.108-.48c-4.263-.186-7.75 2.636-7.75 6.291v131.718c0 3.655 3.487 6.42 7.75 6.166l197.133-11.752c3.129-.186 5.664-2.866 5.664-5.974v-1.992c-13.09 4.442-21.092 3-26.243-.187l-.001-.001Z" fill="#fff" style="mix-blend-mode:soft-light" opacity=".6"/><path d="m20.469 152.735 47.449-1.98V125.88l-47.45 1.15v25.705Z" fill="#F4F7FA" style="mix-blend-mode:soft-light"/><g opacity=".7" fill="#F4F7FA" style="mix-blend-mode:soft-light"><path d="m147.583 109.901 7.209-.1V57.096l-7.209-.184V109.9ZM134.573 110.082l7.349-.101V83.375l-7.349-.044v26.751ZM121.312 110.263l7.491-.103V51.34l-7.491-.22v59.143ZM107.785 110.451l7.641-.106V59.759l-7.641-.176v50.868ZM93.99 110.641l7.794-.108V96.835l-7.794.03v13.776ZM79.916 110.837l7.95-.11v-32.52l-7.95-.075v32.705ZM65.557 111.035l8.113-.113V63.579l-8.113-.16v47.616ZM50.902 111.236l8.28-.115V76.242l-8.28-.087v35.081ZM35.943 111.441l8.453-.116V56.664l-8.453-.203v54.98ZM20.67 111.653l8.63-.119v-61.39l-8.63-.244v61.753Z"/></g><path d="m161.409 146.853 35.461-1.479v-3.589l-35.461 1.381v3.687ZM161.409 99.261l35.461-.21v-3.59l-35.461.113v3.687ZM161.409 92.95l35.461-.043v-3.589l-35.461-.055v3.686ZM161.409 141.756l5.78-.219v-5.655l-5.78.195v5.679ZM33.499 137.078c3.015.113 3.462-1.632 6.43-1.8 5.032-.287 6.265 4.612 11.115 4.536 3.96-.061 4.956-3.368 8.875-3.001 2.914.272 3.487 2.211 6.328 2.49a6.834 6.834 0 0 0 1.67-.046v11.499l-47.45 1.98v-20.345c2.544.183 4.4.758 5.73 1.341 3.199 1.402 4.26 3.231 7.302 3.345v.001ZM161.409 84.26l35.461.19V53.339l-35.461-1.042V84.26ZM20.669 124.206l134.121-2.996v-5.622l-134.121 2.431v6.187ZM73.667 150.514l81.122-3.385v-23.743l-81.122 1.944v25.184Z" fill="#F4F7FA" style="mix-blend-mode:soft-light"/><path d="M59.797 123.979s1.733 9.24-7.732 16.308l10.562 1.948s3.016-6.416.062-16.633l-2.892-1.623Z" fill="url(#m)"/><path d="M61.726 125.651s.49-1.416.367-2.037c-.123-.62-1.654-1.376-2.712-2.186-1.06-.808.083.864.339 1.245.256.381 1.113.928 1.064 2.269l.942.709Z" fill="url(#n)"/><path d="M94.174 151.552c-3.767 1.155-8.122.14-10.973-2.885l-40.207-42.634c-3.661-3.882-3.47-9.915.442-13.51 3.94-3.618 12.009-4.163 15.737-.25l40.961 42.976c3.861 4.052 3.559 10.196-.66 13.687-1.039.86-4.058 2.234-5.3 2.615v.001Z" fill="url(#o)"/><path style="mix-blend-mode:multiply" opacity=".3" d="M43.436 92.524c3.94-3.619 12.009-4.164 15.737-.251l37.452 39.295c-3.628.401-7.515 1.959-12.519.085-8.331-3.119-7.913-11.314-15.24-15.7-3.35-2.005-8.684-3.432-17.564-1.109l-8.308-8.81c-3.661-3.883-3.47-9.916.442-13.51Z" fill="url(#p)"/><path d="M26.954 87.28a4.31 4.31 0 0 1 .554-.166l12.968-5.069 12.808 33.861-12.64 4.585a4.288 4.288 0 0 1-.94.498c-4.463 1.688-10.936-4.489-14.457-13.797-3.52-9.308-2.756-18.224 1.707-19.912Z" fill="url(#q)"/><path d="M40.477 82.045c-.668 13.141 3.581 24.376 12.808 33.861l108.652-5.496-34.946-95.415-86.514 67.05Z" fill="url(#r)"/><path style="mix-blend-mode:multiply" opacity=".3" d="M125.22 92.367c-10.53-.006-18.446-12.286-29.31-8.691-8.523 2.821-7.97 11.924-16.523 14.155-8.756 2.284-13.602-6.255-24.236-5.889-4.834.167-9.216 2.131-13.102 5.006 1.962 6.955 5.698 13.265 11.236 18.958l108.653-5.495-17.936-30.101c-7.445 9.184-13.676 12.058-18.781 12.056h-.001Z" fill="url(#s)"/><path d="M167.108 109.881c13.014-4.923 15.241-30.916 4.974-58.057-10.266-27.142-29.139-45.154-42.153-40.231-13.014 4.922-15.241 30.916-4.974 58.057 10.267 27.142 29.139 45.154 42.153 40.231Z" fill="url(#t)"/><path d="M166.475 108.219c2.763-1.045 5.04-3.231 6.767-6.497 1.757-3.325 2.869-7.592 3.306-12.684.917-10.706-1.261-23.696-6.134-36.578-4.873-12.883-11.837-24.063-19.609-31.48-3.698-3.53-7.356-5.993-10.874-7.322-3.456-1.306-6.609-1.438-9.372-.393s-5.04 3.231-6.766 6.498c-1.758 3.324-2.87 7.591-3.307 12.684-.383 4.476-.225 9.352.444 14.452.932 7.097 7.938 12.225 10.773 19.72 3.014 7.971 1.747 17.695 6.06 23.875 2.657 3.808 5.503 7.183 8.467 10.011 3.697 3.529 7.355 5.992 10.873 7.321 3.456 1.306 6.609 1.438 9.372.393Z" fill="url(#u)"/><path d="M150.701 60.651c4.709 12.452.204 25.456-9.918 28.996-9.965 3.485-21.643-3.54-26.222-15.645-4.578-12.104-.428-24.978 9.407-28.807 9.99-3.89 22.022 3.005 26.732 15.456h.001Z" fill="url(#v)"/><path style="mix-blend-mode:multiply" opacity=".3" d="M149.038 61.048c3.497 9.246 2.256 18.106-2.7 19.767-4.879 1.635-11.536-4.344-14.936-13.333-3.4-8.988-2.332-17.786 2.45-19.676 4.858-1.92 11.688 3.997 15.186 13.242Z" fill="url(#w)"/><path d="M163.475 35.406c9.013-3.768 13.887-12.638 10.887-19.812-2.999-7.175-12.737-9.936-21.749-6.168-9.012 3.768-13.886 12.639-10.887 19.813 3 7.174 12.737 9.935 21.749 6.167Z" fill="url(#x)"/><path d="m155.526 30.741-5.165-12.357c-.331-.793.116-1.593.835-1.492l12.994 1.827c.822.115 1.309 1.28.814 1.947l-7.828 10.53c-.433.583-1.317.338-1.649-.455h-.001Z" fill="#fff"/><path d="M166.054 30.455c-3.573-3.014-3.081-7.432-6.78-8.798-3.757-1.389-6.292 2.422-10.931 1.952-1.793-.182-4.053-1.02-6.567-3.638-1.185 3.063-1.289 6.316-.051 9.28 3 7.174 12.737 9.937 21.749 6.17a21.694 21.694 0 0 0 5.498-3.312 9.34 9.34 0 0 1-2.919-1.653l.001-.001Z" fill="url(#y)" style="mix-blend-mode:multiply" opacity=".3"/><path d="M188.191 66.23c11.681-2.92 19.266-12.827 16.941-22.126-2.326-9.3-13.681-14.47-25.362-11.548-11.681 2.92-19.266 12.827-16.94 22.126 2.325 9.3 13.68 14.47 25.361 11.548Z" fill="url(#z)"/><path d="M181.228 38.36a7.798 7.798 0 0 0-5.673 9.458c.678 2.708 5.43 8.211 8.691 11.75 1.356 1.47 3.8.86 4.304-1.077 1.211-4.658 2.813-11.75 2.135-14.458a7.798 7.798 0 0 0-9.457-5.672Zm2.908 11.627a4.188 4.188 0 0 1-2.033-8.123 4.188 4.188 0 0 1 2.033 8.123Z" fill="#fff"/><path d="M192.258 60.639c-3.795-4.334-2.378-9.627-6.632-11.978-4.321-2.387-8.116 1.787-13.683.355-2.152-.554-4.75-1.993-7.329-5.649-2.011 3.513-2.741 7.458-1.781 11.299 2.326 9.299 13.681 14.468 25.362 11.546a26.741 26.741 0 0 0 7.313-3.017c-1.427-.768-2.468-1.663-3.251-2.556h.001Z" fill="url(#A)" style="mix-blend-mode:multiply" opacity=".3"/><path d="M193.523 91.297c-1.494 7.46-9.97 12.072-19.068 10.274-9.25-1.828-15.616-9.564-14.077-17.251 1.539-7.687 10.361-12.227 19.566-10.17 9.052 2.024 15.072 9.688 13.579 17.147Z" fill="url(#B)"/><path d="M193.523 91.297c-1.494 7.46-9.97 12.072-19.068 10.274-9.25-1.828-15.616-9.564-14.077-17.251 1.539-7.687 10.361-12.227 19.566-10.17 9.052 2.024 15.072 9.688 13.579 17.147Z" fill="url(#C)"/><path d="M187.178 86.145c-.309-2.062-1.759-3.79-3.779-4.23-2.646-.574-5.266 1.28-5.84 4.146.574-2.864-1.124-5.657-3.804-6.239-2.064-.448-4.11.544-5.214 2.335-4.12 6.39 6.729 15.343 6.729 15.343s13.164-3.97 11.909-11.355h-.001Z" fill="#fff"/><path d="M179.172 98.887c-1.182-4.442 1.584-7.801-.583-10.975-2.213-3.24-6.297-1.523-9.747-4.524-1.341-1.167-2.7-3.145-3.286-6.75-2.652 1.862-4.539 4.507-5.175 7.682-1.539 7.687 4.826 15.424 14.076 17.252 2.098.414 4.161.488 6.112.267a9.197 9.197 0 0 1-1.397-2.952Z" fill="url(#D)" style="mix-blend-mode:multiply" opacity=".3"/><path d="m54.053 202.231-.217 3.469s.493.522 1.44.159l1.035-3.407-2.259-.221h.001Z" fill="url(#E)"/><path d="M54.488 204.783s-1.7.692-1.37 1.444c.177.404.79 1.315 1.32 2.073a1.984 1.984 0 0 0 2.195.765c.275-.082.556-.163.805-.227.515-.133.546-.853.044-1.03a4.051 4.051 0 0 0-.694-.187c-.622-.096-1.478-1.566-1.578-2.154-.1-.589-.722-.685-.722-.685v.001Z" fill="url(#F)"/><path d="M50.404 168.936c2.503.864 11.757 4.362 13.818 12.385.11.429.393 1.62.406 3.566.053 8.099-4.657 14.953-8.082 18.94l-3.24-.054c-.538-2.067-1.034-5.159-.259-8.637 1.185-5.317 4.258-6.696 3.665-9.305-1.076-4.739-12.08-4.022-13.117-8.266-.374-1.533.449-4.134 6.809-8.629Z" fill="url(#G)"/><path d="m19.45 217.422 4.7-.11c.29-.006.414-.367.192-.554a1.192 1.192 0 0 0-.907-.294c-.893.093-2.898-1.157-3.807-.889-.298.088-.54.787-.663.98a.563.563 0 0 0 .486.867Z" fill="url(#H)"/><path d="m21.561 213.812-1.935 1.764s.675.505 1.661.289l1.978-1.362-1.704-.691Z" fill="url(#I)"/><path d="M58.704 189.828c1.298-3.504 2.854-7.824 1.077-10.277-1.799-2.483-5.74-.388-9.694-2.388-1.466-.741-2.973-2.07-4.227-4.473-2.22 2.291-2.52 3.829-2.266 4.872 1.037 4.244 12.04 3.526 13.117 8.265.593 2.61-2.48 3.989-3.665 9.305-.667 2.991-.393 5.693.039 7.707a26.697 26.697 0 0 1 1.898-5.815c1.418-3.072 2.354-3.503 3.721-7.195v-.001Z" fill="url(#J)" style="mix-blend-mode:color-burn" opacity=".3"/><path d="M51.837 167.924c-1.523 6.992-4.769 17.671-12.205 28.817A83.957 83.957 0 0 1 23.337 214.8a3.961 3.961 0 0 1-2.836-.218 26.948 26.948 0 0 1 2.65-8.03c2.99-5.755 5.653-5.571 8.657-10.651 2.199-3.72 2.915-7.671 4.345-15.574 1.105-6.103 1.105-7.561 2.617-9.311 3.058-3.538 8.8-3.578 13.069-3.092Z" fill="url(#K)"/><path d="M24.296 207.853c1.067-1.684 2.96-3.438 6.696-6.898 3.86-3.576 3.712-2.93 4.472-3.986 3.402-4.731 1.56-9.787 2.401-15.888.47-3.403 1.973-7.851 6.349-12.834-2.051.379-4.015 1.192-5.444 2.769-1.756 1.937-1.627 3.834-2.618 9.311-1.43 7.903-2.145 11.854-4.345 15.574-3.004 5.081-5.667 4.895-8.657 10.652a26.934 26.934 0 0 0-2.65 8.029 3.952 3.952 0 0 0 2.306.337c-.246-4 .949-6.21 1.49-7.065v-.001Z" fill="url(#L)" style="mix-blend-mode:multiply" opacity=".3"/><path d="M46.098 131.344c.513-1.01.725-1.004.85-1.538.288-1.215-.453-2.759-1.082-2.781-.405-.013-.439.617-1.296 1.599-1.051 1.203-1.69 1.045-2.308 2.09-.145.244-.796 1.344-.395 2.164.51 1.047 2.526 1.213 3.368.405.399-.383.231-.694.863-1.939Z" fill="url(#M)"/><path d="M44.589 132.433s.36 1.92.103 3.482c-.231 1.411-2.845 2.878-3.346 3.298-.501.42 1.329.876 3.007.656 1.679-.219 6.275-1.69 6.974-2.51.698-.819-.813-.416-2.085-.571-1.271-.156-2.485-2.287-2.523-3.374-.037-1.087-2.131-.982-2.131-.982v.001Z" fill="url(#N)"/><path d="M45.137 133.866s1.285.564 2.423-.346c1.02-.815-.496-3.319-1.533-3.351-.345-.01-.85.237-1.149.6-.176.214-.186.357-.48.702-.273.317-.391.346-.433.5-.051.192.038.515.735 1.069-.348-.064-.647.028-.764.23a.447.447 0 0 0-.045.238c.042.378.535.552 1.246.358Z" fill="url(#O)"/><path d="M73.379 127.187s.778-.108.536-1.595c-.19-1.165-.046-1.557.229-1.35.275.206.313.879.313.879s1.004-.856 1.417-1.977c.413-1.121.678-.177.767.384.088.56-.59 2.301-.974 2.626-.384.325-.944 1.755-.944 1.755l-1.344-.722Z" fill="url(#P)"/><path d="m75.454 127.585-2.656-1.86c-1.077 6.622-3.526 9.221-5.606 10.358-5.017 2.743-9.496-2.144-19.1-.15-2.646.549-7.26 1.573-9.816 5.343-.673.992-.912 1.741-2.028 8.85-1.428 9.088-1.478 10.674-1.277 12.631.368 3.581.591 5.751 2.243 7.672 4.383 5.1 13.702 2.47 14.871 2.124 2.159-.639 5.512-1.633 6.845-4.485.627-1.342.56-2.569-.403-7.476-1.91-9.721-2.153-10.351-1.62-11.415 1.798-3.592 7.497-1.537 12.31-4.878 2.815-1.953 5.987-6.209 6.237-16.714Z" fill="url(#Q)"/><path style="mix-blend-mode:multiply" opacity=".3" d="M47.718 171.255c.94-1.928-.323-3.704 1.062-6.02 1.765-2.952 4.942-1.95 6.137-4.131 2.044-3.73-6.002-8.933-4.367-14.872.78-2.835 3.507-4.887 5.784-5.665 5.055-1.726 8.36 2.674 13.1 1.298 1.124-.326 2.413-1.001 3.717-2.403-1.152 2.431-2.584 3.9-3.933 4.837-4.814 3.341-10.513 1.285-12.31 4.877-.533 1.065-.29 1.694 1.62 11.415.963 4.907 1.03 6.135.403 7.476-1.333 2.852-4.688 3.846-6.846 4.486-.64.189-3.721 1.06-7.099.976 1.508-.613 2.318-1.424 2.733-2.274h-.001Z" fill="url(#R)"/><path d="m186.794 144.094-2.593.795a19.317 19.317 0 0 0-2.698-4.537l1.806-1.94c.494-.53.46-1.376-.075-1.892l-1.427-1.377c-.538-.519-1.379-.513-1.88.015l-1.792 1.889a19.897 19.897 0 0 0-4.725-2.693l.593-2.519c.171-.723-.287-1.466-1.025-1.663l-1.972-.524c-.745-.198-1.494.231-1.67.96l-.603 2.499a20.258 20.258 0 0 0-5.646-.002l-.765-2.512c-.225-.741-1.027-1.184-1.791-.988l-2.047.523c-.775.198-1.22.966-.992 1.715l.774 2.539a20.532 20.532 0 0 0-5.034 2.884l-2.047-1.885c-.601-.554-1.56-.548-2.143.017l-1.558 1.509a1.384 1.384 0 0 0 .039 2.042l2.112 1.923a20.37 20.37 0 0 0-2.881 5.074l-2.961-.659c-.839-.187-1.694.303-1.907 1.096l-.569 2.116c-.214.799.3 1.594 1.146 1.774l3.054.65a19.513 19.513 0 0 0 .195 5.763l-3.132.96c-.843.258-1.335 1.107-1.095 1.894l.638 2.094c.24.787 1.118 1.207 1.958.94l3.206-1.019a19.333 19.333 0 0 0 3.148 4.701l-2.348 2.477c-.6.632-.582 1.582.039 2.12l1.647 1.424c.617.534 1.596.45 2.186-.183l2.365-2.54a19.991 19.991 0 0 0 5.043 2.335l-.8 3.314c-.195.808.3 1.574 1.105 1.709l2.126.359c.795.134 1.591-.408 1.78-1.209l.783-3.322a20.315 20.315 0 0 0 5.437-.498l.959 3.146c.228.749 1.023 1.13 1.772.852l1.982-.736c.74-.275 1.156-1.097.931-1.838l-.948-3.111a20.59 20.59 0 0 0 4.431-3.002l2.304 2.099c.551.502 1.407.429 1.913-.16l1.338-1.557c.5-.583.465-1.458-.078-1.959l-2.247-2.069a20.388 20.388 0 0 0 2.409-4.67l2.883.615c.707.15 1.406-.325 1.562-1.062l.412-1.951c.155-.731-.288-1.45-.99-1.606l-2.797-.623a19.512 19.512 0 0 0-.139-5.214l2.654-.845c.684-.218 1.062-.967.847-1.674l-.573-1.88c-.216-.707-.945-1.11-1.631-.9l.002-.003Zm-16.285 21.876c-7.589 2.623-15.827-1.377-18.155-9.02-2.328-7.642 2.255-15.637 9.988-17.789 7.47-2.079 15.114 2.107 17.3 9.286 2.187 7.178-1.802 14.99-9.133 17.523Z" fill="url(#S)"/><path d="m151.544 134.527-1.867.499-.132 1.851 1.999-2.35Z" fill="url(#T)"/><path d="m170.1 129.711 2.136-.627.479 1.571-2.615-.944Z" fill="url(#U)"/><path d="m180.525 134.818 2.15-.561-.168 1.35-1.982-.789Z" fill="url(#V)"/><path d="m186.983 144.062 2.196-.484-.383 1.254-1.813-.77Z" fill="url(#W)"/><path d="m187.898 159.863 2.172-.336-.263-1.776-1.909 2.112Z" fill="url(#X)"/><path d="m182.271 169.956 1.973-.229-.272-1.425-1.701 1.654Z" fill="url(#Y)"/><path d="m173.935 176.113-1.768.214.791-2.585.977 2.371Z" fill="url(#Z)"/><path d="m164.299 177.079-2.076.192.951-2.286 1.125 2.094Z" fill="url(#aa)"/><path d="m142.659 145.426 2.058-.557-.354 1.732-1.704-1.175Z" fill="url(#ab)"/><path d="m143.474 162.653 1.952-.293-.614-1.484-1.338 1.777Z" fill="url(#ac)"/><path d="m150.896 172.619 1.917-.259-.22-1.255-1.697 1.514Z" fill="url(#ad)"/><path d="m188.94 143.625-2.614.801a19.427 19.427 0 0 0-2.72-4.573l1.821-1.956c.498-.535.464-1.387-.075-1.908l-1.438-1.388c-.542-.523-1.392-.517-1.897.015l-1.806 1.905a20.067 20.067 0 0 0-4.765-2.715l.599-2.54c.172-.729-.29-1.478-1.033-1.676l-1.987-.528c-.752-.2-1.506.233-1.684.968l-.608 2.518a20.441 20.441 0 0 0-5.693-.002l-.771-2.531c-.228-.748-1.035-1.194-1.806-.997l-2.064.527c-.781.2-1.23.974-.999 1.73l.779 2.559a20.66 20.66 0 0 0-5.074 2.909l-2.064-1.901c-.606-.558-1.574-.552-2.161.017l-1.571 1.521a1.396 1.396 0 0 0 .039 2.059l2.129 1.939a20.58 20.58 0 0 0-2.906 5.116l-2.985-.664c-.846-.189-1.708.305-1.923 1.104l-.574 2.134c-.216.805.302 1.606 1.156 1.787l3.078.656a19.654 19.654 0 0 0 .198 5.809l-3.159.969c-.85.26-1.346 1.116-1.104 1.91l.643 2.111c.241.794 1.127 1.218 1.974.947l3.232-1.028a19.483 19.483 0 0 0 3.175 4.74l-2.369 2.497c-.604.637-.586 1.594.041 2.136l1.661 1.436c.622.538 1.609.455 2.203-.184l2.385-2.562a20.188 20.188 0 0 0 5.085 2.355l-.807 3.341c-.197.814.302 1.586 1.113 1.723l2.144.362c.802.134 1.604-.412 1.795-1.219l.79-3.349c1.81.078 3.653-.083 5.483-.502l.966 3.171c.23.755 1.032 1.139 1.788.858l1.998-.742c.747-.277 1.166-1.106.938-1.853l-.955-3.137a20.635 20.635 0 0 0 4.467-3.027l2.323 2.117c.556.505 1.42.432 1.929-.161l1.349-1.57c.504-.587.469-1.47-.079-1.974l-2.265-2.087a20.494 20.494 0 0 0 2.429-4.707l2.907.619c.714.152 1.418-.327 1.576-1.07l.416-1.967c.156-.737-.291-1.462-1-1.62l-2.82-.628a19.666 19.666 0 0 0-.139-5.257l2.675-.852c.689-.22 1.071-.975.854-1.688l-.577-1.896c-.218-.713-.953-1.119-1.645-.907h-.001Zm-16.42 22.055c-7.652 2.645-15.957-1.388-18.305-9.093-2.347-7.704 2.276-15.765 10.072-17.935 7.531-2.095 15.239 2.124 17.443 9.362 2.204 7.237-1.819 15.111-9.21 17.666Z" fill="#FF8D8A"/><defs><linearGradient id="C" x1="173.102" y1="75.208" x2="187.358" y2="121.802" gradientUnits="userSpaceOnUse"><stop stop-color="#FF9085"/><stop offset="1" stop-color="#FB6FBB"/></linearGradient><linearGradient id="a" x1="-30.896" y1="81.535" x2="99.967" y2="16.885" gradientUnits="userSpaceOnUse"><stop stop-color="#311944"/><stop offset="1" stop-color="#A03976"/></linearGradient><linearGradient id="c" x1="-43.503" y1="56.013" x2="87.359" y2="-8.637" gradientUnits="userSpaceOnUse"><stop stop-color="#311944"/><stop offset="1" stop-color="#A03976"/></linearGradient><linearGradient id="d" x1="-37.244" y1="68.683" x2="93.619" y2="4.032" gradientUnits="userSpaceOnUse"><stop stop-color="#311944"/><stop offset="1" stop-color="#A03976"/></linearGradient><linearGradient id="e" x1="-29.514" y1="84.333" x2="101.349" y2="19.682" gradientUnits="userSpaceOnUse"><stop stop-color="#311944"/><stop offset="1" stop-color="#A03976"/></linearGradient><linearGradient id="f" x1="-20.02" y1="103.55" x2="110.843" y2="38.899" gradientUnits="userSpaceOnUse"><stop stop-color="#311944"/><stop offset="1" stop-color="#A03976"/></linearGradient><linearGradient id="g" x1="-15.342" y1="113.019" x2="115.52" y2="48.368" gradientUnits="userSpaceOnUse"><stop stop-color="#311944"/><stop offset="1" stop-color="#A03976"/></linearGradient><linearGradient id="h" x1="-14.937" y1="113.84" x2="115.927" y2="49.189" gradientUnits="userSpaceOnUse"><stop stop-color="#311944"/><stop offset="1" stop-color="#A03976"/></linearGradient><linearGradient id="i" x1="-17.246" y1="109.168" x2="113.618" y2="44.517" gradientUnits="userSpaceOnUse"><stop stop-color="#311944"/><stop offset="1" stop-color="#A03976"/></linearGradient><linearGradient id="j" x1="-42.225" y1="58.601" x2="88.637" y2="-6.049" gradientUnits="userSpaceOnUse"><stop stop-color="#311944"/><stop offset="1" stop-color="#A03976"/></linearGradient><linearGradient id="k" x1="-31.986" y1="79.328" x2="98.877" y2="14.677" gradientUnits="userSpaceOnUse"><stop stop-color="#311944"/><stop offset="1" stop-color="#A03976"/></linearGradient><linearGradient id="l" x1="-23.331" y1="96.847" x2="107.532" y2="32.197" gradientUnits="userSpaceOnUse"><stop stop-color="#311944"/><stop offset="1" stop-color="#A03976"/></linearGradient><linearGradient id="m" x1="58.175" y1="142.381" x2="57.342" y2="113.229" gradientUnits="userSpaceOnUse"><stop stop-color="#F36F56"/><stop offset="1" stop-color="#FFC444"/></linearGradient><linearGradient id="n" x1="60.517" y1="122.866" x2="60.411" y2="129.174" gradientUnits="userSpaceOnUse"><stop stop-color="#F36F56"/><stop offset="1" stop-color="#FFC444"/></linearGradient><linearGradient id="o" x1="79.434" y1="98.598" x2="63.66" y2="142.957" gradientUnits="userSpaceOnUse"><stop stop-color="#311944"/><stop offset="1" stop-color="#893976"/></linearGradient><linearGradient id="p" x1="74.801" y1="96.949" x2="59.027" y2="141.309" gradientUnits="userSpaceOnUse"><stop stop-color="#311944"/><stop offset="1" stop-color="#893976"/></linearGradient><linearGradient id="q" x1="22.612" y1="92.837" x2="55.853" y2="111.25" gradientUnits="userSpaceOnUse"><stop stop-color="#311944"/><stop offset="1" stop-color="#893976"/></linearGradient><linearGradient id="r" x1="69.274" y1="32" x2="150.542" y2="167.424" gradientUnits="userSpaceOnUse"><stop stop-color="#AA80F9"/><stop offset="1" stop-color="#6165D7"/></linearGradient><linearGradient id="s" x1="60.379" y1="35.664" x2="142.663" y2="172.781" gradientUnits="userSpaceOnUse"><stop stop-color="#AA80F9"/><stop offset="1" stop-color="#6165D7"/></linearGradient><linearGradient id="t" x1="110.651" y1="39.762" x2="186.355" y2="81.699" gradientUnits="userSpaceOnUse"><stop stop-color="#E38DDD"/><stop offset="1" stop-color="#9571F6"/></linearGradient><linearGradient id="u" x1="118.379" y1="71.272" x2="169.332" y2="53.468" gradientUnits="userSpaceOnUse"><stop stop-color="#311944"/><stop offset="1" stop-color="#893976"/></linearGradient><linearGradient id="v" x1="106.191" y1="23.284" x2="159.253" y2="111.705" gradientUnits="userSpaceOnUse"><stop stop-color="#FFC444"/><stop offset="1" stop-color="#F36F56"/></linearGradient><linearGradient id="w" x1="120.709" y1="31.769" x2="159.861" y2="97.01" gradientUnits="userSpaceOnUse"><stop stop-color="#FFC444"/><stop offset="1" stop-color="#F36F56"/></linearGradient><linearGradient id="x" x1="147.674" y1="14.026" x2="186.032" y2="45.063" gradientUnits="userSpaceOnUse"><stop stop-color="#FFC444"/><stop offset="1" stop-color="#F36F56"/></linearGradient><linearGradient id="y" x1="142.442" y1="19.073" x2="181.404" y2="52.73" gradientUnits="userSpaceOnUse"><stop stop-color="#FFC444"/><stop offset="1" stop-color="#F36F56"/></linearGradient><linearGradient id="z" x1="172.894" y1="37.247" x2="213.883" y2="82.179" gradientUnits="userSpaceOnUse"><stop stop-color="#AA80F9"/><stop offset="1" stop-color="#6165D7"/></linearGradient><linearGradient id="A" x1="165.591" y1="42.391" x2="206.838" y2="90.62" gradientUnits="userSpaceOnUse"><stop stop-color="#AA80F9"/><stop offset="1" stop-color="#6165D7"/></linearGradient><linearGradient id="B" x1="173.102" y1="75.208" x2="187.358" y2="121.802" gradientUnits="userSpaceOnUse"><stop stop-color="#FF9085"/><stop offset="1" stop-color="#FB6FBB"/></linearGradient><linearGradient id="b" x1="-46.627" y1="49.696" x2="84.237" y2="-14.956" gradientUnits="userSpaceOnUse"><stop stop-color="#311944"/><stop offset="1" stop-color="#A03976"/></linearGradient><linearGradient id="D" x1="166.342" y1="76.35" x2="179.689" y2="125.584" gradientUnits="userSpaceOnUse"><stop stop-color="#FF9085"/><stop offset="1" stop-color="#FB6FBB"/></linearGradient><linearGradient id="E" x1="53.591" y1="204.254" x2="56.534" y2="203.754" gradientUnits="userSpaceOnUse"><stop stop-color="#F36F56"/><stop offset="1" stop-color="#FFC444"/></linearGradient><linearGradient id="F" x1="57.215" y1="191.161" x2="54.106" y2="219.551" gradientUnits="userSpaceOnUse"><stop stop-color="#444B8C"/><stop offset="1" stop-color="#26264F"/></linearGradient><linearGradient id="G" x1="62.994" y1="178.483" x2="37.68" y2="199.277" gradientUnits="userSpaceOnUse"><stop stop-color="#AB316D"/><stop offset="1" stop-color="#792D3D"/></linearGradient><linearGradient id="H" x1="32.946" y1="187.92" x2="23.77" y2="211.469" gradientUnits="userSpaceOnUse"><stop stop-color="#444B8C"/><stop offset="1" stop-color="#26264F"/></linearGradient><linearGradient id="I" x1="19.691" y1="214.736" x2="23.198" y2="215.066" gradientUnits="userSpaceOnUse"><stop stop-color="#F36F56"/><stop offset="1" stop-color="#FFC444"/></linearGradient><linearGradient id="J" x1="74.615" y1="196.258" x2="43.341" y2="185.7" gradientUnits="userSpaceOnUse"><stop stop-color="#AB316D"/><stop offset="1" stop-color="#792D3D"/></linearGradient><linearGradient id="K" x1="42.181" y1="178.411" x2="24.128" y2="214.606" gradientUnits="userSpaceOnUse"><stop stop-color="#AB316D"/><stop offset="1" stop-color="#792D3D"/></linearGradient><linearGradient id="L" x1="39.923" y1="178.26" x2="22.245" y2="213.703" gradientUnits="userSpaceOnUse"><stop stop-color="#AB316D"/><stop offset="1" stop-color="#792D3D"/></linearGradient><linearGradient id="M" x1="44.326" y1="132.452" x2="44.545" y2="125.021" gradientUnits="userSpaceOnUse"><stop stop-color="#444B8C"/><stop offset="1" stop-color="#26264F"/></linearGradient><linearGradient id="N" x1="45.541" y1="125.572" x2="47.575" y2="156.085" gradientUnits="userSpaceOnUse"><stop stop-color="#F36F56"/><stop offset="1" stop-color="#FFC444"/></linearGradient><linearGradient id="O" x1="40.267" y1="128.954" x2="47.478" y2="133.378" gradientUnits="userSpaceOnUse"><stop stop-color="#F36F56"/><stop offset="1" stop-color="#FFC444"/></linearGradient><linearGradient id="P" x1="74.278" y1="127.285" x2="73.059" y2="131.18" gradientUnits="userSpaceOnUse"><stop stop-color="#F36F56"/><stop offset="1" stop-color="#FFC444"/></linearGradient><linearGradient id="Q" x1="30.303" y1="181.468" x2="67.596" y2="126.998" gradientUnits="userSpaceOnUse"><stop stop-color="#F36F56"/><stop offset="1" stop-color="#FFC444"/></linearGradient><linearGradient id="R" x1="62.281" y1="139.761" x2="54.727" y2="179.103" gradientUnits="userSpaceOnUse"><stop stop-color="#F36F56"/><stop offset="1" stop-color="#FFC444"/></linearGradient><linearGradient id="S" x1="109.765" y1="180.831" x2="192.994" y2="139.712" gradientUnits="userSpaceOnUse"><stop stop-color="#311944"/><stop offset="1" stop-color="#A03976"/></linearGradient><linearGradient id="T" x1="99.76" y1="160.581" x2="182.99" y2="119.463" gradientUnits="userSpaceOnUse"><stop stop-color="#311944"/><stop offset="1" stop-color="#A03976"/></linearGradient><linearGradient id="U" x1="101.748" y1="164.599" x2="184.977" y2="123.481" gradientUnits="userSpaceOnUse"><stop stop-color="#311944"/><stop offset="1" stop-color="#A03976"/></linearGradient><linearGradient id="V" x1="105.726" y1="172.657" x2="188.957" y2="131.539" gradientUnits="userSpaceOnUse"><stop stop-color="#311944"/><stop offset="1" stop-color="#A03976"/></linearGradient><linearGradient id="W" x1="110.644" y1="182.612" x2="193.873" y2="141.494" gradientUnits="userSpaceOnUse"><stop stop-color="#311944"/><stop offset="1" stop-color="#A03976"/></linearGradient><linearGradient id="X" x1="116.681" y1="194.833" x2="199.911" y2="153.714" gradientUnits="userSpaceOnUse"><stop stop-color="#311944"/><stop offset="1" stop-color="#A03976"/></linearGradient><linearGradient id="Y" x1="119.659" y1="200.857" x2="202.888" y2="159.739" gradientUnits="userSpaceOnUse"><stop stop-color="#311944"/><stop offset="1" stop-color="#A03976"/></linearGradient><linearGradient id="Z" x1="119.914" y1="201.377" x2="203.144" y2="160.258" gradientUnits="userSpaceOnUse"><stop stop-color="#311944"/><stop offset="1" stop-color="#A03976"/></linearGradient><linearGradient id="aa" x1="118.448" y1="198.407" x2="201.679" y2="157.289" gradientUnits="userSpaceOnUse"><stop stop-color="#311944"/><stop offset="1" stop-color="#A03976"/></linearGradient><linearGradient id="ab" x1="102.559" y1="166.245" x2="185.79" y2="125.127" gradientUnits="userSpaceOnUse"><stop stop-color="#311944"/><stop offset="1" stop-color="#A03976"/></linearGradient><linearGradient id="ac" x1="109.071" y1="179.427" x2="192.301" y2="138.31" gradientUnits="userSpaceOnUse"><stop stop-color="#311944"/><stop offset="1" stop-color="#A03976"/></linearGradient><linearGradient id="ad" x1="114.577" y1="190.569" x2="197.806" y2="149.451" gradientUnits="userSpaceOnUse"><stop stop-color="#311944"/><stop offset="1" stop-color="#A03976"/></linearGradient></defs></svg>