<svg width="232" height="193" fill="none" xmlns="http://www.w3.org/2000/svg"><path d="m23.523 32.859 12.32 37h-5.022l-3.071-9.25H13.875l-3.071 9.25H5.78l12.322-37h5.42Zm2.673 23.125-5.384-16.188-5.383 16.188h10.767Zm2.927-35.844c.024-.963.036-1.915.036-2.854V12.335c0-.698-.012-1.397-.036-2.095 0-.12.024-.253.072-.398a2.03 2.03 0 0 1 .47-.072l3 .072c.987.024 1.998.036 3.034.036h9.937v-.397c0-.723-.012-1.457-.036-2.204-.025-.747-.12-1.47-.29-2.168 1.663 0 3.313.072 4.95.217.145.024.29.06.434.108.145.048.23.169.253.361 0 .145-.036.29-.108.434a3.31 3.31 0 0 0-.18.434c-.049.12-.085.3-.11.542-.023.24-.047.505-.072.795-.024.289-.036.554-.036.794V9.88h10.696c1.011 0 2.011-.013 2.999-.037l3.035-.072c.168 0 .325.036.47.108.072.12.108.241.108.362l-.072 1.264c-.024.434-.036.868-.036 1.301v2.096c0 .867.012 1.734.036 2.601l.072 2.638v.253a.243.243 0 0 1-.108.217c-.193.048-.35.072-.47.072h-.903c-.482 0-.976.012-1.482.036-.458 0-.867-.012-1.228-.036-.362-.024-.566-.06-.615-.108-.048-.193-.072-.482-.072-.868 0-.385-.012-.819-.036-1.3 0-.795.012-1.614.036-2.457.024-.843.036-1.47.036-1.88H33.93v1.41c0 .361.012.735.036 1.12.024.386.024.795 0 1.229 0 .698-.012 1.325-.036 1.878-.024.555-.06.868-.109.94a2.03 2.03 0 0 1-.47.072h-3.685c-.265 0-.421-.036-.47-.108-.048-.072-.072-.229-.072-.47Zm15.248 22.005c.578 0 1.012-.084 1.3-.253.29-.169.447-.578.47-1.228v-6.866H34.616c-.963 0-1.927.012-2.89.036l-2.891.073c-.193 0-.337-.036-.434-.109a1.265 1.265 0 0 1-.072-.397v-3.722c0-.096.036-.18.108-.253.145-.048.277-.072.398-.072l2.89.072c.964.024 1.928.036 2.891.036h11.527a24.477 24.477 0 0 1-.073-1.878c0-.627-.072-1.265-.217-1.915.482.048.952.084 1.41.108.457.024.94.072 1.445.144h.108a.59.59 0 0 1 .145.037 31.31 31.31 0 0 0 2.42-1.915c.772-.675 1.542-1.361 2.313-2.06H42.565c-1.012 0-2.012.012-3 .036l-3.035.072c-.192 0-.337-.036-.433-.108a1.265 1.265 0 0 1-.073-.398v-3.432c0-.096.024-.241.073-.434a1.98 1.98 0 0 1 .433-.072l3 .072c.987.024 1.999.036 3.035.036h13.477c.385 0 .747-.048 1.084-.144a4.98 4.98 0 0 1 .903-.18c.193 0 .47.144.831.433a10.4 10.4 0 0 1 1.084 1.011c.362.386.675.771.94 1.157.265.385.41.686.433.903 0 .24-.072.422-.216.542-.145.12-.326.24-.542.361a4.915 4.915 0 0 0-.976.65c-.313.266-.614.519-.903.76a136.54 136.54 0 0 1-3.758 2.999 64.4 64.4 0 0 1-3.975 2.818v.397h11.599c.963 0 1.915-.012 2.854-.036l2.855-.072c.169 0 .325.036.47.108.048.193.072.35.072.47v3.469c0 .096-.024.24-.072.433-.193.049-.35.073-.47.073l-2.855-.072c-.94-.025-1.89-.037-2.854-.037H50.947v1.193a195.344 195.344 0 0 0 .145 7.515v.145a4.91 4.91 0 0 1-.325 1.734 2.854 2.854 0 0 1-1.048 1.373c-.337.241-.807.422-1.41.542a20.68 20.68 0 0 1-1.987.29c-.722.072-1.397.108-2.023.108-.627 0-1.156.012-1.59.036h-.687c-.313 0-.53-.072-.65-.217-.072-.072-.157-.265-.253-.578a9.739 9.739 0 0 0-.217-.65 14.62 14.62 0 0 0-.578-1.735 11.061 11.061 0 0 0-.867-1.662c.819.096 1.638.157 2.457.18l2.457.073Zm23.378 10.84-2.999-2.963v5.962c0 1.277-.24 2.469-.723 3.577a9.85 9.85 0 0 1-1.987 2.963 8.646 8.646 0 0 1-2.927 1.987c-1.108.458-2.312.699-3.613.723h-5.962l2.963 2.999-3.252 3.252-8.564-8.564 8.564-8.563 3.252 3.252-2.963 2.999H55.5c.65 0 1.253-.12 1.807-.361a4.636 4.636 0 0 0 1.445-.976 5.04 5.04 0 0 0 1.012-1.481c.265-.579.385-1.18.361-1.807v-5.962l-2.999 2.963-3.252-3.252 8.563-8.564 8.564 8.564-3.252 3.252Z" fill="#81ABC0"/><path d="M187.986 175.319h-38.769c.645-2.321 2.196-10.851 2.196-10.851s-13.159-11.274-13.851-13.121c-.462-1.232-.231-24.049-2.194-34.554-1.963-10.504-4.502-12.621-9.812-15.237-5.487-2.704-13.622-5.233-13.622-5.233s1.617 3.732 3.117 12.505c1.501 8.774 2.886 23.549 3.233 33.707.314 9.211.533 29.144.571 32.784h-16.323c.277-2.606 1.366-13.202.86-14.314-.222-.491-5.61-.774-12.14-.938V118.41s-6.64-.464-13.865-.464c-6.744 0-13.998.404-16.84 1.964-5.887 3.232-5.425 14.43-5.425 14.43v27.726c-3.246-14.803-4.014-35.739 8.079-55.662 8.236-13.569 21.222-21.355 35.329-25.025.063.144.127.286.193.425-.463 3.681-1.374 10.568-1.795 11.325l-.577 1.039-2.886 1.963s5.54 7.849 12.352 9.119c.925.173 1.713.247 2.385.247 4.279 0 3.848-3.018 3.848-3.018l-1.039-2.193.906-7.849c.71.11 1.432.17 2.152.17 2.992 0 5.95-1.022 7.908-3.633 1.783-2.378 2.886-6.136 3.528-10.053 13.992.83 26.85 4.687 35.028 9.937 21.581 13.852 32.151 31.86 34.353 50.791 1.271 10.927-3.033 25.392-6.9 35.67Z" fill="#95C3EB"/><path d="M214.268 116.832h-24.896a2.79 2.79 0 0 1-2.79-2.79v-12.428a2.79 2.79 0 0 1 2.79-2.79h24.896a2.79 2.79 0 0 1 2.79 2.79v12.428a2.79 2.79 0 0 1-2.79 2.79Z" fill="#599FDC"/><path d="m201.82 123.874 3.945-9.351h-7.89l3.945 9.351Z" fill="#599FDC"/><path d="M201.726 104.736h7.126v1.043l3.494-2.015-3.494-2.014v1.043h-7.126v1.943Z" fill="#293D8A"/><path d="M212.346 108.834h-7.127v-1.043l-3.493 2.014 3.493 2.014v-1.042h7.127v-1.943Z" fill="#fff"/><path d="m197.351 110.666-.339.124s-1.057-1.207-1.606-2.522c-.549-1.315-.568-2.92-.568-2.92l.248-.104-1.507-3.607c-.269.21-.525.48-.732.83-.852 1.441-.768 3.653.09 5.814.858 2.16 1.775 4.087 3.449 5.299.987.715 1.834.84 2.491.736l-1.526-3.65ZM198.434 110.242l-.468.17 1.542 3.693a2.73 2.73 0 0 0 .466-.202.897.897 0 0 0 .406-1.119l-.806-2.03a.897.897 0 0 0-1.14-.512ZM194.757 101.005c-.19.068-.396.161-.604.283l1.539 3.684.518-.217c.45-.187.667-.7.49-1.153l-.809-2.077a.894.894 0 0 0-1.134-.52Z" fill="#293D8A"/><path d="M55.122 175.896V134.34s-.462-11.198 5.425-14.43c5.888-3.232 30.706-1.501 30.706-1.501v57.487H55.122Z" fill="#3A76C4"/><path d="M99.006 79.507s-1.5 12.583-2.078 13.622l-.577 1.039-2.886 1.963s5.54 7.849 12.351 9.118c6.811 1.27 6.234-2.77 6.234-2.77l-1.039-2.193 1.386-12.006s-12.352-5.655-13.391-8.773Z" fill="#FFB692"/><path d="m89.887 97.17 4.502-1.964s2.886 4.733 9.581 7.504c6.695 2.77 6.811 1.154 7.157 0 .346-1.154-.116-2.424-.116-2.424l.496-4.042 2.677.892 9.294 75.181-23.894 1.154-9.697-76.302Z" fill="#fff"/><path d="M111.935 96.323s1.616 3.732 3.116 12.505c1.502 8.774 2.886 23.549 3.233 33.707.346 10.159.577 33.361.577 33.361h30.129c.346 0 2.424-11.428 2.424-11.428s-13.16-11.274-13.852-13.121c-.462-1.232-.231-24.049-2.194-34.554-1.962-10.505-4.502-12.621-9.811-15.237-5.488-2.704-13.622-5.233-13.622-5.233Z" fill="url(#a)"/><path d="M127.633 162.669a.28.28 0 0 1-.279-.279c0-.825-.146-12.551-.288-23.892s-.289-23.069-.289-23.898a.278.278 0 1 1 .558 0c0 .825.147 12.551.289 23.891.141 11.342.288 23.07.288 23.899a.278.278 0 0 1-.279.279Z" fill="#788CBD"/><path d="m67.607 159.85-.23 16.046h35.092s1.501-13.622.923-14.891c-.577-1.27-35.785-1.155-35.785-1.155Z" fill="url(#b)"/><path d="M111.573 95.42c-1.523-.56-3.48-1.485-4.91-2.637-2.505-2.02-4.109-4.426-5.149-6.786 1.157 1.316 2.438 2.455 3.726 3.553 1.63 1.39 4.076 2.482 6.677 2.887l-.344 2.983Z" fill="#945168"/><path d="M123.248 56.074s2.424 4.156 2.886 9.235c.462 5.08 0 18.124-4.156 23.665-4.156 5.54-12.813 3.924-16.739.576-3.601-3.072-7.156-6.464-8.08-13.159-.923-6.695 1.963-19.393 10.159-22.048 8.195-2.655 15.93 1.731 15.93 1.731Z" fill="#FFB692"/><path d="M133.66 168.639s-.407 0-1.026-.017c-.145-.006-.307 0-.475-.006-.596-.017-1.322-.033-2.053-.055a77.81 77.81 0 0 0-.491-.017c-.725-.017-1.344.072-1.924.039h-.017c-.123-.006-.301.011-.447.016-.072.007-.139.012-.184.007-.334-.062-.401-.14-.764-.302-.469-.212-6.813-1.629-11.974-1.596-5.155.022-9.78.374-10.533-.257-.759-.641-1.216-7.118 3.186-7.543l5.412 2.053s12.358-1.466 16.888 1.875c4.542 3.342 4.402 5.803 4.402 5.803Z" fill="#F57C83"/><path d="M127.674 168.583c-.123-.006-.301.011-.446.016a5.563 5.563 0 0 0-.474-.636c-1.395-1.422-4.765-2.343-5.987-2.639a.207.207 0 0 1-.156-.25c.022-.112.139-.179.256-.157 1.78.43 5.557 1.529 6.629 3.331.033.05.122.223.178.335ZM130.108 168.561c-.162-.004-.329-.008-.491-.018-1.523-2.777-4.015-3.575-7.094-4.565l-.182-.061a.211.211 0 0 1-.133-.265.21.21 0 0 1 .265-.133l.177.06c3.256 1.045 5.876 1.885 7.458 4.982ZM132.635 168.622c-.145-.003-.307-.002-.475-.006-.924-1.942-3.981-5.192-8.025-5.95a.209.209 0 0 1-.173-.243.215.215 0 0 1 .244-.167c4.167.782 7.528 4.185 8.429 6.366Z" fill="#293D8A"/><path d="M99.93 71.091s2.539-1.212 4.329-4.617c1.789-3.406 1.558-6.465 1.558-6.465s3.232-.52 8.081.924c4.847 1.443 10.619 3.405 15.468.635 4.848-2.771 4.848-7.215 2.481-9.062-2.65-2.069-7.907-.808-7.907-.808s2.02-1.962.924-3.117c-1.097-1.154-5.079.347-5.079.347s-4.849-3.867-14.025-3.406c-9.178.462-13.565 6.869-14.084 14.025-.52 7.158 2.078 14.314 2.078 14.314l6.176-2.77Z" fill="#604D5A"/><path d="M118.725 82.45c-.106 0-.217-.002-.335-.008-.679-.026-1.533-.138-2.117-.503-.172-.108-.107-.39.105-.39h.001c.363.002.717.111 1.079.139.336.024.677.039 1.014.054.196.01.428.027.664.027.355 0 .717-.04.974-.21 1.127-.747-1.064-1.667-1.527-2.009-.97-.715-.775-1.949-.674-3.007.131-1.36.119-2.85.639-4.132a.238.238 0 0 1 .222-.14c.1 0 .192.062.18.195-.146 1.634-.524 3.246-.627 4.888-.043.683-.093 1.419.518 1.856.44.316.976.467 1.413.79.379.282.756.733.689 1.236-.059.448-.424.712-.801.898-.505.252-.908.316-1.417.316Z" fill="#945168"/><path d="M123.266 76.25c-.172.974-.88 1.661-1.581 1.538-.701-.124-1.129-1.014-.958-1.987.173-.973.88-1.661 1.582-1.537.7.124 1.129 1.013.957 1.987ZM114.433 75.48c-.156 1.05-.895 1.809-1.652 1.697-.756-.113-1.243-1.056-1.087-2.105.156-1.05.896-1.81 1.653-1.697.756.112 1.242 1.055 1.086 2.104ZM121.21 72.24c.539.09 1.084-.003 1.628.036.131.009.26.028.391.041.092.008-.174-.028-.044-.007l.083.014c.068.013.136.026.203.043.116.028.228.072.344.097.106.023.223.048.329.043l.178-.024-.112.02.221-.024c.309-.072.5-.43.414-.73a.692.692 0 0 0-.118-.234l-.071-.09.065.075-.071-.095a.35.35 0 0 0-.123-.124l-.131-.099c-.143-.1-.331-.157-.5-.2a4.071 4.071 0 0 0-.992-.128 6.881 6.881 0 0 0-.982.078c-.288.04-.609.138-.842.311-.181.135-.292.307-.26.543.026.196.18.418.39.453ZM115.053 70.695a2.32 2.32 0 0 0-.226-.116c-.065-.03-.244-.124-.109-.05l-.148-.08a3.391 3.391 0 0 0-.697-.249 4.629 4.629 0 0 0-1.622-.111c-.576.06-1.102.2-1.602.5-.07.044-.142.085-.201.144a5.45 5.45 0 0 0-.117.152l.033-.05a.567.567 0 0 0-.242.47c.001.18.094.329.25.415.188.105.367.055.561.005h-.293c.161.025.273.032.435-.004.006-.001.156-.039.057-.018-.093.02.157-.02.185-.023.031-.004.205-.022.021-.004l.102-.012c.086-.01.174-.021.261-.028.381-.03.761-.048 1.143-.06.354-.012.715-.015 1.069 0 .152.007.303.012.455.016.085.003.049.016-.01-.002l.095.024c.063.017.125.038.186.062.247.093.542-.085.633-.311a.538.538 0 0 0-.219-.67ZM117.794 86.742c.53-1.066 1.493-1.846 2.607-2.348-.966-.099-5.533-.521-6.685.133-1.291.733.239 3.676 2.908 3.824.28.015.535-.008.778-.046a3.85 3.85 0 0 1 .392-1.564Z" fill="#604D5A"/><path d="M96.697 80.547s.462 1.789 3.117 3.867c2.655 2.078 6.503 3.597 6.503 3.597l.308-1.346s-3.983-1.732-5.83-3.637c-1.847-1.904-2.077-2.943-2.077-2.943l-2.02.462Z" fill="#D6DCEB"/><path d="M107.087 85.668c2.137-.1 3.329 1.59 3.478 2.683.149 1.094-.878 2.32-3.279 1.243-2.984-1.338-2.335-3.827-.199-3.926Z" fill="#604D5A"/><path d="M98.37 67.33s.923-6.635 5.368-11.14c8.485-8.6 15.7-8.081 15.7-8.081s-.058-1.212-2.771-2.135c-2.547-.867-3.694-.404-3.694-.404s-6.984.577-12.871 7.099c-5.887 6.522-6.522 14.833-6.522 14.833l4.79-.173Z" fill="#D6DCEB"/><path d="M97.736 66.521c-5.558-.942-8.657 3.406-8.888 7.792-.231 4.387 2.956 7.722 7.214 7.388 9.582-.75 8.485-14.025 1.674-15.18Z" fill="#fff"/><path d="M94.969 77.439c-1.467 0-2.708-.738-3.416-2.036-.76-1.391-.696-3.104.162-4.363a.21.21 0 0 1 .346.236c-.77 1.13-.826 2.672-.141 3.926.65 1.19 1.797 1.865 3.156 1.816 1.27-.034 2.346-.615 3.03-1.636.781-1.165.961-2.774.458-4.099-.5-1.314-1.869-2.21-3.113-2.047a.21.21 0 0 1-.235-.18.209.209 0 0 1 .18-.235c1.456-.195 2.985.8 3.559 2.313.55 1.448.353 3.207-.501 4.481-.762 1.137-1.958 1.784-3.367 1.822l-.118.002Z" fill="#7588BB"/><path d="M90.926 95.554s-16.853 4.155-22.74 10.85c-5.888 6.696-8.658 39.71-8.774 45.828-.115 6.118 4.156 8.658 6.696 10.389 2.54 1.732 13.736 4.849 22.74 5.311 9.004.461 17.547 0 17.547 0s-.029-1.963 1.355-4.849c1.285-2.677 2.916-3.232 2.916-3.232l-7.735-2.771s-1.354-24.266-3.463-36.015c-2.424-13.506-8.542-25.511-8.542-25.511Z" fill="url(#c)"/><path d="m118.862 153.203-.114-.024a.28.28 0 0 1-.142-.368c1.58-3.563 3.216-10.557 4.137-15.464l.076-.397c.279-1.443.626-3.238-.067-4.477-.353-.632-1.15-2.004-1.917-3.322a200.31 200.31 0 0 1-1.757-3.048c-.407-.754.873-2.767 2.726-5.528.5-.746.933-1.391 1.185-1.827.661-1.143.221-2.189-.288-3.401l-.173-.418c-.461-1.133-.987-2.268-1.493-3.365-.207-.448-.415-.897-.619-1.349-.271-.596-.543-1.203-.818-1.817-1.632-3.636-3.318-7.396-5.479-11.029a.28.28 0 0 1 .48-.284c2.176 3.659 3.869 7.434 5.507 11.085.276.613.547 1.219.818 1.816.204.449.41.897.617 1.344.51 1.103 1.037 2.244 1.504 3.389l.17.412c.52 1.236 1.056 2.514.257 3.896-.262.453-.699 1.105-1.205 1.858-.965 1.44-2.976 4.438-2.698 4.953.204.378.954 1.667 1.748 3.032.768 1.322 1.568 2.697 1.922 3.33.793 1.418.424 3.324.128 4.856l-.076.393c-.336 1.788-2.113 10.937-4.174 15.587a.28.28 0 0 1-.255.167ZM102.411 154.184a.276.276 0 0 1-.198-.082c-1.312-1.322-7.637-12.275-8.108-14.335-.258-1.127.39-3.987 1.015-6.753.485-2.143.987-4.36.844-4.959-.213-.897-1.83-2.219-3.395-3.496-1.89-1.544-3.844-3.14-4.222-4.578-.43-1.634-.063-11.865.18-18.635.088-2.434.157-4.357.157-5.042a.28.28 0 0 1 .558 0c0 .695-.069 2.623-.157 5.062-.227 6.328-.608 16.918-.199 18.473.333 1.262 2.3 2.87 4.036 4.288 1.712 1.398 3.328 2.719 3.585 3.799.172.725-.298 2.804-.843 5.21-.584 2.58-1.245 5.503-1.015 6.507.462 2.02 6.672 12.768 7.96 14.066a.278.278 0 0 1-.198.475ZM79.729 149.394l-.04-.003a.28.28 0 0 1-.237-.315c.205-1.451 3.407-30.352 3.554-32.566a.276.276 0 0 1 .297-.26.28.28 0 0 1 .26.297c-.148 2.217-3.353 31.154-3.559 32.607a.28.28 0 0 1-.275.24Z" fill="#788CBD"/><path d="m102.7 157.243-.105-.02c-.709-.287-3.844-1.345-7.814-2.683-8.01-2.702-18.982-6.402-21.068-7.486a.279.279 0 0 1 .257-.495c2.048 1.064 13.447 4.909 20.99 7.452 3.978 1.342 7.12 2.401 7.845 2.695a.278.278 0 0 1-.105.537ZM98.847 168.751c-7.05 0-20.718-1.271-31.101-4.943a.28.28 0 1 1 .186-.526c13.117 4.64 31.466 5.432 34.88 4.665a.279.279 0 0 1 .122.545c-.739.165-2.168.259-4.087.259Z" fill="#788CBD"/><path d="M18.152 99.446c2.189 1.925 4.96 3.159 6.881 5.385.756.876 1.435 1.808 2.137 2.727.51.668 1.873 1.777 2.094 2.617.098.37.077-.131-.02-.502l-.017-.046a66.34 66.34 0 0 1-.389-5.121c-.06-1.706.047-3.42-.06-5.124-.15-2.404-.901-4.732-2.866-6.237-.96-.737-2.195-1.185-3.078-2.002-.838-.775-.502-1.663-.01-2.528.462-.81 1.02-1.605 1.2-2.537.205-1.059-.193-2.151-.73-3.053-1.143-1.919-3.679-4.059-6.08-3.772-2.002.24-2.229 2.55-2.2 4.158.028 1.565.183 3.124.197 4.69.016 1.608-.258 3.186-.28 4.786-.04 2.724 1.219 4.799 3.22 6.559Z" fill="#81ABC0"/><path d="M38.488 124.431a25.739 25.739 0 0 1 2.168-4.133c1.18-1.814 2.488-3.581 3.28-5.611.809-2.074.69-4.291.77-6.475.058-1.604.535-3.204.406-4.812-.062-.772-.506-2.02-1.505-1.892-.776.099-1.237 1.062-1.536 1.676-.521 1.073-.882 2.216-1.27 3.341-.15.44-.294.888-.485 1.313-.111.247-.465.85-.798.768-.567-.14-.052-2.456.032-2.866.424-2.06 1.061-3.975 1.15-6.094.128-3.073-.11-6.732-3.116-8.412-.786-.44-1.781-.701-2.528-.044-.736.648-.944 1.772-1.054 2.696-.335 2.838.333 5.526 1.242 8.196.751 2.205 1.646 4.48 1.711 6.838.063 2.27-1.118 4.281-1.672 6.426-.883 3.416-.7 5.228-.705 6.334a53.326 53.326 0 0 0 .146 4.14c.094 1.271.204 2.542.359 3.806.032.256.06.523.095.79-.488-1.175-.66-2.521-1.064-3.703-.718-2.1-1.552-4.156-2.242-6.266-.57-1.744-1.108-3.499-1.86-5.175-.706-1.573-1.557-3.235-2.873-4.389-.796-.697-1.76-1.105-2.824-1.097-.68.005-1.292.241-1.942.413-.8.211-1.43.138-2.087-.368-2.155-1.656-2.81-4.624-4.404-6.721-1.19-1.564-4.012-4.23-6.087-2.524-1.101.904-1.405 2.652-1.347 3.992.073 1.682.807 3.219 1.682 4.625.931 1.495 2.132 2.833 2.987 4.371.506.907.585 1.777.505 2.801-.075.965-.16 1.9.169 2.83.987 2.795 4.071 2.405 6.47 2.478 1.678.051 3.478.301 5.071.838 1.842.619 3.04 1.818 3.698 3.639.476 1.318.73 2.815 1.628 3.935.422.526.98.915 1.594 1.187.935.413 3.787.593 3.808.333.07-.872.484-1.792.743-2.62a51.752 51.752 0 0 1 1.685-4.564ZM51.728 123.905c-.248-1.598-.2-3.359-.957-4.826-.054-.105-.197-.132-.295-.078-.542.301-.564 1.177-.609 1.714-.073.89-.018 1.783-.128 2.671-.192 1.56-.552 3.168-1.115 4.638-.635 1.664-1.792 2.607-3.471 3.126-1.08.333-2.138.624-3.038 1.34-.807.641-1.367 1.526-1.783 2.457-1.12 2.515-1.655 5.325-2.175 8.012-.35 1.809-.635 3.626-1.074 5.417-.44 1.789-.91 3.57-1.163 5.398-.042.092-.087.183-.126.277-.115.273.312.421.46.193 1.734-2.668 3.845-5.064 6.727-6.533 1.3-.664 3.03-.801 4.114-1.844.826-.794.94-2.004.816-3.083-.162-1.418-.841-2.585-1.55-3.793-.388-.664-.847-1.374-.69-2.181.148-.761.78-1.32 1.408-1.71 1.198-.744 2.599-1.079 3.58-2.15.91-.996 1.415-2.234 1.516-3.576.135-1.787-.173-3.704-.447-5.469Z" fill="#81ABC0"/><path d="M28.09 133.118a23.004 23.004 0 0 0-5.453-5.05c-1.108-.736-3.723-2.188-4.25-.017-.31 1.273.935 2.525 1.755 3.323 1.232 1.199 2.657 2.233 3.696 3.615-1.287.41-2.631.49-3.75 1.38-1.323 1.054-1.917 3.088-.605 4.378.64.629 1.488 1.015 2.285 1.401 1.035.501 2.09.956 3.151 1.4 2.292.957 4.613 1.928 6.567 3.496 1.992 1.598 3.865 4.3 4.023 6.908.016.248-.079.022.07-.092.08.073.354-.058.353-.203-.041-3.869-.736-7.553-2.318-11.097-1.465-3.286-3.314-6.596-5.523-9.442Z" fill="#60A6DF"/><path d="M22.807 97.1a109.653 109.653 0 0 0 2.663 5.172c.902 1.644 1.803 3.276 2.477 5.03.831 2.16 1.702 4.287 2.58 6.428.913 2.225 1.729 4.493 2.383 6.807 1.278 4.519 2.227 9.17 2.696 13.843.239 2.377.347 4.767.282 7.155-.051 1.866-.262 3.712-.437 5.569-.182 1.931-.314 3.885-.152 5.823.135 1.621.392 3.547 1.65 4.703.246.226.594-.056.451-.349-1.494-3.064-1.41-6.405-1.124-9.727.157-1.835.376-3.659.438-5.5a55.076 55.076 0 0 0-.234-7.024c-.433-4.586-1.348-9.118-2.534-13.566a61.38 61.38 0 0 0-2.228-6.713c-.87-2.2-1.874-4.339-2.716-6.551-1.523-3.998-3.845-7.544-5.902-11.27-.106-.194-.387-.024-.293.17Z" fill="#3E579E"/><path d="M35.675 129.798c.242-2.911.5-5.716 1.481-8.494.458-1.295 1.013-2.555 1.455-3.855.365-1.076.91-2.55.63-3.692-.032-.128-.217-.121-.252 0-.188.652-.168 1.368-.303 2.037a18.233 18.233 0 0 1-.51 1.925c-.431 1.345-.994 2.635-1.482 3.959-.942 2.559-1.425 5.393-1.22 8.12.01.129.19.129.2 0ZM18.8 113.064c1.156 2.792 4.631 2.953 7.162 3.579 1.807.446 3.141 1.652 4.1 3.217 1.048 1.712 1.757 3.722 2.34 5.633l.034-.009c-.708-3.347-1.722-7.377-5.172-8.934-2.765-1.248-6.408-.621-8.177-3.607-.087-.147-.356-.048-.287.121ZM33.848 129.357c.138.186.264.38.405.562.07.09.142.175.23.247.092.075.198.167.322.164.052-.001.088-.058.06-.104-.057-.094-.16-.15-.24-.221-.083-.073-.167-.145-.248-.22-.162-.153-.31-.319-.467-.476l-.062.048ZM26.62 138.215c1.993 1.637 3.833 3.573 5.294 5.695a34.516 34.516 0 0 1 1.928 3.172c.639 1.183 1.058 2.434 1.559 3.676.037.094.21.096.196-.026-.276-2.627-1.94-4.878-3.272-7.063-.692-1.135-1.552-2.05-2.477-2.996-.955-.977-1.929-1.902-3.049-2.69-.136-.096-.31.125-.18.232ZM42.496 135.123c-.96.544-.992 2.061-1.01 3.03-.037 1.861.424 3.608-.393 5.381-.737 1.602-1.916 2.939-2.842 4.427-.867 1.392-1.723 3.172-1.704 4.848.001.096.15.152.195.053.35-.761.475-1.625.725-2.423.281-.896.674-1.71 1.183-2.499.892-1.381 1.986-2.639 2.71-4.125.761-1.566.65-3.117.6-4.813-.033-1.082-.14-2.821.731-3.625.137-.126-.038-.342-.195-.254Z" fill="#3E579E"/><path d="M36.075 152.982c-3.868-.053-11.236-.096-11.236-.096l1.823 13.537a6.136 6.136 0 0 0 6.082 5.317h6.661a6.137 6.137 0 0 0 6.082-5.317l1.824-13.537s-7.368.043-11.236.096Z" fill="#fff"/><path d="m223.041 128.106-22.068 43.711-64.335.462 19.854-44.789 66.549.616Z" fill="#F5F6F9"/><path d="m93.94 172.006.012-3.498h41.647l19.162-42.019h66.606l1.674 1.617h-65.067l-19.912 43.865s-44.123-.08-44.123.035Z" fill="#D1D8E8"/><path d="M189.633 152.226c-.727 2.181-4.671 3.865-8.811 3.761-4.139-.103-6.905-1.955-6.179-4.136.727-2.179 4.672-3.863 8.811-3.759 4.139.103 6.906 1.955 6.179 4.134Z" fill="#D1D8E8"/><path d="m138.063 172.251-.116-.026a.28.28 0 0 1-.139-.369l19.987-44.029h65.247a.28.28 0 0 1 0 .558h-64.888l-19.838 43.702a.28.28 0 0 1-.253.164Z" fill="#fff"/><path d="M14.508 192.287H91.04v-16.968H14.508v16.968Z" fill="#4F68A9"/><path d="M90.603 192.287h137.699v-16.968H90.604v16.968Z" fill="#6F83B8"/><path d="M14.508 178.436h76.095v-3.117H14.508v3.117Z" fill="#3D5192"/><path d="M228.302 178.436H90.604v-3.117h137.698v3.117Z" fill="#5165A1"/><path d="M94.388 176.127H10.813v-4.156h83.575v4.156Z" fill="#647AB4"/><path d="M231.65 176.127H93.952v-4.156H231.65v4.156Z" fill="#8E9EC7"/><path d="M71.719 82.941H44.7a3.027 3.027 0 0 1-3.027-3.027V66.426a3.028 3.028 0 0 1 3.027-3.028H71.72a3.028 3.028 0 0 1 3.027 3.028v13.488a3.027 3.027 0 0 1-3.027 3.027Z" fill="#fff"/><path d="M82.445 73.17 72.298 68.89v8.563l10.147-4.282Z" fill="#fff"/><path d="M53.669 73.17a1.869 1.869 0 1 1-3.738 0 1.869 1.869 0 0 1 3.738 0ZM60.079 73.17a1.869 1.869 0 1 1-3.738 0 1.869 1.869 0 0 1 3.738 0ZM66.488 73.17a1.869 1.869 0 1 1-3.737 0 1.869 1.869 0 0 1 3.737 0Z" fill="#293D8A"/><path d="M209.265 21.905h-62.373a7.253 7.253 0 0 0-7.253 7.254v29.59a7.253 7.253 0 0 0 7.253 7.253h5.59c.158 2.682-.227 6.672-2.467 11.774 7.206-3.324 11.356-8.316 13.524-11.774h45.726a7.253 7.253 0 0 0 7.253-7.253v-29.59a7.253 7.253 0 0 0-7.253-7.253Z" fill="#599FDC"/><path d="M182.657 36.008h-30.936a1.539 1.539 0 1 1 0-3.078h30.936a1.54 1.54 0 1 1 0 3.078Z" fill="#fff"/><path d="M204.84 44.974h-53.715a.942.942 0 1 1 0-1.886h53.715a.943.943 0 1 1 0 1.886ZM204.84 50.206h-53.715a.943.943 0 1 1 0-1.885h53.715a.943.943 0 1 1 0 1.886ZM193.123 55.786h-41.998a.943.943 0 1 1 0-1.886h41.998a.943.943 0 1 1 0 1.886Z" fill="#C3E4F7"/><path d="M204.419 36.008h-14.758a1.54 1.54 0 0 1 0-3.078h14.758a1.538 1.538 0 1 1 0 3.078ZM167.223 104.057h-16.758c-.616 0-1.115-.5-1.115-1.116V91.494c0-.616.499-1.116 1.115-1.116h16.758c.616 0 1.115.5 1.115 1.116v11.447c0 .616-.499 1.116-1.115 1.116Z" fill="#fff"/><path d="M158.96 99.262a.419.419 0 0 1-.266-.096l-9.12-7.533a.419.419 0 0 1 .532-.645l8.847 7.306 8.621-7.501a.419.419 0 0 1 .549.631l-8.888 7.734a.419.419 0 0 1-.275.104Z" fill="#647AB4"/><path d="M149.84 103.745a.417.417 0 0 1-.303-.707l6.379-6.705a.417.417 0 0 1 .591-.015.42.42 0 0 1 .015.592l-6.379 6.705a.417.417 0 0 1-.303.13ZM167.848 103.499a.417.417 0 0 1-.296-.123l-6.353-6.37a.418.418 0 0 1 .593-.591l6.353 6.37a.419.419 0 0 1-.297.714Z" fill="#647AB4"/><path d="M174.808 89.955a5.598 5.598 0 1 1-11.197 0 5.598 5.598 0 0 1 11.197 0Z" fill="#F1494A"/><path d="m171.451 95.942-.032-.368a3.64 3.64 0 0 1 1.056.704c.299.288.528.603.688.944.16.341.24.693.24 1.056 0 .608-.17 1.168-.512 1.68-.33.501-.778.907-1.344 1.216a3.972 3.972 0 0 1-1.888.448 3.978 3.978 0 0 1-1.888-.448 3.855 3.855 0 0 1-1.36-1.216 3.04 3.04 0 0 1-.496-1.68c0-.49.102-.912.304-1.264.214-.363.475-.667.784-.912.32-.245.635-.448.944-.608l-.128.448a3.448 3.448 0 0 1-.784-.448 2.43 2.43 0 0 1-.608-.768c-.16-.31-.24-.672-.24-1.088 0-.597.155-1.136.464-1.616.31-.49.726-.88 1.248-1.168a3.646 3.646 0 0 1 1.76-.432c.651 0 1.232.144 1.744.432.523.288.939.677 1.248 1.168.31.48.464 1.019.464 1.616 0 .459-.09.843-.272 1.152-.181.31-.4.555-.656.736-.256.181-.501.32-.736.416Zm-3.344-2.272c0 .288.064.544.192.768.139.224.326.405.56.544.235.128.502.192.8.192.299 0 .56-.064.784-.192.235-.139.416-.32.544-.544.139-.224.208-.48.208-.768 0-.427-.149-.779-.448-1.056-.288-.288-.65-.432-1.088-.432-.448 0-.821.144-1.12.432-.288.277-.432.63-.432 1.056Zm1.552 6.192c.512 0 .944-.155 1.296-.464.352-.32.528-.704.528-1.152 0-.31-.08-.587-.24-.832a1.637 1.637 0 0 0-.656-.576 1.923 1.923 0 0 0-.928-.224c-.341 0-.65.075-.928.224-.277.139-.496.33-.656.576a1.49 1.49 0 0 0-.24.832c0 .448.176.832.528 1.152.352.31.784.464 1.296.464Zm-.528 21.92c-.394 0-.816-.059-1.264-.176-.448-.128-.816-.309-1.104-.544a1.32 1.32 0 0 1-.336-.448 1.516 1.516 0 0 1-.112-.544c0-.181.075-.352.224-.512.16-.16.384-.24.672-.24.192 0 .432.101.72.304.171.107.358.203.56.288.203.085.411.128.624.128.512 0 .955-.091 1.328-.272.374-.192.662-.453.864-.784.203-.331.304-.72.304-1.168 0-.405-.096-.752-.288-1.04a1.858 1.858 0 0 0-.736-.672 2.032 2.032 0 0 0-.976-.24c-.33 0-.618.053-.864.16a6.784 6.784 0 0 0-.672.336c-.202.107-.405.16-.608.16-.352 0-.613-.075-.784-.224a1.04 1.04 0 0 1-.32-.56 1.836 1.836 0 0 1-.032-.576l.496-3.888a.899.899 0 0 1 .32-.544.98.98 0 0 1 .64-.224h4.624c.256 0 .47.085.64.256a.868.868 0 0 1 .256.64.849.849 0 0 1-.256.624.898.898 0 0 1-.64.24h-4.128l.176-.144-.432 3.248-.208-.608c.064-.107.203-.208.416-.304.214-.096.459-.176.736-.24.278-.075.55-.112.816-.112.715 0 1.355.165 1.92.496.566.32 1.008.763 1.328 1.328.331.555.496 1.184.496 1.888 0 .8-.181 1.499-.544 2.096a3.668 3.668 0 0 1-1.536 1.392c-.65.32-1.424.48-2.32.48Z" fill="#fff"/><path d="M225.44 87.894h-32.706c-1.233 0-2.232-1-2.232-2.232v-5.117c0-1.233.999-2.232 2.232-2.232h32.706c1.233 0 2.232 1 2.232 2.232v5.117a2.232 2.232 0 0 1-2.232 2.232Z" fill="#293D8A"/><path d="M195.095 85.616a.44.44 0 0 1-.354-.157.524.524 0 0 1-.117-.392l.14-1.241-.015-.063-.078.016-1.021.738a.48.48 0 0 1-.393.102.486.486 0 0 1-.329-.244c-.095-.167-.113-.314-.056-.44a.504.504 0 0 1 .291-.266l1.146-.518.048-.047-.048-.047-1.146-.519a.463.463 0 0 1-.282-.298.51.51 0 0 1 .047-.408.49.49 0 0 1 .329-.244.516.516 0 0 1 .393.087l1.021.754.078.015.015-.063-.14-1.24a.508.508 0 0 1 .125-.393.483.483 0 0 1 .377-.157.466.466 0 0 1 .471.549l-.141 1.241.015.063.08-.015 1.02-.738a.495.495 0 0 1 .401-.103.45.45 0 0 1 .321.244c.094.167.113.314.054.44a.5.5 0 0 1-.29.266l-1.146.519-.047.047.047.047 1.146.518a.49.49 0 0 1 .29.298.456.456 0 0 1-.054.408.446.446 0 0 1-.321.244.526.526 0 0 1-.401-.086l-1.02-.754-.08-.016-.015.063.141 1.24a.457.457 0 0 1-.117.393.509.509 0 0 1-.385.157ZM201.859 85.616a.44.44 0 0 1-.353-.157.52.52 0 0 1-.118-.392l.141-1.241-.016-.063-.078.016-1.021.738a.478.478 0 0 1-.392.102.49.49 0 0 1-.33-.243c-.094-.168-.112-.315-.055-.44a.503.503 0 0 1 .29-.267l1.147-.518.047-.047-.047-.047-1.147-.519a.468.468 0 0 1-.282-.298.514.514 0 0 1 .047-.408.494.494 0 0 1 .33-.244.512.512 0 0 1 .392.087l1.021.754.078.015.016-.063-.141-1.24a.508.508 0 0 1 .125-.393.483.483 0 0 1 .378-.156.465.465 0 0 1 .471.549l-.142 1.24.016.063.079-.015 1.02-.738a.495.495 0 0 1 .401-.103.45.45 0 0 1 .322.244c.093.167.112.314.054.44a.5.5 0 0 1-.29.266l-1.146.519-.047.047.047.047 1.146.518a.495.495 0 0 1 .29.298.463.463 0 0 1-.054.409.446.446 0 0 1-.322.243.527.527 0 0 1-.401-.086l-1.02-.754-.079-.016-.016.063.142 1.24a.454.454 0 0 1-.118.393.507.507 0 0 1-.385.157ZM208.624 85.616a.439.439 0 0 1-.353-.157.52.52 0 0 1-.118-.392l.141-1.241-.015-.063-.079.016-1.021.738a.48.48 0 0 1-.392.102.487.487 0 0 1-.33-.244c-.094-.167-.113-.314-.055-.44a.502.502 0 0 1 .29-.266l1.147-.518.047-.047-.047-.047-1.147-.519a.466.466 0 0 1-.282-.298.514.514 0 0 1 .047-.408.492.492 0 0 1 .33-.244.514.514 0 0 1 .392.087l1.021.754.079.015.015-.063-.141-1.24a.505.505 0 0 1 .126-.393.48.48 0 0 1 .377-.157c.146 0 .266.052.36.157a.46.46 0 0 1 .11.392l-.141 1.241.016.063.079-.015 1.02-.738a.495.495 0 0 1 .401-.103.45.45 0 0 1 .322.244c.093.167.112.314.054.44a.504.504 0 0 1-.29.266l-1.146.519-.048.047.048.047 1.146.518a.495.495 0 0 1 .29.298.462.462 0 0 1-.054.408.446.446 0 0 1-.322.244.526.526 0 0 1-.401-.086l-1.02-.754-.079-.016-.016.063.141 1.24a.45.45 0 0 1-.117.393.507.507 0 0 1-.385.157ZM215.388 85.616a.437.437 0 0 1-.352-.157.52.52 0 0 1-.118-.392l.141-1.241-.016-.063-.078.016-1.021.738a.48.48 0 0 1-.393.102.486.486 0 0 1-.329-.243c-.095-.168-.113-.315-.056-.44a.504.504 0 0 1 .291-.267l1.146-.518.048-.047-.048-.047-1.146-.519a.463.463 0 0 1-.282-.298.51.51 0 0 1 .047-.408.49.49 0 0 1 .329-.244.516.516 0 0 1 .393.087l1.021.754.078.015.016-.063-.141-1.24a.505.505 0 0 1 .125-.393.483.483 0 0 1 .377-.156.466.466 0 0 1 .471.549l-.141 1.24.015.063.08-.015 1.02-.738a.494.494 0 0 1 .401-.103.45.45 0 0 1 .321.244c.094.167.113.314.054.44a.5.5 0 0 1-.29.266l-1.146.519-.047.047.047.047 1.146.518a.49.49 0 0 1 .29.298.456.456 0 0 1-.054.409.447.447 0 0 1-.321.243.526.526 0 0 1-.401-.086l-1.02-.754-.08-.016-.015.063.141 1.24a.457.457 0 0 1-.117.393.511.511 0 0 1-.386.157Z" fill="#fff"/><path d="M222.154 85.616a.44.44 0 0 1-.353-.157.52.52 0 0 1-.118-.392l.142-1.241-.017-.063-.078.016-1.021.738a.48.48 0 0 1-.393.102.49.49 0 0 1-.329-.244c-.094-.167-.112-.314-.055-.44a.502.502 0 0 1 .29-.266l1.147-.518.047-.047-.047-.047-1.147-.519a.468.468 0 0 1-.282-.298.514.514 0 0 1 .047-.408.494.494 0 0 1 .329-.244.514.514 0 0 1 .393.087l1.021.754.078.015.017-.063-.142-1.24a.508.508 0 0 1 .125-.393.483.483 0 0 1 .378-.157.465.465 0 0 1 .47.55l-.141 1.24.016.063.079-.015 1.02-.738a.495.495 0 0 1 .401-.103.45.45 0 0 1 .322.244c.093.167.112.314.054.44a.5.5 0 0 1-.29.266l-1.146.519-.048.047.048.047 1.146.518a.495.495 0 0 1 .29.298.462.462 0 0 1-.054.408.446.446 0 0 1-.322.244.526.526 0 0 1-.401-.086l-1.02-.754-.079-.016-.016.063.141 1.24a.45.45 0 0 1-.117.393.507.507 0 0 1-.385.157Z" fill="#5DA4DE"/><defs><linearGradient id="a" x1="114.584" y1="95.653" x2="164.069" y2="105.635" gradientUnits="userSpaceOnUse"><stop stop-color="#3A0CA3"/><stop offset="1" stop-color="#4361EE"/></linearGradient><linearGradient id="b" x1="69.803" y1="159.712" x2="95.448" y2="183.198" gradientUnits="userSpaceOnUse"><stop stop-color="#3A0CA3"/><stop offset="1" stop-color="#4361EE"/></linearGradient><linearGradient id="c" x1="62.85" y1="94.943" x2="124.619" y2="112.677" gradientUnits="userSpaceOnUse"><stop stop-color="#3A0CA3"/><stop offset="1" stop-color="#4361EE"/></linearGradient></defs></svg>