<svg width="262" height="212" fill="none" xmlns="http://www.w3.org/2000/svg"><path d="M51.555 120.689H37.187V78.854h14.368v41.835Zm21.044-55.696H58.231v55.696H72.6V64.993Zm21.13 4.733H79.36v51.048h14.367V69.726Zm21.044-17.41h-14.368v68.458h14.368V52.316Zm21.129-24.933h-14.368v93.306h14.368V27.383ZM132.014 0 120.52 6.508l4.648 2.704-38.708 47.33-21.298-14.03L43.357 68.88l1.944 1.606 20.368-24.595 20.96 13.861 40.652-49.273 4.649 2.704L132.014 0Zm15.129 124.577H25.946v1.183h121.197v-1.183Z" fill="url(#a)"/><path d="M195.908 52.654v2.535c0 .76.507 1.437 1.268 1.606l.507.084c.592.085 1.014.508 1.183 1.1.169.506.423 1.013.676 1.52.254.508.254 1.1-.084 1.606l-.254.423c-.422.676-.338 1.521.254 2.028l1.775 1.775c.507.507 1.352.592 2.028.254l.423-.254c.507-.338 1.098-.338 1.606-.085.507.254 1.014.508 1.605.677.507.169.93.591 1.015 1.183l.084.422c.169.761.845 1.268 1.606 1.268h2.535c.761 0 1.437-.507 1.606-1.268l.085-.422c.084-.592.507-1.014 1.098-1.183.592-.17 1.099-.423 1.606-.677.507-.253 1.099-.253 1.606.085l.338.254c.676.422 1.521.338 2.028-.254l1.775-1.775c.507-.507.592-1.352.254-2.028l-.169-.338c-.338-.507-.338-1.099-.085-1.606.254-.507.507-1.099.676-1.69.169-.508.592-.93 1.184-1.1l.338-.084a1.629 1.629 0 0 0 1.267-1.605v-2.536c0-.76-.507-1.437-1.267-1.606l-.338-.084c-.592-.085-1.015-.507-1.184-1.099-.169-.592-.422-1.099-.676-1.69-.253-.507-.253-1.099.085-1.606l.169-.338c.422-.676.338-1.521-.254-2.029l-1.775-1.774c-.507-.508-1.352-.592-2.028-.254l-.338.254c-.507.338-1.099.338-1.606.084a13.008 13.008 0 0 0-1.606-.676c-.507-.169-.929-.592-1.098-1.183l-.085-.423a1.629 1.629 0 0 0-1.606-1.268H209.6c-.761 0-1.437.508-1.606 1.268l-.084.423c-.085.591-.508 1.014-1.015 1.183-.507.169-1.098.423-1.605.676-.508.254-1.099.254-1.606-.084l-.423-.254c-.676-.422-1.521-.338-2.028.254l-1.775 1.774c-.507.508-.592 1.353-.254 2.029l.254.422c.338.508.338 1.1.084 1.606-.253.507-.422 1.014-.676 1.522-.169.507-.591.93-1.183 1.098l-.507.085c-.761.338-1.268 1.014-1.268 1.775Zm7.522 1.183a7.358 7.358 0 0 1 7.353-7.353 7.358 7.358 0 0 1 7.353 7.353 7.358 7.358 0 0 1-7.353 7.353 7.358 7.358 0 0 1-7.353-7.353Z" fill="url(#b)"/><path d="M188.049 30.764v1.606c0 .507.338.93.845 1.014l.338.084c.338.085.676.338.761.676.084.339.253.677.422 1.015.169.338.169.676-.084 1.014l-.169.253c-.254.423-.169.93.169 1.268l1.098 1.099c.339.338.846.422 1.268.169l.254-.17c.338-.168.676-.253 1.014-.084.338.17.676.338 1.014.423.338.084.592.422.676.76l.085.254c.084.507.507.845 1.014.845h1.606c.507 0 .929-.338 1.014-.845l.085-.253c.084-.339.338-.677.676-.761.338-.085.676-.254 1.014-.423.338-.169.676-.169 1.014.085l.254.169c.422.253.929.169 1.267-.17l1.099-1.098c.338-.338.423-.845.169-1.268l-.169-.169c-.169-.338-.253-.676-.084-1.014.169-.338.338-.676.422-1.099.085-.338.423-.591.761-.676l.253-.084c.507-.085.845-.507.845-1.014v-1.606c0-.507-.338-.93-.845-1.014l-.253-.085c-.338-.084-.676-.338-.761-.676a5.832 5.832 0 0 0-.422-1.099c-.169-.338-.169-.76.084-1.014l.169-.169c.254-.422.169-.93-.169-1.268l-1.099-1.098a1.023 1.023 0 0 0-1.267-.17l-.254.17c-.338.169-.676.253-1.014.084-.338-.169-.676-.338-1.014-.422-.338-.085-.592-.423-.676-.761l-.085-.254a1.004 1.004 0 0 0-1.014-.845h-1.606c-.507 0-.93.338-1.014.845l-.085.254c-.084.338-.338.676-.676.76-.338.085-.676.254-1.014.423-.338.17-.676.17-1.014-.084l-.254-.17c-.422-.253-.929-.168-1.268.17l-1.098 1.098a1.024 1.024 0 0 0-.169 1.268l.169.254c.169.338.253.676.084 1.014-.169.338-.338.676-.422 1.014-.085.338-.423.592-.761.676l-.338.085a1.004 1.004 0 0 0-.845 1.014Zm4.817.76a4.725 4.725 0 0 1 4.733-4.732 4.725 4.725 0 0 1 4.733 4.732 4.725 4.725 0 0 1-4.733 4.733 4.725 4.725 0 0 1-4.733-4.732Z" fill="url(#c)"/><path d="M42.342 124.493v3.127c0 .929.676 1.774 1.606 2.028l.591.169a2.216 2.216 0 0 1 1.521 1.352c.254.676.508 1.353.846 1.944.338.676.253 1.352-.085 2.029l-.338.507c-.507.845-.422 1.859.254 2.535l2.197 2.198c.676.676 1.69.76 2.536.253l.507-.338c.591-.422 1.352-.422 2.028-.084.676.338 1.268.591 1.944.845.676.253 1.183.76 1.352 1.521l.17.592c.168.929 1.013 1.605 2.028 1.605h3.127c.93 0 1.775-.676 2.028-1.605l.085-.507a2.217 2.217 0 0 1 1.352-1.522c.676-.253 1.437-.507 2.028-.845.676-.338 1.353-.253 2.029.085l.422.253c.845.507 1.86.423 2.536-.253l2.197-2.198c.676-.676.76-1.69.254-2.535l-.254-.423c-.422-.592-.422-1.352-.084-2.028.338-.676.591-1.353.845-2.029.253-.676.76-1.183 1.521-1.352l.423-.084c.93-.169 1.606-1.015 1.606-2.029v-3.127c0-.93-.677-1.775-1.606-2.028l-.423-.085a2.217 2.217 0 0 1-1.521-1.352c-.254-.676-.507-1.437-.845-2.029-.338-.676-.254-1.436.084-2.028l.254-.422c.507-.846.422-1.86-.254-2.536l-2.197-2.197c-.676-.677-1.69-.761-2.536-.254l-.422.254c-.592.338-1.353.422-1.944.084-.676-.338-1.352-.591-2.029-.845-.676-.254-1.183-.761-1.352-1.521l-.084-.507c-.17-.93-1.015-1.606-2.029-1.606h-3.127c-.93 0-1.775.676-2.028 1.606l-.17.591a2.215 2.215 0 0 1-1.352 1.521c-.676.254-1.352.508-1.943.846-.677.338-1.437.253-2.029-.085l-.507-.338c-.845-.507-1.86-.423-2.535.254l-2.198 2.197c-.676.676-.76 1.69-.253 2.536l.338.507c.422.591.422 1.352.084 2.028-.338.592-.591 1.268-.845 1.944-.254.676-.76 1.183-1.521 1.352l-.592.169c-1.014.085-1.69.93-1.69 1.86Zm9.466 1.521c0-5.071 4.14-9.212 9.212-9.212 5.07 0 9.212 4.141 9.212 9.212s-4.141 9.212-9.212 9.212a9.18 9.18 0 0 1-9.212-9.212Z" fill="url(#d)"/><path d="M66.429 97.11v2.028c0 .591.422 1.183 1.014 1.267l.422.085c.423.084.846.423.93.845l.507 1.268c.17.422.17.93-.084 1.268l-.254.338a1.278 1.278 0 0 0 .17 1.605l1.436 1.437a1.279 1.279 0 0 0 1.606.169l.338-.169c.422-.253.845-.253 1.268-.084.422.169.845.422 1.267.507.423.169.761.507.845.93l.17.422c.169.592.676 1.014 1.267 1.014h2.029c.591 0 1.183-.422 1.267-1.014l.085-.338c.084-.423.422-.845.845-.93.423-.169.93-.338 1.352-.507.423-.169.93-.169 1.268.085l.254.169a1.28 1.28 0 0 0 1.606-.169l1.436-1.437a1.28 1.28 0 0 0 .17-1.606l-.17-.253c-.253-.423-.253-.846-.084-1.268.253-.423.422-.845.591-1.352.17-.423.507-.761.93-.846l.338-.084c.592-.169 1.014-.676 1.014-1.268v-2.028c0-.592-.422-1.183-1.014-1.268l-.338-.084c-.422-.085-.845-.423-.93-.846-.169-.422-.338-.93-.591-1.352-.17-.422-.17-.93.084-1.268l.17-.253a1.279 1.279 0 0 0-.17-1.606l-1.436-1.437a1.28 1.28 0 0 0-1.606-.169l-.254.17c-.422.253-.845.253-1.268.084-.422-.17-.845-.423-1.352-.507-.422-.17-.76-.507-.845-.93l-.085-.338c-.169-.592-.676-1.014-1.267-1.014H77.33c-.591 0-1.183.422-1.267 1.014l-.085.338c-.085.423-.422.845-.845.93l-1.268.507c-.422.169-.93.169-1.268-.085l-.338-.169a1.28 1.28 0 0 0-1.606.17l-1.436 1.436a1.279 1.279 0 0 0-.17 1.606l.254.338c.254.422.254.845.085 1.268-.17.422-.338.845-.507 1.267-.17.423-.507.761-.93.846l-.423.084c-.676 0-1.098.507-1.098 1.183Zm6.085 1.014a5.88 5.88 0 0 1 5.916-5.917 5.88 5.88 0 0 1 5.916 5.917 5.88 5.88 0 0 1-5.916 5.916c-3.296 0-5.916-2.705-5.916-5.916Z" fill="url(#e)"/><path opacity=".8" d="M121.28 211.882c40.376 0 73.107-19.714 73.107-44.033 0-24.318-32.731-44.033-73.107-44.033-40.375 0-73.106 19.715-73.106 44.033 0 24.319 32.73 44.033 73.106 44.033Z" fill="#D4E1EF"/><path opacity=".8" d="M173.004 203.093c33.608 0 60.852-8.06 60.852-18.002 0-9.943-27.244-18.002-60.852-18.002-33.607 0-60.852 8.059-60.852 18.002 0 9.942 27.245 18.002 60.852 18.002Z" fill="#D4E1EF"/><path d="M118.576 86.967v80.46l19.439 17.664v-80.375l-19.439-17.749Z" fill="#255AA8"/><path d="m118.576 86.967 19.439 17.664 33.13 15.129c12.509-3.466 20.538-8.79 20.538-14.791 0-10.48-24.848-19.016-55.527-19.016-6.086.085-12.002.423-17.58 1.014Z" fill="#3568BE"/><path d="M138.016 104.716v80.375l33.215 15.043v-80.375l-33.215-15.043Z" fill="#2563AF"/><path d="M172.497 119.422c.423-.085.845-.254 1.183-.338.339-.085.677-.254 1.015-.339.422-.169.76-.253 1.183-.422.507-.169 1.099-.423 1.606-.592.084 0 .253-.084.338-.084.591-.254 1.268-.507 1.859-.761l.507-.253c.423-.169.845-.339 1.183-.592.169-.085.423-.169.592-.338l1.014-.507c.169-.085.423-.254.592-.338.338-.169.591-.338.93-.507.169-.085.338-.254.591-.338.254-.17.592-.339.845-.592.169-.085.338-.254.507-.338.338-.254.592-.423.846-.676.084-.085.253-.169.338-.254.338-.338.676-.591 1.014-.93.084-.084.084-.169.169-.169.253-.253.507-.507.676-.76.085-.085.169-.254.254-.338.169-.169.338-.423.507-.592.084-.169.169-.253.253-.422.169-.169.254-.423.338-.592.085-.169.169-.254.169-.423.085-.169.169-.422.254-.591.084-.169.084-.254.169-.423.084-.253.084-.422.169-.676 0-.084.084-.254.084-.338.085-.338.085-.676.085-1.014v80.375c0 .338 0 .676-.085 1.014 0 .084-.084.254-.084.338-.085.254-.085.423-.169.676 0 .169-.085.254-.169.423-.085.169-.169.422-.254.591-.084.169-.169.254-.169.423-.084.169-.253.423-.338.592-.084.169-.169.253-.253.422-.169.169-.338.423-.507.592-.085.084-.169.253-.254.338-.254.253-.423.507-.676.76-.085.085-.085.169-.169.169-.338.339-.676.592-1.014.93-.085.085-.254.169-.338.254-.254.253-.592.422-.846.676-.169.084-.338.253-.507.338-.253.169-.591.338-.845.592-.169.084-.338.253-.591.338-.254.169-.592.338-.93.507-.169.084-.423.253-.592.338l-1.014.507c-.169.084-.423.169-.592.338a7.73 7.73 0 0 0-1.183.592l-.507.253c-.591.254-1.183.507-1.859.761-.085.084-.254.084-.338.084-.423.169-.93.338-1.437.507-.085 0-.085 0-.169.085-.338.169-.761.253-1.183.422-.338.085-.676.254-1.015.339-.422.084-.845.253-1.183.338-.338.084-.591.169-.929.253-.085 0-.254.085-.339.085V119.76c.423-.085.846-.254 1.268-.338Z" fill="#3A79C7"/><path d="M77.248 114.942v64.486l50.71 3.55v-64.486l-50.71-3.55Z" fill="#5286D6"/><path d="m77.248 114.942 50.625 3.55-18.255-16.565c-15.974 2.282-28.144 7.099-32.37 13.015Z" fill="#3578CD"/><path d="m133.281 141.818-51.133-3.549c-.507 1.014-.76 2.028-.76 3.127 0 5.916 8.029 11.24 20.453 14.706l31.44-14.284Z" fill="#73A5FF"/><path d="M81.472 141.818c0 .338.085.592.085.93 0 .169.084.338.084.423l.254.76c.084.169.084.338.169.423.084.253.253.422.338.676.084.169.169.338.253.423.17.253.338.422.507.676.085.169.17.253.339.422.253.254.507.507.76.845l.254.254c.338.338.76.676 1.183 1.099.085.084.254.169.338.253.338.254.76.592 1.099.845.169.085.338.254.507.338l1.268.761c.169.085.338.254.591.338.676.338 1.352.761 2.113 1.099.507.253 1.099.507 1.69.761l.508.253c.422.169.76.338 1.183.507.422.169.76.338 1.183.423.338.084.592.253.93.338.422.169.845.253 1.267.422.338.085.592.169.93.338l2.536.761v47.076l-2.536-.761c-.084 0-.169 0-.169-.084l-.76-.254c-.423-.169-.846-.254-1.268-.423-.338-.084-.592-.253-.93-.338-.422-.169-.76-.253-1.183-.422-.085 0-.17-.085-.338-.085-.338-.084-.592-.253-.93-.338l-.507-.253c-.592-.254-1.099-.507-1.69-.761-.761-.338-1.437-.761-2.113-1.099-.085-.084-.17-.084-.254-.169-.084-.084-.169-.169-.338-.169l-1.268-.76c-.084-.085-.253-.169-.338-.254-.084 0-.084-.085-.169-.085a5.405 5.405 0 0 1-1.098-.845c-.085-.084-.17-.169-.254-.169h-.084c-.423-.338-.846-.676-1.184-1.098l-.253-.254c-.254-.254-.507-.507-.76-.845l-.085-.085a1.16 1.16 0 0 1-.254-.338c-.169-.253-.338-.422-.507-.676 0-.084-.085-.084-.085-.169-.084-.084-.084-.169-.169-.338a2.542 2.542 0 0 1-.338-.676c0-.085-.084-.169-.084-.254 0-.084-.085-.169-.085-.253l-.253-.761c0-.084-.085-.169-.085-.253v-.169c-.084-.254-.084-.592-.084-.93V141.396c0 .084.084.253.084.422Z" fill="#A3B9FF"/><path d="M101.926 156.102v47.075l31.355-14.283v-47.076l-31.355 14.284Z" fill="#5C86DA"/><path d="M106.152 175.287c1.353.338 2.789.591 4.142.929.507.085 1.098.169 1.69.338.761.169 1.437.254 2.197.423l1.522.254c1.098.169 2.282.338 3.465.507.507.084 1.014.084 1.521.169 1.437.169 2.958.338 4.48.422.169 0 .338 0 .507.085 1.606.169 3.211.253 4.902.338.76 0 1.436.084 2.197.084.761 0 1.437.085 2.197.085 1.353 0 2.79.084 4.142.084 1.437 0 2.958 0 4.395-.084h.929c1.099 0 2.113-.085 3.212-.169.507 0 .93-.085 1.352-.085.93-.084 1.775-.084 2.62-.169.507 0 .93-.084 1.437-.084l2.535-.254c.423-.084.93-.084 1.353-.169.929-.084 1.859-.253 2.789-.338.338-.084.676-.084 1.014-.084 1.268-.169 2.535-.338 3.719-.592.338-.085.591-.085.929-.169.93-.169 1.86-.338 2.705-.507l2.282-.507c.507-.085 1.014-.169 1.437-.338v31.017c-.085 0-.085 0-.169.085l-1.268.253-2.282.507h-.169l-2.536.507c-.338.085-.591.085-.929.17h-.085c-1.099.169-2.282.338-3.465.507h-.169c-.338.084-.676.084-1.014.084l-2.282.254c-.169 0-.338 0-.592.084-.422.085-.845.085-1.352.169-.507.085-1.014.085-1.606.169-.338 0-.676.085-1.014.085-.507 0-.93.084-1.437.084-.338 0-.676.085-1.014.085-.507 0-1.099.084-1.606.084-.422 0-.93.085-1.352.085h-.592c-.845 0-1.775.084-2.62.084h-1.098c-1.268 0-2.536.085-3.888.085H134.803c-.76 0-1.436-.085-2.197-.085-.592 0-1.268 0-1.859-.084h-.338c-1.691-.085-3.297-.169-4.902-.338H125c-1.522-.169-3.043-.254-4.48-.423-.507-.084-1.014-.084-1.521-.169-1.183-.169-2.282-.338-3.465-.507-.254-.084-.592-.084-.93-.084-.169 0-.423-.085-.592-.085-.76-.085-1.436-.254-2.197-.423l-1.268-.253c-.169 0-.253-.085-.422-.085a50.074 50.074 0 0 1-4.142-.929v-31.102h.169Z" fill="#A6D2F9"/><path d="m171.906 175.287-32.877-14.96-32.877 14.96c9.297 2.197 20.707 3.549 32.877 3.549 12.255-.084 23.58-1.352 32.877-3.549Z" fill="#B7E1FF"/><path opacity=".8" d="M43.104 194.134c10.222 0 18.509-6.887 18.509-15.382 0-8.495-8.287-15.382-18.51-15.382-10.221 0-18.508 6.887-18.508 15.382 0 8.495 8.287 15.382 18.509 15.382Z" fill="#D4E1EF"/><path d="M73.445 177.992h-.253c-.085-.254-.085-.423-.17-.677-1.859-6-9.55-10.057-17.579-10.057s-15.72 4.057-17.579 10.057c-.084.254-.169.423-.169.677h-.254v2.112c.085 6.593 7.269 12.509 18.002 12.509 10.734 0 17.918-6.001 18.002-12.509v-2.112Z" fill="#E0AC45"/><path d="M55.443 165.314c-8.03 0-15.72 4.057-17.58 10.057-2.282 7.607 5.325 15.382 17.58 15.382 12.255 0 19.861-7.775 17.58-15.382-1.776-6-9.551-10.057-17.58-10.057Z" fill="#F8C245"/><path opacity=".5" d="M55.444 165.99c-7.522 0-14.622 3.803-16.227 9.381-1.944 6.931 5.155 13.946 16.227 13.946 11.071 0 18.17-6.931 16.227-13.946-1.522-5.578-8.706-9.381-16.227-9.381Zm0 22.228c-10.311 0-16.904-6.423-15.213-12.847 1.352-5.324 8.113-8.958 15.213-8.958 7.099 0 13.86 3.634 15.212 8.958 1.775 6.508-4.901 12.847-15.212 12.847Z" fill="#F8C245"/><path opacity=".5" d="M53.668 172.921c.253-.169.592-.254 1.014-.339v1.775c-.422-.084-.76-.169-1.014-.338s-.338-.338-.338-.507c0-.253.084-.422.338-.591Zm3.972 3.972c.254.169.338.338.423.591 0 .254-.085.423-.338.592a1.882 1.882 0 0 1-1.1.338v-1.944c.423.169.762.338 1.015.423Zm-2.197-9.635c-6.423 0-12.424 3.296-13.607 8.114-1.353 5.662 4.648 11.24 13.607 11.24 8.958 0 14.875-5.493 13.607-11.24-1.099-4.733-7.184-8.114-13.607-8.114Zm4.648 12.086c-.76.591-1.944.929-3.465 1.098v1.775h-2.113v-1.775c-1.014 0-1.944-.169-2.873-.422-.93-.254-1.606-.507-2.113-.845l1.267-1.775c.507.253 1.015.507 1.69.676.677.169 1.353.338 2.114.338v-2.366c-.93-.169-1.69-.338-2.282-.507-.592-.169-1.1-.423-1.522-.846-.422-.338-.507-.76-.507-1.352.085-.676.507-1.268 1.268-1.69.76-.423 1.775-.761 3.127-.845v-1.184h1.69v1.184c1.437.084 2.62.338 3.635.676l-.761 1.437c-.93-.339-1.86-.592-2.79-.592v2.113c.846.169 1.607.253 2.283.507.592.169 1.183.423 1.606.761.422.338.676.845.76 1.436.085.93-.253 1.606-1.014 2.198Z" fill="#F8C245"/><path d="M70.571 171.23h-.253c-.085-.254-.085-.423-.17-.676-1.859-6.001-9.55-10.058-17.579-10.058s-15.72 4.057-17.579 10.058c-.085.253-.17.422-.17.676h-.253v2.113c.085 6.592 7.269 12.508 18.002 12.508 10.734 0 17.918-6 18.002-12.508v-2.113Z" fill="#E0AC45"/><path d="M52.569 158.468c-8.03 0-15.72 4.057-17.58 10.057-2.282 7.607 5.325 15.382 17.58 15.382 12.255 0 19.861-7.775 17.58-15.382-1.86-6-9.551-10.057-17.58-10.057Z" fill="#F8C245"/><path opacity=".5" d="M52.57 159.144c-7.522 0-14.622 3.803-16.228 9.381-1.943 6.931 5.156 13.946 16.228 13.946 11.071 0 18.17-6.931 16.227-13.946-1.606-5.578-8.705-9.381-16.227-9.381Zm0 22.312c-10.311 0-16.904-6.423-15.213-12.846 1.352-5.325 8.113-8.959 15.213-8.959 7.099 0 13.86 3.634 15.212 8.959 1.69 6.423-4.901 12.846-15.212 12.846Z" fill="#F8C245"/><path opacity=".5" d="M50.794 166.074c.253-.169.592-.253 1.014-.338v1.775c-.422-.084-.76-.169-1.014-.338s-.338-.338-.338-.507c0-.254.084-.423.338-.592Zm3.972 4.057c.254.169.338.338.423.592 0 .253-.085.422-.338.591a1.882 1.882 0 0 1-1.1.339v-1.944c.424.169.762.253 1.015.422Zm-2.197-9.635c-6.424 0-12.424 3.296-13.607 8.114-1.353 5.663 4.648 11.241 13.607 11.241 8.958 0 14.875-5.494 13.607-11.241-1.183-4.818-7.184-8.114-13.607-8.114Zm4.648 12.086c-.76.592-1.944.93-3.465 1.099v1.775h-2.113v-1.775c-1.014 0-1.944-.169-2.873-.423-.93-.253-1.606-.507-2.113-.845l1.267-1.775c.507.254 1.014.507 1.69.676.677.169 1.353.339 2.114.339v-2.367a24.58 24.58 0 0 1-2.282-.507c-.592-.169-1.1-.423-1.522-.845-.422-.338-.507-.761-.507-1.352.085-.677.507-1.268 1.268-1.691.76-.422 1.775-.76 3.127-.845v-1.183h1.69v1.183c1.437.085 2.62.338 3.635.676l-.761 1.437c-.93-.338-1.86-.592-2.79-.592v2.113c.846.169 1.607.254 2.283.507.591.169 1.183.423 1.606.761.422.338.676.845.76 1.437.085.929-.253 1.606-1.014 2.197Z" fill="#F8C245"/><path d="M67.78 164.3h-.253c-.085-.254-.085-.423-.17-.676-1.859-6.001-9.55-10.058-17.579-10.058s-15.72 4.057-17.58 10.058c-.084.253-.168.422-.168.676h-.254v2.113c.085 6.592 7.269 12.508 18.002 12.508 10.734 0 17.918-6 18.002-12.508V164.3Z" fill="#E0AC45"/><path d="M49.779 151.622c-8.03 0-15.72 4.057-17.58 10.058-2.282 7.606 5.325 15.382 17.58 15.382 12.255 0 19.861-7.776 17.58-15.382-1.86-6.001-9.551-10.058-17.58-10.058Z" fill="#F8C245"/><path opacity=".5" d="M49.779 152.214c-7.522 0-14.622 3.803-16.228 9.381-1.943 6.931 5.156 13.946 16.228 13.946 11.071 0 18.17-6.931 16.227-13.946-1.606-5.493-8.706-9.381-16.227-9.381Zm0 22.312c-10.311 0-16.904-6.423-15.213-12.846 1.352-5.325 8.113-8.959 15.213-8.959 7.099 0 13.86 3.634 15.212 8.959 1.775 6.423-4.901 12.846-15.212 12.846Z" fill="#F8C245"/><path opacity=".5" d="M48.003 159.144c.253-.169.591-.253 1.014-.338v1.775c-.423-.084-.76-.169-1.014-.338s-.338-.338-.338-.507c0-.169.084-.423.338-.592Zm3.972 4.057c.254.169.338.338.423.592 0 .253-.085.422-.338.591a1.882 1.882 0 0 1-1.1.338v-1.943c.423.169.762.338 1.015.422Zm-2.197-9.635c-6.424 0-12.424 3.296-13.607 8.114-1.353 5.663 4.648 11.241 13.607 11.241 8.958 0 14.875-5.494 13.607-11.241-1.183-4.818-7.184-8.114-13.607-8.114Zm4.648 12.086c-.76.592-1.944.93-3.465 1.099v1.775h-2.113v-1.775c-1.014 0-1.944-.169-2.874-.423-.93-.253-1.605-.507-2.112-.845l1.267-1.775c.507.254 1.015.507 1.69.676.677.169 1.353.338 2.113.338v-2.366c-.93-.169-1.69-.338-2.281-.507-.592-.169-1.1-.423-1.522-.845-.422-.338-.507-.761-.507-1.352.085-.677.507-1.268 1.268-1.691.76-.422 1.775-.76 3.127-.845v-1.183h1.69v1.183c1.437.085 2.62.338 3.635.676l-.761 1.437c-.93-.338-1.86-.592-2.79-.592v2.113c.846.169 1.607.254 2.283.507.591.169 1.183.423 1.606.761.422.338.676.845.76 1.437.085.929-.253 1.606-1.014 2.197Z" fill="#F8C245"/><path d="M70.571 158.891h-.253c-.085-.254-.085-.423-.17-.676-1.859-6.001-9.55-10.058-17.579-10.058s-15.72 4.057-17.579 10.058c-.085.253-.17.422-.17.676h-.253v2.113c.085 6.592 7.269 12.508 18.002 12.508 10.734 0 17.918-6.001 18.002-12.508v-2.113Z" fill="#E0AC45"/><path d="M52.569 146.213c-8.03 0-15.72 4.057-17.58 10.058-2.282 7.606 5.325 15.382 17.58 15.382 12.255 0 19.861-7.776 17.58-15.382-1.86-6.001-9.551-10.058-17.58-10.058Z" fill="#F8C245"/><path opacity=".5" d="M52.57 146.889c-7.522 0-14.622 3.804-16.228 9.382-1.943 6.93 5.156 13.945 16.228 13.945 11.071 0 18.17-6.931 16.227-13.945-1.606-5.578-8.705-9.382-16.227-9.382Zm0 22.228c-10.311 0-16.904-6.423-15.213-12.846 1.352-5.325 8.113-8.959 15.213-8.959 7.099 0 13.86 3.634 15.212 8.959 1.69 6.507-4.901 12.846-15.212 12.846Z" fill="#F8C245"/><path opacity=".5" d="M50.794 153.82c.253-.169.592-.254 1.014-.338v1.774c-.422-.084-.76-.169-1.014-.338s-.338-.338-.338-.507c0-.253.084-.507.338-.591Zm3.972 3.972c.254.169.338.338.423.592 0 .253-.085.422-.338.591a1.882 1.882 0 0 1-1.1.338v-1.944c.424.169.762.338 1.015.423Zm-2.197-9.635c-6.424 0-12.424 3.296-13.607 8.114-1.353 5.662 4.648 11.24 13.607 11.24 8.958 0 14.875-5.493 13.607-11.24-1.183-4.733-7.184-8.114-13.607-8.114Zm4.648 12.086c-.76.592-1.944.93-3.465 1.099v1.774h-2.113v-1.774c-1.014 0-1.944-.169-2.873-.423-.93-.253-1.606-.507-2.113-.845l1.267-1.775c.507.254 1.014.507 1.69.676.677.169 1.353.338 2.114.338v-2.366a24.58 24.58 0 0 1-2.282-.507c-.592-.169-1.1-.423-1.522-.845-.422-.339-.507-.761-.507-1.353.085-.676.507-1.267 1.268-1.69.76-.423 1.775-.761 3.127-.845v-1.183h1.69v1.183c1.437.084 2.62.338 3.635.676l-.761 1.437c-.93-.338-1.86-.592-2.79-.592v2.113c.846.169 1.607.254 2.283.507.591.169 1.183.423 1.606.761.422.338.676.845.76 1.437.085.929-.253 1.605-1.014 2.197Z" fill="#F8C245"/><path d="M72.007 152.045h-.254c-.084-.254-.084-.423-.169-.676-1.86-6.001-9.55-10.058-17.58-10.058-8.028 0-15.72 4.057-17.578 10.058-.085.253-.17.422-.17.676h-.253v2.113c.084 6.592 7.268 12.508 18.002 12.508 10.733 0 17.917-6 18.002-12.508v-2.113Z" fill="#E0AC45"/><path d="M54.005 139.283c-8.029 0-15.72 4.057-17.58 10.057-2.281 7.607 5.325 15.382 17.58 15.382 12.255 0 19.862-7.775 17.58-15.382-1.86-6-9.55-10.057-17.58-10.057Z" fill="#F8C245"/><path opacity=".5" d="M54.005 139.959c-7.522 0-14.621 3.803-16.227 9.381-1.944 6.931 5.156 13.946 16.227 13.946 11.072 0 18.171-6.931 16.227-13.946-1.521-5.578-8.705-9.381-16.227-9.381Zm0 22.312c-10.31 0-16.903-6.423-15.213-12.846 1.352-5.325 8.114-8.959 15.213-8.959 7.1 0 13.86 3.634 15.213 8.959 1.775 6.423-4.902 12.846-15.213 12.846Z" fill="#F8C245"/><path opacity=".5" d="M52.23 146.889c.253-.169.591-.253 1.014-.338v1.775c-.423-.084-.761-.169-1.015-.338-.253-.169-.338-.338-.338-.507 0-.254.085-.423.338-.592Zm3.972 4.057c.253.169.338.338.422.592 0 .253-.084.422-.338.591a1.882 1.882 0 0 1-1.099.338v-1.943c.423.084.761.253 1.015.422Zm-2.198-9.635c-6.423 0-12.424 3.296-13.607 8.114-1.352 5.662 4.648 11.241 13.607 11.241s14.875-5.494 13.607-11.241c-1.183-4.818-7.184-8.114-13.607-8.114Zm4.649 12.086c-.761.592-1.944.93-3.465 1.099v1.775h-2.113v-1.775c-1.015 0-1.944-.169-2.874-.423-.93-.253-1.606-.507-2.113-.845l1.268-1.775c.507.254 1.014.507 1.69.676.676.169 1.352.338 2.113.338v-2.366c-.93-.169-1.69-.338-2.282-.507-.592-.169-1.099-.423-1.521-.845-.423-.338-.507-.761-.507-1.353.084-.676.507-1.267 1.268-1.69.76-.422 1.774-.761 3.127-.845v-1.183h1.69v1.183c1.437.084 2.62.338 3.634.676l-.76 1.437c-.93-.338-1.86-.592-2.79-.592v2.113c.846.169 1.606.254 2.282.507.592.169 1.184.423 1.606.761.423.338.676.845.76 1.437.085.929-.253 1.606-1.013 2.197Z" fill="#F8C245"/><path opacity=".8" d="M69.134 202.839c9.615 0 17.41-5.638 17.41-12.593s-7.794-12.593-17.41-12.593c-9.615 0-17.41 5.638-17.41 12.593s7.795 12.593 17.41 12.593Z" fill="#D4E1EF"/><path d="M76.319 202.501c10.502 0 19.016-8.514 19.016-19.016 0-10.502-8.514-19.016-19.016-19.016-10.502 0-19.016 8.514-19.016 19.016 0 10.502 8.514 19.016 19.016 19.016Z" fill="#F8C245"/><path opacity=".5" d="M76.319 165.906c-9.72 0-17.58 7.86-17.58 17.579 0 9.719 7.86 17.579 17.58 17.579 9.719 0 17.579-7.86 17.579-17.579 0-9.719-7.86-17.579-17.58-17.579Zm0 34.144c-9.128 0-16.481-7.437-16.481-16.48 0-9.044 7.437-16.481 16.48-16.481 9.128 0 16.481 7.437 16.481 16.481 0 9.043-7.353 16.48-16.48 16.48Z" fill="#F8C245"/><path opacity=".5" d="M74.375 179.428c.254-.253.592-.422 1.183-.591v2.873c-.507-.169-.845-.338-1.098-.591-.254-.254-.423-.507-.423-.846-.084-.253.085-.591.338-.845Zm4.31 6.424c.254.253.339.507.339.845 0 .338-.085.676-.338.845-.254.253-.592.422-1.1.507v-2.789c.423.169.846.422 1.1.592Zm-2.366-17.073c-8.113 0-14.706 6.593-14.706 14.706 0 8.114 6.593 14.706 14.706 14.706 8.114 0 14.706-6.592 14.706-14.706a14.663 14.663 0 0 0-14.706-14.706Zm4.817 20.538c-.845.76-2.028 1.267-3.55 1.521v2.282h-2.028v-2.197a15.702 15.702 0 0 1-2.873-.508c-.93-.338-1.69-.676-2.198-1.098l1.1-2.536c.506.423 1.098.676 1.859.93a9.661 9.661 0 0 0 2.112.507v-3.465c-.93-.254-1.774-.507-2.45-.761a3.595 3.595 0 0 1-1.69-1.268c-.423-.591-.677-1.267-.677-2.197 0-1.099.423-2.113 1.268-2.958.845-.845 2.028-1.268 3.55-1.521v-2.282h2.028v2.197c1.69.169 3.042.592 4.141 1.268l-1.014 2.535c-1.014-.591-2.113-.929-3.127-1.098v3.465c.93.253 1.775.507 2.45.76.677.254 1.184.677 1.691 1.268.423.592.676 1.268.676 2.198-.084 1.267-.507 2.197-1.267 2.958Z" fill="#F8C245"/><path d="M14.706 124.577C6.592 124.577 0 131.169 0 139.283c0 8.113 6.592 14.706 14.706 14.706 8.113 0 14.706-6.593 14.706-14.706 0-8.114-6.593-14.706-14.706-14.706Zm0 28.313c-7.522 0-13.607-6.085-13.607-13.607 0-7.522 6.085-13.607 13.607-13.607 7.522 0 13.607 6.085 13.607 13.607 0 7.522-6.085 13.607-13.607 13.607Z" fill="url(#f)"/><path d="M14.705 126.521c-7.015 0-12.762 5.747-12.762 12.762 0 7.015 5.747 12.762 12.762 12.762 7.015 0 12.762-5.747 12.762-12.762 0-7.015-5.662-12.762-12.762-12.762Zm0 24.172c-6.254 0-11.325-5.071-11.325-11.326 0-6.254 5.071-11.325 11.325-11.325s11.325 5.071 11.325 11.325c0 6.255-5.07 11.326-11.325 11.326Z" fill="url(#g)"/><path d="M17.494 138.945c-.507-.254-1.099-.423-1.86-.592v-2.704c.846.084 1.607.338 2.452.845l.76-1.944c-.845-.507-1.944-.845-3.211-.93v-1.69h-1.606v1.775c-1.183.169-2.113.507-2.79 1.183-.675.592-.929 1.352-.929 2.282 0 .676.17 1.268.507 1.69.338.423.76.761 1.268 1.015.507.253 1.183.422 1.944.591v2.62c-.592-.084-1.099-.169-1.69-.422a4.7 4.7 0 0 1-1.437-.761l-.845 1.944c.422.338 1.014.591 1.69.845.676.254 1.437.338 2.197.423v1.69h1.606v-1.775c1.183-.169 2.113-.507 2.705-1.183.676-.592.93-1.352.93-2.198 0-.676-.17-1.267-.508-1.69-.253-.507-.676-.761-1.183-1.014Zm-3.465-1.014c-.423-.085-.676-.254-.845-.423-.17-.169-.338-.422-.338-.676 0-.254.084-.507.253-.761.17-.169.507-.338.93-.422v2.282Zm2.45 4.564c-.168.169-.506.338-.844.422v-2.197c.338.169.676.253.845.422.169.169.253.423.253.676.085.254-.084.423-.253.677Z" fill="url(#h)"/><path d="M37.526 93.221a8.603 8.603 0 0 0-8.62 8.621 8.602 8.602 0 0 0 8.62 8.621 8.603 8.603 0 0 0 8.62-8.621c.085-4.733-3.803-8.62-8.62-8.62Zm0 16.65c-4.395 0-8.03-3.55-8.03-8.029 0-4.395 3.55-8.029 8.03-8.029 4.395 0 8.029 3.55 8.029 8.029s-3.634 8.029-8.03 8.029Z" fill="url(#i)"/><path d="M37.527 94.405c-4.142 0-7.522 3.38-7.522 7.522 0 4.141 3.38 7.522 7.522 7.522 4.141 0 7.522-3.381 7.522-7.522 0-4.142-3.38-7.522-7.522-7.522Zm0 14.198a6.637 6.637 0 0 1-6.677-6.676 6.637 6.637 0 0 1 6.677-6.677 6.637 6.637 0 0 1 6.677 6.677 6.637 6.637 0 0 1-6.677 6.676Z" fill="url(#j)"/><path d="M39.217 101.673c-.338-.169-.676-.253-1.099-.338v-1.606c.508.085.93.254 1.437.507l.507-1.183c-.507-.338-1.098-.507-1.86-.591v-1.015H37.19v1.014c-.676.085-1.268.338-1.606.677-.338.338-.592.845-.592 1.352 0 .422.085.76.338 1.014.17.254.423.423.761.592.338.169.676.253 1.099.338v1.521c-.338 0-.676-.085-1.014-.254-.338-.084-.592-.253-.846-.422l-.507 1.099c.254.169.592.338 1.014.507.423.169.846.253 1.353.253v1.014h.93v-1.014c.675-.084 1.267-.338 1.605-.676.338-.338.592-.761.592-1.352 0-.423-.085-.761-.338-1.014-.254-.085-.507-.254-.76-.423Zm-2.028-.507c-.254-.085-.423-.169-.507-.254a.643.643 0 0 1-.17-.422c0-.169.085-.338.17-.423.084-.084.253-.169.507-.253v1.352Zm1.437 2.62c-.085.085-.254.169-.508.254v-1.268c.254.084.423.169.508.253a.648.648 0 0 1 .169.423c0 .084-.085.253-.17.338Z" fill="url(#k)"/><path d="M226.418 78.938a8.602 8.602 0 0 0-8.62 8.621 8.603 8.603 0 0 0 8.62 8.62 8.603 8.603 0 0 0 8.621-8.62c0-4.733-3.888-8.62-8.621-8.62Zm0 16.65c-4.394 0-8.029-3.55-8.029-8.029 0-4.395 3.55-8.029 8.029-8.029 4.395 0 8.03 3.55 8.03 8.029-.085 4.395-3.635 8.03-8.03 8.03Z" fill="url(#l)"/><path d="M226.418 80.037c-4.141 0-7.522 3.38-7.522 7.522 0 4.141 3.381 7.522 7.522 7.522 4.142 0 7.522-3.38 7.522-7.522 0-4.141-3.38-7.522-7.522-7.522Zm0 14.199a6.637 6.637 0 0 1-6.676-6.677 6.637 6.637 0 0 1 6.676-6.677 6.637 6.637 0 0 1 6.677 6.677 6.637 6.637 0 0 1-6.677 6.677Z" fill="url(#m)"/><path d="M228.024 87.39c-.338-.169-.676-.254-1.099-.338v-1.606c.508.085.93.254 1.437.507l.507-1.183c-.507-.338-1.098-.507-1.859-.592v-1.014h-.93v1.014c-.676.085-1.267.338-1.605.677-.339.338-.592.845-.592 1.352 0 .422.084.76.338 1.014.169.254.423.422.761.592.338.169.676.253 1.098.338v1.52a2.25 2.25 0 0 1-1.014-.253c-.338-.084-.592-.253-.845-.422l-.507 1.099c.253.169.591.338 1.014.507.423.169.845.253 1.352.253v1.014h.93v-1.014c.676-.084 1.268-.338 1.606-.676.338-.338.591-.76.591-1.352 0-.423-.084-.76-.338-1.014-.253-.17-.507-.338-.845-.423Zm-2.028-.592c-.254-.084-.423-.169-.507-.253a.643.643 0 0 1-.169-.423c0-.169.084-.338.169-.422.084-.085.253-.17.507-.254v1.352Zm1.437 2.62c-.085.085-.254.17-.508.254v-1.268c.254.085.423.17.508.254a.648.648 0 0 1 .169.422c0 .085 0 .254-.169.338Z" fill="url(#n)"/><path d="M225.488 123.225c-7.099 0-12.846 5.747-12.846 12.846 0 7.1 5.747 12.847 12.846 12.847s12.847-5.747 12.847-12.847c0-7.099-5.748-12.846-12.847-12.846Zm0 24.678c-6.508 0-11.832-5.324-11.832-11.832 0-6.508 5.324-11.832 11.832-11.832 6.508 0 11.832 5.324 11.832 11.832 0 6.508-5.24 11.832-11.832 11.832Z" fill="url(#o)"/><path d="M225.487 124.915a11.146 11.146 0 0 0-11.156 11.156c0 6.17 4.987 11.156 11.156 11.156 6.17 0 11.156-4.986 11.156-11.156 0-6.17-4.986-11.156-11.156-11.156Zm0 21.045a9.848 9.848 0 0 1-9.888-9.889 9.847 9.847 0 0 1 9.888-9.888 9.848 9.848 0 0 1 9.889 9.888c0 5.409-4.395 9.889-9.889 9.889Z" fill="url(#p)"/><path d="M227.938 135.733c-.422-.169-1.014-.338-1.605-.507v-2.366c.676.084 1.436.338 2.113.676l.676-1.691c-.761-.507-1.691-.76-2.789-.845v-1.521h-1.353V131c-1.014.085-1.859.423-2.451 1.014-.591.508-.845 1.184-.845 1.944 0 .592.169 1.099.423 1.522.338.338.676.676 1.099.845.422.169 1.014.338 1.69.507v2.282c-.507-.085-1.014-.169-1.437-.338-.507-.169-.845-.423-1.268-.676l-.76 1.69c.338.254.845.507 1.521.761.592.169 1.268.338 1.944.338v1.521h1.352v-1.521c1.014-.169 1.859-.423 2.367-1.014.591-.508.845-1.184.845-1.944 0-.592-.169-1.099-.423-1.437-.253-.338-.676-.592-1.099-.761Zm-3.042-.845c-.338-.084-.592-.254-.761-.338a.767.767 0 0 1-.253-.592c0-.253.084-.422.253-.591a1.64 1.64 0 0 1 .761-.423v1.944Zm2.197 3.888c-.169.169-.422.253-.76.338v-1.944c.338.085.591.254.76.423a.767.767 0 0 1 .254.591.768.768 0 0 1-.254.592Z" fill="url(#q)"/><path d="M21.722 65.67c-6.339 0-11.41 5.155-11.41 11.409 0 6.339 5.156 11.41 11.41 11.41 6.339 0 11.41-5.156 11.41-11.41.084-6.339-5.071-11.41-11.41-11.41Zm0 21.973c-5.831 0-10.564-4.733-10.564-10.564 0-5.832 4.733-10.565 10.564-10.565 5.832 0 10.565 4.733 10.565 10.565 0 5.831-4.733 10.564-10.565 10.564Z" fill="url(#r)"/><path d="M21.723 67.19c-5.493 0-9.888 4.48-9.888 9.889 0 5.493 4.48 9.888 9.888 9.888 5.494 0 9.889-4.48 9.889-9.888.084-5.494-4.395-9.889-9.889-9.889Zm0 18.763a8.873 8.873 0 0 1-8.874-8.874 8.873 8.873 0 0 1 8.874-8.874 8.873 8.873 0 0 1 8.875 8.874 8.873 8.873 0 0 1-8.875 8.874Z" fill="url(#s)"/><path d="M23.92 76.825c-.422-.169-.844-.338-1.436-.422V74.29c.676.084 1.268.253 1.86.676l.591-1.521c-.676-.423-1.521-.676-2.535-.761v-1.352h-1.268v1.352c-.93.085-1.69.423-2.113.93-.507.507-.76 1.098-.76 1.775 0 .591.168 1.014.422 1.352.253.338.591.591 1.014.76.423.17.93.338 1.521.508v2.028c-.422 0-.845-.17-1.267-.254-.423-.169-.761-.338-1.099-.591l-.676 1.521c.338.254.76.507 1.352.676.592.17 1.099.254 1.775.338v1.353h1.268v-1.353c.93-.084 1.605-.422 2.113-.93.507-.507.76-1.098.76-1.69 0-.507-.169-1.014-.422-1.352-.338-.507-.677-.76-1.1-.93Zm-2.704-.76c-.253-.085-.507-.17-.676-.338-.169-.17-.253-.338-.253-.508 0-.253.084-.422.253-.591.17-.17.338-.254.676-.338v1.775Zm1.944 3.465c-.169.169-.338.253-.676.338v-1.69c.254.084.507.253.676.338.17.169.254.338.254.507 0 .169-.17.338-.254.507Z" fill="url(#t)"/><path d="M251.773 97.278a10.208 10.208 0 0 0-10.226 10.227 10.207 10.207 0 0 0 10.226 10.226A10.207 10.207 0 0 0 262 107.505c0-5.663-4.649-10.227-10.227-10.227Zm0 19.608a9.45 9.45 0 0 1-9.465-9.466 9.45 9.45 0 0 1 9.465-9.465 9.45 9.45 0 0 1 9.466 9.465c-.084 5.24-4.31 9.466-9.466 9.466Z" fill="url(#u)"/><path d="M251.773 98.63a8.874 8.874 0 0 0-8.875 8.875 8.874 8.874 0 0 0 8.875 8.874 8.873 8.873 0 0 0 8.874-8.874 8.873 8.873 0 0 0-8.874-8.874Zm0 16.735a7.845 7.845 0 0 1-7.86-7.86 7.845 7.845 0 0 1 7.86-7.86c4.394 0 7.86 3.549 7.86 7.86 0 4.31-3.55 7.86-7.86 7.86Z" fill="url(#v)"/><path d="M253.716 107.251c-.338-.169-.76-.253-1.267-.422v-1.86a4.522 4.522 0 0 1 1.69.592l.592-1.352a5.601 5.601 0 0 0-2.198-.676v-1.184h-1.098v1.184c-.846.084-1.437.338-1.944.76-.423.423-.676.93-.676 1.606 0 .507.084.845.338 1.183.253.338.507.507.929.677.338.169.761.253 1.353.422v1.859c-.423 0-.761-.084-1.184-.253l-1.014-.507-.591 1.352c.338.254.676.423 1.183.592a4.784 4.784 0 0 0 1.521.253v1.183h1.099v-1.267c.845-.085 1.437-.338 1.944-.761.422-.423.676-.93.676-1.521 0-.507-.085-.845-.338-1.183-.423-.339-.676-.508-1.015-.677Zm-2.451-.676c-.253-.084-.507-.169-.591-.338-.169-.084-.169-.253-.169-.422 0-.169.084-.338.169-.507.169-.169.338-.254.591-.339v1.606Zm1.691 3.127a.768.768 0 0 1-.592.254v-1.521c.254.084.423.169.592.338.169.084.169.253.169.422.084.169 0 .338-.169.507Z" fill="url(#w)"/><path d="M87.728 10.818c-4.564 0-8.283 3.719-8.283 8.283s3.719 8.282 8.283 8.282 8.282-3.718 8.282-8.282-3.718-8.283-8.282-8.283Zm0 15.974c-4.226 0-7.691-3.466-7.691-7.691 0-4.226 3.465-7.691 7.69-7.691 4.227 0 7.692 3.465 7.692 7.69-.085 4.226-3.465 7.692-7.691 7.692Z" fill="url(#x)"/><path d="M87.728 11.917a7.178 7.178 0 0 0-7.184 7.184 7.178 7.178 0 0 0 7.184 7.184 7.178 7.178 0 0 0 7.184-7.184 7.178 7.178 0 0 0-7.184-7.184Zm0 13.607a6.42 6.42 0 0 1-6.423-6.423 6.42 6.42 0 0 1 6.423-6.423A6.42 6.42 0 0 1 94.15 19.1a6.42 6.42 0 0 1-6.423 6.423Z" fill="url(#y)"/><path d="M89.249 18.932c-.254-.085-.676-.254-1.099-.338v-1.522c.507.085.93.17 1.352.508l.423-1.1c-.507-.337-1.099-.506-1.86-.506V14.96h-.93v1.014c-.675.084-1.182.253-1.52.676-.338.338-.508.76-.508 1.268 0 .422.085.76.338.93.17.253.423.422.761.59.254.085.676.254 1.099.339v1.352c-.338 0-.676-.084-.93-.253a1.634 1.634 0 0 1-.76-.423l-.508 1.099c.254.169.592.338.93.507.423.169.845.169 1.268.253v1.015h.93v-1.015c.676-.084 1.183-.338 1.52-.676.339-.338.508-.76.508-1.267 0-.423-.085-.677-.338-.93-.085-.254-.338-.423-.676-.507Zm-1.944-.592c-.254-.084-.338-.169-.507-.253-.085-.085-.17-.254-.17-.338 0-.17.085-.254.17-.423.084-.085.253-.17.507-.254v1.268Zm1.352 2.536c-.084.084-.253.169-.507.253v-1.268l.507.254c.085.085.17.254.17.338 0 .17 0 .338-.17.423Z" fill="url(#z)"/><path opacity=".5" d="M152.721 92.63s-17.664-1.69-19.439 2.197c-1.775 3.888 20.284 9.213 23.58 10.227 3.381.93 22.735 11.832 22.735 11.832s-2.62 18.594-3.212 22.059c-.591 3.465-1.69 17.495 1.099 24.425 2.789 6.93 9.381 9.973 10.396 8.283 1.014-1.691-.592-42.258 0-43.695.591-1.522 3.38-15.213 3.38-15.213L152.721 92.63Z" fill="#6D99BF"/><path d="M213.911 163.37s1.183 6.677 4.733 5.747c3.55-.93 17.495-9.128 17.917-10.226.423-1.184-3.042-2.367-4.732-1.522-1.691.846-8.706 3.297-9.297 3.466-.761.084-8.621 2.535-8.621 2.535ZM182.808 145.706s-4.141 1.183-2.789 6.508c1.437 5.324 11.579 15.466 13.439 14.706 1.859-.761-1.775-15.129-4.311-16.988-2.62-1.775-6.339-4.226-6.339-4.226Z" fill="#1E3B5B"/><path d="M198.528 82.572s23.411 15.129 19.017 24.51c-4.395 9.381-29.243 47.245-29.243 47.245s-5.832-6.423-5.156-8.874c.677-2.367 16.058-40.23 13.354-42.428-2.705-2.197-23.58-15.72-23.58-15.72s17.579-10.733 25.608-4.733Z" fill="#C88CF0"/><path opacity=".2" d="M215.262 107.42c-.761-5.155-3.888-9.635-5.071-14.706-.084-.422-.169-.76-.169-1.098-5.409-5.071-11.494-9.044-11.494-9.044-8.029-6-25.524 4.733-25.524 4.733s20.875 13.523 23.58 15.72c2.704 2.198-12.677 40.061-13.354 42.428-.169.591.085 1.352.423 2.197 2.958-2.874 11.241-22.397 19.27-22.988l-1.184 1.183c5.663-5.747 10.903-11.41 13.861-15.467-.084-1.014-.169-2.028-.338-2.958Z" fill="#C88CF0"/><path d="M160.243 100.405s7.522 9.635 32.877 15.467c11.494 18.593 20.706 47.498 20.706 47.498l8.537-2.62s-6.086-44.625-13.523-53.583c-4.226-5.156-23.834-21.637-31.017-23.58-7.184-2.029-15.044 9.719-17.58 16.818Z" fill="#D8A0FE"/><path d="M159.314 28.482s-1.859 10.565-2.366 12.508c-.507 1.86 5.831 7.015 9.296 6.001 3.466-1.014 4.818-5.409 4.818-5.409l-.676-9.466s-10.142-2.535-11.072-3.634Z" fill="#F9B18D"/><path opacity=".8" d="M159.314 28.482s-1.859 10.565-2.366 12.508c-.507 1.86 5.831 7.015 9.296 6.001 3.466-1.014 4.818-5.409 4.818-5.409l-.676-9.466s-10.142-2.535-11.072-3.634Z" fill="#F9B18D"/><path d="m155.933 35.581 11.41 12.593 3.381-11.663s17.494 4.986 19.523 7.268c2.113 2.367-10.987 40.146-12.509 40.822-1.436.676-48.935-43.78-21.805-49.02Z" fill="#A9D9FF"/><path d="M215.179 72.768c-.592-.676-22.819-26.538-24.932-28.904-2.113-2.367-19.524-7.269-19.524-7.269l4.733 42.428-19.523-43.357c-27.214 5.24-12.424 36.004-9.128 38.37 2.282 1.69 6.508 16.819 8.874 25.778.169.169.339.422.423.676.169.253.338.591.507.845.085.084.169.169.254.338l1.014 1.014c.084 0 .676.423.93.676h.169c.253.085.591.169.845.254 5.155-5.747 16.734-18.425 17.917-18.847 1.522-.592 18.594 3.127 18.594 3.127s.084-5.156-2.62-8.959c-.338-.507-3.634-7.184-1.775-7.69 2.366-.677 8.283 8.113 12.508 8.535 6.424.592 11.072-6.677 10.734-7.015Z" fill="#AB2DEC"/><path opacity=".2" d="M177.823 84.685c.339-.169 1.86 0 3.888.338-.084-6.93 8.959-5.662 9.551-11.832.084-.76 1.69-4.48 1.69-3.634.084-.592.169-1.183.338-1.775.592-2.874 2.535-4.564 4.817-5.155-.084-.339-.253-.592-.253-.93-2.029-.76-3.972-1.86-5.663-3.465-1.267-1.184-2.282-2.451-3.296-3.888-.591 5.07-1.352 10.142-3.296 15.044-1.606 3.888-5.156 6.508-9.55 5.409.422 3.803.76 6.761.76 8.198-15.297 21.721-18.171 7.86-19.354 3.127 8.536-.676 18.256-5.916 18.256-5.916l-3.043-6.339c-4.817-.084-9.55-3.888-7.522-9.72a34.934 34.934 0 0 0 1.014-3.718l-10.311-24.594c-2.535.507-6 2.197-7.86 3.127.338 1.183 2.874 3.38 3.803 9.72 2.113.084 4.48.253 5.663.084-.423 1.775-1.521 4.057-1.352 5.747 2.366 3.55 4.902 5.663 6.254 7.606-.93 1.944-2.451 3.55-4.057 4.142-1.014.422-2.028-2.958-4.226-9.466-8.789 8.113-9.719 15.72-7.268 17.495 2.282 1.69 6.508 16.819 8.874 25.777.169.169.338.423.423.676.169.254.338.592.507.846.084.084.169.169.253.338l1.015 1.014c.084 0 .676.422.929.676h.169c.254.084.592.169.846.253 5.24-6.085 16.818-18.762 18.001-19.185Z" fill="#3C4371"/><path d="M182.302 13.691s-3.212 12.255-4.817 15.636c-4.057 8.959-7.691 6.761-9.973 6.508-2.282-.254-7.776-4.649-8.79-6.593-1.69-3.296-3.634-10.057-1.859-13.776 1.774-3.634 18.509-13.607 25.439-1.774Z" fill="#FFBE9D"/><path d="M155.932 35.581s20.707 40.484 20.538 46.146c0 0-17.58-28.566-18.847-29.158l1.014-5.324-5.578.169s-3.55-7.776-4.902-8.706c-1.437-.845 6.592-3.127 7.775-3.127Z" fill="#B341F3"/><path d="M170.724 36.596s.507 33.806 5.747 43.441c0 0 .591-27.89.507-30.003l-3.127-2.029 3.211-.507s1.268-5.24 1.522-8.874c-2.705-1.268-6.339-.845-7.86-2.028Z" fill="#9A20D9"/><path d="m155.934 35.581 2.366-1.606 7.268 11.41-3.211 4.986-6.423-14.79ZM165.568 45.385l5.156-7.69.591 11.747-5.747-4.057Z" fill="#FDFDFD"/><path d="m163.539 48.512 1.944 2.451 2.873-.507.93-2.45-3.719-2.62-2.028 3.126Z" fill="#92BAF9"/><path d="M143.256 42.512s-7.099 14.198-1.775 26.791c3.719 8.79 9.889 14.706 21.552 13.86 11.41-.844 24.932-9.972 24.932-9.972s.085-5.663-2.197-6.592c0 0-11.664 8.705-22.566 6.507-8.367-1.69-9.043-13.945-9.043-16.058 0-2.113-10.903-14.536-10.903-14.536Z" fill="#AD30EE"/><path d="M185.007 67.106s3.887-5.41 5.409-6.254c1.521-.845 12.001 1.014 12.001 1.014s1.606 5.916-1.352 5.493c-2.958-.507-7.522 2.959-7.945 3.128-.423.169-5.493 1.859-6.93 1.859-1.437-.085-1.183-5.24-1.183-5.24Z" fill="#FFBE9D"/><path d="M206.813 59.161 196.671 86.63l.592.93 17.748 1.521 13.607-25.27-.761-.592-21.044-4.057Z" fill="#8BA8BA"/><path d="M207.489 59.922 197.263 87.56l18.931 2.874 12.424-26.623-21.129-3.888Z" fill="#B1CEE6"/><path d="M217.377 71.163c-.084 1.098-1.183 1.86-2.451 1.775-1.268-.085-2.197-1.1-2.028-2.198.084-1.099 1.183-1.86 2.451-1.775 1.183.17 2.113 1.183 2.028 2.198Z" fill="#254766"/><path d="M222.786 75.811s-.846 3.719-2.451 3.803c-2.705.254-6.508-2.028-7.607-.084-1.099 1.86-2.535 1.521-1.775 4.564.761 3.042.846 4.564 3.973 5.409 3.127.93 7.606 1.183 8.705-1.353 1.098-2.535 3.296-10.564-.845-12.339Z" fill="#F4AF8D"/><path d="M161.173 21.805s1.691-1.437 1.944-6.423c.254-4.986 3.803-5.832 8.029-3.212 4.226 2.705 9.551 4.987 12.931 2.62 3.381-2.366 4.395-9.888-2.028-10.902-6.508-.93-11.579 1.436-15.382-.254-3.888-1.69-9.635-1.183-11.241 5.24-1.606 6.508-1.437 14.452 2.874 19.354 0 0-.169-2.535-.169-3.718-2.282-4.395.76-6.508 3.042-2.705Z" fill="#263238"/><path d="M165.484 50.963c.084 1.86.676 14.284-10.142 17.157-7.353 1.944-18.087 11.41-18.256 11.832-.169.423-.169 10.565-.169 10.565l8.452-2.113c1.014-1.69 11.156-12.255 17.664-15.382 6.507-3.127 5.24-22.65 5.24-22.65l-2.789.591Z" fill="#FEBD6B"/><defs><linearGradient id="n" x1="222.093" y1="96.766" x2="230.349" y2="79.441" gradientUnits="userSpaceOnUse"><stop stop-color="#FFE189" stop-opacity=".1"/><stop offset="1" stop-color="#FFE189"/></linearGradient><linearGradient id="a" x1="85.213" y1="133.716" x2="101.568" y2="26.668" gradientUnits="userSpaceOnUse"><stop stop-color="#8BBAFF" stop-opacity=".1"/><stop offset="1" stop-color="#8BBAFF"/></linearGradient><linearGradient id="c" x1="197.539" y1="41.066" x2="197.539" y2="22.012" gradientUnits="userSpaceOnUse"><stop stop-color="#9ADEFF" stop-opacity=".1"/><stop offset="1" stop-color="#9ADEFF"/></linearGradient><linearGradient id="d" x1="60.918" y1="144.624" x2="60.918" y2="107.487" gradientUnits="userSpaceOnUse"><stop stop-color="#9ADEFF" stop-opacity=".1"/><stop offset="1" stop-color="#9ADEFF"/></linearGradient><linearGradient id="e" x1="78.367" y1="110.023" x2="78.367" y2="86.162" gradientUnits="userSpaceOnUse"><stop stop-color="#9ADEFF" stop-opacity=".1"/><stop offset="1" stop-color="#9ADEFF"/></linearGradient><linearGradient id="f" x1="7.287" y1="154.902" x2="21.325" y2="125.442" gradientUnits="userSpaceOnUse"><stop stop-color="#FFE189" stop-opacity=".1"/><stop offset="1" stop-color="#FFE189"/></linearGradient><linearGradient id="g" x1="7.286" y1="154.902" x2="21.324" y2="125.442" gradientUnits="userSpaceOnUse"><stop stop-color="#FFE189" stop-opacity=".1"/><stop offset="1" stop-color="#FFE189"/></linearGradient><linearGradient id="h" x1="7.377" y1="154.946" x2="21.415" y2="125.485" gradientUnits="userSpaceOnUse"><stop stop-color="#FFE189" stop-opacity=".1"/><stop offset="1" stop-color="#FFE189"/></linearGradient><linearGradient id="i" x1="33.17" y1="111.093" x2="41.425" y2="93.768" gradientUnits="userSpaceOnUse"><stop stop-color="#FFE189" stop-opacity=".1"/><stop offset="1" stop-color="#FFE189"/></linearGradient><linearGradient id="j" x1="33.171" y1="111.093" x2="41.426" y2="93.768" gradientUnits="userSpaceOnUse"><stop stop-color="#FFE189" stop-opacity=".1"/><stop offset="1" stop-color="#FFE189"/></linearGradient><linearGradient id="k" x1="33.224" y1="111.119" x2="41.48" y2="93.794" gradientUnits="userSpaceOnUse"><stop stop-color="#FFE189" stop-opacity=".1"/><stop offset="1" stop-color="#FFE189"/></linearGradient><linearGradient id="l" x1="222.04" y1="96.741" x2="230.296" y2="79.415" gradientUnits="userSpaceOnUse"><stop stop-color="#FFE189" stop-opacity=".1"/><stop offset="1" stop-color="#FFE189"/></linearGradient><linearGradient id="m" x1="222.04" y1="96.741" x2="230.295" y2="79.415" gradientUnits="userSpaceOnUse"><stop stop-color="#FFE189" stop-opacity=".1"/><stop offset="1" stop-color="#FFE189"/></linearGradient><linearGradient id="b" x1="210.728" y1="68.697" x2="210.728" y2="39.041" gradientUnits="userSpaceOnUse"><stop stop-color="#9ADEFF" stop-opacity=".1"/><stop offset="1" stop-color="#9ADEFF"/></linearGradient><linearGradient id="o" x1="219.038" y1="149.622" x2="231.264" y2="123.963" gradientUnits="userSpaceOnUse"><stop stop-color="#FFE189" stop-opacity=".1"/><stop offset="1" stop-color="#FFE189"/></linearGradient><linearGradient id="p" x1="219.037" y1="149.622" x2="231.263" y2="123.963" gradientUnits="userSpaceOnUse"><stop stop-color="#FFE189" stop-opacity=".1"/><stop offset="1" stop-color="#FFE189"/></linearGradient><linearGradient id="q" x1="219.116" y1="149.659" x2="231.343" y2="124.001" gradientUnits="userSpaceOnUse"><stop stop-color="#FFE189" stop-opacity=".1"/><stop offset="1" stop-color="#FFE189"/></linearGradient><linearGradient id="r" x1="15.96" y1="89.21" x2="26.87" y2="66.315" gradientUnits="userSpaceOnUse"><stop stop-color="#FFE189" stop-opacity=".1"/><stop offset="1" stop-color="#FFE189"/></linearGradient><linearGradient id="s" x1="15.961" y1="89.21" x2="26.871" y2="66.315" gradientUnits="userSpaceOnUse"><stop stop-color="#FFE189" stop-opacity=".1"/><stop offset="1" stop-color="#FFE189"/></linearGradient><linearGradient id="t" x1="16.032" y1="89.244" x2="26.942" y2="66.349" gradientUnits="userSpaceOnUse"><stop stop-color="#FFE189" stop-opacity=".1"/><stop offset="1" stop-color="#FFE189"/></linearGradient><linearGradient id="u" x1="246.592" y1="118.312" x2="256.332" y2="97.872" gradientUnits="userSpaceOnUse"><stop stop-color="#FFE189" stop-opacity=".1"/><stop offset="1" stop-color="#FFE189"/></linearGradient><linearGradient id="v" x1="246.591" y1="118.312" x2="256.331" y2="97.872" gradientUnits="userSpaceOnUse"><stop stop-color="#FFE189" stop-opacity=".1"/><stop offset="1" stop-color="#FFE189"/></linearGradient><linearGradient id="w" x1="246.654" y1="118.343" x2="256.395" y2="97.902" gradientUnits="userSpaceOnUse"><stop stop-color="#FFE189" stop-opacity=".1"/><stop offset="1" stop-color="#FFE189"/></linearGradient><linearGradient id="x" x1="83.491" y1="27.914" x2="91.425" y2="11.266" gradientUnits="userSpaceOnUse"><stop stop-color="#FFE189" stop-opacity=".1"/><stop offset="1" stop-color="#FFE189"/></linearGradient><linearGradient id="y" x1="83.491" y1="27.914" x2="91.424" y2="11.266" gradientUnits="userSpaceOnUse"><stop stop-color="#FFE189" stop-opacity=".1"/><stop offset="1" stop-color="#FFE189"/></linearGradient><linearGradient id="z" x1="83.542" y1="27.939" x2="91.475" y2="11.291" gradientUnits="userSpaceOnUse"><stop stop-color="#FFE189" stop-opacity=".1"/><stop offset="1" stop-color="#FFE189"/></linearGradient></defs></svg>