<svg xmlns="http://www.w3.org/2000/svg" width="197" height="185" fill="none"><path fill="#F5F5F5" d="M124.054 10.863c0-1.314 1.368-2.229 2.915-2.384 1.824-.18 3.117.676 3.16 2.191 1.193-.516 2.445-.184 2.354 1.2.31-.377 1.467-.369 1.884-.264.227.069.437.187.616.349.179.162.323.362.422.588.1.22.138.466.108.709.695-.244 2.278-.39 2.671.285.704 1.197-2.107 1.235-2.671.874-.124.932-3.141 1.083-3.873.222-.572.609-1.391.743-2.278.798-1.495.096-2.409-.441-3.578-1.067-1.269 1.134-3.463 1.155-4.604-.142-.29.29-1.094.378-1.738.218-.421-.11-.517-.298-.517-.298a3.692 3.692 0 0 1-.775.248c-.831.18-2.385 0-1.725-.802a1.883 1.883 0 0 1 1.367-.353c.362-.751 1.813-1.46 2.648-.84.032-.91.819-1.62 1.925-1.8.377-.05 1.268-.101 1.689.268Z"/><path fill="#F0F0F0" d="M20.505 17.162c0-1.78 1.848-3.014 3.944-3.224 2.464-.244 4.214.915 4.27 2.964 1.614-.697 3.311-.248 3.18 1.624.422-.512 1.988-.5 2.553-.357.306.09.59.25.832.468.242.217.437.487.571.792.137.297.188.63.147.957.942-.323 3.078-.52 3.614.386.95 1.625-2.85 1.68-3.618 1.184-.163 1.26-4.246 1.47-5.236.302-.795.84-1.884 1.004-3.081 1.079-2.024.13-3.26-.596-4.839-1.444-1.713 1.532-4.68 1.562-6.226-.193-.397.39-1.479.512-2.35.294-.568-.143-.703-.42-.703-.42-.337.15-.687.26-1.046.331-1.121.248-3.208 0-2.334-1.078.299-.366 1.392-.592 1.853-.483.49-1.016 2.45-1.977 3.578-1.117.048-1.226 1.113-2.191 2.62-2.435.493-.08 1.698-.15 2.27.37Z"/><path fill="#EBEBEB" d="M142.884 26.652c.367-.145.754-.22 1.146-.223.369-.03.485-.109.556-.193a2.749 2.749 0 0 1 1.47-1.12 2.599 2.599 0 0 1 1.81.096c.161-.528.504-.973.962-1.246a1.995 1.995 0 0 1 1.507-.228c-.04-1.217 1.431-2.518 2.751-2.82 1.32-.303 2.386-.164 3.098.713.775-1.595 3.808-2.044 5.45-1.2.947.486 1.746.982 2.139 1.897.258.566.38 1.19.354 1.818.64-.597 1.925-.756 2.783-.42.923.373.99 1.108 1.038 1.855a3.11 3.11 0 0 1 1.678-.033c.58.185.914.663.835 1.053.457-.029 1.554.366 1.427.878-.143.575-1.392.516-1.857.5a8.502 8.502 0 0 1-1.308-.219 1.926 1.926 0 0 1-.68.139c-.795 0-1.133-.37-1.26-.68-.398.864-1.773 1.52-2.747 1.784-1.841.5-4.445.193-5.566-1.26a2.12 2.12 0 0 1-.549.701 3.067 3.067 0 0 1-1.726.748c-.755.075-2.783.176-3.355-1.092-.398.84-2.211 1.226-3.578 1.02a5.39 5.39 0 0 1-1.539-.487 9.777 9.777 0 0 1-.879-.558.711.711 0 0 0-.755-.055 4.263 4.263 0 0 1-2.998 0c-.767-.344-.926-1.024-.207-1.368Z"/><path fill="#CCA552" d="M12.353 85.206a2.192 2.192 0 0 0 .08-2.254c-.49-.97-1.388-1.68-1.511-1.641-.123.037-.437 1.146 0 2.35.113.355.3.678.548.946.248.267.55.472.883.6ZM11.84 87.88c.05-.397-.01-.8-.169-1.162a2.068 2.068 0 0 0-.733-.883c-.855-.626-1.956-.81-2.056-.73-.1.08.107 1.23 1.014 2.098.255.26.562.457.898.574.337.117.695.152 1.046.102ZM13.51 89.784a1.92 1.92 0 0 0 1.053-.377c.31-.229.552-.547.697-.916.437-.999.48-2.073.397-2.162-.083-.088-1.252.349-1.892 1.285-.216.308-.353.67-.398 1.05-.044.38.005.766.143 1.12Z"/><path fill="#37474F" d="M12.619 89.652a23.314 23.314 0 0 1-.163 2.57c.135.029.266.062.397.088h.04c.174-1.8.132-3.615-.123-5.403a12.008 12.008 0 0 0-.947-3.56c0-.025-.067 0-.063.021.315 1.07.528 2.172.636 3.287.144.992.218 1.994.223 2.997Z"/><path fill="#37474F" d="M13 90.51c.351-.32.667-.68.942-1.075.277-.367.486-.785.617-1.234 0-.063-.06 0-.08.034-.212.351-.441.69-.688 1.016a4.565 4.565 0 0 1-.922.898.288.288 0 0 0-.1.142.304.304 0 0 0-.004.177.15.15 0 0 0 .043.058.139.139 0 0 0 .133.024.143.143 0 0 0 .06-.04ZM12.961 89.568a5.533 5.533 0 0 0-.994-1.793 6.281 6.281 0 0 0-.612-.7 3.404 3.404 0 0 0-.874-.647h-.08c.27.234.527.483.771.747.225.237.43.494.613.768a8.97 8.97 0 0 1 .942 1.742c.056.135.27-.004.234-.117Z"/><path fill="#CCA552" d="M172.98 78.358a2.215 2.215 0 0 1-.08-2.254c.489-.97 1.392-1.68 1.515-1.642.123.038.433 1.146 0 2.347a2.495 2.495 0 0 1-.548.95 2.313 2.313 0 0 1-.887.6ZM173.494 81.031c-.05-.396.008-.798.167-1.16a2.07 2.07 0 0 1 .731-.884c.855-.626 1.957-.81 2.056-.73.099.079-.107 1.23-1.014 2.098-.254.26-.56.457-.896.574a2.218 2.218 0 0 1-1.044.102ZM171.822 82.946a1.921 1.921 0 0 1-1.053-.375 2.091 2.091 0 0 1-.697-.914c-.433-.999-.481-2.073-.397-2.161.083-.089 1.252.348 1.892 1.284a2.327 2.327 0 0 1 .255 2.166Z"/><path fill="#37474F" d="M172.714 82.803c.004.859.057 1.717.159 2.569l-.397.084h-.04c-.172-1.8-.13-3.615.123-5.403.134-1.232.453-2.434.946-3.56 0-.025.072 0 .064 0a18.216 18.216 0 0 0-.636 3.287c-.143 1-.217 2.01-.219 3.023Z"/><path fill="#37474F" d="M172.332 83.66a6.193 6.193 0 0 1-.938-1.075 3.682 3.682 0 0 1-.617-1.234c0-.063.056 0 .08.03.209.353.437.694.684 1.02.266.344.576.646.922.898a.297.297 0 0 1 .103.319.14.14 0 0 1-.043.058.136.136 0 0 1-.191-.016ZM172.371 82.715a5.496 5.496 0 0 1 .994-1.788c.187-.25.392-.484.612-.701.259-.262.554-.481.875-.65h.08a10.78 10.78 0 0 0-.772.75 5.85 5.85 0 0 0-.608.769 9.106 9.106 0 0 0-.946 1.738c-.052.138-.271 0-.235-.118Z"/><path fill="#CCA552" d="M99.558 162.411a2.825 2.825 0 0 1-.103-2.893c.628-1.259 1.785-2.137 1.944-2.099.159.038.561 1.474 0 3.018a3.197 3.197 0 0 1-.705 1.211 2.993 2.993 0 0 1-1.136.763ZM100.218 165.865a2.841 2.841 0 0 1 .219-1.489c.205-.464.53-.858.938-1.135 1.098-.806 2.513-1.041 2.64-.94.127.1-.135 1.578-1.304 2.682-.325.336-.719.59-1.15.743-.432.153-.891.2-1.343.139ZM98.07 168.325a2.482 2.482 0 0 1-1.35-.485 2.693 2.693 0 0 1-.896-1.173c-.56-1.28-.616-2.662-.501-2.779.115-.118 1.59.453 2.433 1.654.895 1.314.39 2.384.314 2.783Z"/><path fill="#37474F" d="M99.215 168.141c.01 1.103.08 2.205.207 3.3-.171.037-.342.079-.521.109h-.052a29.32 29.32 0 0 1 .163-6.935c.17-1.584.58-3.129 1.213-4.576 0-.029.091 0 .079.025a23.55 23.55 0 0 0-.815 4.223 27.967 27.967 0 0 0-.274 3.854Z"/><path fill="#37474F" d="M98.723 169.24a7.93 7.93 0 0 1-1.193-1.381 4.78 4.78 0 0 1-.795-1.587c-.02-.079.076 0 .1.042.272.453.566.89.882 1.31.346.44.748.829 1.193 1.155a.376.376 0 0 1 .131.187.4.4 0 0 1 .004.232.208.208 0 0 1-.06.079.185.185 0 0 1-.262-.037ZM98.776 168.031a7.076 7.076 0 0 1 1.28-2.301c.242-.322.508-.624.795-.902a4.53 4.53 0 0 1 1.122-.84h.103c-.345.3-.674.619-.986.957a7.618 7.618 0 0 0-.795.991 11.863 11.863 0 0 0-1.213 2.233c-.071.185-.35.009-.306-.138Z"/><path fill="#F0F0F0" d="M0 141.121a68.996 68.996 0 0 0 3.92 7.099l53.578 32.664 25.143-15.327-61.625-37.261L0 141.121ZM29.422 53.854l67.656 41.241 25.155-15.335L58.39 41.055c-10.2 2.736-19.962 7.05-28.968 12.8Z"/><path fill="#CCA552" d="M128.558 163.171 12.278 92.285l30.685-18.706 116.28 70.886-30.685 18.706Z"/><path fill="#fff" d="M128.558 163.171 12.278 92.285l30.685-18.706 116.28 70.886-30.685 18.706Z" opacity=".75"/><path fill="#FFBDA7" d="M53.832 60.34a5.863 5.863 0 0 1-.119-1.818c.12-.85.142-1.71.064-2.565-.076-.458-.223-.899-.322-1.352a2.678 2.678 0 0 1 0-1.373c.234-.755.914-.953 1.538-1.204a3.86 3.86 0 0 0 1.428-.748c.5-.453 2.238-3.232 2.238-3.232l2.565 3.946s-2.485 2.099-3.094 2.938c-.353.42-.636.902-.835 1.424-.11.5-.141 1.016-.095 1.528.019.368.092.73.219 1.074.167.357.588.626.827.937a3 3 0 0 1 .58 1.192c.033.109.035.226.005.336a.574.574 0 0 1-.176.28c-.091.076-.207.11-.298.185a2.78 2.78 0 0 1-.31.265c-.32.162-.668.254-1.022.273a3.416 3.416 0 0 1-1.956-.39 2.514 2.514 0 0 1-.79-.709 2.678 2.678 0 0 1-.447-.987Z"/><path fill="#263238" d="M53.495 52.313c-.728.126-.867.739-.939 1.402-.071.663.398 1.76.553 2.343.234.564.257 1.202.063 1.784-.23 1.003-.35 2.699.164 3.753.512 1.053 1.387 1.679 2.961 1.679 1.575 0 2.497-.458 2.672-.815a2.95 2.95 0 0 0 .052-1.557c-.104-.23-2.199-1.759-2.835-2.846-.636-1.087-2.691-5.743-2.691-5.743Z"/><path fill="#37474F" d="M56.547 51.129c-.15-.143-.262-.143-.624.084-.327.197-.677.35-1.041.453-.636.21-1.615.264-1.821 1.646-.207 1.38.564 2.644.52 3.467-.031.638-.711 2.708.04 4.286.752 1.579 2.02 1.566 3.125 1.579 1.105.012 2.386-.508 2.386-1.033a2.898 2.898 0 0 0-.325-1.353 2.719 2.719 0 0 0-.908-1.015c-.795-.558-.437-2.858-.354-3.131.118-.396.342-.747.645-1.012.357-.386.48-.487-.215-.726-.613-.21-1.873-.664-2.445.201 0 0 .5-.932.445-1.318-.056-.386-.302-1.26.147-1.755.163-.094.308-.221.425-.373Z"/><path fill="#FAFAFA" d="M53.72 61.34c.196-.94 1.368-1.772 2.486-2.015 1.117-.244 1.59-.219 1.987 0 .375.253.669.62.844 1.051.175.432.223.91.139 1.37-.637 1.076-4.434 1.646-5.455-.406Z"/><path fill="#263238" d="M65.52 36.856s-.862-2.099-.6-3.925c.263-1.826 1.619-5.973 1.619-5.973l9.542 2.661c-.462 3.304-1.436 5.592-2.143 8.19-.903 3.019-1.304 4.118-2.23 5.411-.927 1.293-1.89 2.377-5.436 5.093-3.18 2.438-5.908 4.508-5.908 4.508s-1.017.042-1.928-1.52a5.636 5.636 0 0 1-.584-2.149s3.041-4.987 4.536-6.46a22.208 22.208 0 0 1 2.644-2.297l.489-3.539Z"/><path fill="#FFBDA7" d="M70.585 73.484c.314.047.63.07.946.072.217.011.434-.011.644-.067.28-.1.54-.253.768-.45.205-.13.368-.32.469-.55.04-.156.043-.321.007-.48a.975.975 0 0 0-.214-.422 3.986 3.986 0 0 0-.692-.617h-.023a9.84 9.84 0 0 1-2.124-2.716c-.548-.958-1.105-2.02-1.125-3.174-.02-1.154.287-6.771.883-11.994.22-1.736.328-3.487.322-5.239 0-.18-.533-6.653-1.245-12.77a19.943 19.943 0 0 0 3.471-2.552c1.949-1.99 2.632-2.813 2.632-2.813L64.752 25.62a34.59 34.59 0 0 0-2.282 3.266c-.846 1.49-1.081 3.14-.886 5.525.175 2.153.902 5.037 1.284 6.691.795 3.447 1.121 5.495 1.44 7.452a24.878 24.878 0 0 0 0 6.918c.238 1.906.961 6.99 1.029 9.009 0 0-.028.42-.155 1.582-.06.55-.648 1.885.095 2.481.138.15.286.29.442.42.195.118.397.248.572.386.184.134.351.292.497.47.158.229.292.475.398.735a5.562 5.562 0 0 0 1.741 2.317c.505.328 1.07.537 1.658.613Z"/><path fill="#263238" d="M64.723 68.13c-.021.19-.001.38.058.56.06.18.156.343.284.477.433.377.903.702 1.403.97.448.296.791.738.978 1.26.153.545.431 1.041.81 1.444.38.404.85.7 1.365.864a4.69 4.69 0 0 0 3.527-.025c.6-.23.966-.596.93-1.213-.036-.617-9.355-4.337-9.355-4.337Z"/><path fill="#37474F" d="M65.67 65.213c-.295-.164-.259-.374-.319-.508v-.227c-.198 0-.226.655-.469 1.427a4.7 4.7 0 0 0-.15 2.225c.397.86 1.59 1.037 2.234 1.864.644.827.675 2.389 2.783 3.115 1.892.655 3.765-.122 4.341-.655 0 0 .25-1.419-.604-1.822a4.651 4.651 0 0 1-2.024-1.713 20.32 20.32 0 0 1-1.67-2.972c-.15-.42-.163-1.26-.44-1.28-.88.138-1.747.36-2.59.663-.417.177-.09 1.088-.09 1.088a1.984 1.984 0 0 1-.398-.63c-.195-.433-.326-.437-.605-.575Z"/><path fill="#FAFAFA" d="M68.873 72.703c.048-1.008.537-1.826 1.65-2.401a2.987 2.987 0 0 1 2.155-.248c.398.18 1.292.554 1.4 1.26.067.38.067.77 0 1.15 0 0-.867.97-2.784.94-1.681-.038-2.421-.701-2.421-.701Z"/><path fill="#37474F" d="M64.139 48.59c-.64 3.253.17 7.556.497 9.743.17 1.15.552 4.022.552 4.022s.18.634 1.893.78c1.713.148 2.346-.453 2.346-.453s.731-7.556.966-11.074c.156-1.815.164-3.64.023-5.457-.067-1.524-.123-10.403-.123-10.403s4.771-.6 5.53-4.714l-12.305-6.112c-.294 1.079-1.145 2.846-1.59 4.135a15.02 15.02 0 0 0-.914 5.1c.027 1.487.314 2.792.795 5 .48 2.208 1.872 8.291 2.33 9.433Z"/><path fill="#FFBDA7" d="M74.901 12.421c-1.172.966-1.8 2.422-.361 4.744a72.024 72.024 0 0 0 4.922 6.821c.83.979.93 1.26 2.58 1.73 1.785.512 8.023 1.096 8.524 1.159.46.007.912-.14 1.288-.42.3-.183.57-.419.795-.697.303-.357.207-.873.243-1.306.072-.785.163-1.566.223-2.346.027-.357.15-.752-.028-1.083-.04-.067-.131-.147-.195-.135 0 0 .024-.336.04-.487.028-.277.031-.802-.275-.927-.306-.126-.497.52-.497.52.107-.287.154-.595.14-.902-.092-.378-.358-.622-.565-.42-.139.151-.25.33-.326.524a.38.38 0 0 0-.354 0c-.288.194-.5.493-.592.84-.144.386-.25.787-.314 1.197-.038.417-.124.829-.255 1.225-.099.264-.276.486-.505.634a.97.97 0 0 1-.795.038c-.437-.092-.867-.23-1.296-.37a66.324 66.324 0 0 1-3.16-1.137l-1.174-.458s-2.667-4.281-3.725-5.877c-.787-1.1-2.091-3.262-4.338-2.867Z"/><path fill="#37474F" d="M77.052 12.675c1.066.5 1.956 1.838 2.807 3.194.851 1.356 2.243 3.69 2.243 3.69a20.252 20.252 0 0 1-2.131 2.313 6.151 6.151 0 0 1-1.59.991l-3.21-4.29 1.881-5.898Z"/><path fill="#F0997A" d="m92.868 24.462.152-1.839c.023-.306.047-.617.091-.923a1.41 1.41 0 0 0 0-.45.719.719 0 0 0-.08-.197.222.222 0 0 0-.063-.067.207.207 0 0 0-.084-.034.038.038 0 0 1-.028-.007.042.042 0 0 1-.015-.026c.07-.373.07-.757 0-1.13-.056-.163-.219-.319-.346-.193-.131.117-.237.261-.31.424a.05.05 0 0 1-.025.03.046.046 0 0 1-.037.002.05.05 0 0 1-.028-.026.054.054 0 0 1-.002-.04c.069-.186.118-.38.147-.579a.777.777 0 0 0-.103-.554.462.462 0 0 0-.187-.189.197.197 0 0 0-.12-.004.205.205 0 0 0-.102.067 1.648 1.648 0 0 0-.31.496.031.031 0 0 1-.023.009.031.031 0 0 1-.021-.01.491.491 0 0 0-.294.007.516.516 0 0 0-.243.174c-.14.168-.251.362-.326.571-.178.416-.311.85-.398 1.297.064-.45.176-.89.334-1.314.073-.219.185-.421.33-.596a.562.562 0 0 1 .28-.19.536.536 0 0 1 .332.01h-.047a1.74 1.74 0 0 1 .318-.525.28.28 0 0 1 .139-.09.267.267 0 0 1 .163.006.532.532 0 0 1 .227.218c.114.18.158.4.123.613-.024.21-.066.417-.127.617l-.088-.037c.068-.19.179-.36.322-.496a.242.242 0 0 1 .306 0 .54.54 0 0 1 .18.256c.057.191.076.393.055.592l-.052.58-.043-.047c.206 0 .27.215.306.362.025.156.025.317 0 .474-.048.306-.076.613-.108.923l-.195 1.835Z"/><path fill="#F0997A" d="M91.409 19.163a.415.415 0 0 1 .146.182c.031.075.041.157.028.237a1.666 1.666 0 0 1-.079.42 6.458 6.458 0 0 0-.235.81 7.472 7.472 0 0 0-.139.84l-.075.84.051-.84c.023-.282.062-.562.116-.84a6.31 6.31 0 0 1 .21-.84c.04-.135.061-.277.064-.419a.358.358 0 0 0-.026-.18.336.336 0 0 0-.11-.139l.049-.071ZM92.185 20.01c-.08.386-.139.781-.19 1.176-.052.394-.104.789-.12 1.188 0-.42.032-.798.068-1.197.035-.398.08-.793.143-1.188l.1.021ZM91.596 24.07a1.583 1.583 0 0 0-.87-.579c-.024 0 0 .042 0 .046.286.127.535.331.723.592.18.252.314.537.398.84.023.11.052.22.087.327a.065.065 0 0 0 .028-.027.07.07 0 0 0 .008-.04 4.53 4.53 0 0 0-.084-.659 1.359 1.359 0 0 0-.29-.5ZM92.916 20.905c-.106.475-.19.956-.25 1.44.027-.49.077-.977.151-1.46l.1.02Z"/><path fill="#FFBDA7" d="M89.869 22.089c-.103-.685-.52-.945-.76-.79-.238.156-.059.966-.103 1.507-.043.542-.374 3.094.752 3.577l.437-2.888c-.167-.164-.246-.873-.326-1.406Z"/><path fill="#F0997A" d="M90.196 23.497a1.07 1.07 0 0 1-.195-.466c-.044-.164-.071-.332-.103-.5a2.395 2.395 0 0 0-.255-.961.565.565 0 0 0-.154-.175.53.53 0 0 0-.207-.094.23.23 0 0 0-.191.059.41.41 0 0 0-.068.214c-.028.332.028.672.032 1.02a15.274 15.274 0 0 0-.088 2.04c.017.338.079.671.183.991.044.167.121.323.226.457.105.134.235.243.383.32a1.198 1.198 0 0 1-.396-.3 1.276 1.276 0 0 1-.248-.443 3.736 3.736 0 0 1-.2-1.004 15.197 15.197 0 0 1 .052-2.044c0-.34-.047-.676 0-1.029a.507.507 0 0 1 .096-.26.306.306 0 0 1 .254-.084.593.593 0 0 1 .23.109c.068.053.126.12.168.198.342.604.147 1.36.481 1.952Z"/><path fill="#455A64" d="M71.022 12.09a30.55 30.55 0 0 0-4.52 1.046c-1.247 1.179-2.008 2.825-2.12 4.588-.08.953-.091 3.665-.668 6.1a27.552 27.552 0 0 1-1.296 3.778s.334 3.098 6.886 5.13c4.31 1.335 5.86-.219 5.86-.219s2.986-7.787 3.376-11.531c.425-4.11.107-7.296-1.487-8.304a12.007 12.007 0 0 0-2.386-.487l-3.645-.1Z"/><path fill="#37474F" d="M71.082 1.912c-.265.015-.521.1-.747.246-.226.147-.413.35-.545.593-.294.441-.569 1.26-.247 3.825.122.988.383 1.952.776 2.858.11.293.324.53.596.66l.195-1.898.103-1.322s1.13-.84 1.336-1.755a3.222 3.222 0 0 0-.095-1.956l-1.372-1.251Z"/><path fill="#37474F" d="M70.832 1.94c.31-1.036 1.75-2.124 4.226-1.914 2.032.177 3.117 1.075 3.662 2.418.545 1.344-.123 2.884-.123 2.884l-6.29-1.339-1.475-2.048Z"/><path fill="#FFBDA7" d="M69.402 8.517c.098.09.212.158.335.2a.937.937 0 0 0 .753-.059.996.996 0 0 0 .303-.25l-.397 4.265c1.459 2.767 6.337 2.43 4.631.269l.144-1.193c.271.017.543.017.815 0 .423-.01.834-.151 1.182-.407.348-.255.617-.613.774-1.028.536-1.34.795-3.573.612-6.008a1.699 1.699 0 0 0-.131-.692 1.617 1.617 0 0 0-.398-.567c-.922-.655-1.928-.046-3.371.323-.6.156-1.988.063-2.33-.172.397.63-.056 2.036-.243 2.473-.266.634-.572.92-.703.932-.58.042-.58-.475-.796-.79a1.042 1.042 0 0 0-.393-.286.991.991 0 0 0-.926.09c-.138.089-.254.211-.339.356a1.845 1.845 0 0 0-.272.66 1.89 1.89 0 0 0 .26 1.384c.13.2.296.37.49.5Z"/><path fill="#F0997A" d="M71.803 10.132c.071.986 1.22 1.792 3.3 2.14l.063-.52a9.444 9.444 0 0 1-1.51-.365 5.422 5.422 0 0 1-1.853-1.255Z"/><path fill="#37474F" d="m74.451 4.805-.878.5a.582.582 0 0 1-.035-.413.549.549 0 0 1 .246-.323.473.473 0 0 1 .55.072c.048.046.089.101.117.164ZM78.068 5.325l-.859-.546a.502.502 0 0 1 .292-.249.457.457 0 0 1 .372.048.555.555 0 0 1 .24.332c.037.14.02.288-.045.415Z"/><path fill="#263238" d="M74.04 6.184a.442.442 0 0 0 .087.313.404.404 0 0 0 .275.153.38.38 0 0 0 .292-.094.418.418 0 0 0 .145-.284.446.446 0 0 0-.088-.31.405.405 0 0 0-.27-.152.377.377 0 0 0-.295.09.416.416 0 0 0-.146.284Z"/><path fill="#B16668" d="M74.757 9.097a.334.334 0 0 0 .036.18.31.31 0 0 0 .125.13.289.289 0 0 0 .333-.037.336.336 0 0 0 .096-.34.32.32 0 0 0-.098-.153.294.294 0 0 0-.28-.057.318.318 0 0 0-.212.277Z"/><path fill="#263238" d="M76.958 6.13a.438.438 0 0 0 .05.236c.038.072.095.13.164.168a.38.38 0 0 0 .435-.048.422.422 0 0 0 .127-.2.443.443 0 0 0 .003-.242.423.423 0 0 0-.124-.202.388.388 0 0 0-.21-.097.355.355 0 0 0-.308.082.412.412 0 0 0-.136.304Z"/><path fill="#F0997A" d="m75.81 5.333.092 2.8 1.471-.378a5.692 5.692 0 0 0-1.563-2.422Z"/><path fill="#FFBDA7" d="M66.647 13.456c-1.424.42-2.76 1.872-2.207 4.575a75.437 75.437 0 0 0 2.223 8.24c.44 1.235.437 1.529 1.813 2.6 1.49 1.162 7.104 4.093 7.554 4.34.449.248.974.193 1.848 0 .875-.193 1.193-.81 1.773-1.318.581-.508 1.44-.995 1.269-1.26-.171-.264-.609-.377-1.316-.046-.708.332-.847.521-.266-.659a10.09 10.09 0 0 1 1.156-1.838c.279-.458.215-.806 0-1-.214-.193-.644.29-.644.29.2-.226.35-.495.442-.789.043-.382-.12-.714-.398-.6-.18.088-.344.212-.481.365-.111-.147-.58-.273-1.097.373 0 0-.175-.42-.927.202-.616.5-1.192 1.68-1.47 2.246-.215.42-5.074-4.198-5.074-4.198l-1.717-6.687s-.796-4.354-2.481-4.836Z"/><path fill="#37474F" d="M66.502 13.134c-1.69.529-2.429 1.557-2.385 3.702.044 2.146 1.73 7.414 1.73 7.414a5.223 5.223 0 0 0 2.58 0 3.966 3.966 0 0 0 2.147-1.482s-1.165-4.962-1.38-5.7c-.215-.74-.783-3.573-2.692-3.934Z"/><path fill="#F0997A" d="M79.333 29.965c.142-.309.3-.609.473-.899.173-.293.364-.573.572-.84a.96.96 0 0 0 .227-.424.996.996 0 0 0-.004-.486.53.53 0 0 0-.135-.185.202.202 0 0 0-.2 0 1.35 1.35 0 0 0-.397.294.039.039 0 0 1-.026.008.039.039 0 0 1-.026-.012.043.043 0 0 1-.011-.027c0-.01.002-.02.008-.028.122-.152.231-.314.326-.487a.77.77 0 0 0 .087-.554c-.024-.189-.163-.357-.326-.26-.164.084-.312.2-.437.34a.046.046 0 0 1-.068 0 .338.338 0 0 0-.254-.101.699.699 0 0 0-.29.067 1.463 1.463 0 0 0-.481.42.039.039 0 0 1-.056 0 .3.3 0 0 0-.17-.11.288.288 0 0 0-.196.026 1.386 1.386 0 0 0-.397.21c-.247.184-.463.41-.64.667a13.787 13.787 0 0 0-.963 1.637c.26-.586.568-1.147.919-1.679a2.95 2.95 0 0 1 .644-.688c.121-.097.255-.174.397-.231a.378.378 0 0 1 .248-.017.396.396 0 0 1 .21.143h-.064c.137-.177.31-.32.505-.42a.76.76 0 0 1 .33-.08.417.417 0 0 1 .326.13h-.072c.137-.154.3-.28.481-.369a.265.265 0 0 1 .318.042.554.554 0 0 1 .14.298.88.88 0 0 1-.104.617 3.052 3.052 0 0 1-.346.5l-.055-.059c.114-.126.248-.23.397-.306a.274.274 0 0 1 .267 0c.07.056.125.131.159.218.044.17.046.35.004.523a1.029 1.029 0 0 1-.243.455c-.207.269-.397.529-.588.814a8.96 8.96 0 0 0-.49.853Z"/><path fill="#F0997A" d="M78.387 26.743a.8.8 0 0 1-.131.688c-.065.093-.14.177-.223.252a1.576 1.576 0 0 0-.187.269c-.218.39-.413.793-.584 1.209.156-.424.337-.838.54-1.239a1.66 1.66 0 0 1 .187-.285c.079-.075.148-.16.207-.252a.688.688 0 0 0 .1-.6l.09-.042ZM79.464 26.353a.437.437 0 0 1 0 .453c-.058.133-.131.257-.22.37-.18.209-.346.432-.496.667-.15.233-.29.474-.418.722l-.357.756.338-.768c.12-.254.252-.5.397-.74.144-.24.304-.47.477-.688a1.53 1.53 0 0 0 .2-.352.346.346 0 0 0 0-.349l.079-.071ZM79.906 27.443c-.207.327-.398.671-.585 1.02-.186.348-.361.697-.516 1.062.139-.374.306-.73.473-1.087.167-.357.346-.71.54-1.054l.088.059ZM79.6 30.623c-.458.214-.677.37-.617.13-.199.516-.167.722.02.529.176-.195.364-.379.56-.55a1.92 1.92 0 0 1 .545-.294 2.887 2.887 0 0 0-.509.185ZM77.761 31.177a1.674 1.674 0 0 0-.616-.873s-.028.034 0 .046c.226.23.39.52.473.84.04.168.068.34.084.512.01.109.01.219 0 .328a1.24 1.24 0 0 0 0 .205.503.503 0 0 0 .083-.21c.026-.086.045-.174.056-.264a1.433 1.433 0 0 0-.08-.584ZM74.295 28.139s1.193 2.157 1.292 2.065c.129-.322.242-.652.338-.986-.064.15-.76-.366-1.63-1.08Z"/><path fill="#E0E0E0" d="m71.92 79.756 25.155 15.335V51.508L71.92 36.173v43.583Z"/><path fill="#F0F0F0" d="M122.229 79.756 97.074 95.091V51.508l25.155-15.335v43.583Z"/><path fill="#FAFAFA" d="M122.23 36.173 97.075 20.838 71.92 36.173l25.155 15.335 25.155-15.335Z"/><path fill="#CCA552" d="M81.022 5.442a.255.255 0 0 1 .225-.145.22.22 0 0 1 .09.02l.99.512a.233.233 0 0 1 .115.142.237.237 0 0 1 0 .19L82.044 7a.233.233 0 0 1-.135.126.205.205 0 0 1-.179 0l-.99-.512a.252.252 0 0 1-.116-.144.27.27 0 0 1 .009-.188l.39-.84Zm2.1-4.508a.23.23 0 0 1 .055-.076.215.215 0 0 1 .08-.046.205.205 0 0 1 .179 0l.986.512a.239.239 0 0 1 .12.143.239.239 0 0 1 0 .189l-1.663 3.568a.23.23 0 0 1-.135.122.205.205 0 0 1-.179 0l-.986-.512a.225.225 0 0 1-.12-.143.237.237 0 0 1 0-.189L83.123.934Z"/><path fill="#fff" d="M81.024 5.44a.255.255 0 0 1 .225-.145.22.22 0 0 1 .09.02l.99.511a.233.233 0 0 1 .115.143.239.239 0 0 1 0 .189l-.398.84a.235.235 0 0 1-.055.078.22.22 0 0 1-.08.047.205.205 0 0 1-.179 0l-.99-.512a.253.253 0 0 1-.116-.143.27.27 0 0 1 .009-.188l.39-.84Zm2.1-4.509a.231.231 0 0 1 .055-.076.216.216 0 0 1 .08-.045.205.205 0 0 1 .179 0l.986.512a.225.225 0 0 1 .119.143.237.237 0 0 1 0 .188l-1.662 3.569a.23.23 0 0 1-.055.076.215.215 0 0 1-.08.045.205.205 0 0 1-.179 0l-.986-.512a.238.238 0 0 1-.12-.143.237.237 0 0 1 0-.188L83.125.93Z" opacity=".5"/><path fill="#CCA552" d="M83.186 7.96a.205.205 0 0 1 .167-.076.212.212 0 0 1 .167.068l.795.797a.243.243 0 0 1 .072.172.26.26 0 0 1-.064.18l-.608.677a.233.233 0 0 1-.253.06.225.225 0 0 1-.077-.052l-.795-.802a.218.218 0 0 1-.072-.172.233.233 0 0 1 .064-.176l.604-.676Zm3.276-3.644a.215.215 0 0 1 .163-.075.212.212 0 0 1 .171.063l.795.801a.227.227 0 0 1 .072.172.247.247 0 0 1-.06.181l-2.576 2.888a.215.215 0 0 1-.163.076.2.2 0 0 1-.171-.067l-.795-.798a.237.237 0 0 1-.072-.172.234.234 0 0 1 .064-.18l2.572-2.889Z"/><path fill="#fff" d="M83.184 7.96a.215.215 0 0 1 .167-.075.213.213 0 0 1 .167.067l.795.798a.245.245 0 0 1 .072.172.26.26 0 0 1-.064.18l-.608.676a.233.233 0 0 1-.253.06.226.226 0 0 1-.077-.051l-.795-.802a.23.23 0 0 1-.072-.172.233.233 0 0 1 .064-.177l.604-.676Zm3.276-3.643a.205.205 0 0 1 .163-.076.211.211 0 0 1 .171.063l.795.802a.239.239 0 0 1 .072.172.247.247 0 0 1-.06.18l-2.576 2.889a.215.215 0 0 1-.163.075.2.2 0 0 1-.171-.067l-.795-.798a.227.227 0 0 1-.072-.172.236.236 0 0 1 .064-.18l2.572-2.888Z" opacity=".2"/><path fill="#B16668" d="M13.553 143.374a5.626 5.626 0 0 1-.052-1.775c.152-.823.205-1.662.16-2.498-.057-.449-.192-.886-.275-1.331-.1-.442-.085-.905.044-1.339.266-.726.954-.894 1.59-1.113a3.825 3.825 0 0 0 1.451-.667c.517-.42 2.358-3.065 2.358-3.065l2.413 3.959s-2.565 1.948-3.18 2.729a4.824 4.824 0 0 0-.887 1.352 4.668 4.668 0 0 0-.155 1.502c.002.361.06.718.175 1.058.155.357.564.634.795.945.264.345.448.75.537 1.184a.57.57 0 0 1-.007.331.541.541 0 0 1-.188.265c-.092.071-.211.1-.303.168-.1.089-.209.171-.322.243a2.588 2.588 0 0 1-1.03.227 3.452 3.452 0 0 1-1.94-.462 2.425 2.425 0 0 1-.77-.718 2.59 2.59 0 0 1-.414-.995Z"/><path fill="#263238" d="M13.513 135.544c-.732.092-.89.684-.99 1.331-.1.646.318 1.729.465 2.304a2.44 2.44 0 0 1 0 1.743c-.27.965-.453 2.615.024 3.66.477 1.045 1.32 1.709 2.894 1.767 1.575.059 2.51-.348 2.7-.684a2.852 2.852 0 0 0 .111-1.515c-.095-.231-2.135-1.805-2.727-2.888-.593-1.084-2.477-5.718-2.477-5.718Z"/><path fill="#37474F" d="M16.607 134.507c-.143-.147-.255-.151-.625.055-.333.188-.689.329-1.057.42-.644.176-1.622.193-1.88 1.528-.26 1.335.464 2.602.397 3.4-.056.621-.795 2.607-.12 4.198.677 1.591 1.96 1.604 3.066 1.679 1.105.076 2.385-.42 2.441-.911a2.814 2.814 0 0 0-.278-1.339c-.2-.413-.5-.765-.867-1.02-.795-.575-.326-2.804-.235-3.069.134-.382.37-.714.68-.957.37-.365.497-.457-.187-.718-.604-.231-1.848-.722-2.449.097 0 0 .533-.886.49-1.26-.044-.373-.255-1.225.214-1.708.161-.1.3-.235.41-.395Z"/><path fill="#FAFAFA" d="M13.404 144.36c.23-.911 1.432-1.679 2.557-1.864 1.125-.184 1.59-.151 1.988.093.362.257.641.624.801 1.053.16.429.192.899.093 1.348-.68.991-4.496 1.394-5.439-.63Z"/><path fill="#263238" d="M26.105 120.957s-.795-2.099-.453-3.846c.342-1.746 1.84-5.763 1.84-5.763l9.145 1.645c-.139 3.736-1.367 6.717-2.17 9.236-1.014 2.905-1.456 3.958-2.43 5.184-.974 1.226-1.988 2.238-5.622 4.74-3.268 2.25-6.07 4.156-6.07 4.156s-1.018 0-1.87-1.558a5.425 5.425 0 0 1-.508-2.12s3.228-4.735 4.77-6.112a21.055 21.055 0 0 1 2.732-2.128l.636-3.434Z"/><path fill="#B16668" d="M29.804 156.861c.311.06.626.096.942.109.217.02.436.006.648-.042.287-.088.557-.23.796-.419.21-.116.382-.296.492-.517a.972.972 0 0 0-.174-.886 4.113 4.113 0 0 0-.668-.629l-.024-.021a9.827 9.827 0 0 1-2.024-2.733c-.509-.953-1.026-2.015-1.002-3.14.024-1.125.537-6.587 1.328-11.654a38.43 38.43 0 0 0 .517-5.092c0-.18-.282-6.507-.771-12.497a20.075 20.075 0 0 0 3.578-2.347 9.258 9.258 0 0 0 2.592-3.938l-10.25-3.081a33.397 33.397 0 0 0-2.385 3.094c-.902 1.415-1.193 3.014-1.093 5.344.095 2.099.715 4.958 1.033 6.574.672 3.396.915 5.403 1.161 7.325a23.63 23.63 0 0 0-.306 6.742c.167 1.864.7 6.847.692 8.816 0 0-.044.42-.215 1.537-.08.533-.715 1.809 0 2.422.132.151.274.291.426.42.19.126.397.26.556.419.18.138.341.298.481.479.145.229.266.474.362.73a5.41 5.41 0 0 0 1.674 2.301c.491.35 1.049.584 1.634.684Z"/><path fill="#263238" d="M24.145 151.409a1.27 1.27 0 0 0 .038.549c.052.178.143.341.264.475.42.384.877.719 1.364.999.433.302.76.744.934 1.26.135.543.397 1.041.762 1.45.364.408.82.713 1.326.888a4.833 4.833 0 0 0 3.526.118c.608-.202.986-.546.974-1.146-.012-.601-9.188-4.593-9.188-4.593Z"/><path fill="#37474F" d="M25.199 148.601c-.29-.168-.247-.374-.298-.504v-.223c-.199 0-.25.63-.521 1.373a4.482 4.482 0 0 0-.235 2.162c.358.84 1.543 1.075 2.163 1.906.62.831.589 2.359 2.66 3.148 1.865.714 3.77.034 4.373-.461 0 0 .303-1.373-.536-1.801a4.671 4.671 0 0 1-1.96-1.751 19.558 19.558 0 0 1-1.559-2.968c-.131-.42-.115-1.213-.398-1.259-.884.095-1.758.275-2.612.537-.425.16-.13 1.058-.13 1.058a1.886 1.886 0 0 1-.37-.63c-.171-.428-.323-.441-.577-.587Z"/><path fill="#FAFAFA" d="M28.123 156.034c.083-.982.6-1.763 1.737-2.275a3.024 3.024 0 0 1 2.16-.156c.397.193 1.272.592 1.355 1.26.052.373.037.753-.044 1.121 0 0-.902.911-2.834.801-1.662-.075-2.374-.751-2.374-.751Z"/><path fill="#37474F" d="M24.292 132.342c-.76 3.14-.095 7.401.131 9.5.127 1.125.398 3.941.398 3.941s.159.626 1.864.84c1.706.214 2.362-.344 2.362-.344s1.01-7.326 1.376-10.755c.222-1.76.3-3.537.23-5.311 0-1.49-.139-8.295-.314-9.584v-1.133s5.376-2.519 6.29-6.511l-11.323-3.291a10.456 10.456 0 0 0-2.668 3.182c-.755 1.406-.918 2.518-.954 4.449-.028 1.449.207 2.817.6 4.988.394 2.17 1.59 8.895 2.008 10.029Z"/><path fill="#B16668" d="M36.394 98.435c-1.113 1.033-1.646 2.544-.06 4.748a70.779 70.779 0 0 0 5.32 6.473c.89.92 1.01 1.184 2.684 1.541 1.813.386 8.075.529 8.58.554.457-.02.898-.193 1.256-.495.288-.204.54-.458.747-.752.282-.382.151-.89.16-1.322.02-.789.063-1.57.075-2.359 0-.357.103-.756-.1-1.075-.04-.063-.139-.139-.202-.122v-.487c0-.281-.02-.802-.33-.906-.31-.105-.47.554-.47.554.09-.294.118-.605.084-.911-.115-.37-.398-.596-.588-.374-.13.161-.23.346-.295.546a.38.38 0 0 0-.35.042 1.48 1.48 0 0 0-.536.907 6.275 6.275 0 0 0-.239 1.213 5.874 5.874 0 0 1-.175 1.259 1.308 1.308 0 0 1-.465.663.957.957 0 0 1-.795.097 11.93 11.93 0 0 1-1.32-.277 67.799 67.799 0 0 1-3.224-.911l-1.193-.374s-2.93-4.088-4.087-5.612c-.823-1.104-2.259-3.17-4.477-2.62Z"/><path fill="#9A4A4D" d="m55.08 109.182.032-1.859c0-.307 0-.622.036-.928a1.401 1.401 0 0 0-.04-.449.803.803 0 0 0-.095-.194.229.229 0 0 0-.067-.06.212.212 0 0 0-.084-.028.024.024 0 0 1-.015.001.059.059 0 0 1-.013-.005.047.047 0 0 1-.01-.011.04.04 0 0 1-.006-.014 3.029 3.029 0 0 0-.084-1.129c-.063-.156-.238-.298-.353-.168-.12.135-.21.295-.267.47a.051.051 0 0 1-.009.017.048.048 0 0 1-.014.013.038.038 0 0 1-.018.005.058.058 0 0 1-.018-.001.05.05 0 0 1-.026-.026.053.053 0 0 1-.002-.037c.053-.191.089-.386.107-.584a.788.788 0 0 0-.123-.554.456.456 0 0 0-.203-.172.198.198 0 0 0-.219.08 1.695 1.695 0 0 0-.28.524.03.03 0 0 1-.038.009.493.493 0 0 0-.293.028.526.526 0 0 0-.231.194c-.133.175-.23.376-.287.592a6.19 6.19 0 0 0-.298 1.318c.035-.453.12-.901.25-1.335.059-.223.157-.433.29-.617a.568.568 0 0 1 .266-.218.536.536 0 0 1 .335-.021h-.044c.06-.198.156-.382.283-.542a.275.275 0 0 1 .131-.1.258.258 0 0 1 .163-.005c.1.038.185.108.242.202a.873.873 0 0 1 .16.6c-.015.206-.05.41-.104.609l-.091-.029a1.31 1.31 0 0 1 .29-.521.238.238 0 0 1 .306-.029c.087.056.155.14.195.239.067.188.1.387.095.588v.579l-.047-.042c.206 0 .282.197.33.34.04.153.052.312.035.47-.023.311-.032.617-.043.928l-.124 1.872Z"/><path fill="#9A4A4D" d="M53.285 103.999c.07.04.127.102.163.177.036.074.05.159.04.242 0 .142-.017.283-.052.42-.08.275-.14.556-.182.84a8.458 8.458 0 0 0-.088.839v.84-.84c.006-.281.027-.561.064-.839a6.04 6.04 0 0 1 .159-.84 1.57 1.57 0 0 0 .035-.42.341.341 0 0 0-.155-.31l.016-.109ZM54.117 104.791a16.82 16.82 0 0 0-.12 1.188c-.027.399-.051.793-.043 1.192-.024-.42 0-.798 0-1.197 0-.398.028-.797.068-1.196l.095.013ZM53.786 108.885a1.57 1.57 0 0 0-.906-.517c-.024 0 0 .042 0 .047.294.105.557.291.763.537.19.25.336.534.43.84.035.104.063.218.107.319a.07.07 0 0 0 .032-.072 3.89 3.89 0 0 0-.128-.65 1.267 1.267 0 0 0-.298-.504ZM54.901 105.632c-.067.483-.135.97-.159 1.457-.002-.491.019-.981.064-1.47l.095.013Z"/><path fill="#B16668" d="M51.941 107.025c-.143-.671-.576-.902-.795-.73-.219.172 0 .97 0 1.511 0 .542-.179 3.111.97 3.514l.27-2.913c-.206-.147-.33-.857-.445-1.382Z"/><path fill="#9A4A4D" d="M52.37 108.404a1.011 1.011 0 0 1-.226-.449 7.049 7.049 0 0 1-.136-.491 2.461 2.461 0 0 0-.314-.945.563.563 0 0 0-.165-.161.529.529 0 0 0-.213-.078.238.238 0 0 0-.187.075.415.415 0 0 0-.055.219c0 .327.072.667.095 1.011a15.87 15.87 0 0 0 .044 2.041c.038.336.121.666.247.978.054.159.14.304.25.427.11.123.242.22.39.286a1.178 1.178 0 0 1-.412-.27 1.273 1.273 0 0 1-.276-.422 3.666 3.666 0 0 1-.262-.991 15.303 15.303 0 0 1-.08-2.044c-.041-.34-.067-.682-.075-1.025a.435.435 0 0 1 .075-.264.302.302 0 0 1 .25-.101.617.617 0 0 1 .426.277c.386.596.238 1.36.624 1.927Z"/><path fill="#455A64" d="M35.118 98.148c.801-.044 1.604.03 2.386.218.48.176 2.15 3.232 2.838 6.406.688 3.174-2.453 4.42-2.453 4.42s-.906 3.212-1.022 3.9c-.115.689.136 1.852-.397 2.519-.664.84-2.513 1.616-6.393.235-2.91-1.037-5.658-4.198-5.809-4.907-.103-.491.47-1.008.708-1.218.934-.801 1.554-1.301 1.829-3.74a18.996 18.996 0 0 1 1.034-4.316c.608-1.603 1.483-2.099 2.02-2.837a27.82 27.82 0 0 1 5.26-.68Z"/><path fill="#263238" d="M30.555 88.32c-1.554.382-1.829 2.993-.902 4.576 1.53 2.62 2.982 2.98 3.18 4.231 1.638-1.289 3.245-2.628 4.895-3.9 1.093-.541 2.385-1.679 1.777-3.081a.683.683 0 0 0 .361.28c.147.047.305.04.448-.02a.692.692 0 0 0 .34-.308.752.752 0 0 0 .083-.464.502.502 0 0 1-.127.26.443.443 0 0 1-.52.105.474.474 0 0 1-.208-.193c-.202-.353-.087-.814-.023-1.226.166-1.117-.796-2.418-1.9-2.317-2.283-1.73-6.645-1.138-7.404 2.057Z"/><path fill="#263238" d="M31.674 97.4a.725.725 0 0 1 .279-.205c.136-.042.279-.06.421-.055.361-.027.705-.174.982-.42.24-.251.45-.533.624-.84a1.45 1.45 0 0 0 .135-.935 4.073 4.073 0 0 0-.854-2.284 2.53 2.53 0 0 0-.505-.453 4.335 4.335 0 0 0-.573-.29.766.766 0 0 0-.23-.084 6.407 6.407 0 0 0-.696-.08.63.63 0 0 1-.128 0 .475.475 0 0 1-.163-.071 1.963 1.963 0 0 0-.473-.198 3.018 3.018 0 0 0-1.192-.088c-.418.033-.813.21-1.125.504a1.168 1.168 0 0 0-.318.554c-.053.213-.048.437.015.647.08.142.129.301.143.466-.03.15-.099.287-.198.398a1.41 1.41 0 0 0-.275.84c0 .305.097.6.275.84.17.142.329.301.473.474.17.277.123.647.226.961.093.327.299.604.577.777.24.15.518.215.795.189a1.015 1.015 0 0 1-.477-.53 1.092 1.092 0 0 1-.028-.73c.075.392.292.737.604.962a1.208 1.208 0 0 0 1.264.075 3.33 3.33 0 0 0 .422-.424Z"/><path fill="#B16668" d="m32.013 98.01.267-2.633c-.227.138-.491.19-.75.147a1.128 1.128 0 0 1-.67-.382c-.795-.819-.93-1.746-.524-2.364.44-.684 1.494-.478 1.987.307.688.139.923-.898.362-1.927 0 0 1.352-.915 1.026-2.439 1.193.722 3.948.966 4.548-.348.398.583.95 1.259 1.074 4.508.111 2.964-.398 3.694-1.161 4.085a3.605 3.605 0 0 1-1.873.269s0 .386-.047.625c-.048.24.107.298.345.336.541.445 1.193 1.738-.33 2.023-3.34.626-4.683-1.074-4.886-1.679.465-.092.588-.206.632-.529Z"/><path fill="#263238" d="m37.802 90.381.899.42a.5.5 0 0 1-.26.28.449.449 0 0 1-.372-.007.534.534 0 0 1-.263-.29.574.574 0 0 1-.004-.403ZM34.43 91.229l.886-.479a.505.505 0 0 0-.113-.165.471.471 0 0 0-.357-.13.457.457 0 0 0-.186.056.547.547 0 0 0-.25.31.582.582 0 0 0 .02.408Z"/><path fill="#9A4A4D" d="m36.53 91.409.238 2.716 1.3-.634-1.539-2.082Z"/><path fill="#263238" d="M37.682 91.959a.464.464 0 0 0 .112.313.417.417 0 0 0 .285.144.378.378 0 0 0 .293-.104.419.419 0 0 0 .133-.294.46.46 0 0 0-.111-.314.413.413 0 0 0-.443-.123.419.419 0 0 0-.27.378Z"/><path fill="#9A4A4D" d="M35.678 94.798a.283.283 0 0 0 .069.194c.046.053.11.084.177.088a.23.23 0 0 0 .182-.065.27.27 0 0 0 .08-.184.287.287 0 0 0-.068-.196.257.257 0 0 0-.178-.09.234.234 0 0 0-.182.068.262.262 0 0 0-.08.185Z"/><path fill="#263238" d="M34.81 92.04a.46.46 0 0 0 .113.31.413.413 0 0 0 .285.143.378.378 0 0 0 .29-.107.418.418 0 0 0 .132-.292.455.455 0 0 0-.111-.313.409.409 0 0 0-.442-.118.393.393 0 0 0-.135.084.42.42 0 0 0-.131.292Z"/><path fill="#9A4A4D" d="M36.289 97.23c-1.559-.1-3.066-.575-3.443-1.31.04.228.128.442.255.63.128.187.293.342.484.454.795.45 2.672.672 2.672.672l.032-.445Z"/><path fill="#B16668" d="M29.823 98.844c-1.435.382-2.823 1.759-2.386 4.488a74.755 74.755 0 0 0 1.933 8.32c.397 1.26.397 1.545 1.717 2.67 1.447 1.222 6.954 4.37 7.391 4.618.438.248.966.235 1.845.092s1.193-.76 1.817-1.259c.624-.5 1.479-.936 1.316-1.192-.163-.256-.596-.42-1.312-.101-.716.319-.867.487-.247-.672.346-.642.755-1.243 1.221-1.792.298-.42.246-.794.056-.995-.191-.202-.656.264-.656.264a2.16 2.16 0 0 0 .469-.768c.055-.386-.096-.718-.362-.617a1.584 1.584 0 0 0-.497.344c-.107-.151-.572-.294-1.11.332 0 0-.162-.42-.934.163-.632.475-1.244 1.642-1.546 2.188-.23.419-4.922-4.375-4.922-4.375l-1.519-6.809s-.624-4.349-2.274-4.899Z"/><path fill="#9A4A4D" d="M41.916 115.837c.155-.298.322-.592.505-.877a8.31 8.31 0 0 1 .6-.806.94.94 0 0 0 .243-.415.984.984 0 0 0 .012-.488.49.49 0 0 0-.127-.189.204.204 0 0 0-.2 0 1.338 1.338 0 0 0-.41.289.032.032 0 0 1-.016.005.032.032 0 0 1-.017-.002.042.042 0 0 1-.014-.01.037.037 0 0 1-.009-.015.045.045 0 0 1 .002-.035.78.78 0 0 0 .464-1.038c-.02-.193-.154-.365-.321-.272a1.434 1.434 0 0 0-.462.319.074.074 0 0 1-.015.011.056.056 0 0 1-.037 0 .077.077 0 0 1-.015-.011.353.353 0 0 0-.114-.084.355.355 0 0 0-.136-.03.665.665 0 0 0-.295.059c-.19.088-.36.218-.497.382a.034.034 0 0 1-.051 0 .287.287 0 0 0-.362-.101c-.142.044-.276.11-.398.198-.255.172-.48.389-.664.642a12.833 12.833 0 0 0-1.017 1.595c.28-.572.606-1.118.974-1.633.186-.259.414-.484.671-.663.13-.093.272-.165.422-.214a.355.355 0 0 1 .248-.013.378.378 0 0 1 .201.155h-.064c.143-.178.32-.322.521-.419a.753.753 0 0 1 .33-.067.411.411 0 0 1 .322.146h-.067c.14-.148.306-.268.489-.352a.287.287 0 0 1 .322.054c.07.085.115.19.127.303a.878.878 0 0 1-.127.613 2.875 2.875 0 0 1-.362.486l-.056-.058c.117-.121.251-.22.398-.294a.272.272 0 0 1 .266 0 .51.51 0 0 1 .151.222c.04.173.036.354-.012.524a1.009 1.009 0 0 1-.262.446c-.215.26-.425.512-.616.789s-.358.554-.525.848Z"/><path fill="#9A4A4D" d="M41.088 112.589a.801.801 0 0 1-.156.68 1.49 1.49 0 0 1-.23.244 1.583 1.583 0 0 0-.199.26c-.231.38-.44.776-.624 1.184.17-.418.364-.823.584-1.213.056-.1.121-.193.195-.278a1.54 1.54 0 0 0 .215-.247.671.671 0 0 0 .12-.596l.095-.034ZM42.188 112.241a.434.434 0 0 1 0 .453c-.061.132-.14.253-.235.361a6.023 6.023 0 0 0-.516.642 7.96 7.96 0 0 0-.446.706l-.397.747.365-.76c.13-.249.271-.49.426-.722.15-.236.318-.459.5-.667.087-.104.157-.22.212-.345a.343.343 0 0 0 0-.348l.091-.067ZM42.577 113.343c-.219.323-.417.659-.616.999-.199.34-.398.68-.553 1.041.147-.369.33-.718.51-1.07.178-.353.373-.693.58-1.029l.08.059ZM42.165 116.508c-.465.198-.688.34-.624.105-.215.508-.191.718 0 .533.185-.189.38-.367.584-.533.17-.119.357-.21.553-.269a2.45 2.45 0 0 0-.513.164ZM40.304 116.993a1.647 1.647 0 0 0-.58-.898s-.033.029 0 .042c.215.233.369.523.444.84.034.17.055.342.064.516a1.49 1.49 0 0 1 0 .327 1.213 1.213 0 0 0-.024.206.54.54 0 0 0 .088-.21c.03-.084.053-.171.067-.26.02-.19 0-.382-.06-.563ZM36.967 113.814s1.133 2.204 1.22 2.099c.14-.316.265-.64.374-.97-.087.164-.767-.386-1.594-1.129Z"/><path fill="#E0E0E0" d="m32.34 165.551 25.155 15.335v-43.583L32.34 121.968v43.583Z"/><path fill="#F0F0F0" d="m82.65 165.551-25.156 15.335v-43.583l25.155-15.335v43.583Z"/><path fill="#FAFAFA" d="m82.65 121.968-25.155-15.335-25.155 15.335 25.155 15.335 25.155-15.335Z"/><path fill="#CCA552" d="M42.398 92.528a.235.235 0 0 1 .055-.078.22.22 0 0 1 .08-.048.22.22 0 0 1 .18 0l.99.513a.235.235 0 0 1 .115.143.237.237 0 0 1 0 .188l-.398.84a.235.235 0 0 1-.055.078.218.218 0 0 1-.08.048.23.23 0 0 1-.183 0l-.986-.513a.248.248 0 0 1-.12-.142.256.256 0 0 1 0-.19l.402-.839Zm2.1-4.508a.243.243 0 0 1 .135-.126.224.224 0 0 1 .178 0l.986.512a.212.212 0 0 1 .075.057c.02.025.036.054.045.086a.256.256 0 0 1 0 .188l-1.658 3.569a.242.242 0 0 1-.135.121.205.205 0 0 1-.18 0l-.99-.512a.238.238 0 0 1-.115-.147.242.242 0 0 1 0-.189l1.658-3.56ZM44.561 95.046a.235.235 0 0 1 .167-.08.231.231 0 0 1 .167.068l.795.801a.268.268 0 0 1 .072.173.26.26 0 0 1-.064.18l-.608.672a.233.233 0 0 1-.163.08.231.231 0 0 1-.17-.068l-.796-.801a.227.227 0 0 1-.072-.172.248.248 0 0 1 .06-.181l.612-.672Zm3.276-3.644a.232.232 0 0 1 .165-.073.22.22 0 0 1 .165.074l.796.801a.235.235 0 0 1 .072.172.246.246 0 0 1-.064.18l-2.589 2.88a.215.215 0 0 1-.163.076.211.211 0 0 1-.17-.067l-.796-.797a.248.248 0 0 1-.075-.177.26.26 0 0 1 .063-.176l2.596-2.892Z"/><path fill="#fff" d="M44.561 95.046a.235.235 0 0 1 .167-.08.231.231 0 0 1 .167.068l.795.801a.268.268 0 0 1 .072.173.26.26 0 0 1-.064.18l-.608.672a.233.233 0 0 1-.163.08.231.231 0 0 1-.17-.068l-.796-.801a.227.227 0 0 1-.072-.172.248.248 0 0 1 .06-.181l.612-.672Zm3.276-3.644a.232.232 0 0 1 .165-.073.22.22 0 0 1 .165.074l.796.801a.235.235 0 0 1 .072.172.246.246 0 0 1-.064.18l-2.589 2.88a.215.215 0 0 1-.163.076.211.211 0 0 1-.17-.067l-.796-.797a.248.248 0 0 1-.075-.177.26.26 0 0 1 .063-.176l2.596-2.892Z" opacity=".2"/><path fill="#FFBDA7" d="M93.54 129.453a5.52 5.52 0 0 1-.05-1.776c.149-.83.201-1.676.154-2.519-.056-.449-.187-.881-.27-1.326a2.551 2.551 0 0 1 .044-1.34c.262-.726.95-.894 1.59-1.112a3.808 3.808 0 0 0 1.447-.668c.52-.419 2.362-3.064 2.362-3.064l2.417 3.95s-2.564 1.948-3.18 2.729a4.896 4.896 0 0 0-.891 1.352 4.903 4.903 0 0 0-.155 1.503c.005.36.066.717.179 1.057.15.357.564.634.795.945.263.345.445.751.532 1.184a.569.569 0 0 1-.004.33.54.54 0 0 1-.186.266c-.096.071-.211.096-.306.168-.1.091-.208.173-.323.243a2.535 2.535 0 0 1-1.025.227 3.452 3.452 0 0 1-1.94-.462 2.45 2.45 0 0 1-.768-.708 2.613 2.613 0 0 1-.421-.979Z"/><path fill="#263238" d="M93.496 121.616c-.727.092-.89.684-.986 1.326-.095.643.314 1.734.462 2.309a2.436 2.436 0 0 1 0 1.742c-.27.966-.454 2.616.023 3.661.477 1.045 1.32 1.709 2.899 1.767 1.578.059 2.508-.348 2.695-.684a2.819 2.819 0 0 0 .116-1.515c-.1-.231-2.135-1.806-2.728-2.889-.592-1.083-2.48-5.717-2.48-5.717Z"/><path fill="#37474F" d="M96.593 120.585c-.143-.147-.254-.151-.624.055-.335.18-.69.314-1.058.398-.648.181-1.626.198-1.884 1.533-.259 1.335.465 2.598.397 3.4-.06.621-.815 2.607-.119 4.198.696 1.591 1.96 1.608 3.061 1.679 1.102.072 2.386-.42 2.442-.911a2.79 2.79 0 0 0-.274-1.339c-.2-.414-.5-.766-.868-1.02-.795-.579-.33-2.804-.238-3.069a2.13 2.13 0 0 1 .68-.961c.373-.361.5-.453-.183-.714-.608-.231-1.849-.722-2.453.097 0 0 .537-.886.493-1.259-.044-.374-.255-1.226.215-1.709.16-.096.3-.224.413-.378Z"/><path fill="#FAFAFA" d="M93.393 130.422c.226-.911 1.43-1.679 2.556-1.864 1.125-.185 1.59-.151 1.988.092.362.257.642.625.8 1.054.16.429.191.899.09 1.347-.687 1.008-4.492 1.411-5.434-.629Z"/><path fill="#263238" d="M106.092 107.037s-.796-2.099-.454-3.846c.342-1.746 1.841-5.764 1.841-5.764l9.144 1.646c-.139 3.736-1.363 6.717-2.166 9.236-1.014 2.909-1.456 3.962-2.434 5.188-.978 1.226-1.987 2.234-5.621 4.74-3.264 2.25-6.071 4.156-6.071 4.156s-1.018 0-1.869-1.558a5.385 5.385 0 0 1-.505-2.099s3.224-4.735 4.771-6.116a21.66 21.66 0 0 1 2.727-2.128l.637-3.455Z"/><path fill="#FFBDA7" d="M114.529 143.515c.314.045.63.068.946.067.217.009.434-.013.644-.067.277-.093.537-.235.768-.42.203-.128.366-.317.469-.542a.983.983 0 0 0 .005-.467.948.948 0 0 0-.212-.41 4.127 4.127 0 0 0-.692-.596l-.027-.021a9.674 9.674 0 0 1-2.128-2.645c-.548-.928-1.105-1.964-1.129-3.09-.024-1.125.279-6.607.867-11.703.219-1.695.324-3.403.314-5.114 0-.176-.795-8.19-2.592-13.916a6.44 6.44 0 0 0 2.902-1.721 16.39 16.39 0 0 0 1.964-2.779l-9.844-4.198a10.675 10.675 0 0 0-2.417 2.825 10.693 10.693 0 0 0-1.479 6.033c.179 2.099.994 4.466 1.59 5.986 1.11 2.775 3.078 7.019 3.738 8.501a23.46 23.46 0 0 0 0 6.746c.242 1.86 1.057 6.939 1.129 8.908a6.917 6.917 0 0 0-.239 1.423c-.06.538-.644 1.839.096 2.418.139.14.288.269.445.386.196.114.386.241.568.378.187.127.355.281.501.458.157.22.291.458.398.709a5.437 5.437 0 0 0 1.745 2.259c.511.32 1.08.522 1.67.592Z"/><path fill="#263238" d="M108.644 138.314a1.266 1.266 0 0 0 .279 1.033c.409.398.858.747 1.34 1.041.422.313.738.762.898 1.28.121.547.37 1.053.725 1.471.354.419.802.737 1.303.926a4.799 4.799 0 0 0 3.522.218c.613-.184 1.002-.516 1.006-1.12.004-.605-9.073-4.849-9.073-4.849Z"/><path fill="#37474F" d="M109.771 135.542a.928.928 0 0 1-.397-.516v-.164c-.199 0-.135.562-.426 1.301a4.49 4.49 0 0 0-.29 2.154c.342.865 1.519 1.121 2.119 1.969.601.848.525 2.371 2.576 3.219 1.849.769 3.766.143 4.374-.34 0 0 .338-1.36-.493-1.809a4.724 4.724 0 0 1-1.916-1.805 19.267 19.267 0 0 1-1.479-3.014c-.124-.42-.088-1.218-.362-1.26a14.11 14.11 0 0 0-2.624.466c-.426.143-.155 1.054-.155 1.054a1.938 1.938 0 0 1-.358-.638c-.171-.449-.318-.466-.569-.617Z"/><path fill="#FAFAFA" d="M112.51 143.051c.107-.978.644-1.743 1.793-2.221a3.03 3.03 0 0 1 2.163-.097c.397.206 1.256.63 1.32 1.314.043.374.02.752-.068 1.117 0 0-.93.89-2.855.726-1.661-.143-2.353-.839-2.353-.839Z"/><path fill="#37474F" d="M108.052 119.243c-.636 3.174.179 7.38.505 9.505.175 1.116.56 3.916.56 3.916s.183.622 1.893.752 2.346-.449 2.346-.449.58-7.376.95-10.806c.232-1.682.241-3.39.028-5.075-.072-1.486-.903-6.348-1.547-9.265l-.533-2.809s3.622-.944 4.374-4.957l-10.075-4.58a9.106 9.106 0 0 0-2.819 2.783c-.855 1.339-1.451 2.519-1.371 5.096.059 1.906.612 3.359.998 4.727.345 1.276 4.23 10.05 4.691 11.162Z"/><path fill="#263238" d="M110.932 108.454a43.375 43.375 0 0 1 1.491 5.302c.198.903.349 1.814.477 2.729.063.458.111.919.155 1.381 0 .231.043.462.055.697.012.235 0 .466 0 .697 0 1.855-.099 3.694-.238 5.529a110.101 110.101 0 0 1-.557 5.491c.045-1.839.104-3.678.175-5.517l.092-2.749c.027-.92.047-1.835.039-2.746v-.68c0-.226-.031-.453-.047-.68-.036-.453-.088-.907-.136-1.36a44.737 44.737 0 0 0-.397-2.712c-.302-1.805-.692-3.589-1.109-5.382ZM110.359 73.659c-1.499.319-2.131 3.035-1.988 5.877.143 2.842 1.591 7.136 6.481 8.14 4.89 1.003 6.985-.6 7.606-2.1 1.089-2.623-.589-4.096-1.837-4 .819-1.024-.481-3.518-2.581-2.481-1.212.609-7.681-5.436-7.681-5.436Z"/><path fill="#FFBDA7" d="M116.799 83.484c-1.312.718-2.17 2.053-1.133 4.593a73.301 73.301 0 0 0 3.702 7.627c.66 1.117.712 1.407 2.258 2.175 1.674.84 7.721 2.552 8.202 2.703.451.097.919.04 1.336-.164.325-.126.627-.309.895-.541.357-.298.349-.84.457-1.26.195-.76.397-1.51.604-2.27a1.88 1.88 0 0 0 .147-1.071c-.024-.071-.103-.168-.167-.168 0 0 .08-.323.12-.47.071-.269.163-.785-.116-.966-.278-.18-.58.42-.58.42.154-.263.253-.558.29-.865-.028-.386-.25-.675-.489-.508a1.652 1.652 0 0 0-.398.454.384.384 0 0 0-.349-.046c-.321.143-.58.408-.724.743-.207.353-.377.729-.509 1.12a5.82 5.82 0 0 1-.449 1.163c-.143.24-.355.425-.605.53a.971.971 0 0 1-.795-.11 13.188 13.188 0 0 1-1.216-.6 68.61 68.61 0 0 1-2.926-1.705c-.362-.218-.72-.44-1.078-.663 0 0-1.92-4.71-2.703-6.481-.565-1.235-1.491-3.602-3.774-3.64Z"/><path fill="#F0997A" d="m132.516 98.651.45-1.796c.079-.299.155-.605.246-.895.045-.143.065-.294.06-.445a.628.628 0 0 0-.048-.21c-.024-.058-.084-.121-.123-.126-.006.001-.011 0-.016-.001a.04.04 0 0 1-.014-.01.028.028 0 0 1-.008-.014.033.033 0 0 1-.002-.016c.127-.356.186-.734.175-1.113-.028-.172-.163-.353-.306-.256-.146.103-.27.235-.366.39a.047.047 0 0 1-.064 0 .057.057 0 0 1 0-.067c.093-.17.171-.348.231-.533a.79.79 0 0 0 0-.567.456.456 0 0 0-.155-.218.19.19 0 0 0-.231.021c-.155.113-.29.256-.397.42a.032.032 0 0 1-.022.01.488.488 0 0 0-.583.075c-.16.138-.295.308-.397.498a6.115 6.115 0 0 0-.589 1.21c.138-.433.322-.847.549-1.235.1-.2.235-.378.398-.524a.55.55 0 0 1 .64-.084h-.052c.105-.178.239-.333.398-.458a.264.264 0 0 1 .31-.025.5.5 0 0 1 .187.256c.081.197.088.419.02.621a3.091 3.091 0 0 1-.239.567l-.084-.055a1.34 1.34 0 0 1 .398-.42.236.236 0 0 1 .302.047.498.498 0 0 1 .135.28c.025.2.012.403-.039.597l-.147.558-.036-.05c.203.055.226.26.242.42.002.16-.021.318-.067.47-.1.294-.175.588-.259.886l-.497 1.792Z"/><path fill="#F0997A" d="M131.936 93.164a.435.435 0 0 1 .103.44 1.543 1.543 0 0 1-.147.42 5.917 5.917 0 0 0-.362.756 8.17 8.17 0 0 0-.278.794l-.211.818.187-.84c.071-.272.159-.54.254-.805.097-.266.212-.524.342-.773.061-.121.106-.251.131-.386a.35.35 0 0 0-.079-.34l.06-.084ZM132.571 94.142c-.143.37-.266.748-.398 1.125-.121.377-.225.76-.31 1.146.064-.394.163-.776.263-1.162.099-.387.21-.769.338-1.147l.107.038ZM131.326 98.033a1.646 1.646 0 0 0-.763-.73c-.024 0-.024.038 0 .046.263.176.477.422.62.714.128.286.206.595.231.91.004.113.015.225.031.337a.062.062 0 0 0 .034-.021.06.06 0 0 0 .014-.038c.026-.222.034-.445.024-.668a1.335 1.335 0 0 0-.191-.55ZM133.128 95.159c-.175.453-.35.907-.482 1.373.109-.478.242-.948.398-1.41l.084.037Z"/><path fill="#FFBDA7" d="M129.946 95.765c0-.689-.354-1.02-.617-.915-.262.105-.218.94-.35 1.469-.131.529-.878 2.976.148 3.656l.922-2.762c-.147-.193-.103-.91-.103-1.448Z"/><path fill="#F0997A" d="M130.056 97.213a1.084 1.084 0 0 1-.12-.492v-.512a2.425 2.425 0 0 0-.095-.995.56.56 0 0 0-.31-.332.231.231 0 0 0-.199.026.422.422 0 0 0-.103.201c-.08.32-.08.664-.136 1.004-.183.653-.323 1.32-.417 1.994a3.726 3.726 0 0 0 0 1.011c.02.166.072.325.151.47.079.143.184.27.31.37a1.228 1.228 0 0 1-.336-.364 1.29 1.29 0 0 1-.173-.475 3.862 3.862 0 0 1-.032-1.025c.09-.677.222-1.348.398-2.006.06-.332.068-.676.159-1.016a.424.424 0 0 1 .135-.235.288.288 0 0 1 .263-.017c.08.033.153.084.213.149a.66.66 0 0 1 .137.229c.226.663-.088 1.368.155 2.015Z"/><path fill="#CCA552" d="M114.443 83.483a7.936 7.936 0 0 1 2.385.033c.493.135 2.386 3.052 3.28 6.163.895 3.11-2.135 4.618-2.135 4.618s-.68 3.274-.743 3.971c-.064.697.262 1.835-.239 2.557-.604.877-2.385 1.809-6.361.734-2.978-.806-5.94-3.753-6.135-4.441-.139-.479.398-1.041.621-1.26.87-.873 1.455-1.423 1.558-3.874a19.3 19.3 0 0 1 .728-4.387c.497-1.646 1.332-2.212 1.817-2.99a28.02 28.02 0 0 1 5.224-1.124Z"/><path fill="#263238" d="M111.658 81.8s-.966-1.485-1.495-2.484c-.528-1-2.047-4.3.183-5.651.08-1.1 1.149-2.128 3.157-2.544a5.413 5.413 0 0 1 2.495-.001 5.574 5.574 0 0 1 2.256 1.122c1.376 1.171 2.286 4.164.437 5.78l-7.033 3.779Z"/><path fill="#FFBDA7" d="M118.444 74.142s.668.78.52 2.96c-.023.377.211 1.053.191 2.015-.051 2.187-.727 3.253-1.769 3.64a4.075 4.075 0 0 1-1.71.07l-.095 1.26a12.043 12.043 0 0 1 1.324 5.331 33.466 33.466 0 0 0-5.351-4.815l.159-3.824s-.593.479-1.293-.277c-.767-.84-.707-2.099-.063-2.557.946-.646 1.57.122 1.769.592.199.47.974.177.545-1.234.477-.105 1.161-1.679 1.101-2.796 1.63.743 3.67.638 4.672-.365Z"/><path fill="#263238" d="m115.299 76.412-.883.5a.523.523 0 0 1-.051-.397.526.526 0 0 1 .089-.182.484.484 0 0 1 .536-.17c.129.038.24.128.309.25ZM117.643 76.23l.958.294a.538.538 0 0 0-.028-.4.476.476 0 0 0-.681-.208.547.547 0 0 0-.249.314Z"/><path fill="#F0997A" d="m116.539 77.2.334 2.36 1.256-.567-1.59-1.792ZM115.678 82.829a8.408 8.408 0 0 1-2.708-1.029c-.345-.3-.61-.69-.767-1.133 0 0 .08 1.075.632 1.557.875.764 2.783 1.26 2.783 1.26l.06-.655Z"/><path fill="#263238" d="M117.669 77.528c.01.104.056.2.13.27.074.07.169.108.268.108a.37.37 0 0 0 .337-.265.427.427 0 0 0 .017-.155.427.427 0 0 0-.13-.27.385.385 0 0 0-.268-.108.349.349 0 0 0-.262.13.408.408 0 0 0-.092.29ZM114.84 77.65a.433.433 0 0 0 .1.281.394.394 0 0 0 .254.138.355.355 0 0 0 .268-.091.395.395 0 0 0 .129-.265.433.433 0 0 0-.1-.282.394.394 0 0 0-.254-.138.356.356 0 0 0-.268.091.395.395 0 0 0-.129.266Z"/><path fill="#B16668" d="M115.264 79.933a.788.788 0 0 0-.008.58c.07.186.207.335.382.415a.68.68 0 0 0 .548.009.738.738 0 0 0 .394-.404l-1.316-.6Z"/><path fill="#F28F8F" d="M115.213 80.164a.789.789 0 0 0 .177.586.688.688 0 0 0 .531.253.866.866 0 0 0-.201-.563.782.782 0 0 0-.507-.276Z"/><path fill="#FFBDA7" d="M109.196 84.572c-1.403.495-2.691 1.977-2.043 4.66a73.885 73.885 0 0 0 2.521 8.152c.481 1.213.489 1.507 1.9 2.519 1.527 1.1 7.24 3.811 7.693 4.042.453.231.982.156 1.849-.054s1.157-.84 1.725-1.386c.569-.545 1.408-1.049 1.229-1.293-.179-.243-.624-.356-1.32 0-.696.357-.827.555-.29-.65.3-.666.666-1.297 1.093-1.88.266-.467.187-.815 0-1-.187-.185-.636.315-.636.315.185-.234.321-.508.398-.802.031-.386-.144-.71-.398-.588a1.65 1.65 0 0 0-.469.382c-.115-.142-.589-.247-1.082.42 0 0-.19-.42-.918.235-.6.52-1.129 1.734-1.392 2.305-.202.42-5.216-3.98-5.216-3.98l-1.988-6.674s-.986-4.303-2.656-4.723Z"/><path fill="#F0997A" d="M122.448 100.573c.135-.31.278-.617.441-.915a8.64 8.64 0 0 1 .545-.84.999.999 0 0 0 .191-.924.467.467 0 0 0-.143-.175.204.204 0 0 0-.199 0c-.137.08-.259.185-.362.31a.037.037 0 0 1-.055 0 .034.034 0 0 1-.009-.012.072.072 0 0 1-.002-.015l.002-.015a.8.8 0 0 0 .386-1.07c-.031-.189-.179-.353-.338-.248a1.46 1.46 0 0 0-.437.357.05.05 0 0 1-.015.011.048.048 0 0 1-.037 0 .055.055 0 0 1-.016-.011.342.342 0 0 0-.258-.088.654.654 0 0 0-.29.08c-.183.1-.342.244-.465.42a.044.044 0 0 1-.028.01.044.044 0 0 1-.028-.01.289.289 0 0 0-.366-.071 1.41 1.41 0 0 0-.397.226 2.78 2.78 0 0 0-.617.692 12.86 12.86 0 0 0-.902 1.68c.24-.594.527-1.166.859-1.709.166-.273.376-.515.62-.714a1.5 1.5 0 0 1 .397-.243.358.358 0 0 1 .462.105h-.068c.131-.188.299-.342.493-.453a.736.736 0 0 1 .326-.093.441.441 0 0 1 .33.118h-.072a1.68 1.68 0 0 1 .466-.387.277.277 0 0 1 .322.03.555.555 0 0 1 .151.294.904.904 0 0 1-.084.621 3.243 3.243 0 0 1-.326.512l-.059-.055c.113-.131.248-.24.397-.323a.255.255 0 0 1 .263 0 .495.495 0 0 1 .167.21c.051.169.059.349.024.522a1.032 1.032 0 0 1-.227.465c-.199.273-.398.546-.565.84-.167.293-.334.57-.477.868Z"/><path fill="#F0997A" d="M121.389 97.397a.783.783 0 0 1-.103.693 1.667 1.667 0 0 1-.215.26 1.655 1.655 0 0 0-.179.273c-.204.399-.385.811-.54 1.234.139-.43.305-.851.497-1.26.049-.103.109-.2.178-.29.073-.079.139-.166.195-.26a.69.69 0 0 0 .08-.604l.087-.046ZM122.463 96.964a.437.437 0 0 1 .036.453c-.051.136-.12.264-.207.378-.173.215-.33.443-.469.684a7.197 7.197 0 0 0-.397.74l-.334.772.31-.785a8.47 8.47 0 0 1 .374-.756c.134-.245.286-.48.453-.701.077-.111.139-.233.187-.361a.35.35 0 0 0-.028-.353l.075-.071ZM122.932 98.041c-.195.336-.374.689-.545 1.041-.171.353-.342.71-.481 1.083.128-.375.274-.744.438-1.104.155-.365.318-.722.501-1.074l.087.054ZM122.739 101.226c-.449.235-.66.395-.608.155-.183.521-.143.731.036.529.17-.202.35-.394.54-.575.162-.132.341-.237.533-.311-.172.051-.34.119-.501.202ZM120.922 101.85a1.661 1.661 0 0 0-.644-.84c-.02 0-.028.034 0 .046.233.217.407.495.505.806.043.169.076.34.099.512.017.109.027.218.028.328a1.17 1.17 0 0 0 0 .205.489.489 0 0 0 .071-.218 1.195 1.195 0 0 0-.043-.839h-.016ZM117.371 98.946s1.284 2.099 1.368 2.01c.083-.088.151-.562.302-.995-.08.156-.795-.331-1.67-1.015Z"/><path fill="#CCA552" d="M171.769 158.436c13.452-14.204 13.452-37.233 0-51.436-13.452-14.204-35.262-14.204-48.714 0-13.453 14.203-13.453 37.232 0 51.436 13.452 14.204 35.262 14.204 48.714 0Z"/><path fill="#000" d="M180.291 143.591c-.02.046-12.524 24.444-39.142 15.851-26.96-8.698-26.618-44.859-11.363-57.978-4.8 3.016-8.834 7.219-11.754 12.247-2.919 5.028-4.637 10.73-5.006 16.615a38.171 38.171 0 0 0 2.892 17.166c2.268 5.39 5.742 10.117 10.125 13.773 4.383 3.657 9.542 6.133 15.033 7.216a32.7 32.7 0 0 0 16.485-.999c5.338-1.739 10.194-4.823 14.152-8.985 3.958-4.162 6.897-9.278 8.566-14.906h.012Z" opacity=".1"/><path fill="#fff" d="M139.888 103.054c-2.846 1.188-5.713 3.359-6.234 6.528-.373 2.296.601 4.668 2.1 6.385 1.498 1.717 3.462 2.888 5.43 3.951 6.095 3.299 12.675 5.961 17.653 10.914 1.952 1.948 3.789 4.001 5.848 5.819 3.102 2.737 6.191 3.148 8.54 1.78.287-.166.562-.352.823-.559 8.898-6.96-.795-23.139-6.79-28.689-7.355-6.779-18.066-10.008-27.37-6.129Z" opacity=".1"/><path fill="#fff" d="M137.708 109.15c-.314 1.385.199 2.871 1.074 3.955a9.616 9.616 0 0 0 3.296 2.426c4.246 2.099 8.981 2.876 13.338 4.723 1.332.562 2.652 1.234 4.076 1.431 1.423.197 3.017-.168 3.912-1.352.751-.995.874-2.367.755-3.631a11.3 11.3 0 0 0-1.864-5.243c-4.115-6.083-13.037-9.177-19.685-6.645-1.924.734-4.377 2.019-4.902 4.336Z" opacity=".1"/><path fill="#E0E0E0" d="M166.184 166.257c-1.117.689-2.151 1.507-3.26 2.212a24.465 24.465 0 0 1-3.36 1.776 24.303 24.303 0 0 1-7.192 1.893c-1.407.143-2.783.101-4.21.122-.358 0-.171.491.079.542 1.317.2 2.653.225 3.976.075a24.065 24.065 0 0 0 3.821-.634 25.08 25.08 0 0 0 6.83-2.825c1.276-.764 2.584-1.608 3.523-2.813.079-.117-.048-.444-.207-.348ZM164.445 172.064c-.946.445-1.781 1.125-2.703 1.629-.875.473-1.786.866-2.724 1.175-.908.302-1.839.521-2.783.655-1.002.143-2.027.122-3.021.302-.151.03-.044.302.059.328a8.742 8.742 0 0 0 3.296 0 16.808 16.808 0 0 0 5.566-1.902c.871-.479 1.893-1.029 2.473-1.881.092-.109-.032-.373-.163-.306Z"/><path fill="#455A64" d="M148.594 58.835c-1.507-2.007-3.543-3.496-5.852-4.28a11.64 11.64 0 0 0-7.117-.125c-2.332.702-4.415 2.12-5.984 4.071a13.312 13.312 0 0 0-2.834 6.895 13.576 13.576 0 0 0 1.272 7.395c1.107 2.278 2.829 4.158 4.949 5.403a11.726 11.726 0 0 0 6.957 1.59c2.417-.209 4.721-1.169 6.621-2.76 2.546-2.135 4.185-5.25 4.558-8.66.372-3.41-.552-6.838-2.57-9.53Zm-18.36 15.36a12.164 12.164 0 0 1-2.378-6.364c-.18-2.323.298-4.65 1.371-6.687 1.073-2.036 2.694-3.691 4.659-4.755a10.649 10.649 0 0 1 6.375-1.22 10.874 10.874 0 0 1 5.943 2.724c1.683 1.51 2.903 3.511 3.508 5.753a12.418 12.418 0 0 1-.11 6.84c-.677 2.219-1.961 4.175-3.691 5.623-2.321 1.938-5.275 2.824-8.214 2.466-2.938-.36-5.623-1.934-7.463-4.38Z"/><path fill="#fff" d="M145.909 76.108a10.832 10.832 0 0 1-6.028 2.507 10.673 10.673 0 0 1-6.332-1.451c-1.928-1.134-3.495-2.847-4.501-4.921a12.347 12.347 0 0 1-1.153-6.733 12.12 12.12 0 0 1 2.584-6.273c1.429-1.776 3.326-3.064 5.449-3.701a10.595 10.595 0 0 1 6.478.12c2.101.715 3.954 2.072 5.324 3.9 1.835 2.45 2.674 5.57 2.333 8.673-.342 3.104-1.836 5.937-4.154 7.879Z"/><path fill="#455A64" d="m126.309 76.58 2.202-3.954 2.783 3.698-4.15 1.356a.679.679 0 0 1-.427.008.713.713 0 0 1-.354-.25.782.782 0 0 1-.054-.857Z"/><path fill="#CCA552" d="M138.983 61.8a4.63 4.63 0 0 0-2.672.852 5.034 5.034 0 0 0-1.772 2.276 5.35 5.35 0 0 0-.276 2.933 5.17 5.17 0 0 0 1.314 2.6 4.736 4.736 0 0 0 2.46 1.39 4.569 4.569 0 0 0 2.777-.286 4.872 4.872 0 0 0 2.159-1.867 5.27 5.27 0 0 0 .812-2.82 5.232 5.232 0 0 0-1.407-3.587 4.69 4.69 0 0 0-3.395-1.492Zm0 9.73a4.241 4.241 0 0 1-2.451-.783 4.607 4.607 0 0 1-1.626-2.089 4.9 4.9 0 0 1-.252-2.69 4.74 4.74 0 0 1 1.207-2.385 4.344 4.344 0 0 1 2.258-1.275 4.195 4.195 0 0 1 2.549.266c.806.353 1.494.95 1.978 1.717.485.766.743 1.667.742 2.588a4.79 4.79 0 0 1-1.292 3.288 4.293 4.293 0 0 1-3.113 1.363Z"/><path fill="#455A64" d="M138.385 66.875a.66.66 0 0 1 .1-.35.608.608 0 0 1 .268-.232.566.566 0 0 1 .344-.035.59.59 0 0 1 .306.172c.083.088.14.2.163.322a.664.664 0 0 1-.034.364.618.618 0 0 1-.22.283.573.573 0 0 1-.753-.078.651.651 0 0 1-.174-.446Z"/><path fill="#455A64" d="M138.982 67.084a.155.155 0 0 1-.076 0 .2.2 0 0 1-.09-.076.217.217 0 0 1-.033-.117v-2.716c0-.056.021-.11.058-.149a.196.196 0 0 1 .141-.061.198.198 0 0 1 .139.063.22.22 0 0 1 .06.147v2.208l.946-1a.193.193 0 0 1 .139-.06c.052 0 .102.022.139.06a.221.221 0 0 1 0 .298l-1.284 1.36a.198.198 0 0 1-.139.043Z"/><path fill="#CCA552" d="M138.978 63.335a.197.197 0 0 1-.139-.062.22.22 0 0 1-.06-.148v-.386a.22.22 0 0 1 .06-.147.197.197 0 0 1 .139-.063c.053 0 .103.022.141.062.037.04.058.093.058.148v.386c0 .056-.021.11-.058.149a.195.195 0 0 1-.141.061ZM137.2 63.833a.191.191 0 0 1-.1-.027.206.206 0 0 1-.074-.078l-.179-.331a.213.213 0 0 1-.034-.167.212.212 0 0 1 .094-.138.199.199 0 0 1 .079-.027.186.186 0 0 1 .082.009.204.204 0 0 1 .121.113l.182.332a.218.218 0 0 1-.071.285.179.179 0 0 1-.1.03ZM135.897 65.207a.172.172 0 0 1-.1-.03l-.314-.189a.218.218 0 0 1-.092-.129.228.228 0 0 1 .02-.16.203.203 0 0 1 .12-.098.19.19 0 0 1 .151.022l.314.19a.218.218 0 0 1-.001.365.19.19 0 0 1-.098.029ZM135.42 67.089h-.362a.191.191 0 0 1-.14-.062.214.214 0 0 1-.059-.148c0-.056.021-.11.059-.149a.191.191 0 0 1 .14-.062h.362c.053 0 .103.023.141.062a.218.218 0 0 1 0 .297.195.195 0 0 1-.141.062ZM135.582 69.159a.191.191 0 0 1-.12-.044.218.218 0 0 1-.063-.245.213.213 0 0 1 .083-.102l.314-.193a.196.196 0 0 1 .152-.02.207.207 0 0 1 .145.176.217.217 0 0 1-.039.156.202.202 0 0 1-.059.054l-.314.188a.172.172 0 0 1-.099.03ZM137.021 70.675a.171.171 0 0 1-.099-.03.213.213 0 0 1-.092-.126.23.23 0 0 1 .016-.16l.183-.33a.201.201 0 0 1 .121-.097.19.19 0 0 1 .15.02.213.213 0 0 1 .092.127.224.224 0 0 1-.017.16l-.183.33a.201.201 0 0 1-.072.077.19.19 0 0 1-.099.029ZM138.982 71.228a.195.195 0 0 1-.141-.062.217.217 0 0 1-.058-.148v-.382c0-.056.021-.11.058-.149a.195.195 0 0 1 .141-.061c.053 0 .103.022.141.061.037.04.058.093.058.149v.382a.217.217 0 0 1-.058.148.195.195 0 0 1-.141.062ZM140.943 70.673a.19.19 0 0 1-.099-.028.201.201 0 0 1-.072-.077l-.179-.331a.228.228 0 0 1-.02-.16.21.21 0 0 1 .092-.13.181.181 0 0 1 .151-.021.192.192 0 0 1 .119.1l.183.332a.22.22 0 0 1 .018.16.208.208 0 0 1-.193.155ZM142.375 69.154a.182.182 0 0 1-.1-.029l-.314-.189a.211.211 0 0 1-.093-.128.226.226 0 0 1 .02-.16.204.204 0 0 1 .121-.098.185.185 0 0 1 .151.021l.314.193a.202.202 0 0 1 .083.102c.016.042.019.089.008.133a.21.21 0 0 1-.07.112.195.195 0 0 1-.12.043ZM142.902 67.085h-.361a.198.198 0 0 1-.14-.063.218.218 0 0 1-.001-.296.194.194 0 0 1 .141-.061h.361c.053 0 .104.022.141.061a.218.218 0 0 1 0 .297.193.193 0 0 1-.141.062ZM142.062 65.205a.195.195 0 0 1-.12-.044.211.211 0 0 1-.07-.112.226.226 0 0 1 .008-.133.202.202 0 0 1 .083-.102l.314-.193a.184.184 0 0 1 .219.014.223.223 0 0 1-.021.352l-.314.188a.177.177 0 0 1-.099.03ZM140.758 63.828a.217.217 0 0 1-.099-.025.21.21 0 0 1-.092-.13.228.228 0 0 1 .02-.16l.179-.331a.202.202 0 0 1 .123-.097.198.198 0 0 1 .244.148.21.21 0 0 1-.021.159l-.183.331a.201.201 0 0 1-.072.077.192.192 0 0 1-.099.028Z"/></svg>