<svg xmlns="http://www.w3.org/2000/svg" width="143" height="180" fill="none"><path fill="#000" d="m86.166 146.291 2.754 1.734 46.233-29.072-2.754-1.729-46.233 29.067ZM96.46 129.696c9.052 0 16.39-4.614 16.39-10.306 0-5.692-7.338-10.306-16.39-10.306s-16.39 4.614-16.39 10.306c0 5.692 7.338 10.306 16.39 10.306ZM47.323 157.619c9.052 0 16.39-4.614 16.39-10.306 0-5.692-7.338-10.306-16.39-10.306-9.051 0-16.39 4.614-16.39 10.306 0 5.692 7.339 10.306 16.39 10.306ZM35.344 178.056l2.754 1.734 46.233-29.067-2.755-1.734-46.232 29.067Z" opacity=".1"/><path fill="#EBEBEB" d="m19.566 1.976-3.333 2.095c.017-.16.027-.32.028-.482V2.535c0-1.874-1.207-2.63-2.696-1.698a5.52 5.52 0 0 0-1.609 1.698C11.712.179 10.016-.695 7.957.598 5.727 2 3.925 5.404 3.925 8.206v1.577c-.01.62.105 1.235.339 1.801l-2.767 1.762A3.494 3.494 0 0 0 .44 14.56C.18 15.05.03 15.6 0 16.165c0 1.04.67 1.464 1.497.942l18.069-11.36c.436-.31.798-.727 1.059-1.217.26-.491.41-1.042.438-1.608 0-1.045-.67-1.468-1.497-.946ZM33.837 12.557l-2.519 1.58c.006-.12.006-.24 0-.36v-.797c0-1.41-.91-1.986-2.035-1.28a4.175 4.175 0 0 0-1.211 1.271c-.182-1.775-1.464-2.437-3.02-1.46a7.11 7.11 0 0 0-2.151 2.476 7.82 7.82 0 0 0-.892 3.268v1.184c-.01.476.078.947.26 1.379l-2.092 1.315a2.625 2.625 0 0 0-.787.917 2.884 2.884 0 0 0-.322 1.205c0 .783.505 1.103 1.13.711l13.647-8.558c.328-.234.601-.549.797-.919.197-.37.31-.785.332-1.212-.008-.797-.517-1.112-1.137-.72Z"/><path fill="#455A64" d="M90.483 106.964v34.373c0 .041-.01.082-.03.118a.231.231 0 0 1-.08.087.212.212 0 0 1-.108.033.212.212 0 0 1-.11-.031l-10.69-6.721-1.377 2.595 12.53 7.883c.266.167.568.254.874.254.307 0 .608-.088.873-.255.266-.167.486-.407.639-.697a2.03 2.03 0 0 0 .233-.951v-34.954l-2.754-1.734Z"/><path fill="#455A64" d="M78.783 134.901c.537-.337.971-.063.971.613a2.49 2.49 0 0 1-.284 1.043 2.264 2.264 0 0 1-.687.79c-.538.338-.976.068-.976-.612.019-.368.117-.726.286-1.044.17-.319.406-.589.69-.79ZM128.448 83.09v34.378a.25.25 0 0 1-.028.12.229.229 0 0 1-.08.086.2.2 0 0 1-.219-.003l-10.69-6.72-1.357 2.599 12.511 7.896c.265.166.567.254.873.254.307 0 .608-.088.874-.255a1.84 1.84 0 0 0 .64-.697 2.05 2.05 0 0 0 .235-.951V84.825l-2.759-1.734Z"/><path fill="#455A64" d="M116.747 111.026c.538-.337.972-.063.972.613a2.495 2.495 0 0 1-.284 1.045c-.169.32-.405.591-.688.793-.537.338-.972.063-.972-.613a2.51 2.51 0 0 1 .285-1.045c.169-.319.404-.591.687-.793Z"/><path fill="#CCA552" d="m84.973 101.766 46.232-29.067 2.755 1.734v10.392l-46.233 29.067-2.754-1.73v-10.396Z"/><path fill="#fff" d="m84.973 101.766 2.754 1.734 46.233-29.067-2.755-1.734-46.232 29.067Z" opacity=".8"/><path fill="#fff" d="m87.727 103.501 46.232-29.067v10.391l-46.232 29.067v-10.391Z" opacity=".65"/><path fill="#fff" d="m84.973 101.767 2.754 1.734v10.392l-2.754-1.73v-10.396Z" opacity=".5"/><path fill="#F28F8F" d="M102.848 35.59s2.357-.395 3.643 1.47c1.286 1.864 1.038 4.62.55 7.13-.488 2.509-4.193-8.6-4.193-8.6Z"/><path fill="#CCA552" d="M111.307 67.125c1.989-1.653 3.888-.802 4.239 1.896.352 2.698-.976 6.225-2.969 7.879-1.994 1.653-3.888.801-4.239-1.897-.352-2.698.976-6.225 2.969-7.878Z"/><path fill="#000" d="M111.307 67.125c1.989-1.653 3.888-.802 4.239 1.896.352 2.698-.976 6.225-2.969 7.879-1.994 1.653-3.888.801-4.239-1.897-.352-2.698.976-6.225 2.969-7.878Z" opacity=".5"/><path fill="#F28F8F" d="M103.875 59.102s12.606 8.676 15.203 11.144c1.956 1.86 2.262 2.744 6.232 9.55 3.391 5.824 9.235 16.022 9.235 16.022a4.528 4.528 0 0 1-.847 2.063 4.01 4.01 0 0 1-1.684 1.32s-8.346-8.559-11.46-12.104c-3.114-3.544-4.628-8.73-4.628-8.73l-17.37-5.639.596-5.468 4.723-8.158Z"/><path fill="#CCA552" d="M140.592 88.298c-1.423.086-2.295 1.352-2.932 2.478-.637 1.126-1.708 3.184-2.184 3.531-.475.347-.757 0-1.427.563-.669.563-1.178 1.604-.967 2l.496.937a1.69 1.69 0 0 0-.841.117c-.268.11-.508.288-.702.518-.74.802-.355.942.067 1.401.421.46 1.153 2.189 2.138 2.752 1.905-.782 3.519-2.232 4.586-4.121 1.915-3.297 1.766-10.176 1.766-10.176Z"/><path fill="#37474F" d="M134.78 103.028a.694.694 0 0 1-.285-.122.788.788 0 0 1-.215-.24.873.873 0 0 1-.083-.647c.294-1.01.735-1.962 1.307-2.82.67-1.031 1.915-2.954 2.126-4.026.211-1.073.665-4.023 1.402-5.27.736-1.248 1.501-1.96 2.481-1.56.98.402-2.105 8.366-3.007 9.712-.901 1.347-3.726 4.973-3.726 4.973Z"/><path fill="#263238" d="M135.353 102.856c2.436-1.414 3.238-2.792 3.949-4.572.712-1.779 2.403-3.45 2.837-5.058.435-1.608.484-5.734-1.195-4.734s-2.022 4.689-2.758 6.82c-.736 2.13-5.224 8.932-2.833 7.544Z"/><path fill="#CCA552" d="m114.24 66.425-8.019-6.117-15.715-.302s1.063 9.824 5.298 11.865c5.058 2.432 13.759 5.567 13.759 5.567-2.022-1.802-1.431-5.405-.203-7.757 1.903-3.576 3.516-3.64 4.88-3.256Z"/><path fill="#000" d="m114.24 66.425-8.019-6.117-15.715-.302s1.063 9.824 5.298 11.865c5.058 2.432 13.759 5.567 13.759 5.567-2.022-1.802-1.431-5.405-.203-7.757 1.903-3.576 3.516-3.64 4.88-3.256Z" opacity=".35"/><path fill="#000" d="M100.918 69.195c2.274-1.287 4.126-3.309 5.302-5.788a9.86 9.86 0 0 1-1.58 3.74 8.93 8.93 0 0 1-2.89 2.656l-.298 3.644 7.444 3.748c-2.82-1.027-5.79-2.19-8.867-3.455l.889-4.545Z" opacity=".2"/><path fill="#37474F" d="M83.603 68.66a2.568 2.568 0 0 0-.993-1.226 2.456 2.456 0 0 0-1.468-.094c-.488.12-.935.386-1.29.77-.914 1.013-1.423 2.418-2.01 3.202-.588.784-2.126 1.87-2.945 2.401-.819.532-1.935 2.252-1.886 4.135.04.49.194.961.445 1.37.252.408.594.741.995.968l9.152-11.527Z"/><path fill="#CCA552" d="M83.27 68.181c-.645-.405-1.882-.301-2.8.492-.798.689-1.398 1.968-1.94 2.864a5.02 5.02 0 0 1-1.108 1.135c-.471.428-1.654 1.23-2.068 1.699a5.38 5.38 0 0 0-.864 1.297 5.39 5.39 0 0 0-.546 1.653c-.124.9 0 2.252.58 2.937.148.19.334.342.544.444a1.423 1.423 0 0 0 1.327-.046c.204-.115.38-.279.519-.48.223-.292.442-.58.645-.9a9.29 9.29 0 0 1 1.352-1.577 10.863 10.863 0 0 1 2.13-1.509c.083-.04.17-.094.252-.126.927-.392 1.865-.702 2.014-1.04.15-.338.596-3.379 1.349-3.973.198-.153.123-.45-.03-.743s-.707-1.721-1.356-2.127Z"/><path fill="#F28F8F" d="M90.852 58.51c-.414 1.852-1.626 6.487-1.907 11.483-.186 3.274-.293 11.017-.293 14.792 0 3.775-.178 6.572 1.046 7.874 1.224 1.301 3.722 1.112 4.93-1.266 1.207-2.378 1.91-4.955 2.924-9.46 1.013-4.504 1.629-7.693 1.629-7.693l1.315-12.297-9.644-3.432Z"/><path fill="#F28F8F" d="M91.523 93.46c-1.526 0-2.481-.658-4.425-4.685-1.944-4.027-5.897-14.576-5.897-14.576s-.51-1.995.827-3.248c1.5-1.405 2.345-.504 2.345-.504s1.07 1.734 2.287 3.437c1.116 1.563 2.572 3.117 3.536 4.585.678 1.023 1.327 14.99 1.327 14.99Z"/><path fill="#B16668" d="M88.759 76.54s-.216 9.302-.058 12.613a34.408 34.408 0 0 1-.852-6.955 59.612 59.612 0 0 1 .037-6.725l.873 1.068Z"/><path fill="#CCA552" d="M90.852 58.51a40.522 40.522 0 0 0-1.828 7.775c-.525 4.176-.38 13.293-.38 13.293s1.066 2.027 4.586 2.73c3.52.702 5.306-1.235 5.306-1.235l2.382-11.878s4.892-2.531 6.129-8.274l-16.195-2.41Z"/><path fill="#000" d="M90.852 58.51a40.522 40.522 0 0 0-1.828 7.775c-.525 4.176-.38 13.293-.38 13.293s1.066 2.027 4.586 2.73c3.52.702 5.306-1.235 5.306-1.235l2.382-11.878s4.892-2.531 6.129-8.274l-16.195-2.41Z" opacity=".3"/><path fill="#263238" d="m99.616 27.898-1.476 5.437c-4.103 0-6.638-4.356-6.638-8.824 0-4.505 2.622-8.243 6.745-8.243h1.34c4.136 0 7.444 2.982 7.444 7.472.017 2.924-3.308 4.158-7.415 4.158Z"/><path fill="#37474F" d="M95.763 35.496h-.799c-3.635.27-3.833 1.653-4.015 3.374a14.639 14.639 0 0 0 .09 5.621c.567 2.424.75 8.239.75 8.239s-1.08 5.018-1.535 7.594c6.348 4.505 14.165 3.316 16.795.586-.054-2.446.062-5.081-.128-7.383 0 0 .099-3.91.359-5.468 1.708-2.37 1.588-4.207.828-6.13-1.287-3.401-4.434-6.343-5.261-6.338l-7.084-.095Z"/><path fill="#F28F8F" d="M104.376 19.848c.86.554 1.923 2.91 1.82 7.842-.091 4.18-1.336 5.211-1.961 5.513-.624.302-1.828.113-3.002-.099v2.51s1.621 2.049 1.518 3.202c-.104 1.153-2.337 1.419-3.85.297-1.514-1.122-2.482-3.351-2.482-3.351v-5.406s-.79 1.023-2.068.086c-1.278-.937-1.34-3.248-.591-4.081.748-.833 2.373-.567 2.675.581 0 0 1.87.072 4.359-1.414a7.256 7.256 0 0 0 2.414-2.375 8.048 8.048 0 0 0 1.168-3.305Z"/><path fill="#263238" d="M101.477 26.641a.543.543 0 0 1-.118.388.486.486 0 0 1-.152.127.455.455 0 0 1-.185.053.468.468 0 0 1-.287-.066.534.534 0 0 1-.204-.23.594.594 0 0 1-.051-.314.573.573 0 0 1 .12-.291.496.496 0 0 1 .249-.169.462.462 0 0 1 .293.013.503.503 0 0 1 .236.189c.06.087.094.192.099.3Z"/><path fill="#B16668" d="m102.017 30.186 1.12.387a.605.605 0 0 1-.274.396.544.544 0 0 1-.453.054.631.631 0 0 1-.354-.331.72.72 0 0 1-.039-.506Z"/><path fill="#263238" d="m105.435 25.025-.976-.734a.608.608 0 0 1 .16-.189.525.525 0 0 1 .667.004.692.692 0 0 1 .242.428.73.73 0 0 1-.093.491ZM105.211 26.256a.558.558 0 0 1-.109.405.491.491 0 0 1-.156.133.453.453 0 0 1-.554-.096.548.548 0 0 1-.144-.392.557.557 0 0 1 .117-.389.496.496 0 0 1 .152-.127.454.454 0 0 1 .186-.052.481.481 0 0 1 .352.144.568.568 0 0 1 .156.374Z"/><path fill="#B16668" d="m102.854 25.956.074 3.167 1.53-.514-1.604-2.653ZM101.231 33.105c-1.24-.176-3.771-.969-4.168-2.063.159.553.469 1.04.889 1.396.76.707 3.279 1.504 3.279 1.504v-.837Z"/><path fill="#263238" d="M87.213 19.389c-1.683 1.563-3.457 2.324-5.695 2.14-1.278-.109-2.721-.483-3.722.387-.868.743-.926 1.914-.467 2.946.5 1.108 1.807 1.842 2.829 2.252a6.106 6.106 0 0 0 4.007.234 7.37 7.37 0 0 0 3.424-2.072 22.326 22.326 0 0 0 1.82-2.604 6.156 6.156 0 0 1 2.196-2.184c.501-.221 1.017-.4 1.543-.536.554-.18 1.178-.523 1.24-1.149a1.438 1.438 0 0 0-.188-.674 1.29 1.29 0 0 0-.473-.479 3.411 3.411 0 0 0-2.7-.45 8.705 8.705 0 0 0-3.814 2.189Z"/><path fill="#F0F0F0" d="M95.677 51.568s6.427.631 10.277-1.504l-.153 6.99s-4.404 2.852-10.434 1.104l.31-6.59Z"/><path fill="#000" d="M99.028 54.752V55.657a2.38 2.38 0 0 1-.108.54c-.049.161-.131.308-.24.429a.92.92 0 0 1-.413.27c-.19.062-.39.084-.587.063a1.46 1.46 0 0 1-.575-.153 1.05 1.05 0 0 1-.368-.329 1.313 1.313 0 0 1-.195-.45 2.674 2.674 0 0 1-.054-.559v-.45c0-.176 0-.307.03-.45a2.69 2.69 0 0 1 .111-.541c.048-.158.129-.301.236-.42a.94.94 0 0 1 .413-.26c.19-.062.39-.082.588-.06.197.012.392.06.574.145.142.07.267.174.364.305.098.132.166.286.199.452.028.186.037.375.025.563Zm-1.936.752c-.006.203.04.404.133.581a.583.583 0 0 0 .203.178.53.53 0 0 0 .256.06c.085.017.173.01.256-.019a.532.532 0 0 0 .22-.147c.111-.162.177-.356.19-.558 0-.127.02-.27.028-.424.009-.153 0-.302 0-.428a1.134 1.134 0 0 0-.132-.576.576.576 0 0 0-.204-.176.527.527 0 0 0-.255-.058.491.491 0 0 0-.256.016.527.527 0 0 0-.22.146c-.112.158-.178.35-.19.55 0 .125-.02.27-.029.427-.008.158 0 .297 0 .428ZM104.406 53.903a.796.796 0 0 0 .194-.284.806.806 0 0 0 .05-.243.437.437 0 0 0-.099-.333.403.403 0 0 0-.389-.072.604.604 0 0 0-.389.198 1.23 1.23 0 0 0-.19.378.15.15 0 0 1-.062.108.182.182 0 0 1-.083.05l-.376.054a.11.11 0 0 1-.048-.003.117.117 0 0 1-.043-.024.1.1 0 0 1-.026-.043.113.113 0 0 1-.003-.052c.016-.157.06-.31.128-.45a1.556 1.556 0 0 1 .658-.694c.145-.08.302-.137.463-.166.169-.04.344-.04.513 0a.807.807 0 0 1 .347.198.902.902 0 0 1 .194.329c.038.123.055.253.05.382 0 .086 0 .167-.029.248a.888.888 0 0 1-.078.243c-.046.096-.1.186-.162.27-.087.114-.181.221-.281.32l-.918 1.019c.525-.09.79-.136 1.319-.244a.089.089 0 0 1 .087.023.088.088 0 0 1 .033.085v.365a.175.175 0 0 1-.041.104.16.16 0 0 1-.095.058c-.885.18-1.332.257-2.213.379a.092.092 0 0 1-.091-.027.13.13 0 0 1-.033-.09v-.311a.302.302 0 0 1 .054-.158.468.468 0 0 1 .087-.099c.587-.585.88-.892 1.472-1.518ZM102.12 52.885a.08.08 0 0 1 .046-.002.092.092 0 0 1 .041.025.09.09 0 0 1 .025.038.085.085 0 0 1 .003.047l-.041.36a.24.24 0 0 1-.05.113l-.078.1c-.319.373-.476.558-.794.9.127-.008.255.002.38.032a.67.67 0 0 1 .277.149c.075.068.129.159.158.26a.987.987 0 0 1 0 .384c-.018.173-.07.341-.153.49-.084.154-.19.29-.315.406a1.878 1.878 0 0 1-.967.482 1.687 1.687 0 0 1-.575 0 .905.905 0 0 1-.39-.149.6.6 0 0 1-.218-.256.702.702 0 0 1-.062-.316c0-.02.004-.04.012-.057a.134.134 0 0 1 .033-.046.157.157 0 0 1 .1-.054l.38-.059a.081.081 0 0 1 .074 0 .35.35 0 0 1 .054.086.312.312 0 0 0 .066.099.263.263 0 0 0 .116.076.553.553 0 0 0 .19.032c.099.003.197-.006.294-.027.176-.028.344-.102.488-.216a.559.559 0 0 0 .149-.169.598.598 0 0 0 .074-.219.259.259 0 0 0-.019-.177.231.231 0 0 0-.125-.116.926.926 0 0 0-.464 0l-.413.072a.093.093 0 0 1-.087-.026.105.105 0 0 1-.029-.086l.041-.36a.217.217 0 0 1 .05-.113l.079-.095c.306-.346.459-.518.761-.869-.53.104-.799.149-1.328.234a.091.091 0 0 1-.046-.002.101.101 0 0 1-.066-.066.107.107 0 0 1-.004-.049l.041-.36a.172.172 0 0 1 .05-.104.161.161 0 0 1 .095-.054c.877-.076 1.303-.153 2.147-.338Z"/><path fill="#F28F8F" d="M94.37 35.551c-2.87-.044-4.238.789-5.322 4.018-1.083 3.23-2.758 15.86-1.82 17.437.94 1.577 9.65 2.086 12.606 2.1 2.957.013 6.617-.825 8.809-2.172 2.093-1.293 3.362-4.414 2.349-5.914-.587-.87-1.009-.68-1.675-.059a6.207 6.207 0 0 1-3.015 1.523c.32-.436.597-.907.827-1.406.165-.323.29-.668.373-1.027a1.026 1.026 0 0 0-.075-.806.573.573 0 0 0-.773-.04c-.225.186-.422.41-.583.662-.325.383-.69.724-1.088 1.013l-1.94 1.545c-.327.273-.67.525-1.025.752a4.931 4.931 0 0 1-2.895.586 35.997 35.997 0 0 1-6.692-1.032l1.626-9.662s1.873-4.054.314-7.518Z"/><path fill="#B16668" d="M54.868 68.71c-.343-4.207-1.39-5.964-3.01-6.378-2.586-.663-2.764.4-1.87 2.445.392.854.671 1.764.827 2.703a4.745 4.745 0 0 0-.956-.95.857.857 0 0 0-1.24.14c-.116.175.31.45.707 1.202.513.968.533 1.68 1.303 2.545.299.442.47.973.488 1.522a22.998 22.998 0 0 1-.712 5.527c-1.352-2.076-2.849-4.184-3.982-5.855-2.068-3.045-2.573-3.996-6.25-4.054l1.142 7.08s7.8 11.225 9.971 11.888c.927.283 1.655.103 2.068-.424l.025-.031c.65-.811 1.03-3.284 1.24-6.793.141-1.757.249-3.743.377-5.878a35.216 35.216 0 0 0-.128-4.69Z"/><path fill="#9A4A4D" d="M50.394 77.457c-.21.682-.386 1.377-.526 2.08a8.812 8.812 0 0 0 .05 3.581s-.703-.9-.65-2.936a8.599 8.599 0 0 1 .724-3.343l.402.618Z"/><path fill="#37474F" d="M19.471 108.009a2.35 2.35 0 0 0-1.154-.923 2.345 2.345 0 0 0-1.379.239c-.43.219-.795.566-1.052 1-.662 1.139-.873 2.554-1.278 3.414-.406.86-1.626 2.203-2.288 2.874a5.069 5.069 0 0 0-.953 2.002 5.331 5.331 0 0 0-.03 2.255c.127.444.355.847.663 1.171.307.323.685.557 1.098.68l6.373-12.712Z"/><path fill="#CCA552" d="M19.075 107.637c-.678-.234-1.803.135-2.51 1.072-.612.816-.93 2.14-1.27 3.09a5.169 5.169 0 0 1-.827 1.298c-.355.5-1.298 1.5-1.617 2.031a5.557 5.557 0 0 0-.562 1.396 5.234 5.234 0 0 0-.199 1.658c.05.865.414 2.108 1.084 2.599.174.144.375.243.589.291.213.047.434.042.646-.016.212-.058.409-.167.576-.319.168-.152.302-.343.393-.559.149-.32.302-.636.414-.969a9.3 9.3 0 0 1 .963-1.761 10.832 10.832 0 0 1 1.72-1.856c.071-.058.141-.126.212-.176.79-.563 1.604-1.063 1.679-1.405.074-.342.368-4.464.368-4.464-.43-.139-.985-1.675-1.659-1.91Z"/><path fill="#B16668" d="m33.11 91.137-.723 24.905c-.53-1.266-2.961-2.361-4.963-3.113-1.294-.482-3.478-1.757-4.963-2.378l-2.349-1.352c-.489.088-.943.331-1.307.699-.483.45-1.356 2.108-.715 2.608a.652.652 0 0 1 .238.253.726.726 0 0 1 .085.35c.413-.252 1.067.072 1.46.37a.85.85 0 0 1 .326.477s8.201 5.991 10.89 7.941c3.333 2.419 5.165 1.401 6.414-.387 1.249-1.788 3.494-7.887 4.962-12.788 1.469-4.901 1.783-12.392 1.82-15.878l-11.174-1.707Z"/><path fill="#37474F" d="m44.295 92.862-11.187-1.725s-.897 17.346-.827 18.657c-.008.402.06.801.203 1.172.143.371.355.706.624.981 1.49 1.748 4.43 2.734 6.564 2.203 1.083-.271 1.786-.87 1.985-1.631 0 0 1.758-4.905 2.332-9.333.575-4.428.306-10.324.306-10.324Z"/><path fill="#263238" d="m39.898 98.703 3.69 4.928-2.71-4.504s2.44-1.122 3.04-3.257c0 .018-1.786 2.545-4.02 2.833ZM41.882 110.92c2.25-2.544 2.963-5.772 1.592-7.21-1.37-1.437-4.305-.54-6.555 2.005-2.25 2.544-2.962 5.772-1.592 7.21 1.37 1.437 4.305.54 6.555-2.005Z"/><path fill="#37474F" d="M45.566 146.042c-.21.055-.227.96-.145 1.217.199.472.508.879.898 1.18a7.582 7.582 0 0 1 1.728 2.135 8.048 8.048 0 0 0 2.184 2.612 5.26 5.26 0 0 0 4.016.69c1.526-.284 1.679-1.099 1.687-1.68l-10.368-6.154Z"/><path fill="#CCA552" d="M50.01 142.865c.227.626 1.398 3.711 2.85 4.999 1.157 1.023 2.72 2.194 3.167 3.388.447 1.193-1.117 1.928-2.965 1.928-1.923 0-2.862-1.041-3.76-2.117-.632-.753-1.48-2.104-1.935-2.703-.455-.599-1.464-1.23-1.729-1.937-.145-.387-.041-1.261.1-2.004.14-.744.26-1.433.475-1.383l.02.414c.27.297 3.777-.585 3.777-.585Z"/><path fill="#B16668" d="M47.65 108.986a1599.122 1599.122 0 0 1-7.755-10.284l4.4-5.855-15.55-2.401c-.66 2.905-1.29 3.941-1.33 7.292-.026 2.343-.286 5.19 8.188 12.716 4.665 4.149 8.23 6.897 8.23 6.897s-1.047 2.067-.98 5.855c.066 3.789 3.105 16.437 3.35 19.775v.378c0 .167.107.239.206.347.15.183.265.395.34.626a.526.526 0 0 0 .214.315.487.487 0 0 0 .277.027c.278 0 .708-.072.828.262a1.22 1.22 0 0 1 .132-.441c.07-.135.167-.254.281-.348.414-.347 1.592-.955 1.931-.076a9.923 9.923 0 0 1-.413-3.198c.124-4.653.5-18.721.542-22.252.045-3.932.467-5.23-2.891-9.635Z"/><path fill="#455A64" d="M35.43 113.023c-1.211-1.572-.512-4.504 1.845-7.081 2.279-2.468 5.881-2.703 6.745-1.757l-4.115-5.481c1.613 0 3.834-2.05 4.4-3.65v-2.193l-15.55-2.4s-1.294 3.58-1.58 6.26c-.285 2.68-.38 5.406 1.469 8.149 1.849 2.743 6.787 8.153 6.787 8.153Z"/><path fill="#263238" d="m36.864 59.848-1.476 5.432c-4.107 0-6.642-4.351-6.642-8.824 0-4.505 2.626-8.239 6.75-8.239h1.335c4.136 0 7.465 2.978 7.465 7.469 0 2.928-3.329 4.162-7.432 4.162Z"/><path fill="#263238" d="M45.065 51.529a3.45 3.45 0 0 0 .413-1.865 2.29 2.29 0 0 0-.253-.93 2.092 2.092 0 0 0-.603-.714c-.765-.536-1.828-.284-2.543.333a2.318 2.318 0 0 0-.733-1.502 1.958 1.958 0 0 0-1.488-.516 4.322 4.322 0 0 0-1.882.847 9.344 9.344 0 0 1-3.197 1.072l1.241.536c-.17.287-.28.613-.317.952a2.44 2.44 0 0 0 .098 1.008c.052.133.117.26.194.378.836 1.358 1.989 2.45 3.34 3.162a7.863 7.863 0 0 0 4.348.892c.42-.01.83-.137 1.191-.37.212-.162.39-.37.526-.612a2.46 2.46 0 0 0 .368-1.446 1.595 1.595 0 0 0-.207-.71 1.436 1.436 0 0 0-.496-.515Z"/><path fill="#CCA552" d="M33.011 67.443h-.802c-3.631.275-3.83 1.654-4.016 3.379a14.645 14.645 0 0 0 .095 5.617c.567 2.428 1.655 8.234 1.655 8.234s-1.452 5.166-1.903 7.743c6.348 4.504 13.615 3.153 16.245.45-.054-2.45.058-5.08-.128-7.382.04-1.832.163-3.66.372-5.478 1.704-2.37 1.588-4.203.848-6.126-1.307-3.4-4.467-6.342-5.277-6.337l-7.089-.1Z"/><path fill="#B16668" d="M41.632 51.797c.86.554 1.919 2.906 1.815 7.838-.087 4.185-1.331 5.216-1.956 5.513-.624.298-1.832.118-3.002-.094v2.509s1.617 2.05 1.517 3.198c-.099 1.148-2.34 1.423-3.854.297-1.514-1.126-2.481-3.347-2.481-3.347v-5.405s-.79 1.023-2.068.086c-1.278-.937-1.344-3.253-.592-4.086.753-.833 2.374-.567 2.676.581 0 0 1.87.077 4.355-1.414a7.232 7.232 0 0 0 2.419-2.37 8.022 8.022 0 0 0 1.17-3.306Z"/><path fill="#263238" d="M38.74 58.586a.582.582 0 0 1-.12.39.5.5 0 0 1-.153.128.46.46 0 0 1-.186.054.478.478 0 0 1-.352-.149.567.567 0 0 1-.157-.374.572.572 0 0 1 .126-.38.488.488 0 0 1 .152-.122.452.452 0 0 1 .532.087.566.566 0 0 1 .158.365Z"/><path fill="#9A4A4D" d="m39.287 62.131 1.121.392a.655.655 0 0 1-.1.228.597.597 0 0 1-.175.167.546.546 0 0 1-.453.056.635.635 0 0 1-.355-.333.727.727 0 0 1-.038-.51Z"/><path fill="#263238" d="m42.683 56.972-.976-.739a.605.605 0 0 1 .16-.188.525.525 0 0 1 .667.008.691.691 0 0 1 .242.427.73.73 0 0 1-.093.492ZM42.462 58.209a.572.572 0 0 1-.11.405.49.49 0 0 1-.156.134.452.452 0 0 1-.554-.097.57.57 0 0 1-.144-.392.572.572 0 0 1 .11-.406.493.493 0 0 1 .155-.134.453.453 0 0 1 .555.097.568.568 0 0 1 .144.392Z"/><path fill="#9A4A4D" d="m40.098 57.906.078 3.166 1.53-.518-1.608-2.648ZM38.481 65.054c-1.24-.175-3.775-.973-4.172-2.067.159.554.47 1.042.893 1.396.757.712 3.28 1.51 3.28 1.51v-.839Z"/><path fill="#B16668" d="M21.717 97.474c-.455-1.163-.778-1.537-.98-2.618.281.324.6.604.95.834.415.234 1.006.23 1.155-.194.149-.423-.509-.676-.757-1.167a14.29 14.29 0 0 0-1.357-2.355 1.622 1.622 0 0 1-.341-.527 1.74 1.74 0 0 1-.126-.631c.041-3.112.46-6.46.542-9.644 2.088-1.63 5.6-3.419 7.485-4.734 1.171-.204 2.237-.856 3.007-1.838a6.302 6.302 0 0 0 1.05-2.266c.199-.828.236-1.692.108-2.536-.112-.752-.414-2.04-1.092-2.252-.318-.094-1.216-.036-2.444.55-.827.392-2.531 1.351-5.951 3.693a31.506 31.506 0 0 0-6.762 6.072c-.885 1.104-.327 10.126-.186 12.261.074 1.158.232 2.942.467 4.469.414 2.576 1.729 4.72 3.433 5.175 2.692.725 2.42-.72 1.799-2.293Z"/><path fill="#F0F0F0" d="M33.66 84.889s6.439.45 10.24-1.77v6.995s-4.339 2.964-10.406 1.351l.166-6.576Z"/><path fill="#000" d="M37.086 87.985V88.891a2.472 2.472 0 0 1-.1.545 1.176 1.176 0 0 1-.227.45.97.97 0 0 1-.393.28 1.37 1.37 0 0 1-.583.076c-.2-.002-.397-.05-.58-.14a1.003 1.003 0 0 1-.376-.315 1.305 1.305 0 0 1-.202-.45 2.616 2.616 0 0 1-.066-.554v-.45c0-.172 0-.312.024-.451a2.43 2.43 0 0 1 .096-.54 1.009 1.009 0 0 1 .616-.698c.19-.067.389-.092.587-.073.198.004.395.047.579.126.145.068.274.171.376.302.099.131.168.285.203.45.034.177.05.356.046.536Zm-1.92.798c-.001.204.049.405.145.58a.564.564 0 0 0 .207.174c.08.04.168.057.257.052a.484.484 0 0 0 .256-.025.522.522 0 0 0 .215-.155c.11-.162.173-.357.178-.559 0-.126 0-.27.02-.428.021-.157 0-.297 0-.428a1.107 1.107 0 0 0-.148-.572.558.558 0 0 0-.203-.163.512.512 0 0 0-.248-.048.503.503 0 0 0-.257.022.541.541 0 0 0-.219.149c-.108.163-.17.357-.178.558 0 .126 0 .27-.02.424-.021.153-.013.292-.009.419h.005ZM39.343 87.852a.789.789 0 0 0 .186-.293.968.968 0 0 0 .05-.243.444.444 0 0 0-.112-.329.382.382 0 0 0-.385-.063.596.596 0 0 0-.384.212 1.002 1.002 0 0 0-.182.383.224.224 0 0 1-.145.157l-.377.063a.096.096 0 0 1-.09 0 .104.104 0 0 1-.028-.042.112.112 0 0 1-.006-.052c.016-.157.058-.31.124-.45a1.536 1.536 0 0 1 .637-.707c.145-.086.302-.147.463-.181.168-.038.341-.038.51 0 .13.033.25.098.355.19a.814.814 0 0 1 .198.319c.042.124.062.255.058.387.005.081.005.163 0 .244a1.188 1.188 0 0 1-.07.247c-.045.098-.099.19-.161.275-.081.116-.171.225-.27.325l-.897 1.044c.526-.103.786-.157 1.311-.279a.105.105 0 0 1 .091 0c.012.011.021.025.027.041a.118.118 0 0 1 .006.05v.36a.184.184 0 0 1-.04.108.181.181 0 0 1-.092.063c-.88.203-1.323.288-2.208.45a.1.1 0 0 1-.087-.027.098.098 0 0 1-.028-.04.108.108 0 0 1-.005-.05v-.31c0-.058.017-.114.05-.158a.568.568 0 0 1 .082-.104c.554-.635.844-.95 1.419-1.59ZM43.289 85.237a.096.096 0 0 1 .087 0c.012.01.022.022.029.037.006.015.009.032.008.049v.36a.215.215 0 0 1-.037.117l-.07.108-.712 1.005c.127-.02.257-.02.384 0 .102.014.2.055.286.117.083.06.146.146.182.248a.94.94 0 0 1 .053.373c-.004.175-.04.346-.107.505a1.7 1.7 0 0 1-.69.802 2.031 2.031 0 0 1-1.08.31.984.984 0 0 1-.414-.108.62.62 0 0 1-.244-.238.72.72 0 0 1-.087-.307.141.141 0 0 1 .038-.108.158.158 0 0 1 .095-.058l.372-.1a.08.08 0 0 1 .075 0 .28.28 0 0 1 .062.077.32.32 0 0 0 .082.101.291.291 0 0 0 .112.057c.066.01.133.01.198 0 .097-.01.192-.03.286-.059.173-.047.333-.138.467-.266.055-.05.1-.113.132-.183a.61.61 0 0 0 .054-.226.256.256 0 0 0-.032-.174.22.22 0 0 0-.133-.101.968.968 0 0 0-.463.04l-.414.117a.088.088 0 0 1-.087-.016.103.103 0 0 1-.028-.039.113.113 0 0 1-.009-.048v-.365a.27.27 0 0 1 .041-.113c.022-.036.045-.07.07-.103l.683-.942a28.194 28.194 0 0 1-1.35.376.097.097 0 0 1-.044-.01.108.108 0 0 1-.028-.041.116.116 0 0 1-.009-.05v-.36a.18.18 0 0 1 .128-.171 26.81 26.81 0 0 0 2.114-.613Z"/><path fill="#455A64" d="M39.035 139.272v34.374a.257.257 0 0 1-.03.119.215.215 0 0 1-.191.117.205.205 0 0 1-.11-.034l-10.69-6.72-1.377 2.599 12.514 7.878c.266.168.567.257.874.257.308.001.61-.087.876-.254.265-.168.486-.408.64-.698.153-.29.233-.619.232-.954v-34.954l-2.738-1.73Z"/><path fill="#455A64" d="M27.331 167.204c.538-.338.976-.063.976.612a2.506 2.506 0 0 1-.286 1.046c-.17.319-.406.591-.69.792-.537.338-.972.063-.972-.612.018-.368.116-.726.285-1.046a2.28 2.28 0 0 1 .687-.792ZM77 115.398v34.373c0 .041-.01.082-.03.118a.231.231 0 0 1-.079.087.212.212 0 0 1-.108.033.213.213 0 0 1-.11-.031l-10.69-6.725-1.381 2.599 12.535 7.878c.265.167.566.255.872.255.306 0 .607-.088.872-.254a1.84 1.84 0 0 0 .64-.695c.152-.289.233-.616.234-.95v-34.959L77 115.398Z"/><path fill="#455A64" d="M65.298 143.329c.538-.338.976-.063.976.613a2.505 2.505 0 0 1-.287 1.045 2.27 2.27 0 0 1-.689.792c-.538.338-.972.064-.972-.612a2.5 2.5 0 0 1 .285-1.045c.168-.32.404-.591.687-.793Z"/><path fill="#CCA552" d="m33.525 134.073 46.229-29.071 2.754 1.734v10.392L36.28 146.199l-2.755-1.734v-10.392Z"/><path fill="#fff" d="m33.525 134.073 2.755 1.73 46.228-29.067-2.754-1.734-46.229 29.071Z" opacity=".8"/><path fill="#fff" d="m36.28 135.803 46.228-29.067v10.392l-46.229 29.071v-10.396Z" opacity=".65"/><path fill="#fff" d="m33.525 134.073 2.755 1.73v10.396l-2.755-1.734v-10.392Z" opacity=".5"/></svg>