<svg xmlns="http://www.w3.org/2000/svg" width="187" height="186" fill="none"><path fill="#E0E0E0" d="M100.185 185.132h-16.84a.773.773 0 0 1-.387-.074.82.82 0 0 1-.309-.255.886.886 0 0 1-.132-.791l.342-1.429c.086-.314.264-.59.509-.791.244-.2.543-.314.852-.325h15.09c.308.011.606.125.849.326.244.2.422.477.507.79l.346 1.429a.902.902 0 0 1-.132.791.811.811 0 0 1-.695.329ZM173.846 174.748c5.309 0 9.613-2.618 9.613-5.846 0-3.229-4.304-5.846-9.613-5.846-5.309 0-9.613 2.617-9.613 5.846 0 3.228 4.304 5.846 9.613 5.846ZM13.388 175.405c5.31 0 9.613-2.617 9.613-5.846s-4.304-5.846-9.613-5.846c-5.309 0-9.613 2.617-9.613 5.846s4.304 5.846 9.613 5.846ZM47.074 165.757l-8.413 5.131a.997.997 0 0 1-.942 0l-24.846-15.089a.294.294 0 0 1-.144-.109.31.31 0 0 1 0-.355.286.286 0 0 1 .144-.108l8.418-5.131a.996.996 0 0 1 .94 0l24.852 15.089a.295.295 0 0 1 .136.114.317.317 0 0 1-.006.349.286.286 0 0 1-.14.109ZM172.553 150.596l-24.422 14.859a.874.874 0 0 1-.828 0l-20.508-12.448c-.232-.143-.232-.364 0-.502l24.422-14.859a.87.87 0 0 1 .827 0l20.509 12.448a.251.251 0 0 1 .121.098.275.275 0 0 1 0 .306.257.257 0 0 1-.121.098ZM56.052 161.67l5.744-3.49a.222.222 0 0 0 .128-.081.243.243 0 0 0 0-.298.224.224 0 0 0-.128-.082l-31.654-19.248a.793.793 0 0 0-.73 0l-5.744 3.494c-.206.12-.206.323 0 .461l31.649 19.244a.768.768 0 0 0 .735 0Z"/><path fill="#455A64" d="M122.372 54.611a35.98 35.98 0 0 1 1.023 22.345c-2.042 7.359-6.367 13.784-12.285 18.249-5.919 4.464-13.087 6.709-20.36 6.376-7.272-.333-14.229-3.225-19.757-8.213-5.527-4.989-9.307-11.785-10.735-19.303-1.428-7.518-.42-15.323 2.86-22.167 3.282-6.844 8.647-12.33 15.238-15.584 6.592-3.254 14.029-4.085 21.122-2.362 5.116 1.242 9.87 3.77 13.856 7.368 3.987 3.597 7.088 8.158 9.038 13.291Z"/><path fill="#FFCE67" d="M88.269 38.104c-1.489.028-3.397.581-2.014 1.471 1.383.89 2.263.977 2.276 2.13.013 1.153-.705 2.37-.354 3.19.35.821.932 1.775 1.501 1.499.57-.277 2.114-2.098 2.999-2.015.884.083 3.896.226 4.333-.811.438-1.038.876-.969 1.602-2.121.727-1.153.683-2.688-.197-2.697-.88-.01-.998.392-2.468.276-1.471-.115-2.154-1.134-3.585-.866-1.432.267-2.995-.074-4.093-.056ZM82.738 38.514c-1.685.95-5.253 2.383-6.885 1.899-.82-.244-1.79-.585-2.828-.788-6.344 4.86-10.812 11.965-12.586 20.013.393.862.887 1.667 1.471 2.398 1.287 1.59 2.627 1.793 4.25 2.125 1.625.332 1.121 1.3 1.922 2.305.802 1.005 1.147 1.605 2.062 2.149.915.544-.324 1.563-.683 2.674-.359 1.11-.464 1.733.29 3.983.752 2.25 2.932 4.085 3.58 4.956.648.872-.438 1.886-.17 3.689.266 1.802.192 6.68 1.855 9.405 1.664 2.725 2.662 2.411 2.526.572-.136-1.84-.696-3.578.311-4.961 1.007-1.383 3.064-1.015 3.756-3.541.691-2.526 1.142-2.402 2.254-3.26 1.112-.857.613-1.595 1.646-3.545s1.335-3.79-.192-4.61c-1.528-.821-2.535-.72-3.848-2.619a17.11 17.11 0 0 0-5.253-4.818c-1.891-1.079-4.894.24-6.094-.129-1.199-.369-1.96-2.766-1.882-3.688.079-.922-.814-1.171-1.676-.945-.863.226-1.344-.35-1.58-1.568-.237-1.217 1.558-2.766 3.015-2.868 1.458-.101 2.237.595 2.526 2.573.09.8.416 1.55.932 2.145a3.616 3.616 0 0 0 1.944 1.17c1.344.355.504-1.116-.438-2.12-.94-1.006-1.02-1.923-.302-4.15.718-2.227 2.487-2.052 3.804-4.09 1.318-2.037 1.572-.507 2.903-.304 1.33.203 1.133-.553 1.624-1.844.49-1.291 2.188-.175 3.572-1.213 1.383-1.037-1.51-2.655-1.314-4.057.197-1.401 1.515-1.35.78-3.453-.736-2.102.28-2.18.805-2.965.525-.783-.407-1.47-2.097-.52Zm-1.97 5.126c-.437 1.038-.814.84-1.536 1.974a4.073 4.073 0 0 1-2.574 1.844c-.727.092-1.922-1.268-1.983-2.112-.061-.843 1.09-1.092 2.394-1.268a7.151 7.151 0 0 0 3.607-1.756c.937-.756.534.286.092 1.318ZM124.6 64.738v.097c-.29.12-.554.302-.775.533a2.444 2.444 0 0 0-.512.813c-.74 1.913-.875 1.074-2.626 2.374s-1.073 2.305-.981 3.62c.092 1.313-1.917 2.766-2.911 3.227-.994.46-1.436 3.43-1.107 4.873.328 1.443-1.314 2.028-2.32 3.342-1.007 1.314-1.576 3.518-2.233 4.574-.315.53-.77.951-1.308 1.214a2.927 2.927 0 0 1-1.726.266c-1.19-.212-2.293-2.306-2.932-4.085a10.98 10.98 0 0 1-.491-5.74c.372-1.955.241-1.71-.201-4.763a4.998 4.998 0 0 0-1.148-2.74 4.582 4.582 0 0 0-2.455-1.515c-1.12-.295-2.972.392-3.97-.221-.998-.613-1.423-1.503-2.075-4.376-.652-2.872.7-3.526 1.751-5.07 1.264-1.752 3.01-3.051 4.999-3.721a5.235 5.235 0 0 1 2.197-.17c.736.1 1.445.355 2.084.75 1.143.6 1.681 1.946 2.495 2.038.815.092 1.511-.355 2.325-.189.814.166 1.361.586 2.153.461.793-.124.289-1.102.176-1.632-.114-.53-.832-.396-1.786-.406-.955-.009-1.191-.28-1.528-.95-.337-.668-.876-.078-1.344-.35-.468-.272-.372.955-.412 1.43-.039.474-.389-.365-.389-.365s-.394.65-.565.35c-.171-.299.223-1.014.167-1.751-.057-.738-1.064-.563-1.695-1.13a2.34 2.34 0 0 0-1.138-.503 2.294 2.294 0 0 0-1.225.157c-.876.3-1.016.083-1.397.881s-2.25 1.337-2.84 1.23c-.592-.105-.176-1.382.332-2.489.508-1.106 1.554-.747 2.189-1.876.634-1.13-.241-1.291-.841-1.47-.6-.18-.788-.79-.162-2.228.626-1.438 1.458-1.042 1.804-.378.204.331.488.599.822.775.335.177.708.256 1.082.23.801 0 .613-.585.595-1.844-.017-1.258.521-1.89 1.585-2.36s2.841-1.231 3.502-1.904c.661-.673 1.887-.23 2.521.493.635.724 2.049.991 3.533 1.254.19.03.384.014.567-.05a1.21 1.21 0 0 0 .483-.314c4.492 5.503 7.2 12.372 7.731 19.608ZM118.513 81.605c-.793-.143-.722.133-1.186.788-.465.655-1.143 1.383-1.02 2.084.122.7.183 1.526.731 1.023.547-.502.359-1.11 1.138-1.48.779-.368 1.523-2.203.337-2.415Z"/><path fill="#fff" d="M100.638 36.977C79.92 30.675 76.05 45.552 87.033 54.925c10.983 9.373 29.802 12.448 32.336 6.284 2.535-6.164-3.327-19.552-18.731-24.232Z" opacity=".4" style="mix-blend-mode:soft-light"/><path fill="#000" d="M83.345 84.533c-16.104-13.914-15.6-40.931-1.488-49.663-.595.212-1.19.433-1.781.682-4.978 2.098-9.386 5.46-12.833 9.785-3.446 4.325-5.824 9.48-6.922 15.008a36.025 36.025 0 0 0 .628 16.672c1.51 5.418 4.269 10.359 8.03 14.383 3.76 4.024 8.408 7.007 13.528 8.683a30.96 30.96 0 0 0 15.817.925c5.265-1.07 10.197-3.493 14.358-7.054 4.16-3.56 7.421-8.15 9.491-13.358-4.548 6.625-22.736 17.823-38.828 3.937Z" opacity=".05" style="mix-blend-mode:multiply"/><path fill="#FFCE67" d="M167.535 35.257c-1.085-.664-2.587-.567-4.241.438-3.31 2.015-5.993 6.916-5.993 10.936 0 2.02.674 3.44 1.751 4.094l2.11 1.29c1.085.66 2.582.568 4.237-.46 3.314-2.01 5.997-6.916 5.997-10.936 0-2.01-.67-3.426-1.751-4.085"/><path fill="#FFCE67" d="M165.416 36.99c-3.31 2.016-5.993 6.916-5.993 10.941s2.683 5.657 5.993 3.643c3.309-2.015 6.001-6.916 5.997-10.936-.005-4.02-2.688-5.657-5.997-3.647Z"/><path fill="#FFCE67" d="M168.726 45.925v.46a9.91 9.91 0 0 1-3.309 3.652c-1.287.784-2.456.867-3.31.369v-.95c.045-.987.313-1.95.782-2.806a6.088 6.088 0 0 1 1.915-2.118l.875-.53c.775-.46 1.524-.53 2.11-.17.587.36.937 1.124.937 2.093Z"/><path fill="#fff" d="m167.536 35.257 2.123 1.296c-1.085-.664-2.582-.568-4.241.438-2.167 1.323-4.067 3.877-5.118 6.615l-2.127-1.3c1.055-2.738 2.955-5.292 5.121-6.611 1.655-1.005 3.157-1.102 4.242-.438Z" opacity=".4"/><path fill="#000" d="m161.1 51.966-2.032-1.24c-1.094-.655-1.751-2.075-1.751-4.094l2.123 1.3c-.017 1.96.618 3.356 1.66 4.034Z" opacity=".2"/><path fill="#000" d="m158.172 42.306 2.127 1.3a12.232 12.232 0 0 0-.875 4.325l-2.123-1.3c.029-1.487.324-2.954.871-4.325Z" opacity=".1"/><path fill="#fff" d="M164.661 43.791a1.114 1.114 0 0 1-.578-.156 1.474 1.474 0 0 1-.493-.601 1.565 1.565 0 0 1-.133-.782 4.084 4.084 0 0 1 .498-1.78 3.842 3.842 0 0 1 1.218-1.342 1.227 1.227 0 0 1 1.44-.114c.223.137.402.34.513.585.111.245.149.52.109.788a4.094 4.094 0 0 1-.495 1.78 3.843 3.843 0 0 1-1.217 1.341 1.687 1.687 0 0 1-.862.281ZM167.784 43.83c-.586-.36-1.313-.294-2.109.171l-.876.53a6.086 6.086 0 0 0-1.914 2.118 6.431 6.431 0 0 0-.782 2.806v.96c.853.497 2.022.414 3.309-.37a9.91 9.91 0 0 0 3.309-3.651v-.461c.005-.977-.346-1.738-.937-2.102Z"/><path fill="#FFCE67" d="M136.761 89.676c.622-1.46.94-3.043.932-4.643a8.945 8.945 0 0 0 .762-1.577 5.665 5.665 0 0 1-.876.872c.326-.478.554-1.02.67-1.596a5.968 5.968 0 0 1-.972 1.112.899.899 0 0 0-1.112 0 3.776 3.776 0 0 0-1.203 1.556 3.99 3.99 0 0 0-.285 1.984c-1.269.683-2.394.512-3.147-.327-.403 1.208-.21 2.351.472 2.577-.209.127-.451.18-.691.152 0 1 .49 1.623 1.221 1.383a1.878 1.878 0 0 1-.687.462.982.982 0 0 0 .181.443.91.91 0 0 0 .366.292.858.858 0 0 0 .88-.113 5.424 5.424 0 0 1-2.263 2.264c.4.091.813.098 1.215.019.402-.08.785-.243 1.127-.48 1.51-.922 2.67-2.578 3.41-4.376M20.214 83.87c1.086-.66 2.583-.567 4.242.461 3.31 2.015 5.993 6.916 5.993 10.94 0 2.02-.679 3.435-1.751 4.09l-2.114 1.291c-1.082.659-2.583.567-4.238-.438-3.31-2.015-5.992-6.916-5.992-10.94 0-2.01.67-3.426 1.75-4.085"/><path fill="#FFCE67" d="M22.33 85.61c3.309 2.014 5.997 6.915 5.997 10.936 0 4.02-2.688 5.656-5.997 3.646-3.31-2.01-5.997-6.915-5.993-10.94.004-4.025 2.688-5.643 5.993-3.642Z"/><path fill="#fff" d="M21.905 90.818c-.735-.46-1.313.028-1.313 1.06a3.5 3.5 0 0 0 .355 1.504c.228.465.556.867.958 1.175.735.461 1.313-.027 1.313-1.06a3.5 3.5 0 0 0-.355-1.504 3.315 3.315 0 0 0-.958-1.175Zm0 3.085a2.151 2.151 0 0 1-.635-.762 2.275 2.275 0 0 1-.24-.981c0-.669.385-.978.875-.687.265.197.482.457.634.76.152.301.235.636.241.978-.008.673-.398 1-.875.692ZM23.863 91.575c0 .245-.14.355-.31.25a.769.769 0 0 1-.23-.274.812.812 0 0 1-.086-.354c0-.24.14-.35.316-.244.094.07.171.164.225.272a.813.813 0 0 1 .085.35"/><path fill="#fff" d="m24.399 89.906-4.619-2.813c-.328-.198-.59 0-.59.461v6.487c.003.233.058.461.16.667.103.206.25.383.43.518l1.655 1.01 1.375.834 1.589.964c.324.198.59 0 .59-.461V91.09a1.549 1.549 0 0 0-.16-.666 1.465 1.465 0 0 0-.43-.519Zm0 7.344-4.413-2.683a.497.497 0 0 1-.172-.184.528.528 0 0 1-.064-.25v-6.242l4.412 2.683a.482.482 0 0 1 .174.183.514.514 0 0 1 .063.25v6.243Z"/><path fill="#fff" d="m20.215 83.87-2.123 1.296c1.085-.66 2.582-.567 4.237.46 2.167 1.32 4.067 3.874 5.122 6.612l2.123-1.3c-1.05-2.734-2.95-5.293-5.117-6.611-1.66-1.024-3.165-1.116-4.242-.457Z" opacity=".4"/><path fill="#000" d="m26.648 100.583 2.032-1.245c1.09-.654 1.75-2.07 1.75-4.089l-2.122 1.296c.013 1.964-.627 3.356-1.66 4.038Z" opacity=".2"/><path fill="#000" d="m29.576 90.92-2.123 1.3c.55 1.37.847 2.838.876 4.325l2.123-1.296a12.25 12.25 0 0 0-.876-4.33Z" opacity=".1"/><path fill="#FFCE67" d="M133.703 4.31c-1.081-.664-2.582-.567-4.237.438-3.314 2.014-5.997 6.915-5.997 10.936 0 2.024.678 3.439 1.751 4.094l2.114 1.29c1.086.66 2.583.568 4.237-.438 3.31-2.014 5.998-6.915 5.998-10.94 0-2.01-.675-3.425-1.751-4.085"/><path fill="#FFCE67" d="M131.604 6.06c-3.309 2.014-5.993 6.915-5.993 10.936 0 4.02 2.666 5.656 5.993 3.646 3.327-2.01 5.997-6.915 5.997-10.94 0-4.025-2.705-5.657-5.997-3.642Z"/><path fill="#fff" d="m133.704 4.309 2.127 1.295c-1.085-.66-2.587-.567-4.242.461-2.166 1.319-4.066 3.873-5.121 6.611l-2.123-1.3c1.055-2.734 2.95-5.292 5.121-6.611 1.655-1.01 3.156-1.107 4.238-.456Z" opacity=".4"/><path fill="#000" d="m127.274 21.036-2.036-1.244c-1.09-.655-1.751-2.07-1.751-4.09l2.128 1.296c-.018 1.964.621 3.356 1.659 4.038Z" opacity=".2"/><path fill="#000" d="m124.344 11.373 2.123 1.3a12.349 12.349 0 0 0-.876 4.325l-2.127-1.296c.029-1.489.328-2.958.88-4.329Z" opacity=".1"/><path fill="#fff" d="m130.636 19.491 1.523-.921v-5.372l1.064-.645.114-1.844-1.178.714v-1.042c0-.424.061-.627.355-.802l.844-.502V7.209l-1.055.646a3.18 3.18 0 0 0-1.245 1.27 3.404 3.404 0 0 0-.4 1.777v1.43l-.802.484v1.816l.793-.46-.013 5.32Z"/><path fill="#FFCE67" d="M116.454 113.34c-1.081-.663-2.582-.567-4.237.438-3.314 2.015-5.997 6.916-5.997 10.936 0 2.024.678 3.44 1.751 4.094l2.114 1.291c1.086.66 2.583.567 4.237-.461 3.31-2.01 5.997-6.915 5.997-10.936 0-2.01-.674-3.425-1.75-4.084"/><path fill="#FFCE67" d="M114.338 115.077c-3.309 2.01-5.992 6.916-5.992 10.936s2.683 5.657 5.992 3.642c3.31-2.015 5.998-6.915 5.998-10.936 0-4.02-2.688-5.657-5.998-3.642Z"/><path fill="#fff" d="m116.451 113.34 2.128 1.296c-1.086-.659-2.587-.567-4.242.438-2.167 1.323-4.067 3.877-5.122 6.616l-2.127-1.3c1.055-2.739 2.95-5.293 5.122-6.612 1.659-1.005 3.16-1.101 4.241-.438Z" opacity=".4"/><path fill="#000" d="m110.025 130.049-2.036-1.259c-1.09-.655-1.751-2.07-1.751-4.094l2.128 1.3c-.018 1.983.621 3.375 1.659 4.053Z" opacity=".2"/><path fill="#000" d="m107.09 120.389 2.123 1.301a12.319 12.319 0 0 0-.875 4.324l-2.123-1.3c.028-1.487.325-2.955.875-4.325Z" opacity=".1"/><path fill="#fff" d="M112.947 121.988s.972-2.352 1.064-2.693c.046-.583.046-1.169 0-1.752 0-.226.875-.853 1.169-.207.274.689.326 1.453.149 2.176l2.153-1.323c.438-.281.644.115.644.424a1.774 1.774 0 0 1-.346.977s.438-.138.438.461a1.663 1.663 0 0 1-.154.611c-.09.191-.214.361-.367.5 0 0 .14.116.144.54a1.833 1.833 0 0 1-.604 1.134c.066.17.098.352.096.535a1.797 1.797 0 0 1-.249.749 1.693 1.693 0 0 1-.538.556l-3.564 2.189-.035-4.877ZM110.903 128.805l1.554-.954-.022-5.685-1.554.95.022 5.689Z"/><path fill="#FFCE67" d="m42.164 54.983.99-.083c1.312-.111 2.858-.65 2.858-2.614a4.792 4.792 0 0 0-.58-2.054 4.52 4.52 0 0 0-1.399-1.556c-.854-.517-1.58-.305-1.86.46a4.605 4.605 0 0 0-1.857-2.701c-1.094-.664-1.978-.125-1.978 1.203 0 1.927 1.545 4.362 2.84 6.068l.986 1.277ZM65.209 111.984c1.085-.66 2.582-.568 4.241.461 3.31 2.014 5.993 6.915 5.993 10.935 0 2.02-.678 3.435-1.75 4.094l-2.115 1.291c-1.082.66-2.583.563-4.238-.461-3.309-2.014-5.992-6.915-5.992-10.935 0-2.015.67-3.426 1.75-4.085"/><path fill="#FFCE67" d="M67.324 113.721c3.314 2.014 5.997 6.915 5.997 10.936 0 4.02-2.688 5.661-5.997 3.646-3.31-2.014-5.997-6.915-5.993-10.935.004-4.021 2.688-5.634 5.993-3.647Z"/><path fill="#fff" d="m65.209 111.982-2.123 1.301c1.085-.664 2.583-.567 4.237.438 2.167 1.318 4.067 3.877 5.122 6.611l2.123-1.296c-1.05-2.738-2.933-5.292-5.122-6.611-1.654-1.01-3.151-1.102-4.237-.443Z" opacity=".4"/><path fill="#000" d="m71.636 128.697 2.03-1.241c1.09-.659 1.752-2.074 1.752-4.094l-2.097 1.282c-.004 1.978-.643 3.375-1.685 4.053Z" opacity=".2"/><path fill="#000" d="m74.57 119.036-2.123 1.296c.55 1.37.847 2.837.876 4.324l2.123-1.3a12.249 12.249 0 0 0-.876-4.32Z" opacity=".1"/><path fill="#fff" d="M65.438 117.004v6.118c0 .461.17.793.385.751l4.023-.816c.21-.046.122-.461-.206-.922l-3.612-5.127c-.328-.456-.59-.461-.59-.004Z"/><path fill="#FFCE67" d="M16.628 32.059c1.086-.664 2.583-.567 4.242.438 3.31 2.014 5.993 6.915 5.993 10.936 0 2.023-.674 3.439-1.751 4.094l-2.11 1.29c-1.085.66-2.583.568-4.242-.46-3.309-2.01-5.992-6.916-5.992-10.936 0-2.01.67-3.426 1.75-4.085"/><path fill="#FFCE67" d="M18.748 33.818c3.31 2.015 5.993 6.916 5.993 10.936s-2.684 5.657-5.997 3.642c-3.314-2.015-5.997-6.916-5.993-10.936.004-4.02 2.688-5.68 5.997-3.642Z"/><path fill="#fff" d="m16.629 32.06-2.123 1.3c1.085-.66 2.583-.568 4.237.46 2.189 1.319 4.071 3.873 5.122 6.611l2.123-1.3c-1.05-2.761-2.942-5.31-5.13-6.634-1.646-.982-3.143-1.102-4.23-.438Z" opacity=".4"/><path fill="#000" d="m23.046 48.768 2.031-1.24c1.094-.655 1.751-2.07 1.751-4.094l-2.123 1.3c.035 1.964-.604 3.38-1.66 4.034Z" opacity=".2"/><path fill="#000" d="m25.99 39.108-2.123 1.3c.55 1.37.847 2.838.876 4.325l2.123-1.3a12.244 12.244 0 0 0-.876-4.325Z" opacity=".1"/><path fill="#fff" d="M17.357 35.689v6.27a2.073 2.073 0 0 0-.395-.318c-.437-.277-.818.097-.818.83-.006.35.064.696.206 1.012.142.316.352.593.612.809.438.277.994 0 .994-.729v-5.749l2.627 1.623v4.5a2.263 2.263 0 0 0-.394-.318c-.438-.277-.67.18-.67.922-.01.353.06.704.202 1.024.142.32.353.6.616.82.438.277.82-.097.82-.83V38.04l-3.8-2.351Z"/><path fill="#FFCE67" d="M164.819 86.53c-1.085-.66-2.587-.567-4.241.46-3.31 2.016-5.993 6.916-5.993 10.937 0 2.019.674 3.434 1.751 4.094l2.11 1.291c1.085.659 2.583.562 4.237-.462 3.314-2.014 5.997-6.915 5.997-10.935 0-2.015-.669-3.426-1.751-4.085"/><path fill="#FFCE67" d="M162.685 88.267c-3.309 2.015-5.993 6.916-5.993 10.936s2.684 5.662 5.993 3.647 6.002-6.916 5.997-10.936c-.004-4.02-2.674-5.657-5.997-3.647Z"/><path fill="#fff" d="m164.82 86.53 2.123 1.3c-1.085-.664-2.582-.568-4.241.46-2.167 1.32-4.067 3.878-5.118 6.612l-2.127-1.296c1.055-2.738 2.955-5.292 5.122-6.611 1.672-1.033 3.156-1.125 4.241-.466Z" opacity=".4"/><path fill="#000" d="m158.384 103.243-2.031-1.241c-1.095-.659-1.751-2.074-1.751-4.094l2.123 1.3c-.018 1.96.621 3.357 1.659 4.035Z" opacity=".2"/><path fill="#000" d="m155.456 93.582 2.128 1.296a12.234 12.234 0 0 0-.876 4.325l-2.123-1.305c.03-1.483.326-2.948.871-4.316Z" opacity=".1"/><path fill="#fff" d="M159.707 93.418v7.93c0 .24.158.337.355.217l5.283-3.227a.815.815 0 0 0 .251-.278.869.869 0 0 0 .104-.368v-7.92c0-.236-.158-.332-.355-.217l-5.283 3.227a.785.785 0 0 0-.25.273.836.836 0 0 0-.105.363Zm5.305 4.61-4.618 2.813c-.197.115-.354 0-.354-.217V93.75a.854.854 0 0 1 .103-.367.812.812 0 0 1 .251-.278l4.618-2.808c.197-.12.355-.023.355.212v6.856a.843.843 0 0 1-.103.368.787.787 0 0 1-.252.277v.019Z"/><path fill="#fff" d="M160.039 101.032v-2.231l1.681-3.398 1.747 2.02-.377-.978.692-1.342 1.584 1.143v1.55l-5.327 3.236ZM164.044 92.34c.21-.13.385.046.385.392a1.14 1.14 0 0 1-.098.475c-.067.15-.165.28-.287.382-.215.13-.386-.046-.386-.392-.003-.164.03-.328.097-.476.067-.15.166-.28.289-.381Z"/><path fill="#FFCE67" d="m56.525 23.09-1.186-2.346.976-2.896v-1.775l-2.92 1.775v1.77l1.257 2.306c.02.035.05.063.087.078l1.786 1.088Z"/><path fill="#000" d="m56.525 23.09-1.186-2.346.976-2.896v-1.775l-2.92 1.775v1.77l1.257 2.306c.02.035.05.063.087.078l1.786 1.088Z" opacity=".2"/><path fill="#FFCE67" d="M69.07 2.25a2.128 2.128 0 0 0-.258-.908 2.008 2.008 0 0 0-.618-.688l-.713-.433a1.851 1.851 0 0 0-1.751 0L49.23 10.262c-.255.175-.468.41-.62.687a2.11 2.11 0 0 0-.255.909v8.985c.015.32.103.633.255.911.152.278.364.514.62.69l.713.433a1.868 1.868 0 0 0 1.752 0l3.501-2.14 1.252 2.306a.189.189 0 0 0 .075.079.177.177 0 0 0 .202-.02.194.194 0 0 0 .06-.092l1.314-4.025 10.068-6.127c.254-.175.466-.41.618-.688.152-.277.24-.588.257-.907l.027-9.013Z"/><path fill="#000" d="M48.355 20.845c.016.32.104.632.256.91.152.278.364.515.62.69l.713.433a1.89 1.89 0 0 0 1.598.074c-.411.161-.726-.083-.726-.609v-8.986c.008-.325.097-.643.258-.922l-2.46-1.498a1.917 1.917 0 0 0-.258.922v8.986Z" opacity=".2"/><path fill="#fff" d="M69.037 2.007c-.1-.392-.438-.516-.845-.272L51.69 11.78c-.263.16-.48.39-.63.668l-2.46-1.498c.147-.28.36-.516.617-.687L65.714.223a1.876 1.876 0 0 1 1.751 0l.714.433c.224.15.416.348.563.58.148.233.248.496.295.77Z" opacity=".2"/><path fill="#fff" d="M55.639 13.497c-.341.233-.624.547-.828.917a2.82 2.82 0 0 0-.341 1.213c0 .784.52 1.102 1.169.71.339-.234.62-.549.823-.919.202-.37.32-.785.34-1.211 0-.784-.52-1.102-1.163-.71ZM59.944 10.875c-.34.234-.622.548-.826.918-.203.37-.32.786-.343 1.212 0 .784.526 1.102 1.17.71.342-.231.628-.545.835-.915.206-.37.326-.786.35-1.215 0-.784-.542-1.102-1.186-.71ZM64.248 8.252c-.34.233-.624.547-.827.918-.203.37-.32.785-.342 1.212 0 .784.521 1.102 1.169.71.34-.234.621-.548.823-.918.203-.37.32-.785.341-1.212 0-.784-.52-1.102-1.164-.71Z"/><path fill="#FFCE67" d="m136.693 53.738 7.577-4.61a.691.691 0 0 0 .258-.53v-7.174c0-.203-.113-.295-.258-.208l-7.577 4.61a.652.652 0 0 0-.191.23.686.686 0 0 0-.072.296v7.183c-.009.198.118.29.263.203Z"/><path fill="#fff" d="M136.421 53.531v-.143l3.134-5.468-3.09-1.802a.214.214 0 0 1 .022-.06l3.852 1.692c.079.037.184-.028.267-.166l3.848-6.363a.047.047 0 0 1 .021 0l-3.086 5.56 3.13 1.66v.139a.77.77 0 0 1-.079.327l-3.208-1.844-.438.82c-.184.323-.438.461-.608.37l-.438-.268-3.205 5.735a.254.254 0 0 1-.122-.189Z"/><path fill="#FFCE67" d="M50.626 83.088c.236.257.448.538.63.84.185.307.347.63.486.963.129.313.234.637.315.968.072.28.114.568.127.858a.297.297 0 0 1-.053.193.083.083 0 0 1-.051.039.08.08 0 0 1-.063-.011l-1.01-.618a.518.518 0 0 1-.176-.166 1.736 1.736 0 0 1-.136-.253l-.074-.19a2.013 2.013 0 0 0-.376-.626 1.328 1.328 0 0 0-.337-.286 1.58 1.58 0 0 0-.285-.139.459.459 0 0 0-.24-.027.23.23 0 0 0-.171.12.616.616 0 0 0-.066.322c0 .14.025.277.074.406.064.152.148.293.25.42.133.183.28.356.438.516.192.194.437.433.713.71.268.265.515.552.74.858.21.284.388.594.53.922.145.339.252.695.32 1.06.072.41.107.827.104 1.245.005.351-.036.702-.122 1.042a1.803 1.803 0 0 1-.35.687.973.973 0 0 1-.543.322c-.233.044-.471.028-.696-.046v1.029a.384.384 0 0 1-.062.235.103.103 0 0 1-.068.049.095.095 0 0 1-.08-.022l-1.012-.617a.413.413 0 0 1-.149-.203.87.87 0 0 1-.06-.314V92.3a4.923 4.923 0 0 1-.649-.853 7.202 7.202 0 0 1-.512-.987 6.256 6.256 0 0 1-.328-1.019 4.893 4.893 0 0 1-.123-.963.326.326 0 0 1 .048-.194.088.088 0 0 1 .052-.037.083.083 0 0 1 .062.01l1.016.617a.63.63 0 0 1 .17.153c.046.073.087.15.123.23 0 .05.053.13.092.244.047.127.103.25.166.37.075.14.163.273.263.396.11.137.241.253.39.34.205.143.442.229.687.25.184 0 .276-.143.276-.434a.985.985 0 0 0-.101-.424 2.773 2.773 0 0 0-.302-.46 8.275 8.275 0 0 0-.517-.554c-.21-.207-.437-.461-.74-.738a5.038 5.038 0 0 1-1.164-1.775 6.2 6.2 0 0 1-.367-2.213c-.004-.31.03-.62.1-.922.058-.246.157-.478.293-.687.115-.177.276-.315.464-.396.197-.085.412-.11.622-.074v-1.07a.399.399 0 0 1 .061-.24.109.109 0 0 1 .07-.044.105.105 0 0 1 .08.017l1.01.618c.07.051.121.124.15.207.039.098.06.203.06.31v1.11ZM97.291 8.366l-1.396-.834c-.661-.461-1.585-.461-2.627.17-2.026 1.231-3.663 4.357-3.663 6.98v.595c0 2.623 3.348 5.477 3.348 5.477l1.37.816s-.823-.986-.73-1.19c.875-1.94 3.34-7.417 3.34-9.557v-.599a4.935 4.935 0 0 0-.158-1.282l.157.097.36-.673Zm-4 5.994c-1.012.613-1.835.115-1.835-1.116.547-.088 1.918-2.55 1.834-3.343 1.011-.613 1.83-.115 1.83 1.116a4.44 4.44 0 0 1-.531 1.914 4.187 4.187 0 0 1-1.299 1.452v-.023Z"/><path fill="#000" d="m97.291 8.367-1.396-.835c-.661-.461-1.585-.461-2.627.17-2.026 1.232-3.663 4.357-3.663 6.98v.595c0 2.624 3.348 5.478 3.348 5.478l1.37.816s-.823-.987-.73-1.19c.875-1.94 3.34-7.418 3.34-9.557v-.6a4.935 4.935 0 0 0-.158-1.281l.157.097.36-.673Zm-4 5.993c-1.012.613-1.835.115-1.835-1.116.547-.087 1.918-2.55 1.834-3.342 1.011-.613 1.83-.115 1.83 1.116a4.44 4.44 0 0 1-.531 1.914 4.187 4.187 0 0 1-1.299 1.451v-.023Z" opacity=".2"/><path fill="#FFCE67" d="M98.423 11.11c0-2.623-1.642-3.753-3.664-2.522-2.022 1.231-3.668 4.357-3.668 6.98v.6c0 2.02 2.189 4.361 3.174 5.334a.47.47 0 0 0 .634.033.517.517 0 0 0 .145-.185c.875-1.844 3.38-7.469 3.38-9.64v-.6Zm-3.664 4.15c-1.015.617-1.834.12-1.834-1.111.034-.67.218-1.322.536-1.903a4.172 4.172 0 0 1 1.298-1.44c1.011-.618 1.83-.12 1.83 1.111a4.429 4.429 0 0 1-.532 1.91 4.176 4.176 0 0 1-1.298 1.446v-.013Z"/><g fill="#FFCE67" opacity=".8"><path d="M162.345 38.227a.16.16 0 0 1-.105-.042L135.183 15a.18.18 0 0 1-.024-.242.156.156 0 0 1 .229-.025l27.062 23.19a.174.174 0 0 1 .051.192.166.166 0 0 1-.061.082.154.154 0 0 1-.095.03ZM161.886 87.464a.162.162 0 0 1-.111-.057.18.18 0 0 1-.043-.123l1.581-36.09a.177.177 0 0 1 .053-.12.161.161 0 0 1 .117-.046.162.162 0 0 1 .114.056.184.184 0 0 1 .044.124l-1.593 36.086a.173.173 0 0 1-.048.12.156.156 0 0 1-.114.05ZM159.448 89.676a.146.146 0 0 1-.085-.023.158.158 0 0 1-.059-.069l-17.917-35.5a.182.182 0 0 1-.009-.13.172.172 0 0 1 .079-.1.155.155 0 0 1 .123-.013.166.166 0 0 1 .096.082l17.912 35.5c.011.02.018.041.02.063a.15.15 0 0 1-.006.067.162.162 0 0 1-.079.1.16.16 0 0 1-.075.023ZM145.787 45.041a.154.154 0 0 1-.103-.038.185.185 0 0 1-.03-.228.168.168 0 0 1 .103-.075l13.43-2.803a.15.15 0 0 1 .121.024.178.178 0 0 1 .044.048.18.18 0 0 1-.002.19.164.164 0 0 1-.102.074l-13.413 2.803-.048.005ZM138.88 42.47a.154.154 0 0 1-.089-.028.166.166 0 0 1-.06-.074l-8.79-21.273a.163.163 0 0 1-.014-.065.165.165 0 0 1 .011-.066.158.158 0 0 1 .034-.056.16.16 0 0 1 .115-.053.156.156 0 0 1 .116.05.172.172 0 0 1 .035.057l8.812 21.268a.165.165 0 0 1 .005.131.157.157 0 0 1-.035.057.165.165 0 0 1-.14.051ZM98.504 14.546a.162.162 0 0 1-.105-.04.177.177 0 0 1-.057-.103.174.174 0 0 1 .027-.13.161.161 0 0 1 .109-.068l28.751-4.956a.157.157 0 0 1 .12.031.187.187 0 0 1 .063.178.19.19 0 0 1-.026.062.164.164 0 0 1-.105.07l-28.75 4.952-.027.004ZM136.778 43.877a.17.17 0 0 1-.087-.028L98.138 17.796a.167.167 0 0 1-.07-.109.179.179 0 0 1 .07-.176.158.158 0 0 1 .121-.026.16.16 0 0 1 .059.025l38.543 26.053c.03.02.052.05.064.085a.182.182 0 0 1 .003.108.178.178 0 0 1-.06.088.158.158 0 0 1-.099.033h.009ZM136.625 81.834a.165.165 0 0 1-.11-.066.181.181 0 0 1-.034-.128l2.954-27.662a.167.167 0 0 1 .02-.065.16.16 0 0 1 .099-.083.157.157 0 0 1 .065-.004.15.15 0 0 1 .06.02.17.17 0 0 1 .049.043.181.181 0 0 1 .028.06.185.185 0 0 1 .003.066l-2.955 27.662a.166.166 0 0 1-.058.119.153.153 0 0 1-.121.038ZM119.01 121.36a.154.154 0 0 1-.081-.024.159.159 0 0 1-.059-.064.169.169 0 0 1-.018-.13.163.163 0 0 1 .075-.105l36.77-22.545a.156.156 0 0 1 .181.01c.017.014.032.03.043.05.01.02.018.042.02.064a.17.17 0 0 1-.033.128.16.16 0 0 1-.049.043l-36.77 22.55a.205.205 0 0 1-.079.023ZM156.487 94.381h-.048l-17.252-5.288a.172.172 0 0 1-.095-.083.186.186 0 0 1 .014-.19.173.173 0 0 1 .049-.043.149.149 0 0 1 .061-.021.149.149 0 0 1 .063.005l17.252 5.288a.18.18 0 0 1 .114.212.172.172 0 0 1-.061.087.16.16 0 0 1-.097.033ZM118.582 114.805a.162.162 0 0 1-.101-.032.181.181 0 0 1-.03-.24l13.04-18.441a.177.177 0 0 1 .047-.046.153.153 0 0 1 .123-.02.16.16 0 0 1 .058.029.176.176 0 0 1 .065.114.18.18 0 0 1-.03.13l-13.041 18.442a.178.178 0 0 1-.058.048.155.155 0 0 1-.073.016ZM67.918 113.029a.15.15 0 0 1-.127-.069l-14.38-19.396a.173.173 0 0 1-.034-.126.18.18 0 0 1 .06-.114.157.157 0 0 1 .18-.015c.018.01.035.025.048.043l14.384 19.396a.183.183 0 0 1 .017.183.171.171 0 0 1-.06.071.16.16 0 0 1-.088.027ZM28.956 94.115a.16.16 0 0 1-.09-.03.173.173 0 0 1-.072-.143.18.18 0 0 1 .05-.122.16.16 0 0 1 .055-.037l15.6-6.542c.04-.01.082-.006.118.013.036.02.064.052.08.091.014.04.015.084.001.124a.173.173 0 0 1-.076.095L29.03 94.106l-.075.01ZM48.664 78.379a.152.152 0 0 1-.1-.035.167.167 0 0 1-.058-.094L43.74 57.655a.18.18 0 0 1 .019-.13.165.165 0 0 1 .1-.077.16.16 0 0 1 .123.022.175.175 0 0 1 .073.107l4.768 20.59a.18.18 0 0 1-.019.13.168.168 0 0 1-.1.077l-.039.005ZM24.432 86.016a.147.147 0 0 1-.074 0 .167.167 0 0 1-.08-.1.18.18 0 0 1 .01-.13L39.17 54.532a.17.17 0 0 1 .095-.086.16.16 0 0 1 .124.008.178.178 0 0 1 .082.102.19.19 0 0 1-.008.133L24.577 85.91a.161.161 0 0 1-.057.078.148.148 0 0 1-.088.028ZM22.334 84.915a.157.157 0 0 1-.11-.045.175.175 0 0 1-.052-.112l-3.393-37.344a.18.18 0 0 1 .037-.128.164.164 0 0 1 .176-.055.158.158 0 0 1 .095.085c.01.02.015.043.016.065l3.393 37.345a.18.18 0 0 1-.035.126.162.162 0 0 1-.11.063h-.017ZM64.152 120.949a.145.145 0 0 1-.084-.023l-35.82-21.78a.171.171 0 0 1-.077-.103.18.18 0 0 1 .015-.131.165.165 0 0 1 .1-.081.156.156 0 0 1 .124.016l35.825 21.784c.03.019.055.048.068.083a.18.18 0 0 1 .007.11.174.174 0 0 1-.06.091.151.151 0 0 1-.098.034ZM43.504 46.755a.165.165 0 0 1-.065 0 .171.171 0 0 1-.085-.095.184.184 0 0 1 .002-.13l9.538-22.956a.17.17 0 0 1 .09-.09.156.156 0 0 1 .124.002.158.158 0 0 1 .089.095.174.174 0 0 1-.005.131l-9.535 22.955a.17.17 0 0 1-.064.067.16.16 0 0 1-.089.021ZM88.943 14.33h-.04l-18.1-4.703a.167.167 0 0 1-.101-.077.183.183 0 0 1-.021-.13.18.18 0 0 1 .076-.107.164.164 0 0 1 .125-.022l18.1 4.698c.043.01.08.038.102.077a.176.176 0 0 1-.038.226.16.16 0 0 1-.103.038ZM22.608 36.368a.152.152 0 0 1-.131-.07.182.182 0 0 1 .035-.244l24.334-18.51a.165.165 0 0 1 .258.099.185.185 0 0 1-.02.132.172.172 0 0 1-.046.05l-24.316 18.51a.152.152 0 0 1-.114.033ZM37.145 47.183a.117.117 0 0 1-.065 0l-11.329-5.62a.169.169 0 0 1-.076-.096.179.179 0 0 1 .007-.125.166.166 0 0 1 .086-.086.155.155 0 0 1 .119-.002l11.328 5.584a.163.163 0 0 1 .086.097.18.18 0 0 1-.007.133.175.175 0 0 1-.057.082.16.16 0 0 1-.092.033ZM46.29 49.424a.168.168 0 0 1-.077-.02.178.178 0 0 1-.06-.054.175.175 0 0 1-.028-.129.176.176 0 0 1 .068-.11L87.34 18.16a.157.157 0 0 1 .122-.03c.043.009.08.034.106.071a.18.18 0 0 1-.04.24l-41.148 30.95a.14.14 0 0 1-.092.032ZM107.728 120.872l-33.78-.023a.154.154 0 0 1-.112-.049.172.172 0 0 1 0-.235.154.154 0 0 1 .112-.049l33.78.028a.142.142 0 0 1 .068.004.142.142 0 0 1 .06.033.169.169 0 0 1 .042.057.186.186 0 0 1 0 .14.169.169 0 0 1-.042.057.142.142 0 0 1-.06.033.142.142 0 0 1-.068.004Z" opacity=".8"/></g><path fill="#FFCE67" d="M9.313 163.187a12.32 12.32 0 0 0-1.44-4.407c-1.174-1.923-2.785-3.126-4.286-3.251-1.502-.124-2.719 1.333-1.108 2.329 1.611.996 4.46 2.024 5.779 5.763l1.055-.434Z"/><path fill="#000" d="M9.313 163.187a12.32 12.32 0 0 0-1.44-4.407c-1.174-1.923-2.785-3.126-4.286-3.251-1.502-.124-2.719 1.333-1.108 2.329 1.611.996 4.46 2.024 5.779 5.763l1.055-.434Z" opacity=".1"/><path fill="#fff" d="M8.872 162.547a.078.078 0 0 0 .043-.043.089.089 0 0 0 .001-.063c-1.589-4.112-4.605-5.832-5.98-6.164a.084.084 0 0 0-.031-.001.08.08 0 0 0-.065.066.09.09 0 0 0 .034.097c.01.007.02.011.032.014 1.344.322 4.303 2.01 5.866 6.058.009.018.025.032.043.039a.071.071 0 0 0 .057-.003Z"/><path fill="#FFCE67" d="M.847 162.592c.174.305.454.528.78.622.333.09.63.294.84.581.342.618-.219 1.485.149 2.084.083.121.19.223.313.298.123.076.26.123.4.14.234.035.47.057.705.064.112.001.223-.009.333-.027.327-.075.668-.036.972.11.464.277.608.895.875 1.384.175.282.406.521.677.7.272.178.577.292.895.332.27.06.55.041.81-.055l.043-.028.084-.101a3.56 3.56 0 0 0-.057-.982v-.06c0-.383.026-.765.035-1.148v-2.116a3.62 3.62 0 0 0-.136-1.383c-.201-.461-.71-.484-.902-.95-.079-.189-.118-.387-.192-.576a1.618 1.618 0 0 0-.529-.679 1.501 1.501 0 0 0-.785-.294c-.875-.051-1.68.705-2.565.636-.227 0-.438-.092-.674-.134a1.826 1.826 0 0 0-1.072.056 1.927 1.927 0 0 0-.876.654.998.998 0 0 0-.123.872Z"/><path fill="#fff" d="M8.796 167.199a.075.075 0 0 0 .028-.014.093.093 0 0 0 .02-.024.09.09 0 0 0 .009-.063c-1.226-4.832-6.058-5.533-7.188-5.441a.075.075 0 0 0-.052.023.082.082 0 0 0 0 .111.071.071 0 0 0 .052.023c1.108-.083 5.835.599 7.03 5.325a.086.086 0 0 0 .014.031.085.085 0 0 0 .055.033.07.07 0 0 0 .032-.004Z"/><path fill="#fff" d="M3.426 164.75a.07.07 0 0 0 .04-.023 3.975 3.975 0 0 1 1.542-.874 3.835 3.835 0 0 1 1.75-.103c.009.002.019.002.028-.001a.065.065 0 0 0 .046-.035.079.079 0 0 0 .009-.029.081.081 0 0 0-.012-.059.07.07 0 0 0-.05-.033 3.966 3.966 0 0 0-1.827.105 4.113 4.113 0 0 0-1.609.919.062.062 0 0 0-.017.025.075.075 0 0 0 .018.085c.009.013.022.022.037.026a.07.07 0 0 0 .045-.003Z"/><path fill="#FFCE67" d="M98.62 176.552a14.896 14.896 0 0 1 1.908-5.316c1.501-2.305 3.502-3.688 5.349-3.785 1.847-.097 3.261 1.733 1.261 2.886-2.001 1.153-5.52 2.278-7.263 6.782l-1.256-.567Z"/><path fill="#000" d="M98.62 176.552a14.896 14.896 0 0 1 1.908-5.316c1.501-2.305 3.502-3.688 5.349-3.785 1.847-.097 3.261 1.733 1.261 2.886-2.001 1.153-5.52 2.278-7.263 6.782l-1.256-.567Z" opacity=".15"/><path fill="#fff" d="M99.178 175.785a.098.098 0 0 1-.05-.056.105.105 0 0 1 .001-.077c2.088-4.952 5.831-6.916 7.521-7.266a.089.089 0 0 1 .1.041.111.111 0 0 1 0 .115.103.103 0 0 1-.061.047c-1.654.341-5.327 2.272-7.384 7.146a.102.102 0 0 1-.054.053.094.094 0 0 1-.073-.003Z"/><path fill="#FFCE67" d="M99.112 179.963c.118-.48.157-.978.114-1.471a9.37 9.37 0 0 1-.206-1.591 1.78 1.78 0 0 1 .243-.626c.12-.19.273-.353.453-.48.369-.192.71-.439 1.011-.733.199-.391.346-.808.438-1.241.176-.456.513-.823.941-1.023a1.75 1.75 0 0 1 1.353-.042 5.11 5.11 0 0 1 1.098.734c.35.286.778.448 1.222.461.487-.015.974.01 1.457.073.819.139 1.813.6 1.957 1.559a1.19 1.19 0 0 1-.079.7v.028c-.328.581-1.094.586-1.619.807-.145.064-.381.143-.438.304-.057.162.026.411.074.581.263.964.316 2.213-.954 2.411a3.845 3.845 0 0 1-1.409-.221 1.367 1.367 0 0 0-.706-.051 1.406 1.406 0 0 0-.643.309c-.173.241-.31.509-.407.793a2.533 2.533 0 0 1-1.374 1.227 4.27 4.27 0 0 1-1.817.221c-1.366-.111-.941-1.807-.71-2.729Z"/><path fill="#fff" d="M99.095 181.463a.097.097 0 0 1-.054-.049.106.106 0 0 1-.007-.075c1.672-5.842 7.595-6.492 8.97-6.34a.095.095 0 0 1 .062.038.106.106 0 0 1 .021.073.089.089 0 0 1-.011.036.07.07 0 0 1-.023.028.079.079 0 0 1-.067.019c-1.344-.148-7.14.489-8.755 6.206a.099.099 0 0 1-.018.041.087.087 0 0 1-.034.027.078.078 0 0 1-.042.009.088.088 0 0 1-.042-.013Z"/><path fill="#fff" d="M105.737 178.7a.094.094 0 0 1-.048-.028 4.834 4.834 0 0 0-1.847-1.132 4.646 4.646 0 0 0-2.128-.195.091.091 0 0 1-.065-.029.099.099 0 0 1-.027-.068c0-.026.01-.05.027-.069a.09.09 0 0 1 .065-.028 4.835 4.835 0 0 1 2.213.206 5.048 5.048 0 0 1 1.919 1.177.104.104 0 0 1 .026.069.1.1 0 0 1-.026.069.079.079 0 0 1-.109.028Z"/><path fill="#FFCE67" d="M83.674 177.057a12.82 12.82 0 0 0-1.751-6.229c-1.475-2.549-3.397-4.246-4.986-3.688-1.484.512-1.125 2.628 1.142 4.91 1.59 1.6 3.205 3.637 3.966 5.993l1.314 3.016.315-4.002Z"/><path fill="#FFCE67" d="M83.674 177.057a12.82 12.82 0 0 0-1.751-6.229c-1.475-2.549-3.397-4.246-4.986-3.688-1.484.512-1.125 2.628 1.142 4.91 1.59 1.6 3.205 3.637 3.966 5.993l1.314 3.016.315-4.002Z"/><path fill="#000" d="M83.677 177.057a12.82 12.82 0 0 0-1.751-6.229c-1.475-2.55-3.397-4.246-4.986-3.688-1.484.511-1.125 2.627 1.142 4.91 1.59 1.599 3.205 3.637 3.966 5.993l1.314 3.015.315-4.001Z" opacity=".15"/><path fill="#fff" d="M83.452 178.118a.094.094 0 0 1-.055-.022.107.107 0 0 1-.033-.052c-1.01-4.09-3.502-8.373-5.782-9.963a.11.11 0 0 1-.028-.028.111.111 0 0 1-.014-.078.105.105 0 0 1 .015-.037.09.09 0 0 1 .026-.028.09.09 0 0 1 .034-.016.116.116 0 0 1 .038 0 .106.106 0 0 1 .034.016c2.32 1.614 4.841 5.948 5.865 10.083a.106.106 0 0 1-.035.108.108.108 0 0 1-.034.017h-.031Z"/><path fill="#FFCE67" d="M83.754 181.715a5.694 5.694 0 0 1-2.627 1.443c-1.694.42-2.512-.387-2.512-.387s.555-1.748 1.497-2.305a9.413 9.413 0 0 0-2.885 1.521s-1.046.097-1.585-1.554c0 0 .552-1.06 2.596-1.77a6.517 6.517 0 0 0-3.064.396c-.136.065-.876-2.065-1.12-3.056-.246-.991.14-1.01.875-1.277.735-.268 3.252-.595 3.747-.203.494.392.836 1.844.836 1.844.22-.623.272-1.298.153-1.95a4.213 4.213 0 0 1 2.005.087c.197.06.525 1.522.162 2.739a5 5 0 0 0 .85-2.328c.433.228.811.558 1.105.964.295.406.497.877.593 1.378.192.977.385 3.066-.626 4.458Z"/><path fill="#fff" d="M83.755 181.806a.084.084 0 0 1-.05-.011.09.09 0 0 1-.037-.04c-1.598-2.923-7.004-6.039-8.864-6.274a.098.098 0 0 1-.042-.007.091.091 0 0 1-.034-.025.095.095 0 0 1-.022-.037.11.11 0 0 1 .01-.086.104.104 0 0 1 .029-.031.095.095 0 0 1 .039-.016.098.098 0 0 1 .041.003c1.9.236 7.385 3.403 9.01 6.372a.106.106 0 0 1 .009.077.098.098 0 0 1-.045.061.064.064 0 0 1-.044.014Z"/><path fill="#FFCE67" d="M177.483 162.068a12.275 12.275 0 0 1 1.436-4.407c1.173-1.927 2.784-3.126 4.286-3.25 1.501-.125 2.718 1.327 1.107 2.328-1.611 1-4.46 2.019-5.774 5.758l-1.055-.429Z"/><path fill="#000" d="M177.483 162.068a12.275 12.275 0 0 1 1.436-4.407c1.173-1.927 2.784-3.126 4.286-3.25 1.501-.125 2.718 1.327 1.107 2.328-1.611 1-4.46 2.019-5.774 5.758l-1.055-.429Z" opacity=".1"/><path fill="#fff" d="M177.921 161.423a.087.087 0 0 1-.026-.018.087.087 0 0 1-.017-.093c1.584-4.112 4.6-5.827 5.975-6.159a.067.067 0 0 1 .061.007.08.08 0 0 1 .023.022c.006.009.01.02.012.031a.092.092 0 0 1 .002.033.084.084 0 0 1-.012.031.073.073 0 0 1-.022.024.069.069 0 0 1-.029.013c-1.344.328-4.303 2.015-5.866 6.063a.078.078 0 0 1-.016.028.064.064 0 0 1-.025.018.06.06 0 0 1-.03.007.082.082 0 0 1-.03-.007Z"/><path fill="#FFCE67" d="M185.95 161.474a1.358 1.358 0 0 1-.783.623 1.5 1.5 0 0 0-.819.581c-.337.613.219 1.484-.144 2.083a1.087 1.087 0 0 1-.315.308c-.123.079-.26.131-.403.153a5.959 5.959 0 0 1-.705.065c-.111 0-.223-.009-.333-.028a1.444 1.444 0 0 0-.971.111c-.464.277-.609.894-.876 1.383a2.287 2.287 0 0 1-.676.698 2.152 2.152 0 0 1-.891.339 1.486 1.486 0 0 1-.814-.055l-.044-.032c-.026-.037-.066-.083-.079-.106a3.758 3.758 0 0 1 .057-.982v-.06c0-.387-.026-.765-.035-1.153 0-.701-.022-1.411 0-2.116a3.63 3.63 0 0 1 .136-1.383c.206-.461.709-.484.902-.95.078-.184.118-.382.192-.571.115-.273.297-.508.529-.68a1.52 1.52 0 0 1 .784-.298c.876-.046 1.681.71 2.566.641.228-.033.455-.079.678-.138a1.828 1.828 0 0 1 1.073.058c.345.127.648.354.875.656a1.03 1.03 0 0 1 .096.853Z"/><path fill="#fff" d="M178.004 166.082a.068.068 0 0 1-.027-.013.088.088 0 0 1-.019-.024.075.075 0 0 1-.009-.029.081.081 0 0 1 .002-.031c1.221-4.831 6.054-5.532 7.183-5.444.011 0 .021.003.03.008a.06.06 0 0 1 .023.019.085.085 0 0 1 .015.028.07.07 0 0 1 .002.032.08.08 0 0 1-.024.054.087.087 0 0 1-.026.016.09.09 0 0 1-.028.004c-1.108-.088-5.836.599-7.031 5.325a.081.081 0 0 1-.035.046.074.074 0 0 1-.056.009Z"/><path fill="#fff" d="M183.367 163.628a.065.065 0 0 1-.039 0 3.947 3.947 0 0 0-1.543-.877 3.807 3.807 0 0 0-1.749-.101.061.061 0 0 1-.03-.002.094.094 0 0 1-.026-.014.078.078 0 0 1-.019-.024.14.14 0 0 1-.009-.029.1.1 0 0 1 .001-.03.07.07 0 0 1 .012-.028.08.08 0 0 1 .021-.02.094.094 0 0 1 .028-.01 3.968 3.968 0 0 1 1.818.106 4.12 4.12 0 0 1 1.601.913.09.09 0 0 1 .022.058.09.09 0 0 1-.022.058.08.08 0 0 1-.033.008.073.073 0 0 1-.033-.008Z"/><path fill="#37474F" d="M128.311 151.772c.014.208.075.409.177.587.102.179.242.33.409.441l16.494 10.028a1.271 1.271 0 0 0 1.174 0l22.565-13.721c.178-.099.327-.248.43-.429a1.214 1.214 0 0 0 0-1.203 1.135 1.135 0 0 0-.43-.429l-16.49-10.027a1.25 1.25 0 0 0-1.177 0l-22.566 13.72a1.301 1.301 0 0 0-.41.443 1.377 1.377 0 0 0-.176.59Z"/><path fill="#263238" d="M145.978 161.635v1.341a1.16 1.16 0 0 1-.586-.147l-16.495-10.028a1.124 1.124 0 0 1-.42-.413 1.207 1.207 0 0 1-.033-1.168c.093-.18.23-.332.396-.438-.267.198-.245.493.057.677l16.495 10.028c.18.1.382.151.586.148Z"/><path fill="#455A64" d="M127.763 150.761a1.3 1.3 0 0 1-.396-.455 1.381 1.381 0 0 1-.155-.596v-20.724c.012-.214.071-.423.173-.61.101-.186.243-.345.413-.464l22.566-13.72a1.054 1.054 0 0 1 1.139-.023c.174.106.317.26.414.445.097.185.145.394.137.606v20.723a1.444 1.444 0 0 1-.173.611 1.36 1.36 0 0 1-.414.464l-22.565 13.72a1.209 1.209 0 0 1-1.139.023Z"/><path fill="#263238" d="M128.832 150.775a1.054 1.054 0 0 1-1.107-.034 1.138 1.138 0 0 1-.391-.442 1.21 1.21 0 0 1-.126-.589v-20.747c.008-.215.066-.424.171-.609l1.103.669a1.317 1.317 0 0 0-.171.608v20.747c0 .369.228.539.521.397Z"/><path fill="#37474F" d="M128.311 129.656v20.747c0 .392.262.553.586.355l22.566-13.72c.17-.119.312-.278.414-.465a1.42 1.42 0 0 0 .172-.61v-20.742c0-.396-.262-.553-.586-.359l-22.566 13.72a1.37 1.37 0 0 0-.414.464 1.429 1.429 0 0 0-.172.61Z"/><path fill="#455A64" d="m128.897 151.458 16.495 10.023a1.256 1.256 0 0 0 1.173 0l22.565-13.716a.356.356 0 0 0 .174-.14.394.394 0 0 0 0-.439.367.367 0 0 0-.174-.14l-16.489-10.027a1.257 1.257 0 0 0-1.178 0l-22.566 13.72a.37.37 0 0 0-.173.14.397.397 0 0 0 0 .439.358.358 0 0 0 .173.14Z"/><path fill="#FFCE67" d="m129.22 129.732 21.751-13.227c.197-.115.355 0 .355.217v17.939a.862.862 0 0 1-.104.368.787.787 0 0 1-.251.277l-21.751 13.228c-.197.115-.355 0-.355-.217v-17.939a.854.854 0 0 1 .104-.368.818.818 0 0 1 .251-.278Z"/><path fill="#fff" d="m143.271 126.286-.057-.051c-.832-.659-1.939-.627-3.117.087a8.855 8.855 0 0 0-3.016 3.514l-.07.133-.035.069a11.898 11.898 0 0 0-1.291 5.173c0 1.655.437 2.937 1.291 3.601.854.664 1.944.632 3.121-.083a9.03 9.03 0 0 0 3.126-3.716c.82-1.59 1.27-3.363 1.313-5.173-.031-1.623-.469-2.895-1.265-3.554Zm-2.478 11.811a5.051 5.051 0 0 1-.486.365l-.206.133-.201.116c-.158.085-.32.16-.486.225-2.044.78-3.611-.746-3.633-3.72v-.129a11.799 11.799 0 0 1 1.313-5.072l.07-.133a9.65 9.65 0 0 1 2.263-2.942c.155-.131.318-.253.486-.364l.202-.134.205-.115c.158-.085.32-.16.486-.226a2.314 2.314 0 0 1 2.425.314c.74.627 1.2 1.807 1.208 3.407v.129c-.048 3.01-1.615 6.441-3.646 8.146Z"/><path fill="#fff" d="M140.09 139.005c-1.23.747-2.39.779-3.261.083-.871-.696-1.352-2.029-1.352-3.762.04-1.888.503-3.74 1.352-5.404l.035-.073.075-.143a9.31 9.31 0 0 1 3.151-3.689c1.23-.746 2.386-.779 3.257-.092l.062.046c.831.71 1.291 2.029 1.291 3.716a12.495 12.495 0 0 1-1.353 5.404 9.418 9.418 0 0 1-3.257 3.914Zm0-12.278-.192.125a6.134 6.134 0 0 0-.464.35 9.227 9.227 0 0 0-2.158 2.803l-.066.13a11.214 11.214 0 0 0-1.23 4.831v.125c0 2.812 1.48 4.306 3.467 3.55a4.25 4.25 0 0 0 .464-.217c.127-.069.263-.152.39-.235.126-.083.31-.226.464-.351 1.987-1.659 3.445-4.923 3.466-7.763v-.125c0-1.475-.437-2.628-1.155-3.227l-.066-.056a2.228 2.228 0 0 0-1.092-.431 2.19 2.19 0 0 0-1.153.187 4.164 4.164 0 0 0-.464.217l-.211.087Z"/><path fill="#fff" d="m143.346 126.137-.057-.046-.07-.055-.07.143-.07.129c-.239.461-.509.905-.805 1.328a.786.786 0 0 0-.079.11c-.376.51-.804.974-1.278 1.383l-.092.074a5.826 5.826 0 0 1-.626.461 4.134 4.134 0 0 1-.81.383l-.087.028a2.437 2.437 0 0 1-1.248.069h-.079a2.096 2.096 0 0 1-.753-.378l-.061-.051-.07-.065-.074.143c0 .042-.049.088-.071.139l-.074.143.07.06.061.05c.245.192.523.331.819.411h.083c.445.086.904.056 1.335-.088l.092-.028c.305-.102.598-.238.876-.405.23-.14.452-.294.665-.461l.096-.079a8.837 8.837 0 0 0 1.366-1.484l.083-.12c.327-.455.62-.936.876-1.439.026-.041.048-.087.074-.138l.07-.143-.092-.074ZM143.347 134.739a2.157 2.157 0 0 0-.945-.419.384.384 0 0 0-.083 0c-.462-.06-.931 0-1.366.175l-.097.037c-.23.092-.453.205-.665.337a5.937 5.937 0 0 0-.854.631l-.096.083a9.19 9.19 0 0 0-1.335 1.54l-.083.12c-.302.449-.576.919-.819 1.406v.023c-.022.037-.039.078-.061.12l-.088.138.075.056c.022.02.046.038.07.055l.074.051.07-.148.062-.129c.224-.449.475-.881.753-1.295l.078-.116a8.79 8.79 0 0 1 1.248-1.443l.088-.078c.252-.225.523-.426.809-.6.2-.123.41-.23.626-.318l.092-.032a2.563 2.563 0 0 1 1.278-.161h.079c.289.054.563.172.806.345l.07.047.07.055.07-.138v-.023c0-.037.039-.079.057-.12l.092-.157-.075-.042Z"/><path fill="#fff" d="M141.767 127.053c-.438-.954-1.038-1.267-1.673-.88-.634.387-1.234 1.424-1.676 2.918a17.601 17.601 0 0 0-.665 4.85 10.23 10.23 0 0 0 .665 4.044c.438.954 1.037 1.267 1.676.88.64-.387 1.231-1.424 1.673-2.918.446-1.575.67-3.211.665-4.855a10.242 10.242 0 0 0-.665-4.039Zm-1.673 11.416c-.551.336-1.068.041-1.466-.821a9.776 9.776 0 0 1-.626-3.836 16.787 16.787 0 0 1 .626-4.61c.398-1.346.915-2.268 1.466-2.6.552-.332 1.064-.042 1.463.82a9.794 9.794 0 0 1 .626 3.836 16.787 16.787 0 0 1-.626 4.61c-.399 1.324-.915 2.246-1.463 2.601Z"/><path fill="#fff" d="m144.465 129.651-8.755 5.315a.404.404 0 0 0-.148.314c0 .115.065.184.148.134l8.755-5.316a.401.401 0 0 0 .149-.314c0-.115-.066-.184-.149-.133Z"/><path fill="#fff" d="M140.245 138.573V126.3c0-.115-.074-.162-.157-.111a.389.389 0 0 0-.162.304v12.273c0 .116.079.166.162.116a.39.39 0 0 0 .112-.136.4.4 0 0 0 .045-.173Z"/><path fill="#37474F" d="m130.813 150.917 20.925-12.734a.611.611 0 0 1 .59 0l1.069.651a.19.19 0 0 1 .124.179.19.19 0 0 1-.035.111.173.173 0 0 1-.089.069l-20.92 12.734a.63.63 0 0 1-.587 0l-1.068-.65a.188.188 0 0 1-.129-.177.203.203 0 0 1 .032-.112.185.185 0 0 1 .088-.071Z"/><path fill="#263238" d="m133.571 152.595 20.946-12.743a.61.61 0 0 1 .587 0l6.588 4.007c.162.096.162.258 0 .359l-20.898 12.725a.616.616 0 0 1-.586 0l-6.615-3.988a.182.182 0 0 1-.094-.062.196.196 0 0 1-.014-.223.189.189 0 0 1 .086-.075Z"/><path fill="#455A64" d="m152.347 145.595.656-.401c.026 0 .026-.046 0-.065l-.757-.461a.107.107 0 0 0-.105 0l-.657.397c-.026 0-.026.046 0 .064l.757.461a.124.124 0 0 0 .053.015.139.139 0 0 0 .053-.01Zm-1.314-1.586-.652.401c-.031 0-.026.042 0 .06l.757.461a.124.124 0 0 0 .053.012.117.117 0 0 0 .052-.012l.653-.401c.03 0 .026-.046 0-.06l-.762-.461a.104.104 0 0 0-.083-.005l-.018.005Zm-2.114 1.286-1.112.678c-.026 0-.026.046 0 .064l.757.462a.107.107 0 0 0 .105 0l1.112-.674c.027 0 .022-.046 0-.064l-.761-.461a.116.116 0 0 0-.084-.005h-.017Zm1.16-.705-.657.401c-.03 0-.026.046 0 .064l.758.462a.107.107 0 0 0 .105 0l.656-.397c.027 0 .027-.046 0-.065l-.761-.461a.114.114 0 0 0-.083-.004h-.018Zm-2.574 1.567-.657.397c-.026 0-.026.046 0 .064l.758.461a.117.117 0 0 0 .052.012.124.124 0 0 0 .053-.012l.656-.401c.027 0 .027-.046 0-.064l-.757-.461a.11.11 0 0 0-.044-.008.106.106 0 0 0-.043.012h-.018Zm-.959.581-.656.401c-.026 0-.026.042 0 .06l.757.461a.107.107 0 0 0 .105 0l.657-.401c.026 0 .026-.041 0-.06l-.758-.461a.112.112 0 0 0-.087 0h-.018Zm3.003 1.877.657-.401c.026 0 .026-.047 0-.06l-.757-.461a.107.107 0 0 0-.105 0l-.657.401c-.026 0-.026.041 0 .06l.757.461a.124.124 0 0 0 .053.012.117.117 0 0 0 .052-.012Zm-.958.581.656-.397c.031 0 .027-.046 0-.064l-.757-.461a.12.12 0 0 0-.105 0l-.657.401c-.026 0-.026.046 0 .064l.758.461a.099.099 0 0 0 .05.011.108.108 0 0 0 .05-.015h.005Zm-.959.585.657-.401c.03 0 .026-.046 0-.065l-.758-.461a.118.118 0 0 0-.052-.013.122.122 0 0 0-.053.013l-.656.397c-.027 0-.027.046 0 .064l.761.462a.132.132 0 0 0 .048.013.118.118 0 0 0 .049-.009h.004Zm-.959.581.657-.396c.031 0 .026-.047 0-.065l-.757-.461a.124.124 0 0 0-.053-.012.117.117 0 0 0-.052.012l-.653.401c-.03 0-.026.046 0 .065l.762.461a.123.123 0 0 0 .046.007.12.12 0 0 0 .046-.012h.004Zm4.719-4.186.657-.397c.026 0 .026-.046 0-.064l-.757-.461a.124.124 0 0 0-.053-.012.117.117 0 0 0-.052.012l-.657.401c-.026 0-.026.046 0 .064l.757.461a.102.102 0 0 0 .051.011.108.108 0 0 0 .05-.015h.004Zm-.875 1.844 1.462-.89c.03 0 .026-.041 0-.06l-1.843-1.12a.12.12 0 0 0-.105 0l-.757.461c-.027 0-.027.046 0 .064l.976.591c.03 0 .03.05 0 .064l-.609.369c-.026 0-.026.046 0 .065l.758.461c.015.01.033.015.052.016a.1.1 0 0 0 .053-.012l.013-.009Zm-4.907-.696-.657.396c-.026 0-.026.046 0 .065l.757.461a.107.107 0 0 0 .105 0l.657-.397c.026 0 .026-.046 0-.064l-.757-.461a.107.107 0 0 0-.105 0Zm-.959.581-.657.396c-.026 0-.026.046 0 .065l.758.461a.117.117 0 0 0 .052.012.124.124 0 0 0 .053-.012l.656-.401c.027 0 .027-.046 0-.065l-.757-.461a.129.129 0 0 0-.055-.011.113.113 0 0 0-.054.016h.004Zm-4.789 6.533a.107.107 0 0 0 .053.013.106.106 0 0 0 .052-.013l.657-.401c.026 0 .026-.042 0-.06l-.758-.461a.107.107 0 0 0-.105 0l-.656.401c-.027 0-.027.041 0 .06l.757.461Zm-2.876-1.872-.657.401c-.03 0-.026.046 0 .06l.758.461a.106.106 0 0 0 .052.013.107.107 0 0 0 .053-.013l.656-.401c.027 0 .027-.042 0-.06l-.761-.461a.099.099 0 0 0-.105 0h.004Zm1.541 1.383a.107.107 0 0 0 .105 0l.657-.397c.026 0 .026-.046 0-.064l-.758-.461a.117.117 0 0 0-.052-.012.124.124 0 0 0-.053.012l-.656.401c-.027 0-.027.046 0 .064l.757.457Zm3.029.857.652-.396c.031 0 .027-.046 0-.065l-.761-.461a.124.124 0 0 0-.053-.012.117.117 0 0 0-.052.012l-.653.401c-.03 0-.026.047 0 .065l.762.461a.102.102 0 0 0 .052.003.113.113 0 0 0 .049-.021l.004.013Zm-1.064.581a.124.124 0 0 0 .053.012.117.117 0 0 0 .052-.012l.653-.401c.03 0 .026-.046 0-.064l-.762-.461a.098.098 0 0 0-.053-.014.097.097 0 0 0-.052.014l-.652.396c-.031 0-.027.046 0 .065l.761.465Zm-2.547-3.388-.657.396c-.031 0-.026.046 0 .065l.757.461a.124.124 0 0 0 .053.012.117.117 0 0 0 .052-.012l.653-.401c.03 0 .026-.046 0-.065l-.762-.461a.112.112 0 0 0-.049-.018.094.094 0 0 0-.052.009l.005.014Zm4.784-2.923-.656.396c-.027 0-.027.046 0 .065l.757.461a.117.117 0 0 0 .052.012.118.118 0 0 0 .053-.012l.657-.401c.03 0 .026-.046 0-.065l-.758-.461a.106.106 0 0 0-.053-.012.11.11 0 0 0-.052.017Zm-3.834 2.305-.653.401c-.03 0-.026.046 0 .065l.762.461a.107.107 0 0 0 .105 0l.652-.397c.031 0 .027-.046 0-.064l-.761-.461a.12.12 0 0 0-.105-.005Zm4.793-2.914-.657.401c-.026 0-.026.046 0 .065l.758.461a.107.107 0 0 0 .105 0l.656-.397c.027 0 .027-.046 0-.064l-.757-.461a.11.11 0 0 0-.054-.005.106.106 0 0 0-.051.019v-.019Zm-1.917 1.167-.657.401c-.026 0-.026.046 0 .06l.762.461a.096.096 0 0 0 .05.013.096.096 0 0 0 .05-.013l.657-.401c.031 0 .026-.042 0-.06l-.757-.461a.104.104 0 0 0-.055-.005.104.104 0 0 0-.05.023v-.018Zm-.977.604-.652.396c-.03 0-.026.046 0 .065l.762.461a.098.098 0 0 0 .05.013.102.102 0 0 0 .051-.013l.656-.397c.031 0 .026-.046 0-.064l-.757-.461a.1.1 0 0 0-.055-.016.1.1 0 0 0-.055.016Zm-.958.58-.652.397c-.031 0-.027.046 0 .065l.761.461a.141.141 0 0 0 .053.012.132.132 0 0 0 .052-.012l.653-.402c.03 0 .026-.046 0-.064l-.758-.461a.122.122 0 0 0-.092.004h-.017Zm4.903.71.652-.401c.03 0 .026-.046 0-.06l-.762-.461a.107.107 0 0 0-.105 0l-.652.401c-.031 0-.026.042 0 .06l.757.461a.107.107 0 0 0 .127 0h-.017Zm8.413-8.805-.652.396c-.031 0-.027.046 0 .065l.757.461a.107.107 0 0 0 .105 0l.652-.397c.031 0 .027-.046 0-.064l-.761-.461a.102.102 0 0 0-.084 0h-.017Zm-1.16.705-.652.396c-.031 0-.027.047 0 .065l.757.461a.107.107 0 0 0 .105 0l.652-.396c.031 0 .027-.047 0-.065l-.761-.461a.103.103 0 0 0-.084 0h-.017Zm2.119-1.291-.653.401c-.03 0-.026.046 0 .06l.762.461a.107.107 0 0 0 .105 0l.652-.396c.031 0 .027-.046 0-.065l-.761-.461a.122.122 0 0 0-.088.023l-.017-.023Zm-4.96 5.39.657-.401c.026 0 .026-.047 0-.06l-.758-.461a.107.107 0 0 0-.105 0l-.656.401c-.027 0-.027.041 0 .06l.757.461c.019.011.04.016.061.016a.122.122 0 0 0 .062-.016h-.018Zm6.023-5.971a.112.112 0 0 0-.105 0l-.652.397c-.031 0-.026.046 0 .064l.762.461a.117.117 0 0 0 .052.012.124.124 0 0 0 .053-.012l.652-.401c.031 0 .026-.046 0-.064l-.762-.457Zm-9.477 9.387.652-.397c.031 0 .027-.046 0-.064l-.757-.461a.107.107 0 0 0-.105 0l-.652.396c-.031 0-.026.046 0 .065l.762.461a.105.105 0 0 0 .118 0h-.018Zm11.749-7.146.657-.397c.031 0 .026-.046 0-.064l-.757-.461a.107.107 0 0 0-.105 0l-.657.396c-.026 0-.026.046 0 .065l.762.461a.104.104 0 0 0 .059.019.106.106 0 0 0 .059-.019h-.018Zm-2.04-.074.657-.401c.026 0 .026-.042 0-.06l-.757-.461a.107.107 0 0 0-.105 0l-.657.401c-.026 0-.026.042 0 .06l.757.461c.019.012.04.019.062.019a.112.112 0 0 0 .061-.019h-.018Zm.854-1.508a.107.107 0 0 0-.105 0l-.657.397c-.026 0-.026.046 0 .065l.758.461a.107.107 0 0 0 .105 0l.656-.397c.027 0 .027-.046 0-.064l-.757-.462Zm.201-.119 1.839 1.115a.107.107 0 0 0 .105 0l.657-.401c.03 0 .026-.041 0-.06l-1.839-1.12a.118.118 0 0 0-.053-.012.117.117 0 0 0-.052.012l-.657.401c-.013.014-.013.046.018.065h-.018Zm-2.223 1.281-.657.401c-.026 0-.026.047 0 .065l.757.461a.107.107 0 0 0 .105 0l.657-.397c.026 0 .026-.046 0-.064l-.757-.461a.122.122 0 0 0-.088-.005h-.017Zm-7.214 4.389-.657.397c-.026 0-.026.046 0 .064l.757.461a.124.124 0 0 0 .053.012.117.117 0 0 0 .052-.012l.657-.401c.026 0 .026-.046 0-.064l-.757-.461a.116.116 0 0 0-.045-.008.111.111 0 0 0-.043.012h-.017Zm9.363-3.388a.111.111 0 0 0 .101 0l.656-.401c.031 0 .026-.046 0-.065l-.757-.461a.107.107 0 0 0-.053-.013.106.106 0 0 0-.052.013l-.652.397c-.031 0-.027.046 0 .064l.757.466Zm-8.405 2.803-.656.401c-.027 0-.027.046 0 .065l.757.461a.107.107 0 0 0 .105 0l.657-.397c.026 0 .026-.046 0-.064l-.758-.462a.119.119 0 0 0-.087-.004h-.018Zm-7.183 6.676a.107.107 0 0 0 .105 0l.656-.397c.027 0 .027-.046 0-.064l-.757-.461a.098.098 0 0 0-.105 0l-.656.396c-.027 0-.027.046 0 .065l.757.461Zm-1.44-1.43-.657.402c-.031 0-.026.041 0 .06l.757.461a.125.125 0 0 0 .053.013.118.118 0 0 0 .052-.013l.657-.402c.026 0 .026-.041 0-.059l-.757-.462a.112.112 0 0 0-.088 0h-.017Zm2.504.849.656-.397c.026 0 .026-.046 0-.064l-.757-.461a.124.124 0 0 0-.053-.012.117.117 0 0 0-.052.012l-.657.401c-.03 0-.026.046 0 .064l.757.461a.102.102 0 0 0 .062.018.113.113 0 0 0 .061-.022h-.017Zm.958-.581.657-.401c.026 0 .026-.046 0-.065l-.762-.461a.098.098 0 0 0-.05-.013.102.102 0 0 0-.051.013l-.656.397c-.031 0-.026.046 0 .064l.757.461a.122.122 0 0 0 .123.005h-.018Zm.959-.586.652-.396c.031 0 .026-.046 0-.065l-.762-.461a.108.108 0 0 0-.1 0l-.657.401c-.031 0-.026.047 0 .065l.757.461a.109.109 0 0 0 .127-.005h-.017Zm-3.423-.267-.657.396c-.031 0-.026.047 0 .065l.757.461a.107.107 0 0 0 .105 0l.657-.396c.026 0 .026-.047 0-.065l-.762-.461a.097.097 0 0 0-.1 0Zm.958-.586-.656.402c-.031 0-.027.046 0 .064l.757.461a.107.107 0 0 0 .105 0l.652-.396c.031 0 .027-.046 0-.065l-.761-.461a.115.115 0 0 0-.059-.017.116.116 0 0 0-.06.017l.022-.005Zm3.831-2.328-.657.397c-.026 0-.026.046 0 .064l.762.461a.097.097 0 0 0 .1 0l.657-.396c.031 0 .026-.046 0-.065l-.757-.461a.105.105 0 0 0-.127.005l.022-.005Zm-.981.609-.652.401c-.031 0-.026.041 0 .06l.762.461a.111.111 0 0 0 .1 0l.657-.401c.03 0 .026-.046 0-.06l-.757-.461a.108.108 0 0 0-.11 0Zm1.917-1.167-.656.401c-.026 0-.026.047 0 .065l.757.461a.12.12 0 0 0 .105 0l.657-.396c.03 0 .026-.047 0-.065l-.758-.461a.116.116 0 0 0-.049-.026.118.118 0 0 0-.056-.002v.023Zm-3.834 2.333-.652.397c-.031 0-.027.046 0 .064l.761.461a.124.124 0 0 0 .053.012.117.117 0 0 0 .052-.012l.652-.401c.031 0 .027-.046 0-.064l-.761-.461a.101.101 0 0 0-.05-.024.113.113 0 0 0-.055.005v.023Zm.958-.585-.652.401c-.03 0-.026.046 0 .064l.762.461a.098.098 0 0 0 .105 0l.652-.396c.031 0 .026-.046 0-.065l-.757-.461a.13.13 0 0 0-.052-.027.114.114 0 0 0-.058 0v.023Zm-.696 4.117.653-.401c.03 0 .026-.046 0-.06l-.758-.461a.107.107 0 0 0-.105 0l-.652.396c-.031 0-.026.046 0 .065l.762.461a.114.114 0 0 0 .052-.001.106.106 0 0 0 .048-.022v.023Zm-5.625-.6-.757-.461a.107.107 0 0 0-.105 0l-.657.397c-.03 0-.026.046 0 .064l.758.461a.107.107 0 0 0 .105 0l.656-.396c.031-.042.031-.069 0-.088v.023Zm1.436.461-.757-.461a.107.107 0 0 0-.105 0l-1.011.614c-.027 0-.027.046 0 .064l.757.461a.107.107 0 0 0 .105 0l1.011-.613c.031-.06.031-.088 0-.106v.041Zm-2.6-1.332-.757-.461a.124.124 0 0 0-.053-.012.117.117 0 0 0-.052.012l-.81.461c-.026 0 0 .046 0 .06l.761.461a.1.1 0 0 0 .101 0l.81-.489c.031-.032.031-.032 0-.073v.041Zm.617-.378a.124.124 0 0 0 .053.012.117.117 0 0 0 .052-.012l.657-.401c.026 0 .026-.046 0-.065l-.757-.461a.107.107 0 0 0-.105 0l-.657.397c-.026 0-.026.046 0 .064l.757.466Zm3.318 2.218-.757-.461a.099.099 0 0 0-.105 0l-1.261.765c-.03 0-.026.046 0 .064l.758.461a.107.107 0 0 0 .105 0l1.26-.765c.031-.06.031-.087 0-.106v.042Zm.631.922-.762-.461a.111.111 0 0 0-.101 0l-.818.465c-.027 0-.027.046 0 .06l.757.461a.107.107 0 0 0 .105 0l.81-.488c.039-.033.035-.033.009-.065v.028Zm3.178-7.488a.117.117 0 0 0 .052.012.124.124 0 0 0 .053-.012l.656-.401c.027 0 .027-.046 0-.06l-.757-.461a.106.106 0 0 0-.052-.013.107.107 0 0 0-.053.013l-.657.397c-.026 0-.026.046 0 .064l.758.461Zm-1.918 1.167a.124.124 0 0 0 .053.012.117.117 0 0 0 .052-.012l.657-.401c.026 0 .026-.046 0-.065l-.757-.461a.107.107 0 0 0-.105 0l-.657.397c-.026 0-.026.046 0 .064l.757.466Zm-4.255 2.559a.113.113 0 0 0 .053.014.113.113 0 0 0 .053-.014l.656-.397c.026 0 .026-.046 0-.064l-.757-.461a.124.124 0 0 0-.053-.012.117.117 0 0 0-.052.012l-.657.401c-.026 0-.026.046 0 .064l.757.457Zm5.21-3.168c.016.01.034.014.052.014a.098.098 0 0 0 .053-.014l.656-.396c.027 0 .027-.046 0-.065l-.757-.461a.118.118 0 0 0-.053-.012.117.117 0 0 0-.052.012l-.657.401c-.026 0-.026.046 0 .065l.758.456Zm-1.918 1.167a.124.124 0 0 0 .053.012.117.117 0 0 0 .052-.012l.657-.397c.026 0 .026-.046 0-.064l-.757-.461a.124.124 0 0 0-.053-.012.117.117 0 0 0-.052.012l-.657.401c-.026 0-.026.046 0 .064l.757.457Zm.224 5.809a.124.124 0 0 0-.053-.012.117.117 0 0 0-.052.012l-1.007.618c-.031 0-.027.041 0 .06l.761.461a.125.125 0 0 0 .053.013.118.118 0 0 0 .052-.013l1.007-.614c.027 0 .027-.046 0-.064l-.761-.461Zm-1.598-4.975a.107.107 0 0 0 .105 0l.656-.396c.027 0 .027-.046 0-.065l-.757-.461a.107.107 0 0 0-.105 0l-.657.397c-.026 0-.026.046 0 .064l.758.461Zm-.959.581a.124.124 0 0 0 .053.012.117.117 0 0 0 .052-.012l.657-.401c.026 0 .026-.046 0-.06l-.757-.461a.113.113 0 0 0-.053-.014.113.113 0 0 0-.053.014l-.656.401c-.026 0-.026.042 0 .06l.757.461Zm20.312-6.404a.113.113 0 0 0-.053-.014.113.113 0 0 0-.053.014l-1.615.982c-.026 0-.026.042 0 .06l.762.461a.1.1 0 0 0 .101 0l1.615-.982c.03 0 .026-.046 0-.064l-.757-.457Zm-2.119 1.291a.107.107 0 0 0-.053-.013.106.106 0 0 0-.052.013l-.657.401c-.026 0-.026.042 0 .06l.762.461a.1.1 0 0 0 .101 0l.656-.401c.031 0 .026-.041 0-.06l-.757-.461Zm-12.984 7.561.657-.396c.031 0 .026-.046 0-.065l-.757-.461a.112.112 0 0 0-.105 0l-.653.397c-.03 0-.026.046 0 .064l.762.461a.1.1 0 0 0 .101 0h-.005Zm11.071-6.394a.107.107 0 0 0-.105 0l-.652.396c-.031 0-.027.046 0 .065l.761.461a.124.124 0 0 0 .053.012.117.117 0 0 0 .052-.012l.653-.401c.03 0 .026-.047 0-.065l-.762-.456Zm4.995-3.034a.124.124 0 0 0-.106 0l-.656.401c-.026 0-.026.046 0 .065l.757.461a.107.107 0 0 0 .105 0l.657-.397c.026 0 .026-.046 0-.064l-.757-.466Zm1.716-.125-1.839-1.12a.12.12 0 0 0-.105 0l-.657.397c-.03 0-.026.046 0 .064l1.839 1.121a.131.131 0 0 0 .105 0l.657-.402c.03-.018.03-.046 0-.064v.004Zm-10.292 5.335a.12.12 0 0 0-.105 0l-.805.493c-.027 0-.027.046 0 .065l.757.461a.118.118 0 0 0 .052.013.119.119 0 0 0 .053-.013l.805-.489c.031 0 .027-.046 0-.065l-.757-.465Zm2.421-1.476a.107.107 0 0 0-.053-.013.106.106 0 0 0-.052.013l-1.007.614c-.026 0-.026.046 0 .064l.757.461a.107.107 0 0 0 .105 0l1.007-.613c.031 0 .026-.046 0-.065l-.757-.461Zm-4.64 2.822a.124.124 0 0 0-.053-.012.117.117 0 0 0-.052.012l-5.398 3.283c-.026 0-.026.046 0 .064l.758.461a.107.107 0 0 0 .105 0l5.397-3.282c.031 0 .026-.047 0-.065l-.757-.461Zm-5.691 3.467a.107.107 0 0 0-.105 0l-.827.489c-.031 0-.027.046 0 .064l.757.461a.107.107 0 0 0 .105 0l.805-.488c.027 0 .027-.047 0-.065l-.735-.461Zm6.811-4.149a.098.098 0 0 0-.105 0l-.81.488c-.026 0-.026.046 0 .065l.758.461a.107.107 0 0 0 .105 0l.81-.489c.026 0 .026-.046 0-.064l-.758-.461Zm-7.918 4.817a.125.125 0 0 0-.053-.013.118.118 0 0 0-.052.013l-.81.494c-.027 0-.027.041 0 .06l.757.461a.107.107 0 0 0 .053.013.106.106 0 0 0 .052-.013l.81-.494c.026 0 .026-.041 0-.06l-.757-.461Zm10.138-6.168a.098.098 0 0 0-.053-.014.097.097 0 0 0-.052.014l-.81.488c-.026 0-.026.047 0 .065l.757.461a.124.124 0 0 0 .053.012.117.117 0 0 0 .052-.012l.81-.493c.026 0 .026-.046 0-.065l-.757-.456Zm3.427-2.084a.107.107 0 0 0-.105 0l-.652.396c-.031 0-.026.046 0 .065l.762.461a.096.096 0 0 0 .05.013.096.096 0 0 0 .05-.013l.657-.397c.031 0 .026-.046 0-.064l-.762-.461Zm2.101-1.605.657-.401c.026 0 .026-.046 0-.064l-.757-.461a.098.098 0 0 0-.053-.014.097.097 0 0 0-.052.014l-.657.396c-.026 0-.026.046 0 .065l.757.461a.14.14 0 0 0 .047.017.14.14 0 0 0 .05-.003l.008-.01Zm-4.285-.032.657-.396c.026 0 .026-.046 0-.065l-.758-.461a.107.107 0 0 0-.105 0l-.656.397c-.027 0-.027.046 0 .064l.757.461a.11.11 0 0 0 .047.017.102.102 0 0 0 .049-.008l.009-.009Zm-2.189 3.956 1.918-1.167c.026 0 .026-.041 0-.059l-.758-.462a.118.118 0 0 0-.052-.013.119.119 0 0 0-.053.013l-1.917 1.167c-.026 0-.026.046 0 .064l.757.461a.106.106 0 0 0 .056.02c.021 0 .04-.005.058-.015l-.009-.009Zm5.393-3.343a.124.124 0 0 0 .053.012.117.117 0 0 0 .052-.012l.657-.396c.026 0 .026-.046 0-.065l-.757-.461a.124.124 0 0 0-.053-.012.117.117 0 0 0-.052.012l-.657.401c-.026 0-.026.046 0 .065l.757.456Zm-.976-.659.652-.396c.031 0 .027-.047 0-.065l-.757-.461a.118.118 0 0 0-.053-.012.117.117 0 0 0-.052.012l-.652.401c-.031 0-.027.046 0 .065l.761.461a.108.108 0 0 0 .11.004l-.009-.009Zm-5.367 4.583.657-.401c.026 0 .026-.046 0-.065l-.757-.461a.107.107 0 0 0-.105 0l-.657.397c-.026 0-.026.046 0 .064l.757.461a.107.107 0 0 0 .052.014.119.119 0 0 0 .053-.009Zm4.233-2.642a.107.107 0 0 0 .105 0l.657-.396c.026 0 .026-.047 0-.065l-.757-.461a.107.107 0 0 0-.105 0l-.657.396c-.026 0-.026.047 0 .065l.757.461Zm-9.026 5.556.657-.402c.03 0 .026-.046 0-.064l-.758-.461a.107.107 0 0 0-.105 0l-.656.396c-.027 0-.027.046 0 .065l.757.461a.115.115 0 0 0 .051.021.1.1 0 0 0 .054-.003v-.013Zm.959-.586.656-.396c.027 0 .027-.047 0-.065l-.757-.461a.12.12 0 0 0-.105 0l-.657.401c-.026 0-.026.046 0 .065l.758.461c.015.01.033.017.051.018a.101.101 0 0 0 .054-.009v-.014Zm-1.918 1.166.657-.401c.031 0 .026-.041 0-.06l-.757-.461a.124.124 0 0 0-.053-.012.117.117 0 0 0-.052.012l-.657.401c-.026 0-.026.047 0 .06l.762.461c.014.01.031.017.049.019a.098.098 0 0 0 .051-.005v-.014Zm3.835-2.332.657-.397c.026 0 .026-.046 0-.064l-.758-.461a.098.098 0 0 0-.105 0l-.656.396c-.027 0-.027.046 0 .065l.757.461a.115.115 0 0 0 .051.021.1.1 0 0 0 .054-.008v-.013Zm-.959.585.657-.401c.026 0 .026-.046 0-.065l-.757-.461a.141.141 0 0 0-.053-.012.132.132 0 0 0-.052.012l-.657.397c-.026 0-.026.046 0 .064l.757.462a.123.123 0 0 0 .105.018v-.014Zm1.918-1.166.656-.401c.027 0 .027-.042 0-.06l-.757-.461a.107.107 0 0 0-.105 0l-.657.401c-.026 0-.026.046 0 .06l.758.461a.112.112 0 0 0 .105.014v-.014Zm4.377-8.622a.124.124 0 0 0 .053.012.117.117 0 0 0 .052-.012l.652-.401c.031 0 .027-.046 0-.064l-.205-.12a.1.1 0 0 0-.101 0l-.657.401c-.03 0-.026.041 0 .06l.206.124Zm-4.714 3.228a.106.106 0 0 0 .05.013.106.106 0 0 0 .05-.013l.657-.402c.031 0 .026-.046 0-.06l-.757-.461a.125.125 0 0 0-.053-.013.118.118 0 0 0-.052.013l-.657.402c-.026 0-.026.041 0 .059l.762.462Zm1.913-1.162a.117.117 0 0 0 .052.012.124.124 0 0 0 .053-.012l.656-.397c.026 0 .026-.046 0-.064l-.757-.461a.12.12 0 0 0-.105 0l-.657.401c-.026 0-.026.046 0 .064l.758.457Zm-3.087 1.876a.107.107 0 0 0 .105 0l.657-.396c.026 0 .026-.046 0-.065l-.757-.461a.124.124 0 0 0-.053-.012.117.117 0 0 0-.052.012l-.657.401c-.026 0-.026.046 0 .065l.757.456Zm2.128-1.295a.107.107 0 0 0 .105 0l.657-.397c.03 0 .026-.046 0-.064l-.758-.461a.107.107 0 0 0-.105 0l-.656.396c-.027 0-.027.046 0 .065l.757.461Zm-4.045 2.457a.107.107 0 0 0 .053.013.106.106 0 0 0 .052-.013l.657-.397c.026 0 .026-.046 0-.064l-.758-.461a.117.117 0 0 0-.052-.012.124.124 0 0 0-.053.012l-.656.401c-.026 0-.026.046 0 .06l.757.461Zm.959-.581a.117.117 0 0 0 .052.012.124.124 0 0 0 .053-.012l.656-.401c.027 0 .027-.046 0-.065l-.757-.461a.107.107 0 0 0-.105 0l-.657.397c-.026 0-.026.046 0 .064l.758.466Zm4.929-3.333a.107.107 0 0 0 .105 0l.656-.397c.027 0 .027-.046 0-.064l-.201-.125a.107.107 0 0 0-.105 0l-.657.397c-.026 0-.026.046 0 .064l.202.125Zm2.876-1.748a.107.107 0 0 0 .105 0l.652-.396c.031 0 .026-.046 0-.065l-.206-.124a.097.097 0 0 0-.1 0l-.657.396c-.031 0-.026.046 0 .065l.206.124Zm1.593.969a.113.113 0 0 0 .05.013.114.114 0 0 0 .051-.013l.656-.397c.031 0 .027-.046 0-.064l-.757-.461a.117.117 0 0 0-.052-.012.124.124 0 0 0-.053.012l-.657.401c-.026 0-.026.046 0 .064l.762.457Zm2.395 2.558.656-.396c.027 0 .027-.046 0-.065l-.757-.461a.12.12 0 0 0-.105 0l-.657.401c-.026 0-.026.046 0 .065l.758.461c.017.01.037.015.057.014.02 0 .04-.007.056-.019h-.008Zm-5.906-2.365a.113.113 0 0 0 .053.014.113.113 0 0 0 .053-.014l.656-.401c.026 0 .022-.041 0-.06l-.201-.124a.098.098 0 0 0-.053-.014.097.097 0 0 0-.052.014l-.657.396c-.031 0-.026.046 0 .065l.201.124Zm-7.805 5.072a.113.113 0 0 0 .053.014.113.113 0 0 0 .053-.014l.674-.401c.026 0 .026-.047 0-.065l-.758-.461a.107.107 0 0 0-.105 0l-.656.396c-.027 0-.027.047 0 .065l.739.466Z"/><path fill="#263238" d="m149.115 153.222 6.475-3.933a.737.737 0 0 1 .704 0l3.712 2.255a.222.222 0 0 1 .147.214.233.233 0 0 1-.04.132.218.218 0 0 1-.107.083l-6.513 3.946a.765.765 0 0 1-.705 0l-3.673-2.236a.21.21 0 0 1-.154-.068.236.236 0 0 1 0-.326.212.212 0 0 1 .154-.067Z"/><path fill="#455A64" d="M98.906 150.129H84.618c-.696 0-1.26.595-1.26 1.328v30.525c0 .734.564 1.328 1.26 1.328h14.288c.696 0 1.261-.594 1.261-1.328v-30.525c0-.733-.565-1.328-1.26-1.328Z"/><path fill="#FFCE67" d="M98.857 152.169H84.661c-.457 0-.827.391-.827.872v27.353c0 .481.37.872.827.872h14.196c.457 0 .828-.391.828-.872v-27.353c0-.481-.37-.872-.828-.872Z"/><path fill="#fff" d="m95.437 162.444-.066-.074a4.978 4.978 0 0 0-3.52-1.562 4.961 4.961 0 0 0-3.563 1.452l-.079.078-.039.041a5.467 5.467 0 0 0-1.394 2.738 5.636 5.636 0 0 0 .279 3.092 5.322 5.322 0 0 0 1.857 2.413c.83.594 1.81.917 2.814.927a4.91 4.91 0 0 0 2.832-.87 5.307 5.307 0 0 0 1.9-2.375 5.633 5.633 0 0 0 .335-3.086 5.475 5.475 0 0 0-1.343-2.765l-.013-.009Zm-2.876 8.916a4.402 4.402 0 0 1-.56.065h-.474a4.936 4.936 0 0 1-3.548-1.827 5.428 5.428 0 0 1-1.21-3.373v-.111a5.406 5.406 0 0 1 1.506-3.688l.079-.079a4.883 4.883 0 0 1 3.187-1.415h.472c.188.008.375.028.56.06a4.892 4.892 0 0 1 2.72 1.461l.078.083a5.418 5.418 0 0 1 1.4 3.592v.11a5.425 5.425 0 0 1-1.226 3.355 4.932 4.932 0 0 1-2.984 1.744v.023Z"/><path fill="#fff" d="M91.762 171.76a5.14 5.14 0 0 1-2.96-.947 5.563 5.563 0 0 1-1.964-2.52 5.892 5.892 0 0 1-.303-3.243 5.714 5.714 0 0 1 1.458-2.875l.044-.041.083-.088a5.182 5.182 0 0 1 3.721-1.516 5.202 5.202 0 0 1 3.677 1.631l.07.074a5.726 5.726 0 0 1 1.414 2.877 5.89 5.89 0 0 1-.33 3.22 5.562 5.562 0 0 1-1.965 2.493 5.136 5.136 0 0 1-2.945.935Zm0-10.631h-.223c-.18.007-.36.025-.539.055-.933.16-1.8.609-2.49 1.291l-.075.078a4.993 4.993 0 0 0-1.054 1.614 5.2 5.2 0 0 0-.382 1.918v.106a5.16 5.16 0 0 0 1.15 3.219 4.69 4.69 0 0 0 3.39 1.737 4.425 4.425 0 0 0 .976-.06 4.69 4.69 0 0 0 2.852-1.677 5.16 5.16 0 0 0 1.149-3.219v-.111a5.121 5.121 0 0 0-1.335-3.421l-.075-.078a4.616 4.616 0 0 0-3.13-1.439l-.214-.013Z"/><path fill="#fff" d="m95.523 162.334-.07-.074-.083-.087-.079.087-.078.079a4.943 4.943 0 0 1-.933.719l-.092.055c-.46.262-.959.442-1.475.535h-.105a4.458 4.458 0 0 1-1.655-.037l-.105-.023a4.663 4.663 0 0 1-1.44-.595l-.087-.055a5.164 5.164 0 0 1-.876-.724l-.074-.083-.079-.088-.088.083-.078.083-.088.088.083.088.07.073c.285.301.602.566.946.789l.096.06a4.91 4.91 0 0 0 1.541.631l.11.023a5.016 5.016 0 0 0 1.76.037h.104a4.872 4.872 0 0 0 1.58-.567l.097-.055a5.285 5.285 0 0 0 1.011-.784l.083-.083.083-.083-.079-.092ZM95.519 169.782l-.08-.078a5.464 5.464 0 0 0-1.015-.789l-.096-.055a4.98 4.98 0 0 0-1.576-.567h-.11a5.018 5.018 0 0 0-1.76.041l-.108.023a5.039 5.039 0 0 0-1.541.627l-.097.06c-.342.225-.66.489-.945.789l-.066.069-.083.092.087.088.08.078.087.088.079-.093.074-.078c.264-.277.558-.52.876-.724l.087-.06a4.748 4.748 0 0 1 1.44-.594l.105-.023c.306-.061.617-.092.928-.093.244 0 .486.019.727.056h.105a4.657 4.657 0 0 1 1.475.539l.092.051c.337.202.65.445.933.724l.078.078.08.083.082-.083.07-.074.08-.087-.088-.088Z"/><path fill="#fff" d="M93.69 162.296c-.508-1.06-1.195-1.646-1.93-1.646-.736 0-1.423.586-1.93 1.646a9.986 9.986 0 0 0-.771 3.852c0 1.327.262 2.639.77 3.852.508 1.061 1.195 1.642 1.93 1.642.736 0 1.423-.581 1.931-1.642a9.978 9.978 0 0 0 .77-3.852 9.986 9.986 0 0 0-.77-3.852Zm-1.93 8.986c-.635 0-1.235-.526-1.69-1.48a9.575 9.575 0 0 1-.722-3.654 9.57 9.57 0 0 1 .722-3.653c.438-.955 1.055-1.48 1.69-1.48.634 0 1.234.525 1.69 1.48a9.568 9.568 0 0 1 .721 3.653 9.573 9.573 0 0 1-.722 3.654c-.455.941-1.055 1.48-1.69 1.48Z"/><path fill="#fff" d="M96.808 165.961H86.713a.185.185 0 0 0-.114.067.205.205 0 0 0 0 .259c.03.036.07.06.114.067h10.095a.185.185 0 0 0 .114-.067.206.206 0 0 0 0-.259.185.185 0 0 0-.114-.067Z"/><path fill="#fff" d="M91.94 171.472V160.84a.199.199 0 0 0-.057-.128.181.181 0 0 0-.126-.052.181.181 0 0 0-.126.052.2.2 0 0 0-.058.128v10.632a.2.2 0 0 0 .059.128.181.181 0 0 0 .252.001.191.191 0 0 0 .057-.129Z"/><path fill="#263238" d="M90.681 150.658h2.469a.257.257 0 0 1 .184.075c.05.049.08.117.083.189a.276.276 0 0 1-.168.246.26.26 0 0 1-.099.017h-2.469a.26.26 0 0 1-.1-.017.27.27 0 0 1-.167-.246.284.284 0 0 1 .083-.189.257.257 0 0 1 .184-.075ZM94.915 150.658a.244.244 0 0 1 .231.162.276.276 0 0 1 .018.102.27.27 0 0 1-.073.186.244.244 0 0 1-.176.077.247.247 0 0 1-.176-.078.27.27 0 0 1-.001-.371.242.242 0 0 1 .177-.078ZM95.916 151.185c.138 0 .25-.118.25-.263a.257.257 0 0 0-.25-.264.257.257 0 0 0-.249.264c0 .145.112.263.25.263ZM87.915 151.185c.138 0 .25-.118.25-.263a.257.257 0 0 0-.25-.264.257.257 0 0 0-.249.264c0 .145.112.263.25.263ZM88.914 150.658c.066 0 .13.028.176.078a.27.27 0 0 1-.001.371.247.247 0 0 1-.175.078.244.244 0 0 1-.177-.077.27.27 0 0 1-.073-.186.266.266 0 0 1 .072-.188.245.245 0 0 1 .178-.076ZM37.962 156.053l-4.863-2.96a1.284 1.284 0 0 1-.516-.443 1.382 1.382 0 0 1-.232-.659v-.71l5.042-2.996a1.1 1.1 0 0 0 .343-.379 1.17 1.17 0 0 0 .143-.502v-6.311l8.488 5.163v6.312a1.17 1.17 0 0 1-.14.503c-.083.154-.2.285-.341.382l-4.29 2.6a3.827 3.827 0 0 1-1.817.461 3.826 3.826 0 0 1-1.817-.461Z"/><path fill="#000" d="M44.33 153.681v.71l1.553-.945c.142-.097.26-.228.344-.381.084-.154.133-.327.142-.504v-6.307l-1.62-.982-.105 1.318 1.138.687v4.933c-.009.177-.058.349-.142.502a1.1 1.1 0 0 1-.343.379l-.968.59Z" opacity=".3"/><path fill="#455A64" d="M45.795 152.213a1.18 1.18 0 0 1-.143.504 1.119 1.119 0 0 1-.343.382l-3.703 2.245a3.85 3.85 0 0 1-1.815.456c-.63 0-1.252-.156-1.814-.456l-4.877-2.96c-1.002-.609-1.002-1.595 0-2.204l3.708-2.25c.14-.096.258-.226.341-.379.084-.153.132-.325.14-.501v-4.933l8.506 5.168v4.928Z"/><path fill="#37474F" d="m35.821 148.53.99-.6c.14-.096.257-.226.34-.379.084-.153.132-.325.141-.501v-4.933l8.505 5.168v4.928c-.009.178-.058.35-.142.504a1.119 1.119 0 0 1-.343.382l-.98.585-8.51-5.154ZM32.35 151.279v.71c.021.238.102.465.233.66.132.194.31.348.516.447l4.864 2.955c.536.308 1.139.467 1.75.461v-.706a3.437 3.437 0 0 1-1.75-.461l-4.864-2.964a1.286 1.286 0 0 1-.516-.444 1.378 1.378 0 0 1-.232-.658Z"/><path fill="#455A64" d="M24.185 109.422v27.441c.012.221.073.436.177.629.105.192.251.355.427.478l33.22 20.161.057.027c.298.139.53-.032.53-.405v.539c.197.009.394-.037.569-.134.167-.122.305-.283.403-.471.098-.188.154-.398.162-.612v-27.436a1.465 1.465 0 0 0-.178-.627 1.378 1.378 0 0 0-.427-.475l-33.198-20.162a1.266 1.266 0 0 0-1.173-.023 1.317 1.317 0 0 0-.382.42 1.395 1.395 0 0 0-.187.65Z"/><path fill="#37474F" d="M24.185 109.42v27.441c.012.221.073.436.177.628.105.192.251.356.427.478l33.22 20.162.057.027c.298.139.53-.032.53-.405v-27.423a1.473 1.473 0 0 0-.177-.629 1.383 1.383 0 0 0-.427-.477L24.784 109.06c-.302-.184-.551-.064-.595.258a.967.967 0 0 0-.004.102Z"/><path fill="#263238" d="M58.614 157.771v-1.867l1.134-.692v1.867a1.438 1.438 0 0 1-.162.612c-.098.188-.236.35-.403.472a1.091 1.091 0 0 1-.57.134.769.769 0 0 1-.135 0h-.136l-.105-.028h-.035l-.1-.046c.28.092.512-.079.512-.452Z"/><path fill="#455A64" d="M24.185 134.999v1.872c.012.221.073.436.177.628.105.192.251.356.427.478l33.22 20.162.057.027c.298.139.53-.032.53-.405v-1.868l-34.411-20.894Z"/><path fill="#263238" d="M58.438 129.708c.109.189.17.405.176.627v25.578l1.138-.691v-25.584a1.343 1.343 0 0 0-.175-.627l-1.139.697Z"/><path fill="#FFCE67" d="M57.479 152.71v-21.982a.88.88 0 0 0-.106-.378.834.834 0 0 0-.257-.286L25.68 110.986c-.197-.12-.359-.023-.359.222v21.982a.88.88 0 0 0 .106.378.835.835 0 0 0 .258.286l31.434 19.073c.197.125.359.023.359-.217Z"/><path fill="#fff" d="M35.794 128.551a15.14 15.14 0 0 0 1.642 6.565c1.059 2.13 2.468 3.803 3.965 4.712 1.498.908 2.903.949 3.94.106 1.038-.844 1.642-2.467 1.642-4.569a15.142 15.142 0 0 0-1.624-6.579c0-.028-.031-.056-.044-.088l-.088-.17a11.274 11.274 0 0 0-3.808-4.445c-1.493-.922-2.898-.945-3.94-.11l-.074.059c-1.055.867-1.611 2.449-1.611 4.519Zm.118.152v-.166c0-2.033.6-3.532 1.537-4.325a2.973 2.973 0 0 1 1.542-.645 2.915 2.915 0 0 1 1.535.249c.211.081.417.177.617.286l.258.147.259.166c.213.142.419.296.617.461a12.264 12.264 0 0 1 2.872 3.73l.087.171a14.92 14.92 0 0 1 1.65 6.431v.166c-.026 3.776-2.018 5.712-4.609 4.721a5.108 5.108 0 0 1-.617-.286l-.258-.147-.259-.166c-.21-.143-.438-.3-.617-.461-2.609-2.163-4.583-6.519-4.614-10.332Z"/><path fill="#fff" d="M37.259 135.239a15.797 15.797 0 0 1-1.716-6.861c0-2.139.582-3.813 1.642-4.712l.074-.064c1.107-.871 2.574-.825 4.132.12 1.493.922 2.916 2.563 4.006 4.661l.092.175.043.092a15.816 15.816 0 0 1 1.716 6.865c0 2.199-.608 3.891-1.716 4.772-1.107.881-2.578.844-4.14-.106-1.564-.95-3.034-2.697-4.133-4.942Zm3.896-10.789a5.148 5.148 0 0 0-.587-.272 2.776 2.776 0 0 0-1.465-.241 2.82 2.82 0 0 0-1.389.55l-.079.065c-.932.793-1.453 2.259-1.466 4.126v.161c.026 3.606 1.878 7.746 4.4 9.853.188.165.385.319.59.461.158.109.322.209.49.299.192.105.39.195.591.272 2.522.964 4.378-.922 4.378-4.499a.523.523 0 0 0 0-.083 14.155 14.155 0 0 0-1.576-6.21 1.714 1.714 0 0 0-.083-.162 11.625 11.625 0 0 0-2.736-3.559 14.256 14.256 0 0 0-.591-.461l-.245-.161-.232-.139Z"/><path fill="#fff" d="m37.27 123.857.074-.06.092-.065.092.176c.026.06.057.115.083.166.303.586.645 1.148 1.024 1.682l.101.143c.473.656 1.018 1.25 1.624 1.771l.114.097c.253.208.519.397.797.567.325.189.668.34 1.024.451l.114.037a3.052 3.052 0 0 0 1.58.088l.1-.023c.344-.087.669-.243.955-.461l.083-.069.088-.074.096.18.087.175.092.18-.087.078-.079.065a2.814 2.814 0 0 1-1.147.548 3.306 3.306 0 0 1-1.694-.106l-.118-.041a5.493 5.493 0 0 1-1.086-.517 7.468 7.468 0 0 1-.849-.599l-.118-.101a10.936 10.936 0 0 1-1.751-1.886l-.11-.148a15.176 15.176 0 0 1-1.111-1.844c-.031-.055-.057-.115-.088-.175l-.092-.184.11-.051ZM37.272 134.777l.088-.064a2.728 2.728 0 0 1 1.112-.461h.109a3.52 3.52 0 0 1 1.751.226l.118.046c.294.117.578.26.85.429a7.33 7.33 0 0 1 1.08.802c.044.032.085.067.123.106a11.59 11.59 0 0 1 1.694 1.95l.105.157c.384.57.732 1.166 1.042 1.784l.079.157.088.184-.092.069-.088.065-.096.069-.088-.189c-.026-.046-.052-.102-.083-.166a14.662 14.662 0 0 0-.954-1.641l-.1-.143a10.765 10.765 0 0 0-1.586-1.844l-.109-.102a7.513 7.513 0 0 0-1.024-.761 5.198 5.198 0 0 0-.801-.401l-.11-.046a3.336 3.336 0 0 0-1.624-.198h-.1a2.65 2.65 0 0 0-1.025.433l-.083.065-.092.069-.092-.18v-.027l-.074-.153-.088-.184.07-.051Z"/><path fill="#fff" d="M38.429 130.167c-.005 2.086.28 4.161.845 6.16.564 1.895 1.313 3.227 2.127 3.688.814.461 1.563.097 2.123-1.12.56-1.217.845-3.002.845-5.127a22.25 22.25 0 0 0-.845-6.159c-.56-1.895-1.313-3.228-2.123-3.689-.81-.461-1.563-.097-2.127 1.116-.565 1.212-.845 2.987-.845 5.131Zm1.116 5.994a21.302 21.302 0 0 1-.797-5.837c0-2.019.285-3.753.797-4.869.512-1.115 1.16-1.466 1.856-1.041.696.424 1.353 1.595 1.856 3.301.533 1.9.798 3.873.788 5.855 0 2.019-.28 3.748-.792 4.868-.512 1.121-1.16 1.466-1.856 1.042-.696-.424-1.353-1.595-1.852-3.319Z"/><path fill="#fff" d="m35.855 128.324 11.092 6.745a.538.538 0 0 1 .188.401c0 .143-.083.231-.188.171l-11.092-6.75a.535.535 0 0 1-.193-.396c0-.171.088-.245.193-.171Z"/><path fill="#fff" d="M41.2 139.637v-15.578c0-.148.1-.208.206-.143a.542.542 0 0 1 .201.387v15.583c0 .143-.1.203-.201.143a.531.531 0 0 1-.206-.392Z"/><path fill="#FFCE67" d="M13.588 154.396a.347.347 0 0 1 .058-.171c.034-.05.08-.09.134-.114l7.801-4.74a.982.982 0 0 1 .464-.118c.161 0 .32.041.464.118l23.8 14.495a.342.342 0 0 1 .193.281v.862a.35.35 0 0 1-.058.172.322.322 0 0 1-.135.114l-7.796 4.74a.981.981 0 0 1-.928 0L13.78 155.563a.321.321 0 0 1-.133-.113.346.346 0 0 1-.06-.168c-.003-.107 0-.784 0-.886Z"/><path fill="#000" d="M13.588 154.396a.347.347 0 0 1 .058-.171c.034-.05.08-.09.134-.114l7.801-4.74a.982.982 0 0 1 .464-.118c.161 0 .32.041.464.118l23.8 14.495a.342.342 0 0 1 .193.281v.862a.35.35 0 0 1-.058.172.322.322 0 0 1-.135.114l-7.796 4.74a.981.981 0 0 1-.928 0L13.78 155.563a.321.321 0 0 1-.133-.113.346.346 0 0 1-.06-.168c-.003-.107 0-.784 0-.886Z" opacity=".5"/><path fill="#FFCE67" d="m38.516 169.154 7.796-4.721a.284.284 0 0 0 .14-.109.311.311 0 0 0 0-.349.29.29 0 0 0-.14-.109l-23.8-14.495a.982.982 0 0 0-.464-.118.982.982 0 0 0-.464.118l-7.8 4.74a.283.283 0 0 0-.14.109.311.311 0 0 0 0 .348.291.291 0 0 0 .14.11l23.804 14.472a.993.993 0 0 0 .928.004Z"/><path fill="#000" d="m38.516 169.154 7.796-4.721a.284.284 0 0 0 .14-.109.311.311 0 0 0 0-.349.29.29 0 0 0-.14-.109l-23.8-14.495a.982.982 0 0 0-.464-.118.982.982 0 0 0-.464.118l-7.8 4.74a.283.283 0 0 0-.14.109.311.311 0 0 0 0 .348.291.291 0 0 0 .14.11l23.804 14.472a.993.993 0 0 0 .928.004Z" opacity=".3"/><path fill="#FFCE67" d="M38.077 169.268v.88a.913.913 0 0 0 .438-.115l7.792-4.74a.318.318 0 0 0 .133-.112.35.35 0 0 0 .06-.169v-.866a.367.367 0 0 1-.06.17.332.332 0 0 1-.133.115l-7.792 4.721a.914.914 0 0 1-.438.116Z"/><path fill="#000" d="M38.077 169.268v.88a.913.913 0 0 0 .438-.115l7.792-4.74a.318.318 0 0 0 .133-.112.35.35 0 0 0 .06-.169v-.866a.367.367 0 0 1-.06.17.332.332 0 0 1-.133.115l-7.792 4.721a.914.914 0 0 1-.438.116Z" opacity=".7"/><path fill="#37474F" d="m36.346 160.491-.875.539s-.027.028-.027.032l.793.503.932-.586-.823-.488ZM37.415 161.14l-.876.544a.035.035 0 0 0 0 .033l.784.461.932-.581-.84-.457ZM34.544 159.396l-.876.544s-.021 0-.021.032l1.313.807.932-.581-1.348-.802ZM33.475 158.758l-.876.544a.04.04 0 0 0-.003.016c0 .006 0 .011.003.016l.788.498.898-.613-.81-.461ZM19.484 155.773l.788.498.933-.581-.797-.493-.876.544a.042.042 0 0 0-.015-.001.037.037 0 0 0-.026.018.047.047 0 0 0-.007.015ZM32.409 158.094l-.876.539s-.026.028-.026.037l.792.498.933-.581-.823-.493ZM35.945 161.717l-.806-.493-.875.544v.032l.792.498.889-.581ZM28.682 159.9l.792.498.928-.581-.801-.493-.876.544s-.043.018-.043.032ZM35.292 162.445l.788.498.932-.581-.81-.493-.875.544a.034.034 0 0 0-.023.009.037.037 0 0 0-.012.023ZM27.614 159.251l.788.498.933-.581-.81-.494-.876.54s-.035.027-.035.037ZM26.54 158.601l.787.498.932-.581-.81-.493-.875.544a.034.034 0 0 0-.023.009.037.037 0 0 0-.012.023ZM30.824 161.202l1.69 1.047 2.14-1.319-.923-.557-1.13.691a.132.132 0 0 1-.078 0 .118.118 0 0 1-.075 0l-.713-.433-.876.539s-.035.023-.035.032ZM30.265 156.794l-.875.544v.032l.788.498.932-.58-.845-.494ZM29.754 160.55l.788.498.932-.581-.81-.493-.875.539c-.035.014-.035.028-.035.037ZM19.968 153.142l.788.498.963-.581-.81-.493-.875.54a.039.039 0 0 0-.045-.007.041.041 0 0 0-.017.019.041.041 0 0 0-.004.024ZM21.723 151.594l-.876.544a.04.04 0 0 0-.003.016c0 .006.001.011.003.016l.784.461.932-.581-.84-.456ZM19.06 154.046v.023l.784.461.932-.585-.805-.471-.875.544a.037.037 0 0 0-.035.028ZM17.344 154.474l.792.498.928-.581-.81-.493-.875.539a.05.05 0 0 0-.023.013.055.055 0 0 0-.012.024ZM22.78 152.243l-.875.544v.033l.793.498.928-.581-.845-.494ZM18.411 155.124l.792.498.928-.581-.805-.494-.875.544a.045.045 0 0 0-.04.033ZM25.99 154.193l-.875.544v.032l.788.498.933-.581-.845-.493ZM27.06 154.842l-.876.54a.048.048 0 0 0 0 .037l.788.497.933-.58-.845-.494ZM28.132 155.495l-.875.539s-.027.028-.027.037l.793.498.928-.581-.819-.493ZM24.92 153.543l-.875.54a.037.037 0 0 0-.005.018c0 .007.002.013.005.019l.74.488.932-.581-.797-.484ZM29.198 156.145l-.876.544a.041.041 0 0 0 0 .032l.788.498.933-.581-.845-.493ZM23.852 152.894l-.875.544v.032l.792.498.928-.581-.845-.493ZM31.352 157.444l-.876.544a.048.048 0 0 0 0 .032l.793.498.928-.581-.845-.493ZM31.593 159.073l-.875.54a.034.034 0 0 0-.018.012.046.046 0 0 0-.009.02v.037l.788.461.928-.581-.814-.489ZM39.776 162.583l-.875.539c-.022 0-.022.028-.022.032l.788.498.932-.581-.823-.488ZM40.848 163.23l-.876.539a.05.05 0 0 0 0 .033l.788.498.933-.581-.845-.489ZM30.521 158.421l-.875.539a.055.055 0 0 0 0 .033l.792.498.928-.581-.845-.489ZM41.918 163.88l-.875.539c-.022 0-.026.028-.026.033l.792.497.928-.58-.819-.489Z"/><path fill="#37474F" d="M31.752 160.292v.023l.784.461.932-.581-.801-.475-.876.54s-.039.027-.039.032ZM38.572 163.313l-.876.54c-.026 0-.026.028-.026.037l.788.498.932-.581-.818-.494ZM40.71 164.613l-.875.539s-.026.028-.026.037l.779.484.928-.58-.806-.48ZM38.727 164.539l.788.498.932-.581-.81-.493-.875.544s-.035.019-.035.032ZM39.666 166.539a.062.062 0 0 0 0 .032v.023l.788.461 2.14-1.314-.81-.493-2.118 1.291ZM29.45 157.771l-.876.539a.049.049 0 0 0-.003.017c0 .005.001.011.003.016l.784.461.932-.581-.84-.452ZM37.52 165.272l.783.461.928-.521-.81-.493-.875.544a.023.023 0 0 0-.014.002.03.03 0 0 0-.012.007ZM38.587 165.923l.792.498.928-.581-.81-.494-.875.54c-.03.014-.035.028-.035.037ZM24.106 154.515l-.876.54s-.026.027-.026.037l.792.498.933-.581-.823-.494ZM21.968 153.225l-.875.54c-.022 0-.027.027-.027.037l.784.461.932-.581-.814-.457ZM21.197 155.35l.793.498.928-.581-.806-.493-.875.544a.022.022 0 0 0-.014.001.03.03 0 0 0-.012.006.038.038 0 0 0-.013.025ZM20.129 154.697l.792.503.928-.591-.805-.461-.876.544a.03.03 0 0 0-.02-.005.034.034 0 0 0-.02.01ZM22.27 155.993l.783.461.932-.581-.81-.494-.875.54-.03.074ZM28.384 157.117l-.875.544v.055l.788.461.932-.581-.845-.479ZM24.405 157.301l.793.498.928-.581-.806-.493-.875.54s-.04.027-.04.036ZM23.337 156.652l.788.498.932-.581-.81-.494-.875.544s-.035.019-.035.033ZM26.244 155.817l-.876.544s-.026.023-.026.032l.792.498.928-.581-.818-.493ZM23.035 153.866l-.875.539s-.026.028-.026.037l.792.498.928-.581-.819-.493ZM27.314 156.455l-.876.544a.034.034 0 0 0-.017.012.046.046 0 0 0-.009.02l.792.498.928-.581-.818-.493ZM25.175 155.165l-.875.539a.051.051 0 0 0-.004.019c0 .006.001.013.004.018l.783.461.933-.581-.841-.456ZM25.47 157.951l.793.498.932-.581-.81-.493-.875.539a.046.046 0 0 0-.04.037ZM38.482 161.79l-.875.544s-.022 0-.022.032l.788.498.932-.581-.823-.493ZM21.453 151.435l-.81-.493-.876.544a.037.037 0 0 0-.003.016c0 .006 0 .011.003.016l.788.461.898-.544ZM20.64 152.408l-1.204-.733-.875.544v.032l1.181.72.898-.563ZM23.087 150.643l-.976-.595-.876.544a.033.033 0 0 0 0 .032l.96.6.892-.581ZM17.995 153.741l-.976-.594-.875.539s-.027.028-.027.037l.959.599.92-.581ZM19.712 153.313l-1.493-.899-.875.539a.048.048 0 0 0 0 .032l1.462.89.906-.562ZM22.904 151.663l.788.498.933-.581-.81-.493-.876.539a.034.034 0 0 0-.024.011.037.037 0 0 0-.01.026ZM15.805 153.885l-.875.54s-.027 0-.027.032l1.187.738.919-.586-1.204-.724ZM23.973 152.303l.788.498.932-.581-.81-.493-.875.544a.038.038 0 0 0-.022.011.043.043 0 0 0-.013.021ZM28.726 155.192v.023l.788.461.928-.581-.814-.489-.876.54a.04.04 0 0 0-.02.018.05.05 0 0 0-.006.028ZM29.785 155.845l.788.498.933-.581-.81-.489-.876.54s-.035.027-.035.032ZM27.647 154.542v.023l.788.461.928-.581-.81-.488-.876.539a.037.037 0 0 0-.023.017.042.042 0 0 0-.007.029ZM26.099 153.612l.788.461.932-.581-.81-.493-.875.544a.035.035 0 0 0-.029-.003.038.038 0 0 0-.021.019.04.04 0 0 0-.003.03c.003.01.01.018.018.023ZM25.04 152.963l.791.498.928-.581-.805-.494-.876.544s-.039.019-.039.033ZM37.082 166.816l-.876.544a.041.041 0 0 0 0 .032l.784.461.932-.581-.84-.456ZM31.513 163.429l-.875.54s-.027.027-.027.036l.788.498.933-.58-.819-.494ZM34.944 165.516l-.876.54a.04.04 0 0 0-.017.015.053.053 0 0 0-.009.021l1.856 1.13.932-.581-1.886-1.125ZM32.58 164.079l-.875.539s-.026.028-.026.037l.792.498.928-.581-.819-.493ZM33.65 164.753l-.876.54c-.026 0-.026.027-.026.036l.788.498.924-.613-.81-.461ZM30.855 156.494v.023l.783.461.933-.581-.81-.489-.875.54a.04.04 0 0 0-.024.016.045.045 0 0 0-.007.03ZM40.168 167.228l-.806-.494-2.105 1.277a.066.066 0 0 0 0 .033l.788.461 2.123-1.277ZM18.514 155.531l-.875.54s-.027.028-.027.032l.959.604.932-.581-.989-.595ZM19.745 156.28l-.875.539s-.026.028-.026.037l6.076 3.688.932-.585-6.107-3.679ZM20.554 156.423l.788.498.932-.581-.81-.493-.875.544a.039.039 0 0 0-.022.011.043.043 0 0 0-.013.021ZM17.273 154.774l-.876.539s-.026.023-.026.032l.959.6.932-.581-.99-.59ZM26.098 160.141l-.876.54a.048.048 0 0 0 0 .037l.955.581.932-.581-1.011-.577ZM28.586 161.647l-.875.544a.039.039 0 0 0 0 .033l.958.58.928-.58-1.01-.577ZM27.348 160.897l-.876.544a.04.04 0 0 0-.003.016c0 .006.001.011.003.016l.959.6.928-.581-1.011-.595ZM29.824 162.406l-.876.539s-.026.028-.026.032V163l1.182.715.932-.581-1.212-.728ZM36.365 163.102l.784.461.932-.581-.81-.493-.875.544s-.03.055-.03.069ZM32.875 163.923l.788.461.932-.581-.805-.433-.876.54a.039.039 0 0 0-.021.001.06.06 0 0 0-.018.012ZM29.105 161.624l2.189 1.356.932-.581-2.189-1.337-.875.544a.03.03 0 0 0-.006-.011.034.034 0 0 0-.009-.008.022.022 0 0 0-.01-.003.023.023 0 0 0-.012.001.023.023 0 0 0-.01.006.029.029 0 0 0-.008.009.036.036 0 0 0-.003.012v.012ZM35.24 165.354v.023l.789.461.932-.585-.792-.47-.876.544a.03.03 0 0 0-.017-.01.032.032 0 0 0-.019.003.031.031 0 0 0-.016.034ZM36.313 166.006l.783.461.933-.585-.81-.489-.876.539s-.03.07-.03.074ZM28.038 160.974l.788.498.932-.581-.81-.489-.875.54a.044.044 0 0 0-.022.01.046.046 0 0 0-.013.022ZM36.454 164.623l.788.461.928-.581-.805-.493-.876.539c-.035.051-.035.065-.035.074ZM22.689 157.725l.783.498.928-.581-.805-.488-.876.539a.04.04 0 0 0-.02.012.053.053 0 0 0-.01.02ZM26.973 160.326l.792.498.932-.581-.81-.488-.875.544s-.04.013-.04.027ZM21.621 157.073l.788.461.928-.581-.805-.488-.876.539a.05.05 0 0 0-.02.007.05.05 0 0 0-.016.017.048.048 0 0 0 0 .045ZM23.76 158.375l.788.498.932-.576-.81-.489-.875.544a.029.029 0 0 0-.022.005.03.03 0 0 0-.013.018ZM24.828 159.025v.023l.788.461.92-.567-.81-.489-.876.54a.036.036 0 0 0-.015.013.039.039 0 0 0-.007.019ZM25.895 159.682l.788.461.928-.581-.806-.489-.875.54a.043.043 0 0 0-.036.024.049.049 0 0 0 0 .045ZM33.455 158.082l.788.498.932-.581-.81-.494-.875.54a.034.034 0 0 0-.025.011.038.038 0 0 0-.01.026ZM37.378 166.66l.783.461.937-.526-.81-.493-.875.544s-.035 0-.035.014ZM35.593 159.381l.792.498.928-.581-.805-.493-.876.539s-.04.028-.04.037ZM37.97 160.823l.788.498.932-.581-.81-.493-.875.544a.034.034 0 0 0-.024.009.038.038 0 0 0-.011.023ZM36.901 160.174l.788.498.933-.581-.81-.494-.876.544-.013.001a.048.048 0 0 0-.011.007.034.034 0 0 0-.008.011.033.033 0 0 0-.003.014ZM32.382 157.432l.792.498.933-.581-.81-.493-.876.539s-.04.028-.04.037ZM34.525 158.729l.784.461.932-.581-.81-.493-.875.539s-.03.065-.03.074ZM39.04 161.473l.792.498.928-.581-.81-.493-.875.544c-.03.009-.035.023-.035.032ZM43.85 164.024l.792.497.486-.318-.81-.488-.438.276s-.03.019-.03.033ZM42.07 165.103l.793.498.932-.581-.81-.489-.875.54c-.035.014-.04.028-.04.032ZM40.646 162.072l.783.461.486-.318-.81-.489-.437.272c-.005-.002-.01-.002-.014-.002a.035.035 0 0 0-.014.005.03.03 0 0 0-.011.009.038.038 0 0 0-.009.028c0 .005.002.01.004.015a.038.038 0 0 0 .01.011.035.035 0 0 0 .012.008ZM41.71 162.724l.784.461.486-.318-.805-.489-.438.277a.043.043 0 0 0-.018.01.053.053 0 0 0-.012.017.052.052 0 0 0-.003.022c0 .007.003.014.007.02ZM42.78 163.369l.793.498.486-.318-.81-.489-.438.277-.03.032ZM175.027 164.684c-.054.334-.035.676.057 1.001.162.395.427.732.766.972.247.241.462.516.639.816.175.329.4.624.666.876a1.277 1.277 0 0 0 1.076.083c.281-.124.377-.239.359-.714-.017-.475-1.383-.637-1.383-.637l-2.18-2.397Z"/><path fill="#455A64" d="M178.436 166.305c.114.046.144.281.162.747 0 .35.153.867-.306 1.088a1.067 1.067 0 0 1-.648.057 1.11 1.11 0 0 1-.569-.329 15.808 15.808 0 0 0-.972-1.282c-.385-.461-.792-.585-.963-1.466-.11-.562-.022-.793.337-.954.495-.226 1.274.503 1.659.618.385.115 1.16 1.475 1.3 1.521Z"/><path fill="#FAFAFA" d="m177.122 164.783-.065-.028a1.269 1.269 0 0 0-.628.224c-.188.13-.341.309-.445.519-.065.152.14.272.259.152.108-.205.262-.379.449-.507s.401-.206.623-.226a.537.537 0 0 0-.193-.134ZM177.428 165.046c-.21.025-.411.106-.585.234a1.317 1.317 0 0 0-.408.499c-.066.157.135.277.258.157.089-.178.213-.333.364-.454.151-.122.326-.208.511-.252-.013-.064-.087-.129-.14-.184ZM175.345 165.769s.04-1.042 1.379-1.189l.075.046a1.186 1.186 0 0 0-.657-.535.875.875 0 0 0-.565-.019.921.921 0 0 0-.468.332c-.232.319.004 1.162.236 1.365Z"/><path fill="#FFA8A7" d="M178.434 165.555v.895a1.264 1.264 0 0 1-1.37.037c-.026-.056-.096-.922-.096-.922l1.466-.01Z"/><path fill="#37474F" d="M168.02 171.374c-.079.396.057.604.543.894a2.56 2.56 0 0 0 2.04.152c.796-.244 1.177-.613 1.51-.701.333-.087 1.151-.092 1.479-.193.329-.102.32-.277.32-.692l-5.892.54Z"/><path fill="#455A64" d="M173.59 168.831s.153.498.236.922c.104.384.12.788.048 1.18-.114.263-.565.429-1.256.425a3.94 3.94 0 0 0-1.633.599 2.388 2.388 0 0 1-1.554.226c-.622-.074-1.261-.461-1.361-.724-.101-.263-.123-.461 1.313-1.125 0 0 1.69-.655 2.394-1.475l1.813-.028Z"/><path fill="#FAFAFA" d="M170.788 172.068s-.127-1.318-1.143-1.692c-.919-.341-1.72.374-1.628.996.057.42 1.178 1.374 2.771.696ZM169.9 170.128c.26.025.504.138.696.322.289.263.298.434.298.434a.15.15 0 0 0 .085.052.137.137 0 0 0 .097-.012.16.16 0 0 0 .071-.072.17.17 0 0 0 .014-.102 1.019 1.019 0 0 0-.318-.561.93.93 0 0 0-.579-.237.334.334 0 0 0-.364.176ZM170.485 169.823c.26.004.51.109.701.295.293.258.293.461.293.461a.161.161 0 0 0 .084.045.16.16 0 0 0 .094-.014.17.17 0 0 0 .089-.165 1.018 1.018 0 0 0-.318-.563.923.923 0 0 0-.579-.239.324.324 0 0 0-.21.026.348.348 0 0 0-.154.154ZM171.067 169.484c.26-.016.517.071.718.244.307.235.324.461.324.461.07.102.285.028.254-.156a1.005 1.005 0 0 0-.355-.54.914.914 0 0 0-.595-.193.316.316 0 0 0-.2.034.347.347 0 0 0-.146.15Z"/><path fill="#FFA8A7" d="M173.591 168.213v.664c0 .24-.271.604-.976.581-.495 0-.836-.161-.818-.59v-.618l1.794-.037ZM180.035 142.377c.149-5.841-.293-7.243-1.773-8.299l-.569 3.384s.67 3.988.6 5.321a19.357 19.357 0 0 1-.438 3.568.72.72 0 0 1-.293.401c-.306.23-.58.503-.814.812-.219.244-.408.309-.381.382a.37.37 0 0 0 .202.184.355.355 0 0 0 .266-.008c.189-.078.369-.18.534-.305a3.61 3.61 0 0 1-.547.992c-.525.677-.552 1.097.517 1.106.665 0 1.199-.424 1.698-1.973a12.99 12.99 0 0 0 .468-1.738c.252-1.263.429-2.541.53-3.827Z"/><path fill="#263238" d="M179.799 144.467a12.697 12.697 0 0 1-.288 1.725 2.425 2.425 0 0 1-1.541-.323l.197-1.609 1.632.207Z"/><path fill="#37474F" d="M177.747 133.753c.797-.088 1.751 1.107 2.11 2.504.359 1.396.438 6.219-.057 8.211a2.216 2.216 0 0 1-1.633-.208 22.474 22.474 0 0 0-.136-3.402c-.205-1.111-.7-3.749-.591-4.15.11-.401.307-2.955.307-2.955Z"/><path fill="#FFCE67" d="M179.308 158.348c-.066-1.734-.241-1.771-.508-3.131.136-1.65.263-3.043.315-4.836.062-1.932 0-4.26 0-6.316-2.009-.143-7.039-1.895-7.669 1.433-.184 2.688.07 8.009.101 11.674.03 3.665 0 7.271.214 11.203a2.16 2.16 0 0 0 1.948-.152 70.513 70.513 0 0 0 1.103-6.985c.197-1.844-.087-1.996 0-3.457.088-1.462.219-3.057.329-4.491.109-1.434.245-2.628.306-4.02a.907.907 0 0 0 .162-.088c.105 1.701.145 3.168.254 4.91.109 1.743.245 3.052.438 5.044.162 1.844.232 4.274.56 6.496.477.24 1.178.461 1.633.055.398-2.01.884-5.606.814-7.339Z"/><path fill="#000" d="M179.312 158.348c-.066-1.734-.241-1.771-.508-3.131.136-1.65.263-3.043.315-4.836.062-1.932 0-4.26 0-6.316-2.009-.143-7.039-1.895-7.669 1.433-.184 2.688.07 8.009.101 11.674.03 3.665 0 7.271.214 11.203a2.158 2.158 0 0 0 1.948-.152 70.513 70.513 0 0 0 1.103-6.985c.197-1.844-.087-1.996 0-3.457.088-1.462.219-3.057.329-4.491.109-1.434.245-2.628.306-4.02a.907.907 0 0 0 .162-.088c.105 1.701.144 3.168.254 4.91.109 1.743.245 3.052.438 5.044.162 1.844.232 4.274.56 6.496.477.24 1.177.461 1.633.055.398-2.01.884-5.606.814-7.339Z" opacity=".3"/><path fill="#000" d="M175.443 149.271a14.972 14.972 0 0 0 2.798-1.844 8.117 8.117 0 0 1-2.005 1.936c0 .461-.377 4.127-.381 4.058-.101-.821-.127-2.905-.254-4.15-.053-.023-.105.005-.158 0Z" opacity=".2"/><path fill="#455A64" d="M178.873 134.981c-.228-.724-1.095-1.507-1.962-1.337-1.29.231-2.562.565-3.804 1.001-.796.299-1.523 1.023-1.589 3.78 0 0-.267 6.422-.271 7.663a9.178 9.178 0 0 0 5.222.544c2.39-.549 2.679-1.595 2.679-1.595s.031-4.611-.039-6.612c-.061-1.696-.083-2.95-.236-3.444Z"/><path fill="#FFA8A7" d="m173.856 132.699.259 2.573 2.188.005-.253-2.914-2.194.336Z"/><path fill="#37474F" d="M173.338 134.562c.157-.351.28-.816.586-.876.535.09 1.081.068 1.607-.065.268-.09.503-.263.674-.498a.705.705 0 0 1 .415-.046.73.73 0 0 1 .373.198c.32.355 1.274.95 1.523 2.001.25 1.051.438 2.992-.696 3.366-1.689.548-2.889-.286-3.291-1.757-.443-1.613-.32-2.033-1.191-2.323Z"/><path fill="#263238" d="M174.661 134.696c.276.396.569 2.13 1.226 2.808.656.677 2.075.511 2.333-.176a1.13 1.13 0 0 1-.348.702 1.023 1.023 0 0 1-.703.28 1.973 1.973 0 0 1-1.361-.421 2.173 2.173 0 0 1-.775-1.252c-.249-1.028-.214-1.476-.372-1.941Z"/><path fill="#F28F8F" d="M172.096 129.71s-.556.922-.486 1.019c.07.097.49.161.49.161l-.004-1.18Z"/><path fill="#FFA8A7" d="M173.619 127.131c-1.155.286-1.479.83-1.545 2.766-.07 2.029.14 2.665.399 2.932.175.18 1.125.189 1.597.037.596-.184 1.939-.724 2.552-1.761.723-1.217.876-2.845.07-3.495-1.129-.903-2.591-.595-3.073-.479Z"/><path fill="#263238" d="M171.939 128.034c.238.127.505.181.77.157-.052 0-.035.23-.026.258a.43.43 0 0 0 .14.24.433.433 0 0 0 .245.14.415.415 0 0 0 .276-.044c-.158.134-.039.549 0 .715.039.166.092.415.306.507 0 0 .167-.756.771-.673.604.083.705.89.333 1.383-.373.493-.727.323-.727.323a3.45 3.45 0 0 0 .503 1.669 2.61 2.61 0 0 0 1.908-.279 2.833 2.833 0 0 0 1.257-1.538c.692-1.729.709-3.268-.337-3.688a1.553 1.553 0 0 0-.108-.908 1.456 1.456 0 0 0-.592-.669 1.331 1.331 0 0 0-.712-.209c-.25 0-.496.073-.711.209-.031 0-.179-.29-.193-.313a1.01 1.01 0 0 0-.389-.328 1.474 1.474 0 0 0-1.427.162c-.11.081-.202.186-.272.306-.07.121-.116.255-.135.395a1.81 1.81 0 0 0-1.173.29 1.145 1.145 0 0 0-.346.665c-.039.257.007.521.131.746.123.208.299.376.508.484Z"/><path fill="#263238" d="m177.398 127.456.683-.461a.42.42 0 0 0-.255-.187.383.383 0 0 0-.305.058.444.444 0 0 0-.123.59Z"/><path fill="#FFA8A7" d="M163.495 139.416c.372.175 4.776 3.605 5.463 3.204.687-.401 4.224-4.735 4.224-4.735a3.123 3.123 0 0 0 .454-1.625c0-.577-.158-1.141-.454-1.625a2.295 2.295 0 0 0-1.137.286c-.351.193-.65.475-.872.82-.63.922-2.889 4.03-2.889 4.03-.631-.332-2.885-1.236-3.393-1.54a1.643 1.643 0 0 1-.394-.258c-.249-.259-.21-.886-.205-1.227v-.461c0-.143.056-.673-.276-.521a.49.49 0 0 0-.158.143.757.757 0 0 0-.118.24c-.066.203-.044.429-.101.641a.202.202 0 0 1-.044.083.158.158 0 0 1-.105.032c-.481 0-.941-.733-1.164-1.111a1.028 1.028 0 0 0-.368-.461.624.624 0 0 0-.428.014.668.668 0 0 0-.329.29 1.698 1.698 0 0 0-.241 1.13c.045.535.27 1.035.635 1.41.56.527 1.203.947 1.9 1.241Z"/><path fill="#263238" d="m166.695 139.066-1.103-.484a1.883 1.883 0 0 0-.652.721 2.005 2.005 0 0 0-.224.966l1.068.747.911-1.95Z"/><path fill="#37474F" d="M173.339 134.562a2.533 2.533 0 0 0-1.703.484c-.63.581-3.401 4.569-3.401 4.569l-1.541-.549a2.26 2.26 0 0 0-.689.854 2.374 2.374 0 0 0-.217 1.097s1.086.848 1.677 1.212a3.39 3.39 0 0 0 1.44.581c.258 0 4.154-4.49 4.154-4.49a3.715 3.715 0 0 0 .705-2.094 4.231 4.231 0 0 0-.425-1.664Z"/><path fill="#FFA8A7" d="M9.67 135.243c-.967.199-1.41.549-1.961 1.964-.552 1.416-1.751 4.832-1.751 5.805 0 .747 2.443 4.214 2.333 4.149-.035 0 1.388-1.752 1.388-1.752l-1.475-2.457 1.168-2.397.298-5.312Z"/><path fill="#455A64" d="M11.827 165.581a2.29 2.29 0 0 1-.057.996c-.161.393-.427.73-.766.968a3.863 3.863 0 0 0-.63.811c-.177.326-.401.62-.666.872a1.255 1.255 0 0 1-1.068.078c-.28-.12-.376-.235-.359-.705.018-.471 1.38-.623 1.38-.623l2.166-2.397Z"/><path fill="#FFCE67" d="M8.456 167.194c-.119.046-.15.277-.167.738 0 .35-.153.862.307 1.083.204.086.427.106.642.059.215-.048.412-.161.566-.326.305-.444.632-.87.98-1.277.385-.438.784-.586.955-1.452.113-.563.026-.793-.333-.955-.49-.221-1.265.503-1.65.613-.386.111-1.187 1.471-1.3 1.517Z"/><path fill="#000" d="M8.456 167.194c-.119.046-.15.277-.167.738 0 .35-.153.862.307 1.083.204.086.427.106.642.059.215-.048.412-.161.566-.326.305-.444.632-.87.98-1.277.385-.438.784-.586.955-1.452.113-.563.026-.793-.333-.955-.49-.221-1.265.503-1.65.613-.386.111-1.187 1.471-1.3 1.517Z" opacity=".2"/><path fill="#FAFAFA" d="m9.745 165.673.066-.023c.223.012.44.087.626.217a1.3 1.3 0 0 1 .437.521c.066.152-.135.267-.254.152a1.4 1.4 0 0 0-.445-.506 1.306 1.306 0 0 0-.618-.227.563.563 0 0 1 .188-.134ZM9.43 165.94c.21.026.41.106.583.234s.312.3.406.499c.066.152-.14.268-.258.152a1.37 1.37 0 0 0-.365-.451 1.28 1.28 0 0 0-.51-.249c.039-.065.091-.129.144-.185ZM11.506 166.657s-.04-1.033-1.37-1.181l-.074.046a1.15 1.15 0 0 1 .652-.53.86.86 0 0 1 .56-.022.907.907 0 0 1 .464.331c.232.314-.004 1.157-.232 1.356Z"/><path fill="#455A64" d="M18.007 172.736c.075.392-.06.594-.538.89a2.558 2.558 0 0 1-2.027.147c-.792-.24-1.173-.609-1.501-.692-.329-.082-1.147-.096-1.471-.198-.324-.101-.32-.272-.32-.687l5.857.54Z"/><path fill="#FFCE67" d="M12.466 170.21s-.153.493-.236.922a2.585 2.585 0 0 0-.048 1.176c.114.258.56.424 1.247.419a3.882 3.882 0 0 1 1.62.595c.48.249 1.023.328 1.55.226.612-.074 1.251-.461 1.348-.719.096-.259.127-.461-1.313-1.116 0 0-1.677-.655-2.377-1.471l-1.79-.032Z"/><path fill="#000" d="M12.465 170.21s-.153.493-.236.922a2.585 2.585 0 0 0-.048 1.176c.114.258.56.424 1.247.419a3.881 3.881 0 0 1 1.62.595c.48.249 1.023.328 1.55.226.612-.074 1.252-.461 1.348-.719.096-.259.127-.461-1.314-1.116 0 0-1.676-.655-2.376-1.471l-1.79-.032Z" opacity=".2"/><path fill="#FAFAFA" d="M15.251 173.428s.123-1.309 1.134-1.682c.91-.342 1.707.373 1.62.991-.062.419-1.174 1.364-2.754.691ZM16.13 171.496a1.147 1.147 0 0 0-.688.323c-.293.258-.302.433-.302.433a.146.146 0 0 1-.178.034.157.157 0 0 1-.068-.069.168.168 0 0 1-.017-.098c.043-.216.152-.411.31-.555a.932.932 0 0 1 .566-.243.319.319 0 0 1 .217.019.343.343 0 0 1 .16.156ZM15.549 171.203a1.007 1.007 0 0 0-.696.291c-.29.258-.294.461-.294.461a.152.152 0 0 1-.082.047.152.152 0 0 1-.161-.08.167.167 0 0 1-.02-.096c.043-.216.152-.411.31-.555a.932.932 0 0 1 .566-.243.319.319 0 0 1 .217.019.343.343 0 0 1 .16.156ZM14.974 170.862a.998.998 0 0 0-.714.239c-.306.235-.32.461-.32.461a.146.146 0 0 1-.179.022.16.16 0 0 1-.064-.074.17.17 0 0 1-.01-.1.995.995 0 0 1 .351-.535c.17-.132.378-.2.59-.193a.322.322 0 0 1 .2.032.35.35 0 0 1 .146.148Z"/><path fill="#FFA8A7" d="M8.457 166.445v.889a1.26 1.26 0 0 0 1.361.037c.022-.055.092-.922.092-.922l-1.453-.004ZM12.469 169.595v.659c0 .244.267.604.967.576.49 0 .832-.156.814-.585v-.613l-1.781-.037Z"/><path fill="#455A64" d="M7.547 158.908a7.737 7.737 0 0 1 .412-2.693s-.263-2.305-.438-5.145c-.245-4.149.64-5.5 1.449-7.437 0 0 6.374-.461 6.465 2.582.123 4.094.044 11.443-.048 12.771-.092 1.328-.096.101-.402 2.766-.241 2.126-.74 7.838-.74 7.838a1.812 1.812 0 0 1-1.782-.037s-.56-6.976-.499-8.492c.006-.786.063-1.57.17-2.347 0 0-.805-6.067-.91-7.04 0 0-.113 1.743-.21 3.07-.096 1.328-.083 2.398-.35 5.141-.21 2.153-.713 6.8-.713 6.8a1.616 1.616 0 0 1-1.502-.115s-.941-6.146-.902-7.662Z"/><path fill="#37474F" d="m11.224 151.675-.132-1.466a5.067 5.067 0 0 1-2.1-.839 2.84 2.84 0 0 0 1.658 1.088l.276 1.429.07 2.845.228-3.057Z"/><path fill="#FFA8A7" d="m13.198 134.277-.324 2.803-2.338-.226.267-3.112 2.395.535Z"/><path fill="#FFA8A7" d="M8.251 136.625c.258-.738.85-1.512 1.751-1.337l.661.129c.022.646 1.178.982 2.329.59.346.102.665.212.95.318.827.309 1.545 1.964 1.563 4.376.017 2.411-.39 6.247-.39 6.247s-1.497 2.217-4.631 1.143c-2.285-.784-2.67-1.461-2.67-1.461s.796-2.001 1.352-3.647c-1.247-3.49-1.296-5.279-.915-6.358Z"/><path fill="#FFCE67" d="M8.25 136.625c.258-.738.85-1.512 1.751-1.337l.661.129c.022.646 1.177.982 2.329.59.346.102.665.212.95.318.827.309 1.545 1.964 1.562 4.376.018 2.411.097 9.617.097 9.617s-.666-.484-1.156-2.734a3.9 3.9 0 0 1-.5 1.545c-.272.47-.638.872-1.074 1.176a3.465 3.465 0 0 1-1.446.587 3.402 3.402 0 0 1-1.546-.113c-2.285-.779-2.363-1.821-2.508-2.974.114-.922.924-3.075 1.808-4.836-1.26-3.476-1.309-5.265-.928-6.344Z"/><path fill="#263238" d="M14.938 130.715a2.26 2.26 0 0 0-.179-2.084c-.784-1.3-2.298-1.521-4.093-1.014a3.18 3.18 0 0 0-1.581 1.146 3.454 3.454 0 0 0-.665 1.897c-.087 1.383 3.586 2.411 3.502 3.361l3.016-3.306Z"/><path fill="#F28F8F" d="M15.02 131.239s.5.844.438.922a1.18 1.18 0 0 1-.402.171l-.035-1.093Z"/><path fill="#263238" d="M14.92 131.718a.59.59 0 0 1-.341-.109.64.64 0 0 1-.226-.29.674.674 0 0 1 .133-.703.59.59 0 0 1 .668-.14.623.623 0 0 1 .275.238.669.669 0 0 1-.076.815.593.593 0 0 1-.433.189Zm0-1.199a.508.508 0 0 0-.295.095.546.546 0 0 0-.195.251.585.585 0 0 0 .117.608.504.504 0 0 0 .579.118.538.538 0 0 0 .236-.207.583.583 0 0 0-.068-.704.524.524 0 0 0-.375-.161Z"/><path fill="#FFA8A7" d="M13.502 128.576c.494.29 1.357.82 1.527 2.766.171 1.946-.262 2.702-.53 2.955-.179.175-1.085.212-1.558.046a4.98 4.98 0 0 1-2.425-1.968c-.674-1.241-.779-2.873.053-3.486a2.959 2.959 0 0 1 1.428-.552 2.92 2.92 0 0 1 1.505.239Z"/><path fill="#F28F8F" d="m13.27 134.02-.088.407c.41.079.832.06 1.234-.056a2.02 2.02 0 0 1-.438-.055 2.856 2.856 0 0 1-.709-.296Z"/><path fill="#263238" d="M13.473 130.949a1.9 1.9 0 0 0 .82-.626c.215-.284.352-.623.397-.983.184-1.281-1.313-1.844-1.313-1.844l.096 3.453Z"/><path fill="#263238" d="M13.645 128.665s.394 1.844-.162 2.992c0 0-.293-.724-.876-.535a.8.8 0 0 0-.334.266.878.878 0 0 0-.1.844.831.831 0 0 0 .264.343.577.577 0 0 0 .766 0 4.19 4.19 0 0 1-.876 1.475s-1.54.95-3.064-.844c-1.37-1.632-.976-4.536.985-5.145a3.445 3.445 0 0 1 1.771-.15 3.538 3.538 0 0 1 1.626.754Z"/><path fill="#FFA8A7" d="M19.864 140.775c.337-.405.394-1.309.85-1.931.455-.623.367-1.245.652-.969.284.277.074 1.296.074 1.296.257.489.448 1.014.57 1.558.043.526-1.279 1.844-1.279 1.844l-.867-1.798Z"/><path fill="#FFA8A7" d="M21.367 139.077s.538.789 2.954-.239c.666-.286.215 1.226-.604 1.844-.818.618-1.702.76-2.464 1.3 0-.074.114-2.905.114-2.905ZM13.738 136.24c1.041.198 1.567.313 2.145 1.752.682 1.706 2.11 4.896 2.11 4.896l1.873-2.111s.271-.401.78.461c.507.862.28 1.125.28 1.125s-2.19 3.07-2.575 3.457c-.385.388-1.054.088-1.483-.525-.43-.613-2.719-4.482-2.719-4.482s-1.388-3.029-.411-4.573Z"/><path fill="#263238" d="M8.6 129.711c-.437 1.12-.8 5.851-.034 7.377.766 1.526 2.937 2.54 4.333 2.01.876-.323 2.014-1.088 1.314-2.19a3.744 3.744 0 0 0-.67-.743 1.81 1.81 0 0 1-.477-.733c-.31-.714.11-2.793.136-2.863.026-.069-.228.89-1.817.411-.727-.199-2.784-3.269-2.784-3.269Z"/></svg>