<svg xmlns="http://www.w3.org/2000/svg" width="62" height="60" fill="none"><path fill="#BA68C8" d="M30.685 59.765a31.122 31.122 0 0 1-16.966-5.005c-5.023-3.265-8.938-7.907-11.25-13.339a28.996 28.996 0 0 1-1.74-17.176c1.177-5.767 4.085-11.064 8.356-15.222 4.27-4.158 9.711-6.989 15.634-8.135a31.3 31.3 0 0 1 17.643 1.694c5.579 2.251 10.347 6.063 13.7 10.953a29.168 29.168 0 0 1 5.141 16.518c-.013 7.876-3.232 15.427-8.953 20.996-5.72 5.57-13.475 8.704-21.565 8.716Zm0-58.156A29.783 29.783 0 0 0 14.45 6.397C9.644 9.521 5.898 13.963 3.685 19.16a27.747 27.747 0 0 0-1.667 16.435c1.125 5.518 3.907 10.587 7.992 14.566 4.086 3.98 9.291 6.69 14.959 7.788a29.952 29.952 0 0 0 16.881-1.617c5.34-2.152 9.903-5.798 13.114-10.476a27.913 27.913 0 0 0 4.924-15.803c-.006-7.54-3.085-14.77-8.56-20.102-5.475-5.333-12.899-8.333-20.643-8.342Z"/><mask id="a" fill="#fff"><path d="m54.625 26.567-3.73-.189c-.061-.61-.51-1.13-1.128-1.284a10.345 10.345 0 0 0-2.67-.305c-.81.022-1.468.643-1.5 1.414-.02.419-.036.838-.053 1.257l-4.643.03a35.131 35.131 0 0 0 1.862-10.926 1.769 1.769 0 0 0-1.425-1.76c-1.752-.337-3.606-.755-5.286-1.526-1.585-.728-3.138-1.908-4.154-3.156a1.695 1.695 0 0 0-1.314-.626c-.51 0-.988.228-1.315.627-1.016 1.247-2.569 2.427-4.153 3.155-1.68.771-3.534 1.19-5.289 1.527a1.767 1.767 0 0 0-1.422 1.759c.034 3.719.665 7.389 1.86 10.921l-4.55-.028a419.26 419.26 0 0 0-.063-1.514c-.038-.769-.697-1.387-1.5-1.409-.86-.02-1.76.08-2.67.306-.62.148-1.072.669-1.133 1.28l-3.73.189c-.845.042-1.501.739-1.496 1.585l.068 10.039a1.568 1.568 0 0 0 1.768 1.546c1.18-.15 2.37-.225 3.544-.229.123.7.746 1.226 1.497 1.226h.011c.918 0 1.832-.076 2.877-.239.77-.118 1.325-.77 1.292-1.518-.014-.275-.024-.55-.035-.826l.95-.032c.515.525 1.048 1.038 1.565 1.536a66.062 66.062 0 0 1 1.713 1.69.4.4 0 0 0 .235.118 87.508 87.508 0 0 0 8.103.653c.944 0 1.78-.517 2.23-1.29a2.58 2.58 0 0 0 2.228 1.29h.077c.26-.008.555-.08.851-.172-.313.593-.357 1.468-.076 2.09.347.782 1.195 1.137 1.985 1.137.145 0 .289-.011.427-.035.876-.15 1.628-.677 2.233-1.1 1.061-.743 3.511-3.123 5.132-4.698.558-.542 1.015-.986 1.273-1.225h.04c-.014.375-.03.75-.047 1.124-.033.744.52 1.394 1.287 1.513 1.046.162 1.96.239 2.877.242.756 0 1.382-.527 1.508-1.226 1.176.003 2.364.079 3.546.229a1.572 1.572 0 0 0 1.768-1.55l.067-10.039a1.572 1.572 0 0 0-1.495-1.581h.003ZM27.56 22.375a29.189 29.189 0 0 1 1.408 1.663.397.397 0 0 0 .588.045c.458-.434.902-.871 1.336-1.3l.218-.214c1.566-1.55 3.045-3.015 5.08-4.336a.59.59 0 0 1 .822.179.589.589 0 0 1-.174.824c-1.926 1.249-3.367 2.675-4.892 4.184a93.526 93.526 0 0 1-1.68 1.632 1.457 1.457 0 0 1-1.003.397c-.036 0-.071-.003-.127-.007a1.452 1.452 0 0 1-1.031-.567 25.898 25.898 0 0 0-1.426-1.697.594.594 0 0 1 .442-.996c.162 0 .323.065.44.193h-.001ZM14.767 39.45c-1.004.157-1.88.23-2.757.23-.384-.016-.718-.286-.737-.643l-.013-.21a142.554 142.554 0 0 1-.126-12.586.683.683 0 0 1 .537-.63 9.292 9.292 0 0 1 2.46-.283c.39.01.709.297.727.661.027.624.055 1.252.079 1.877v.001l.156 3.828c.077 1.943.155 3.885.242 5.828.015.41.031.822.051 1.23.016.34-.25.64-.618.696Zm15.725-.1a1.789 1.789 0 0 1-1.78 1.712l-.053-.001c-2.432-.077-5.2-.3-7.812-.628-.537-.553-1.095-1.09-1.636-1.61a67.762 67.762 0 0 1-1.667-1.644.38.38 0 0 0-.3-.12l-1.132.038c-.08-1.812-.153-3.622-.226-5.433l-.138-3.413 12.964.081c.814.003 1.48.62 1.547 1.433.096 1.17.168 2.31.215 3.434h-.002c-.052 1.157-.722 3.36-1.008 4.253a1.15 1.15 0 0 1-.908.785c-.74.11-1.26.138-1.592.087-.77-.117-1.237-.52-1.78-1.534a14.605 14.605 0 0 0-.203-.367c-.312-.549-.58-1.023-.412-1.484l.193-.517c.308-.214.607-.432.907-.65a13.515 13.515 0 0 0 1.734 2.296.397.397 0 0 0 .562.016.399.399 0 0 0 .017-.563 12.695 12.695 0 0 1-1.666-2.216c.296-.218.615-.462.997-.761a.397.397 0 1 0-.49-.626c-.505.394-.896.69-1.274.96a46 46 0 0 1-2.772 1.913c-.275.175-.56.355-.854.421-.557.13-1.136-.129-1.75-.4-.433-.193-.88-.392-1.364-.479a.398.398 0 1 0-.141.783c.389.07.775.241 1.182.422.561.25 1.138.506 1.76.506.159 0 .322-.017.489-.056.428-.095.788-.324 1.106-.526.178-.114.35-.233.526-.349-.046.627.269 1.194.558 1.704.066.115.13.23.192.347.556 1.038 1.17 1.766 2.363 1.948.145.022.309.033.497.033.354 0 .79-.04 1.336-.121a1.925 1.925 0 0 0 1.546-1.33c.094-.295.205-.655.32-1.045a75.426 75.426 0 0 1-.05 2.702v-.001Zm14.427-2.291a.398.398 0 0 0-.265.1c-.234.208-.752.712-1.408 1.35-1.604 1.557-4.026 3.91-5.035 4.616-.568.397-1.21.848-1.912.968-.57.097-1.307-.093-1.55-.642-.2-.443-.136-1.182.13-1.518.195-.243.392-.507.603-.805.49-.69.953-1.429 1.402-2.144.476-.757.968-1.54 1.483-2.253.356-.49.459-1.11.281-1.699-.16-.518-.33-1.03-.656-1.597a.397.397 0 1 0-.689.397c.206.357.339.689.455 1.029l-1.797.413a.186.186 0 0 1-.185-.055.2.2 0 0 1-.048-.195c.332-1.204.491-2.435.475-3.66a.398.398 0 0 0-.397-.391H35.8a.398.398 0 0 0-.392.403 12.321 12.321 0 0 1-.447 3.438.993.993 0 0 0 1.176 1.236l1.792-.412a1.117 1.117 0 0 1-.207.627c-.53.733-1.03 1.528-1.512 2.296-.42.67-.856 1.358-1.307 2.002-.128.043-.263.09-.407.144-.44.161-.941.344-1.272.353-.975.044-1.794-.737-1.83-1.71a76.721 76.721 0 0 1-.056-2.804V36.46c0-2.192.094-4.382.286-6.695a1.57 1.57 0 0 1 1.547-1.433l12.339-.077c-.064 1.478-.124 2.954-.184 4.431-.059 1.457-.118 2.914-.18 4.372h-.228Zm5.064 2.026-.012.207c-.02.356-.352.647-.739.647a18.051 18.051 0 0 1-2.757-.234c-.365-.057-.63-.354-.614-.69.022-.468.04-.935.058-1.403l.006-.138c.069-1.586.133-3.171.197-4.755.065-1.615.13-3.23.2-4.847v-.003c.02-.544.044-1.087.068-1.632.016-.356.334-.643.728-.653a9.472 9.472 0 0 1 2.459.283.696.696 0 0 1 .534.656c.003.078.007.156.007.248.137 4.059.09 8.203-.136 12.313Z"/></mask><path stroke="#455A64" stroke-width="3" d="m54.625 26.567-3.73-.189c-.061-.61-.51-1.13-1.128-1.284a10.345 10.345 0 0 0-2.67-.305c-.81.022-1.468.643-1.5 1.414-.02.419-.036.838-.053 1.257l-4.643.03a35.131 35.131 0 0 0 1.862-10.926 1.769 1.769 0 0 0-1.425-1.76c-1.752-.337-3.606-.755-5.286-1.526-1.585-.728-3.138-1.908-4.154-3.156a1.695 1.695 0 0 0-1.314-.626c-.51 0-.988.228-1.315.627-1.016 1.247-2.569 2.427-4.153 3.155-1.68.771-3.534 1.19-5.289 1.527a1.767 1.767 0 0 0-1.422 1.759c.034 3.719.665 7.389 1.86 10.921l-4.55-.028a419.26 419.26 0 0 0-.063-1.514c-.038-.769-.697-1.387-1.5-1.409-.86-.02-1.76.08-2.67.306-.62.148-1.072.669-1.133 1.28l-3.73.189c-.845.042-1.501.739-1.496 1.585l.068 10.039a1.568 1.568 0 0 0 1.768 1.546c1.18-.15 2.37-.225 3.544-.229.123.7.746 1.226 1.497 1.226h.011c.918 0 1.832-.076 2.877-.239.77-.118 1.325-.77 1.292-1.518-.014-.275-.024-.55-.035-.826l.95-.032c.515.525 1.048 1.038 1.565 1.536a66.062 66.062 0 0 1 1.713 1.69.4.4 0 0 0 .235.118 87.508 87.508 0 0 0 8.103.653c.944 0 1.78-.517 2.23-1.29a2.58 2.58 0 0 0 2.228 1.29h.077c.26-.008.555-.08.851-.172-.313.593-.357 1.468-.076 2.09.347.782 1.195 1.137 1.985 1.137.145 0 .289-.011.427-.035.876-.15 1.628-.677 2.233-1.1 1.061-.743 3.511-3.123 5.132-4.698.558-.542 1.015-.986 1.273-1.225h.04c-.014.375-.03.75-.047 1.124-.033.744.52 1.394 1.287 1.513 1.046.162 1.96.239 2.877.242.756 0 1.382-.527 1.508-1.226 1.176.003 2.364.079 3.546.229a1.572 1.572 0 0 0 1.768-1.55l.067-10.039a1.572 1.572 0 0 0-1.495-1.581h.003ZM27.56 22.375a29.189 29.189 0 0 1 1.408 1.663.397.397 0 0 0 .588.045c.458-.434.902-.871 1.336-1.3l.218-.214c1.566-1.55 3.045-3.015 5.08-4.336a.59.59 0 0 1 .822.179.589.589 0 0 1-.174.824c-1.926 1.249-3.367 2.675-4.892 4.184a93.526 93.526 0 0 1-1.68 1.632 1.457 1.457 0 0 1-1.003.397c-.036 0-.071-.003-.127-.007a1.452 1.452 0 0 1-1.031-.567 25.898 25.898 0 0 0-1.426-1.697.594.594 0 0 1 .442-.996c.162 0 .323.065.44.193h-.001ZM14.767 39.45c-1.004.157-1.88.23-2.757.23-.384-.016-.718-.286-.737-.643l-.013-.21a142.554 142.554 0 0 1-.126-12.586.683.683 0 0 1 .537-.63 9.292 9.292 0 0 1 2.46-.283c.39.01.709.297.727.661.027.624.055 1.252.079 1.877v.001l.156 3.828c.077 1.943.155 3.885.242 5.828.015.41.031.822.051 1.23.016.34-.25.64-.618.696Zm15.725-.1a1.789 1.789 0 0 1-1.78 1.712l-.053-.001c-2.432-.077-5.2-.3-7.812-.628-.537-.553-1.095-1.09-1.636-1.61a67.762 67.762 0 0 1-1.667-1.644.38.38 0 0 0-.3-.12l-1.132.038c-.08-1.812-.153-3.622-.226-5.433l-.138-3.413 12.964.081c.814.003 1.48.62 1.547 1.433.096 1.17.168 2.31.215 3.434h-.002c-.052 1.157-.722 3.36-1.008 4.253a1.15 1.15 0 0 1-.908.785c-.74.11-1.26.138-1.592.087-.77-.117-1.237-.52-1.78-1.534a14.605 14.605 0 0 0-.203-.367c-.312-.549-.58-1.023-.412-1.484l.193-.517c.308-.214.607-.432.907-.65a13.515 13.515 0 0 0 1.734 2.296.397.397 0 0 0 .562.016.399.399 0 0 0 .017-.563 12.695 12.695 0 0 1-1.666-2.216c.296-.218.615-.462.997-.761a.397.397 0 1 0-.49-.626c-.505.394-.896.69-1.274.96a46 46 0 0 1-2.772 1.913c-.275.175-.56.355-.854.421-.557.13-1.136-.129-1.75-.4-.433-.193-.88-.392-1.364-.479a.398.398 0 1 0-.141.783c.389.07.775.241 1.182.422.561.25 1.138.506 1.76.506.159 0 .322-.017.489-.056.428-.095.788-.324 1.106-.526.178-.114.35-.233.526-.349-.046.627.269 1.194.558 1.704.066.115.13.23.192.347.556 1.038 1.17 1.766 2.363 1.948.145.022.309.033.497.033.354 0 .79-.04 1.336-.121a1.925 1.925 0 0 0 1.546-1.33c.094-.295.205-.655.32-1.045a75.426 75.426 0 0 1-.05 2.702v-.001Zm14.427-2.291a.398.398 0 0 0-.265.1c-.234.208-.752.712-1.408 1.35-1.604 1.557-4.026 3.91-5.035 4.616-.568.397-1.21.848-1.912.968-.57.097-1.307-.093-1.55-.642-.2-.443-.136-1.182.13-1.518.195-.243.392-.507.603-.805.49-.69.953-1.429 1.402-2.144.476-.757.968-1.54 1.483-2.253.356-.49.459-1.11.281-1.699-.16-.518-.33-1.03-.656-1.597a.397.397 0 1 0-.689.397c.206.357.339.689.455 1.029l-1.797.413a.186.186 0 0 1-.185-.055.2.2 0 0 1-.048-.195c.332-1.204.491-2.435.475-3.66a.398.398 0 0 0-.397-.391H35.8a.398.398 0 0 0-.392.403 12.321 12.321 0 0 1-.447 3.438.993.993 0 0 0 1.176 1.236l1.792-.412a1.117 1.117 0 0 1-.207.627c-.53.733-1.03 1.528-1.512 2.296-.42.67-.856 1.358-1.307 2.002-.128.043-.263.09-.407.144-.44.161-.941.344-1.272.353-.975.044-1.794-.737-1.83-1.71a76.721 76.721 0 0 1-.056-2.804V36.46c0-2.192.094-4.382.286-6.695a1.57 1.57 0 0 1 1.547-1.433l12.339-.077c-.064 1.478-.124 2.954-.184 4.431-.059 1.457-.118 2.914-.18 4.372h-.228Zm5.064 2.026-.012.207c-.02.356-.352.647-.739.647a18.051 18.051 0 0 1-2.757-.234c-.365-.057-.63-.354-.614-.69.022-.468.04-.935.058-1.403l.006-.138c.069-1.586.133-3.171.197-4.755.065-1.615.13-3.23.2-4.847v-.003c.02-.544.044-1.087.068-1.632.016-.356.334-.643.728-.653a9.472 9.472 0 0 1 2.459.283.696.696 0 0 1 .534.656c.003.078.007.156.007.248.137 4.059.09 8.203-.136 12.313Z" mask="url(#a)"/></svg>