<svg xmlns="http://www.w3.org/2000/svg" width="80" height="81" fill="none"><path fill="#fff" d="M40.017 79.227c21.612 0 39.131-17.52 39.131-39.13 0-21.612-17.52-39.132-39.13-39.132C18.405.965.886 18.485.886 40.096s17.52 39.13 39.13 39.13Z"/><path fill="#BA68C8" d="M40.016 80.097a40 40 0 1 1 39.984-40 40.047 40.047 0 0 1-39.984 40Zm0-78.262a38.277 38.277 0 1 0 38.261 38.262A38.308 38.308 0 0 0 40.016 1.835Z"/><path fill="#455A64" d="M48.671 51.24a20.023 20.023 0 1 1 14.156-5.867 19.9 19.9 0 0 1-14.156 5.867Zm0-38.588a18.626 18.626 0 1 0 13.116 5.449 18.472 18.472 0 0 0-13.116-5.449Z"/><path fill="#455A64" d="M48.671 46.304a15.087 15.087 0 1 1 .012-30.175 15.087 15.087 0 0 1-.012 30.175Zm0-28.73a13.659 13.659 0 1 0 9.655 4.004 13.58 13.58 0 0 0-9.655-4.005ZM19.879 63.859a3.867 3.867 0 0 1-2.748-1.149 3.912 3.912 0 0 1 0-5.494l11.812-11.797a.714.714 0 0 1 1.01 0l4.485 4.486a.73.73 0 0 1 0 1.009L22.626 62.71a3.82 3.82 0 0 1-2.747 1.149ZM29.44 46.94 18.202 58.271a2.437 2.437 0 0 0 0 3.462 2.499 2.499 0 0 0 3.462 0l11.3-11.3-3.524-3.493Z"/><path fill="#455A64" d="M31.735 48.958a.714.714 0 0 1-.512-1.211l3.306-3.446a.713.713 0 1 1 1.009 1.009l-3.244 3.368a.684.684 0 0 1-.56.28Z"/></svg>