<svg xmlns="http://www.w3.org/2000/svg" width="62" height="60" fill="none"><path fill="#BA68C8" d="M30.687 59.684a31.122 31.122 0 0 1-16.965-5.004c-5.023-3.264-8.938-7.906-11.25-13.337A28.995 28.995 0 0 1 .73 24.168c1.176-5.766 4.083-11.063 8.352-15.222 4.27-4.158 9.71-6.99 15.632-8.138a31.3 31.3 0 0 1 17.641 1.69c5.58 2.25 10.349 6.059 13.704 10.947a29.168 29.168 0 0 1 5.146 16.515c-.01 7.879-3.227 15.432-8.948 21.004-5.721 5.572-13.478 8.708-21.57 8.72Zm0-58.167a29.782 29.782 0 0 0-16.235 4.788C9.646 9.429 5.9 13.87 3.687 19.067A27.747 27.747 0 0 0 2.02 35.502c1.125 5.519 3.907 10.588 7.992 14.567 4.086 3.979 9.291 6.69 14.959 7.787a29.952 29.952 0 0 0 16.881-1.616c5.34-2.153 9.903-5.798 13.113-10.476A27.912 27.912 0 0 0 59.89 29.96c-.006-7.54-3.085-14.769-8.56-20.102-5.475-5.332-12.9-8.332-20.643-8.341Z"/><path fill="#455A64" stroke="#F4F0F7" stroke-width=".5" d="M30.464 26.91a.6.6 0 0 0 .438 0 11.481 11.481 0 0 0 7.287-10.686v-4.742a.6.6 0 0 0-.38-.558l-6.907-2.71a.6.6 0 0 0-.438 0l-6.906 2.71a.6.6 0 0 0-.38.558v4.742a11.48 11.48 0 0 0 7.286 10.686Zm-6.088-15.02 6.307-2.474 6.307 2.475v4.333a10.215 10.215 0 0 1-6.307 9.482 10.218 10.218 0 0 1-6.307-9.482v-4.333Zm5.53 9.069c.429 0 .84-.169 1.141-.473l3.862-3.861a.6.6 0 0 0 0-.848l-1.435-1.435a.599.599 0 0 0-.847 0l-2.72 2.72-1.167-1.166a.6.6 0 0 0-.847 0l-1.435 1.435a.6.6 0 0 0 0 .848l2.307 2.307c.302.304.713.474 1.141.473Zm-1.59-3.791 1.167 1.166a.6.6 0 0 0 .847 0l2.72-2.72.588.587-3.438 3.437a.416.416 0 0 1-.587 0l-1.884-1.883.588-.587Zm22.225 24.327h-2.597v-.998a7.005 7.005 0 0 0-4.577-6.562 4.195 4.195 0 1 0-4.832 0 6.973 6.973 0 0 0-3.312 2.555 6.212 6.212 0 0 0-2.354-1.587 3.395 3.395 0 0 0-2.186-5.996 3.397 3.397 0 0 0-2.185 5.996 6.212 6.212 0 0 0-2.354 1.587 6.973 6.973 0 0 0-3.313-2.556 4.195 4.195 0 1 0-4.832 0 7.003 7.003 0 0 0-4.576 6.563v.998h-2.597a.6.6 0 0 0-.6.6v2.397a.598.598 0 0 0 .6.6h.879v3.395a.6.6 0 0 0 .6.6h36.758a.6.6 0 0 0 .599-.6v-3.396h.879a.6.6 0 0 0 .6-.599v-2.397a.6.6 0 0 0-.6-.6ZM37.955 30.508a2.997 2.997 0 1 1 5.993 0 2.997 2.997 0 0 1-5.993 0Zm2.996 4.195a5.798 5.798 0 0 1 5.794 5.794v.998h-9.87v-.799a6.15 6.15 0 0 0-.885-3.188 5.78 5.78 0 0 1 4.962-2.805Zm-12.465-2.397a2.199 2.199 0 0 1 3.751-1.554 2.198 2.198 0 0 1-1.554 3.752 2.2 2.2 0 0 1-2.197-2.198Zm-2.797 8.39a4.995 4.995 0 0 1 9.988 0v.8H25.69v-.8Zm-8.27-10.188a2.995 2.995 0 0 1 2.996-2.997 2.998 2.998 0 0 1 2.119 5.116 2.998 2.998 0 0 1-5.116-2.119Zm-2.798 9.989a5.792 5.792 0 0 1 10.755-2.989 6.151 6.151 0 0 0-.886 3.189v.799h-9.868v-1Zm33.842 7.391h-35.56v-2.796h35.56v2.796Zm1.478-3.995H11.424v-1.199h38.517v1.199Z"/></svg>