<svg xmlns="http://www.w3.org/2000/svg" width="62" height="60" fill="none"><path fill="#BA68C8" d="M30.685 59.569a31.123 31.123 0 0 1-16.966-5.005C8.696 51.3 4.78 46.657 2.469 41.225A28.995 28.995 0 0 1 .729 24.05c1.177-5.767 4.085-11.064 8.356-15.222 4.27-4.158 9.711-6.989 15.634-8.135a31.3 31.3 0 0 1 17.643 1.694c5.579 2.251 10.347 6.063 13.7 10.953a29.169 29.169 0 0 1 5.141 16.518c-.01 7.877-3.228 15.43-8.949 21s-13.478 8.703-21.57 8.712Zm0-58.156A29.783 29.783 0 0 0 14.45 6.201C9.644 9.325 5.898 13.767 3.685 18.964a27.747 27.747 0 0 0-1.667 16.435c1.125 5.518 3.907 10.587 7.992 14.566 4.086 3.98 9.291 6.69 14.959 7.788a29.952 29.952 0 0 0 16.881-1.617c5.34-2.152 9.903-5.798 13.114-10.476a27.912 27.912 0 0 0 4.924-15.803c-.006-7.54-3.085-14.77-8.56-20.102-5.475-5.333-12.899-8.333-20.643-8.342Z"/><path fill="#455A64" d="m36.516 43.664-11.966-.081v-.53c0-1.685-1.433-3.069-3.258-4.822-2.938-2.791-6.978-6.69-6.918-14.326.012-2.085.449-4.148 1.285-6.068a15.783 15.783 0 0 1 3.584-5.12 16.018 16.018 0 0 1 5.299-3.453 16.363 16.363 0 0 1 6.264-1.16c4.323.036 8.455 1.74 11.49 4.74 3.033 3 4.721 7.048 4.693 11.257 0 7.67-4.146 11.535-7.108 14.268-1.849 1.719-3.318 3.092-3.33 4.764l-.035.53Zm-10.9-1.154 9.846.07c.272-1.87 1.836-3.322 3.637-4.995 2.997-2.803 6.74-6.275 6.8-13.507.024-3.927-1.556-7.704-4.393-10.497-2.836-2.794-6.696-4.376-10.73-4.4-4.034-.022-7.913 1.516-10.782 4.277-2.87 2.762-4.495 6.52-4.518 10.447 0 7.22 3.625 10.762 6.586 13.6 1.766 1.66 3.306 3.148 3.555 5.017v-.012Z"/><path fill="#455A64" d="M33.211 43.433a.41.41 0 0 1-.285-.115.39.39 0 0 1-.118-.277c.046-3.774.551-7.53 1.505-11.188.26-1.054.6-2.087 1.019-3.092l.106-.242-.272-.092a9.108 9.108 0 0 1-1.694-.819 11.77 11.77 0 0 1-2.607-2.168l-.213-.243-.213.243c-.77.828-1.66 1.543-2.642 2.122a8.719 8.719 0 0 1-1.706.796l-.272.092.106.265c.392 1.013.716 2.05.972 3.103a47.062 47.062 0 0 1 1.327 11.211.412.412 0 0 1-.146.28.433.433 0 0 1-.453.063.39.39 0 0 1-.198-.218.37.37 0 0 1-.02-.148c0-3.712-.437-7.412-1.304-11.026a22.552 22.552 0 0 0-1.007-3.172l-.083-.197H24.8a5.634 5.634 0 0 1-.747 0 3.86 3.86 0 0 1-1.533-.25 3.778 3.778 0 0 1-1.298-.834 1.831 1.831 0 0 1-.26-2.41c.14-.204.327-.372.548-.49.22-.12.467-.184.719-.19a1.5 1.5 0 0 1 .32 0c.983.195 1.966 1.152 2.831 2.929l.107.219.237-.08a8.404 8.404 0 0 0 1.658-.75 10.594 10.594 0 0 0 2.642-2.192l.142-.162-.118-.161a4.642 4.642 0 0 1-.837-1.678 4.572 4.572 0 0 1-.099-1.863c.103-.33.311-.617.595-.822a1.677 1.677 0 0 1 1.962 0c.283.205.492.493.594.822a4.608 4.608 0 0 1-.092 1.933 4.68 4.68 0 0 1-.88 1.735l-.117.161.13.162a10.842 10.842 0 0 0 2.618 2.226 8.53 8.53 0 0 0 1.647.784l.237.07.106-.208c.877-1.684 1.896-2.71 2.867-2.895h.296c.257.005.509.07.734.191.225.12.416.292.558.5a1.819 1.819 0 0 1-.296 2.412 3.78 3.78 0 0 1-1.281.804c-.479.18-.99.264-1.503.245a4.964 4.964 0 0 1-.806-.07h-.213l-.083.197a21.052 21.052 0 0 0-1.066 3.149 45.686 45.686 0 0 0-1.458 10.934.399.399 0 0 1-.117.282.42.42 0 0 1-.285.122h-.048Zm5.699-17.982c-.628.115-1.398.888-2.11 2.134l-.212.369h.71c.396.017.792-.046 1.163-.182.37-.137.708-.346.994-.614a1.061 1.061 0 0 0 .225-1.407.75.75 0 0 0-.26-.26.773.773 0 0 0-.356-.11l-.154.07Zm-16.67-.15a.81.81 0 0 0-.36.11.784.784 0 0 0-.267.26 1.128 1.128 0 0 0 .201 1.406c.291.275.637.49 1.015.63.38.142.784.206 1.189.19h.604l-.201-.381c-.64-1.304-1.422-2.065-2.026-2.192l-.154-.023Zm8.436-4.856a.75.75 0 0 0-.498.134.714.714 0 0 0-.284.42 3.386 3.386 0 0 0 .521 2.399l.25.45.248-.438a3.388 3.388 0 0 0 .569-2.4.737.737 0 0 0-.29-.425.773.773 0 0 0-.504-.14h-.012ZM30.643 51.588a4.42 4.42 0 0 1-3.083-1.244 4.189 4.189 0 0 1-1.277-3.001v-.53h8.732v.53a4.2 4.2 0 0 1-1.285 3.002 4.433 4.433 0 0 1-3.087 1.243Zm-3.223-3.715a3.164 3.164 0 0 0 1.108 1.918c.592.491 1.344.76 2.12.76.778 0 1.53-.269 2.122-.76.591-.49.984-1.17 1.107-1.917H27.42Z"/><path fill="#455A64" d="M34.313 47.885h-7.559a2.234 2.234 0 0 1-1.558-.628 2.117 2.117 0 0 1-.645-1.517v-3.218h11.965v3.218c0 .569-.232 1.114-.645 1.517a2.234 2.234 0 0 1-1.558.628Zm-8.672-4.302v2.157c.017.282.14.548.345.748.205.2.479.32.768.336h7.559a1.2 1.2 0 0 0 .768-.336c.206-.2.329-.466.345-.748v-2.157h-9.785Z"/></svg>