<svg xmlns="http://www.w3.org/2000/svg" width="62" height="61" fill="none"><path fill="#BA68C8" d="M30.784 60.091a31.123 31.123 0 0 1-16.966-5.004c-5.022-3.265-8.937-7.908-11.25-13.34a28.996 28.996 0 0 1-1.74-17.175C2.006 18.805 4.914 13.507 9.184 9.35c4.27-4.158 9.712-6.99 15.635-8.136a31.3 31.3 0 0 1 17.642 1.694c5.58 2.252 10.348 6.063 13.701 10.953a29.168 29.168 0 0 1 5.14 16.518c-.009 7.878-3.227 15.43-8.948 21-5.722 5.57-13.479 8.703-21.57 8.712Zm0-58.156A29.783 29.783 0 0 0 14.55 6.723C9.744 9.847 5.998 14.29 3.785 19.486a27.747 27.747 0 0 0-1.668 16.435c1.126 5.518 3.908 10.588 7.993 14.567 4.085 3.979 9.29 6.689 14.958 7.787A29.952 29.952 0 0 0 41.95 56.66c5.339-2.153 9.902-5.798 13.113-10.476a27.912 27.912 0 0 0 4.924-15.804c-.006-7.54-3.084-14.77-8.56-20.102-5.474-5.332-12.898-8.332-20.643-8.342Z"/><path fill="#455A64" d="M23.195 29.39c-.692-1.267-.57-3.45-1.09-5.634-.564-2.36-2.853-3.004-4.23-3.22-1.193-.185-2.374.294-3.422 1.582a4.573 4.573 0 0 0-.795 1.471c-.645 1.982-.542 4.245-1.351 5.955a4.116 4.116 0 0 0-.403 1.565c-.107 2.299 2.023 1.687 4.158 1.574-1.39-1.073-1.99-4.635-1.99-4.635 1.239-.859 2.515-3.262 2.515-3.262s.728 2.244 2.43 2.41c0 0-.802-.223-1.14-1.075 1.62 1.183 3.402 1.095 3.402 1.095.45 3.288-1.765 5.252-1.765 5.252s1.57.88 2.547.451c.732-.322 1.566-1.007 1.521-2.193a3.035 3.035 0 0 0-.387-1.336ZM21.178 37.781l.007-.041c.164-.97.7-1.775 1.434-2.155l1.4-.727-1.358-.732a.67.67 0 0 0-.617-.012l-2.9 1.414a2.726 2.726 0 0 1-2.415 0l-2.9-1.414a.666.666 0 0 0-.615.012l-1.8.97c-.583.314-.986.947-1.069 1.678l-.521 4.617c-.06.525.254 1.01.71 1.095 2.34.44 5.92.884 10.05.637l.594-5.342ZM52.312 29.39c-.691-1.267-.57-3.45-1.09-5.634-.564-2.36-2.853-3.004-4.23-3.22-1.192-.185-2.374.294-3.422 1.582a4.575 4.575 0 0 0-.795 1.471c-.645 1.982-.542 4.245-1.351 5.955a4.118 4.118 0 0 0-.403 1.565c-.106 2.299 2.023 1.687 4.158 1.574-1.39-1.073-1.99-4.635-1.99-4.635 1.24-.859 2.515-3.262 2.515-3.262s.728 2.244 2.43 2.41c0 0-.801-.223-1.14-1.075 1.62 1.183 3.402 1.095 3.402 1.095.45 3.288-1.764 5.252-1.764 5.252s1.57.88 2.546.451c.732-.322 1.567-1.007 1.522-2.193a3.046 3.046 0 0 0-.388-1.336ZM55.176 41.438l-.529-4.663c-.082-.731-.484-1.364-1.069-1.678l-1.798-.97a.671.671 0 0 0-.617-.013l-2.9 1.415a2.725 2.725 0 0 1-2.416 0l-2.899-1.415a.666.666 0 0 0-.615.013l-1.355.73 1.406.73c.733.381 1.267 1.186 1.43 2.153l.011.084.588 5.269c2.885.203 6.365.152 10.054-.558.455-.088.768-.573.71-1.097h-.001ZM33.84 34.802c.205-.245.05-.645-.25-.645h-2.127c-.307 0-.459.418-.239.658l.516.563h.005l-1.267 4.365.402 5.095h3.211l.435-5.095-1.166-4.365.48-.576Z"/><path fill="#455A64" d="m22.331 37.992-.667 5.984c-.051.458.267.861.678.861h7.325l-.44-5.368.88-2.62v-3.687L23.1 36.8c-.39.203-.677.65-.768 1.191ZM43.334 43.977l-.668-5.984c-.09-.542-.378-.99-.765-1.191l-7.008-3.639v3.506l.875 2.857-.47 5.312h7.358c.41 0 .729-.403.678-.86ZM29.79 28.62a.506.506 0 0 1-.38-.18.663.663 0 0 1-.158-.435c0-.813-.325-1.578-.893-2.1-1.569-1.44-2.47-3.585-2.474-5.883-.007-4.08 2.889-7.478 6.454-7.575 1.796-.047 3.496.716 4.78 2.15 1.286 1.436 1.994 3.358 1.994 5.411 0 2.304-.902 4.454-2.475 5.899-.567.52-.892 1.285-.892 2.098 0 .34-.241.615-.539.615h-5.416Zm.539-.615h.001-.001Zm-.043-.616h4.425c.133-.951.573-1.819 1.252-2.442 1.317-1.21 2.073-3.01 2.073-4.938 0-1.72-.593-3.328-1.669-4.53-1.075-1.201-2.496-1.84-4.002-1.8-2.985.08-5.408 2.926-5.403 6.341.003 1.924.758 3.72 2.072 4.926.679.624 1.119 1.492 1.252 2.444ZM29.978 30.75c.048.381.334.665.671.665h.291v.413c0 .334.236.604.528.604h2.061c.292 0 .528-.27.528-.604v-.413h.291c.338 0 .624-.284.672-.666l.17-1.365h-5.383l.17 1.365ZM26.755 13.55a.425.425 0 0 1-.321-.153l-1.024-1.17a.572.572 0 0 1 0-.734.414.414 0 0 1 .642 0l1.023 1.17a.572.572 0 0 1 0 .734.423.423 0 0 1-.32.152ZM25.462 15.475a.407.407 0 0 1-.226-.07l-1.253-.828c-.217-.143-.291-.46-.166-.709.125-.247.403-.333.62-.19l1.253.828c.217.143.29.46.166.709a.446.446 0 0 1-.394.26ZM24.65 17.715a.39.39 0 0 1-.117-.018l-1.398-.428c-.242-.075-.386-.36-.32-.636.064-.277.314-.441.555-.367l1.398.428c.242.075.386.36.32.636-.054.232-.237.385-.437.385ZM24.374 20.12h-1.448c-.25 0-.453-.233-.453-.519 0-.287.203-.519.453-.519h1.447c.251 0 .454.233.454.519 0 .287-.203.519-.453.519ZM42.07 20.12h-1.446c-.251 0-.454-.233-.454-.519 0-.287.203-.519.454-.519h1.447c.25 0 .453.233.453.519 0 .287-.203.519-.453.519ZM40.348 17.714c-.2 0-.383-.153-.438-.384-.065-.277.079-.561.321-.636l1.398-.428c.242-.074.49.09.556.367.064.277-.08.561-.322.636l-1.397.428a.416.416 0 0 1-.118.017ZM39.536 15.475a.446.446 0 0 1-.393-.26c-.125-.248-.051-.566.166-.709l1.253-.828c.218-.143.495-.058.62.19.125.249.05.566-.166.71l-1.253.827a.405.405 0 0 1-.227.07ZM38.245 13.55a.425.425 0 0 1-.321-.153.572.572 0 0 1 0-.734l1.023-1.17a.414.414 0 0 1 .642 0 .572.572 0 0 1 0 .734l-1.023 1.17a.424.424 0 0 1-.321.152Z"/></svg>