<svg xmlns="http://www.w3.org/2000/svg" width="62" height="60" fill="none"><path fill="#BA68C8" d="M30.685 59.857a31.123 31.123 0 0 1-16.966-5.005c-5.023-3.265-8.938-7.907-11.25-13.339a28.996 28.996 0 0 1-1.74-17.176C1.906 18.57 4.814 13.273 9.085 9.115c4.27-4.158 9.711-6.989 15.634-8.135a31.3 31.3 0 0 1 17.643 1.694c5.579 2.251 10.347 6.063 13.7 10.953a29.168 29.168 0 0 1 5.141 16.518c-.013 7.876-3.232 15.427-8.953 20.996-5.72 5.57-13.475 8.704-21.565 8.716Zm0-58.156A29.783 29.783 0 0 0 14.45 6.489C9.644 9.613 5.898 14.055 3.685 19.252a27.747 27.747 0 0 0-1.667 16.435c1.125 5.518 3.907 10.587 7.992 14.566 4.086 3.98 9.291 6.69 14.959 7.788a29.952 29.952 0 0 0 16.881-1.617c5.34-2.152 9.903-5.798 13.114-10.476a27.912 27.912 0 0 0 4.924-15.803c-.006-7.54-3.085-14.77-8.56-20.102C45.853 4.71 38.43 1.71 30.685 1.7Z"/><path fill="#455A64" d="M23.292 46.176c-.46.001-.914-.103-1.325-.303a2.934 2.934 0 0 1-1.045-.85l-9.477-11.87A2.863 2.863 0 0 1 10.84 31c.1-.768.51-1.466 1.138-1.94a3.058 3.058 0 0 1 2.213-.588 3.017 3.017 0 0 1 1.993 1.107l7.108 8.916 17.842-22.7c.231-.319.527-.59.868-.796a3.064 3.064 0 0 1 2.311-.344c.39.097.755.27 1.074.508.32.237.586.535.784.876a2.853 2.853 0 0 1 .264 2.261 2.88 2.88 0 0 1-.562 1.025L25.66 45.034a2.982 2.982 0 0 1-1.046.846c-.411.2-.864.305-1.323.308v-.012Z"/></svg>