<svg xmlns="http://www.w3.org/2000/svg" width="124" height="8" fill="none"><path fill="#BA68C8" d="M123.667 3.948a3.89 3.89 0 0 1-.68 2.208 4.05 4.05 0 0 1-1.826 1.466 4.172 4.172 0 0 1-2.355.229 4.105 4.105 0 0 1-2.088-1.085 3.923 3.923 0 0 1-1.115-2.033 3.863 3.863 0 0 1 .235-2.293 3.987 3.987 0 0 1 1.506-1.778A4.151 4.151 0 0 1 119.612 0a4.124 4.124 0 0 1 2.862 1.16 3.91 3.91 0 0 1 1.193 2.788Z"/><path fill="#BA68C8" d="M119.609 4.648H.718a.719.719 0 0 1-.512-.2A.682.682 0 0 1 0 3.949a.69.69 0 0 1 .21-.493.727.727 0 0 1 .508-.205h118.891c.189.004.37.079.503.209.134.13.211.305.215.49a.691.691 0 0 1-.21.493.729.729 0 0 1-.508.205Z"/></svg>