<svg xmlns="http://www.w3.org/2000/svg" width="241" height="597" fill="none"><path fill="#E0E0E0" d="M228.345 510.693a.695.695 0 0 1-.486-.196.662.662 0 0 1-.201-.473v-75.111c0-.178.073-.348.201-.473a.695.695 0 0 1 .486-.196c.183 0 .357.07.486.196a.657.657 0 0 1 .201.473v75.111a.657.657 0 0 1-.201.473.694.694 0 0 1-.486.196ZM233.914 513.819a.698.698 0 0 1-.486-.196.66.66 0 0 1-.201-.473v-75.216a.66.66 0 0 1 .201-.473.698.698 0 0 1 .972 0 .665.665 0 0 1 .201.473v75.216a.665.665 0 0 1-.201.473.7.7 0 0 1-.486.196Z"/><path fill="#E0E0E0" d="M233.914 510.346a.277.277 0 0 1-.166 0l-5.58-3.137a.32.32 0 0 1-.158-.2.312.312 0 0 1-.006-.129.342.342 0 0 1 .25-.276.353.353 0 0 1 .257.028l5.58 3.138a.34.34 0 0 1 .158.206.323.323 0 0 1-.039.255.344.344 0 0 1-.296.115ZM233.912 507.209a.277.277 0 0 1-.166 0l-5.58-3.125a.338.338 0 0 1-.158-.207.322.322 0 0 1 .04-.255.315.315 0 0 1 .204-.158.32.32 0 0 1 .134-.005.309.309 0 0 1 .124.048l5.58 3.056a.338.338 0 0 1 .165.338.344.344 0 0 1-.046.124.339.339 0 0 1-.123.132.354.354 0 0 1-.174.052ZM233.912 504.072a.277.277 0 0 1-.166 0l-5.58-3.126a.324.324 0 0 1-.1-.088.326.326 0 0 1-.018-.373.315.315 0 0 1 .204-.158.326.326 0 0 1 .258.043l5.58 3.125a.338.338 0 0 1 .165.338.344.344 0 0 1-.046.124.349.349 0 0 1-.297.115ZM233.912 500.947a.422.422 0 0 1-.166 0l-5.58-3.138a.324.324 0 0 1-.1-.088.326.326 0 0 1-.018-.373.323.323 0 0 1 .206-.153.345.345 0 0 1 .132-.007.343.343 0 0 1 .124.045l5.58 3.137a.315.315 0 0 1 .157.2.312.312 0 0 1-.038.25.349.349 0 0 1-.297.127ZM233.914 497.809a.387.387 0 0 1-.166 0l-5.58-3.137a.315.315 0 0 1-.1-.085.312.312 0 0 1-.019-.365.342.342 0 0 1 .205-.155.353.353 0 0 1 .257.028l5.58 3.138a.322.322 0 0 1 .119.449.343.343 0 0 1-.296.127ZM233.914 494.672a.293.293 0 0 1-.166 0l-5.58-3.138a.325.325 0 0 1-.158-.2.312.312 0 0 1-.006-.129.346.346 0 0 1 .507-.247l5.58 3.137a.315.315 0 0 1 .157.2.312.312 0 0 1-.038.25.32.32 0 0 1-.131.102.323.323 0 0 1-.165.025ZM233.914 491.569a.277.277 0 0 1-.166 0l-5.58-3.137a.328.328 0 0 1-.158-.201.307.307 0 0 1-.006-.128.342.342 0 0 1 .25-.276.348.348 0 0 1 .257.028l5.58 3.137a.315.315 0 0 1 .164.329.328.328 0 0 1-.045.121.322.322 0 0 1-.296.127ZM233.914 488.397a.277.277 0 0 1-.166 0l-5.58-3.137a.325.325 0 0 1-.158-.201.308.308 0 0 1-.006-.128.312.312 0 0 1 .045-.121.348.348 0 0 1 .462-.127l5.58 3.137a.336.336 0 0 1 .119.462.357.357 0 0 1-.296.115ZM233.912 485.26a.293.293 0 0 1-.166 0l-5.58-3.126a.33.33 0 0 1-.164-.338.316.316 0 0 1 .046-.123.344.344 0 0 1 .462-.127l5.58 3.102a.338.338 0 0 1 .165.338.344.344 0 0 1-.046.124.349.349 0 0 1-.297.15ZM233.912 482.123a.293.293 0 0 1-.166 0l-5.58-3.126a.338.338 0 0 1-.158-.207.321.321 0 0 1 .04-.255.35.35 0 0 1 .087-.097.343.343 0 0 1 .375-.018l5.58 3.126a.334.334 0 0 1 .165.338.347.347 0 0 1-.046.123.349.349 0 0 1-.297.116ZM233.912 478.985a.387.387 0 0 1-.166 0l-5.58-3.137a.338.338 0 0 1-.158-.207.321.321 0 0 1 .04-.254.323.323 0 0 1 .206-.153.345.345 0 0 1 .256.037l5.58 3.126a.338.338 0 0 1 .165.338.333.333 0 0 1-.046.123.341.341 0 0 1-.297.127ZM233.912 475.859a.387.387 0 0 1-.166 0l-5.58-3.137a.338.338 0 0 1-.158-.207.321.321 0 0 1 .04-.255.332.332 0 0 1 .206-.153.345.345 0 0 1 .256.038l5.58 3.137a.322.322 0 0 1 .119.45.351.351 0 0 1-.297.127ZM233.914 472.722a.277.277 0 0 1-.166 0l-5.58-3.137a.317.317 0 0 1-.119-.45.348.348 0 0 1 .462-.127l5.58 3.137a.328.328 0 0 1 .157.201.307.307 0 0 1-.038.249.331.331 0 0 1-.131.103.333.333 0 0 1-.165.024ZM233.914 469.585a.293.293 0 0 1-.166 0l-5.58-3.138a.325.325 0 0 1-.158-.2.312.312 0 0 1-.006-.129.346.346 0 0 1 .507-.247l5.58 3.137a.328.328 0 0 1 .119.461.341.341 0 0 1-.134.093.344.344 0 0 1-.162.023ZM233.914 466.448a.293.293 0 0 1-.166 0l-5.58-3.138a.325.325 0 0 1-.158-.2.312.312 0 0 1-.006-.129.346.346 0 0 1 .507-.247l5.58 3.137a.328.328 0 0 1 .119.461.341.341 0 0 1-.134.093.344.344 0 0 1-.162.023ZM233.912 463.31a.293.293 0 0 1-.166 0l-5.58-3.126a.33.33 0 0 1-.164-.338.316.316 0 0 1 .046-.123.344.344 0 0 1 .462-.127l5.58 3.137a.338.338 0 0 1 .165.338.333.333 0 0 1-.046.123.362.362 0 0 1-.134.094.361.361 0 0 1-.163.022ZM233.912 460.173a.293.293 0 0 1-.166 0l-5.58-3.207a.33.33 0 0 1-.164-.338.329.329 0 0 1 .046-.123.323.323 0 0 1 .206-.153.345.345 0 0 1 .256.037l5.58 3.126a.338.338 0 0 1 .165.338.344.344 0 0 1-.046.124.351.351 0 0 1-.297.196ZM233.912 457.036a.387.387 0 0 1-.166 0l-5.58-3.138a.324.324 0 0 1-.1-.088.326.326 0 0 1-.018-.373.323.323 0 0 1 .206-.153.345.345 0 0 1 .132-.007.343.343 0 0 1 .124.045l5.58 3.125a.338.338 0 0 1 .165.338.344.344 0 0 1-.046.124.349.349 0 0 1-.297.127ZM233.917 453.909a.387.387 0 0 1-.166 0l-5.58-3.137a.33.33 0 0 1 .094-.594.351.351 0 0 1 .249.017l5.58 3.138a.322.322 0 0 1 .119.45.341.341 0 0 1-.296.126ZM233.914 450.772a.277.277 0 0 1-.166 0l-5.58-3.137a.328.328 0 0 1-.158-.201.307.307 0 0 1-.006-.128.342.342 0 0 1 .25-.276.348.348 0 0 1 .257.028l5.58 3.138a.322.322 0 0 1 .119.449.322.322 0 0 1-.296.127ZM233.914 447.635a.277.277 0 0 1-.166 0l-5.58-3.137a.325.325 0 0 1-.158-.201.308.308 0 0 1-.006-.128.312.312 0 0 1 .045-.121.348.348 0 0 1 .462-.127l5.58 3.137a.328.328 0 0 1 .157.201.307.307 0 0 1-.038.249.331.331 0 0 1-.131.103.333.333 0 0 1-.165.024ZM233.914 444.498a.293.293 0 0 1-.166 0l-5.58-3.138a.325.325 0 0 1-.158-.2.312.312 0 0 1 .039-.249.344.344 0 0 1 .205-.156.353.353 0 0 1 .257.029l5.58 3.137a.328.328 0 0 1 .119.461.354.354 0 0 1-.296.116ZM233.912 441.36a.277.277 0 0 1-.166 0l-5.58-3.126a.334.334 0 0 1-.158-.206.326.326 0 0 1 .04-.255.35.35 0 0 1 .462-.127l5.58 3.137a.338.338 0 0 1 .165.338.344.344 0 0 1-.046.124.349.349 0 0 1-.297.115ZM161.431 516.944a.703.703 0 0 1-.416-.139.67.67 0 0 1-.243-.356.652.652 0 0 1 .027-.427.67.67 0 0 1 .288-.323l39.025-21.916a.73.73 0 0 1 .687 0l39.036 21.916c.142.096.241.24.278.404a.651.651 0 0 1-.076.48.702.702 0 0 1-.889.269l-38.693-21.742-38.681 21.742a.609.609 0 0 1-.343.092Z"/><path fill="#E0E0E0" d="M239.494 441.741a.726.726 0 0 1-.344-.093l-38.692-21.742-38.682 21.742a.702.702 0 0 1-.498.035.685.685 0 0 1-.39-.303.655.655 0 0 1 .201-.885l39.025-21.915a.668.668 0 0 1 .687 0l39.037 21.915a.665.665 0 0 1 .322.405.65.65 0 0 1-.074.506.688.688 0 0 1-.251.243.713.713 0 0 1-.341.092Z"/><path fill="#EBEBEB" d="m194.887 517.118 22.284-12.55v-76.022l-22.284 12.526v76.046Z"/><path fill="#F5F5F5" d="m194.886 517.117-16.728-9.481v-75.965l16.728 9.401v76.045Z"/><path fill="#BA68C8" d="m217.171 428.545-16.716-9.412-22.297 12.538 16.728 9.401 22.285-12.527Z"/><path fill="#1D1125" d="m217.175 428.545-16.717-9.412-22.296 12.538 16.728 9.401 22.285-12.527Z" opacity=".3"/><path fill="#E0E0E0" d="M200.47 538.86a.625.625 0 0 1-.343-.092.648.648 0 0 1-.344-.577V463.01a.648.648 0 0 1 .344-.577l39.024-21.915a.672.672 0 0 1 .688 0 .676.676 0 0 1 .252.243c.06.101.092.217.091.334v75.215a.645.645 0 0 1-.091.334.668.668 0 0 1-.252.243l-39.037 21.973a.586.586 0 0 1-.332 0Zm.676-75.504v73.681l37.662-21.165v-73.647l-37.662 21.131Z"/><path fill="#E0E0E0" d="M200.47 538.86a.62.62 0 0 1-.344-.093l-39.036-21.915a.664.664 0 0 1-.253-.243.642.642 0 0 1-.091-.333v-75.204a.645.645 0 0 1 .344-.577.666.666 0 0 1 .687 0l39.024 21.915a.645.645 0 0 1 .344.577v75.215a.645.645 0 0 1-.344.577.58.58 0 0 1-.331.081Zm-38.35-22.954 37.663 21.166v-73.681l-37.663-21.166v73.681Z"/><path fill="#E0E0E0" d="M200.467 538.86a.674.674 0 0 1-.261 0 .682.682 0 0 1-.372-.357.654.654 0 0 1-.007-.508l39.025-97.177a.68.68 0 0 1 .628-.455.699.699 0 0 1 .658.414.643.643 0 0 1-.006.526l-39.037 97.153a.644.644 0 0 1-.249.297.678.678 0 0 1-.379.107ZM161.433 516.945a.623.623 0 0 1-.391-.127.647.647 0 0 1-.286-.427.633.633 0 0 1 .121-.496l39.024-53.289a.708.708 0 0 1 .966-.155.66.66 0 0 1 .16.94l-39.037 53.277a.67.67 0 0 1-.557.277ZM228.345 435.466a.695.695 0 0 1-.486-.196.662.662 0 0 1-.201-.473v-75.1c0-.177.073-.347.201-.473a.7.7 0 0 1 .972 0 .66.66 0 0 1 .201.473v75.1a.644.644 0 0 1-.201.473.692.692 0 0 1-.486.196ZM233.914 438.603a.697.697 0 0 1-.486-.195.661.661 0 0 1-.201-.474v-75.215a.66.66 0 0 1 .201-.473.698.698 0 0 1 .972 0 .665.665 0 0 1 .201.473v75.215a.666.666 0 0 1-.201.474.699.699 0 0 1-.486.195Z"/><path fill="#E0E0E0" d="M233.914 435.132a.277.277 0 0 1-.166 0l-5.58-3.137a.325.325 0 0 1-.158-.201.308.308 0 0 1-.006-.128.312.312 0 0 1 .045-.121.348.348 0 0 1 .462-.127l5.58 3.137a.328.328 0 0 1 .157.201.307.307 0 0 1-.038.249.331.331 0 0 1-.131.103.333.333 0 0 1-.165.024ZM233.914 431.994a.277.277 0 0 1-.166 0l-5.58-3.137a.317.317 0 0 1-.119-.45.348.348 0 0 1 .462-.127l5.58 3.137a.315.315 0 0 1 .164.329.328.328 0 0 1-.045.121.331.331 0 0 1-.131.103.333.333 0 0 1-.165.024ZM233.914 428.857a.277.277 0 0 1-.166 0l-5.58-3.137a.328.328 0 0 1-.158-.201.307.307 0 0 1-.006-.128.342.342 0 0 1 .25-.276.348.348 0 0 1 .257.028l5.58 3.137a.336.336 0 0 1 .119.462.344.344 0 0 1-.296.115ZM233.912 425.72a.277.277 0 0 1-.166 0l-5.58-3.126a.338.338 0 0 1-.158-.207.321.321 0 0 1 .04-.254.35.35 0 0 1 .462-.127l5.58 3.137a.338.338 0 0 1 .165.338.333.333 0 0 1-.046.123.362.362 0 0 1-.134.094.361.361 0 0 1-.163.022ZM233.912 422.582a.387.387 0 0 1-.166 0l-5.58-3.137a.33.33 0 0 1-.164-.338.329.329 0 0 1 .046-.123.33.33 0 0 1 .085-.101.33.33 0 0 1 .253-.063.341.341 0 0 1 .124.048l5.58 3.126a.338.338 0 0 1 .165.338.344.344 0 0 1-.046.124.349.349 0 0 1-.297.126ZM233.912 419.457a.422.422 0 0 1-.166 0l-5.58-3.138a.324.324 0 0 1-.1-.088.326.326 0 0 1-.018-.373.323.323 0 0 1 .206-.153.345.345 0 0 1 .132-.007.343.343 0 0 1 .124.045l5.58 3.125a.338.338 0 0 1 .027.559.368.368 0 0 1-.205.076v-.046ZM233.912 416.319a.387.387 0 0 1-.166 0l-5.58-3.183a.338.338 0 0 1-.158-.207.321.321 0 0 1 .04-.255.332.332 0 0 1 .206-.153.345.345 0 0 1 .256.038l5.58 3.137a.322.322 0 0 1 .119.45.351.351 0 0 1-.125.126.355.355 0 0 1-.172.047ZM233.914 413.135a.277.277 0 0 1-.166 0l-5.58-3.137a.328.328 0 0 1-.158-.201.307.307 0 0 1-.006-.128.342.342 0 0 1 .25-.276.348.348 0 0 1 .257.028l5.58 3.138a.322.322 0 0 1 .119.449.322.322 0 0 1-.296.127ZM233.914 410.044a.277.277 0 0 1-.166 0l-5.58-3.137a.315.315 0 0 1-.1-.085.312.312 0 0 1-.019-.365.342.342 0 0 1 .205-.155.353.353 0 0 1 .257.028l5.58 3.138a.322.322 0 0 1 .119.449.322.322 0 0 1-.296.127ZM233.914 406.907a.277.277 0 0 1-.166 0l-5.58-3.137a.328.328 0 0 1-.158-.201.307.307 0 0 1-.006-.128.342.342 0 0 1 .25-.276.348.348 0 0 1 .257.028l5.58 3.137a.336.336 0 0 1 .119.462.344.344 0 0 1-.296.115ZM233.912 403.77a.277.277 0 0 1-.166 0l-5.58-3.126a.324.324 0 0 1-.1-.088.326.326 0 0 1-.018-.373.35.35 0 0 1 .462-.127l5.58 3.137a.338.338 0 0 1 .165.338.344.344 0 0 1-.046.124.349.349 0 0 1-.297.115ZM233.912 400.632a.277.277 0 0 1-.166 0l-5.58-3.125a.338.338 0 0 1-.158-.207.321.321 0 0 1 .04-.255.35.35 0 0 1 .087-.097.343.343 0 0 1 .375-.018l5.58 3.126a.324.324 0 0 1 .1.088.326.326 0 0 1 .019.373.349.349 0 0 1-.297.115ZM233.912 397.507a.422.422 0 0 1-.166 0l-5.58-3.138a.334.334 0 0 1-.158-.206.322.322 0 0 1 .04-.255.323.323 0 0 1 .206-.153.326.326 0 0 1 .132-.006.323.323 0 0 1 .124.044l5.58 3.126a.338.338 0 0 1 .027.558.36.36 0 0 1-.205.076v-.046ZM233.912 394.369a.387.387 0 0 1-.166 0l-5.58-3.148a.338.338 0 0 1-.158-.207.322.322 0 0 1 .04-.255.35.35 0 0 1 .087-.097.343.343 0 0 1 .375-.018l5.58 3.137a.328.328 0 0 1 .157.201.307.307 0 0 1-.038.249.348.348 0 0 1-.297.138ZM233.914 391.221a.422.422 0 0 1-.166 0l-5.58-3.138a.325.325 0 0 1-.158-.2.312.312 0 0 1-.006-.129.346.346 0 0 1 .507-.247l5.58 3.137a.315.315 0 0 1 .157.2.312.312 0 0 1-.038.25.356.356 0 0 1-.296.127ZM233.914 388.095a.293.293 0 0 1-.166 0l-5.58-3.138a.325.325 0 0 1-.158-.2.312.312 0 0 1-.006-.129.346.346 0 0 1 .507-.247l5.58 3.137a.315.315 0 0 1 .157.2.312.312 0 0 1-.038.25.32.32 0 0 1-.131.102.323.323 0 0 1-.165.025ZM233.914 384.957a.277.277 0 0 1-.166 0l-5.58-3.137a.315.315 0 0 1-.1-.085.312.312 0 0 1-.019-.365.346.346 0 0 1 .205-.155.353.353 0 0 1 .257.028l5.58 3.057a.328.328 0 0 1 .119.461.343.343 0 0 1-.296.196ZM233.912 381.82a.277.277 0 0 1-.166 0l-5.58-3.126a.334.334 0 0 1-.158-.206.322.322 0 0 1 .04-.255.35.35 0 0 1 .462-.127l5.58 3.137a.338.338 0 0 1 .165.338.344.344 0 0 1-.046.124.349.349 0 0 1-.297.115ZM233.912 378.683a.277.277 0 0 1-.166 0l-5.58-3.126a.338.338 0 0 1-.158-.207.32.32 0 0 1 .04-.254.33.33 0 0 1 .085-.101.33.33 0 0 1 .253-.063.324.324 0 0 1 .124.048l5.58 3.126a.33.33 0 0 1 .119.462.349.349 0 0 1-.297.115ZM233.912 375.545a.387.387 0 0 1-.166 0l-5.58-3.137a.338.338 0 0 1-.158-.207.321.321 0 0 1 .04-.254.323.323 0 0 1 .206-.153.345.345 0 0 1 .256.037l5.58 3.126a.33.33 0 0 1 .119.461.341.341 0 0 1-.297.127ZM233.917 372.42a.422.422 0 0 1-.166 0l-5.58-3.138a.33.33 0 0 1 .094-.593.351.351 0 0 1 .249.017l5.58 3.137a.315.315 0 0 1 .157.201.306.306 0 0 1 .007.128.328.328 0 0 1-.045.121.341.341 0 0 1-.132.099.343.343 0 0 1-.164.028ZM233.914 369.305a.277.277 0 0 1-.166 0l-5.58-3.137a.317.317 0 0 1-.119-.45.348.348 0 0 1 .462-.127l5.58 3.137a.315.315 0 0 1 .164.329.328.328 0 0 1-.045.121.331.331 0 0 1-.131.103.333.333 0 0 1-.165.024ZM233.914 366.145a.277.277 0 0 1-.166 0l-5.58-3.138a.325.325 0 0 1-.158-.2.312.312 0 0 1 .039-.249.348.348 0 0 1 .462-.127l5.58 3.137a.328.328 0 0 1 .157.201.307.307 0 0 1-.038.249.331.331 0 0 1-.131.103.333.333 0 0 1-.165.024ZM239.494 441.741a.726.726 0 0 1-.344-.093l-38.692-21.742-38.682 21.742a.702.702 0 0 1-.498.035.685.685 0 0 1-.39-.303.655.655 0 0 1 .201-.885l39.025-21.915a.668.668 0 0 1 .687 0l39.037 21.915a.665.665 0 0 1 .322.405.65.65 0 0 1-.074.506.688.688 0 0 1-.251.243.713.713 0 0 1-.341.092Z"/><path fill="#E0E0E0" d="M161.431 366.526a.71.71 0 0 1-.593-.335.662.662 0 0 1-.069-.511.685.685 0 0 1 .318-.411l39.025-21.916a.73.73 0 0 1 .687 0l39.037 21.916a.667.667 0 0 1 .248.922.691.691 0 0 1-.418.305.717.717 0 0 1-.518-.062l-38.693-21.754-38.681 21.754a.73.73 0 0 1-.343.092Z"/><path fill="#EBEBEB" d="m194.887 441.902 22.284-12.549V353.33l-22.284 12.527v76.045Z"/><path fill="#F5F5F5" d="m194.886 441.902-16.728-9.481v-75.977l16.728 9.412v76.046Z"/><path fill="#BA68C8" d="m217.171 353.33-16.716-9.412-22.297 12.526 16.728 9.412 22.285-12.526Z"/><path fill="#1D1125" d="m217.175 353.33-16.717-9.412-22.296 12.527 16.728 9.412 22.285-12.527Z" opacity=".3"/><path fill="#E0E0E0" d="M200.47 463.679a.721.721 0 0 1-.343-.092.645.645 0 0 1-.344-.577v-75.25a.68.68 0 0 1 .093-.337.702.702 0 0 1 .251-.251l39.024-21.915a.711.711 0 0 1 .692.002c.104.06.191.146.251.249.059.102.09.219.088.337v75.215a.66.66 0 0 1-.343.577l-39.037 21.915a.673.673 0 0 1-.332.127Zm.676-75.503v73.681l37.662-21.177v-73.681l-37.662 21.177Z"/><path fill="#E0E0E0" d="M200.47 463.679a.725.725 0 0 1-.344-.092l-39.036-21.915a.645.645 0 0 1-.344-.577v-75.25a.674.674 0 0 1 .34-.586.704.704 0 0 1 .691-.002l39.024 21.915a.694.694 0 0 1 .344.588v75.216a.677.677 0 0 1-.2.466.712.712 0 0 1-.475.203v.034Zm-38.35-22.999 37.663 21.177v-73.681l-37.663-21.177v73.681Z"/><path fill="#E0E0E0" d="M200.467 463.679a.637.637 0 0 1-.261 0 .678.678 0 0 1-.372-.357.654.654 0 0 1-.007-.508l39.025-97.153a.675.675 0 0 1 .628-.455.698.698 0 0 1 .504.19.67.67 0 0 1 .206.487.662.662 0 0 1-.058.262l-39.037 97.154a.661.661 0 0 1-.628.38ZM161.432 441.741a.72.72 0 0 1-.352-.106.668.668 0 0 1-.204-.955l39.024-53.277a.695.695 0 0 1 .446-.275c.18-.03.365.011.514.113a.657.657 0 0 1 .166.934l-39.037 53.277a.657.657 0 0 1-.241.212.705.705 0 0 1-.316.077ZM228.345 360.251a.695.695 0 0 1-.486-.196.662.662 0 0 1-.201-.473v-75.1c0-.177.073-.347.201-.473a.7.7 0 0 1 .972 0 .66.66 0 0 1 .201.473v75.1a.657.657 0 0 1-.201.473.694.694 0 0 1-.486.196ZM233.914 363.388a.694.694 0 0 1-.486-.196.657.657 0 0 1-.201-.473v-75.215a.66.66 0 0 1 .201-.473.694.694 0 0 1 .486-.196c.182 0 .357.07.486.196a.663.663 0 0 1 .201.473v75.215a.662.662 0 0 1-.201.473.695.695 0 0 1-.486.196Z"/><path fill="#E0E0E0" d="M233.912 359.905a.387.387 0 0 1-.166 0l-5.58-3.138a.324.324 0 0 1-.1-.088.326.326 0 0 1-.018-.373.323.323 0 0 1 .206-.153.345.345 0 0 1 .132-.007.343.343 0 0 1 .124.045l5.58 3.125a.338.338 0 0 1 .165.338.344.344 0 0 1-.046.124.349.349 0 0 1-.297.127ZM233.912 356.779a.387.387 0 0 1-.166 0l-5.58-3.137a.338.338 0 0 1-.158-.207.321.321 0 0 1 .04-.255.35.35 0 0 1 .087-.097.343.343 0 0 1 .375-.018l5.58 3.137a.315.315 0 0 1 .164.329.328.328 0 0 1-.045.121.362.362 0 0 1-.132.1.357.357 0 0 1-.165.027ZM233.914 353.642a.277.277 0 0 1-.166 0l-5.58-3.138a.325.325 0 0 1-.158-.2.312.312 0 0 1 .039-.249.348.348 0 0 1 .462-.127l5.58 3.137a.315.315 0 0 1 .157.2.312.312 0 0 1-.038.25.356.356 0 0 1-.296.127ZM233.914 350.505a.293.293 0 0 1-.166 0l-5.58-3.138a.325.325 0 0 1-.158-.2.312.312 0 0 1-.006-.129.346.346 0 0 1 .25-.276.358.358 0 0 1 .257.028l5.58 3.138a.322.322 0 0 1 .119.45.32.32 0 0 1-.131.102.323.323 0 0 1-.165.025ZM233.914 347.39a.277.277 0 0 1-.166 0l-5.58-3.137a.325.325 0 0 1-.158-.201.308.308 0 0 1-.006-.128.312.312 0 0 1 .045-.121.348.348 0 0 1 .462-.127l5.58 3.137a.336.336 0 0 1 .119.462.357.357 0 0 1-.296.115ZM233.912 344.23a.277.277 0 0 1-.166 0l-5.58-3.126a.338.338 0 0 1-.158-.207.321.321 0 0 1 .04-.254.35.35 0 0 1 .462-.127l5.58 3.137a.338.338 0 0 1 .165.338.333.333 0 0 1-.046.123.35.35 0 0 1-.297.116ZM233.912 341.092a.277.277 0 0 1-.166 0l-5.58-3.125a.338.338 0 0 1-.158-.207.322.322 0 0 1 .04-.255.315.315 0 0 1 .204-.158.32.32 0 0 1 .134-.005.309.309 0 0 1 .124.048l5.58 3.08a.334.334 0 0 1 .165.337.344.344 0 0 1-.046.124.346.346 0 0 1-.297.161ZM233.912 337.955a.387.387 0 0 1-.166 0l-5.58-3.137a.338.338 0 0 1-.158-.207.322.322 0 0 1 .04-.255.35.35 0 0 1 .087-.097.343.343 0 0 1 .375-.018l5.58 3.126a.324.324 0 0 1 .1.088.326.326 0 0 1 .019.373.362.362 0 0 1-.132.1.357.357 0 0 1-.165.027ZM233.912 334.829a.387.387 0 0 1-.166 0l-5.58-3.137a.338.338 0 0 1-.158-.207.321.321 0 0 1 .04-.255.332.332 0 0 1 .206-.153.345.345 0 0 1 .256.038l5.58 3.137a.322.322 0 0 1 .119.45.351.351 0 0 1-.297.127ZM233.914 331.692a.277.277 0 0 1-.166 0l-5.58-3.137a.325.325 0 0 1-.158-.201.308.308 0 0 1-.006-.128.312.312 0 0 1 .045-.121.348.348 0 0 1 .462-.127l5.58 3.137a.328.328 0 0 1 .157.201.307.307 0 0 1-.038.249.331.331 0 0 1-.131.103.333.333 0 0 1-.165.024ZM233.914 328.555a.293.293 0 0 1-.166 0l-5.58-3.138a.325.325 0 0 1-.158-.2.312.312 0 0 1-.006-.129.346.346 0 0 1 .507-.247l5.58 3.137a.315.315 0 0 1 .157.2.312.312 0 0 1-.038.25.32.32 0 0 1-.131.102.323.323 0 0 1-.165.025ZM233.914 325.475a.293.293 0 0 1-.166 0l-5.58-3.138a.325.325 0 0 1-.158-.2.312.312 0 0 1-.006-.129.346.346 0 0 1 .507-.247l5.58 3.137a.328.328 0 0 1 .119.461.341.341 0 0 1-.134.093.344.344 0 0 1-.162.023ZM233.912 322.28a.277.277 0 0 1-.166 0l-5.58-3.126a.338.338 0 0 1-.158-.207.321.321 0 0 1 .04-.254.35.35 0 0 1 .462-.127l5.58 3.137a.33.33 0 0 1 .119.461.34.34 0 0 1-.297.116ZM233.912 319.143a.277.277 0 0 1-.166 0l-5.58-3.126a.338.338 0 0 1-.158-.207.321.321 0 0 1 .04-.254.323.323 0 0 1 .206-.153.345.345 0 0 1 .256.037l5.58 3.115a.334.334 0 0 1 .165.337.344.344 0 0 1-.046.124.349.349 0 0 1-.297.127ZM233.912 316.005a.387.387 0 0 1-.166 0l-5.58-3.218a.334.334 0 0 1-.158-.206.326.326 0 0 1 .04-.255.33.33 0 0 1 .085-.101.33.33 0 0 1 .253-.063.341.341 0 0 1 .124.048l5.58 3.126a.338.338 0 0 1 .165.338.344.344 0 0 1-.046.124.347.347 0 0 1-.297.207ZM233.917 312.879a.387.387 0 0 1-.166 0l-5.58-3.137a.33.33 0 0 1 .094-.594.351.351 0 0 1 .249.017l5.58 3.138a.322.322 0 0 1 .119.45.341.341 0 0 1-.296.126ZM233.914 309.742a.387.387 0 0 1-.166 0l-5.58-3.137a.328.328 0 0 1-.158-.201.307.307 0 0 1-.006-.128.342.342 0 0 1 .25-.276.348.348 0 0 1 .257.028l5.58 3.137a.315.315 0 0 1 .164.329.328.328 0 0 1-.045.121.344.344 0 0 1-.296.127ZM233.914 306.604a.277.277 0 0 1-.166 0l-5.58-3.137a.315.315 0 0 1-.1-.085.312.312 0 0 1-.019-.365.346.346 0 0 1 .205-.155.353.353 0 0 1 .257.028l5.58 3.138a.322.322 0 0 1 .119.45.329.329 0 0 1-.296.126ZM233.914 303.467a.277.277 0 0 1-.166 0l-5.58-3.137a.328.328 0 0 1-.158-.201.307.307 0 0 1-.006-.128.342.342 0 0 1 .25-.276.348.348 0 0 1 .257.028l5.58 3.137a.322.322 0 0 1 .119.45.322.322 0 0 1-.296.127ZM233.914 300.33a.277.277 0 0 1-.166 0l-5.58-3.137a.328.328 0 0 1-.158-.201.307.307 0 0 1-.006-.128.342.342 0 0 1 .25-.276.348.348 0 0 1 .257.028l5.58 3.137a.336.336 0 0 1 .119.462.344.344 0 0 1-.296.115ZM233.912 297.193a.277.277 0 0 1-.166 0l-5.58-3.126a.33.33 0 0 1-.164-.338.316.316 0 0 1 .046-.123.33.33 0 0 1 .085-.101.33.33 0 0 1 .253-.063.324.324 0 0 1 .124.048l5.58 3.126a.338.338 0 0 1 .165.338.344.344 0 0 1-.046.124.349.349 0 0 1-.297.115ZM233.912 294.055a.277.277 0 0 1-.166 0l-5.58-3.183a.338.338 0 0 1-.158-.207.322.322 0 0 1 .04-.255.35.35 0 0 1 .087-.097.343.343 0 0 1 .375-.018l5.58 3.126a.324.324 0 0 1 .1.088.326.326 0 0 1 .019.373.345.345 0 0 1-.297.173ZM233.912 290.93a.422.422 0 0 1-.166 0l-5.58-3.138a.324.324 0 0 1-.1-.088.326.326 0 0 1-.018-.373.323.323 0 0 1 .206-.153.345.345 0 0 1 .132-.007.343.343 0 0 1 .124.045l5.58 3.137a.315.315 0 0 1 .157.2.312.312 0 0 1-.038.25.349.349 0 0 1-.297.127ZM161.431 366.526a.71.71 0 0 1-.593-.335.662.662 0 0 1-.069-.511.685.685 0 0 1 .318-.411l39.025-21.916a.73.73 0 0 1 .687 0l39.037 21.916a.667.667 0 0 1 .248.922.691.691 0 0 1-.418.305.717.717 0 0 1-.518-.062l-38.693-21.754-38.681 21.754a.73.73 0 0 1-.343.092Z"/><path fill="#E0E0E0" d="M161.431 291.299a.697.697 0 0 1-.416-.14.667.667 0 0 1-.243-.356.653.653 0 0 1 .027-.427.674.674 0 0 1 .288-.323l39.025-21.915a.72.72 0 0 1 .687 0l39.036 21.915c.142.096.241.24.278.404a.651.651 0 0 1-.076.48.684.684 0 0 1-.391.304.708.708 0 0 1-.498-.035l-38.693-21.742-38.681 21.742a.618.618 0 0 1-.343.093Z"/><path fill="#EBEBEB" d="m194.887 366.675 22.284-12.549v-76.023l-22.284 12.527v76.045Z"/><path fill="#F5F5F5" d="m194.886 366.675-16.728-9.469v-75.977l16.728 9.4v76.046Z"/><path fill="#BA68C8" d="m217.171 278.103-16.716-9.412-22.297 12.538 16.728 9.401 22.285-12.527Z"/><path fill="#1D1125" d="m217.175 278.104-16.717-9.412-22.296 12.537 16.728 9.401 22.285-12.526Z" opacity=".3"/><path fill="#E0E0E0" d="M200.47 388.464a.722.722 0 0 1-.343-.093.674.674 0 0 1-.344-.576v-75.227a.67.67 0 0 1 .344-.577l39.024-21.915a.725.725 0 0 1 .688 0 .665.665 0 0 1 .343.577v75.192a.67.67 0 0 1-.343.576l-39.037 21.916a.693.693 0 0 1-.332.127Zm.676-75.504v73.647l37.662-21.166v-73.647l-37.662 21.166Z"/><path fill="#E0E0E0" d="M200.47 388.464a.726.726 0 0 1-.344-.093l-39.036-21.915a.675.675 0 0 1-.344-.577v-75.25a.666.666 0 0 1 .344-.576.722.722 0 0 1 .687 0l39.024 21.915a.683.683 0 0 1 .344.577v75.215a.67.67 0 0 1-.344.577.69.69 0 0 1-.331.127Zm-38.35-23 37.663 21.143V312.96l-37.663-21.166v73.67Z"/><path fill="#E0E0E0" d="M200.467 388.463a.95.95 0 0 1-.261 0 .677.677 0 0 1-.372-.356.656.656 0 0 1-.007-.509l39.025-97.165a.68.68 0 0 1 .628-.455.699.699 0 0 1 .658.414.643.643 0 0 1-.006.526l-39.037 97.165a.655.655 0 0 1-.254.283.672.672 0 0 1-.374.097ZM161.432 366.526a.694.694 0 0 1-.6-.371.67.67 0 0 1 .044-.691l39.024-53.277a.693.693 0 0 1 .714-.268.678.678 0 0 1 .523.541.668.668 0 0 1-.111.5l-39.037 53.277a.666.666 0 0 1-.557.289ZM228.345 285.036a.7.7 0 0 1-.486-.196.665.665 0 0 1-.201-.473v-75.112c0-.177.073-.347.201-.473a.7.7 0 0 1 .972 0 .66.66 0 0 1 .201.473v75.112a.66.66 0 0 1-.201.473.698.698 0 0 1-.486.196ZM233.914 288.173a.692.692 0 0 1-.635-.413.644.644 0 0 1-.052-.256v-75.227a.66.66 0 0 1 .201-.473.698.698 0 0 1 .972 0 .663.663 0 0 1 .201.473v75.227a.662.662 0 0 1-.424.618.7.7 0 0 1-.263.051Z"/><path fill="#E0E0E0" d="M233.914 284.69a.293.293 0 0 1-.166 0l-5.58-3.138a.325.325 0 0 1-.158-.2.312.312 0 0 1 .039-.249.344.344 0 0 1 .205-.156.353.353 0 0 1 .257.029l5.58 3.137a.328.328 0 0 1 .119.461.354.354 0 0 1-.296.116ZM233.912 281.553a.293.293 0 0 1-.166 0l-5.58-3.126a.338.338 0 0 1-.158-.207.321.321 0 0 1 .04-.255.326.326 0 0 1 .204-.158.324.324 0 0 1 .258.043l5.58 3.126a.33.33 0 0 1 .119.461.349.349 0 0 1-.297.116ZM233.912 278.415a.387.387 0 0 1-.166 0l-5.58-3.137a.338.338 0 0 1-.158-.207.322.322 0 0 1 .04-.255.336.336 0 0 1 .462-.115l5.58 3.126a.324.324 0 0 1 .1.088.326.326 0 0 1 .019.373.349.349 0 0 1-.297.127ZM233.912 275.289a.387.387 0 0 1-.166 0l-5.58-3.137a.33.33 0 0 1-.164-.338.316.316 0 0 1 .046-.123.328.328 0 0 1 .338-.16.323.323 0 0 1 .124.044l5.58 3.149a.315.315 0 0 1 .157.201.306.306 0 0 1 .007.128.328.328 0 0 1-.045.121.349.349 0 0 1-.297.115ZM233.914 272.152a.387.387 0 0 1-.166 0l-5.58-3.195a.315.315 0 0 1-.1-.085.312.312 0 0 1-.019-.365.346.346 0 0 1 .205-.155.353.353 0 0 1 .257.028l5.58 3.138a.322.322 0 0 1 .119.449.348.348 0 0 1-.296.185ZM233.914 269.014a.277.277 0 0 1-.166 0l-5.58-3.137a.32.32 0 0 1-.158-.2.312.312 0 0 1-.006-.129.342.342 0 0 1 .25-.276.348.348 0 0 1 .257.028l5.58 3.138a.322.322 0 0 1 .119.449.322.322 0 0 1-.296.127ZM233.914 265.877a.277.277 0 0 1-.166 0l-5.58-3.137a.328.328 0 0 1-.158-.201.307.307 0 0 1-.006-.128.342.342 0 0 1 .25-.276.348.348 0 0 1 .257.028l5.58 3.137a.322.322 0 0 1 .119.45.322.322 0 0 1-.296.127ZM233.912 262.74a.277.277 0 0 1-.166 0l-5.58-3.126a.334.334 0 0 1-.158-.206.326.326 0 0 1 .04-.255.35.35 0 0 1 .462-.127l5.58 3.137a.338.338 0 0 1 .165.338.344.344 0 0 1-.046.124.349.349 0 0 1-.297.115ZM233.912 259.602a.277.277 0 0 1-.166 0l-5.58-3.126a.324.324 0 0 1-.1-.088.326.326 0 0 1-.018-.373.35.35 0 0 1 .462-.127l5.58 3.137a.338.338 0 0 1 .165.338.344.344 0 0 1-.046.124.349.349 0 0 1-.297.115ZM233.912 256.465a.387.387 0 0 1-.166 0l-5.58-3.137a.338.338 0 0 1-.158-.207.321.321 0 0 1 .04-.255.332.332 0 0 1 .206-.153.345.345 0 0 1 .256.038l5.58 3.126a.33.33 0 0 1 .119.461.351.351 0 0 1-.297.127ZM233.912 253.339a.387.387 0 0 1-.166 0l-5.58-3.137a.338.338 0 0 1-.158-.207.321.321 0 0 1 .04-.255.35.35 0 0 1 .087-.097.343.343 0 0 1 .375-.018l5.58 3.137a.315.315 0 0 1 .164.329.328.328 0 0 1-.045.121.351.351 0 0 1-.297.127ZM233.914 250.202a.387.387 0 0 1-.166 0l-5.58-3.16a.328.328 0 0 1-.158-.201.307.307 0 0 1-.006-.128.342.342 0 0 1 .25-.276.348.348 0 0 1 .257.028l5.58 3.137a.322.322 0 0 1 .119.45.357.357 0 0 1-.128.113.35.35 0 0 1-.168.037ZM233.914 247.042a.293.293 0 0 1-.166 0l-5.58-3.138a.325.325 0 0 1-.158-.2.312.312 0 0 1-.006-.129.346.346 0 0 1 .25-.276.358.358 0 0 1 .257.028l5.58 3.138a.322.322 0 0 1 .119.45.32.32 0 0 1-.131.102.323.323 0 0 1-.165.025ZM233.914 243.927a.277.277 0 0 1-.166 0l-5.58-3.137a.328.328 0 0 1-.158-.201.307.307 0 0 1-.006-.128.342.342 0 0 1 .25-.276.348.348 0 0 1 .257.028l5.58 3.138a.351.351 0 0 1 .101.087.336.336 0 0 1 .018.374.344.344 0 0 1-.296.115ZM233.912 240.79a.277.277 0 0 1-.166 0l-5.58-3.126a.324.324 0 0 1-.1-.088.326.326 0 0 1-.018-.373.35.35 0 0 1 .462-.127l5.58 3.045a.338.338 0 0 1 .165.338.344.344 0 0 1-.046.124.347.347 0 0 1-.297.207ZM233.912 237.652a.277.277 0 0 1-.166 0l-5.58-3.125a.338.338 0 0 1-.158-.207.321.321 0 0 1 .04-.255.347.347 0 0 1 .462-.127l5.58 3.138a.324.324 0 0 1 .1.088.326.326 0 0 1 .019.373.349.349 0 0 1-.297.115ZM233.912 234.515a.387.387 0 0 1-.166 0l-5.58-3.137a.338.338 0 0 1-.158-.207.321.321 0 0 1 .04-.255.326.326 0 0 1 .204-.158.324.324 0 0 1 .258.043l5.58 3.126a.33.33 0 0 1 .119.461.341.341 0 0 1-.297.127ZM233.917 231.39a.422.422 0 0 1-.166 0l-5.58-3.138a.33.33 0 0 1 .094-.594.357.357 0 0 1 .249.018l5.58 3.125a.338.338 0 0 1 .027.559.36.36 0 0 1-.204.076v-.046ZM233.912 228.252a.422.422 0 0 1-.166 0l-5.58-3.126a.334.334 0 0 1-.158-.206.326.326 0 0 1 .04-.255.323.323 0 0 1 .206-.153.345.345 0 0 1 .256.037l5.58 3.138a.322.322 0 0 1 .119.45.349.349 0 0 1-.297.115ZM233.914 225.126a.277.277 0 0 1-.166 0l-5.58-3.137a.328.328 0 0 1-.158-.201.307.307 0 0 1-.006-.128.342.342 0 0 1 .25-.276.348.348 0 0 1 .257.028l5.58 3.138a.322.322 0 0 1 .119.449.322.322 0 0 1-.296.127ZM233.914 221.978a.293.293 0 0 1-.166 0l-5.58-3.138a.325.325 0 0 1-.158-.2.312.312 0 0 1-.006-.129.346.346 0 0 1 .507-.247l5.58 3.137a.315.315 0 0 1 .157.2.312.312 0 0 1-.038.25.32.32 0 0 1-.131.102.323.323 0 0 1-.165.025ZM233.914 218.84a.277.277 0 0 1-.166 0l-5.58-3.137a.325.325 0 0 1-.158-.201.308.308 0 0 1-.006-.128.312.312 0 0 1 .045-.121.348.348 0 0 1 .462-.127l5.58 3.079a.336.336 0 0 1 .119.462.348.348 0 0 1-.296.173ZM233.912 215.703a.293.293 0 0 1-.166 0l-5.58-3.126a.338.338 0 0 1-.158-.207.321.321 0 0 1 .04-.255.326.326 0 0 1 .204-.158.324.324 0 0 1 .258.043l5.58 3.126a.33.33 0 0 1 .119.461.349.349 0 0 1-.297.116ZM161.431 291.299a.697.697 0 0 1-.416-.14.667.667 0 0 1-.243-.356.653.653 0 0 1 .027-.427.674.674 0 0 1 .288-.323l39.025-21.915a.72.72 0 0 1 .687 0l39.036 21.915c.142.096.241.24.278.404a.651.651 0 0 1-.076.48.684.684 0 0 1-.391.304.708.708 0 0 1-.498-.035l-38.693-21.742-38.681 21.742a.618.618 0 0 1-.343.093Z"/><path fill="#E0E0E0" d="M161.431 216.083a.703.703 0 0 1-.416-.139.67.67 0 0 1-.243-.356.652.652 0 0 1 .027-.427.67.67 0 0 1 .288-.323l39.025-21.915a.658.658 0 0 1 .687 0l39.036 21.915c.142.096.241.24.278.404a.651.651 0 0 1-.076.48.684.684 0 0 1-.391.304.708.708 0 0 1-.498-.035l-38.693-21.742-38.681 21.742a.71.71 0 0 1-.343.092Z"/><path fill="#EBEBEB" d="m194.887 291.46 22.284-12.549v-76.023l-22.284 12.527v76.045Z"/><path fill="#F5F5F5" d="m194.886 291.46-16.728-9.481v-75.965l16.728 9.4v76.046Z"/><path fill="#E0E0E0" d="m217.171 202.888-16.716-9.412-22.297 12.538 16.728 9.4 22.285-12.526ZM200.467 313.237a.676.676 0 0 1-.493-.189.626.626 0 0 1-.194-.48v-75.215a.654.654 0 0 1 .343-.577l39.025-21.915a.658.658 0 0 1 .687 0 .659.659 0 0 1 .344.576v75.216a.649.649 0 0 1-.344.576l-39.036 21.916a.666.666 0 0 1-.332.092Zm.675-75.504v73.681l37.662-21.165v-73.681l-37.662 21.165Z"/><path fill="#E0E0E0" d="M200.47 313.237a.72.72 0 0 1-.344-.081l-39.036-21.915a.671.671 0 0 1-.253-.243.643.643 0 0 1-.091-.334v-75.25a.648.648 0 0 1 .344-.576.658.658 0 0 1 .687 0l39.024 21.915a.664.664 0 0 1 .253.243c.06.101.092.216.091.334v75.215a.684.684 0 0 1-.344.588.666.666 0 0 1-.331.104Zm-38.35-22.988 37.663 21.166v-73.682l-37.663-21.165v73.681Z"/><path fill="#E0E0E0" d="M200.467 313.237a.638.638 0 0 1-.261 0 .678.678 0 0 1-.372-.357.654.654 0 0 1-.007-.508l39.025-97.153a.675.675 0 0 1 .628-.455.698.698 0 0 1 .504.19.67.67 0 0 1 .206.487.662.662 0 0 1-.058.262l-39.037 97.084a.645.645 0 0 1-.239.325.682.682 0 0 1-.389.125ZM161.434 291.299a.686.686 0 0 1-.58-.303.651.651 0 0 1-.09-.508.674.674 0 0 1 .113-.239l39.025-53.288a.693.693 0 0 1 .45-.273.709.709 0 0 1 .516.117.663.663 0 0 1 .16.94l-39.037 53.277a.679.679 0 0 1-.557.277ZM189.309 293.767v-12.538l-5.592-3.126.024 12.527 5.568 3.137Z"/><path fill="#000" d="M189.309 293.767v-12.538l-5.592-3.125.024 12.526 5.568 3.137Z" opacity=".15"/><path fill="#E0E0E0" d="M178.16 300.365a.387.387 0 0 1-.166 0 .345.345 0 0 1-.131-.126.316.316 0 0 1-.046-.174v-12.561a.306.306 0 0 1 .166-.288l11.16-6.275a.362.362 0 0 1 .343 0 .335.335 0 0 1 .166.288v12.538a.335.335 0 0 1-.166.289l-11.16 6.274a.378.378 0 0 1-.166.035Zm.344-12.688v11.765l10.461-5.882v-11.765l-10.461 5.882Z"/><path fill="#E0E0E0" d="M172.569 297.251a.36.36 0 0 1-.222-.08.34.34 0 0 1-.122-.197.321.321 0 0 1 .053-.251.35.35 0 0 1 .219-.141l16.752-3.138a.36.36 0 0 1 .258.052.319.319 0 0 1 .145.214.348.348 0 0 1-.06.246.37.37 0 0 1-.212.146l-16.752 3.137-.059.012ZM161.434 303.559a.33.33 0 0 1-.332-.265.316.316 0 0 1 .001-.13.333.333 0 0 1 .271-.262l16.741-3.149a.355.355 0 0 1 .257.052.333.333 0 0 1 .145.213.321.321 0 0 1-.052.251.352.352 0 0 1-.22.142l-16.74 3.148h-.071ZM150.293 309.788a.359.359 0 0 1-.215-.083.344.344 0 0 1-.117-.194.335.335 0 0 1 .273-.392l16.799-3.149a.375.375 0 0 1 .253.059.356.356 0 0 1 .15.207.325.325 0 0 1-.148.342.35.35 0 0 1-.125.05l-16.751 3.149-.119.011ZM139.171 316.052a.335.335 0 0 1-.316-.305.326.326 0 0 1 .062-.222.345.345 0 0 1 .194-.131l16.741-3.149a.355.355 0 0 1 .257.052.324.324 0 0 1 .145.213.321.321 0 0 1-.052.252.347.347 0 0 1-.22.141l-16.752 3.149h-.059ZM128.034 322.314a.35.35 0 0 1-.215-.095.326.326 0 0 1-.039-.431.344.344 0 0 1 .195-.131l16.74-3.103a.355.355 0 0 1 .258.052.343.343 0 0 1 .145.213.33.33 0 0 1-.149.343.345.345 0 0 1-.124.05l-16.74 3.148-.071-.046ZM116.909 328.589a.337.337 0 0 1-.22-.078.314.314 0 0 1-.112-.199.326.326 0 0 1 .048-.254.328.328 0 0 1 .098-.091.332.332 0 0 1 .126-.047l16.74-3.137a.34.34 0 0 1 .135.001.34.34 0 0 1 .268.264.339.339 0 0 1-.056.249.354.354 0 0 1-.216.143l-16.752 3.138-.059.011Z"/><path fill="#E0E0E0" d="M189.309 294.102a.293.293 0 0 1-.166 0l-11.16-6.264a.334.334 0 0 1-.165-.337.344.344 0 0 1 .046-.124.315.315 0 0 1 .205-.158.32.32 0 0 1 .257.043l11.16 6.263a.34.34 0 0 1 .119.461.357.357 0 0 1-.296.116Z"/><path fill="#E0E0E0" d="M178.159 300.365a.383.383 0 0 1-.165 0 .332.332 0 0 1-.131-.462l11.148-18.801a.343.343 0 0 1 .346-.169.34.34 0 0 1 .128.043.341.341 0 0 1 .119.461l-11.148 18.801a.345.345 0 0 1-.297.127Z"/><path fill="#E0E0E0" d="M167.037 306.639a.336.336 0 0 1-.178 0 .335.335 0 0 1-.166-.288v-12.584a.329.329 0 0 1 .166-.288l11.148-6.263a.31.31 0 0 1 .172-.051.31.31 0 0 1 .172.051.32.32 0 0 1 .178.288v12.526a.353.353 0 0 1-.178.3l-11.148 6.263a.272.272 0 0 1-.166.046Zm.332-12.687v11.765l10.461-5.883v-11.765l-10.461 5.883Z"/><path fill="#E0E0E0" d="M178.162 300.365a.484.484 0 0 1-.178 0l-11.148-6.275a.329.329 0 0 1-.13-.45.364.364 0 0 1 .474-.127l11.148 6.263a.332.332 0 0 1 .174.336.333.333 0 0 1-.044.126.357.357 0 0 1-.296.127Z"/><path fill="#E0E0E0" d="M167.034 306.639a.336.336 0 0 1-.178 0 .324.324 0 0 1-.1-.088.31.31 0 0 1-.058-.118.345.345 0 0 1-.007-.132.347.347 0 0 1 .046-.123l11.149-18.801a.314.314 0 0 1 .204-.158.336.336 0 0 1 .134-.006.332.332 0 0 1 .124.049.324.324 0 0 1 .173.327.307.307 0 0 1-.043.123l-11.148 18.8a.343.343 0 0 1-.296.127Z"/><path fill="#E0E0E0" d="M155.853 312.903a.383.383 0 0 1-.165 0 .37.37 0 0 1-.126-.123.348.348 0 0 1-.052-.166V300.1a.315.315 0 0 1 .047-.169.33.33 0 0 1 .131-.12l11.148-6.274a.351.351 0 0 1 .343 0 .332.332 0 0 1 .166.288v12.538a.335.335 0 0 1-.166.288l-11.148 6.275a.513.513 0 0 1-.178-.023Zm.344-12.688v11.765l10.473-5.883v-11.765l-10.473 5.883Z"/><path fill="#E0E0E0" d="M167.034 306.639a.332.332 0 0 1-.177 0l-11.149-6.263a.343.343 0 0 1-.164-.204.328.328 0 0 1 .034-.257.324.324 0 0 1 .211-.159.329.329 0 0 1 .136-.005.332.332 0 0 1 .127.048l11.148 6.263a.332.332 0 0 1 .131.462.36.36 0 0 1-.297.115Z"/><path fill="#E0E0E0" d="M155.853 312.903a.422.422 0 0 1-.166 0 .332.332 0 0 1-.174-.336.333.333 0 0 1 .044-.126l11.148-18.801a.336.336 0 0 1 .089-.099.343.343 0 0 1 .256-.069.348.348 0 0 1 .231.128.332.332 0 0 1 .028.375l-11.148 18.812a.368.368 0 0 1-.308.116Z"/><path fill="#E0E0E0" d="M144.705 319.177a.277.277 0 0 1-.166 0 .334.334 0 0 1-.178-.288v-12.584a.335.335 0 0 1 .178-.288l11.148-6.264a.317.317 0 0 1 .344 0c.052.029.096.07.125.121a.3.3 0 0 1 .041.168v12.538a.348.348 0 0 1-.166.288l-11.148 6.263a.33.33 0 0 1-.178.046Zm.343-12.687v11.765l10.462-5.883v-11.765l-10.462 5.883Z"/><path fill="#E0E0E0" d="M155.851 312.903a.422.422 0 0 1-.166 0l-11.16-6.31a.334.334 0 0 1-.223-.34.342.342 0 0 1 .422-.299.343.343 0 0 1 .132.063l11.16 6.263c.04.022.074.052.101.088a.326.326 0 0 1 .018.373.336.336 0 0 1-.121.116.36.36 0 0 1-.163.046Z"/><path fill="#E0E0E0" d="M144.706 319.177a.273.273 0 0 1-.165 0 .335.335 0 0 1-.175-.336.328.328 0 0 1 .044-.125l11.148-18.801a.308.308 0 0 1 .089-.101.333.333 0 0 1 .385-.015.328.328 0 0 1 .158.201.307.307 0 0 1 .006.128.312.312 0 0 1-.045.121l-11.148 18.801a.331.331 0 0 1-.131.103.335.335 0 0 1-.166.024Z"/><path fill="#E0E0E0" d="M133.555 325.475a.484.484 0 0 1-.178 0 .348.348 0 0 1-.166-.288V312.58a.316.316 0 0 1 .166-.289l11.16-6.274a.335.335 0 0 1 .332 0 .308.308 0 0 1 .178.288v12.538a.31.31 0 0 1-.178.288l-11.148 6.275a.4.4 0 0 1-.166.069Zm.343-12.688v11.765l10.461-5.882v-11.765l-10.461 5.882Z"/><path fill="#E0E0E0" d="M144.703 319.177a.277.277 0 0 1-.166 0l-11.16-6.263a.324.324 0 0 1-.1-.088.326.326 0 0 1-.018-.373.312.312 0 0 1 .204-.158.326.326 0 0 1 .258.043l11.148 6.263a.337.337 0 0 1 .174.336.298.298 0 0 1-.044.125.348.348 0 0 1-.296.115Z"/><path fill="#E0E0E0" d="M133.557 325.475a.484.484 0 0 1-.178 0 .337.337 0 0 1-.118-.462l11.148-18.801a.35.35 0 0 1 .084-.1.35.35 0 0 1 .252-.069c.044.006.087.02.126.043.04.021.075.05.103.085a.319.319 0 0 1 .071.251.334.334 0 0 1-.044.125l-11.136 18.732a.35.35 0 0 1-.308.196Z"/><path fill="#E0E0E0" d="M122.406 331.715a.336.336 0 0 1-.178 0 .335.335 0 0 1-.165-.288v-12.584a.324.324 0 0 1 .043-.166.342.342 0 0 1 .122-.123l11.149-6.263a.312.312 0 0 1 .343 0 .323.323 0 0 1 .178.288v12.538a.348.348 0 0 1-.052.166.37.37 0 0 1-.126.123l-11.148 6.263a.286.286 0 0 1-.166.046Zm.332-12.688v11.765l10.461-5.882v-11.765l-10.461 5.882Z"/><path fill="#E0E0E0" d="M133.555 325.475a.484.484 0 0 1-.178 0l-11.148-6.275a.343.343 0 0 1-.103-.083.311.311 0 0 1-.07-.244.34.34 0 0 1 .252-.283.369.369 0 0 1 .136-.01.364.364 0 0 1 .129.043l11.148 6.263a.332.332 0 0 1 .174.337.334.334 0 0 1-.044.125.357.357 0 0 1-.296.127Z"/><path fill="#E0E0E0" d="M122.409 331.715a.336.336 0 0 1-.178 0 .307.307 0 0 1-.162-.199.3.3 0 0 1 .044-.251l11.148-18.812a.312.312 0 0 1 .204-.158.326.326 0 0 1 .258.043.317.317 0 0 1 .164.197.316.316 0 0 1-.034.252l-11.148 18.801a.344.344 0 0 1-.296.127ZM172.569 297.251a.532.532 0 0 1-.178 0 .335.335 0 0 1-.166-.289v-12.584a.306.306 0 0 1 .166-.288l11.148-6.275a.368.368 0 0 1 .344 0 .346.346 0 0 1 .128.121.325.325 0 0 1 .049.168v12.537a.327.327 0 0 1-.177.289l-11.149 6.275a.411.411 0 0 1-.165.046Zm.343-12.688v11.776l10.461-5.882V278.68l-10.461 5.883Z"/><path fill="#E0E0E0" d="M183.715 290.976a.336.336 0 0 1-.178 0l-11.148-6.263a.338.338 0 0 1-.158-.207.321.321 0 0 1 .04-.255.318.318 0 0 1 .087-.096.32.32 0 0 1 .119-.057.345.345 0 0 1 .256.038l11.148 6.263a.343.343 0 0 1 .165.204.327.327 0 0 1-.035.258.345.345 0 0 1-.296.115Z"/><path fill="#E0E0E0" d="M172.567 297.251a.532.532 0 0 1-.178 0 .338.338 0 0 1-.158-.207.322.322 0 0 1 .04-.255l11.148-18.801a.338.338 0 0 1 .203-.159.331.331 0 0 1 .259.032.343.343 0 0 1 .165.204.327.327 0 0 1-.035.258l-11.148 18.801a.378.378 0 0 1-.296.127Z"/><path fill="#E0E0E0" d="M161.418 303.56a.358.358 0 0 1-.178 0 .308.308 0 0 1-.165-.289v-12.63a.33.33 0 0 1 .177-.288l11.149-6.263a.357.357 0 0 1 .474.12.32.32 0 0 1 .047.168v12.538a.328.328 0 0 1-.178.288l-11.148 6.263a.278.278 0 0 1-.178.093Zm.332-12.688v11.765l10.461-5.883v-11.765l-10.461 5.883Z"/><path fill="#E0E0E0" d="M172.567 297.251a.358.358 0 0 1-.178 0l-11.148-6.275a.317.317 0 0 1-.164-.198.313.313 0 0 1 .034-.252.34.34 0 0 1 .209-.16.366.366 0 0 1 .136-.01.37.37 0 0 1 .129.043l11.148 6.275a.323.323 0 0 1 .173.327.307.307 0 0 1-.043.123.354.354 0 0 1-.296.127Z"/><path fill="#E0E0E0" d="M161.421 303.56a.344.344 0 0 1-.301-.161.329.329 0 0 1-.007-.335l11.16-18.813a.332.332 0 0 1 .206-.153.345.345 0 0 1 .256.038.334.334 0 0 1 .164.198.313.313 0 0 1-.034.252l-11.148 18.812a.343.343 0 0 1-.127.118.366.366 0 0 1-.169.044Z"/><path fill="#E0E0E0" d="M150.26 309.788a.387.387 0 0 1-.166 0 .335.335 0 0 1-.178-.288v-12.584a.32.32 0 0 1 .178-.288l11.148-6.275a.368.368 0 0 1 .344 0 .35.35 0 0 1 .122.123c.029.05.044.107.043.165v12.538a.308.308 0 0 1-.165.289l-11.137 6.274a.495.495 0 0 1-.189.046Zm.343-12.687v11.776l10.461-5.882V291.23l-10.461 5.871Z"/><path fill="#E0E0E0" d="M161.407 303.56a.293.293 0 0 1-.166 0l-11.148-6.264a.326.326 0 0 1-.103-.085.323.323 0 0 1-.027-.376.35.35 0 0 1 .09-.098.341.341 0 0 1 .257-.062.357.357 0 0 1 .127.045l11.148 6.263a.334.334 0 0 1 .165.338.33.33 0 0 1-.047.123.348.348 0 0 1-.296.116Z"/><path fill="#E0E0E0" d="M150.259 309.788a.387.387 0 0 1-.166 0 .326.326 0 0 1-.103-.085.327.327 0 0 1-.027-.376l11.148-18.801a.34.34 0 0 1 .21-.16.362.362 0 0 1 .135-.01.364.364 0 0 1 .129.043.338.338 0 0 1 .165.338.329.329 0 0 1-.047.124l-11.148 18.801a.341.341 0 0 1-.296.126Z"/><path fill="#E0E0E0" d="M139.113 316.052a.293.293 0 0 1-.166 0 .327.327 0 0 1-.177-.289v-12.584a.335.335 0 0 1 .165-.288l11.16-6.252a.368.368 0 0 1 .344 0 .31.31 0 0 1 .166.289v12.538a.329.329 0 0 1-.166.288l-11.16 6.263a.281.281 0 0 1-.166.035Zm.344-12.688v11.73l10.461-5.882v-11.765l-10.461 5.917Z"/><path fill="#E0E0E0" d="M150.259 309.788a.277.277 0 0 1-.166 0l-11.16-6.274a.352.352 0 0 1-.099-.085.317.317 0 0 1-.019-.365.35.35 0 0 1 .462-.127l11.16 6.275a.33.33 0 0 1 .118.449.324.324 0 0 1-.296.127Z"/><path fill="#E0E0E0" d="M139.112 316.051a.277.277 0 0 1-.166 0 .317.317 0 0 1-.164-.198.33.33 0 0 1-.01-.129.325.325 0 0 1 .044-.123l11.148-18.812a.347.347 0 0 1 .61.092.323.323 0 0 1-.018.242l-11.148 18.813a.345.345 0 0 1-.296.115Z"/><path fill="#E0E0E0" d="M127.943 322.326a.532.532 0 0 1-.178 0 .35.35 0 0 1-.122-.123.318.318 0 0 1-.043-.165v-12.584a.324.324 0 0 1 .043-.166.359.359 0 0 1 .122-.123l11.149-6.274a.35.35 0 0 1 .171-.043.351.351 0 0 1 .301.164c.031.05.048.108.049.167v12.538a.32.32 0 0 1-.178.288l-11.148 6.275a.4.4 0 0 1-.166.046Zm.344-12.688v11.765l10.461-5.882v-11.765l-10.461 5.882Z"/><path fill="#E0E0E0" d="M139.112 316.052a.354.354 0 0 1-.177 0l-11.148-6.264a.33.33 0 0 1-.131-.461.354.354 0 0 1 .214-.149.357.357 0 0 1 .26.034l11.148 6.263a.333.333 0 0 1 .131.461.354.354 0 0 1-.134.092.377.377 0 0 1-.163.024Z"/><path fill="#E0E0E0" d="M127.94 322.326a.532.532 0 0 1-.178 0 .33.33 0 0 1-.164-.338.301.301 0 0 1 .046-.123l11.148-18.801a.33.33 0 0 1 .336-.17c.044.006.087.02.126.043.04.021.075.05.104.085a.327.327 0 0 1 .026.376l-11.148 18.801a.366.366 0 0 1-.296.127Z"/><path fill="#E0E0E0" d="M116.807 328.589a.277.277 0 0 1-.166 0 .306.306 0 0 1-.166-.288v-12.584a.328.328 0 0 1 .178-.288l11.148-6.263a.355.355 0 0 1 .472.12.335.335 0 0 1 .049.168v12.561a.328.328 0 0 1-.178.288l-11.148 6.263a.33.33 0 0 1-.189.023Zm.343-12.687v11.765l10.473-5.883v-11.765l-10.473 5.883Z"/><path fill="#E0E0E0" d="M127.94 322.326a.336.336 0 0 1-.178 0l-11.148-6.275a.317.317 0 0 1-.164-.197.318.318 0 0 1 .034-.253.343.343 0 0 1 .345-.169c.045.006.089.02.129.043l11.148 6.274a.32.32 0 0 1 .13.45.344.344 0 0 1-.296.127Z"/><path fill="#E0E0E0" d="M122.406 331.715a.332.332 0 0 1-.177 0l-5.592-3.126a.345.345 0 0 1-.166-.196.454.454 0 0 1 0-.253l11.184-18.813a.36.36 0 0 1 .474-.115.329.329 0 0 1 .13.45l-10.982 18.478 5.295 2.952a.334.334 0 0 1 .164.198.313.313 0 0 1-.033.252.351.351 0 0 1-.125.126.355.355 0 0 1-.172.047ZM189.309 262.428V249.89l-5.592-3.125.024 12.526 5.568 3.137Z"/><path fill="#000" d="M189.309 262.428v-12.537l-5.592-3.126.024 12.526 5.568 3.137Z" opacity=".15"/><path fill="#E0E0E0" d="M178.16 269.026a.273.273 0 0 1-.165 0 .303.303 0 0 1-.135-.118.292.292 0 0 1-.043-.17v-12.584a.325.325 0 0 1 .044-.166.342.342 0 0 1 .122-.123l11.16-6.263a.363.363 0 0 1 .343 0 .308.308 0 0 1 .166.289v12.537a.325.325 0 0 1-.044.166.342.342 0 0 1-.122.123l-11.16 6.24a.272.272 0 0 1-.166.069Zm.344-12.688v11.765l10.461-5.882v-11.719l-10.461 5.836Z"/><path fill="#E0E0E0" d="M172.569 265.912a.36.36 0 0 1-.222-.079.346.346 0 0 1-.122-.198.321.321 0 0 1 .053-.251.333.333 0 0 1 .219-.141l16.752-3.149a.365.365 0 0 1 .256.055.321.321 0 0 1 .095.461.336.336 0 0 1-.096.092.372.372 0 0 1-.124.05l-16.752 3.148-.059.012ZM161.434 272.175a.342.342 0 0 1-.22-.078.32.32 0 0 1-.112-.199.321.321 0 0 1 .053-.251.35.35 0 0 1 .219-.141l16.741-3.138a.355.355 0 0 1 .257.051.32.32 0 0 1 .145.214.321.321 0 0 1-.052.252.347.347 0 0 1-.22.141l-16.74 3.137-.071.012ZM150.294 278.438a.335.335 0 0 1-.316-.305.33.33 0 0 1 .062-.222.344.344 0 0 1 .195-.131l16.799-3.149a.355.355 0 0 1 .258.052.333.333 0 0 1 .092.465.351.351 0 0 1-.22.141l-16.752 3.149h-.118ZM139.172 284.712a.335.335 0 0 1-.219-.077.32.32 0 0 1-.112-.199.295.295 0 0 1-.003-.132.3.3 0 0 1 .051-.122.34.34 0 0 1 .224-.139l16.74-3.148a.357.357 0 0 1 .403.265.321.321 0 0 1-.053.251.333.333 0 0 1-.22.141l-16.751 3.149-.06.011ZM128.035 290.975a.353.353 0 0 1-.331-.265.316.316 0 0 1 .052-.251.35.35 0 0 1 .22-.141l16.74-3.149a.35.35 0 0 1 .258.052.328.328 0 0 1 .092.464.344.344 0 0 1-.22.142l-16.74 3.148h-.071ZM116.908 297.25a.352.352 0 0 1-.252-.077.337.337 0 0 1-.122-.228.333.333 0 0 1 .08-.245.35.35 0 0 1 .234-.119l16.74-3.148a.34.34 0 0 1 .258.051.324.324 0 0 1 .145.214.316.316 0 0 1-.052.251.35.35 0 0 1-.22.141l-16.752 3.149-.059.011Z"/><path fill="#E0E0E0" d="M189.308 262.763a.293.293 0 0 1-.166 0l-11.16-6.275a.311.311 0 0 1-.099-.085.312.312 0 0 1-.019-.365.344.344 0 0 1 .204-.155.356.356 0 0 1 .258.028l11.16 6.275c.075.045.13.118.152.202a.326.326 0 0 1-.034.248.326.326 0 0 1-.296.127Z"/><path fill="#E0E0E0" d="M178.163 269.026a.277.277 0 0 1-.166 0 .32.32 0 0 1-.164-.198.313.313 0 0 1 .034-.252l11.148-18.812a.35.35 0 0 1 .61.092.328.328 0 0 1-.018.242l-11.148 18.813a.344.344 0 0 1-.296.115Z"/><path fill="#E0E0E0" d="M167.035 275.301a.526.526 0 0 1-.177 0 .335.335 0 0 1-.166-.289v-12.583a.308.308 0 0 1 .166-.289l11.148-6.275a.365.365 0 0 1 .343 0 .335.335 0 0 1 .178.289v12.538a.314.314 0 0 1-.047.168.33.33 0 0 1-.131.12l-11.148 6.275a.4.4 0 0 1-.166.046Zm.332-12.688v11.777l10.461-5.883v-11.776l-10.461 5.882Z"/><path fill="#E0E0E0" d="M178.161 269.026a.358.358 0 0 1-.178 0l-11.148-6.263a.336.336 0 0 1-.181-.203.336.336 0 0 1 .031-.267.355.355 0 0 1 .094-.103.355.355 0 0 1 .4-.004l11.148 6.263a.343.343 0 0 1 .165.204.327.327 0 0 1-.035.257.346.346 0 0 1-.134.092.372.372 0 0 1-.162.024Z"/><path fill="#E0E0E0" d="M167.034 275.301a.532.532 0 0 1-.178 0 .352.352 0 0 1-.1-.088.322.322 0 0 1-.065-.25.344.344 0 0 1 .046-.124l11.149-18.801a.335.335 0 0 1 .084-.1.35.35 0 0 1 .252-.069c.044.006.087.02.126.043a.339.339 0 0 1 .165.204.326.326 0 0 1-.035.257l-11.148 18.801a.366.366 0 0 1-.296.127Z"/><path fill="#E0E0E0" d="M155.853 281.564a.29.29 0 0 1-.165 0 .33.33 0 0 1-.131-.12.315.315 0 0 1-.047-.169v-12.584a.328.328 0 0 1 .178-.288l11.148-6.263a.362.362 0 0 1 .343 0 .306.306 0 0 1 .166.288v12.538a.335.335 0 0 1-.166.288l-11.148 6.263a.337.337 0 0 1-.178.047Zm.344-12.688v11.765l10.473-5.883v-11.765l-10.473 5.883Z"/><path fill="#E0E0E0" d="M167.036 275.301a.358.358 0 0 1-.178 0l-11.172-6.344a.32.32 0 0 1-.13-.45.34.34 0 0 1 .209-.161.364.364 0 0 1 .265.034l11.148 6.275a.317.317 0 0 1 .164.198.313.313 0 0 1-.034.252.35.35 0 0 1-.109.133.355.355 0 0 1-.163.063Z"/><path fill="#E0E0E0" d="M155.852 281.564a.312.312 0 0 1-.166 0 .32.32 0 0 1-.13-.45l11.148-18.813a.35.35 0 0 1 .474-.115.32.32 0 0 1 .164.198.313.313 0 0 1-.034.252l-11.148 18.812a.354.354 0 0 1-.14.094.383.383 0 0 1-.168.022Z"/><path fill="#E0E0E0" d="M144.705 287.839a.422.422 0 0 1-.166 0 .335.335 0 0 1-.178-.289v-12.584a.325.325 0 0 1 .166-.242l11.148-6.275a.368.368 0 0 1 .344 0 .335.335 0 0 1 .166.289v12.538a.31.31 0 0 1-.166.288l-11.148 6.275a.514.514 0 0 1-.166 0Zm.343-12.688v11.765l10.462-5.883v-11.765l-10.462 5.883Z"/><path fill="#E0E0E0" d="M155.851 281.564a.293.293 0 0 1-.166 0l-11.16-6.31a.337.337 0 0 1-.174-.336.318.318 0 0 1 .044-.125.338.338 0 0 1 .462-.115l11.16 6.263a.334.334 0 0 1 .158.206.326.326 0 0 1-.04.255.336.336 0 0 1-.121.116.36.36 0 0 1-.163.046Z"/><path fill="#E0E0E0" d="M144.706 287.839a.417.417 0 0 1-.165 0 .335.335 0 0 1-.175-.337.334.334 0 0 1 .044-.125l11.148-18.801a.346.346 0 0 1 .346-.169.339.339 0 0 1 .229.13.336.336 0 0 1 .018.374l-11.148 18.801a.349.349 0 0 1-.297.127Z"/><path fill="#E0E0E0" d="M133.555 294.102a.358.358 0 0 1-.178 0 .316.316 0 0 1-.166-.289v-12.584a.329.329 0 0 1 .166-.288l11.148-6.217a.345.345 0 0 1 .332 0 .296.296 0 0 1 .134.118c.032.051.047.11.044.17v12.538a.308.308 0 0 1-.178.288l-11.148 6.264a.288.288 0 0 1-.154 0Zm.343-12.688v11.765l10.461-5.883v-11.765l-10.461 5.883Z"/><path fill="#E0E0E0" d="M144.704 287.839a.29.29 0 0 1-.165 0l-11.16-6.275a.32.32 0 0 1-.158-.2.312.312 0 0 1-.006-.129.342.342 0 0 1 .25-.276.348.348 0 0 1 .257.028l11.148 6.275a.317.317 0 0 1 .164.198.297.297 0 0 1 .01.129.34.34 0 0 1-.043.123.325.325 0 0 1-.297.127Z"/><path fill="#E0E0E0" d="M133.556 294.102a.336.336 0 0 1-.178 0 .335.335 0 0 1-.152-.202.326.326 0 0 1 .034-.248l11.148-18.813a.318.318 0 0 1 .087-.096.328.328 0 0 1 .251-.063.323.323 0 0 1 .124.044.334.334 0 0 1 .164.198.319.319 0 0 1-.034.252l-11.136 18.766a.334.334 0 0 1-.131.122.365.365 0 0 1-.177.04Z"/><path fill="#E0E0E0" d="M122.407 300.376a.484.484 0 0 1-.178 0 .33.33 0 0 1-.213-.276v-12.596a.318.318 0 0 1 .043-.165.337.337 0 0 1 .123-.123l11.148-6.275a.362.362 0 0 1 .472.121.331.331 0 0 1 .049.167v12.538a.324.324 0 0 1-.178.289l-11.148 6.274a.397.397 0 0 1-.118.046Zm.331-12.687v11.765l10.461-5.883v-11.765l-10.461 5.883Z"/><path fill="#E0E0E0" d="M133.556 294.102a.358.358 0 0 1-.178 0l-11.148-6.263a.332.332 0 0 1-.174-.337.334.334 0 0 1 .256-.279.36.36 0 0 1 .262.039l11.148 6.263a.343.343 0 0 1 .165.204.327.327 0 0 1-.035.257.354.354 0 0 1-.296.116Z"/><path fill="#E0E0E0" d="M122.406 300.376a.484.484 0 0 1-.178 0 .32.32 0 0 1-.119-.461l11.149-18.801a.334.334 0 0 1 .336-.169c.044.005.087.02.126.042a.343.343 0 0 1 .165.204.327.327 0 0 1-.035.257l-11.148 18.801a.366.366 0 0 1-.296.127ZM172.568 265.9a.479.479 0 0 1-.177 0 .335.335 0 0 1-.166-.3v-12.561a.334.334 0 0 1 .166-.299l11.148-6.264a.363.363 0 0 1 .343 0 .335.335 0 0 1 .178.289v12.538a.331.331 0 0 1-.178.288l-11.148 6.275a.392.392 0 0 1-.166.034Zm.344-12.688v11.766l10.461-5.883V247.33l-10.461 5.882Z"/><path fill="#E0E0E0" d="M183.715 259.637a.336.336 0 0 1-.178 0l-11.148-6.263a.33.33 0 0 1-.164-.338.307.307 0 0 1 .046-.123.334.334 0 0 1 .336-.169c.044.005.087.02.126.042l11.148 6.274a.337.337 0 0 1 .159.2.326.326 0 0 1-.029.25.326.326 0 0 1-.296.127Z"/><path fill="#E0E0E0" d="M172.567 265.9a.484.484 0 0 1-.178 0 .324.324 0 0 1-.1-.088.326.326 0 0 1-.018-.373l11.148-18.801a.315.315 0 0 1 .085-.1.33.33 0 0 1 .251-.069c.044.005.087.02.126.042a.343.343 0 0 1 .165.204.327.327 0 0 1-.035.257l-11.148 18.801a.368.368 0 0 1-.132.099.37.37 0 0 1-.164.028Z"/><path fill="#E0E0E0" d="M161.422 272.175a.358.358 0 0 1-.178 0 .335.335 0 0 1-.166-.289v-12.584a.331.331 0 0 1 .178-.288l11.148-6.275a.368.368 0 0 1 .344 0 .373.373 0 0 1 .128.128.35.35 0 0 1 .049.172v12.538a.336.336 0 0 1-.177.288l-11.149 6.264a.277.277 0 0 1-.177.046Zm.331-12.688v11.777l10.461-5.883v-11.765l-10.461 5.871Z"/><path fill="#E0E0E0" d="M172.567 265.911a.484.484 0 0 1-.178 0l-11.148-6.274a.334.334 0 0 1-.164-.198.316.316 0 0 1 .034-.252.34.34 0 0 1 .209-.161.346.346 0 0 1 .265.034l11.148 6.275a.32.32 0 0 1 .13.449.366.366 0 0 1-.296.127Z"/><path fill="#E0E0E0" d="M161.42 272.175a.336.336 0 0 1-.178 0 .329.329 0 0 1-.13-.45l11.16-18.812a.33.33 0 0 1 .336-.169.344.344 0 0 1 .257.503l-11.149 18.813a.36.36 0 0 1-.296.115Z"/><path fill="#E0E0E0" d="M150.26 278.438a.387.387 0 0 1-.166 0 .352.352 0 0 1-.178-.3v-12.561a.323.323 0 0 1 .178-.288l11.148-6.275a.368.368 0 0 1 .344 0 .35.35 0 0 1 .122.123.324.324 0 0 1 .043.166v12.537a.324.324 0 0 1-.043.166.359.359 0 0 1-.122.123l-11.137 6.274a.488.488 0 0 1-.189.035Zm.343-12.688v11.765l10.461-5.882v-11.765l-10.461 5.882Z"/><path fill="#E0E0E0" d="M161.407 272.175a.277.277 0 0 1-.166 0l-11.148-6.263a.343.343 0 0 1-.165-.204.327.327 0 0 1 .035-.258.34.34 0 0 1 .088-.101.348.348 0 0 1 .259-.063.346.346 0 0 1 .127.049l11.148 6.263a.338.338 0 0 1 .165.338.318.318 0 0 1-.047.123.34.34 0 0 1-.296.116Z"/><path fill="#E0E0E0" d="M150.259 278.438a.387.387 0 0 1-.166 0 .343.343 0 0 1-.165-.204.327.327 0 0 1 .035-.257l11.148-18.801a.34.34 0 0 1 .345-.17.345.345 0 0 1 .229.131.334.334 0 0 1 .065.25.33.33 0 0 1-.047.123l-11.148 18.801a.344.344 0 0 1-.296.127Z"/><path fill="#E0E0E0" d="M139.113 284.713a.277.277 0 0 1-.166 0 .349.349 0 0 1-.129-.121.321.321 0 0 1-.048-.168v-12.583a.335.335 0 0 1 .165-.289l11.16-6.263a.318.318 0 0 1 .344 0 .31.31 0 0 1 .166.288v12.538a.335.335 0 0 1-.166.289l-11.16 6.263a.286.286 0 0 1-.166.046Zm.344-12.688v11.765l10.461-5.882v-11.765l-10.461 5.882Z"/><path fill="#E0E0E0" d="M150.259 278.45a.422.422 0 0 1-.166 0l-11.16-6.275a.322.322 0 0 1-.118-.45.347.347 0 0 1 .462-.127l11.16 6.275a.332.332 0 0 1 .118.45.345.345 0 0 1-.296.127Z"/><path fill="#E0E0E0" d="M139.109 284.713a.29.29 0 0 1-.165 0 .339.339 0 0 1-.16-.2.326.326 0 0 1 .029-.25l11.149-18.813a.326.326 0 0 1 .21-.159.335.335 0 0 1 .263.044.327.327 0 0 1 .119.45l-11.148 18.812a.36.36 0 0 1-.297.116Z"/><path fill="#E0E0E0" d="M127.938 290.976a.484.484 0 0 1-.178 0 .346.346 0 0 1-.166-.3v-12.561a.31.31 0 0 1 .166-.288l11.148-6.275a.368.368 0 0 1 .344 0c.053.029.097.07.129.121a.32.32 0 0 1 .048.167v12.538a.324.324 0 0 1-.048.168.357.357 0 0 1-.129.121l-11.148 6.274a.381.381 0 0 1-.166.035Zm.343-12.688v11.765l10.461-5.882v-11.754l-10.461 5.871Z"/><path fill="#E0E0E0" d="M139.112 284.712a.332.332 0 0 1-.177 0l-11.148-6.263a.33.33 0 0 1-.131-.461.343.343 0 0 1 .347-.164.318.318 0 0 1 .127.049l11.148 6.263a.332.332 0 0 1 .131.461.365.365 0 0 1-.297.115Z"/><path fill="#E0E0E0" d="M127.94 290.976a.484.484 0 0 1-.178 0 .338.338 0 0 1-.158-.207.321.321 0 0 1 .04-.255l11.148-18.801a.338.338 0 0 1 .203-.159.35.35 0 0 1 .133-.01.354.354 0 0 1 .291.246.33.33 0 0 1-.035.258l-11.124 18.824a.357.357 0 0 1-.32.104Z"/><path fill="#E0E0E0" d="M116.806 297.25a.277.277 0 0 1-.166 0 .324.324 0 0 1-.165-.288v-12.584a.33.33 0 0 1 .177-.288l11.149-6.263a.31.31 0 0 1 .343 0 .334.334 0 0 1 .131.119c.031.051.047.11.047.169v12.538a.328.328 0 0 1-.178.288l-11.148 6.263a.332.332 0 0 1-.19.046Zm.344-12.687v11.765l10.473-5.883V278.68l-10.473 5.883Z"/><path fill="#E0E0E0" d="M127.94 290.987a.484.484 0 0 1-.178 0l-11.148-6.274a.334.334 0 0 1-.164-.198.313.313 0 0 1 .034-.252.34.34 0 0 1 .209-.161.346.346 0 0 1 .265.034l11.148 6.275a.32.32 0 0 1 .13.45.375.375 0 0 1-.296.126Z"/><path fill="#E0E0E0" d="M122.407 300.376a.484.484 0 0 1-.178 0l-5.592-3.126a.388.388 0 0 1-.166-.196.457.457 0 0 1 0-.254l11.149-18.812a.324.324 0 0 1 .088-.1.364.364 0 0 1 .257-.068.338.338 0 0 1 .231.128.332.332 0 0 1 .028.374l-10.983 18.455 5.296 2.965a.317.317 0 0 1 .164.197.32.32 0 0 1-.034.253.365.365 0 0 1-.26.184ZM189.309 368.982v-12.537l-5.592-3.115.024 12.515 5.568 3.137Z"/><path fill="#000" d="M189.309 368.983v-12.538l-5.592-3.114.024 12.514 5.568 3.138Z" opacity=".15"/><path fill="#E0E0E0" d="M178.16 375.592a.422.422 0 0 1-.166 0 .317.317 0 0 1-.132-.119.3.3 0 0 1-.045-.17v-12.584a.335.335 0 0 1 .165-.288l11.16-6.275a.368.368 0 0 1 .344 0 .335.335 0 0 1 .166.289v12.537a.31.31 0 0 1-.166.289l-11.16 6.274a.402.402 0 0 1-.166.047Zm.344-12.688v11.765l10.461-5.883v-11.765l-10.461 5.883Z"/><path fill="#E0E0E0" d="M172.569 372.466a.365.365 0 0 1-.219-.075.343.343 0 0 1-.125-.191.325.325 0 0 1 .053-.251.347.347 0 0 1 .219-.141l16.752-3.149a.354.354 0 0 1 .258.052.33.33 0 0 1 .092.465.347.347 0 0 1-.219.141l-16.752 3.149h-.059ZM161.434 378.729a.325.325 0 0 1-.219-.07.313.313 0 0 1-.113-.195.321.321 0 0 1 .053-.251.35.35 0 0 1 .219-.141l16.741-3.149a.342.342 0 0 1 .402.396.33.33 0 0 1-.148.212.35.35 0 0 1-.124.049l-16.74 3.149h-.071ZM150.293 385.003a.351.351 0 0 1-.332-.276.33.33 0 0 1 .149-.343.338.338 0 0 1 .124-.05l16.799-3.137a.35.35 0 0 1 .258.052.329.329 0 0 1 .092.464.344.344 0 0 1-.22.142l-16.751 3.137-.119.011ZM139.172 391.221a.329.329 0 0 1-.218-.071.306.306 0 0 1-.113-.195.312.312 0 0 1 .145-.345.342.342 0 0 1 .127-.047l16.74-3.149a.355.355 0 0 1 .258.052.32.32 0 0 1 .094.093.325.325 0 0 1-.002.372.347.347 0 0 1-.22.141l-16.751 3.149h-.06ZM128.035 397.541a.356.356 0 0 1-.331-.277.316.316 0 0 1 .052-.251.343.343 0 0 1 .22-.141l16.74-3.149a.355.355 0 0 1 .258.052.333.333 0 0 1 .092.465.343.343 0 0 1-.22.141l-16.74 3.149-.071.011ZM116.911 403.805a.346.346 0 0 1-.215-.096.328.328 0 0 1-.039-.431.344.344 0 0 1 .195-.131l16.74-3.149a.355.355 0 0 1 .258.052.333.333 0 0 1 .092.465.347.347 0 0 1-.22.141l-16.752 3.149h-.059Z"/><path fill="#E0E0E0" d="M189.307 369.305a.277.277 0 0 1-.166 0l-11.16-6.263a.334.334 0 0 1-.139-.202.326.326 0 0 1 .038-.24.343.343 0 0 1 .196-.152.357.357 0 0 1 .249.017l11.16 6.264a.347.347 0 0 1 .153.207.337.337 0 0 1-.035.254.345.345 0 0 1-.296.115Z"/><path fill="#E0E0E0" d="M178.159 375.592a.29.29 0 0 1-.165 0 .332.332 0 0 1-.131-.462l11.148-18.801a.343.343 0 0 1 .346-.169c.045.005.089.02.128.043a.342.342 0 0 1 .119.461l-11.148 18.801a.358.358 0 0 1-.297.127Z"/><path fill="#E0E0E0" d="M167.035 381.854a.332.332 0 0 1-.177 0 .306.306 0 0 1-.166-.288v-12.584a.335.335 0 0 1 .166-.288l11.148-6.263a.355.355 0 0 1 .472.12.335.335 0 0 1 .049.168v12.538a.328.328 0 0 1-.178.288l-11.148 6.263a.27.27 0 0 1-.166.046Zm.332-12.687v11.765l10.461-5.883v-11.765l-10.461 5.883Z"/><path fill="#E0E0E0" d="M178.161 375.591a.336.336 0 0 1-.178 0l-11.148-6.286a.317.317 0 0 1-.164-.198.297.297 0 0 1-.01-.129.34.34 0 0 1 .043-.123.36.36 0 0 1 .474-.127l11.148 6.275a.334.334 0 0 1 .165.198.317.317 0 0 1-.034.252.344.344 0 0 1-.296.138Z"/><path fill="#E0E0E0" d="M167.036 381.854a.34.34 0 0 1-.339-.33c0-.058.014-.115.043-.166l11.148-18.812a.346.346 0 0 1 .462-.115.317.317 0 0 1 .164.197.316.316 0 0 1-.033.252l-11.149 18.813a.355.355 0 0 1-.296.161Z"/><path fill="#E0E0E0" d="M155.853 388.129a.383.383 0 0 1-.165 0 .328.328 0 0 1-.178-.288v-12.584a.328.328 0 0 1 .178-.288l11.148-6.275a.362.362 0 0 1 .343 0 .335.335 0 0 1 .166.288v12.538a.308.308 0 0 1-.166.288l-11.148 6.275a.498.498 0 0 1-.178.046Zm.344-12.687v11.765l10.473-5.883v-11.765l-10.473 5.883Z"/><path fill="#E0E0E0" d="M167.034 381.855a.332.332 0 0 1-.177 0l-11.149-6.263a.343.343 0 0 1-.164-.204.333.333 0 0 1 .034-.258.362.362 0 0 1 .474-.115l11.148 6.263a.332.332 0 0 1 .131.461.37.37 0 0 1-.297.116Z"/><path fill="#E0E0E0" d="M155.853 388.129a.293.293 0 0 1-.166 0 .337.337 0 0 1-.174-.336.334.334 0 0 1 .044-.125l11.148-18.801a.352.352 0 0 1 .21-.159.342.342 0 0 1 .135-.009.348.348 0 0 1 .231.128.332.332 0 0 1 .028.375l-11.148 18.801a.39.39 0 0 1-.308.126Z"/><path fill="#E0E0E0" d="M144.705 394.393a.293.293 0 0 1-.166 0 .327.327 0 0 1-.178-.289V381.52a.331.331 0 0 1 .178-.288l11.148-6.263a.368.368 0 0 1 .344 0 .335.335 0 0 1 .166.288v12.503a.335.335 0 0 1-.166.289l-11.148 6.263a.338.338 0 0 1-.178.081Zm.343-12.688v11.823l10.462-5.883V375.88l-10.462 5.825Z"/><path fill="#E0E0E0" d="M155.852 388.129a.273.273 0 0 1-.165 0l-11.16-6.309a.34.34 0 0 1-.131-.461.348.348 0 0 1 .462-.127l11.16 6.274a.322.322 0 0 1 .119.45.322.322 0 0 1-.285.173Z"/><path fill="#E0E0E0" d="M144.706 394.392a.277.277 0 0 1-.166 0 .317.317 0 0 1-.164-.197.316.316 0 0 1 .033-.252l11.149-18.871a.365.365 0 0 1 .474-.115.336.336 0 0 1 .157.201.307.307 0 0 1 .006.128.312.312 0 0 1-.045.121l-11.148 18.812a.34.34 0 0 1-.296.173Z"/><path fill="#E0E0E0" d="M133.554 400.667a.526.526 0 0 1-.177 0 .335.335 0 0 1-.166-.288V387.76a.329.329 0 0 1 .166-.288l11.16-6.275a.34.34 0 0 1 .332 0 .307.307 0 0 1 .177.288v12.538a.286.286 0 0 1-.043.171.32.32 0 0 1-.134.118l-11.149 6.274a.385.385 0 0 1-.166.081Zm.344-12.688v11.765l10.461-5.882v-11.754l-10.461 5.871Z"/><path fill="#E0E0E0" d="M144.702 394.392a.277.277 0 0 1-.166 0l-11.16-6.263a.33.33 0 0 1 .094-.594.351.351 0 0 1 .249.017l11.149 6.264a.326.326 0 0 1 .164.204.31.31 0 0 1 .01.132.334.334 0 0 1-.044.125.344.344 0 0 1-.296.115Z"/><path fill="#E0E0E0" d="M133.557 400.667a.336.336 0 0 1-.178 0 .338.338 0 0 1-.118-.462l11.148-18.8a.341.341 0 0 1 .084-.101.35.35 0 0 1 .252-.069c.044.006.087.02.126.043.04.021.075.05.103.085a.323.323 0 0 1 .027.376l-11.136 18.709a.32.32 0 0 1-.308.219Z"/><path fill="#E0E0E0" d="M122.406 406.93a.332.332 0 0 1-.177 0 .306.306 0 0 1-.166-.288v-12.584a.329.329 0 0 1 .166-.288l11.148-6.263a.357.357 0 0 1 .172-.043.357.357 0 0 1 .3.163.325.325 0 0 1 .049.168v12.538a.33.33 0 0 1-.177.288l-11.149 6.263a.27.27 0 0 1-.166.046Zm.332-12.687v11.765l10.461-5.883V388.36l-10.461 5.883Z"/><path fill="#E0E0E0" d="M133.554 400.667a.332.332 0 0 1-.177 0l-11.149-6.263a.335.335 0 0 1-.13-.461.352.352 0 0 1 .474-.127l11.148 6.274a.328.328 0 0 1 .04.551.348.348 0 0 1-.206.072v-.046Z"/><path fill="#E0E0E0" d="M122.409 406.93a.336.336 0 0 1-.178 0 .308.308 0 0 1-.118-.449l11.148-18.813a.348.348 0 0 1 .462-.115.317.317 0 0 1 .164.198.313.313 0 0 1-.034.252l-11.148 18.812a.365.365 0 0 1-.296.115ZM172.568 372.466a.358.358 0 0 1-.178 0 .35.35 0 0 1-.122-.123.324.324 0 0 1-.043-.166v-12.584a.318.318 0 0 1 .043-.165.342.342 0 0 1 .122-.123l11.149-6.263a.312.312 0 0 1 .343 0 .323.323 0 0 1 .178.288v12.515a.335.335 0 0 1-.178.288l-11.148 6.264a.28.28 0 0 1-.166.069Zm.344-12.688v11.834l10.461-5.882v-11.765l-10.461 5.813Z"/><path fill="#E0E0E0" d="M183.718 366.203a.532.532 0 0 1-.178 0l-11.148-6.275a.322.322 0 0 1-.118-.45.332.332 0 0 1 .203-.159.331.331 0 0 1 .259.032l11.148 6.275a.32.32 0 0 1 .164.198.313.313 0 0 1-.034.252.345.345 0 0 1-.296.127Z"/><path fill="#E0E0E0" d="M172.569 372.466a.353.353 0 0 1-.292-.166.332.332 0 0 1-.047-.165c0-.058.015-.114.043-.165l11.148-18.813a.326.326 0 0 1 .205-.158.314.314 0 0 1 .133-.005.318.318 0 0 1 .124.048.334.334 0 0 1 .164.198.317.317 0 0 1-.033.252l-11.148 18.812a.36.36 0 0 1-.297.162Z"/><path fill="#E0E0E0" d="M161.422 378.729a.484.484 0 0 1-.178 0 .34.34 0 0 1-.166-.289v-12.595c0-.059.016-.118.047-.169a.334.334 0 0 1 .131-.119l11.148-6.275a.368.368 0 0 1 .344 0 .33.33 0 0 1 .177.288v12.538a.336.336 0 0 1-.177.288l-11.149 6.275a.395.395 0 0 1-.177.058Zm.331-12.688v11.765l10.461-5.883v-11.765l-10.461 5.883Z"/><path fill="#E0E0E0" d="M172.568 372.466a.336.336 0 0 1-.178 0l-11.148-6.263a.332.332 0 0 1-.131-.462.337.337 0 0 1 .091-.097.341.341 0 0 1 .256-.063.357.357 0 0 1 .127.045l11.148 6.263a.335.335 0 0 1 .175.336.328.328 0 0 1-.044.125.354.354 0 0 1-.296.116Z"/><path fill="#E0E0E0" d="M161.419 378.729a.479.479 0 0 1-.177 0 .333.333 0 0 1-.131-.461l11.16-18.801a.326.326 0 0 1 .336-.169c.045.005.088.02.126.042a.335.335 0 0 1 .175.336.328.328 0 0 1-.044.125l-11.148 18.732a.355.355 0 0 1-.297.196Z"/><path fill="#E0E0E0" d="M150.26 385.004a.293.293 0 0 1-.166 0 .335.335 0 0 1-.178-.289v-12.584a.328.328 0 0 1 .178-.288l11.148-6.263a.318.318 0 0 1 .343 0 .312.312 0 0 1 .166.288v12.538a.318.318 0 0 1-.043.165.345.345 0 0 1-.123.123l-11.136 6.263a.34.34 0 0 1-.189.047Zm.343-12.688v11.765l10.461-5.883v-11.765l-10.461 5.883Z"/><path fill="#E0E0E0" d="M161.407 378.74a.387.387 0 0 1-.166 0l-11.148-6.274a.334.334 0 0 1-.165-.198.316.316 0 0 1 .034-.252.348.348 0 0 1 .474-.127l11.148 6.275a.325.325 0 0 1 .158.2.312.312 0 0 1-.039.249.334.334 0 0 1-.132.1.355.355 0 0 1-.164.027Z"/><path fill="#E0E0E0" d="M150.26 385.004a.293.293 0 0 1-.166 0 .337.337 0 0 1-.159-.2.321.321 0 0 1 .029-.25l11.148-18.859a.35.35 0 0 1 .09-.098.341.341 0 0 1 .257-.062.357.357 0 0 1 .226.129.325.325 0 0 1 .065.245.313.313 0 0 1-.046.121l-11.148 18.812a.335.335 0 0 1-.126.119.36.36 0 0 1-.17.043Z"/><path fill="#E0E0E0" d="M139.113 391.22a.383.383 0 0 1-.165 0 .36.36 0 0 1-.178-.288v-12.526a.308.308 0 0 1 .166-.289l11.16-6.274a.354.354 0 0 1 .172-.043.35.35 0 0 1 .171.043.335.335 0 0 1 .166.288v12.538a.335.335 0 0 1-.166.288l-11.16 6.263a.387.387 0 0 1-.166 0Zm.344-12.687v11.765l10.461-5.883v-11.65l-10.461 5.768Z"/><path fill="#E0E0E0" d="M150.26 385.004a.293.293 0 0 1-.166 0l-11.16-6.263a.338.338 0 0 1-.158-.207.322.322 0 0 1 .04-.255.334.334 0 0 1 .462-.115l11.16 6.263a.349.349 0 0 1 .153.208.335.335 0 0 1-.035.253.345.345 0 0 1-.296.116Z"/><path fill="#E0E0E0" d="M139.113 391.22a.387.387 0 0 1-.166 0 .332.332 0 0 1-.131-.461l11.149-18.801a.34.34 0 0 1 .209-.161.365.365 0 0 1 .265.034.349.349 0 0 1 .153.208.334.334 0 0 1-.035.253l-11.148 18.801a.334.334 0 0 1-.132.1.355.355 0 0 1-.164.027Z"/><path fill="#E0E0E0" d="M127.943 397.542a.358.358 0 0 1-.178 0 .359.359 0 0 1-.122-.123.324.324 0 0 1-.043-.166v-12.584a.318.318 0 0 1 .043-.165.35.35 0 0 1 .122-.123l11.149-6.263a.312.312 0 0 1 .343 0 .323.323 0 0 1 .178.288v12.538a.335.335 0 0 1-.178.288l-11.148 6.264a.286.286 0 0 1-.166.046Zm.344-12.688v11.765l10.461-5.883v-11.765l-10.461 5.883Z"/><path fill="#E0E0E0" d="M139.112 391.278a.532.532 0 0 1-.178 0l-11.148-6.275a.317.317 0 0 1-.164-.198.313.313 0 0 1 .034-.252.343.343 0 0 1 .345-.169c.045.005.089.02.128.043l11.149 6.274a.32.32 0 0 1 .13.45.366.366 0 0 1-.296.127Z"/><path fill="#E0E0E0" d="M127.94 397.541a.353.353 0 0 1-.292-.166.332.332 0 0 1-.004-.33l11.148-18.812a.337.337 0 0 1 .463-.116.342.342 0 0 1 .164.198.317.317 0 0 1-.034.252l-11.148 18.812a.36.36 0 0 1-.297.162Z"/><path fill="#E0E0E0" d="M116.806 403.816a.387.387 0 0 1-.166 0 .345.345 0 0 1-.165-.288v-12.584a.32.32 0 0 1 .177-.288l11.149-6.275a.362.362 0 0 1 .472.121.331.331 0 0 1 .049.167v12.538a.335.335 0 0 1-.178.289l-11.148 6.274a.5.5 0 0 1-.19.046Zm.344-12.687v11.765l10.473-5.883v-11.765l-10.473 5.883Z"/><path fill="#E0E0E0" d="M127.938 397.541a.332.332 0 0 1-.177 0l-11.125-6.321a.326.326 0 0 1-.103-.085.323.323 0 0 1-.027-.376.35.35 0 0 1 .09-.098.341.341 0 0 1 .257-.062.357.357 0 0 1 .127.045l11.148 6.263a.344.344 0 0 1 .165.204.327.327 0 0 1-.035.257.351.351 0 0 1-.32.173Z"/><path fill="#E0E0E0" d="M122.406 406.93a.336.336 0 0 1-.178 0l-5.592-3.114a.376.376 0 0 1-.166-.208.476.476 0 0 1 0-.254l11.149-18.8a.352.352 0 0 1 .474-.127.335.335 0 0 1 .13.461l-10.947 18.466 5.296 2.953a.343.343 0 0 1 .165.204.327.327 0 0 1-.035.258.357.357 0 0 1-.296.161Z"/><path fill="#37474F" d="m103.054 574.989-3.08-31.846H33.96l-3.068 31.846c-.64 5.629 2.831 11.373 10.485 15.664 14.133 7.936 37.034 7.936 51.144 0 7.677-4.291 11.148-10.035 10.532-15.664Z"/><path fill="#BA68C8" d="m102.307 567.192-1.031-10.681c-.936 4.118-4.205 8.074-9.82 11.246-13.507 7.59-35.412 7.59-48.942 0-5.615-3.16-8.897-7.128-9.845-11.234l-1.03 10.669c.84 4.383 4.23 8.639 10.212 11.996 13.885 7.797 36.395 7.797 50.268 0 5.97-3.357 9.359-7.613 10.188-11.996Z"/><path fill="#000" d="M52.905 590.895c-5.746-3.679-10.177-7.832-5.675-31.592l.593-16.148H33.96l-3.068 31.846c-.64 5.629 2.831 11.373 10.485 15.663 14.133 7.936 37.034 7.936 51.144 0-11.053 4.718-33.871 3.899-39.617.231Z" opacity=".2"/><path fill="#455A64" d="M43.583 557.538c-12.926-7.255-12.926-19.032 0-26.298 12.925-7.267 33.883-7.267 46.796 0 12.913 7.266 12.937 19.043 0 26.298-12.937 7.255-33.86 7.266-46.796 0ZM68.049 519.947h-1.055c-14.986.162-28.326-3.622-37.567-10.727a7.983 7.983 0 0 1-2.062-2.354 7.784 7.784 0 0 1-.98-2.943 7.728 7.728 0 0 1 .253-3.084 7.85 7.85 0 0 1 1.444-2.755 8.092 8.092 0 0 1 2.418-2.007 8.271 8.271 0 0 1 3.023-.954 8.356 8.356 0 0 1 3.168.245c1.029.283 1.99.761 2.83 1.407 6.338 4.867 16.065 7.474 27.355 7.301h.237c11.302.127 21.017-2.434 27.355-7.301a8.209 8.209 0 0 1 2.83-1.407 8.357 8.357 0 0 1 3.168-.245 8.276 8.276 0 0 1 3.023.954 8.101 8.101 0 0 1 2.418 2.007 7.859 7.859 0 0 1 1.444 2.755 7.71 7.71 0 0 1 .252 3.084 7.783 7.783 0 0 1-.979 2.943 7.993 7.993 0 0 1-2.062 2.354c-9.028 6.932-21.953 10.727-36.513 10.727Z"/><path fill="#37474F" d="M34.34 507.491c2.452 0 11.634 6.678 32.118 6.678s34.143-7.832 40.683-13.841a7.675 7.675 0 0 0-1.256-2.215 8.074 8.074 0 0 0-2.417-2.012 8.284 8.284 0 0 0-3.025-.957 8.35 8.35 0 0 0-3.17.245 8.233 8.233 0 0 0-2.832 1.409c-6.338 4.868-16.053 7.428-27.355 7.301h-.237c-11.29.173-21.017-2.433-27.355-7.301a8.224 8.224 0 0 0-2.83-1.406 8.357 8.357 0 0 0-3.168-.246 8.309 8.309 0 0 0-3.023.954 8.092 8.092 0 0 0-2.418 2.007 7.864 7.864 0 0 0-1.445 2.756 7.73 7.73 0 0 0 .728 6.027 7.997 7.997 0 0 0 2.062 2.354c9.24 7.105 22.58 10.888 37.567 10.727a68.854 68.854 0 0 1-23.694-4.614c-8.092-2.976-11.302-7.866-8.933-7.866Z"/><path fill="#FBE3FF" d="M115.019 439.726c0 1.281-.106 2.549-.154 3.807-.071 1.499-.13 2.975-.189 4.429 0 1.257-.119 2.491-.178 3.702v1.061c-.083 1.765-.166 3.461-.237 5.145-.13 2.768-.272 5.386-.391 7.843 0 .784-.083 1.569-.118 2.307-.107 2.088-.214 4.014-.308 5.767 0 .646-.06 1.269-.095 1.869-.036.599 0 .888 0 1.303-.071 1.027-.119 1.972-.166 2.814v1.096c0 .346 0 .646-.071.946 0 .992-.095 1.788-.13 2.307h-.072v1.003c0 6.644-4.679 12.953-13.197 17.729-8.518 4.775-20.247 7.578-32.58 7.578-12.333 0-23.896-2.688-32.58-7.578-8.684-4.891-13.198-11.085-13.198-17.729v-1.003h-.07v-.969c0-.381 0-.657-.072-1.05-.07-.392 0-.715-.059-1.153-.06-.438 0-.611 0-.934 0-.981-.119-2.111-.19-3.357 0-.611-.059-1.257-.106-1.926-.119-2.399-.26-5.167-.427-8.236 0-.772-.083-1.568-.118-2.376 0-.992-.107-2.03-.154-3.091a627.252 627.252 0 0 1-.391-8.397 832.882 832.882 0 0 1-.332-7.289 737.967 737.967 0 0 1-.237-5.71 35.493 35.493 0 0 0 8.056 7.336 66.903 66.903 0 0 0 6.042 3.46c2.133.923 4.218 1.961 6.445 2.676a85.56 85.56 0 0 0 54.995 0c2.227-.715 4.312-1.753 6.445-2.676a66.888 66.888 0 0 0 6.042-3.46 35.868 35.868 0 0 0 7.795-7.244Z"/><path fill="#E0E0E0" d="M116.086 438.284c-.794 19.793-1.73 37.268-2.31 46.956 0 6.725-4.573 13.449-13.719 18.605-9.146 5.156-21.1 7.694-33.09 7.694-11.989 0-23.954-2.561-33.088-7.694-9.135-5.133-13.708-11.88-13.708-18.605a2551.385 2551.385 0 0 1-2.298-46.944c.332.507.687 1.003 1.078 1.488.912 22.088 1.931 39.978 2.18 44.453h.071v1.003c0 6.644 4.739 12.953 13.198 17.729 8.459 4.775 20.259 7.578 32.58 7.578 12.32 0 23.907-2.688 32.58-7.578 8.671-4.891 13.197-11.085 13.197-17.729v-1.003h.071c.261-4.475 1.28-22.365 2.192-44.453.391-.554.746-1.038 1.066-1.5Z"/><path fill="#E0E0E0" d="M17.873 438.284c.332.508.687 1.004 1.078 1.488a35.493 35.493 0 0 0 8.056 7.336 66.903 66.903 0 0 0 6.042 3.46c2.133.923 4.218 1.961 6.445 2.676a85.452 85.452 0 0 0 54.995 0 55.65 55.65 0 0 0 12.487-6.101 35.911 35.911 0 0 0 8.044-7.325c.391-.496.746-.98 1.078-1.499l-98.225-.035Z"/><path fill="#E0E0E0" d="M66.995 459.75c27.121 0 49.107-9.636 49.107-21.523s-21.986-21.523-49.107-21.523c-27.12 0-49.106 9.636-49.106 21.523s21.985 21.523 49.106 21.523Z"/><path fill="#263238" d="M117.07 457.281a4.415 4.415 0 0 0-2.17-.44 4.385 4.385 0 0 0-2.107.671 13.34 13.34 0 0 0-4.607 4.401 12.893 12.893 0 0 0-1.98 5.98l-.865 45.641c-.049.39.01.786.17 1.147.161.361.417.674.742.906l2.926 1.834a2.33 2.33 0 0 0 2.287-.104l2.677-1.338a7.253 7.253 0 0 0 2.399-2.218 7.029 7.029 0 0 0 1.155-3.018l3.863-47.475c.166-2.03-.451-3.461-1.564-4.176l-2.926-1.811Z"/><path fill="#37474F" d="M111.468 517.352c-1.813.9-3.258 0-3.211-1.96l.865-45.63c.152-2.12.832-4.173 1.979-5.981a13.323 13.323 0 0 1 4.608-4.4c3.554-1.776 6.184 0 5.864 3.956l-3.862 47.475a7.045 7.045 0 0 1-1.155 3.019 7.273 7.273 0 0 1-2.399 2.218l-2.689 1.303Z"/><path fill="#455A64" d="m117.07 457.281 2.927 1.834a4.353 4.353 0 0 0-4.289.231c-2.696 1.529-4.752 3.935-5.805 6.794l-2.926-1.834c1.065-2.856 3.123-5.259 5.817-6.794a4.384 4.384 0 0 1 2.106-.671 4.41 4.41 0 0 1 2.17.44Z"/><path fill="#BA68C8" d="m120.923 469.577-2.642-1.661-3.08 1.545-3.767 74.374c3.068 1.914 5.994 2.145 8.423.922l3.068-1.534c3.045-1.511 5.32-5.294 6.102-10.865l4.265-30.497c1.67-11.961-4.171-27.105-12.369-32.284Z"/><path fill="#1D1125" d="m120.921 469.577-2.642-1.661-3.08 1.546-3.767 74.373c3.068 1.915 5.994 2.146 8.423.923l3.068-1.534c3.045-1.511 5.32-5.294 6.102-10.866l4.265-30.496c1.67-11.961-4.171-27.106-12.369-32.285Z" opacity=".2"/><path fill="#BA68C8" d="m111.434 543.835 3.767-74.408 2.642 1.661c8.234 5.168 14.039 20.324 12.368 32.296l-4.276 30.509c-1.398 10.011-7.606 14.268-14.501 9.942Z"/><path fill="#000" d="m111.434 543.835 3.767-74.408 2.642 1.661c8.234 5.168 14.039 20.324 12.368 32.296l-4.276 30.509c-1.398 10.011-7.606 14.268-14.501 9.942Z" opacity=".2"/><path fill="#000" d="M126.053 533.051c-.675 4.879-5.77 6.528-9.205 2.607-3.436-3.922-4.55-8.859-3.791-23.969l-1.623 32.146c6.895 4.326 13.103.07 14.501-9.931l.118-.853Z" opacity=".2"/><path fill="#263238" d="M16.915 457.281a4.413 4.413 0 0 1 2.17-.44c.75.041 1.477.272 2.107.671a13.337 13.337 0 0 1 4.607 4.401 12.897 12.897 0 0 1 1.98 5.98l.865 45.641c.046.39-.014.785-.174 1.146-.16.36-.415.673-.738.907l-2.867 1.869a2.317 2.317 0 0 1-1.158.248 2.31 2.31 0 0 1-1.129-.352l-2.677-1.338a7.281 7.281 0 0 1-2.398-2.219 7.045 7.045 0 0 1-1.157-3.017l-3.862-47.476c-.154-2.03.462-3.46 1.576-4.175l2.855-1.846Z"/><path fill="#37474F" d="M22.493 517.352c1.813.9 3.246 0 3.21-1.96l-.84-45.63a12.887 12.887 0 0 0-1.98-5.981 13.324 13.324 0 0 0-4.608-4.4c-3.554-1.776-6.184 0-5.923 3.956l3.862 47.475a7.044 7.044 0 0 0 1.157 3.018 7.282 7.282 0 0 0 2.397 2.219l2.725 1.303Z"/><path fill="#455A64" d="m16.915 457.281-2.938 1.834a4.384 4.384 0 0 1 4.3.231c2.696 1.529 4.752 3.935 5.805 6.794l2.927-1.834c-1.066-2.856-3.124-5.259-5.817-6.794a4.386 4.386 0 0 0-2.107-.671 4.413 4.413 0 0 0-2.17.44Z"/><path fill="#BA68C8" d="m13.017 469.577 2.641-1.661 3.08 1.545 3.768 74.374c-3.068 1.914-5.995 2.145-8.423.922l-3.021-1.511c-3.045-1.511-5.32-5.294-6.102-10.865L.695 501.884c-1.682-11.984 4.123-27.128 12.322-32.307Z"/><path fill="#1D1125" d="m13.018 469.577 2.642-1.661 3.08 1.546 3.768 74.373c-3.068 1.915-5.995 2.146-8.423.923l-3.021-1.511c-3.045-1.511-5.32-5.294-6.102-10.865L.697 501.885c-1.682-11.984 4.123-27.129 12.322-32.308Z" opacity=".2"/><path fill="#BA68C8" d="m22.555 543.835-3.767-74.408-2.642 1.661c-8.234 5.168-14.039 20.324-12.368 32.296l4.265 30.509c1.421 10.011 7.617 14.268 14.512 9.942Z"/><path fill="#000" d="m22.555 543.835-3.767-74.408-2.642 1.661c-8.234 5.168-14.039 20.324-12.368 32.296l4.265 30.509c1.421 10.011 7.617 14.268 14.512 9.942Z" opacity=".2"/><path fill="#000" d="M7.924 533.051c.687 4.879 5.781 6.528 9.217 2.607 3.436-3.922 4.55-8.859 3.78-23.969l1.634 32.146c-6.895 4.326-13.103.07-14.513-9.931l-.118-.853Z" opacity=".2"/><path fill="#FBE3FF" d="M116.632 353.485v.057a.67.67 0 0 1 0 .219v8.074c0 1.869-.059 3.761-.082 5.664 0 2.134-.083 4.268-.119 6.424v.358c0 1.396-.059 2.814-.095 4.222 0 2.064-.094 4.14-.166 6.217 0 1.441-.071 2.872-.118 4.325a2799 2799 0 0 1-.509 15.317c-.095 2.523-.194 5.01-.297 7.463 0 .831-.071 1.65-.094 2.469 0 .357 0 .726-.06 1.084v.438a35.325 35.325 0 0 1-8.044 7.324 64.042 64.042 0 0 1-6.042 3.461c-2.132.922-4.218 1.961-6.445 2.676a85.572 85.572 0 0 1-54.994 0c-2.228-.715-4.313-1.754-6.445-2.676a64.158 64.158 0 0 1-6.042-3.461 34.946 34.946 0 0 1-8.056-7.335v-.427c-.143-3.599-.285-7.325-.427-11.108 0-.784-.06-1.557-.083-2.307l-.083-2.307c-.118-3.46-.237-6.989-.343-10.507-.214-7.209-.403-14.476-.51-21.535 0-1.926 0-3.829-.083-5.767v-8.074a.605.605 0 0 1 0-.208v-.069a36.126 36.126 0 0 0 9.277 7.521c1.966 1.222 4.134 2.156 6.208 3.183 2.168.819 4.3 1.776 6.563 2.388a95.875 95.875 0 0 0 55.208 0 65.526 65.526 0 0 0 6.563-2.411 69.692 69.692 0 0 0 6.208-3.172 36.215 36.215 0 0 0 9.11-7.52Z"/><path fill="#E0E0E0" d="M18.942 415.816a16.572 16.572 0 0 1-1.078-1.488v-.196c-.817-20.116-1.492-42.677-1.54-61.801a18.6 18.6 0 0 0 1.02 1.488c0 19.55.781 42.169 1.598 61.57v.427ZM117.65 352.331c0 19.158-.723 41.673-1.541 61.789v.196c-.331.519-.69 1.019-1.078 1.5v-.439c.818-19.423 1.54-42.019 1.6-61.57a18.5 18.5 0 0 0 1.019-1.476Z"/><path fill="#E0E0E0" d="M16.324 352.331a18.6 18.6 0 0 0 1.02 1.488 35.618 35.618 0 0 0 8.683 8.074 59.859 59.859 0 0 0 12.795 6.263 87.482 87.482 0 0 0 56.345 0 58.69 58.69 0 0 0 12.783-6.252 35.128 35.128 0 0 0 8.684-8.074c.368-.473.699-.969 1.019-1.476l-101.329-.023ZM68.84 382.712c0 .361-.11.713-.316 1.013a1.867 1.867 0 0 1-.84.671 1.921 1.921 0 0 1-1.082.104 1.892 1.892 0 0 1-.958-.499 1.81 1.81 0 0 1-.512-.933 1.777 1.777 0 0 1 .106-1.053c.142-.333.382-.618.69-.818a1.91 1.91 0 0 1 2.363.227c.351.341.548.805.548 1.288ZM100.687 376.345c0 .361-.11.714-.316 1.014-.206.3-.5.533-.842.671a1.917 1.917 0 0 1-2.042-.401 1.805 1.805 0 0 1-.51-.936 1.779 1.779 0 0 1 .112-1.054c.144-.332.386-.616.695-.815a1.91 1.91 0 0 1 1.043-.302 1.868 1.868 0 0 1 1.319.535c.173.169.31.37.403.591.093.221.14.458.138.697ZM35.17 378.167c1.035 0 1.872-.816 1.872-1.822 0-1.007-.837-1.823-1.871-1.823s-1.872.816-1.872 1.823c0 1.006.838 1.822 1.872 1.822ZM18.941 415.816a34.944 34.944 0 0 0 8.056 7.335 64.143 64.143 0 0 0 6.042 3.461c2.133.922 4.218 1.961 6.445 2.676a85.572 85.572 0 0 0 54.995 0c2.227-.715 4.312-1.754 6.445-2.676a64.169 64.169 0 0 0 6.042-3.461 35.325 35.325 0 0 0 8.044-7.324l1.078-1.499s-8.186 21.327-49.106 21.327-49.119-21.316-49.119-21.316l1.078 1.477ZM68.422 308.731c27.978 0 50.659-9.935 50.659-22.192 0-12.256-22.68-22.192-50.659-22.192-27.978 0-50.658 9.936-50.658 22.192 0 12.257 22.68 22.192 50.658 22.192ZM119.091 154.056a112.007 112.007 0 0 0-10.852-37.741c.449 1.298.689 2.656.711 4.026a109.145 109.145 0 0 1 9.134 33.807c.095 1.038.189 2.111.26 3.241.071 1.131.143 2.088.202 3.172 0 .681.071 1.384.106 2.076.06 1.096.095 2.203.131 3.357.059 1.418.106 2.883.142 4.383.142 5.444.178 11.407.166 17.705a.67.67 0 0 1 0 .219v.058a21.18 21.18 0 0 0 1.019-1.488v-1.396c0-12.503-.285-23.553-1.019-31.419Zm-99.291 0c-.759 8.143-1.043 19.7-1.02 32.803.32.508.652 1.015 1.02 1.5v-.058a.605.605 0 0 1 0-.207V176.04c0-1.592.059-3.149.094-4.614 0-.945 0-1.88.071-2.779 0-1.684.107-3.322.166-4.891.071-1.384.142-2.734.213-4.025v-.877c.103-1.676.222-3.245.356-4.706a109.128 109.128 0 0 1 9.134-33.807c.019-1.386.263-2.76.723-4.072a112.267 112.267 0 0 0-10.758 37.787Z"/><path fill="#E0E0E0" d="M69.45 142.705c21.814 0 39.498-9.936 39.498-22.192S91.264 98.321 69.45 98.321c-21.815 0-39.499 9.936-39.499 22.192s17.684 22.192 39.499 22.192Z"/><path fill="#BA68C8" d="M69.451 195.314c13.538 0 24.512-10.685 24.512-23.865 0-13.18-10.974-23.864-24.512-23.864-13.537 0-24.511 10.684-24.511 23.864 0 13.18 10.974 23.865 24.511 23.865Z"/><path fill="#000" d="M69.451 195.314c13.538 0 24.512-10.685 24.512-23.865 0-13.18-10.974-23.864-24.512-23.864-13.537 0-24.511 10.684-24.511 23.864 0 13.18 10.974 23.865 24.511 23.865Z" opacity=".15"/><path fill="#BA68C8" d="M93.29 179.692c3.11-12.828-5.05-25.681-18.225-28.708-13.176-3.028-26.377 4.916-29.487 17.744-3.11 12.828 5.05 25.681 18.226 28.708 13.175 3.028 26.377-4.917 29.487-17.744Z"/><path fill="#000" d="m78.264 196.49-7.925-21.211 20.14 11.28c.166-.265.32-.53.474-.807L70.872 174.46l22.794-3.91c0-.312-.107-.623-.166-.923l-22.841 3.921 14.903-17.301a11.836 11.836 0 0 0-.734-.6l-14.904 17.302v-22.573h-.96v22.573l-14.903-17.302c-.25.185-.486.392-.735.6l14.904 17.301-22.83-3.921-.177.923 22.841 3.91-20.08 11.292c.153.277.307.542.473.807l20.14-11.28-7.937 21.211.9.312 7.938-21.212 7.925 21.212c.26-.093.557-.208.841-.312Z" opacity=".2"/><path fill="#BA68C8" d="M69.45 191.461c9.775 0 17.7-7.715 17.7-17.232s-7.925-17.232-17.7-17.232c-9.776 0-17.7 7.715-17.7 17.232s7.924 17.232 17.7 17.232Z"/><path fill="#000" d="M69.45 191.461c9.775 0 17.7-7.715 17.7-17.232s-7.925-17.232-17.7-17.232c-9.776 0-17.7 7.715-17.7 17.232s7.924 17.232 17.7 17.232Z" opacity=".15"/><path fill="#BA68C8" d="M69.453 156.985c-4.406-.001-8.653 1.597-11.911 4.484-3.258 2.886-5.293 6.852-5.706 11.122.382 4.285 2.397 8.275 5.648 11.186 3.25 2.911 7.503 4.532 11.92 4.545 4.417.013 8.68-1.583 11.948-4.475 3.27-2.892 5.309-6.87 5.718-11.152-.391-4.287-2.416-8.277-5.676-11.185-3.26-2.907-7.52-4.521-11.941-4.525Z"/><path fill="#1D1125" d="M69.453 156.985c-4.406-.001-8.653 1.597-11.911 4.484-3.258 2.886-5.293 6.852-5.706 11.122.382 4.285 2.397 8.275 5.648 11.186 3.25 2.911 7.503 4.532 11.92 4.545 4.417.013 8.68-1.583 11.948-4.475 3.27-2.892 5.309-6.87 5.718-11.152-.391-4.287-2.416-8.277-5.676-11.185-3.26-2.907-7.52-4.521-11.941-4.525Z" opacity=".6"/><path fill="#BA68C8" d="M97.376 107.699c-15.401 8.685-40.434 8.685-55.86 0-9.643-5.422-13.268-12.93-10.851-19.932a86.423 86.423 0 0 1 1.61-3.287c8.731-16.772 20.068-32.132 33.611-45.538a5.022 5.022 0 0 1 1.63-1.065 5.128 5.128 0 0 1 3.85 0c.61.247 1.163.61 1.629 1.066 13.509 13.383 24.828 28.706 33.563 45.433.58 1.154 1.184 2.307 1.67 3.46 2.393 6.967-1.232 14.465-10.852 19.863Z"/><path fill="#000" d="M69.44 109.302c-9.666 0-18.682-2.076-25.376-5.848-7.049-3.956-10.177-8.996-8.636-13.84.462-.97.924-1.927 1.41-2.873C47.83 65.08 57.995 53.42 64.191 45.541c0 0-10.662 18.65-12.854 34.603-2.191 15.951 9.845 23.703 18.103 29.158Z" opacity=".15"/><path fill="#1D1125" d="M73.525 46.175a103.328 103.328 0 0 1 8.744 9.504c2.748 3.31 5.319 6.76 7.76 10.289 1.184 1.765 2.369 3.576 3.554 5.375a70.846 70.846 0 0 1 3.27 5.525 101.088 101.088 0 0 1 5.639 11.534L95.49 77.675c-2.37-3.564-4.739-7.105-7.108-10.6-2.37-3.495-4.858-6.99-7.334-10.473l-7.523-10.427Z" opacity=".5"/><path fill="#455A64" d="M72.23 28.34 69.314.495l-2.926 27.901c.027.25.122.487.274.69.151.202.355.362.59.464a4.65 4.65 0 0 0 4.135 0 1.45 1.45 0 0 0 .586-.466c.15-.202.242-.44.267-.688l-.012-.057Z"/><path fill="#F5F5F5" d="M118.062 277.762v.058a.67.67 0 0 1 0 .219v8.074c0 1.869-.059 3.76-.083 5.663 0 2.134-.083 4.268-.118 6.425v.358c0 1.395-.059 2.814-.095 4.221 0 2.065-.095 4.141-.166 6.217 0 1.442-.071 2.872-.118 4.326-.154 5.167-.332 10.3-.51 15.317-.095 2.522-.193 5.01-.296 7.463 0 .83-.071 1.649-.095 2.468 0 .358 0 .727-.059 1.084v.439a35.37 35.37 0 0 1-8.044 7.324 64.508 64.508 0 0 1-6.042 3.46c-2.133.923-4.218 1.961-6.445 2.676a85.559 85.559 0 0 1-54.995 0c-2.227-.715-4.312-1.753-6.445-2.676a64.357 64.357 0 0 1-6.042-3.46 34.95 34.95 0 0 1-8.056-7.336v-.427a5720.05 5720.05 0 0 1-.426-11.107c0-.785-.06-1.557-.083-2.307l-.083-2.307c-.119-3.46-.237-6.99-.344-10.508-.213-7.209-.402-14.475-.51-21.534 0-1.926 0-3.83-.082-5.767v-8.074a.605.605 0 0 1 0-.208v-.069a36.1 36.1 0 0 0 9.276 7.52c1.967 1.223 4.135 2.157 6.208 3.184 2.168.819 4.3 1.776 6.564 2.387a95.875 95.875 0 0 0 55.207 0 65.534 65.534 0 0 0 6.564-2.41 69.692 69.692 0 0 0 6.208-3.172 36.198 36.198 0 0 0 9.11-7.521Z"/><path fill="#E0E0E0" d="M20.37 340.093a16.45 16.45 0 0 1-1.078-1.488v-.196c-.817-20.116-1.493-42.677-1.54-61.801.32.508.652 1.015 1.019 1.488 0 19.551.782 42.17 1.6 61.57v.427Z"/><path fill="#E0E0E0" d="M17.752 276.608c.32.508.652 1.015 1.019 1.488a35.6 35.6 0 0 0 8.684 8.074 59.857 59.857 0 0 0 12.795 6.263 87.482 87.482 0 0 0 56.345 0 58.698 58.698 0 0 0 12.783-6.251 35.166 35.166 0 0 0 8.684-8.074c.367-.473.699-.969 1.019-1.477l-101.329-.023ZM70.27 306.99c0 .36-.11.712-.316 1.012a1.86 1.86 0 0 1-.84.671 1.921 1.921 0 0 1-1.082.104 1.885 1.885 0 0 1-.958-.499 1.806 1.806 0 0 1-.513-.933 1.778 1.778 0 0 1 .107-1.053c.142-.333.381-.617.69-.818a1.91 1.91 0 0 1 2.363.227c.35.342.548.805.548 1.289ZM36.6 302.446c1.034 0 1.872-.816 1.872-1.823 0-1.006-.838-1.822-1.872-1.822-1.033 0-1.872.816-1.872 1.822 0 1.007.839 1.823 1.872 1.823Z"/><path fill="#263238" d="M74.786 320.865c.21.003.41.086.558.23a.773.773 0 0 1 .236.543v2.042a.897.897 0 0 1-.225.588c-.127.17-.27.328-.427.473l-4.3 4.429a9.02 9.02 0 0 1 2.37.635 6.074 6.074 0 0 1 1.835 1.153c.517.493.92 1.086 1.185 1.742a5.89 5.89 0 0 1 .415 2.237 5.724 5.724 0 0 1-.604 2.665 5.806 5.806 0 0 1-1.683 1.961 7.874 7.874 0 0 1-2.547 1.245 11.082 11.082 0 0 1-3.163.427 12.124 12.124 0 0 1-3.554-.473 8.68 8.68 0 0 1-2.536-1.222 5.276 5.276 0 0 1-1.551-1.696 4.75 4.75 0 0 1-.617-1.869.636.636 0 0 1 .213-.565.868.868 0 0 1 .581-.207h2.37a.673.673 0 0 1 .486.184c.155.158.287.337.39.531.126.236.285.454.474.646.228.222.492.405.782.542.376.181.774.313 1.185.392a9.873 9.873 0 0 0 1.8.138 5.298 5.298 0 0 0 2.903-.703c.35-.207.636-.501.83-.852.193-.351.287-.746.272-1.144a1.887 1.887 0 0 0-.264-1.085 1.955 1.955 0 0 0-.838-.76 6.335 6.335 0 0 0-2.902-.565h-2.453a.778.778 0 0 1-.557-.231.699.699 0 0 1-.237-.542v-2.042a.95.95 0 0 1 .178-.599c.154-.185.296-.347.427-.473l4.134-4.233h-8.115a.74.74 0 0 1-.569-.231.743.743 0 0 1-.236-.542v-2.042a.775.775 0 0 1 .24-.547.815.815 0 0 1 .565-.226l12.949.046Z"/><path fill="#F5F5F5" d="M118.062 277.762v.058a.67.67 0 0 1 0 .219v8.074c0 1.869-.059 3.76-.083 5.663 0 2.134-.083 4.268-.118 6.425v.358c0 1.395-.059 2.814-.095 4.221 0 2.065-.095 4.141-.166 6.217 0 1.442-.071 2.872-.118 4.326-.154 5.167-.332 10.3-.51 15.317-.095 2.522-.193 5.01-.296 7.463 0 .83-.071 1.649-.095 2.468 0 .358 0 .727-.059 1.084v.439a35.37 35.37 0 0 1-8.044 7.324 64.508 64.508 0 0 1-6.042 3.46c-2.133.923-4.218 1.961-6.445 2.676a85.559 85.559 0 0 1-54.995 0c-2.227-.715-4.312-1.753-6.445-2.676a64.357 64.357 0 0 1-6.042-3.46 34.95 34.95 0 0 1-8.056-7.336v-.427a5720.05 5720.05 0 0 1-.426-11.107c0-.785-.06-1.557-.083-2.307l-.083-2.307c-.119-3.46-.237-6.99-.344-10.508-.213-7.209-.402-14.475-.51-21.534 0-1.926 0-3.83-.082-5.767v-8.074a.605.605 0 0 1 0-.208v-.069a36.1 36.1 0 0 0 9.276 7.52c1.967 1.223 4.135 2.157 6.208 3.184 2.168.819 4.3 1.776 6.564 2.387a95.875 95.875 0 0 0 55.207 0 65.534 65.534 0 0 0 6.564-2.41 69.692 69.692 0 0 0 6.208-3.172 36.198 36.198 0 0 0 9.11-7.521Z"/><path fill="#E0E0E0" d="M20.37 340.093a16.45 16.45 0 0 1-1.078-1.488v-.196c-.817-20.116-1.493-42.677-1.54-61.801.32.508.652 1.015 1.019 1.488 0 19.551.782 42.17 1.6 61.57v.427Z"/><path fill="#E0E0E0" d="M17.752 276.608c.32.508.652 1.015 1.019 1.488a35.6 35.6 0 0 0 8.684 8.074 59.857 59.857 0 0 0 12.795 6.263 87.482 87.482 0 0 0 56.345 0 58.698 58.698 0 0 0 12.783-6.251 35.166 35.166 0 0 0 8.684-8.074c.367-.473.699-.969 1.019-1.477l-101.329-.023ZM70.27 306.99c0 .36-.11.712-.316 1.012a1.86 1.86 0 0 1-.84.671 1.921 1.921 0 0 1-1.082.104 1.885 1.885 0 0 1-.958-.499 1.806 1.806 0 0 1-.513-.933 1.778 1.778 0 0 1 .107-1.053c.142-.333.381-.617.69-.818a1.91 1.91 0 0 1 2.363.227c.35.342.548.805.548 1.289ZM36.6 302.446c1.034 0 1.872-.816 1.872-1.823 0-1.006-.838-1.822-1.872-1.822-1.033 0-1.872.816-1.872 1.822 0 1.007.839 1.823 1.872 1.823Z"/><path fill="#263238" d="M74.786 320.865c.21.003.41.086.558.23a.773.773 0 0 1 .236.543v2.042a.897.897 0 0 1-.225.588c-.127.17-.27.328-.427.473l-4.3 4.429a9.02 9.02 0 0 1 2.37.635 6.074 6.074 0 0 1 1.835 1.153c.517.493.92 1.086 1.185 1.742a5.89 5.89 0 0 1 .415 2.237 5.724 5.724 0 0 1-.604 2.665 5.806 5.806 0 0 1-1.683 1.961 7.874 7.874 0 0 1-2.547 1.245 11.082 11.082 0 0 1-3.163.427 12.124 12.124 0 0 1-3.554-.473 8.68 8.68 0 0 1-2.536-1.222 5.276 5.276 0 0 1-1.551-1.696 4.75 4.75 0 0 1-.617-1.869.636.636 0 0 1 .213-.565.868.868 0 0 1 .581-.207h2.37a.673.673 0 0 1 .486.184c.155.158.287.337.39.531.126.236.285.454.474.646.228.222.492.405.782.542.376.181.774.313 1.185.392a9.873 9.873 0 0 0 1.8.138 5.298 5.298 0 0 0 2.903-.703c.35-.207.636-.501.83-.852.193-.351.287-.746.272-1.144a1.887 1.887 0 0 0-.264-1.085 1.955 1.955 0 0 0-.838-.76 6.335 6.335 0 0 0-2.902-.565h-2.453a.778.778 0 0 1-.557-.231.699.699 0 0 1-.237-.542v-2.042a.95.95 0 0 1 .178-.599c.154-.185.296-.347.427-.473l4.134-4.233h-8.115a.74.74 0 0 1-.569-.231.743.743 0 0 1-.236-.542v-2.042a.775.775 0 0 1 .24-.547.815.815 0 0 1 .565-.226l12.949.046Z"/><path fill="#E0E0E0" d="M68.422 308.731c27.978 0 50.659-9.935 50.659-22.192 0-12.256-22.68-22.192-50.659-22.192-27.978 0-50.658 9.936-50.658 22.192 0 12.257 22.68 22.192 50.658 22.192Z"/><path fill="#FBE3FF" d="M118.062 277.248v.058a.67.67 0 0 1 0 .219v8.074c0 1.868-.059 3.76-.083 5.663 0 2.134-.083 4.268-.118 6.425v.357c0 1.396-.059 2.815-.095 4.222 0 2.065-.095 4.141-.166 6.217 0 1.442-.071 2.872-.118 4.325-.154 5.168-.332 10.301-.51 15.318-.095 2.522-.193 5.01-.296 7.463 0 .83-.071 1.649-.095 2.468 0 .358 0 .727-.059 1.084v.438a35.352 35.352 0 0 1-8.044 7.325 64.508 64.508 0 0 1-6.042 3.46c-2.133.923-4.218 1.961-6.445 2.676a85.559 85.559 0 0 1-54.995 0c-2.227-.715-4.312-1.753-6.445-2.676a64.357 64.357 0 0 1-6.042-3.46 34.973 34.973 0 0 1-8.056-7.336v-.427a5720.05 5720.05 0 0 1-.426-11.107c0-.785-.06-1.557-.083-2.307l-.083-2.307c-.119-3.46-.237-6.99-.344-10.508-.213-7.209-.402-14.475-.51-21.534 0-1.927 0-3.83-.082-5.768v-8.074a.6.6 0 0 1 0-.207v-.069a36.1 36.1 0 0 0 9.276 7.52c1.967 1.223 4.135 2.157 6.208 3.183 2.168.819 4.3 1.777 6.564 2.388a95.875 95.875 0 0 0 55.207 0 65.295 65.295 0 0 0 6.564-2.411 69.427 69.427 0 0 0 6.208-3.172 36.173 36.173 0 0 0 9.11-7.52Z"/><path fill="#E0E0E0" d="M20.37 340.093a16.45 16.45 0 0 1-1.078-1.488v-.196c-.817-20.116-1.493-42.677-1.54-61.801.32.508.652 1.015 1.019 1.488 0 19.551.782 42.17 1.6 61.57v.427Z"/><path fill="#E0E0E0" d="M17.752 276.608c.32.508.652 1.015 1.019 1.488a35.6 35.6 0 0 0 8.684 8.074 59.857 59.857 0 0 0 12.795 6.263 87.482 87.482 0 0 0 56.345 0 58.698 58.698 0 0 0 12.783-6.251 35.166 35.166 0 0 0 8.684-8.074c.367-.473.699-.969 1.019-1.477l-101.329-.023ZM70.27 306.99c0 .36-.11.712-.316 1.012a1.86 1.86 0 0 1-.84.671 1.921 1.921 0 0 1-1.082.104 1.885 1.885 0 0 1-.958-.499 1.806 1.806 0 0 1-.513-.933 1.778 1.778 0 0 1 .107-1.053c.142-.333.381-.617.69-.818a1.91 1.91 0 0 1 2.363.227c.35.342.548.805.548 1.289ZM36.6 302.446c1.034 0 1.872-.816 1.872-1.823 0-1.006-.838-1.822-1.872-1.822-1.033 0-1.872.816-1.872 1.822 0 1.007.839 1.823 1.872 1.823Z"/><path fill="#FBE3FF" d="M119.47 200.537v.058a.67.67 0 0 1 0 .219v8.074c0 1.868-.059 3.76-.083 5.663 0 2.134-.082 4.268-.118 6.425v.357c0 1.396-.059 2.815-.095 4.222 0 2.064-.095 4.141-.166 6.217 0 1.442-.071 2.872-.118 4.325-.154 5.168-.332 10.3-.51 15.318-.094 2.522-.193 5.009-.296 7.462 0 .831-.071 1.65-.095 2.469 0 .357.001.726-.059 1.084v.438a35.352 35.352 0 0 1-8.044 7.325 64.254 64.254 0 0 1-6.042 3.46c-2.133.923-4.218 1.961-6.445 2.676a85.572 85.572 0 0 1-54.995 0c-2.227-.715-4.312-1.753-6.444-2.676a64.357 64.357 0 0 1-6.043-3.46 34.973 34.973 0 0 1-8.056-7.336v-.427c-.142-3.599-.284-7.324-.426-11.108 0-.784-.06-1.557-.083-2.306l-.083-2.307c-.118-3.461-.237-6.99-.343-10.508-.214-7.209-.403-14.476-.51-21.535 0-1.926 0-3.829-.083-5.767v-8.074a.6.6 0 0 1 0-.207v-.07a36.103 36.103 0 0 0 9.277 7.521c1.966 1.222 4.134 2.157 6.207 3.183 2.169.819 4.301 1.777 6.564 2.388a95.875 95.875 0 0 0 55.208 0 65.537 65.537 0 0 0 6.563-2.411 69.427 69.427 0 0 0 6.208-3.172 36.173 36.173 0 0 0 9.11-7.52Z"/><path fill="#E0E0E0" d="M20.37 340.093a16.45 16.45 0 0 1-1.078-1.488v-.196c-.817-20.116-1.493-42.677-1.54-61.801.32.508.652 1.015 1.019 1.488 0 19.551.782 42.17 1.6 61.57v.427ZM70.27 306.99c0 .36-.11.712-.316 1.012a1.86 1.86 0 0 1-.84.671 1.921 1.921 0 0 1-1.082.104 1.885 1.885 0 0 1-.958-.499 1.806 1.806 0 0 1-.513-.933 1.778 1.778 0 0 1 .107-1.053c.142-.333.381-.617.69-.818a1.91 1.91 0 0 1 2.363.227c.35.342.548.805.548 1.289ZM36.6 302.446c1.034 0 1.872-.816 1.872-1.823 0-1.006-.838-1.822-1.872-1.822-1.033 0-1.872.816-1.872 1.822 0 1.007.839 1.823 1.872 1.823ZM18.586 199.412c.32.508.652 1.015 1.019 1.488a35.6 35.6 0 0 0 8.684 8.074 59.859 59.859 0 0 0 12.795 6.263 87.482 87.482 0 0 0 56.345 0 58.698 58.698 0 0 0 12.783-6.251 35.166 35.166 0 0 0 8.684-8.074c.367-.473.699-.969 1.019-1.477l-101.33-.023Z"/><path fill="#FBE3FF" d="M119.09 188.082a36.19 36.19 0 0 1-9.264 7.509c-1.979 1.222-4.123 2.157-6.208 3.183a68.573 68.573 0 0 1-6.564 2.411 95.875 95.875 0 0 1-55.208 0c-2.262-.623-4.395-1.569-6.563-2.399-2.073-1.027-4.241-1.961-6.208-3.172a36.353 36.353 0 0 1-9.276-7.521v-11.995c0-1.592.06-3.149.095-4.614 0-.946 0-1.88.07-2.78 0-1.684.107-3.322.167-4.89.07-1.384.142-2.734.213-4.026v-.876c.102-1.677.221-3.245.355-4.706a109.145 109.145 0 0 1 9.134-33.808c-.082 5.768 3.78 11.466 11.575 15.86 15.401 8.674 40.423 8.674 55.86 0 7.795-4.371 11.657-10.115 11.574-15.86a109.13 109.13 0 0 1 9.134 33.808c.095 1.038.19 2.11.261 3.241.071 1.13.142 2.076.201 3.172 0 .68.072 1.384.107 2.076.059 1.096.095 2.203.13 3.356.06 1.419.107 2.884.143 4.383.248 5.387.284 11.35.272 17.648Z"/></svg>