<svg xmlns="http://www.w3.org/2000/svg" width="316" height="785" fill="none"><path fill="#E0E0E0" d="M300.078 671.658a.915.915 0 0 1-.639-.258.867.867 0 0 1-.265-.623v-98.882c0-.233.095-.457.265-.622a.91.91 0 0 1 .639-.258c.24 0 .47.092.64.258.17.165.265.389.265.622v98.882a.867.867 0 0 1-.265.623.92.92 0 0 1-.64.258ZM307.408 675.772a.92.92 0 0 1-.64-.258.867.867 0 0 1-.265-.623v-99.018c0-.234.095-.458.265-.623a.92.92 0 0 1 1.279 0c.17.165.265.389.265.623v99.018a.867.867 0 0 1-.265.623.917.917 0 0 1-.639.258Z"/><path fill="#E0E0E0" d="M307.408 671.202a.368.368 0 0 1-.218 0l-7.346-4.13a.426.426 0 0 1-.216-.433.422.422 0 0 1 .06-.159.447.447 0 0 1 .269-.204.464.464 0 0 1 .339.037l7.346 4.13a.458.458 0 0 1 .208.272.431.431 0 0 1-.052.335.443.443 0 0 1-.176.123.446.446 0 0 1-.214.029ZM307.404 667.072a.368.368 0 0 1-.218 0l-7.346-4.115a.434.434 0 0 1-.208-.272.422.422 0 0 1 .052-.336.417.417 0 0 1 .269-.208.433.433 0 0 1 .339.056l7.346 4.024a.446.446 0 0 1 .208.272.421.421 0 0 1-.052.336.46.46 0 0 1-.39.243ZM307.404 662.942a.368.368 0 0 1-.218 0l-7.346-4.115a.434.434 0 0 1-.208-.272.422.422 0 0 1 .052-.336.417.417 0 0 1 .269-.208.435.435 0 0 1 .339.056l7.346 4.115a.446.446 0 0 1 .208.272.422.422 0 0 1-.052.336.464.464 0 0 1-.39.152ZM307.404 658.827a.534.534 0 0 1-.218 0l-7.346-4.131a.43.43 0 0 1-.208-.272.416.416 0 0 1 .052-.335.45.45 0 0 1 .114-.128.451.451 0 0 1 .494-.024l7.346 4.13a.443.443 0 0 1 .207.264.407.407 0 0 1-.051.329.448.448 0 0 1-.39.167ZM307.408 654.697a.534.534 0 0 1-.218 0l-7.346-4.13a.416.416 0 0 1-.131-.112.403.403 0 0 1-.076-.152.402.402 0 0 1 .051-.328.453.453 0 0 1 .608-.167l7.346 4.13a.423.423 0 0 1 .216.433.422.422 0 0 1-.06.159.45.45 0 0 1-.39.167ZM307.408 650.566a.368.368 0 0 1-.218 0l-7.346-4.13a.416.416 0 0 1-.131-.112.403.403 0 0 1-.076-.152.402.402 0 0 1 .051-.328.46.46 0 0 1 .608-.167l7.346 4.13a.43.43 0 0 1 .216.433.422.422 0 0 1-.06.159.428.428 0 0 1-.39.167ZM307.408 646.482a.368.368 0 0 1-.218 0l-7.346-4.131a.426.426 0 0 1-.216-.433.451.451 0 0 1 .329-.363.464.464 0 0 1 .339.037l7.346 4.13a.441.441 0 0 1 .207.264.42.42 0 0 1-.051.329.424.424 0 0 1-.39.167ZM307.408 642.305a.368.368 0 0 1-.218 0l-7.346-4.13a.429.429 0 0 1-.216-.433.455.455 0 0 1 .668-.327l7.346 4.131a.424.424 0 0 1 .208.272.434.434 0 0 1-.052.335.464.464 0 0 1-.39.152ZM307.404 638.176a.368.368 0 0 1-.218 0l-7.346-4.115a.434.434 0 0 1-.208-.272.421.421 0 0 1 .052-.335.453.453 0 0 1 .608-.167l7.346 4.084a.446.446 0 0 1 .208.272.421.421 0 0 1-.052.336.457.457 0 0 1-.39.197ZM307.404 634.045a.368.368 0 0 1-.218 0l-7.346-4.115a.43.43 0 0 1-.208-.272.416.416 0 0 1 .052-.335.436.436 0 0 1 .445-.21.43.43 0 0 1 .163.058l7.346 4.115a.446.446 0 0 1 .208.272.421.421 0 0 1-.052.336.45.45 0 0 1-.39.151ZM307.404 629.916a.534.534 0 0 1-.218 0l-7.346-4.131a.43.43 0 0 1-.208-.272.416.416 0 0 1 .052-.335.436.436 0 0 1 .445-.21.43.43 0 0 1 .163.058l7.346 4.115a.446.446 0 0 1 .208.272.421.421 0 0 1-.052.336.468.468 0 0 1-.173.131.474.474 0 0 1-.217.036ZM307.404 625.8a.501.501 0 0 1-.218 0l-7.346-4.13a.434.434 0 0 1-.208-.272.42.42 0 0 1 .052-.335.436.436 0 0 1 .445-.21.43.43 0 0 1 .163.058l7.346 4.13a.418.418 0 0 1 .156.592.448.448 0 0 1-.39.167ZM307.408 621.67a.368.368 0 0 1-.218 0l-7.346-4.131a.426.426 0 0 1-.216-.433.451.451 0 0 1 .329-.363.464.464 0 0 1 .339.037l7.346 4.13a.441.441 0 0 1 .207.264.42.42 0 0 1-.051.329.424.424 0 0 1-.39.167ZM307.408 617.54a.368.368 0 0 1-.218 0l-7.346-4.13a.443.443 0 0 1-.207-.264.407.407 0 0 1 .051-.329.451.451 0 0 1 .269-.204.464.464 0 0 1 .339.037l7.346 4.13c.051.03.096.07.132.116a.434.434 0 0 1 .024.492.464.464 0 0 1-.39.152ZM307.408 613.41a.368.368 0 0 1-.218 0l-7.346-4.13a.429.429 0 0 1-.216-.433.455.455 0 0 1 .668-.327l7.346 4.131a.424.424 0 0 1 .208.272.434.434 0 0 1-.052.335.464.464 0 0 1-.39.152ZM307.404 609.279a.368.368 0 0 1-.218 0l-7.346-4.115a.43.43 0 0 1-.208-.272.42.42 0 0 1 .052-.335.447.447 0 0 1 .269-.204.464.464 0 0 1 .339.037l7.346 4.13a.446.446 0 0 1 .208.272.42.42 0 0 1-.052.335.453.453 0 0 1-.39.152ZM307.404 605.149a.353.353 0 0 1-.218 0l-7.346-4.221a.434.434 0 0 1-.208-.272.42.42 0 0 1 .052-.335.436.436 0 0 1 .445-.21.43.43 0 0 1 .163.058l7.346 4.115a.446.446 0 0 1 .208.272.42.42 0 0 1-.052.335.443.443 0 0 1-.39.258ZM307.404 601.019a.501.501 0 0 1-.218 0l-7.346-4.13a.434.434 0 0 1-.208-.272.422.422 0 0 1 .052-.336.432.432 0 0 1 .271-.201.464.464 0 0 1 .174-.009.468.468 0 0 1 .163.058l7.346 4.115a.446.446 0 0 1 .208.272.422.422 0 0 1-.052.336.448.448 0 0 1-.39.167ZM307.408 596.904a.534.534 0 0 1-.218 0l-7.346-4.131a.441.441 0 0 1-.183-.266.438.438 0 0 1 .308-.516.47.47 0 0 1 .328.023l7.345 4.13a.429.429 0 0 1 .216.433.42.42 0 0 1-.06.16.468.468 0 0 1-.173.131.471.471 0 0 1-.217.036ZM307.408 592.774a.368.368 0 0 1-.218 0l-7.346-4.13a.429.429 0 0 1-.216-.433.455.455 0 0 1 .668-.327l7.346 4.131a.415.415 0 0 1 .156.592.416.416 0 0 1-.172.135.439.439 0 0 1-.218.032ZM307.408 588.644a.368.368 0 0 1-.218 0l-7.346-4.13a.416.416 0 0 1-.131-.112.403.403 0 0 1-.076-.152.402.402 0 0 1 .051-.328.453.453 0 0 1 .608-.167l7.346 4.13a.423.423 0 0 1 .216.433.422.422 0 0 1-.06.159.416.416 0 0 1-.172.135.439.439 0 0 1-.218.032ZM307.408 584.513a.368.368 0 0 1-.218 0l-7.346-4.13a.426.426 0 0 1-.216-.433.422.422 0 0 1 .06-.159.447.447 0 0 1 .269-.204.464.464 0 0 1 .339.037l7.346 4.13a.458.458 0 0 1 .208.272.431.431 0 0 1-.052.335.443.443 0 0 1-.176.123.446.446 0 0 1-.214.029ZM307.404 580.383a.368.368 0 0 1-.218 0l-7.346-4.115a.434.434 0 0 1-.208-.272.422.422 0 0 1 .052-.336.451.451 0 0 1 .269-.204.464.464 0 0 1 .339.037l7.346 4.131a.442.442 0 0 1 .208.272.416.416 0 0 1-.052.335.464.464 0 0 1-.39.152ZM211.986 679.887a.92.92 0 0 1-.546-.183.879.879 0 0 1-.321-.469.855.855 0 0 1 .036-.562.891.891 0 0 1 .379-.426l51.375-28.85a.948.948 0 0 1 .904 0l51.391 28.85a.882.882 0 0 1 .366.532.861.861 0 0 1-.101.633.898.898 0 0 1-.514.399.923.923 0 0 1-.656-.045l-50.938-28.623-50.922 28.623a.81.81 0 0 1-.453.121Z"/><path fill="#E0E0E0" d="M314.754 580.884a.941.941 0 0 1-.452-.122l-50.938-28.622-50.922 28.622a.929.929 0 0 1-.656.046.904.904 0 0 1-.515-.399.867.867 0 0 1 .266-1.165l51.375-28.851a.874.874 0 0 1 .904 0l51.391 28.851a.874.874 0 0 1 .424.532c.03.112.037.229.021.344a.905.905 0 0 1-.449.643.937.937 0 0 1-.449.121Z"/><path fill="#EBEBEB" d="m256.031 680.116 29.337-16.521V563.514l-29.337 16.49v100.112Z"/><path fill="#F5F5F5" d="m256.031 680.116-22.022-12.482V567.628l22.022 12.376v100.112Z"/><path fill="#FFCE67" d="m285.368 563.513-22.007-12.391-29.352 16.506 22.022 12.375 29.337-16.49Z"/><path fill="#fff" d="m285.369 563.512-22.007-12.39-29.352 16.505 22.022 12.376 29.337-16.491Z" opacity=".3"/><path fill="#E0E0E0" d="M263.38 708.738a.807.807 0 0 1-.452-.121.872.872 0 0 1-.452-.759v-98.973a.844.844 0 0 1 .12-.44.88.88 0 0 1 .332-.32l51.375-28.85a.872.872 0 0 1 .904 0 .877.877 0 0 1 .332.319c.08.134.121.286.12.44v99.019a.872.872 0 0 1-.452.759l-51.39 28.926a.756.756 0 0 1-.437 0Zm.889-99.398v96.999l49.581-27.863v-96.954l-49.581 27.818Z"/><path fill="#E0E0E0" d="M263.38 708.738a.806.806 0 0 1-.452-.122l-51.391-28.85a.872.872 0 0 1-.452-.759v-99.004a.872.872 0 0 1 .452-.759.879.879 0 0 1 .905 0l51.375 28.851a.856.856 0 0 1 .452.759v99.018a.854.854 0 0 1-.12.44.887.887 0 0 1-.332.32.768.768 0 0 1-.437.106Zm-50.486-30.217 49.581 27.863v-96.999l-49.581-27.863v96.999Z"/><path fill="#E0E0E0" d="M263.377 708.739a.861.861 0 0 1-.343 0 .9.9 0 0 1-.49-.47.858.858 0 0 1-.009-.669l51.375-127.93a.9.9 0 0 1 .474-.516.913.913 0 0 1 .711-.023.897.897 0 0 1 .508.484c.047.11.07.228.068.347a.847.847 0 0 1-.077.346l-51.39 127.899a.858.858 0 0 1-.329.391.89.89 0 0 1-.498.141ZM211.99 679.888a.806.806 0 0 1-.515-.167.857.857 0 0 1-.377-.562.839.839 0 0 1 .159-.653l51.374-70.152a.93.93 0 0 1 1.272-.205.883.883 0 0 1 .368.576.864.864 0 0 1-.158.661l-51.39 70.138a.903.903 0 0 1-.733.364ZM300.078 572.624a.915.915 0 0 1-.639-.258.867.867 0 0 1-.265-.623v-98.867c0-.233.095-.457.265-.622a.91.91 0 0 1 .639-.258c.24 0 .47.092.64.258.17.165.265.389.265.622v98.867a.874.874 0 0 1-.265.623.922.922 0 0 1-.64.258ZM307.408 576.754a.92.92 0 0 1-.64-.258.867.867 0 0 1-.265-.623v-99.018c0-.234.095-.458.265-.623a.92.92 0 0 1 1.279 0c.17.165.265.389.265.623v99.018a.867.867 0 0 1-.265.623.917.917 0 0 1-.639.258Z"/><path fill="#E0E0E0" d="M307.408 572.184a.368.368 0 0 1-.218 0l-7.346-4.131a.426.426 0 0 1-.216-.433.422.422 0 0 1 .06-.159.447.447 0 0 1 .269-.204.464.464 0 0 1 .339.037l7.346 4.13a.441.441 0 0 1 .207.264.41.41 0 0 1-.051.328.418.418 0 0 1-.39.168ZM307.408 568.054a.368.368 0 0 1-.218 0l-7.346-4.131a.426.426 0 0 1-.216-.433.451.451 0 0 1 .329-.363.464.464 0 0 1 .339.037l7.346 4.13a.418.418 0 0 1 .156.593.424.424 0 0 1-.39.167ZM307.408 563.923a.368.368 0 0 1-.218 0l-7.346-4.13a.416.416 0 0 1-.131-.112.403.403 0 0 1-.076-.152.402.402 0 0 1 .051-.328.46.46 0 0 1 .608-.167l7.346 4.13a.444.444 0 0 1 .217.445.438.438 0 0 1-.061.162.464.464 0 0 1-.39.152ZM307.404 559.793a.368.368 0 0 1-.218 0l-7.346-4.115a.434.434 0 0 1-.208-.272.42.42 0 0 1 .052-.335.46.46 0 0 1 .608-.167l7.346 4.13a.446.446 0 0 1 .208.272.42.42 0 0 1-.052.335.464.464 0 0 1-.39.152ZM307.404 555.663a.501.501 0 0 1-.218 0l-7.346-4.13a.434.434 0 0 1-.208-.272.421.421 0 0 1 .052-.336.417.417 0 0 1 .269-.208.435.435 0 0 1 .339.057l7.346 4.115a.442.442 0 0 1 .208.272.416.416 0 0 1-.052.335.448.448 0 0 1-.39.167ZM307.404 551.548a.534.534 0 0 1-.218 0l-7.346-4.13a.434.434 0 0 1-.208-.272.421.421 0 0 1 .052-.335.436.436 0 0 1 .445-.211.45.45 0 0 1 .163.059l7.346 4.115a.46.46 0 0 1 .18.219.443.443 0 0 1-.144.516.478.478 0 0 1-.27.1v-.061ZM307.404 547.418a.534.534 0 0 1-.218 0l-7.346-4.191a.434.434 0 0 1-.208-.272.42.42 0 0 1 .052-.335.436.436 0 0 1 .445-.21.43.43 0 0 1 .163.058l7.346 4.13a.426.426 0 0 1 .216.433.416.416 0 0 1-.06.159.452.452 0 0 1-.39.228ZM307.408 543.226a.368.368 0 0 1-.218 0l-7.346-4.131a.426.426 0 0 1-.216-.433.422.422 0 0 1 .06-.159.447.447 0 0 1 .269-.204.464.464 0 0 1 .339.037l7.346 4.13a.441.441 0 0 1 .207.264.41.41 0 0 1-.051.328.418.418 0 0 1-.39.168ZM307.408 539.157a.368.368 0 0 1-.218 0l-7.346-4.13a.416.416 0 0 1-.131-.112.403.403 0 0 1-.076-.152.402.402 0 0 1 .051-.328.453.453 0 0 1 .269-.205.469.469 0 0 1 .339.037l7.346 4.131a.415.415 0 0 1 .156.592.416.416 0 0 1-.172.135.439.439 0 0 1-.218.032ZM307.408 535.026a.368.368 0 0 1-.218 0l-7.346-4.13a.426.426 0 0 1-.216-.433.416.416 0 0 1 .06-.159.447.447 0 0 1 .269-.204.464.464 0 0 1 .339.037l7.346 4.13a.458.458 0 0 1 .208.272.431.431 0 0 1-.052.335.443.443 0 0 1-.176.123.446.446 0 0 1-.214.029ZM307.404 530.897a.368.368 0 0 1-.218 0l-7.346-4.115a.434.434 0 0 1-.208-.272.422.422 0 0 1 .052-.336.451.451 0 0 1 .269-.204.464.464 0 0 1 .339.037l7.346 4.13a.446.446 0 0 1 .208.272.422.422 0 0 1-.052.336.46.46 0 0 1-.39.152ZM307.404 526.766a.368.368 0 0 1-.218 0l-7.346-4.115a.434.434 0 0 1-.208-.272.42.42 0 0 1 .052-.335.436.436 0 0 1 .445-.21.43.43 0 0 1 .163.058l7.346 4.115a.446.446 0 0 1 .208.272.42.42 0 0 1-.052.335.464.464 0 0 1-.39.152ZM307.404 522.651a.501.501 0 0 1-.218 0l-7.346-4.13a.434.434 0 0 1-.208-.272.42.42 0 0 1 .052-.335.436.436 0 0 1 .445-.21.43.43 0 0 1 .163.058l7.346 4.115c.082.053.145.13.18.219a.443.443 0 0 1-.144.516.478.478 0 0 1-.27.1v-.061ZM307.404 518.522a.534.534 0 0 1-.218 0l-7.346-4.146a.434.434 0 0 1-.208-.272.42.42 0 0 1 .052-.335.436.436 0 0 1 .445-.21.43.43 0 0 1 .163.058l7.346 4.13a.418.418 0 0 1 .156.592.448.448 0 0 1-.39.183ZM307.408 514.376a.534.534 0 0 1-.218 0l-7.346-4.131a.426.426 0 0 1-.216-.433.451.451 0 0 1 .329-.363.464.464 0 0 1 .339.037l7.346 4.13a.418.418 0 0 1 .156.593.46.46 0 0 1-.39.167ZM307.408 510.26a.353.353 0 0 1-.218 0l-7.346-4.13a.426.426 0 0 1-.216-.433.422.422 0 0 1 .06-.159.447.447 0 0 1 .269-.204.464.464 0 0 1 .339.037l7.346 4.13a.427.427 0 0 1 .216.433.41.41 0 0 1-.06.159.416.416 0 0 1-.172.135.418.418 0 0 1-.218.032ZM307.408 506.132a.368.368 0 0 1-.218 0l-7.346-4.131a.426.426 0 0 1-.216-.433.422.422 0 0 1 .06-.159.447.447 0 0 1 .269-.204.464.464 0 0 1 .339.037l7.346 4.024a.458.458 0 0 1 .208.272.431.431 0 0 1-.052.335.443.443 0 0 1-.158.183.467.467 0 0 1-.232.076ZM307.404 502.001a.368.368 0 0 1-.218 0l-7.346-4.115a.434.434 0 0 1-.208-.272.422.422 0 0 1 .052-.336.451.451 0 0 1 .269-.204.464.464 0 0 1 .339.037l7.346 4.13a.446.446 0 0 1 .208.272.422.422 0 0 1-.052.336.46.46 0 0 1-.39.152ZM307.404 497.871a.368.368 0 0 1-.218 0l-7.346-4.115a.434.434 0 0 1-.208-.272.422.422 0 0 1 .052-.336.417.417 0 0 1 .269-.208.435.435 0 0 1 .339.056l7.346 4.115a.446.446 0 0 1 .208.272.422.422 0 0 1-.052.336.46.46 0 0 1-.39.152ZM307.404 493.74a.501.501 0 0 1-.218 0l-7.346-4.13a.434.434 0 0 1-.208-.272.42.42 0 0 1 .052-.335.436.436 0 0 1 .445-.21.43.43 0 0 1 .163.058l7.346 4.115a.446.446 0 0 1 .208.272.42.42 0 0 1-.052.335.448.448 0 0 1-.39.167ZM307.408 489.625a.534.534 0 0 1-.218 0l-7.346-4.13a.444.444 0 0 1-.183-.266.44.44 0 0 1 .308-.516.464.464 0 0 1 .328.022l7.345 4.131a.426.426 0 0 1 .216.433.422.422 0 0 1-.06.159.448.448 0 0 1-.39.167ZM307.408 485.525a.368.368 0 0 1-.218 0l-7.346-4.13a.416.416 0 0 1-.131-.112.403.403 0 0 1-.076-.152.402.402 0 0 1 .051-.328.46.46 0 0 1 .608-.167l7.346 4.13a.423.423 0 0 1 .216.433.422.422 0 0 1-.06.159.416.416 0 0 1-.172.135.439.439 0 0 1-.218.032ZM307.408 481.364a.353.353 0 0 1-.218 0l-7.346-4.13a.426.426 0 0 1-.216-.433.422.422 0 0 1 .06-.159.447.447 0 0 1 .269-.204.464.464 0 0 1 .339.037l7.346 4.13a.427.427 0 0 1 .216.433.41.41 0 0 1-.06.159.416.416 0 0 1-.172.135.418.418 0 0 1-.218.032ZM314.754 580.884a.941.941 0 0 1-.452-.122l-50.938-28.622-50.922 28.622a.929.929 0 0 1-.656.046.904.904 0 0 1-.515-.399.867.867 0 0 1 .266-1.165l51.375-28.851a.874.874 0 0 1 .904 0l51.391 28.851a.874.874 0 0 1 .424.532c.03.112.037.229.021.344a.905.905 0 0 1-.449.643.937.937 0 0 1-.449.121Z"/><path fill="#E0E0E0" d="M211.986 481.866a.92.92 0 0 1-.779-.44.877.877 0 0 1-.092-.673.898.898 0 0 1 .419-.542l51.375-28.85a.948.948 0 0 1 .904 0l51.391 28.85c.207.12.357.315.419.542a.877.877 0 0 1-.092.673.917.917 0 0 1-.55.401.945.945 0 0 1-.682-.082l-50.938-28.638-50.922 28.638a.956.956 0 0 1-.453.121Z"/><path fill="#EBEBEB" d="m256.031 581.097 29.337-16.521V464.495l-29.337 16.49v100.112Z"/><path fill="#F5F5F5" d="m256.031 581.097-22.022-12.482V468.594l22.022 12.391v100.112Z"/><path fill="#FFCE67" d="m285.368 464.494-22.007-12.39-29.352 16.49 22.022 12.391 29.337-16.491Z"/><path fill="#fff" d="m285.369 464.495-22.007-12.391-29.352 16.49 22.022 12.391 29.337-16.49Z" opacity=".3"/><path fill="#E0E0E0" d="M263.38 609.765a.952.952 0 0 1-.452-.121.872.872 0 0 1-.452-.759v-99.064a.894.894 0 0 1 .122-.445.924.924 0 0 1 .33-.33l51.375-28.851a.931.931 0 0 1 .909.003.903.903 0 0 1 .331.327.86.86 0 0 1 .116.445v99.018a.844.844 0 0 1-.12.44.88.88 0 0 1-.332.32l-51.39 28.85a.898.898 0 0 1-.437.167Zm.889-99.398v96.999l49.581-27.879v-96.999l-49.581 27.879Z"/><path fill="#E0E0E0" d="M263.38 609.765a.949.949 0 0 1-.452-.121l-51.391-28.851a.885.885 0 0 1-.332-.319.847.847 0 0 1-.12-.44V480.97a.862.862 0 0 1 .117-.445.893.893 0 0 1 .33-.327.938.938 0 0 1 .455-.121c.159 0 .317.041.455.118l51.375 28.851c.137.081.25.194.33.33a.894.894 0 0 1 .122.445v99.018a.882.882 0 0 1-.264.613.932.932 0 0 1-.625.268v.045Zm-50.486-30.278 49.581 27.879v-96.999l-49.581-27.879v96.999Z"/><path fill="#E0E0E0" d="M263.377 609.766a.861.861 0 0 1-.343 0 .898.898 0 0 1-.49-.469.86.86 0 0 1-.009-.67l51.375-127.899a.883.883 0 0 1 .474-.517.93.93 0 0 1 1.016.169.887.887 0 0 1 .203.293c.047.11.07.228.068.347a.839.839 0 0 1-.077.345l-51.39 127.9a.857.857 0 0 1-.335.373.893.893 0 0 1-.492.128ZM211.987 580.884a.935.935 0 0 1-.463-.139.882.882 0 0 1-.27-1.258l51.375-70.137a.924.924 0 0 1 1.263-.213.866.866 0 0 1 .219 1.23l-51.391 70.138a.902.902 0 0 1-.733.379ZM300.078 473.606a.915.915 0 0 1-.639-.258.867.867 0 0 1-.265-.623v-98.867a.87.87 0 0 1 .265-.623.914.914 0 0 1 .639-.257c.24 0 .47.092.64.257a.87.87 0 0 1 .265.623v98.867a.867.867 0 0 1-.265.623.92.92 0 0 1-.64.258ZM307.408 477.736a.92.92 0 0 1-.64-.258.867.867 0 0 1-.265-.623v-99.018c0-.234.095-.458.265-.623a.92.92 0 0 1 1.279 0c.17.165.265.389.265.623v99.018a.867.867 0 0 1-.265.623.917.917 0 0 1-.639.258Z"/><path fill="#E0E0E0" d="M307.404 473.149a.501.501 0 0 1-.218 0l-7.346-4.13a.434.434 0 0 1-.208-.272.42.42 0 0 1 .052-.335.436.436 0 0 1 .445-.21.43.43 0 0 1 .163.058l7.346 4.115a.442.442 0 0 1 .208.272.42.42 0 0 1-.052.335.448.448 0 0 1-.39.167ZM307.404 469.035a.534.534 0 0 1-.218 0l-7.346-4.131a.43.43 0 0 1-.208-.272.416.416 0 0 1 .052-.335.432.432 0 0 1 .271-.201.444.444 0 0 1 .337.049l7.346 4.13a.443.443 0 0 1 .207.264.407.407 0 0 1-.051.329.448.448 0 0 1-.39.167ZM307.408 464.904a.368.368 0 0 1-.218 0l-7.346-4.13a.416.416 0 0 1-.131-.112.403.403 0 0 1-.076-.152.402.402 0 0 1 .051-.328.453.453 0 0 1 .608-.167l7.346 4.13a.423.423 0 0 1 .216.433.422.422 0 0 1-.06.159.45.45 0 0 1-.39.167ZM307.408 460.775a.368.368 0 0 1-.218 0l-7.346-4.13a.416.416 0 0 1-.131-.112.403.403 0 0 1-.076-.152.402.402 0 0 1 .051-.328.46.46 0 0 1 .608-.167l7.346 4.13a.423.423 0 0 1 .216.433.422.422 0 0 1-.06.159.416.416 0 0 1-.172.135.439.439 0 0 1-.218.032ZM307.408 456.674a.368.368 0 0 1-.218 0l-7.346-4.13a.426.426 0 0 1-.216-.433.416.416 0 0 1 .06-.159.447.447 0 0 1 .269-.204.464.464 0 0 1 .339.037l7.346 4.13a.458.458 0 0 1 .208.272.431.431 0 0 1-.052.335.459.459 0 0 1-.39.152ZM307.404 452.514a.368.368 0 0 1-.218 0l-7.346-4.115a.434.434 0 0 1-.208-.272.421.421 0 0 1 .052-.336.455.455 0 0 1 .608-.167l7.346 4.131a.442.442 0 0 1 .208.272.416.416 0 0 1-.052.335.464.464 0 0 1-.39.152ZM307.404 448.384a.368.368 0 0 1-.218 0l-7.346-4.115a.434.434 0 0 1-.208-.272.421.421 0 0 1 .052-.336.417.417 0 0 1 .269-.208.435.435 0 0 1 .339.057l7.346 4.054a.446.446 0 0 1 .208.272.42.42 0 0 1-.052.335.447.447 0 0 1-.39.213ZM307.404 444.253a.501.501 0 0 1-.218 0l-7.346-4.13a.43.43 0 0 1-.208-.272.42.42 0 0 1 .052-.335.436.436 0 0 1 .445-.21.43.43 0 0 1 .163.058l7.346 4.115a.446.446 0 0 1 .208.272.421.421 0 0 1-.052.335.448.448 0 0 1-.39.167ZM307.404 440.138a.534.534 0 0 1-.218 0l-7.346-4.13a.434.434 0 0 1-.208-.272.421.421 0 0 1 .052-.336.432.432 0 0 1 .271-.201.45.45 0 0 1 .337.05l7.346 4.13a.426.426 0 0 1 .216.433.422.422 0 0 1-.06.159.448.448 0 0 1-.39.167ZM307.408 436.008a.368.368 0 0 1-.218 0l-7.346-4.13a.426.426 0 0 1-.216-.433.416.416 0 0 1 .06-.159.447.447 0 0 1 .269-.204.464.464 0 0 1 .339.037l7.346 4.13a.43.43 0 0 1 .216.433.416.416 0 0 1-.06.159.416.416 0 0 1-.172.135.418.418 0 0 1-.218.032ZM307.408 431.878a.368.368 0 0 1-.218 0l-7.346-4.13a.426.426 0 0 1-.216-.433.422.422 0 0 1 .06-.159.447.447 0 0 1 .269-.204.464.464 0 0 1 .339.037l7.346 4.13a.427.427 0 0 1 .216.433.41.41 0 0 1-.06.159.416.416 0 0 1-.172.135.418.418 0 0 1-.218.032ZM307.408 427.823a.353.353 0 0 1-.218 0l-7.346-4.13a.426.426 0 0 1-.216-.433.422.422 0 0 1 .06-.159.447.447 0 0 1 .269-.204.464.464 0 0 1 .339.037l7.346 4.13a.458.458 0 0 1 .208.272.439.439 0 0 1-.052.336.45.45 0 0 1-.39.151ZM307.404 423.617a.368.368 0 0 1-.218 0l-7.346-4.115a.434.434 0 0 1-.208-.272.42.42 0 0 1 .052-.335.46.46 0 0 1 .608-.167l7.346 4.13a.446.446 0 0 1 .208.272.42.42 0 0 1-.052.335.464.464 0 0 1-.39.152ZM307.404 419.488a.368.368 0 0 1-.218 0l-7.346-4.115a.447.447 0 0 1-.208-.273.416.416 0 0 1 .052-.335.432.432 0 0 1 .271-.201.444.444 0 0 1 .337.049l7.346 4.1a.446.446 0 0 1 .208.272.421.421 0 0 1-.052.335.462.462 0 0 1-.39.168ZM307.404 415.358a.501.501 0 0 1-.218 0l-7.346-4.236a.434.434 0 0 1-.208-.272.422.422 0 0 1 .052-.336.417.417 0 0 1 .269-.208.433.433 0 0 1 .339.056l7.346 4.115a.446.446 0 0 1 .208.272.422.422 0 0 1-.052.336.459.459 0 0 1-.39.273ZM307.408 411.242a.534.534 0 0 1-.218 0l-7.346-4.13a.436.436 0 0 1 .125-.782.46.46 0 0 1 .328.023l7.345 4.13a.426.426 0 0 1 .216.433.416.416 0 0 1-.06.159.448.448 0 0 1-.39.167ZM307.408 407.112a.501.501 0 0 1-.218 0l-7.346-4.13a.426.426 0 0 1-.216-.433.422.422 0 0 1 .06-.159.447.447 0 0 1 .269-.204.464.464 0 0 1 .339.037l7.346 4.13a.427.427 0 0 1 .216.433.41.41 0 0 1-.06.159.45.45 0 0 1-.39.167ZM307.408 402.981a.368.368 0 0 1-.218 0l-7.346-4.13a.429.429 0 0 1-.216-.433.455.455 0 0 1 .668-.327l7.346 4.131a.415.415 0 0 1 .156.592.416.416 0 0 1-.172.135.439.439 0 0 1-.218.032ZM307.408 398.852a.368.368 0 0 1-.218 0l-7.346-4.13a.416.416 0 0 1-.131-.112.403.403 0 0 1-.076-.152.402.402 0 0 1 .051-.328.453.453 0 0 1 .608-.167l7.346 4.13a.423.423 0 0 1 .216.433.422.422 0 0 1-.06.159.416.416 0 0 1-.172.135.439.439 0 0 1-.218.032ZM307.408 394.721a.368.368 0 0 1-.218 0l-7.346-4.13a.426.426 0 0 1-.216-.433.422.422 0 0 1 .06-.159.447.447 0 0 1 .269-.204.464.464 0 0 1 .339.037l7.346 4.13a.458.458 0 0 1 .208.272.439.439 0 0 1-.052.336.45.45 0 0 1-.39.151ZM307.404 390.591a.368.368 0 0 1-.218 0l-7.346-4.115a.43.43 0 0 1-.208-.272.416.416 0 0 1 .052-.335.417.417 0 0 1 .269-.208.418.418 0 0 1 .176-.007.417.417 0 0 1 .163.063l7.346 4.115a.446.446 0 0 1 .208.272.421.421 0 0 1-.052.336.45.45 0 0 1-.39.151ZM307.404 386.46a.353.353 0 0 1-.218 0l-7.346-4.191a.43.43 0 0 1-.208-.272.416.416 0 0 1 .052-.335.432.432 0 0 1 .271-.201.444.444 0 0 1 .337.049l7.346 4.115a.446.446 0 0 1 .208.272.421.421 0 0 1-.052.336.452.452 0 0 1-.39.227ZM307.404 382.346a.501.501 0 0 1-.218 0l-7.346-4.13a.43.43 0 0 1-.208-.272.42.42 0 0 1 .052-.335.436.436 0 0 1 .445-.21.43.43 0 0 1 .163.058l7.346 4.13a.418.418 0 0 1 .156.592.448.448 0 0 1-.39.167ZM211.986 481.866a.92.92 0 0 1-.779-.44.877.877 0 0 1-.092-.673.898.898 0 0 1 .419-.542l51.375-28.85a.948.948 0 0 1 .904 0l51.391 28.85c.207.12.357.315.419.542a.877.877 0 0 1-.092.673.917.917 0 0 1-.55.401.945.945 0 0 1-.682-.082l-50.938-28.638-50.922 28.638a.956.956 0 0 1-.453.121Z"/><path fill="#E0E0E0" d="M211.986 382.831a.913.913 0 0 1-.546-.183.879.879 0 0 1-.321-.469.855.855 0 0 1 .036-.562.891.891 0 0 1 .379-.426l51.375-28.85a.948.948 0 0 1 .904 0l51.391 28.85a.885.885 0 0 1 .366.532.861.861 0 0 1-.101.633.898.898 0 0 1-.514.399.923.923 0 0 1-.656-.045l-50.938-28.623-50.922 28.623a.81.81 0 0 1-.453.121Z"/><path fill="#EBEBEB" d="m256.031 482.064 29.337-16.521V365.461l-29.337 16.491v100.112Z"/><path fill="#F5F5F5" d="m256.031 482.063-22.022-12.466V369.576l22.022 12.375v100.112Z"/><path fill="#FFCE67" d="m285.368 365.46-22.007-12.39-29.352 16.505 22.022 12.376 29.337-16.491Z"/><path fill="#fff" d="m285.369 365.46-22.007-12.39-29.352 16.505 22.022 12.376 29.337-16.491Z" opacity=".3"/><path fill="#E0E0E0" d="M263.38 510.746a.904.904 0 0 1-.78-.443.87.87 0 0 1-.124-.437v-99.034a.867.867 0 0 1 .124-.437.904.904 0 0 1 .328-.322l51.375-28.851a.958.958 0 0 1 .904 0 .892.892 0 0 1 .33.321c.08.133.122.284.122.438v98.989a.87.87 0 0 1-.124.437.904.904 0 0 1-.328.322l-51.39 28.85a.898.898 0 0 1-.437.167Zm.889-99.398v96.954l49.581-27.864v-96.953l-49.581 27.863Z"/><path fill="#E0E0E0" d="M263.38 510.746a.949.949 0 0 1-.452-.121l-51.391-28.851a.904.904 0 0 1-.328-.322.877.877 0 0 1-.124-.437v-99.064a.875.875 0 0 1 .452-.759.952.952 0 0 1 .905 0l51.375 28.85a.92.92 0 0 1 .328.322.88.88 0 0 1 .124.438v99.018a.877.877 0 0 1-.124.437.92.92 0 0 1-.328.322.898.898 0 0 1-.437.167Zm-50.486-30.278 49.581 27.834v-96.954l-49.581-27.864v96.984Z"/><path fill="#E0E0E0" d="M263.377 510.747a1.232 1.232 0 0 1-.343 0 .898.898 0 0 1-.49-.469.86.86 0 0 1-.009-.67l51.375-127.914a.883.883 0 0 1 .474-.517.93.93 0 0 1 1.016.169.887.887 0 0 1 .203.293c.047.11.07.228.068.347a.842.842 0 0 1-.077.345l-51.39 127.915a.857.857 0 0 1-.335.373.893.893 0 0 1-.492.128ZM211.987 481.866a.935.935 0 0 1-.463-.139.884.884 0 0 1-.426-.811.882.882 0 0 1 .156-.447l51.375-70.138a.906.906 0 0 1 .586-.361.917.917 0 0 1 .677.149.877.877 0 0 1 .219 1.23l-51.391 70.137a.883.883 0 0 1-.733.38ZM300.078 374.587a.915.915 0 0 1-.639-.258.867.867 0 0 1-.265-.623v-98.882c0-.234.095-.458.265-.623a.92.92 0 0 1 1.279 0c.17.165.265.389.265.623v98.882a.867.867 0 0 1-.265.623.92.92 0 0 1-.64.258ZM307.408 378.718a.917.917 0 0 1-.836-.544.854.854 0 0 1-.069-.337v-99.034c0-.234.095-.458.265-.623a.92.92 0 0 1 1.279 0c.17.165.265.389.265.623v99.034a.874.874 0 0 1-.558.813.916.916 0 0 1-.346.068Z"/><path fill="#E0E0E0" d="M307.408 374.131a.368.368 0 0 1-.218 0l-7.346-4.13a.416.416 0 0 1-.131-.112.403.403 0 0 1-.076-.152.402.402 0 0 1 .051-.328.46.46 0 0 1 .608-.167l7.346 4.13a.444.444 0 0 1 .217.445.438.438 0 0 1-.061.162.464.464 0 0 1-.39.152ZM307.404 370.002a.368.368 0 0 1-.218 0l-7.346-4.115a.434.434 0 0 1-.208-.272.421.421 0 0 1 .052-.335.398.398 0 0 1 .112-.133.435.435 0 0 1 .496-.019l7.346 4.115a.442.442 0 0 1 .208.272.42.42 0 0 1-.052.335.464.464 0 0 1-.39.152ZM307.404 365.872a.534.534 0 0 1-.218 0l-7.346-4.131a.43.43 0 0 1-.208-.272.416.416 0 0 1 .052-.335.436.436 0 0 1 .445-.21.448.448 0 0 1 .163.058l7.346 4.115a.446.446 0 0 1 .208.272.421.421 0 0 1-.052.336.468.468 0 0 1-.173.131.474.474 0 0 1-.217.036ZM307.404 361.756a.534.534 0 0 1-.218 0l-7.346-4.13a.434.434 0 0 1-.208-.272.421.421 0 0 1 .052-.335.436.436 0 0 1 .445-.211.45.45 0 0 1 .163.059l7.346 4.145a.418.418 0 0 1 .156.592.464.464 0 0 1-.39.152ZM307.408 357.626a.534.534 0 0 1-.218 0l-7.346-4.206a.443.443 0 0 1-.207-.264.407.407 0 0 1 .051-.329.451.451 0 0 1 .269-.204.464.464 0 0 1 .339.037l7.346 4.131a.438.438 0 0 1 .207.263.422.422 0 0 1-.051.329.462.462 0 0 1-.39.243ZM307.408 353.495a.368.368 0 0 1-.218 0l-7.346-4.13a.443.443 0 0 1-.207-.264.42.42 0 0 1 .051-.329.455.455 0 0 1 .608-.167l7.346 4.131a.438.438 0 0 1 .207.263.422.422 0 0 1-.051.329.424.424 0 0 1-.39.167ZM307.408 349.366a.368.368 0 0 1-.218 0l-7.346-4.13a.429.429 0 0 1-.216-.433.455.455 0 0 1 .668-.327l7.346 4.131a.415.415 0 0 1 .156.592.416.416 0 0 1-.172.135.439.439 0 0 1-.218.032ZM307.404 345.235a.368.368 0 0 1-.218 0l-7.346-4.115a.43.43 0 0 1-.208-.272.42.42 0 0 1 .052-.335.447.447 0 0 1 .269-.204.464.464 0 0 1 .339.037l7.346 4.13a.446.446 0 0 1 .208.272.421.421 0 0 1-.052.335.443.443 0 0 1-.176.123.446.446 0 0 1-.214.029ZM307.404 341.105a.368.368 0 0 1-.218 0l-7.346-4.115a.434.434 0 0 1-.208-.272.422.422 0 0 1 .052-.336.451.451 0 0 1 .269-.204.464.464 0 0 1 .339.037l7.346 4.13a.446.446 0 0 1 .208.272.422.422 0 0 1-.052.336.46.46 0 0 1-.39.152ZM307.404 336.975a.501.501 0 0 1-.218 0l-7.346-4.13a.434.434 0 0 1-.208-.272.422.422 0 0 1 .052-.336.432.432 0 0 1 .271-.201.464.464 0 0 1 .174-.009.468.468 0 0 1 .163.058l7.346 4.115a.446.446 0 0 1 .208.272.422.422 0 0 1-.052.336.448.448 0 0 1-.39.167ZM307.404 332.859a.501.501 0 0 1-.218 0l-7.346-4.13a.42.42 0 0 1-.132-.116.413.413 0 0 1-.076-.156.42.42 0 0 1 .052-.335.436.436 0 0 1 .445-.21.43.43 0 0 1 .163.058l7.346 4.13a.418.418 0 0 1 .156.592.448.448 0 0 1-.39.167ZM307.408 328.73a.534.534 0 0 1-.218 0l-7.346-4.161a.416.416 0 0 1-.131-.112.403.403 0 0 1-.076-.152.402.402 0 0 1 .051-.328.46.46 0 0 1 .608-.167l7.346 4.13a.43.43 0 0 1 .216.433.416.416 0 0 1-.06.159.457.457 0 0 1-.39.198ZM307.408 324.569a.368.368 0 0 1-.218 0l-7.346-4.13a.426.426 0 0 1-.216-.433.416.416 0 0 1 .06-.159.447.447 0 0 1 .269-.204.464.464 0 0 1 .339.037l7.346 4.13a.43.43 0 0 1 .216.433.41.41 0 0 1-.06.159.416.416 0 0 1-.172.135.418.418 0 0 1-.218.032ZM307.408 320.469a.368.368 0 0 1-.218 0l-7.346-4.13a.416.416 0 0 1-.131-.112.403.403 0 0 1-.076-.152.402.402 0 0 1 .051-.328.46.46 0 0 1 .608-.167l7.346 4.13a.458.458 0 0 1 .208.272.431.431 0 0 1-.052.335.453.453 0 0 1-.39.152ZM307.404 316.339a.368.368 0 0 1-.218 0l-7.346-4.115a.434.434 0 0 1-.208-.272.422.422 0 0 1 .052-.336.451.451 0 0 1 .269-.204.464.464 0 0 1 .339.037l7.346 4.009a.446.446 0 0 1 .208.272.42.42 0 0 1-.052.335.46.46 0 0 1-.39.274ZM307.404 312.209a.368.368 0 0 1-.218 0l-7.346-4.115a.434.434 0 0 1-.208-.272.421.421 0 0 1 .052-.335.453.453 0 0 1 .269-.205.464.464 0 0 1 .339.037l7.346 4.131a.442.442 0 0 1 .208.272.416.416 0 0 1-.052.335.464.464 0 0 1-.39.152ZM307.404 308.078a.534.534 0 0 1-.218 0l-7.346-4.13a.434.434 0 0 1-.208-.272.422.422 0 0 1 .052-.336.417.417 0 0 1 .269-.208.433.433 0 0 1 .339.056l7.346 4.115a.446.446 0 0 1 .208.272.422.422 0 0 1-.052.336.448.448 0 0 1-.39.167ZM307.408 303.964a.534.534 0 0 1-.218 0l-7.346-4.131a.442.442 0 0 1-.183-.265.44.44 0 0 1 .308-.516.464.464 0 0 1 .328.022l7.345 4.115a.45.45 0 0 1 .036.735.47.47 0 0 1-.27.1v-.06ZM307.404 299.833a.534.534 0 0 1-.218 0l-7.346-4.115a.43.43 0 0 1-.208-.272.42.42 0 0 1 .052-.335.436.436 0 0 1 .445-.21.43.43 0 0 1 .163.058l7.346 4.13a.418.418 0 0 1 .156.592.443.443 0 0 1-.176.123.472.472 0 0 1-.214.029ZM307.408 295.719a.368.368 0 0 1-.218 0l-7.346-4.131a.426.426 0 0 1-.216-.433.451.451 0 0 1 .329-.363.464.464 0 0 1 .339.037l7.346 4.13a.418.418 0 0 1 .156.593.424.424 0 0 1-.39.167ZM307.408 291.573a.368.368 0 0 1-.218 0l-7.346-4.131a.426.426 0 0 1-.216-.433.451.451 0 0 1 .329-.363.464.464 0 0 1 .339.037l7.346 4.13a.418.418 0 0 1 .156.593.424.424 0 0 1-.39.167ZM307.408 287.443a.368.368 0 0 1-.218 0l-7.346-4.13a.443.443 0 0 1-.207-.264.407.407 0 0 1 .051-.329.455.455 0 0 1 .608-.167l7.346 4.055a.424.424 0 0 1 .208.272.434.434 0 0 1-.052.335.457.457 0 0 1-.39.228ZM307.404 283.312a.368.368 0 0 1-.218 0l-7.346-4.115a.434.434 0 0 1-.208-.272.421.421 0 0 1 .052-.336.417.417 0 0 1 .269-.208.435.435 0 0 1 .339.057l7.346 4.115a.442.442 0 0 1 .208.272.416.416 0 0 1-.052.335.464.464 0 0 1-.39.152ZM211.986 382.831a.913.913 0 0 1-.546-.183.879.879 0 0 1-.321-.469.855.855 0 0 1 .036-.562.891.891 0 0 1 .379-.426l51.375-28.85a.948.948 0 0 1 .904 0l51.391 28.85a.885.885 0 0 1 .366.532.861.861 0 0 1-.101.633.898.898 0 0 1-.514.399.923.923 0 0 1-.656-.045l-50.938-28.623-50.922 28.623a.81.81 0 0 1-.453.121Z"/><path fill="#E0E0E0" d="M211.986 283.813a.913.913 0 0 1-.546-.183.879.879 0 0 1-.321-.469.855.855 0 0 1 .036-.562.891.891 0 0 1 .379-.426l51.375-28.85a.875.875 0 0 1 .904 0l51.391 28.85a.885.885 0 0 1 .366.532.861.861 0 0 1-.101.633.898.898 0 0 1-.514.399.923.923 0 0 1-.656-.045l-50.938-28.623-50.922 28.623a.956.956 0 0 1-.453.121Z"/><path fill="#EBEBEB" d="m256.031 383.045 29.337-16.521V266.443l-29.337 16.49v100.112Z"/><path fill="#F5F5F5" d="m256.031 383.044-22.022-12.481V270.557l22.022 12.376v100.111Z"/><path fill="#E0E0E0" d="m285.368 266.442-22.007-12.39-29.352 16.505 22.022 12.376 29.337-16.491ZM263.377 411.713a.873.873 0 0 1-.845-.538.838.838 0 0 1-.06-.342v-99.019a.856.856 0 0 1 .453-.759l51.374-28.851a.878.878 0 0 1 .905 0 .872.872 0 0 1 .452.759v99.019a.847.847 0 0 1-.12.44.877.877 0 0 1-.332.319l-51.39 28.851a.87.87 0 0 1-.437.121Zm.889-99.398v96.999l49.581-27.864v-96.999l-49.581 27.864Z"/><path fill="#E0E0E0" d="M263.38 411.713a.94.94 0 0 1-.452-.106l-51.391-28.851a.877.877 0 0 1-.332-.319.847.847 0 0 1-.12-.44v-99.064a.847.847 0 0 1 .12-.44.87.87 0 0 1 .332-.319.879.879 0 0 1 .905 0l51.375 28.85a.88.88 0 0 1 .332.32.851.851 0 0 1 .12.44v99.018a.897.897 0 0 1-.122.445.94.94 0 0 1-.33.33.88.88 0 0 1-.437.136Zm-50.486-30.263 49.581 27.864v-96.999l-49.581-27.864v96.999Z"/><path fill="#E0E0E0" d="M263.377 411.714a.861.861 0 0 1-.343 0 .9.9 0 0 1-.49-.47.858.858 0 0 1-.009-.669l51.375-127.9a.888.888 0 0 1 .474-.516.93.93 0 0 1 1.016.169.887.887 0 0 1 .203.293c.047.11.07.228.068.347a.842.842 0 0 1-.077.345l-51.39 127.809a.846.846 0 0 1-.315.426.881.881 0 0 1-.512.166ZM211.991 382.832a.894.894 0 0 1-.515-.152.874.874 0 0 1-.378-.57.842.842 0 0 1 .16-.66l51.374-70.153a.934.934 0 0 1 1.272-.205.885.885 0 0 1 .368.577.864.864 0 0 1-.158.661l-51.39 70.138a.903.903 0 0 1-.733.364ZM248.686 386.082v-16.506l-7.362-4.115.031 16.491 7.331 4.13Z"/><path fill="#000" d="M248.692 386.083v-16.506l-7.362-4.115.031 16.49 7.331 4.131Z" opacity=".15"/><path fill="#E0E0E0" d="M234.009 394.767a.501.501 0 0 1-.218 0 .45.45 0 0 1-.173-.165.425.425 0 0 1-.061-.23v-16.536a.406.406 0 0 1 .218-.379l14.692-8.261a.482.482 0 0 1 .453 0c.067.04.122.096.16.162a.432.432 0 0 1 .058.218v16.506a.432.432 0 0 1-.218.379l-14.692 8.261a.515.515 0 0 1-.219.045Zm.453-16.703v15.488l13.771-7.744V370.32l-13.771 7.744Z"/><path fill="#E0E0E0" d="M226.649 390.667a.473.473 0 0 1-.292-.104.452.452 0 0 1-.16-.26.44.44 0 0 1 .358-.516l22.054-4.131a.473.473 0 0 1 .339.068.44.44 0 0 1 .191.282.461.461 0 0 1-.079.324.483.483 0 0 1-.28.192l-22.053 4.13-.078.015ZM211.988 398.973a.44.44 0 0 1-.437-.349.433.433 0 0 1 .195-.452.466.466 0 0 1 .164-.065l22.038-4.145a.453.453 0 0 1 .339.068.437.437 0 0 1-.168.798l-22.037 4.145h-.094ZM197.323 407.173a.477.477 0 0 1-.283-.109.433.433 0 0 1 .041-.707.466.466 0 0 1 .164-.065l22.116-4.145a.494.494 0 0 1 .333.077.475.475 0 0 1 .197.272.433.433 0 0 1-.195.452.44.44 0 0 1-.164.064l-22.053 4.146-.156.015ZM182.682 415.418a.458.458 0 0 1-.283-.126.432.432 0 0 1-.051-.567.455.455 0 0 1 .256-.172l22.038-4.146a.479.479 0 0 1 .34.068.45.45 0 0 1 .19.281.44.44 0 0 1-.358.517l-22.054 4.145h-.078ZM168.02 423.664a.458.458 0 0 1-.283-.126.434.434 0 0 1-.051-.568.448.448 0 0 1 .256-.172l22.038-4.084a.458.458 0 0 1 .464.19.437.437 0 0 1-.003.489.454.454 0 0 1-.29.186l-22.037 4.145-.094-.06ZM153.374 431.925a.445.445 0 0 1-.289-.103.423.423 0 0 1-.148-.262.42.42 0 0 1 .192-.455.448.448 0 0 1 .167-.061l22.038-4.13a.453.453 0 0 1 .339.067.44.44 0 0 1 .191.282.444.444 0 0 1-.075.327.463.463 0 0 1-.284.189l-22.053 4.131-.078.015Z"/><path fill="#E0E0E0" d="M248.685 386.522a.372.372 0 0 1-.219 0l-14.692-8.246a.455.455 0 0 1-.132-.115.434.434 0 0 1-.024-.492.43.43 0 0 1 .27-.208.413.413 0 0 1 .175-.007.421.421 0 0 1 .164.063l14.692 8.245a.449.449 0 0 1 .156.608.461.461 0 0 1-.39.152Z"/><path fill="#E0E0E0" d="M234.008 394.767a.534.534 0 0 1-.218 0 .452.452 0 0 1-.217-.269.445.445 0 0 1-.013-.174.446.446 0 0 1 .058-.165l14.677-24.751a.446.446 0 0 1 .275-.211.451.451 0 0 1 .348.044.444.444 0 0 1 .156.608l-14.676 24.75a.462.462 0 0 1-.39.168Z"/><path fill="#E0E0E0" d="M219.366 403.028a.442.442 0 0 1-.234 0 .444.444 0 0 1-.218-.38v-16.566a.444.444 0 0 1 .218-.38l14.677-8.245a.41.41 0 0 1 .452 0c.071.036.13.091.172.158a.416.416 0 0 1 .062.222v16.49a.466.466 0 0 1-.234.395l-14.676 8.245a.367.367 0 0 1-.219.061Zm.437-16.703v15.488l13.772-7.744v-15.488l-13.772 7.744Z"/><path fill="#E0E0E0" d="M234.01 394.767a.614.614 0 0 1-.234 0l-14.676-8.26a.432.432 0 0 1-.172-.592.478.478 0 0 1 .624-.167l14.676 8.245a.44.44 0 0 1 .23.442.446.446 0 0 1-.058.165.472.472 0 0 1-.39.167Z"/><path fill="#E0E0E0" d="M219.365 403.027a.442.442 0 0 1-.234 0 .442.442 0 0 1-.208-.272.42.42 0 0 1 .052-.335l14.676-24.751a.417.417 0 0 1 .269-.208.419.419 0 0 1 .176-.007.417.417 0 0 1 .163.063.425.425 0 0 1 .229.431.42.42 0 0 1-.057.161l-14.676 24.751a.45.45 0 0 1-.39.167Z"/><path fill="#E0E0E0" d="M204.644 411.272a.506.506 0 0 1-.219 0 .471.471 0 0 1-.234-.379v-16.476a.427.427 0 0 1 .234-.379l14.677-8.261a.479.479 0 0 1 .452 0 .43.43 0 0 1 .218.38v16.506a.43.43 0 0 1-.218.379l-14.676 8.261a.637.637 0 0 1-.234-.031Zm.452-16.703v15.489l13.787-7.745v-15.488l-13.787 7.744Z"/><path fill="#E0E0E0" d="M219.364 403.027a.442.442 0 0 1-.234 0l-14.676-8.245a.452.452 0 0 1-.217-.269.426.426 0 0 1 .045-.339.437.437 0 0 1 .457-.216c.06.01.117.032.167.065l14.677 8.245a.45.45 0 0 1 .217.268.427.427 0 0 1-.046.339.467.467 0 0 1-.39.152Z"/><path fill="#E0E0E0" d="M204.643 411.273a.571.571 0 0 1-.218 0 .437.437 0 0 1-.172-.607l14.676-24.751a.462.462 0 0 1 .839.102.426.426 0 0 1-.043.338l-14.676 24.766a.497.497 0 0 1-.406.152Z"/><path fill="#E0E0E0" d="M189.966 419.533a.368.368 0 0 1-.218 0 .44.44 0 0 1-.234-.379v-16.567a.44.44 0 0 1 .234-.379l14.676-8.246a.418.418 0 0 1 .452 0 .416.416 0 0 1 .219.38v16.506a.452.452 0 0 1-.219.379l-14.676 8.245a.438.438 0 0 1-.234.061Zm.452-16.703v15.488l13.772-7.744v-15.488l-13.772 7.744Z"/><path fill="#E0E0E0" d="M204.641 411.273a.506.506 0 0 1-.219 0l-14.692-8.306a.443.443 0 0 1-.293-.447.43.43 0 0 1 .185-.322.456.456 0 0 1 .371-.072.465.465 0 0 1 .174.082l14.692 8.245a.458.458 0 0 1 .208.272.42.42 0 0 1 .008.173.446.446 0 0 1-.219.315.466.466 0 0 1-.215.06Z"/><path fill="#E0E0E0" d="M189.968 419.533a.368.368 0 0 1-.218 0 .452.452 0 0 1-.217-.269.445.445 0 0 1-.013-.174.446.446 0 0 1 .058-.165l14.677-24.751a.421.421 0 0 1 .277-.209.434.434 0 0 1 .346.058.426.426 0 0 1 .216.433.422.422 0 0 1-.06.159l-14.676 24.751a.427.427 0 0 1-.39.167Z"/><path fill="#E0E0E0" d="M175.292 427.824a.657.657 0 0 1-.234 0 .448.448 0 0 1-.219-.38v-16.596a.408.408 0 0 1 .219-.38l14.692-8.26a.435.435 0 0 1 .218-.057c.077 0 .152.019.218.057a.41.41 0 0 1 .234.379v16.506a.41.41 0 0 1-.234.379l-14.676 8.261a.508.508 0 0 1-.218.091Zm.452-16.703v15.488l13.772-7.744v-15.488l-13.772 7.744Z"/><path fill="#E0E0E0" d="M189.964 419.534a.368.368 0 0 1-.218 0l-14.692-8.246a.43.43 0 0 1-.208-.272.416.416 0 0 1 .052-.335.417.417 0 0 1 .269-.208.417.417 0 0 1 .176-.007.417.417 0 0 1 .163.063l14.676 8.245a.437.437 0 0 1 .172.608.46.46 0 0 1-.39.152Z"/><path fill="#E0E0E0" d="M175.289 427.824a.657.657 0 0 1-.234 0 .457.457 0 0 1-.202-.274.444.444 0 0 1 .046-.334l14.676-24.75a.43.43 0 0 1 .268-.211.449.449 0 0 1 .341.043.447.447 0 0 1 .217.269.427.427 0 0 1-.046.339l-14.661 24.66a.456.456 0 0 1-.405.258Z"/><path fill="#E0E0E0" d="M160.613 436.039a.442.442 0 0 1-.234 0 .444.444 0 0 1-.218-.38v-16.566a.44.44 0 0 1 .218-.38l14.677-8.245a.41.41 0 0 1 .452 0c.071.036.13.091.172.158a.416.416 0 0 1 .062.222v16.505a.477.477 0 0 1-.234.38l-14.676 8.245a.367.367 0 0 1-.219.061Zm.437-16.703v15.488l13.772-7.744v-15.488l-13.772 7.744Z"/><path fill="#E0E0E0" d="M175.29 427.824a.614.614 0 0 1-.234 0l-14.676-8.26a.415.415 0 0 1-.172-.592.436.436 0 0 1 .116-.133.479.479 0 0 1 .16-.079.464.464 0 0 1 .348.045l14.676 8.245a.441.441 0 0 1 .23.442.434.434 0 0 1-.058.165.474.474 0 0 1-.39.167Z"/><path fill="#E0E0E0" d="M160.615 436.039a.439.439 0 0 1-.233 0 .406.406 0 0 1-.222-.433.405.405 0 0 1 .066-.159l14.676-24.766a.417.417 0 0 1 .269-.208.417.417 0 0 1 .176-.007.417.417 0 0 1 .163.063.415.415 0 0 1 .172.592l-14.677 24.751a.448.448 0 0 1-.39.167ZM226.646 390.667a.657.657 0 0 1-.234 0 .444.444 0 0 1-.218-.38v-16.566a.416.416 0 0 1 .218-.38l14.676-8.26a.487.487 0 0 1 .453 0 .438.438 0 0 1 .234.38v16.505a.427.427 0 0 1-.234.38l-14.677 8.26a.516.516 0 0 1-.218.061Zm.452-16.703v15.503l13.772-7.744V366.22l-13.772 7.744Z"/><path fill="#E0E0E0" d="M241.323 382.407a.464.464 0 0 1-.234 0l-14.676-8.246a.424.424 0 0 1-.216-.444.418.418 0 0 1 .06-.163.426.426 0 0 1 .271-.202.444.444 0 0 1 .337.05l14.677 8.245a.439.439 0 0 1 .229.443.429.429 0 0 1-.058.165.458.458 0 0 1-.39.152Z"/><path fill="#E0E0E0" d="M226.647 390.667a.657.657 0 0 1-.234 0 .424.424 0 0 1-.216-.444.418.418 0 0 1 .06-.163l14.676-24.751a.443.443 0 0 1 .268-.21.446.446 0 0 1 .341.043.439.439 0 0 1 .229.443.429.429 0 0 1-.058.165l-14.676 24.75a.493.493 0 0 1-.39.167Z"/><path fill="#E0E0E0" d="M211.97 398.973a.442.442 0 0 1-.234 0 .407.407 0 0 1-.218-.38v-16.627a.43.43 0 0 1 .234-.379l14.676-8.246a.482.482 0 0 1 .624.158.417.417 0 0 1 .063.222v16.506a.444.444 0 0 1-.234.379l-14.677 8.245a.358.358 0 0 1-.234.122Zm.437-16.703v15.488l13.772-7.744v-15.488l-13.772 7.744Z"/><path fill="#E0E0E0" d="M226.649 390.667a.442.442 0 0 1-.234 0l-14.676-8.26a.433.433 0 0 1-.216-.26.421.421 0 0 1 .045-.332.465.465 0 0 1 .454-.224c.06.008.117.027.17.057l14.676 8.26a.433.433 0 0 1 .216.26.412.412 0 0 1-.045.332.448.448 0 0 1-.39.167Z"/><path fill="#E0E0E0" d="M211.973 398.973a.451.451 0 0 1-.461-.432.43.43 0 0 1 .056-.221l14.692-24.766a.436.436 0 0 1 .445-.21.43.43 0 0 1 .163.058.433.433 0 0 1 .216.26.42.42 0 0 1-.044.332l-14.677 24.766a.478.478 0 0 1-.39.213Z"/><path fill="#E0E0E0" d="M197.283 407.173a.534.534 0 0 1-.218 0 .438.438 0 0 1-.234-.379v-16.567a.416.416 0 0 1 .234-.379l14.676-8.261a.482.482 0 0 1 .453 0 .444.444 0 0 1 .218.38v16.505a.407.407 0 0 1-.218.38l-14.661 8.261a.67.67 0 0 1-.25.06Zm.453-16.703v15.504l13.771-7.744v-15.489l-13.771 7.729Z"/><path fill="#E0E0E0" d="M211.959 398.973a.353.353 0 0 1-.218 0l-14.677-8.245a.45.45 0 0 1-.217-.268.427.427 0 0 1 .046-.339.443.443 0 0 1 .279-.203.464.464 0 0 1 .345.051l14.676 8.245a.458.458 0 0 1 .208.272.42.42 0 0 1 .008.173.418.418 0 0 1-.06.163.45.45 0 0 1-.39.151Z"/><path fill="#E0E0E0" d="M197.283 407.173a.539.539 0 0 1-.219 0 .45.45 0 0 1-.217-.269.42.42 0 0 1 .046-.338l14.676-24.751a.436.436 0 0 1 .116-.133.47.47 0 0 1 .339-.091.464.464 0 0 1 .301.172.424.424 0 0 1 .084.33.419.419 0 0 1-.06.162l-14.676 24.751a.45.45 0 0 1-.39.167Z"/><path fill="#E0E0E0" d="M182.605 415.419a.372.372 0 0 1-.219 0 .427.427 0 0 1-.234-.38v-16.566a.44.44 0 0 1 .219-.38l14.692-8.23a.48.48 0 0 1 .452 0 .42.42 0 0 1 .165.159.4.4 0 0 1 .053.221v16.505a.425.425 0 0 1-.057.218.447.447 0 0 1-.161.162l-14.692 8.245a.36.36 0 0 1-.218.046Zm.452-16.703v15.442l13.772-7.744v-15.488l-13.772 7.79Z"/><path fill="#E0E0E0" d="M197.28 407.173a.368.368 0 0 1-.218 0l-14.692-8.26a.427.427 0 0 1-.216-.433.45.45 0 0 1 .329-.363.459.459 0 0 1 .339.037l14.692 8.26c.1.06.172.155.201.266a.428.428 0 0 1-.045.326.419.419 0 0 1-.39.167Z"/><path fill="#E0E0E0" d="M182.603 415.418a.368.368 0 0 1-.218 0 .437.437 0 0 1-.216-.26.413.413 0 0 1 .044-.332l14.676-24.766a.461.461 0 0 1 .599-.129.43.43 0 0 1 .181.569l-14.676 24.766a.464.464 0 0 1-.39.152Z"/><path fill="#E0E0E0" d="M167.9 423.678a.657.657 0 0 1-.234 0 .439.439 0 0 1-.219-.379v-16.567a.442.442 0 0 1 .219-.379l14.676-8.261a.48.48 0 0 1 .452 0 .433.433 0 0 1 .234.38v16.505a.43.43 0 0 1-.234.38l-14.676 8.26a.52.52 0 0 1-.218.061Zm.452-16.703v15.488l13.772-7.744v-15.488l-13.772 7.744Z"/><path fill="#E0E0E0" d="M182.602 415.418a.439.439 0 0 1-.233 0l-14.677-8.245a.45.45 0 0 1-.217-.268.427.427 0 0 1 .327-.536.481.481 0 0 1 .343.045l14.676 8.245a.452.452 0 0 1 .217.269.424.424 0 0 1-.046.339.47.47 0 0 1-.39.151Z"/><path fill="#E0E0E0" d="M167.896 423.678a.657.657 0 0 1-.234 0 .424.424 0 0 1-.216-.444.434.434 0 0 1 .06-.163l14.676-24.751a.443.443 0 0 1 .268-.21.446.446 0 0 1 .341.043.439.439 0 0 1 .229.443.429.429 0 0 1-.058.165l-14.676 24.75a.493.493 0 0 1-.39.167Z"/><path fill="#E0E0E0" d="M153.237 431.924a.368.368 0 0 1-.218 0 .406.406 0 0 1-.219-.379v-16.567a.438.438 0 0 1 .234-.379l14.677-8.246a.479.479 0 0 1 .452 0 .434.434 0 0 1 .234.38v16.536a.448.448 0 0 1-.234.38l-14.676 8.245a.447.447 0 0 1-.25.03Zm.452-16.703v15.488l13.788-7.744v-15.488l-13.788 7.744Z"/><path fill="#E0E0E0" d="M167.896 423.679a.46.46 0 0 1-.233 0l-14.677-8.261a.43.43 0 0 1-.216-.26.408.408 0 0 1-.012-.17.408.408 0 0 1 .057-.162.446.446 0 0 1 .276-.211.445.445 0 0 1 .178-.012c.06.007.118.026.17.056l14.676 8.26a.433.433 0 0 1 .216.261c.016.055.02.113.013.17a.432.432 0 0 1-.058.162.468.468 0 0 1-.173.131.471.471 0 0 1-.217.036Z"/><path fill="#E0E0E0" d="M160.61 436.039a.442.442 0 0 1-.234 0l-7.362-4.115a.454.454 0 0 1-.218-.258.611.611 0 0 1 0-.334l14.723-24.766a.467.467 0 0 1 .281-.197.48.48 0 0 1 .343.045.44.44 0 0 1 .209.262.427.427 0 0 1-.038.33l-14.458 24.326 6.972 3.887a.433.433 0 0 1 .216.261.424.424 0 0 1-.044.331.457.457 0 0 1-.39.228ZM248.686 344.825v-16.506l-7.362-4.115.031 16.491 7.331 4.13Z"/><path fill="#000" d="M248.692 344.825V328.32l-7.362-4.115.031 16.49 7.331 4.13Z" opacity=".15"/><path fill="#E0E0E0" d="M234.01 353.511a.372.372 0 0 1-.219 0 .396.396 0 0 1-.234-.38v-16.566a.442.442 0 0 1 .219-.38l14.691-8.245a.484.484 0 0 1 .453 0 .42.42 0 0 1 .165.159.398.398 0 0 1 .053.221v16.505a.444.444 0 0 1-.218.38l-14.692 8.215a.365.365 0 0 1-.218.091Zm.452-16.703v15.488l13.772-7.744v-15.428l-13.772 7.684Z"/><path fill="#E0E0E0" d="M226.649 349.411a.473.473 0 0 1-.292-.104.455.455 0 0 1-.16-.26.44.44 0 0 1 .358-.517l22.054-4.145a.48.48 0 0 1 .336.073.452.452 0 0 1 .194.276.433.433 0 0 1-.195.452.458.458 0 0 1-.164.065l-22.053 4.145-.078.015ZM211.988 357.655a.446.446 0 0 1-.289-.102.423.423 0 0 1-.148-.262.433.433 0 0 1 .195-.451.466.466 0 0 1 .164-.065l22.038-4.13a.468.468 0 0 1 .463.189.433.433 0 0 1-.128.611.458.458 0 0 1-.164.065l-22.037 4.13-.094.015ZM197.325 365.901a.457.457 0 0 1-.284-.126.432.432 0 0 1-.051-.567.454.454 0 0 1 .257-.172l22.116-4.145a.453.453 0 0 1 .339.067.454.454 0 0 1 .191.282.433.433 0 0 1-.195.451.466.466 0 0 1-.164.065l-22.053 4.145h-.156ZM182.685 374.161a.443.443 0 0 1-.288-.102.418.418 0 0 1-.148-.262.408.408 0 0 1-.004-.174.438.438 0 0 1 .067-.161.444.444 0 0 1 .295-.182l22.038-4.145a.478.478 0 0 1 .336.073.448.448 0 0 1 .194.276.424.424 0 0 1-.195.452.454.454 0 0 1-.163.065l-22.054 4.145-.078.015ZM168.021 382.407a.472.472 0 0 1-.437-.349.433.433 0 0 1 .196-.452.452.452 0 0 1 .163-.064l22.038-4.146a.46.46 0 0 1 .339.068.432.432 0 0 1 .122.612.456.456 0 0 1-.29.186l-22.037 4.145h-.094ZM153.376 390.667a.455.455 0 0 1-.492-.402.436.436 0 0 1 .105-.322.459.459 0 0 1 .309-.156l22.038-4.146a.473.473 0 0 1 .339.068.437.437 0 0 1-.168.798l-22.053 4.145-.078.015Z"/><path fill="#E0E0E0" d="M248.684 345.265a.372.372 0 0 1-.219 0l-14.692-8.26a.438.438 0 0 1-.131-.111.419.419 0 0 1-.025-.481.46.46 0 0 1 .609-.167l14.692 8.26c.099.06.171.155.2.266a.428.428 0 0 1-.045.326.419.419 0 0 1-.389.167Z"/><path fill="#E0E0E0" d="M234.01 353.511a.368.368 0 0 1-.218 0 .433.433 0 0 1-.216-.26.42.42 0 0 1 .044-.332l14.677-24.766a.46.46 0 0 1 .598-.129.43.43 0 0 1 .181.569L234.4 353.359a.456.456 0 0 1-.39.152Z"/><path fill="#E0E0E0" d="M219.363 361.772a.657.657 0 0 1-.234 0 .454.454 0 0 1-.161-.162.425.425 0 0 1-.057-.218v-16.566a.41.41 0 0 1 .218-.38l14.676-8.26a.483.483 0 0 1 .453 0 .438.438 0 0 1 .234.38v16.505a.434.434 0 0 1-.234.38l-14.677 8.26a.52.52 0 0 1-.218.061Zm.437-16.703v15.503l13.771-7.744v-15.503l-13.771 7.744Z"/><path fill="#E0E0E0" d="M234.01 353.51a.464.464 0 0 1-.234 0l-14.677-8.246a.445.445 0 0 1-.238-.267.438.438 0 0 1 .334-.56.466.466 0 0 1 .357.068l14.676 8.245a.452.452 0 0 1 .217.269.427.427 0 0 1-.046.339.47.47 0 0 1-.389.152Z"/><path fill="#E0E0E0" d="M219.365 361.771a.657.657 0 0 1-.234 0 .442.442 0 0 1-.208-.272.416.416 0 0 1 .052-.335l14.676-24.751a.443.443 0 0 1 .268-.21.43.43 0 0 1 .175-.012.435.435 0 0 1 .165.055.456.456 0 0 1 .218.269.442.442 0 0 1-.046.339l-14.676 24.75a.493.493 0 0 1-.39.167Z"/><path fill="#E0E0E0" d="M204.644 370.015a.356.356 0 0 1-.219 0 .425.425 0 0 1-.234-.379V353.07a.444.444 0 0 1 .234-.38l14.677-8.245a.468.468 0 0 1 .452 0 .42.42 0 0 1 .165.159.395.395 0 0 1 .053.22v16.506a.43.43 0 0 1-.218.38l-14.676 8.245a.447.447 0 0 1-.234.06Zm.452-16.703v15.489l13.787-7.744v-15.489l-13.787 7.744Z"/><path fill="#E0E0E0" d="M219.365 361.772a.464.464 0 0 1-.234 0l-14.707-8.352a.428.428 0 0 1-.229-.431.42.42 0 0 1 .057-.161.448.448 0 0 1 .276-.211.45.45 0 0 1 .348.044l14.676 8.26a.425.425 0 0 1 .229.431.43.43 0 0 1-.057.162.46.46 0 0 1-.144.175.461.461 0 0 1-.215.083Z"/><path fill="#E0E0E0" d="M204.642 370.016a.385.385 0 0 1-.218 0 .428.428 0 0 1-.229-.43.43.43 0 0 1 .057-.162l14.676-24.766a.44.44 0 0 1 .28-.202.46.46 0 0 1 .344.05.425.425 0 0 1 .229.431.43.43 0 0 1-.057.162l-14.676 24.766a.483.483 0 0 1-.185.122.475.475 0 0 1-.221.029Z"/><path fill="#E0E0E0" d="M189.966 378.277a.501.501 0 0 1-.218 0 .44.44 0 0 1-.234-.379v-16.567a.435.435 0 0 1 .218-.319l14.676-8.26a.483.483 0 0 1 .453 0 .444.444 0 0 1 .218.38v16.505a.407.407 0 0 1-.218.38l-14.677 8.26a.665.665 0 0 1-.218 0Zm.452-16.703v15.489l13.772-7.745V353.83l-13.772 7.744Z"/><path fill="#E0E0E0" d="M204.641 370.016a.372.372 0 0 1-.219 0l-14.692-8.306a.439.439 0 0 1-.229-.443.436.436 0 0 1 .503-.375.45.45 0 0 1 .163.059l14.692 8.245a.458.458 0 0 1 .208.272.42.42 0 0 1 .008.173.448.448 0 0 1-.434.375Z"/><path fill="#E0E0E0" d="M189.968 378.277a.534.534 0 0 1-.218 0 .437.437 0 0 1-.172-.607l14.677-24.751a.446.446 0 0 1 .275-.211.451.451 0 0 1 .348.044.45.45 0 0 1 .209.272.439.439 0 0 1-.053.335l-14.676 24.751a.448.448 0 0 1-.39.167Z"/><path fill="#E0E0E0" d="M175.292 386.522a.442.442 0 0 1-.234 0 .408.408 0 0 1-.219-.38v-16.566a.442.442 0 0 1 .219-.38l14.676-8.184a.442.442 0 0 1 .437 0 .396.396 0 0 1 .234.379v16.506a.409.409 0 0 1-.234.38l-14.677 8.245a.365.365 0 0 1-.202 0Zm.452-16.703v15.488l13.772-7.744v-15.488l-13.772 7.744Z"/><path fill="#E0E0E0" d="M189.97 378.277a.372.372 0 0 1-.219 0l-14.691-8.261a.426.426 0 0 1-.216-.433.422.422 0 0 1 .06-.159.444.444 0 0 1 .269-.204.465.465 0 0 1 .339.037l14.676 8.26a.42.42 0 0 1 .172.593.424.424 0 0 1-.39.167Z"/><path fill="#E0E0E0" d="M175.29 386.522a.442.442 0 0 1-.234 0 .43.43 0 0 1-.156-.592l14.676-24.766a.426.426 0 0 1 .271-.202.444.444 0 0 1 .337.05.425.425 0 0 1 .229.431.42.42 0 0 1-.057.161l-14.661 24.705a.447.447 0 0 1-.405.213Z"/><path fill="#E0E0E0" d="M160.612 394.782a.657.657 0 0 1-.234 0 .45.45 0 0 1-.192-.144.425.425 0 0 1-.088-.22v-16.582a.424.424 0 0 1 .057-.217.447.447 0 0 1 .161-.162l14.676-8.261a.479.479 0 0 1 .622.159.433.433 0 0 1 .064.221v16.506a.427.427 0 0 1-.233.379l-14.677 8.261a.51.51 0 0 1-.156.06Zm.437-16.703v15.489l13.772-7.745v-15.488l-13.772 7.744Z"/><path fill="#E0E0E0" d="M175.291 386.523a.464.464 0 0 1-.234 0l-14.676-8.245a.437.437 0 0 1-.172-.608.475.475 0 0 1 .28-.203.48.48 0 0 1 .344.051l14.676 8.246a.45.45 0 0 1 .137.112.445.445 0 0 1 .093.33.446.446 0 0 1-.058.165.474.474 0 0 1-.39.152Z"/><path fill="#E0E0E0" d="M160.611 394.783a.707.707 0 0 1-.234 0 .427.427 0 0 1-.221-.445.42.42 0 0 1 .065-.163l14.677-24.751a.451.451 0 0 1 .442-.222.44.44 0 0 1 .166.055.452.452 0 0 1 .217.269.427.427 0 0 1-.045.339l-14.677 24.751a.493.493 0 0 1-.39.167ZM226.65 349.396a.614.614 0 0 1-.234 0 .455.455 0 0 1-.219-.394v-16.536a.456.456 0 0 1 .219-.395l14.676-8.245a.468.468 0 0 1 .452 0 .44.44 0 0 1 .234.379v16.506a.44.44 0 0 1-.234.379l-14.676 8.261a.51.51 0 0 1-.218.045Zm.452-16.703v15.489l13.772-7.745v-15.488l-13.772 7.744Z"/><path fill="#E0E0E0" d="M241.323 341.151a.464.464 0 0 1-.234 0l-14.676-8.246a.424.424 0 0 1-.216-.444.418.418 0 0 1 .06-.163.43.43 0 0 1 .268-.21.448.448 0 0 1 .34.043l14.677 8.26a.446.446 0 0 1 .209.262.43.43 0 0 1-.038.331.427.427 0 0 1-.39.167Z"/><path fill="#E0E0E0" d="M226.647 349.395a.657.657 0 0 1-.234 0 .458.458 0 0 1-.208-.272.42.42 0 0 1-.008-.173.413.413 0 0 1 .06-.162l14.676-24.751a.43.43 0 0 1 .268-.21.449.449 0 0 1 .341.043.45.45 0 0 1 .217.268.427.427 0 0 1-.046.339l-14.676 24.751a.472.472 0 0 1-.39.167Z"/><path fill="#E0E0E0" d="M211.971 357.656a.442.442 0 0 1-.234 0 .446.446 0 0 1-.161-.162.425.425 0 0 1-.057-.218V340.71a.433.433 0 0 1 .234-.38l14.676-8.26a.48.48 0 0 1 .452 0 .477.477 0 0 1 .234.395v16.505a.433.433 0 0 1-.234.38l-14.676 8.245a.366.366 0 0 1-.234.061Zm.437-16.703v15.503l13.771-7.744v-15.488l-13.771 7.729Z"/><path fill="#E0E0E0" d="M226.649 349.41a.657.657 0 0 1-.234 0l-14.676-8.26a.433.433 0 0 1-.216-.26.421.421 0 0 1 .045-.332.465.465 0 0 1 .454-.224c.06.008.117.027.17.057l14.676 8.26a.433.433 0 0 1 .216.26.412.412 0 0 1-.045.332.476.476 0 0 1-.39.167Z"/><path fill="#E0E0E0" d="M211.972 357.656a.442.442 0 0 1-.234 0 .44.44 0 0 1-.209-.262.428.428 0 0 1 .038-.33l14.692-24.766a.432.432 0 0 1 .267-.21.449.449 0 0 1 .512.65l-14.676 24.766a.473.473 0 0 1-.39.152Z"/><path fill="#E0E0E0" d="M197.283 365.901a.501.501 0 0 1-.218 0 .477.477 0 0 1-.234-.395V348.97a.416.416 0 0 1 .234-.379l14.676-8.261a.483.483 0 0 1 .453 0 .444.444 0 0 1 .218.38v16.505a.436.436 0 0 1-.218.38l-14.661 8.26a.627.627 0 0 1-.25.046Zm.453-16.703v15.488l13.771-7.744v-15.488l-13.771 7.744Z"/><path fill="#E0E0E0" d="M211.959 357.656a.368.368 0 0 1-.218 0l-14.677-8.245a.439.439 0 0 1-.229-.443.419.419 0 0 1 .058-.164.444.444 0 0 1 .624-.152l14.676 8.245a.458.458 0 0 1 .208.272.42.42 0 0 1 .008.173.413.413 0 0 1-.06.162.464.464 0 0 1-.39.152Z"/><path fill="#E0E0E0" d="M197.283 365.902a.539.539 0 0 1-.219 0 .447.447 0 0 1-.217-.269.427.427 0 0 1 .046-.339l14.676-24.751a.444.444 0 0 1 .276-.211.45.45 0 0 1 .348.044.458.458 0 0 1 .208.272.42.42 0 0 1 .008.173.418.418 0 0 1-.06.163l-14.676 24.751a.47.47 0 0 1-.39.167Z"/><path fill="#E0E0E0" d="M182.605 374.163a.372.372 0 0 1-.219 0 .448.448 0 0 1-.234-.38v-16.566a.436.436 0 0 1 .219-.38l14.692-8.245a.412.412 0 0 1 .452 0 .42.42 0 0 1 .165.159.397.397 0 0 1 .053.22v16.506a.422.422 0 0 1-.058.218.451.451 0 0 1-.16.162l-14.692 8.245a.366.366 0 0 1-.218.061Zm.452-16.703v15.488l13.772-7.744v-15.489l-13.772 7.745Z"/><path fill="#E0E0E0" d="M197.28 365.916a.534.534 0 0 1-.218 0l-14.692-8.26a.418.418 0 0 1-.156-.593.458.458 0 0 1 .608-.167l14.692 8.261a.43.43 0 0 1 .156.592.448.448 0 0 1-.39.167Z"/><path fill="#E0E0E0" d="M182.602 374.162a.368.368 0 0 1-.218 0 .432.432 0 0 1-.172-.592l14.677-24.766a.444.444 0 0 1 .623-.152.43.43 0 0 1 .156.592l-14.676 24.766a.456.456 0 0 1-.39.152Z"/><path fill="#E0E0E0" d="M167.895 382.408a.657.657 0 0 1-.234 0 .463.463 0 0 1-.218-.395v-16.536a.4.4 0 0 1 .053-.221.42.42 0 0 1 .165-.159l14.677-8.26a.48.48 0 0 1 .452 0 .438.438 0 0 1 .234.379v16.506a.434.434 0 0 1-.234.38l-14.676 8.26a.516.516 0 0 1-.219.046Zm.453-16.703v15.488l13.771-7.744v-15.473l-13.771 7.729Z"/><path fill="#E0E0E0" d="M182.602 374.162a.46.46 0 0 1-.233 0l-14.677-8.245a.447.447 0 0 1-.217-.269.427.427 0 0 1 .046-.339.423.423 0 0 1 .277-.209.455.455 0 0 1 .347.057l14.676 8.246a.434.434 0 0 1 .171.607.47.47 0 0 1-.39.152Z"/><path fill="#E0E0E0" d="M167.896 382.406a.657.657 0 0 1-.234 0 .458.458 0 0 1-.208-.272.43.43 0 0 1 .052-.335l14.676-24.751a.43.43 0 0 1 .268-.211.448.448 0 0 1 .341.044.45.45 0 0 1 .217.268.427.427 0 0 1-.046.339l-14.645 24.781a.476.476 0 0 1-.421.137Z"/><path fill="#E0E0E0" d="M153.237 390.667a.372.372 0 0 1-.219 0 .447.447 0 0 1-.161-.162.424.424 0 0 1-.057-.217v-16.567a.44.44 0 0 1 .234-.379l14.676-8.246a.42.42 0 0 1 .452 0 .437.437 0 0 1 .172.158.416.416 0 0 1 .062.222v16.506a.432.432 0 0 1-.234.379l-14.676 8.245a.436.436 0 0 1-.249.061Zm.452-16.703v15.488l13.787-7.744V366.22l-13.787 7.744Z"/><path fill="#E0E0E0" d="M167.896 382.422a.652.652 0 0 1-.233 0l-14.677-8.26a.433.433 0 0 1-.216-.26.412.412 0 0 1 .045-.332.46.46 0 0 1 .624-.167l14.676 8.26a.433.433 0 0 1 .216.26.421.421 0 0 1-.045.332.476.476 0 0 1-.39.167Z"/><path fill="#E0E0E0" d="M160.61 394.782a.657.657 0 0 1-.234 0l-7.361-4.115a.5.5 0 0 1-.218-.258.576.576 0 0 1 0-.334l14.676-24.766a.446.446 0 0 1 .276-.209.466.466 0 0 1 .483.156.42.42 0 0 1 .092.328.426.426 0 0 1-.056.165l-14.458 24.296 6.972 3.902a.433.433 0 0 1 .216.26.405.405 0 0 1-.045.332.488.488 0 0 1-.343.243ZM248.686 485.1v-16.505l-7.362-4.1.031 16.475 7.331 4.13Z"/><path fill="#000" d="M248.692 485.1v-16.506l-7.362-4.099.031 16.475 7.331 4.13Z" opacity=".15"/><path fill="#E0E0E0" d="M234.009 493.8a.501.501 0 0 1-.218 0 .41.41 0 0 1-.234-.379v-16.567a.424.424 0 0 1 .057-.217.447.447 0 0 1 .161-.162l14.692-8.261a.479.479 0 0 1 .452 0 .442.442 0 0 1 .219.38V485.1a.408.408 0 0 1-.219.379l-14.692 8.261a.515.515 0 0 1-.218.06Zm.452-16.703v15.489l13.772-7.744v-15.489l-13.772 7.744Z"/><path fill="#E0E0E0" d="M226.649 489.686a.473.473 0 0 1-.288-.098.455.455 0 0 1-.164-.251.436.436 0 0 1 .195-.451.454.454 0 0 1 .163-.065l22.054-4.146a.464.464 0 0 1 .339.068.43.43 0 0 1 .122.612.456.456 0 0 1-.29.186l-22.053 4.145h-.078ZM211.988 497.931a.428.428 0 0 1-.288-.093.412.412 0 0 1-.149-.256.433.433 0 0 1 .195-.452.466.466 0 0 1 .164-.065l22.038-4.145a.453.453 0 0 1 .339.067c.05.033.092.074.124.123a.422.422 0 0 1 .066.331.44.44 0 0 1-.358.344l-22.037 4.146h-.094ZM197.323 506.191a.477.477 0 0 1-.283-.109.433.433 0 0 1 .041-.707.466.466 0 0 1 .164-.065l22.116-4.13a.46.46 0 0 1 .339.068c.1.065.168.167.191.281a.429.429 0 0 1-.07.331.455.455 0 0 1-.289.186l-22.053 4.13-.156.015ZM182.685 514.376a.426.426 0 0 1-.287-.093.403.403 0 0 1-.149-.256.43.43 0 0 1 .191-.456.454.454 0 0 1 .167-.061l22.038-4.145a.458.458 0 0 1 .464.19.42.42 0 0 1 .066.159.424.424 0 0 1-.195.452.454.454 0 0 1-.163.065l-22.054 4.145h-.078ZM168.021 522.697a.468.468 0 0 1-.437-.364.433.433 0 0 1 .196-.451.454.454 0 0 1 .163-.065l22.038-4.146a.471.471 0 0 1 .464.19.449.449 0 0 1 .065.332.443.443 0 0 1-.358.344l-22.037 4.145-.094.015ZM153.376 530.942a.46.46 0 0 1-.284-.126.436.436 0 0 1 .206-.74l22.037-4.145a.458.458 0 0 1 .531.349.433.433 0 0 1-.196.451.454.454 0 0 1-.163.065l-22.053 4.146h-.078Z"/><path fill="#E0E0E0" d="M248.686 485.524a.353.353 0 0 1-.218 0l-14.692-8.245a.437.437 0 0 1-.133-.582.451.451 0 0 1 .257-.2.47.47 0 0 1 .328.023l14.692 8.245a.457.457 0 0 1 .202.274.444.444 0 0 1-.046.334.45.45 0 0 1-.39.151Z"/><path fill="#E0E0E0" d="M234.008 493.801a.368.368 0 0 1-.218 0 .437.437 0 0 1-.172-.607l14.677-24.751a.465.465 0 0 1 .454-.224c.06.008.117.027.169.057a.444.444 0 0 1 .156.607l-14.676 24.751a.448.448 0 0 1-.39.167Z"/><path fill="#E0E0E0" d="M219.363 502.046a.464.464 0 0 1-.234 0 .416.416 0 0 1-.165-.16.395.395 0 0 1-.053-.22V485.1a.425.425 0 0 1 .057-.218.447.447 0 0 1 .161-.162l14.676-8.245a.471.471 0 0 1 .453 0 .438.438 0 0 1 .234.379v16.506a.438.438 0 0 1-.234.38l-14.677 8.245a.364.364 0 0 1-.218.061Zm.437-16.703v15.488l13.771-7.744v-15.489l-13.771 7.745Z"/><path fill="#E0E0E0" d="M234.013 493.801a.442.442 0 0 1-.234 0l-14.677-8.275a.433.433 0 0 1-.215-.261.414.414 0 0 1 .044-.332.468.468 0 0 1 .277-.205.485.485 0 0 1 .347.038l14.676 8.261a.444.444 0 0 1 .135.108.414.414 0 0 1 .037.484.456.456 0 0 1-.39.182Z"/><path fill="#E0E0E0" d="M219.363 502.045a.456.456 0 0 1-.385-.219.432.432 0 0 1-.005-.433l14.676-24.767a.462.462 0 0 1 .609-.151.43.43 0 0 1 .216.26.414.414 0 0 1-.045.332l-14.676 24.766a.466.466 0 0 1-.39.212Z"/><path fill="#E0E0E0" d="M204.644 510.306a.539.539 0 0 1-.219 0 .438.438 0 0 1-.234-.38V493.36a.438.438 0 0 1 .234-.38l14.677-8.26a.48.48 0 0 1 .452 0c.067.04.122.095.161.162a.425.425 0 0 1 .057.218v16.505a.398.398 0 0 1-.053.221.42.42 0 0 1-.165.159l-14.676 8.26a.66.66 0 0 1-.234.061Zm.452-16.703v15.488l13.787-7.744v-15.488l-13.787 7.744Z"/><path fill="#E0E0E0" d="M219.364 502.046a.442.442 0 0 1-.234 0l-14.676-8.245a.437.437 0 0 1-.172-.607.465.465 0 0 1 .281-.197.48.48 0 0 1 .343.045l14.677 8.245a.45.45 0 0 1 .217.268.427.427 0 0 1-.046.339.467.467 0 0 1-.39.152Z"/><path fill="#E0E0E0" d="M204.643 510.306a.404.404 0 0 1-.218 0 .44.44 0 0 1-.23-.442.44.44 0 0 1 .058-.165l14.676-24.751a.462.462 0 0 1 .839.102.426.426 0 0 1-.043.338l-14.676 24.751a.506.506 0 0 1-.406.167Z"/><path fill="#E0E0E0" d="M189.966 518.552a.368.368 0 0 1-.218 0 .43.43 0 0 1-.234-.38v-16.566a.44.44 0 0 1 .234-.379l14.676-8.246a.479.479 0 0 1 .452 0 .446.446 0 0 1 .219.38v16.46a.442.442 0 0 1-.219.38l-14.676 8.245a.449.449 0 0 1-.234.106Zm.452-16.703v15.564l13.772-7.744v-15.488l-13.772 7.668Z"/><path fill="#E0E0E0" d="M204.642 510.306a.368.368 0 0 1-.218 0L189.732 502a.455.455 0 0 1-.211-.27.445.445 0 0 1 .039-.337.459.459 0 0 1 .608-.167l14.692 8.26a.416.416 0 0 1 .131.112.403.403 0 0 1 .076.152.402.402 0 0 1-.051.328.425.425 0 0 1-.374.228Z"/><path fill="#E0E0E0" d="M189.967 518.552a.368.368 0 0 1-.218 0 .433.433 0 0 1-.216-.26.42.42 0 0 1 .044-.332l14.677-24.842a.467.467 0 0 1 .281-.197.481.481 0 0 1 .343.045.45.45 0 0 1 .131.111.419.419 0 0 1 .025.481l-14.677 24.766a.445.445 0 0 1-.163.165.464.464 0 0 1-.227.063Z"/><path fill="#E0E0E0" d="M175.291 526.812a.657.657 0 0 1-.234 0 .441.441 0 0 1-.218-.379v-16.612a.444.444 0 0 1 .218-.38l14.692-8.26a.442.442 0 0 1 .437 0 .409.409 0 0 1 .234.379v16.506a.396.396 0 0 1-.234.38l-14.676 8.26a.52.52 0 0 1-.219.106Zm.452-16.703v15.489l13.772-7.745V502.38l-13.772 7.729Z"/><path fill="#E0E0E0" d="M189.963 518.551a.368.368 0 0 1-.218 0l-14.692-8.245a.431.431 0 0 1-.133-.582.459.459 0 0 1 .585-.177l14.677 8.245a.45.45 0 0 1 .217.268.427.427 0 0 1-.046.339.46.46 0 0 1-.39.152Z"/><path fill="#E0E0E0" d="M175.289 526.811a.442.442 0 0 1-.234 0 .455.455 0 0 1-.202-.273.443.443 0 0 1 .046-.334l14.676-24.751a.43.43 0 0 1 .268-.21.449.449 0 0 1 .341.043.45.45 0 0 1 .217.268.427.427 0 0 1-.046.339l-14.661 24.63a.404.404 0 0 1-.153.209.428.428 0 0 1-.252.079Z"/><path fill="#E0E0E0" d="M160.614 535.057a.464.464 0 0 1-.234 0 .41.41 0 0 1-.218-.38v-16.566a.428.428 0 0 1 .057-.218.454.454 0 0 1 .161-.162l14.676-8.245a.48.48 0 0 1 .453 0 .445.445 0 0 1 .233.38v16.505a.433.433 0 0 1-.233.38l-14.677 8.245a.364.364 0 0 1-.218.061Zm.437-16.703v15.488l13.771-7.744V510.61l-13.771 7.744Z"/><path fill="#E0E0E0" d="M175.289 526.812a.464.464 0 0 1-.234 0l-14.676-8.245a.448.448 0 0 1-.215-.27.436.436 0 0 1 .043-.338.454.454 0 0 1 .277-.209.47.47 0 0 1 .347.042l14.676 8.261a.44.44 0 0 1 .189.211.436.436 0 0 1-.137.513.454.454 0 0 1-.27.095v-.06Z"/><path fill="#E0E0E0" d="M160.615 535.057a.439.439 0 0 1-.233 0 .406.406 0 0 1-.222-.433.405.405 0 0 1 .066-.159l14.676-24.766a.462.462 0 0 1 .608-.152.415.415 0 0 1 .172.592l-14.677 24.766a.473.473 0 0 1-.39.152ZM226.65 489.686a.442.442 0 0 1-.234 0 .444.444 0 0 1-.219-.379V472.74a.442.442 0 0 1 .219-.379l14.676-8.246a.418.418 0 0 1 .452 0 .437.437 0 0 1 .172.158.416.416 0 0 1 .062.222v16.475a.433.433 0 0 1-.234.38l-14.676 8.245a.359.359 0 0 1-.218.091Zm.452-16.703v15.58l13.772-7.745V465.33l-13.772 7.653Z"/><path fill="#E0E0E0" d="M241.324 481.441a.657.657 0 0 1-.234 0l-14.676-8.26a.427.427 0 0 1-.216-.433.41.41 0 0 1 .06-.159.43.43 0 0 1 .267-.211.45.45 0 0 1 .341.044l14.677 8.26a.433.433 0 0 1 .216.26.412.412 0 0 1-.045.332.448.448 0 0 1-.39.167Z"/><path fill="#E0E0E0" d="M226.65 489.686a.46.46 0 0 1-.385-.219.435.435 0 0 1-.005-.434l14.677-24.766a.414.414 0 0 1 .269-.209.434.434 0 0 1 .339.057.433.433 0 0 1 .216.26.421.421 0 0 1-.045.332l-14.676 24.766a.452.452 0 0 1-.167.155.48.48 0 0 1-.223.058Z"/><path fill="#E0E0E0" d="M211.971 497.931a.657.657 0 0 1-.234 0 .447.447 0 0 1-.218-.38V480.97a.423.423 0 0 1 .234-.38l14.676-8.26a.468.468 0 0 1 .452 0 .44.44 0 0 1 .234.379v16.506a.427.427 0 0 1-.064.22.45.45 0 0 1-.17.16l-14.676 8.26a.51.51 0 0 1-.234.076Zm.437-16.703v15.488l13.771-7.744v-15.488l-13.771 7.744Z"/><path fill="#E0E0E0" d="M226.65 489.686a.442.442 0 0 1-.234 0l-14.676-8.245a.452.452 0 0 1-.217-.269.424.424 0 0 1 .046-.339.436.436 0 0 1 .279-.202.459.459 0 0 1 .344.051l14.677 8.245a.45.45 0 0 1 .217.268.427.427 0 0 1-.046.339.467.467 0 0 1-.39.152Z"/><path fill="#E0E0E0" d="M211.974 497.931a.614.614 0 0 1-.234 0 .424.424 0 0 1-.136-.113.427.427 0 0 1-.035-.494l14.691-24.751a.43.43 0 0 1 .268-.21.449.449 0 0 1 .341.043.439.439 0 0 1 .229.443.429.429 0 0 1-.058.165l-14.676 24.659a.47.47 0 0 1-.39.258Z"/><path fill="#E0E0E0" d="M197.283 506.191a.368.368 0 0 1-.218 0 .453.453 0 0 1-.169-.159.425.425 0 0 1-.065-.221v-16.566a.425.425 0 0 1 .065-.221.453.453 0 0 1 .169-.159l14.676-8.245a.412.412 0 0 1 .453 0 .407.407 0 0 1 .218.38v16.505a.444.444 0 0 1-.218.38l-14.661 8.245a.453.453 0 0 1-.25.061Zm.453-16.703v15.488l13.771-7.744v-15.488l-13.771 7.744Z"/><path fill="#E0E0E0" d="M211.958 497.947a.534.534 0 0 1-.218 0l-14.677-8.261a.444.444 0 0 1-.135-.108.407.407 0 0 1-.093-.322.46.46 0 0 1 .333-.373.446.446 0 0 1 .178-.012c.06.007.118.026.17.056l14.676 8.26a.418.418 0 0 1 .156.593.45.45 0 0 1-.39.167Z"/><path fill="#E0E0E0" d="M197.281 506.191a.368.368 0 0 1-.218 0 .432.432 0 0 1-.172-.592l14.676-24.827a.44.44 0 0 1 .28-.202.46.46 0 0 1 .551.314.42.42 0 0 1-.051.329l-14.676 24.766a.452.452 0 0 1-.39.212Z"/><path fill="#E0E0E0" d="M182.605 514.376a.501.501 0 0 1-.218 0 .465.465 0 0 1-.234-.38v-16.49a.416.416 0 0 1 .218-.38l14.692-8.26a.48.48 0 0 1 .452 0 .439.439 0 0 1 .219.379v16.506a.442.442 0 0 1-.219.38l-14.692 8.245a.501.501 0 0 1-.218 0Zm.452-16.703v15.488l13.772-7.744v-15.336l-13.772 7.592Z"/><path fill="#E0E0E0" d="M197.281 506.192a.353.353 0 0 1-.218 0l-14.692-8.245a.424.424 0 0 1-.216-.445.419.419 0 0 1 .06-.162.426.426 0 0 1 .271-.202.444.444 0 0 1 .337.05l14.692 8.245a.457.457 0 0 1 .202.274.444.444 0 0 1-.046.334.444.444 0 0 1-.176.122.445.445 0 0 1-.214.029Z"/><path fill="#E0E0E0" d="M182.604 514.376a.501.501 0 0 1-.218 0 .437.437 0 0 1-.172-.607l14.676-24.751a.45.45 0 0 1 .276-.212.457.457 0 0 1 .348.045.452.452 0 0 1 .156.607l-14.676 24.751a.45.45 0 0 1-.39.167Z"/><path fill="#E0E0E0" d="M167.9 522.697a.442.442 0 0 1-.234 0 .444.444 0 0 1-.219-.379v-16.567a.442.442 0 0 1 .219-.379l14.676-8.246a.418.418 0 0 1 .452 0 .437.437 0 0 1 .172.158.416.416 0 0 1 .062.222v16.506a.43.43 0 0 1-.234.379l-14.676 8.246a.365.365 0 0 1-.218.06Zm.452-16.703v15.488l13.772-7.744V498.25l-13.772 7.744Z"/><path fill="#E0E0E0" d="M182.602 514.452a.707.707 0 0 1-.234 0l-14.677-8.261a.43.43 0 0 1-.216-.26.411.411 0 0 1 .045-.332.434.434 0 0 1 .276-.211.445.445 0 0 1 .178-.012c.06.007.118.026.17.056l14.676 8.26a.433.433 0 0 1 .216.261.415.415 0 0 1-.045.332.491.491 0 0 1-.389.167Z"/><path fill="#E0E0E0" d="M167.896 522.697a.457.457 0 0 1-.385-.219.438.438 0 0 1-.005-.434l14.677-24.766a.436.436 0 0 1 .445-.21.437.437 0 0 1 .163.058.43.43 0 0 1 .229.43.43.43 0 0 1-.057.162l-14.677 24.766a.47.47 0 0 1-.39.213Z"/><path fill="#E0E0E0" d="M153.237 530.957a.506.506 0 0 1-.219 0 .45.45 0 0 1-.218-.379v-16.567a.43.43 0 0 1 .234-.379l14.676-8.261a.479.479 0 0 1 .452 0 .45.45 0 0 1 .17.16.427.427 0 0 1 .064.22v16.506a.43.43 0 0 1-.234.379l-14.676 8.261a.67.67 0 0 1-.249.06Zm.452-16.703v15.489l13.787-7.744V506.51l-13.787 7.744Z"/><path fill="#E0E0E0" d="M167.896 522.697a.46.46 0 0 1-.233 0l-14.646-8.322a.446.446 0 0 1-.217-.268.427.427 0 0 1 .046-.339.443.443 0 0 1 .279-.203.47.47 0 0 1 .345.051l14.676 8.245a.452.452 0 0 1 .217.269.427.427 0 0 1-.045.339.475.475 0 0 1-.422.228Z"/><path fill="#E0E0E0" d="M160.609 535.057a.442.442 0 0 1-.234 0l-7.361-4.1a.489.489 0 0 1-.219-.273.631.631 0 0 1 0-.334l14.677-24.751a.458.458 0 0 1 .623-.167.443.443 0 0 1 .215.269.43.43 0 0 1-.043.338l-14.411 24.311 6.971 3.887a.441.441 0 0 1 .23.442.434.434 0 0 1-.058.165.46.46 0 0 1-.39.213Z"/><path fill="#37474F" d="m135.135 756.303-4.055-41.925H44.177l-4.04 41.925c-.842 7.41 3.728 14.972 13.803 20.62 18.607 10.447 48.755 10.447 67.33 0 10.107-5.648 14.676-13.21 13.865-20.62Z"/><path fill="#FFCE67" d="m134.152 746.037-1.357-14.06c-1.232 5.42-5.537 10.629-12.929 14.805-17.78 9.991-46.618 9.991-64.43 0-7.392-4.161-11.712-9.385-12.96-14.79l-1.357 14.045c1.108 5.771 5.568 11.374 13.444 15.792 18.28 10.265 47.913 10.265 66.176 0 7.861-4.418 12.321-10.021 13.413-15.792Z"/><path fill="#000" d="M69.115 777.242c-7.564-4.843-13.397-10.31-7.47-41.59l.78-21.258H44.177l-4.04 41.924c-.842 7.41 3.728 14.972 13.803 20.621 18.607 10.447 48.755 10.447 67.33 0-14.551 6.21-44.59 5.132-52.154.303Z" opacity=".2"/><path fill="#455A64" d="M56.842 733.329c-17.016-9.551-17.016-25.055 0-34.621 17.016-9.566 44.606-9.566 61.606 0s17.031 25.07 0 34.621c-17.032 9.551-44.575 9.566-61.606 0ZM89.05 683.842h-1.388c-19.73.212-37.29-4.768-49.456-14.122a10.53 10.53 0 0 1-2.714-3.099 10.25 10.25 0 0 1-1.29-3.874 10.173 10.173 0 0 1 .332-4.06 10.345 10.345 0 0 1 1.902-3.628 10.649 10.649 0 0 1 3.183-2.642 10.923 10.923 0 0 1 3.98-1.256c1.398-.16 2.815-.05 4.17.323a10.82 10.82 0 0 1 3.725 1.852c8.344 6.408 21.149 9.839 36.012 9.612h.312c14.879.167 27.668-3.204 36.012-9.612a10.82 10.82 0 0 1 3.726-1.852 11.005 11.005 0 0 1 4.17-.323c1.399.16 2.751.587 3.98 1.256a10.653 10.653 0 0 1 3.183 2.642 10.348 10.348 0 0 1 1.902 3.628c.383 1.319.496 2.698.331 4.06a10.242 10.242 0 0 1-1.289 3.874 10.53 10.53 0 0 1-2.714 3.099c-11.885 9.126-28.901 14.122-48.069 14.122Z"/><path fill="#37474F" d="M44.676 667.443c3.229 0 15.316 8.791 42.282 8.791 26.967 0 44.949-10.31 53.559-18.221a10.132 10.132 0 0 0-1.654-2.915 10.605 10.605 0 0 0-3.182-2.649 10.979 10.979 0 0 0-8.155-.937 10.822 10.822 0 0 0-3.729 1.855c-8.344 6.407-21.133 9.778-36.012 9.611h-.312c-14.863.228-27.668-3.204-36.012-9.611a10.82 10.82 0 0 0-3.726-1.852 11.004 11.004 0 0 0-4.17-.323 10.94 10.94 0 0 0-3.98 1.255 10.65 10.65 0 0 0-3.182 2.643 10.34 10.34 0 0 0-1.902 3.627 10.174 10.174 0 0 0-.332 4.06 10.249 10.249 0 0 0 1.29 3.875 10.53 10.53 0 0 0 2.714 3.099c12.165 9.353 29.727 14.334 49.456 14.121a90.606 90.606 0 0 1-31.193-6.074c-10.652-3.917-14.879-10.355-11.76-10.355Z"/><path fill="#F5F5F5" d="M150.886 578.233c0 1.685-.14 3.356-.203 5.011-.093 1.974-.171 3.917-.249 5.831 0 1.655-.156 3.279-.234 4.874v1.397c-.109 2.323-.218 4.555-.312 6.772-.172 3.644-.359 7.091-.515 10.326 0 1.032-.109 2.065-.156 3.037-.14 2.748-.28 5.284-.405 7.592 0 .85-.078 1.67-.125 2.46-.047.789 0 1.169 0 1.716-.093 1.351-.156 2.596-.218 3.705v1.442c0 .456 0 .85-.094 1.245 0 1.306-.125 2.354-.171 3.037h-.094v1.321c0 8.747-6.161 17.053-17.374 23.339-11.214 6.286-26.655 9.976-42.89 9.976-16.237 0-31.459-3.538-42.89-9.976-11.433-6.438-17.375-14.592-17.375-23.339v-1.321h-.094v-1.275c0-.501 0-.866-.093-1.382-.094-.516 0-.942-.078-1.519s0-.804 0-1.23c0-1.29-.156-2.778-.25-4.418 0-.805-.078-1.655-.14-2.536-.156-3.158-.343-6.803-.562-10.842 0-1.017-.109-2.065-.156-3.128 0-1.306-.14-2.672-.202-4.069a823.579 823.579 0 0 1-.515-11.055 1098.21 1098.21 0 0 1-.437-9.596c-.11-2.46-.218-4.966-.312-7.517a46.703 46.703 0 0 0 10.606 9.658 88.186 88.186 0 0 0 7.954 4.555c2.807 1.215 5.552 2.581 8.484 3.523a112.652 112.652 0 0 0 72.399 0c2.932-.942 5.677-2.308 8.485-3.523a88.392 88.392 0 0 0 7.954-4.555 47.235 47.235 0 0 0 10.262-9.536Z"/><path fill="#E0E0E0" d="M152.293 576.334c-1.045 26.057-2.278 49.061-3.042 61.816 0 8.853-6.02 17.706-18.06 24.493-12.041 6.788-27.778 10.128-43.561 10.128-15.784 0-31.536-3.371-43.561-10.128-12.025-6.757-18.045-15.64-18.045-24.493a3359.495 3359.495 0 0 1-3.026-61.801c.437.668.905 1.321 1.42 1.959 1.2 29.078 2.541 52.63 2.87 58.521h.093v1.321c0 8.747 6.238 17.053 17.374 23.339 11.136 6.286 26.67 9.976 42.89 9.976 16.221 0 31.474-3.538 42.89-9.976 11.417-6.438 17.375-14.592 17.375-23.339v-1.321h.094c.343-5.891 1.684-29.443 2.885-58.521.515-.729.982-1.367 1.404-1.974Z"/><path fill="#E0E0E0" d="M22.998 576.334c.437.668.905 1.321 1.42 1.959a46.722 46.722 0 0 0 10.605 9.657 88.197 88.197 0 0 0 7.954 4.556c2.807 1.214 5.552 2.581 8.485 3.522a112.491 112.491 0 0 0 72.398 0 73.233 73.233 0 0 0 16.439-8.032 47.241 47.241 0 0 0 10.59-9.642c.515-.653.982-1.291 1.419-1.974l-129.31-.046Z"/><path fill="#E0E0E0" d="M87.66 604.595c35.705 0 64.648-12.686 64.648-28.335 0-15.648-28.943-28.334-64.647-28.334-35.704 0-64.647 12.686-64.647 28.334 0 15.649 28.943 28.335 64.647 28.335Z"/><path fill="#263238" d="M153.585 601.344a5.798 5.798 0 0 0-5.63.304 17.54 17.54 0 0 0-6.064 5.794 16.966 16.966 0 0 0-2.607 7.872l-1.139 60.086a2.85 2.85 0 0 0 .224 1.51c.211.475.548.886.977 1.192l3.852 2.415a3.068 3.068 0 0 0 3.01-.137l3.525-1.761a9.566 9.566 0 0 0 3.158-2.921 9.254 9.254 0 0 0 1.521-3.973l5.085-62.5c.218-2.672-.593-4.555-2.059-5.497l-3.853-2.384Z"/><path fill="#37474F" d="M146.212 680.425c-2.386 1.185-4.289 0-4.226-2.581l1.138-60.07a16.957 16.957 0 0 1 2.606-7.874 17.522 17.522 0 0 1 6.066-5.792c4.679-2.339 8.141 0 7.72 5.208l-5.084 62.5a9.276 9.276 0 0 1-1.521 3.973 9.563 9.563 0 0 1-3.158 2.92l-3.541 1.716Z"/><path fill="#455A64" d="m153.583 601.344 3.852 2.415a5.716 5.716 0 0 0-2.865-.593 5.7 5.7 0 0 0-2.781.897c-3.549 2.012-6.255 5.179-7.642 8.943l-3.852-2.414c1.403-3.76 4.112-6.924 7.658-8.944a5.773 5.773 0 0 1 2.773-.883 5.804 5.804 0 0 1 2.857.579Z"/><path fill="#FFCE67" d="m158.655 617.53-3.478-2.186-4.055 2.034-4.96 97.911c4.04 2.52 7.892 2.824 11.089 1.214l4.04-2.019c4.008-1.989 7.002-6.97 8.032-14.304l5.615-40.148c2.199-15.746-5.49-35.684-16.283-42.502Z"/><path fill="#fff" d="m158.651 617.531-3.478-2.186-4.055 2.034-4.96 97.911c4.04 2.52 7.892 2.824 11.089 1.214l4.04-2.019c4.008-1.989 7.003-6.97 8.032-14.304l5.615-40.148c2.199-15.746-5.49-35.684-16.283-42.502Z" opacity=".2"/><path fill="#FFCE67" d="m146.162 715.29 4.96-97.956 3.478 2.187c10.839 6.802 18.482 26.755 16.282 42.516l-5.63 40.164c-1.84 13.18-10.013 18.783-19.09 13.089Z"/><path fill="#000" d="m146.162 715.29 4.96-97.956 3.478 2.187c10.839 6.802 18.482 26.755 16.282 42.516l-5.63 40.164c-1.84 13.18-10.013 18.783-19.09 13.089Z" opacity=".2"/><path fill="#000" d="M165.408 701.092c-.889 6.423-7.595 8.594-12.118 3.431-4.523-5.163-5.989-11.661-4.991-31.553l-2.137 42.319c9.077 5.694 17.25.091 19.09-13.074l.156-1.123Z" opacity=".2"/><path fill="#263238" d="M21.735 601.344a5.803 5.803 0 0 1 5.63.304 17.544 17.544 0 0 1 6.065 5.794 16.978 16.978 0 0 1 2.607 7.872l1.138 60.086a2.877 2.877 0 0 1-.228 1.508c-.211.474-.546.886-.973 1.194l-3.774 2.46a3.055 3.055 0 0 1-3.01-.136l-3.525-1.762a9.586 9.586 0 0 1-3.156-2.921 9.281 9.281 0 0 1-1.523-3.972l-5.084-62.5c-.203-2.673.608-4.556 2.074-5.497l3.759-2.43Z"/><path fill="#37474F" d="M29.08 680.425c2.385 1.185 4.273 0 4.226-2.581l-1.108-60.07a16.962 16.962 0 0 0-2.605-7.874 17.528 17.528 0 0 0-6.066-5.792c-4.68-2.339-8.142 0-7.799 5.208l5.085 62.5a9.278 9.278 0 0 0 1.523 3.972 9.575 9.575 0 0 0 3.156 2.921l3.587 1.716Z"/><path fill="#455A64" d="m21.735 601.344-3.868 2.415a5.758 5.758 0 0 1 5.662.304c3.549 2.012 6.255 5.179 7.642 8.943l3.852-2.414c-1.402-3.76-4.111-6.924-7.658-8.944a5.803 5.803 0 0 0-5.63-.304Z"/><path fill="#FFCE67" d="m16.604 617.53 3.478-2.186 4.055 2.034 4.96 97.911c-4.04 2.52-7.893 2.824-11.09 1.214l-3.977-1.989c-4.008-1.989-7.003-6.97-8.032-14.304L.383 660.062c-2.214-15.776 5.428-35.714 16.22-42.532Z"/><path fill="#fff" d="m16.604 617.531 3.478-2.186 4.055 2.034 4.96 97.911c-4.04 2.52-7.893 2.824-11.09 1.214l-3.977-1.989c-4.008-1.989-7.003-6.97-8.032-14.304L.383 660.063c-2.214-15.776 5.428-35.714 16.22-42.532Z" opacity=".2"/><path fill="#FFCE67" d="m29.16 715.29-4.96-97.956-3.478 2.187c-10.84 6.802-18.482 26.755-16.283 42.516l5.615 40.164c1.871 13.18 10.028 18.783 19.105 13.089Z"/><path fill="#000" d="m29.16 715.29-4.96-97.956-3.478 2.187c-10.84 6.802-18.482 26.755-16.283 42.516l5.615 40.164c1.871 13.18 10.028 18.783 19.105 13.089Z" opacity=".2"/><path fill="#000" d="M9.898 701.092c.905 6.423 7.611 8.594 12.134 3.431 4.523-5.163 5.99-11.661 4.976-31.553l2.152 42.319c-9.077 5.694-17.25.091-19.106-13.074l-.156-1.123Z" opacity=".2"/><path fill="#F5F5F5" d="M153.011 464.698v.076a.876.876 0 0 1 0 .289v10.629c0 2.46-.078 4.95-.109 7.456 0 2.809-.109 5.618-.156 8.457v.471c0 1.837-.078 3.705-.125 5.558 0 2.718-.125 5.451-.218 8.184 0 1.898-.094 3.781-.156 5.694-.203 6.803-.437 13.56-.671 20.165-.125 3.321-.254 6.596-.39 9.825 0 1.093-.093 2.171-.124 3.249 0 .471 0 .957-.078 1.428v.577a46.549 46.549 0 0 1-10.59 9.642 84.575 84.575 0 0 1-7.955 4.555c-2.807 1.215-5.552 2.582-8.484 3.523a112.64 112.64 0 0 1-72.399 0c-2.932-.941-5.677-2.308-8.484-3.523a84.512 84.512 0 0 1-7.954-4.555 46.016 46.016 0 0 1-10.606-9.658v-.561c-.187-4.738-.374-9.643-.561-14.623 0-1.033-.079-2.05-.11-3.037l-.109-3.037c-.156-4.555-.312-9.202-.452-13.833-.28-9.49-.53-19.057-.67-28.35 0-2.535 0-5.041-.11-7.592v-10.629a.797.797 0 0 1 0-.273v-.092a47.53 47.53 0 0 0 12.212 9.901c2.59 1.609 5.443 2.839 8.173 4.191 2.854 1.078 5.661 2.338 8.64 3.143a126.216 126.216 0 0 0 72.679 0 86.11 86.11 0 0 0 8.641-3.174 91.27 91.27 0 0 0 8.172-4.175 47.616 47.616 0 0 0 11.994-9.901Z"/><path fill="#E0E0E0" d="M24.402 546.756a21.709 21.709 0 0 1-1.42-1.959v-.258c-1.075-26.482-1.965-56.183-2.027-81.359.421.668.858 1.336 1.341 1.959 0 25.737 1.03 55.514 2.106 81.055v.562ZM154.351 463.18c0 25.221-.951 54.862-2.027 81.343v.259c-.436.682-.91 1.341-1.42 1.974v-.577c1.076-25.571 2.028-55.318 2.106-81.056.483-.622.92-1.275 1.341-1.943Z"/><path fill="#E0E0E0" d="M20.955 463.18c.421.668.858 1.336 1.341 1.959a46.879 46.879 0 0 0 11.433 10.629 78.848 78.848 0 0 0 16.844 8.245 115.173 115.173 0 0 0 74.176 0 77.255 77.255 0 0 0 16.829-8.23 46.292 46.292 0 0 0 11.432-10.629c.484-.623.92-1.276 1.341-1.944l-133.396-.03ZM90.093 503.177c0 .474-.145.938-.416 1.332-.27.395-.655.702-1.106.884-.45.182-.945.229-1.424.137a2.494 2.494 0 0 1-1.261-.657 2.383 2.383 0 0 1-.675-1.228 2.342 2.342 0 0 1 .14-1.387c.187-.438.503-.813.908-1.076a2.51 2.51 0 0 1 1.37-.405c.653 0 1.28.253 1.742.703.462.45.722 1.06.722 1.697ZM132.02 494.795c0 .475-.145.939-.416 1.334a2.45 2.45 0 0 1-1.109.884 2.532 2.532 0 0 1-1.425.134 2.487 2.487 0 0 1-1.262-.661 2.384 2.384 0 0 1-.671-1.233 2.341 2.341 0 0 1 .147-1.387 2.42 2.42 0 0 1 .914-1.074 2.523 2.523 0 0 1 1.374-.396 2.467 2.467 0 0 1 1.737.703c.227.223.407.488.529.779.123.291.184.602.182.917ZM45.769 497.194c1.36 0 2.464-1.074 2.464-2.399s-1.103-2.399-2.464-2.399-2.464 1.074-2.464 2.399 1.103 2.399 2.464 2.399ZM24.404 546.756a46.011 46.011 0 0 0 10.605 9.657 84.525 84.525 0 0 0 7.954 4.555c2.808 1.215 5.553 2.582 8.485 3.523a112.64 112.64 0 0 0 72.399 0c2.932-.941 5.677-2.308 8.484-3.523a84.433 84.433 0 0 0 7.954-4.555 46.505 46.505 0 0 0 10.59-9.642l1.419-1.974s-10.777 28.076-64.647 28.076c-53.87 0-64.663-28.061-64.663-28.061l1.42 1.944ZM89.542 405.782c36.832 0 66.69-13.08 66.69-29.215 0-16.135-29.858-29.215-66.69-29.215-36.832 0-66.69 13.08-66.69 29.215 0 16.135 29.858 29.215 66.69 29.215ZM156.246 202.157a147.45 147.45 0 0 0-14.286-49.684c.592 1.709.907 3.496.936 5.299a143.724 143.724 0 0 1 12.025 44.506c.124 1.367.249 2.779.343 4.267.093 1.488.187 2.749.265 4.176 0 .896.093 1.822.14 2.733.078 1.443.125 2.9.172 4.419.078 1.867.14 3.796.187 5.77.187 7.167.234 15.017.218 23.308a.876.876 0 0 1 0 .289v.076a27.28 27.28 0 0 0 1.342-1.959v-1.837c0-16.461-.375-31.007-1.342-41.363Zm-130.714 0c-.998 10.72-1.372 25.935-1.34 43.185a27.74 27.74 0 0 0 1.34 1.974v-.076a.803.803 0 0 1 0-.274V231.099c0-2.096.078-4.146.125-6.074 0-1.245 0-2.475.094-3.66 0-2.217.14-4.373.218-6.438.094-1.822.187-3.599.281-5.299v-1.154c.135-2.207.291-4.272.468-6.196a143.685 143.685 0 0 1 12.025-44.506 16.89 16.89 0 0 1 .951-5.36 147.79 147.79 0 0 0-14.162 49.745Z"/><path fill="#E0E0E0" d="M90.895 187.214c28.718 0 51.999-13.08 51.999-29.215 0-16.135-23.281-29.215-51.999-29.215-28.718 0-51.998 13.08-51.998 29.215 0 16.135 23.28 29.215 51.998 29.215Z"/><path fill="#FFCE67" d="M90.896 256.471c17.822 0 32.269-14.065 32.269-31.416s-14.447-31.417-32.269-31.417-32.269 14.066-32.269 31.417 14.447 31.416 32.269 31.416Z"/><path fill="#000" d="M90.896 256.471c17.822 0 32.269-14.065 32.269-31.416s-14.447-31.417-32.269-31.417-32.269 14.066-32.269 31.417 14.447 31.416 32.269 31.416Z" opacity=".15"/><path fill="#FFCE67" d="M122.281 235.908c4.094-16.888-6.648-33.808-23.993-37.794-17.345-3.986-34.725 6.473-38.819 23.36-4.094 16.887 6.649 33.808 23.994 37.794 17.345 3.985 34.725-6.473 38.818-23.36Z"/><path fill="#000" d="m102.5 258.02-10.434-27.924 26.514 14.85c.219-.349.421-.698.624-1.062l-26.436-14.866 30.008-5.148c0-.41-.141-.82-.219-1.214l-30.07 5.162 19.621-22.777a15.87 15.87 0 0 0-.967-.789l-19.62 22.777v-29.717h-1.264v29.717l-19.62-22.777c-.328.243-.64.516-.967.789l19.62 22.777-30.054-5.162-.234 1.214 30.07 5.148-26.436 14.866c.203.364.405.713.624 1.062l26.514-14.85-10.45 27.924 1.185.41 10.45-27.924 10.434 27.924c.343-.121.733-.273 1.107-.41Z" opacity=".2"/><path fill="#FFCE67" d="M90.895 251.4c12.869 0 23.301-10.157 23.301-22.686s-10.432-22.686-23.301-22.686c-12.869 0-23.301 10.157-23.301 22.686s10.432 22.686 23.3 22.686Z"/><path fill="#000" d="M90.895 251.4c12.869 0 23.301-10.157 23.301-22.686s-10.432-22.686-23.301-22.686c-12.869 0-23.301 10.157-23.301 22.686s10.432 22.686 23.3 22.686Z" opacity=".15"/><path fill="#FFCE67" d="M90.897 206.014c-5.8-.003-11.39 2.102-15.68 5.902-4.29 3.8-6.968 9.021-7.512 14.642.503 5.64 3.155 10.893 7.435 14.726 4.28 3.832 9.878 5.967 15.693 5.984 5.815.017 11.426-2.085 15.729-5.892 4.304-3.807 6.989-9.044 7.527-14.681-.514-5.644-3.18-10.897-7.472-14.725-4.292-3.827-9.9-5.952-15.72-5.956Z"/><path fill="#fff" d="M90.897 206.014c-5.8-.003-11.39 2.102-15.68 5.902-4.29 3.8-6.968 9.021-7.512 14.642.503 5.64 3.155 10.893 7.435 14.726 4.28 3.832 9.878 5.967 15.693 5.984 5.815.017 11.426-2.085 15.729-5.892 4.304-3.807 6.989-9.044 7.527-14.681-.514-5.644-3.18-10.897-7.472-14.725-4.292-3.827-9.9-5.952-15.72-5.956Z" opacity=".6"/><path fill="#FFCE67" d="M127.657 141.13c-20.275 11.434-53.23 11.434-73.537 0-12.695-7.137-17.468-17.022-14.286-26.239a113.62 113.62 0 0 1 2.12-4.328c11.494-22.08 26.419-42.3 44.248-59.948a6.61 6.61 0 0 1 2.145-1.403 6.753 6.753 0 0 1 5.068 0 6.61 6.61 0 0 1 2.145 1.403c17.784 17.619 32.686 37.791 44.184 59.812.765 1.518 1.56 3.037 2.2 4.555 3.15 9.171-1.622 19.041-14.287 26.148Z"/><path fill="#000" d="M90.885 143.24c-12.727 0-24.595-2.733-33.407-7.698-9.28-5.209-13.398-11.844-11.37-18.222a143.446 143.446 0 0 1 1.856-3.781c14.473-28.517 27.855-43.868 36.012-54.24 0 0-14.037 24.554-16.922 45.555-2.886 21 12.96 31.204 23.831 38.386Z" opacity=".15"/><path fill="#fff" d="M96.262 60.136c4.1 3.933 7.944 8.112 11.51 12.512 3.618 4.358 7.003 8.898 10.216 13.544 1.559 2.324 3.119 4.708 4.678 7.077a93.222 93.222 0 0 1 4.305 7.273 133.1 133.1 0 0 1 7.424 15.184l-9.217-14.121a1881.31 1881.31 0 0 0-9.358-13.955c-3.12-4.6-6.395-9.202-9.655-13.787l-9.903-13.727Z" opacity=".5"/><path fill="#455A64" d="M94.556 36.656 90.72 0l-3.852 36.731c.037.328.161.641.36.908.2.266.469.477.779.61a6.121 6.121 0 0 0 2.721.638c.946 0 1.88-.218 2.722-.637.308-.135.574-.346.77-.612.198-.267.32-.58.353-.907l-.016-.075Z"/><path fill="#F5F5F5" d="M154.894 365.013v.076a.87.87 0 0 1 0 .288v10.629c0 2.46-.078 4.951-.109 7.456 0 2.809-.109 5.618-.156 8.458v.47c0 1.838-.078 3.706-.125 5.558 0 2.718-.125 5.451-.218 8.185 0 1.898-.094 3.78-.156 5.694-.203 6.802-.437 13.56-.671 20.165-.125 3.32-.255 6.595-.39 9.824 0 1.094-.093 2.172-.125 3.25 0 .47 0 .956-.078 1.427v.577a46.505 46.505 0 0 1-10.59 9.642 84.663 84.663 0 0 1-7.954 4.556c-2.807 1.214-5.552 2.581-8.484 3.522a112.64 112.64 0 0 1-72.399 0c-2.932-.941-5.677-2.308-8.484-3.522A84.742 84.742 0 0 1 37 456.712a46.014 46.014 0 0 1-10.605-9.657v-.562c-.187-4.737-.375-9.642-.562-14.623 0-1.032-.078-2.05-.109-3.037l-.109-3.036c-.156-4.556-.312-9.202-.452-13.834-.281-9.49-.53-19.056-.67-28.349 0-2.536-.001-5.041-.11-7.592v-10.63a.797.797 0 0 1 0-.273v-.091a47.526 47.526 0 0 0 12.212 9.9c2.589 1.61 5.443 2.84 8.172 4.191 2.855 1.078 5.662 2.339 8.64 3.143a126.2 126.2 0 0 0 72.68 0 86.105 86.105 0 0 0 8.641-3.173 91.543 91.543 0 0 0 8.172-4.176 47.633 47.633 0 0 0 11.994-9.9Z"/><path fill="#E0E0E0" d="M26.285 447.069a21.709 21.709 0 0 1-1.42-1.959v-.258c-1.076-26.482-1.965-56.183-2.027-81.359.421.668.858 1.336 1.341 1.959 0 25.738 1.03 55.515 2.106 81.055v.562Z"/><path fill="#E0E0E0" d="M22.838 363.493c.421.668.858 1.336 1.341 1.959a46.879 46.879 0 0 0 11.432 10.629 78.801 78.801 0 0 0 16.845 8.245 115.16 115.16 0 0 0 74.176 0 77.21 77.21 0 0 0 16.829-8.23 46.273 46.273 0 0 0 11.432-10.629c.483-.622.92-1.275 1.341-1.943l-133.396-.031ZM91.973 403.491c0 .474-.144.938-.415 1.333a2.45 2.45 0 0 1-1.106.883 2.52 2.52 0 0 1-1.424.137 2.486 2.486 0 0 1-1.261-.657 2.379 2.379 0 0 1-.675-1.228 2.34 2.34 0 0 1 .14-1.386c.187-.439.503-.813.908-1.077a2.509 2.509 0 0 1 1.37-.404c.653 0 1.28.253 1.742.702a2.37 2.37 0 0 1 .721 1.697ZM47.648 397.507c1.36 0 2.464-1.074 2.464-2.399s-1.103-2.399-2.464-2.399-2.464 1.074-2.464 2.399 1.103 2.399 2.464 2.399Z"/><path fill="#263238" d="M97.917 421.758c.276.004.54.112.734.302.195.19.307.447.31.715v2.688a1.179 1.179 0 0 1-.296.774 4.555 4.555 0 0 1-.561.623l-5.662 5.831c1.075.136 2.125.417 3.12.835.893.36 1.713.874 2.417 1.519a6.562 6.562 0 0 1 1.56 2.292c.372.94.557 1.939.546 2.946a7.54 7.54 0 0 1-.796 3.508 7.637 7.637 0 0 1-2.214 2.581 10.358 10.358 0 0 1-3.354 1.64 14.571 14.571 0 0 1-4.164.562 15.974 15.974 0 0 1-4.679-.623 11.437 11.437 0 0 1-3.337-1.609 6.93 6.93 0 0 1-2.044-2.232 6.265 6.265 0 0 1-.81-2.46.817.817 0 0 1 .28-.744c.21-.181.484-.279.764-.274h3.12a.902.902 0 0 1 .64.243c.204.208.377.443.514.699.165.311.375.598.624.85.3.292.647.534 1.029.714a6.364 6.364 0 0 0 1.56.516 12.98 12.98 0 0 0 2.37.182 6.98 6.98 0 0 0 3.821-.926c.46-.272.837-.66 1.092-1.121.255-.462.38-.982.359-1.506a2.48 2.48 0 0 0-.348-1.428 2.576 2.576 0 0 0-1.103-1.001 8.335 8.335 0 0 0-3.82-.744h-3.23a1.015 1.015 0 0 1-.733-.304.923.923 0 0 1-.311-.714v-2.687a1.251 1.251 0 0 1 .234-.79 8.45 8.45 0 0 1 .561-.623l5.444-5.572H80.87a.98.98 0 0 1-.749-.304.981.981 0 0 1-.312-.714v-2.687a1.02 1.02 0 0 1 .317-.721c.198-.19.465-.297.744-.297l17.047.061Z"/><path fill="#F5F5F5" d="M154.894 365.013v.076a.87.87 0 0 1 0 .288v10.629c0 2.46-.078 4.951-.109 7.456 0 2.809-.109 5.618-.156 8.458v.47c0 1.838-.078 3.706-.125 5.558 0 2.718-.125 5.451-.218 8.185 0 1.898-.094 3.78-.156 5.694-.203 6.802-.437 13.56-.671 20.165-.125 3.32-.255 6.595-.39 9.824 0 1.094-.093 2.172-.125 3.25 0 .47 0 .956-.078 1.427v.577a46.505 46.505 0 0 1-10.59 9.642 84.663 84.663 0 0 1-7.954 4.556c-2.807 1.214-5.552 2.581-8.484 3.522a112.64 112.64 0 0 1-72.399 0c-2.932-.941-5.677-2.308-8.484-3.522A84.742 84.742 0 0 1 37 456.712a46.014 46.014 0 0 1-10.605-9.657v-.562c-.187-4.737-.375-9.642-.562-14.623 0-1.032-.078-2.05-.109-3.037l-.109-3.036c-.156-4.556-.312-9.202-.452-13.834-.281-9.49-.53-19.056-.67-28.349 0-2.536-.001-5.041-.11-7.592v-10.63a.797.797 0 0 1 0-.273v-.091a47.526 47.526 0 0 0 12.212 9.9c2.589 1.61 5.443 2.84 8.172 4.191 2.855 1.078 5.662 2.339 8.64 3.143a126.2 126.2 0 0 0 72.68 0 86.105 86.105 0 0 0 8.641-3.173 91.543 91.543 0 0 0 8.172-4.176 47.633 47.633 0 0 0 11.994-9.9Z"/><path fill="#E0E0E0" d="M26.285 447.069a21.709 21.709 0 0 1-1.42-1.959v-.258c-1.076-26.482-1.965-56.183-2.027-81.359.421.668.858 1.336 1.341 1.959 0 25.738 1.03 55.515 2.106 81.055v.562Z"/><path fill="#E0E0E0" d="M22.838 363.493c.421.668.858 1.336 1.341 1.959a46.879 46.879 0 0 0 11.432 10.629 78.801 78.801 0 0 0 16.845 8.245 115.16 115.16 0 0 0 74.176 0 77.21 77.21 0 0 0 16.829-8.23 46.273 46.273 0 0 0 11.432-10.629c.483-.622.92-1.275 1.341-1.943l-133.396-.031ZM91.973 403.491c0 .474-.144.938-.415 1.333a2.45 2.45 0 0 1-1.106.883 2.52 2.52 0 0 1-1.424.137 2.486 2.486 0 0 1-1.261-.657 2.379 2.379 0 0 1-.675-1.228 2.34 2.34 0 0 1 .14-1.386c.187-.439.503-.813.908-1.077a2.509 2.509 0 0 1 1.37-.404c.653 0 1.28.253 1.742.702a2.37 2.37 0 0 1 .721 1.697ZM47.648 397.507c1.36 0 2.464-1.074 2.464-2.399s-1.103-2.399-2.464-2.399-2.464 1.074-2.464 2.399 1.103 2.399 2.464 2.399Z"/><path fill="#263238" d="M97.917 421.758c.276.004.54.112.734.302.195.19.307.447.31.715v2.688a1.179 1.179 0 0 1-.296.774 4.555 4.555 0 0 1-.561.623l-5.662 5.831c1.075.136 2.125.417 3.12.835.893.36 1.713.874 2.417 1.519a6.562 6.562 0 0 1 1.56 2.292c.372.94.557 1.939.546 2.946a7.54 7.54 0 0 1-.796 3.508 7.637 7.637 0 0 1-2.214 2.581 10.358 10.358 0 0 1-3.354 1.64 14.571 14.571 0 0 1-4.164.562 15.974 15.974 0 0 1-4.679-.623 11.437 11.437 0 0 1-3.337-1.609 6.93 6.93 0 0 1-2.044-2.232 6.265 6.265 0 0 1-.81-2.46.817.817 0 0 1 .28-.744c.21-.181.484-.279.764-.274h3.12a.902.902 0 0 1 .64.243c.204.208.377.443.514.699.165.311.375.598.624.85.3.292.647.534 1.029.714a6.364 6.364 0 0 0 1.56.516 12.98 12.98 0 0 0 2.37.182 6.98 6.98 0 0 0 3.821-.926c.46-.272.837-.66 1.092-1.121.255-.462.38-.982.359-1.506a2.48 2.48 0 0 0-.348-1.428 2.576 2.576 0 0 0-1.103-1.001 8.335 8.335 0 0 0-3.82-.744h-3.23a1.015 1.015 0 0 1-.733-.304.923.923 0 0 1-.311-.714v-2.687a1.251 1.251 0 0 1 .234-.79 8.45 8.45 0 0 1 .561-.623l5.444-5.572H80.87a.98.98 0 0 1-.749-.304.981.981 0 0 1-.312-.714v-2.687a1.02 1.02 0 0 1 .317-.721c.198-.19.465-.297.744-.297l17.047.061Z"/><path fill="#E0E0E0" d="M89.542 405.782c36.832 0 66.69-13.08 66.69-29.215 0-16.135-29.858-29.215-66.69-29.215-36.832 0-66.69 13.08-66.69 29.215 0 16.135 29.858 29.215 66.69 29.215Z"/><path fill="#F5F5F5" d="M154.894 364.336v.076a.87.87 0 0 1 0 .288v10.63c0 2.459-.078 4.95-.109 7.455 0 2.809-.109 5.618-.156 8.458v.471c0 1.837-.078 3.705-.125 5.557 0 2.718-.125 5.452-.218 8.185 0 1.898-.094 3.781-.156 5.694-.203 6.803-.437 13.56-.671 20.165-.125 3.32-.255 6.595-.39 9.824 0 1.094-.093 2.172-.125 3.25 0 .471 0 .957-.078 1.427v.577a46.532 46.532 0 0 1-10.59 9.643 84.654 84.654 0 0 1-7.954 4.555c-2.807 1.215-5.552 2.581-8.484 3.523a112.653 112.653 0 0 1-72.399 0c-2.932-.942-5.677-2.308-8.484-3.523A84.733 84.733 0 0 1 37 456.036a46.04 46.04 0 0 1-10.605-9.658v-.562a7654.43 7654.43 0 0 1-.562-14.622c0-1.033-.078-2.05-.109-3.037l-.109-3.037c-.156-4.556-.312-9.202-.452-13.833-.281-9.491-.53-19.057-.67-28.35 0-2.536-.001-5.041-.11-7.592v-10.629a.803.803 0 0 1 0-.274v-.091a47.526 47.526 0 0 0 12.212 9.9c2.589 1.61 5.443 2.84 8.172 4.191 2.855 1.079 5.662 2.339 8.64 3.144a126.216 126.216 0 0 0 72.68 0 86.11 86.11 0 0 0 8.641-3.174 91.278 91.278 0 0 0 8.172-4.176 47.633 47.633 0 0 0 11.994-9.9Z"/><path fill="#E0E0E0" d="M26.285 447.069a21.709 21.709 0 0 1-1.42-1.959v-.258c-1.076-26.482-1.965-56.183-2.027-81.359.421.668.858 1.336 1.341 1.959 0 25.738 1.03 55.515 2.106 81.055v.562Z"/><path fill="#E0E0E0" d="M22.838 363.493c.421.668.858 1.336 1.341 1.959a46.879 46.879 0 0 0 11.432 10.629 78.801 78.801 0 0 0 16.845 8.245 115.16 115.16 0 0 0 74.176 0 77.21 77.21 0 0 0 16.829-8.23 46.273 46.273 0 0 0 11.432-10.629c.483-.622.92-1.275 1.341-1.943l-133.396-.031ZM91.973 403.491c0 .474-.144.938-.415 1.333a2.45 2.45 0 0 1-1.106.883 2.52 2.52 0 0 1-1.424.137 2.486 2.486 0 0 1-1.261-.657 2.379 2.379 0 0 1-.675-1.228 2.34 2.34 0 0 1 .14-1.386c.187-.439.503-.813.908-1.077a2.509 2.509 0 0 1 1.37-.404c.653 0 1.28.253 1.742.702a2.37 2.37 0 0 1 .721 1.697ZM47.648 397.507c1.36 0 2.464-1.074 2.464-2.399s-1.103-2.399-2.464-2.399-2.464 1.074-2.464 2.399 1.103 2.399 2.464 2.399Z"/><path fill="#F5F5F5" d="M156.744 263.348v.076a.927.927 0 0 1 0 .288v10.629c0 2.46-.078 4.95-.11 7.456 0 2.809-.109 5.618-.156 8.458v.47c0 1.838-.078 3.705-.124 5.558 0 2.718-.125 5.451-.219 8.184 0 1.899-.093 3.781-.156 5.695-.202 6.802-.436 13.559-.67 20.165-.125 3.32-.255 6.595-.39 9.824 0 1.093-.094 2.172-.125 3.25 0 .47 0 .956-.078 1.427v.577a46.526 46.526 0 0 1-10.59 9.642 84.79 84.79 0 0 1-7.954 4.556c-2.808 1.214-5.553 2.581-8.485 3.522a112.638 112.638 0 0 1-72.398 0c-2.933-.941-5.677-2.308-8.485-3.522a84.742 84.742 0 0 1-7.954-4.556 46.014 46.014 0 0 1-10.606-9.657v-.562c-.187-4.738-.374-9.642-.561-14.623 0-1.032-.078-2.05-.11-3.037l-.108-3.037c-.156-4.555-.312-9.201-.453-13.833-.28-9.49-.53-19.056-.67-28.349 0-2.536 0-5.042-.11-7.593v-10.629a.797.797 0 0 1 0-.273v-.091a47.526 47.526 0 0 0 12.212 9.9c2.59 1.61 5.444 2.84 8.173 4.191 2.854 1.078 5.662 2.339 8.64 3.143a126.218 126.218 0 0 0 72.68 0 86.087 86.087 0 0 0 8.64-3.173 91.56 91.56 0 0 0 8.173-4.176 47.65 47.65 0 0 0 11.994-9.9Z"/><path fill="#E0E0E0" d="M26.285 447.069a21.709 21.709 0 0 1-1.42-1.959v-.258c-1.076-26.482-1.965-56.183-2.027-81.359.421.668.858 1.336 1.341 1.959 0 25.738 1.03 55.515 2.106 81.055v.562ZM91.973 403.491c0 .474-.144.938-.415 1.333a2.45 2.45 0 0 1-1.106.883 2.52 2.52 0 0 1-1.424.137 2.486 2.486 0 0 1-1.261-.657 2.379 2.379 0 0 1-.675-1.228 2.34 2.34 0 0 1 .14-1.386c.187-.439.503-.813.908-1.077a2.509 2.509 0 0 1 1.37-.404c.653 0 1.28.253 1.742.702a2.37 2.37 0 0 1 .721 1.697ZM47.648 397.507c1.36 0 2.464-1.074 2.464-2.399s-1.103-2.399-2.464-2.399-2.464 1.074-2.464 2.399 1.103 2.399 2.464 2.399ZM23.936 261.867c.42.668.857 1.336 1.34 1.959a46.88 46.88 0 0 0 11.433 10.629 78.802 78.802 0 0 0 16.844 8.245 115.16 115.16 0 0 0 74.177 0 77.202 77.202 0 0 0 16.828-8.23 46.26 46.26 0 0 0 11.433-10.629c.483-.622.92-1.275 1.341-1.943l-133.397-.031Z"/><path fill="#F5F5F5" d="M156.243 246.951a47.621 47.621 0 0 1-12.196 9.885c-2.605 1.609-5.428 2.839-8.173 4.191a89.896 89.896 0 0 1-8.64 3.173 126.201 126.201 0 0 1-72.68 0c-2.979-.82-5.786-2.065-8.64-3.158-2.73-1.351-5.584-2.581-8.173-4.176a47.848 47.848 0 0 1-12.212-9.9v-15.792c0-2.096.078-4.145.125-6.074 0-1.245 0-2.475.094-3.659 0-2.217.14-4.374.218-6.439.094-1.822.187-3.598.28-5.299v-1.154c.136-2.207.292-4.272.469-6.195a143.67 143.67 0 0 1 12.024-44.506c-.109 7.592 4.976 15.093 15.238 20.878 20.276 11.419 53.215 11.419 73.537 0 10.263-5.755 15.347-13.316 15.238-20.878a143.654 143.654 0 0 1 12.025 44.506c.125 1.366.25 2.778.343 4.267.094 1.488.187 2.733.265 4.175 0 .896.094 1.822.141 2.733.078 1.443.124 2.901.171 4.419.078 1.868.141 3.796.187 5.77.328 7.092.375 14.942.359 23.233Z"/></svg>