<svg width="25" height="16" viewBox="0 0 25 16" fill="none" xmlns="http://www.w3.org/2000/svg">
<path d="M15.9673 0.601432H15.608V0.960663V2.51865V2.87788H15.9673H20.4744L14.3251 8.71189L11.0473 5.60225L11.0473 5.60221C10.8247 5.39107 10.5266 5.27555 10.2196 5.27555C9.91253 5.27555 9.61448 5.39107 9.39186 5.60221L9.39183 5.60225L0.940256 13.6204L0.66556 13.881L0.940256 14.1416L2.10129 15.2431L2.34853 15.4777L2.59578 15.2431L10.2196 8.01027L13.4973 11.1199L13.4974 11.12C13.72 11.3311 14.018 11.4466 14.3251 11.4466C14.6321 11.4466 14.9302 11.3311 15.1528 11.12L15.1528 11.1199L22.1768 4.45612V8.75057V9.10981H22.5361H24.1783H24.5375V8.75057V0.960663V0.601432H24.1783H15.9673Z" fill="#B5A3C0" stroke="#B5A3C0" stroke-width="0.718461"/>
</svg>
