<svg width="25" height="24" viewBox="0 0 25 24" fill="none" xmlns="http://www.w3.org/2000/svg">
<path d="M1.1875 20.0853V7.13456C1.1875 5.50757 1.86875 3.94722 3.08139 2.79677C4.29403 1.64632 5.93872 1 7.65365 1H17.7121C18.5613 1 19.4021 1.15868 20.1866 1.46697C20.9711 1.77526 21.6839 2.22712 22.2844 2.79677C22.8848 3.36642 23.3611 4.04268 23.6861 4.78696C24.011 5.53124 24.1783 6.32895 24.1783 7.13456V16.6772C24.1783 17.4828 24.011 18.2805 23.6861 19.0248C23.3611 19.7691 22.8848 20.4453 22.2844 21.015C21.6839 21.5846 20.9711 22.0365 20.1866 22.3448C19.4021 22.6531 18.5613 22.8118 17.7121 22.8118H4.06135C3.29915 22.8118 2.56818 22.5245 2.02923 22.0132C1.49028 21.5019 1.1875 20.8084 1.1875 20.0853V20.0853Z" stroke="#B5A3C0" stroke-width="1.43692" stroke-linecap="round" stroke-linejoin="round"/>
<path d="M6.93555 11.9061H11.9648C12.727 11.9061 13.4579 12.1933 13.9969 12.7046C14.5358 13.2159 14.8386 13.9094 14.8386 14.6325C14.8386 15.3556 14.5358 16.0491 13.9969 16.5604C13.4579 17.0717 12.727 17.359 11.9648 17.359H6.93555V7.81636C6.93555 7.45481 7.08694 7.10806 7.35641 6.85241C7.62589 6.59675 7.99137 6.45312 8.37247 6.45312H10.5279C11.29 6.45312 12.021 6.74038 12.56 7.25169C13.0989 7.763 13.4017 8.45649 13.4017 9.17959C13.4017 9.9027 13.0989 10.5962 12.56 11.1075C12.021 11.6188 11.29 11.9061 10.5279 11.9061H8.37247" stroke="#B5A3C0" stroke-width="1.43692" stroke-linecap="round" stroke-linejoin="round"/>
<path d="M18.4307 17.3594H18.446" stroke="#B5A3C0" stroke-width="1.43692" stroke-linecap="round" stroke-linejoin="round"/>
</svg>
