<svg width="128" height="84" viewBox="0 0 128 84" fill="none" xmlns="http://www.w3.org/2000/svg">
<path d="M13.947 70.2996C14.3276 70.2429 51.9699 64.8465 62.8042 74.6513C62.8183 74.6626 62.8344 74.6707 62.8485 74.6828H62.8495C62.9129 74.7355 62.9803 74.7848 63.0518 74.8301C63.0941 74.8593 63.1324 74.8892 63.1777 74.9151H63.1766C63.2602 74.9588 63.3458 74.9977 63.4354 75.0309C63.4756 75.047 63.5129 75.0681 63.5552 75.0835C63.6619 75.1199 63.7726 75.1482 63.8853 75.1701C63.9155 75.1773 63.9447 75.1879 63.9749 75.1919V75.1927C64.2709 75.2453 64.5769 75.2453 64.8729 75.1927C64.9031 75.1927 64.9323 75.1773 64.9625 75.1709V75.1701C65.0753 75.1482 65.186 75.1199 65.2927 75.0835C65.335 75.0681 65.3722 75.0479 65.4125 75.0309C65.5021 74.9977 65.5876 74.9588 65.6712 74.9151C65.7155 74.8892 65.7548 74.8593 65.797 74.8301H65.796C65.8675 74.7848 65.935 74.7355 65.9984 74.6828C66.0125 74.6715 66.0286 74.6634 66.0427 74.6513C76.8777 64.8423 114.521 70.2422 114.9 70.2996H114.901C115.532 70.3926 116.183 70.2551 116.677 69.9241C117.17 69.5938 117.455 69.1034 117.455 68.5871V1.74093C117.455 0.779466 116.485 9.79098e-05 115.29 9.79098e-05H78.1669C75.1156 -0.00233009 72.1339 0.724437 69.598 2.08894L64.4247 4.86646L59.2513 2.08894C56.7155 0.724437 53.7337 -0.00238831 50.6824 9.79098e-05H13.5589C12.364 9.79098e-05 11.3945 0.779466 11.3945 1.74093V68.5871C11.3945 69.1034 11.6794 69.5939 12.1727 69.9241C12.666 70.2551 13.3173 70.3926 13.9485 70.2996H13.947ZM72.0019 4.97832L72.0029 4.97913C73.827 3.99904 75.9733 3.47865 78.1669 3.48188H113.126V66.5407C104.92 65.546 79.4477 63.1528 66.5879 69.7893V7.89285L72.0019 4.97832ZM15.7227 3.48188H50.6814C52.876 3.47865 55.0213 3.99984 56.8453 4.97993L62.2594 7.89109V69.7938C55.4591 66.283 45.1406 65.2923 35.7047 65.2923L35.7037 65.2915C29.0163 65.323 22.3408 65.7398 15.7268 66.5402L15.7227 3.48188Z" fill="url(#paint0_linear_322_15152)"/>
<path d="M125.761 10.0835C124.565 10.0835 123.596 10.8629 123.596 11.8243V73.8431H76.4039C73.9204 73.8447 71.6141 74.879 70.3075 76.5769L68.4834 78.9821C67.97 79.6506 67.063 80.0577 66.0854 80.0577H62.7653C61.7898 80.0593 60.8828 79.6554 60.3674 78.9886L58.5433 76.5767C57.2366 74.8788 54.9302 73.8444 52.4468 73.8429H5.25453V11.8242C5.25453 10.8627 4.28609 10.0834 3.09015 10.0834C1.89421 10.0834 0.925781 10.8627 0.925781 11.8242V75.5833C0.925781 76.5439 1.89421 77.3233 3.09015 77.3233H52.4473C53.4227 77.3209 54.3308 77.7247 54.8462 78.3908L56.6703 80.7968C57.975 82.498 60.2814 83.5347 62.7657 83.5379H66.0858C68.5693 83.5354 70.8757 82.4995 72.1813 80.8007L74.0054 78.3947V78.3939C74.5208 77.7286 75.4288 77.3248 76.4043 77.3272H125.761C126.957 77.3272 127.926 76.5478 127.926 75.5864V11.8232C127.926 10.8617 126.957 10.0823 125.761 10.0823L125.761 10.0835Z" fill="url(#paint1_linear_322_15152)"/>
<path d="M25.6155 15.1034H46.4137C47.6097 15.1034 48.5791 14.324 48.5791 13.3634C48.5791 12.4019 47.6097 11.6226 46.4137 11.6226H25.6155C24.4206 11.6226 23.4512 12.4019 23.4512 13.3634C23.4512 14.324 24.4206 15.1034 25.6155 15.1034Z" fill="url(#paint2_linear_322_15152)"/>
<path d="M25.6155 25.5018H46.4137C47.6097 25.5018 48.5791 24.7232 48.5791 23.7618C48.5791 22.8003 47.6097 22.0217 46.4137 22.0217H25.6155C24.4206 22.0217 23.4512 22.8003 23.4512 23.7618C23.4512 24.7232 24.4206 25.5018 25.6155 25.5018Z" fill="url(#paint3_linear_322_15152)"/>
<path d="M25.6155 35.9025H46.4137C47.6097 35.9025 48.5791 35.1239 48.5791 34.1625C48.5791 33.201 47.6097 32.4216 46.4137 32.4216H25.6155C24.4206 32.4216 23.4512 33.201 23.4512 34.1625C23.4512 35.1239 24.4206 35.9025 25.6155 35.9025Z" fill="url(#paint4_linear_322_15152)"/>
<path d="M25.6155 46.3031H46.4137C47.6097 46.3031 48.5791 45.5237 48.5791 44.5623C48.5791 43.6016 47.6097 42.8223 46.4137 42.8223H25.6155C24.4206 42.8223 23.4512 43.6016 23.4512 44.5623C23.4512 45.5237 24.4206 46.3031 25.6155 46.3031Z" fill="url(#paint5_linear_322_15152)"/>
<path d="M48.581 54.9619C48.581 54.0005 47.6116 53.2211 46.4157 53.2211H25.6175C24.4226 53.2211 23.4531 54.0005 23.4531 54.9619C23.4531 55.9226 24.4226 56.702 25.6175 56.702H46.4157C47.6116 56.702 48.581 55.9226 48.581 54.9619Z" fill="url(#paint6_linear_322_15152)"/>
<path d="M82.4349 15.1034H103.233C104.428 15.1034 105.397 14.324 105.397 13.3634C105.397 12.4019 104.428 11.6226 103.233 11.6226H82.4349C81.239 11.6226 80.2695 12.4019 80.2695 13.3634C80.2695 14.324 81.239 15.1034 82.4349 15.1034Z" fill="url(#paint7_linear_322_15152)"/>
<path d="M82.4349 25.5018H103.233C104.428 25.5018 105.397 24.7232 105.397 23.7618C105.397 22.8003 104.428 22.0217 103.233 22.0217H82.4349C81.239 22.0217 80.2695 22.8003 80.2695 23.7618C80.2695 24.7232 81.239 25.5018 82.4349 25.5018Z" fill="url(#paint8_linear_322_15152)"/>
<path d="M82.4349 35.9025H103.233C104.428 35.9025 105.397 35.1239 105.397 34.1625C105.397 33.201 104.428 32.4216 103.233 32.4216H82.4349C81.239 32.4216 80.2695 33.201 80.2695 34.1625C80.2695 35.1239 81.239 35.9025 82.4349 35.9025Z" fill="url(#paint9_linear_322_15152)"/>
<path d="M82.4349 46.3031H103.233C104.428 46.3031 105.397 45.5237 105.397 44.5623C105.397 43.6016 104.428 42.8223 103.233 42.8223H82.4349C81.239 42.8223 80.2695 43.6016 80.2695 44.5623C80.2695 45.5237 81.239 46.3031 82.4349 46.3031Z" fill="url(#paint10_linear_322_15152)"/>
<path d="M82.4349 56.702H103.233C104.428 56.702 105.397 55.9227 105.397 54.962C105.397 54.0006 104.428 53.2212 103.233 53.2212H82.4349C81.239 53.2212 80.2695 54.0006 80.2695 54.962C80.2695 55.9227 81.239 56.702 82.4349 56.702Z" fill="url(#paint11_linear_322_15152)"/>
<defs>
<linearGradient id="paint0_linear_322_15152" x1="116.55" y1="5.63216" x2="5.51862" y2="61.9398" gradientUnits="userSpaceOnUse">
<stop stop-color="#FAE6AF"/>
<stop offset="1" stop-color="#FFC47F"/>
</linearGradient>
<linearGradient id="paint1_linear_322_15152" x1="126.843" y1="15.5814" x2="6.31735" y2="90.5412" gradientUnits="userSpaceOnUse">
<stop stop-color="#FAE6AF"/>
<stop offset="1" stop-color="#FFC47F"/>
</linearGradient>
<linearGradient id="paint2_linear_322_15152" x1="48.3648" y1="11.8831" x2="44.094" y2="22.9737" gradientUnits="userSpaceOnUse">
<stop stop-color="#FAE6AF"/>
<stop offset="1" stop-color="#FFC47F"/>
</linearGradient>
<linearGradient id="paint3_linear_322_15152" x1="48.3648" y1="22.2823" x2="44.0957" y2="33.3709" gradientUnits="userSpaceOnUse">
<stop stop-color="#FAE6AF"/>
<stop offset="1" stop-color="#FFC47F"/>
</linearGradient>
<linearGradient id="paint4_linear_322_15152" x1="48.3648" y1="32.6822" x2="44.094" y2="43.7728" gradientUnits="userSpaceOnUse">
<stop stop-color="#FAE6AF"/>
<stop offset="1" stop-color="#FFC47F"/>
</linearGradient>
<linearGradient id="paint5_linear_322_15152" x1="48.3648" y1="43.0829" x2="44.094" y2="54.1734" gradientUnits="userSpaceOnUse">
<stop stop-color="#FAE6AF"/>
<stop offset="1" stop-color="#FFC47F"/>
</linearGradient>
<linearGradient id="paint6_linear_322_15152" x1="48.3668" y1="53.4817" x2="44.0959" y2="64.5723" gradientUnits="userSpaceOnUse">
<stop stop-color="#FAE6AF"/>
<stop offset="1" stop-color="#FFC47F"/>
</linearGradient>
<linearGradient id="paint7_linear_322_15152" x1="105.183" y1="11.8831" x2="100.912" y2="22.9737" gradientUnits="userSpaceOnUse">
<stop stop-color="#FAE6AF"/>
<stop offset="1" stop-color="#FFC47F"/>
</linearGradient>
<linearGradient id="paint8_linear_322_15152" x1="105.183" y1="22.2823" x2="100.914" y2="33.3709" gradientUnits="userSpaceOnUse">
<stop stop-color="#FAE6AF"/>
<stop offset="1" stop-color="#FFC47F"/>
</linearGradient>
<linearGradient id="paint9_linear_322_15152" x1="105.183" y1="32.6822" x2="100.912" y2="43.7728" gradientUnits="userSpaceOnUse">
<stop stop-color="#FAE6AF"/>
<stop offset="1" stop-color="#FFC47F"/>
</linearGradient>
<linearGradient id="paint10_linear_322_15152" x1="105.183" y1="43.0829" x2="100.912" y2="54.1734" gradientUnits="userSpaceOnUse">
<stop stop-color="#FAE6AF"/>
<stop offset="1" stop-color="#FFC47F"/>
</linearGradient>
<linearGradient id="paint11_linear_322_15152" x1="105.183" y1="53.4818" x2="100.912" y2="64.5724" gradientUnits="userSpaceOnUse">
<stop stop-color="#FAE6AF"/>
<stop offset="1" stop-color="#FFC47F"/>
</linearGradient>
</defs>
</svg>
