<svg width="89" height="88" viewBox="0 0 89 88" fill="none" xmlns="http://www.w3.org/2000/svg">
<path d="M44.7677 7.73921e-05C44.6046 0.0022816 44.443 0.0199153 44.2836 0.0515086C30.1564 0.220495 17.6521 7.11592 9.74862 17.6575C9.49146 17.8912 9.28206 18.1718 9.13146 18.4848C4.10235 25.5286 1.08409 34.0954 0.975375 43.3689C0.90925 43.7091 0.90925 44.0581 0.975375 44.3976C1.08044 53.5772 4.03332 62.0675 8.96839 69.071C9.1506 69.5596 9.47094 69.985 9.88972 70.2965C17.8041 80.7369 30.2447 87.5625 44.293 87.7271C44.6302 87.7917 44.9763 87.7917 45.3135 87.7271C59.3974 87.5669 71.8697 80.7134 79.7845 70.2318C80.1776 69.9298 80.4803 69.525 80.6588 69.0621C85.5896 62.0617 88.5409 53.5779 88.6475 44.4056C88.7136 44.0654 88.7136 43.7164 88.6475 43.377C88.5417 34.1981 85.586 25.707 80.65 18.7035C80.4722 18.2524 80.1761 17.8571 79.7933 17.5596C71.8847 7.07797 59.4252 0.222331 45.3468 0.0519226C45.1565 0.013718 44.9625 -0.00318198 44.7685 0.00049139L44.7677 7.73921e-05ZM42.1014 22.1106C37.654 21.999 33.2215 21.6206 28.8543 20.9659C29.5398 19.2305 30.2841 17.5899 31.104 16.1057C34.2348 10.4403 38.0927 6.96577 42.1014 5.86658V22.1106ZM47.5193 5.86675C51.5278 6.9659 55.3859 10.4403 58.5166 16.1059C59.3403 17.5974 60.0867 19.2425 60.7752 20.9874C56.4044 21.6347 51.9689 22.005 47.5193 22.1108V5.86675ZM29.6296 8.56318C28.4482 10.0642 27.3498 11.7041 26.3638 13.4873C25.2559 15.4931 24.261 17.6723 23.3941 19.9977C20.9666 19.501 18.5647 18.9228 16.2063 18.2534C19.9071 14.1258 24.4594 10.7828 29.6296 8.56318ZM59.9909 8.56318C65.1795 10.7902 69.7495 14.1477 73.4569 18.296C71.0881 18.9646 68.6723 19.5325 66.2352 20.0277C65.3653 17.6906 64.3698 15.502 63.2566 13.4873C62.2707 11.7042 61.1722 10.0643 59.9909 8.56318ZM12.6527 22.8306C15.6386 23.749 18.6827 24.5315 21.7692 25.1833C20.4438 30.0963 19.6335 35.4854 19.4378 41.1781H6.50751C6.97626 34.4289 9.15542 28.1677 12.6527 22.8306ZM76.9922 22.8733C80.4726 28.2007 82.6444 34.448 83.1116 41.178H70.1813C69.9866 35.5 69.1821 30.1248 67.8626 25.2221C70.9536 24.5741 74.0012 23.7879 76.9922 22.8733ZM44.8084 23.0408C49.1483 23.0481 53.378 24.4095 56.9077 26.9363C58.7827 26.7386 60.6526 26.5094 62.5092 26.2162C63.4386 29.5725 64.1131 33.2256 64.4849 37.0769C65.2512 39.2656 65.6465 41.5675 65.6545 43.887C65.6465 46.208 65.2512 48.5113 64.4849 50.7014C64.1131 54.5529 63.4379 58.2007 62.5092 61.5577C60.6481 61.2638 58.7739 61.0346 56.8944 60.8377C53.3692 63.3615 49.1438 64.7236 44.8082 64.7332C40.4755 64.7273 36.2524 63.3717 32.7265 60.8546C30.8478 61.0545 28.9721 61.2859 27.1117 61.5835C26.1778 58.2163 25.499 54.5536 25.1271 50.6882C24.3638 48.5017 23.97 46.2035 23.9619 43.887C23.97 41.566 24.3652 39.2626 25.1316 37.0725C25.5033 33.2124 26.1793 29.5533 27.1116 26.1907C28.9756 26.4882 30.8557 26.7189 32.7388 26.9195C36.2617 24.4053 40.4798 23.049 44.8081 23.0409L44.8084 23.0408ZM44.8084 26.3323C40.1524 26.3323 35.6876 28.1816 32.3953 31.4739C29.103 34.7662 27.2537 39.2311 27.2537 43.887C27.2537 48.5429 29.103 53.0078 32.3953 56.3001C35.6876 59.5924 40.1524 61.4417 44.8084 61.4417C49.4643 61.4417 53.9291 59.5924 57.2214 56.3001C60.5138 53.0078 62.363 48.5429 62.363 43.887C62.363 39.2311 60.5138 34.7662 57.2214 31.4739C53.9291 28.1816 49.4643 26.3323 44.8084 26.3323ZM44.3029 33.0522H46.3256V35.5039C47.0721 35.6023 47.7509 35.7934 48.3614 36.074C48.9801 36.354 49.5061 36.7191 49.9389 37.1754C50.3797 37.6228 50.7169 38.154 50.9543 38.7609C51.1916 39.3685 51.3099 40.0445 51.3099 40.7887H47.0111C47.0111 40.3559 46.9589 39.9812 46.8568 39.6697C46.7635 39.3589 46.6276 39.1047 46.4498 38.9071C46.272 38.705 46.0662 38.5588 45.8282 38.4655C45.5909 38.3707 45.3323 38.3237 45.0523 38.3237C44.7386 38.3237 44.4675 38.3751 44.2383 38.4736C44.0178 38.5617 43.8342 38.6866 43.6894 38.8468C43.5542 39.0048 43.4536 39.1921 43.3852 39.4126C43.3176 39.6234 43.278 39.8534 43.278 40.098C43.278 40.3559 43.3176 40.5866 43.3852 40.7924C43.4536 40.9966 43.5711 41.1876 43.7416 41.3625C43.9106 41.5359 44.1339 41.7041 44.4138 41.8724C44.7026 42.0325 45.0619 42.2001 45.4858 42.3654C46.3087 42.6762 47.0662 42.995 47.7613 43.3212C48.4652 43.6401 49.0742 44.0038 49.5827 44.4138C50.0918 44.8237 50.49 45.3028 50.7788 45.8501C51.0668 46.396 51.2115 47.0499 51.2115 47.817C51.2115 48.4922 51.0889 49.0998 50.8427 49.6384C50.5973 50.1703 50.2469 50.6368 49.7972 51.0314C49.3476 51.4186 48.8046 51.7316 48.1683 51.9748C47.5409 52.2113 46.84 52.362 46.0685 52.4288V54.7218H44.0458V52.42C43.3162 52.3546 42.6065 52.2047 41.9114 51.9747C41.2244 51.7462 40.6109 51.4112 40.0768 50.9719C39.5426 50.531 39.1136 49.9815 38.791 49.3217C38.4685 48.656 38.3112 47.8596 38.3112 46.9258H42.5968C42.5968 47.4342 42.6622 47.8567 42.7982 48.1983C42.9341 48.5326 43.1178 48.8038 43.347 49.0087C43.5762 49.2152 43.8385 49.3599 44.1354 49.4503C44.4322 49.5311 44.743 49.5745 45.0655 49.5745C45.388 49.5745 45.6636 49.5289 45.8928 49.4415C46.1301 49.3475 46.3234 49.224 46.4754 49.0727C46.6283 48.9125 46.7421 48.7318 46.8097 48.5283C46.8869 48.3181 46.9214 48.0918 46.9214 47.8472C46.9214 47.5357 46.8817 47.2653 46.7972 47.0375C46.7201 46.809 46.5937 46.6106 46.4159 46.4372C46.2462 46.255 46.0184 46.0882 45.7385 45.9354C45.4586 45.7819 45.1214 45.6283 44.7224 45.477C43.8834 45.1735 43.1082 44.8671 42.4044 44.5556C41.6998 44.2448 41.0959 43.8863 40.5867 43.4844C40.0775 43.0825 39.6837 42.6086 39.4038 42.0612C39.1238 41.5154 38.9835 40.8556 38.9835 40.0812C38.9835 39.4361 39.1106 38.8418 39.3656 38.3025C39.6198 37.7639 39.979 37.3003 40.4456 36.905C40.9122 36.5032 41.472 36.1799 42.1252 35.9367C42.7784 35.6883 43.5057 35.5274 44.3029 35.4569V33.0522ZM6.50648 46.596H19.4368C19.6323 52.288 20.4427 57.6778 21.7682 62.5909C18.6839 63.2433 15.6399 64.0258 12.6562 64.9435C9.1574 59.6065 6.97613 53.346 6.50666 46.596H6.50648ZM83.1123 46.596C82.6443 53.3275 80.4702 59.5734 76.9883 64.9008C73.9994 63.9868 70.9526 63.2036 67.863 62.5563C69.1833 57.6521 69.9864 52.2746 70.1818 46.596H83.1123ZM42.1004 65.6644V81.9121C38.0918 80.8152 34.2337 77.3393 31.103 71.6729C30.2831 70.1895 29.5388 68.549 28.8533 66.8135C33.2205 66.1588 37.653 65.7776 42.1004 65.6644ZM47.5182 65.6644C51.9677 65.7702 56.4032 66.1405 60.7742 66.7878C60.0857 68.5335 59.3392 70.1823 58.5156 71.6731C55.3849 77.3392 51.527 80.8151 47.5182 81.9122V65.6644ZM66.2346 67.7473C68.6709 68.2425 71.0844 68.8149 73.4517 69.4835C69.7466 73.628 65.1796 76.9769 59.9945 79.2039C61.1738 77.7043 62.2713 76.0726 63.256 74.2924C64.3691 72.2777 65.3646 70.0853 66.2346 67.7473ZM23.3936 67.7819C24.2606 70.1072 25.2554 72.2909 26.3634 74.2967C27.3472 76.0769 28.4455 77.7043 29.6248 79.2039C24.4546 76.9828 19.9016 73.6502 16.2023 69.5217C18.5614 68.8516 20.9654 68.2793 23.3936 67.7819Z" fill="url(#paint0_linear_585_7757)"/>
<defs>
<linearGradient id="paint0_linear_585_7757" x1="87.9486" y1="6.5711" x2="-14.3339" y2="43.3629" gradientUnits="userSpaceOnUse">
<stop stop-color="#FAE6AF"/>
<stop offset="1" stop-color="#FFC47F"/>
</linearGradient>
</defs>
</svg>
