<svg width="86" height="119" viewBox="0 0 86 119" fill="none" xmlns="http://www.w3.org/2000/svg">
<path d="M22.2265 81.2432L22.2014 81.1951C19.5749 75.8895 17.735 70.5763 16.6302 65.296L4.87592 74.8172L11.0766 90.1397L23.1167 83.6377C23.2748 83.5529 23.4413 83.4879 23.6078 83.4417L22.2265 81.242L22.2265 81.2432ZM49.9231 96.3838C51.8469 100.207 52.2323 104.064 51.3275 107.728C50.3808 111.571 48.0152 115.167 44.5308 118.254C43.6564 119.028 42.252 119.025 41.3818 118.254C37.8977 115.166 35.532 111.571 34.5851 107.728C33.6698 104.023 34.0741 100.123 36.0534 96.2558C36.4325 95.5172 37.2451 95.0819 38.0944 95.0801L47.8189 95.0772C48.7803 95.0772 49.6013 95.6199 49.9239 96.3839L49.9231 96.3838ZM46.9479 106.858C47.5594 104.375 47.395 101.761 46.3206 99.129H39.5952C38.5187 101.763 38.3542 104.375 38.9658 106.858C39.5722 109.319 40.9461 111.685 42.9569 113.841C44.9676 111.685 46.3416 109.319 46.948 106.858H46.9479ZM60.5503 87.1264C60.41 87.051 60.2843 86.9634 60.1691 86.8683L57.4788 91.1434C57.0651 91.7972 56.307 92.1656 55.5268 92.1656L30.3931 92.1722C29.4883 92.1722 28.7081 91.6917 28.35 90.9993L25.7633 86.8778C25.6586 86.9626 25.5455 87.037 25.4209 87.1039L11.0476 94.8656C9.98575 95.4364 8.60443 95.1256 7.96994 94.1703L7.78562 93.8227L0.134535 74.9158C-0.185916 74.1197 0.0853138 73.2587 0.744014 72.7236L15.817 60.5117L15.8253 60.5042C14.9226 53.3661 15.352 46.3168 16.9888 39.4595C20.3558 25.3542 28.8393 12.0944 41.3622 0.602868C42.2314 -0.191291 43.6546 -0.202578 44.5385 0.579317L44.5794 0.616056C57.095 12.1026 65.5659 25.3621 68.9275 39.4655C70.5601 46.3151 70.9895 53.3607 70.092 60.4894L85.1838 72.722C85.8414 73.2581 86.1127 74.1191 85.7922 74.9152L78.1411 93.8221L77.9547 94.1697C77.3201 95.1249 75.9388 95.4358 74.877 94.8649L60.5528 87.125L60.5503 87.1264ZM62.316 83.4525C62.5024 83.4987 62.6835 83.5693 62.8553 83.6616L74.847 90.141L81.0478 74.8186L69.2863 65.2841C68.1909 70.5304 66.3697 75.8105 63.7738 81.0824C63.7078 81.25 63.6209 81.4064 63.513 81.5496L62.316 83.4525ZM42.961 26.1659C46.0923 26.1659 48.9365 27.3124 50.9984 29.1646L51.0131 29.1778C53.0678 31.0317 54.3412 33.5884 54.3412 36.4033C54.3412 39.2286 53.0667 41.79 51.0077 43.6422L50.8674 43.7571C48.818 45.5423 46.0259 46.6407 42.9608 46.6407C39.8255 46.6407 36.98 45.4924 34.9191 43.6375C32.855 41.7901 31.5806 39.2287 31.5806 36.4035C31.5806 33.5866 32.8551 31.0281 34.914 29.1733L34.9287 29.1601C36.9897 27.3118 39.8318 26.1663 42.961 26.1663L42.961 26.1659ZM47.8264 32.0246C46.5864 30.9082 44.8648 30.2177 42.961 30.2177C41.0561 30.2177 39.3345 30.9082 38.0986 32.0217C36.8524 33.1418 36.0838 34.6905 36.0838 36.4032C36.0838 38.1102 36.8556 39.659 38.0986 40.7773C39.3344 41.8983 41.056 42.5898 42.961 42.5898C44.8136 42.5898 46.4956 41.936 47.724 40.8733L47.8234 40.7773C49.0665 39.659 49.8383 38.1102 49.8383 36.4032C49.8383 34.6896 49.0707 33.141 47.8276 32.0246L47.8264 32.0246ZM21.3836 40.2987C18.4555 52.5557 19.6462 65.4837 25.7401 78.3909H60.1766C66.2609 65.4876 67.4507 52.5596 64.5269 40.3035C61.491 27.5697 54.0064 15.5189 42.9613 4.93655C31.914 15.5233 24.424 27.5647 21.3852 40.2963L21.3836 40.2987ZM57.7906 82.4425H28.1235L31.6944 88.1193H54.2185L57.7906 82.4425Z" fill="url(#paint0_linear_585_7756)"/>
<defs>
<linearGradient id="paint0_linear_585_7756" x1="85.194" y1="8.89618" x2="-20.7286" y2="36.4479" gradientUnits="userSpaceOnUse">
<stop stop-color="#FAE6AF"/>
<stop offset="1" stop-color="#FFC47F"/>
</linearGradient>
</defs>
</svg>
