<svg width="94" height="94" viewBox="0 0 94 94" fill="none" xmlns="http://www.w3.org/2000/svg">
<path d="M1.67767 33.8986C2.17136 32.1269 2.76983 30.3862 3.47066 28.6858C3.95943 27.5011 5.0426 26.6669 6.31251 26.4975C7.58316 26.3288 8.84731 26.8495 9.62908 27.8647C10.4101 28.8799 10.5911 30.2356 10.1031 31.4204C9.51119 32.8557 9.00521 34.3252 8.5893 35.821C8.37971 36.5759 7.92779 37.2415 7.30474 37.7155C6.68087 38.1896 5.91946 38.4475 5.13588 38.4483C4.81003 38.4475 4.48582 38.4033 4.17143 38.3165C3.25528 38.061 2.47751 37.4519 2.01012 36.6242C1.54263 35.7957 1.4231 34.8156 1.67773 33.8987L1.67767 33.8986ZM3.70727 53.4176C3.80306 53.4176 3.9013 53.4143 3.99709 53.4061H3.99627C4.94434 53.3308 5.82448 52.8813 6.44178 52.1576C7.05828 51.433 7.36284 50.4931 7.28669 49.545C7.22856 48.8238 7.1909 48.0967 7.17452 47.3649C7.14423 46.0836 6.43276 44.9152 5.30786 44.3004C4.18376 43.6864 2.81561 43.7183 1.72112 44.3848C0.626491 45.052 -0.0293002 46.2514 0.00100674 47.5335C0.0222928 48.4013 0.067323 49.2626 0.136914 50.1173H0.136095C0.208142 51.0154 0.615055 51.853 1.27657 52.4645C1.93808 53.0761 2.80593 53.4167 3.70657 53.4175L3.70727 53.4176ZM13.3091 22.7858V22.7866C14.3808 22.7883 15.3968 22.3093 16.078 21.4824C17.0662 20.2846 18.124 19.1474 19.2472 18.0766C19.9366 17.4199 20.3361 16.5169 20.359 15.5656C20.382 14.6144 20.0258 13.6924 19.3692 13.0038C18.7126 12.3153 17.8087 11.9157 16.8575 11.8936C15.9061 11.8715 14.985 12.2277 14.2965 12.8851C12.9668 14.1533 11.7134 15.4993 10.5443 16.9164C9.9647 17.6197 9.67406 18.5178 9.73218 19.4273C9.79031 20.3361 10.1923 21.19 10.8563 21.8139C11.5203 22.4378 12.3971 22.7857 13.3091 22.7865L13.3091 22.7858ZM93.2451 46.3607L93.2443 46.3615C93.2656 58.7592 88.368 70.6594 79.6265 79.4518C70.8851 88.2431 59.0128 93.2087 46.6159 93.2578H43.0291V6.94897e-05H46.6159C58.9432 -0.0212166 70.7755 4.84855 79.5175 13.5401C88.2598 22.2316 93.1967 34.0358 93.2458 46.3642L93.2451 46.3607ZM62.7978 10.6651C66.1733 16.1235 68.5551 22.1369 69.8338 28.4263H81.6805C77.5599 20.5537 70.9079 14.2969 62.7976 10.6651H62.7978ZM50.2018 28.4263H62.5046C59.9182 17.7938 55.1934 10.4924 50.2026 8.0746L50.2018 28.4263ZM50.2018 57.1215H63.8269C64.3067 53.5551 64.5482 49.9602 64.5498 46.3611C64.549 42.762 64.3107 39.1679 63.8351 35.6007H50.2018V57.1215ZM62.4947 64.2952H50.2018V85.1185C55.1362 82.5896 59.8897 75.0598 62.4947 64.2952ZM81.814 64.2952H69.8738C68.5999 70.7621 66.1831 76.9501 62.7378 82.569C70.9913 78.8282 77.7211 72.3818 81.814 64.2952ZM84.5812 57.1215C85.567 53.6199 86.0681 49.9996 86.0705 46.3611C86.0697 42.7203 85.5563 39.0983 84.5461 35.6007H71.0446C71.4924 39.1694 71.7192 42.7636 71.7233 46.3611C71.72 49.9577 71.4982 53.5511 71.061 57.1215H84.5812ZM30.5675 2.7996C28.8416 3.42674 27.1543 4.15457 25.5144 4.97977C24.6638 5.40633 24.017 6.15382 23.7182 7.05768C23.4185 7.96073 23.4906 8.94646 23.9179 9.79704C24.3461 10.6469 25.0936 11.292 25.9975 11.5908C26.9013 11.8889 27.8871 11.816 28.7368 11.3878C30.1254 10.6903 31.5539 10.0746 33.0146 9.54405C34.2173 9.10521 35.0941 8.05891 35.3167 6.79799C35.5394 5.53799 35.0736 4.25418 34.0944 3.42985C33.1152 2.60622 31.7717 2.36553 30.5674 2.79944L30.5675 2.7996ZM30.3914 59.1797L8.76998 66.2134C7.87758 66.504 7.23734 67.29 7.13337 68.2233C7.03021 69.1575 7.48297 70.0646 8.29021 70.5435L13.579 73.68L1.28189 85.9763C0.348557 86.9097 0.348557 88.4235 1.28189 89.3577L3.11091 91.1867C3.55874 91.6353 4.16706 91.8875 4.80156 91.8875C5.43605 91.8875 6.04437 91.6362 6.49221 91.1875L18.899 78.7831L21.9594 84.0973H21.9586C22.4294 84.9143 23.3357 85.3785 24.2731 85.2827C25.2106 85.1878 26.0047 84.55 26.3011 83.6551L33.401 62.2056C33.6843 61.35 33.4616 60.4068 32.8263 59.7682C32.1901 59.1288 31.2486 58.9012 30.3906 59.1804L30.3914 59.1797Z" fill="url(#paint0_linear_585_7755)"/>
<defs>
<linearGradient id="paint0_linear_585_7755" x1="92.4506" y1="6.98151" x2="-16.2134" y2="46.0657" gradientUnits="userSpaceOnUse">
<stop stop-color="#FAE6AF"/>
<stop offset="1" stop-color="#FFC47F"/>
</linearGradient>
</defs>
</svg>
