<svg width="96" height="96" viewBox="0 0 96 96" fill="none" xmlns="http://www.w3.org/2000/svg">
<path d="M91.3916 37.3897L87.8781 33.2741C86.874 32.0698 86.2719 30.6645 86.1718 29.1585L85.7706 23.7385C85.1684 16.0094 79.1456 9.9872 71.4172 9.38512L65.9972 8.98392C64.4919 8.8838 62.9857 8.28095 61.8816 7.27762L57.766 3.7641C51.844 -1.2547 43.3117 -1.2547 37.3897 3.7641L33.2741 7.27762C32.0698 8.28167 30.6645 8.8838 29.1585 8.98392L23.7385 9.38512C16.0094 9.98727 9.9872 16.0101 9.38512 23.7385L8.98392 29.1585C8.8838 30.6638 8.28095 32.1699 7.27762 33.2741L3.7641 37.3897C-1.2547 43.3117 -1.2547 51.844 3.7641 57.766L7.27762 61.8816C8.28167 63.0859 8.8838 64.4912 8.98392 65.9972L9.38512 71.4171C9.98727 79.1463 16.0101 85.1685 23.7385 85.7706L29.1585 86.1718C30.6638 86.2719 32.1699 86.8747 33.2741 87.8781L37.3897 91.3916C40.3002 93.901 43.9138 95.206 47.5275 95.206C51.1412 95.206 54.7546 93.9009 57.6653 91.3916L61.7809 87.8781C62.9852 86.874 64.3905 86.2719 65.8965 86.1718L71.3164 85.7706C79.0456 85.1684 85.0678 79.1456 85.6698 71.4171L86.071 65.9972C86.1712 64.4918 86.774 62.9857 87.7773 61.8816L91.2909 57.766C96.5113 51.8433 96.5113 43.2117 91.3917 37.3897H91.3916ZM84.9675 52.2451L81.454 56.3607C79.2457 58.8701 78.0414 61.9816 77.7403 65.2942L77.3391 70.7142C77.038 74.3277 74.2276 77.038 70.7141 77.3392L65.2941 77.7404C61.9817 78.0414 58.8701 79.2457 56.3607 81.4541L52.2451 84.9676C49.5347 87.2761 45.5199 87.2761 42.8095 84.9676L38.6939 81.4541C36.1845 79.2458 33.0731 78.0415 29.7605 77.7404L24.3405 77.3392C20.727 77.0381 18.0167 74.2277 17.7155 70.7142L17.3143 65.2942C17.0133 61.9818 15.809 58.8701 13.6006 56.3607L10.0871 52.2451C7.77861 49.5348 7.77861 45.5199 10.0871 42.8096L13.6006 38.694C15.8089 36.1846 17.0132 33.0731 17.3143 29.7606L17.7155 24.3406C18.0166 20.7271 20.827 18.0167 24.3405 17.7156L29.7605 17.3144C33.0729 17.0133 36.1845 15.8091 38.6939 13.6007L42.8095 10.0872C44.2148 8.88287 45.821 8.38086 47.5272 8.38086C49.2334 8.38086 50.8396 8.98301 52.2449 10.0872L56.3605 13.6007C58.8699 15.809 61.9814 17.0133 65.294 17.3144L70.7139 17.7156C74.3274 18.0167 77.0378 20.8271 77.3389 24.3406L77.7401 29.7606C78.0412 33.073 79.2454 36.1846 81.4538 38.694L84.9674 42.8096C87.3766 45.5199 87.3766 49.5348 84.9674 52.2451H84.9675Z" fill="url(#paint0_linear_322_15170)"/>
<path d="M65.1931 29.8597C63.5869 28.2535 60.8773 28.2535 59.2711 29.8597L29.8609 59.2698C28.2547 60.876 28.2547 63.5857 29.8609 65.1918C30.664 65.9949 31.7682 66.3961 32.8723 66.3961C33.9765 66.3961 34.9806 65.9949 35.8838 65.1918L65.294 35.7817C66.8995 34.1755 66.8995 31.4651 65.1932 29.8597H65.1931Z" fill="url(#paint1_linear_322_15170)"/>
<path d="M41.0022 33.8758C41.0022 37.8122 37.8115 41.0029 33.8751 41.0029C29.9395 41.0029 26.748 37.8122 26.748 33.8758C26.748 29.9402 29.9395 26.7488 33.8751 26.7488C37.8115 26.7488 41.0022 29.9402 41.0022 33.8758Z" fill="url(#paint2_linear_322_15170)"/>
<path d="M68.3049 61.1808C68.3049 65.1164 65.1135 68.3079 61.1778 68.3079C57.2415 68.3079 54.0508 65.1164 54.0508 61.1808C54.0508 57.2444 57.2415 54.0537 61.1778 54.0537C65.1135 54.0537 68.3049 57.2444 68.3049 61.1808Z" fill="url(#paint3_linear_322_15170)"/>
<defs>
<linearGradient id="paint0_linear_322_15170" x1="94.4069" y1="7.12737" x2="-16.5498" y2="47.0467" gradientUnits="userSpaceOnUse">
<stop stop-color="#FAE6AF"/>
<stop offset="1" stop-color="#FFC47F"/>
</linearGradient>
<linearGradient id="paint1_linear_322_15170" x1="66.1632" y1="31.4804" x2="22.1035" y2="47.3669" gradientUnits="userSpaceOnUse">
<stop stop-color="#FAE6AF"/>
<stop offset="1" stop-color="#FFC47F"/>
</linearGradient>
<linearGradient id="paint2_linear_322_15170" x1="40.8806" y1="27.8159" x2="24.2701" y2="33.7911" gradientUnits="userSpaceOnUse">
<stop stop-color="#FAE6AF"/>
<stop offset="1" stop-color="#FFC47F"/>
</linearGradient>
<linearGradient id="paint3_linear_322_15170" x1="68.1833" y1="55.1208" x2="51.5728" y2="61.0961" gradientUnits="userSpaceOnUse">
<stop stop-color="#FAE6AF"/>
<stop offset="1" stop-color="#FFC47F"/>
</linearGradient>
</defs>
</svg>
