<svg width="120" height="95" viewBox="0 0 120 95" fill="none" xmlns="http://www.w3.org/2000/svg">
<path d="M113.612 0H6.08725C2.7307 0 0 2.7307 0 6.08725V88.9127C0 92.27 2.7307 95 6.08725 95H113.612C116.969 95 119.699 92.2693 119.699 88.9127V6.08725C119.699 2.7307 116.969 0 113.612 0V0ZM87.3036 8.80444C87.3036 7.7043 88.1987 6.80921 89.2989 6.80921C90.399 6.80921 91.2941 7.7043 91.2941 8.80444C91.2941 9.90459 90.399 10.799 89.2989 10.799C88.1987 10.799 87.3036 9.9039 87.3036 8.80444ZM98.1026 8.80444C98.1026 7.7043 98.9977 6.80921 100.098 6.80921C101.198 6.80921 102.093 7.7043 102.093 8.80444C102.093 9.90459 101.198 10.799 100.098 10.799C98.9977 10.799 98.1026 9.9039 98.1026 8.80444ZM108.9 8.80444C108.9 7.7043 109.795 6.80921 110.895 6.80921C111.995 6.80921 112.89 7.7043 112.89 8.80444C112.89 9.90459 111.995 10.799 110.895 10.799C109.795 10.799 108.9 9.9039 108.9 8.80444ZM113.612 93.1005H6.08691C3.77841 93.1005 1.89947 91.2223 1.89947 88.9131V17.6061H117.8V88.9131C117.8 91.2223 115.921 93.1005 113.613 93.1005H113.612Z" fill="url(#paint0_linear_322_15329)"/>
<path d="M42.2123 52.6629C42.583 52.2922 42.583 51.6903 42.2123 51.3196L30.3993 39.5066V22.8001C30.3993 22.2757 29.9738 21.8502 29.4494 21.8502C19.4967 21.8502 11.4004 29.9474 11.4004 39.8993C11.4004 44.0152 12.8232 48.0418 15.4062 51.2381C17.7901 54.1871 21.0672 56.326 24.7004 57.318V63.6496H16.1504C15.6261 63.6496 15.2006 64.0751 15.2006 64.5995C15.2006 65.1238 15.6261 65.5493 16.1504 65.5493H25.6503C26.1747 65.5493 26.6002 65.1238 26.6002 64.5995V57.7234C27.5427 57.8723 28.4966 57.9491 29.4504 57.9491C34.2711 57.9498 38.8039 56.0721 42.2133 52.6622L42.2123 52.6629Z" fill="url(#paint1_linear_322_15329)"/>
<path d="M43.7193 48.0771C43.905 48.2628 44.1481 48.3557 44.3913 48.3557C44.6344 48.3557 44.8776 48.2628 45.0632 48.0771C47.9656 45.1748 49.564 41.3167 49.564 37.2147C49.564 35.4006 49.25 33.635 48.6368 31.9578L50.787 29.4503H59.85C60.3743 29.4503 60.7998 29.0248 60.7998 28.5004C60.7998 27.9761 60.3743 27.5506 59.85 27.5506H50.3501C50.0729 27.5506 49.8097 27.6715 49.6287 27.8819L47.7831 30.0341C45.1406 25.0176 39.9619 21.8502 34.1999 21.8502C33.6755 21.8502 33.25 22.2757 33.25 22.8001V37.2142C33.25 37.466 33.3502 37.7078 33.5279 37.8861L43.7193 48.0771ZM35.15 23.7832C40.2552 24.1372 44.7113 27.3335 46.6684 32.1288C47.329 33.7393 47.6636 35.45 47.6636 37.2147C47.6636 40.4918 46.5 43.5904 44.3679 46.0392L35.15 36.8206L35.15 23.7832Z" fill="url(#paint2_linear_322_15329)"/>
<path d="M22.7994 68.4003H13.2995C12.7751 68.4003 12.3496 68.8258 12.3496 69.3502C12.3496 69.8745 12.7751 70.3 13.2995 70.3H22.7994C23.3237 70.3 23.7492 69.8745 23.7492 69.3502C23.7499 68.8258 23.3244 68.4003 22.7994 68.4003Z" fill="url(#paint3_linear_322_15329)"/>
<path d="M52.248 33.2498C52.248 33.7741 52.6735 34.1996 53.1979 34.1996H61.7479C62.2722 34.1996 62.6977 33.7741 62.6977 33.2498C62.6977 32.7254 62.2722 32.2999 61.7479 32.2999H53.1979C52.6735 32.2999 52.248 32.7248 52.248 33.2498Z" fill="url(#paint4_linear_322_15329)"/>
<path d="M106.399 54.1513H68.3997V24.7017C68.3997 24.1773 67.9742 23.7518 67.4499 23.7518C66.9255 23.7518 66.5 24.1773 66.5 24.7017V55.1021C66.5 55.6264 66.9255 56.0519 67.4499 56.0519H106.4C106.925 56.0519 107.35 55.6264 107.35 55.1021C107.35 54.5777 106.925 54.1522 106.4 54.1522L106.399 54.1513Z" fill="url(#paint5_linear_322_15329)"/>
<path d="M104.499 27.5505C102.927 27.5505 101.649 28.829 101.649 30.4007C101.649 30.9518 101.804 31.4781 102.091 31.9283L94.9603 41.0019C94.6684 40.9024 94.3604 40.8503 94.0491 40.8503C93.4694 40.8503 92.9096 41.0313 92.4387 41.354L86.33 36.9126C86.4075 36.6514 86.4489 36.3789 86.4489 36.1003C86.4489 34.5286 85.1704 33.2501 83.5987 33.2501C82.027 33.2501 80.7485 34.5286 80.7485 36.1003C80.7485 36.5752 80.8701 37.0368 81.0905 37.447L75.2011 43.9243C74.8551 43.7786 74.4817 43.6998 74.0983 43.6998C72.5265 43.6998 71.248 44.9783 71.248 46.55C71.248 48.1218 72.5265 49.4003 74.0983 49.4003C75.67 49.4003 76.9485 48.1218 76.9485 46.55C76.9485 46.0751 76.8269 45.6135 76.6065 45.2028L82.4959 38.7255C82.8419 38.8711 83.2153 38.9499 83.5987 38.9499C84.1785 38.9499 84.7383 38.7689 85.2092 38.4462L91.3178 42.8876C91.2403 43.1488 91.1989 43.4213 91.1989 43.6999C91.1989 45.2716 92.4774 46.5501 94.0491 46.5501C95.6209 46.5501 96.8994 45.2716 96.8994 43.6999C96.8994 43.1488 96.7437 42.6224 96.4572 42.1729L103.588 33.0986C103.88 33.1975 104.188 33.2502 104.499 33.2502C106.071 33.2502 107.349 31.9717 107.349 30.4C107.349 28.829 106.071 27.5505 104.499 27.5505V27.5505ZM74.0985 47.4993C73.5748 47.4993 73.1486 47.0732 73.1486 46.5495C73.1486 46.0258 73.5748 45.5996 74.0985 45.5996C74.3349 45.5996 74.562 45.6871 74.7384 45.8474C74.9388 46.0291 75.049 46.2783 75.049 46.5495C75.049 47.0732 74.6228 47.4993 74.0985 47.4993ZM82.9597 36.8024L82.959 36.8018C82.7586 36.6201 82.6484 36.3709 82.6484 36.0997C82.6484 35.576 83.0746 35.1499 83.5983 35.1499C84.1219 35.1499 84.5481 35.576 84.5481 36.0997C84.5481 36.3028 84.4853 36.4958 84.3691 36.6561C84.1861 36.9059 83.9049 37.0496 83.5989 37.0496C83.3618 37.0496 83.1354 36.9621 82.9597 36.8024V36.8024ZM94.0487 44.6498C93.525 44.6498 93.0988 44.2236 93.0988 43.6999C93.0988 43.4969 93.1616 43.3038 93.2778 43.1435C93.4615 42.893 93.7421 42.7494 94.0487 42.7494C94.3199 42.7494 94.5169 42.8596 94.6345 42.9525C94.6345 42.9525 94.6352 42.9525 94.6352 42.9531C94.8663 43.1342 94.9985 43.4067 94.9985 43.6993C94.9985 44.2236 94.5724 44.6498 94.0487 44.6498V44.6498ZM104.498 31.3492C104.228 31.3492 104.031 31.2397 103.912 31.1462C103.912 31.1462 103.912 31.1462 103.912 31.1455C103.681 30.9645 103.548 30.6926 103.548 30.3994C103.548 29.8757 103.975 29.4495 104.498 29.4495C105.022 29.4495 105.448 29.8757 105.448 30.3994C105.449 30.9237 105.023 31.3492 104.498 31.3492V31.3492Z" fill="url(#paint6_linear_322_15329)"/>
<path d="M97.8486 64.5989H50.3483C49.8239 64.5989 49.3984 65.0244 49.3984 65.5488C49.3984 66.0731 49.8239 66.4986 50.3483 66.4986H97.8486C98.373 66.4986 98.7985 66.0731 98.7985 65.5488C98.7985 65.0244 98.373 64.5989 97.8486 64.5989Z" fill="url(#paint7_linear_322_15329)"/>
<path d="M40.8496 73.1488C40.8496 73.6732 41.2751 74.0987 41.7995 74.0987H56.0492C56.5736 74.0987 56.9991 73.6732 56.9991 73.1488C56.9991 72.6245 56.5736 72.199 56.0492 72.199H41.7995C41.2744 72.199 40.8496 72.6245 40.8496 73.1488V73.1488Z" fill="url(#paint8_linear_322_15329)"/>
<path d="M97.849 72.1999H63.6491C63.1247 72.1999 62.6992 72.6254 62.6992 73.1497C62.6992 73.6741 63.1247 74.0996 63.6491 74.0996H97.849C98.3734 74.0996 98.7989 73.6741 98.7989 73.1497C98.7989 72.6254 98.3734 72.1999 97.849 72.1999Z" fill="url(#paint9_linear_322_15329)"/>
<path d="M97.8498 79.8008H41.7995C41.2751 79.8008 40.8496 80.2263 40.8496 80.7507C40.8496 81.275 41.2751 81.7005 41.7995 81.7005H97.8498C98.3741 81.7005 98.7996 81.275 98.7996 80.7507C98.7996 80.2263 98.3741 79.8008 97.8498 79.8008Z" fill="url(#paint10_linear_322_15329)"/>
<defs>
<linearGradient id="paint0_linear_322_15329" x1="118.678" y1="7.11194" x2="-12.0107" y2="66.3469" gradientUnits="userSpaceOnUse">
<stop stop-color="#FAE6AF"/>
<stop offset="1" stop-color="#FFC47F"/>
</linearGradient>
<linearGradient id="paint1_linear_322_15329" x1="42.2252" y1="25.1216" x2="3.82273" y2="34.9499" gradientUnits="userSpaceOnUse">
<stop stop-color="#FAE6AF"/>
<stop offset="1" stop-color="#FFC47F"/>
</linearGradient>
<linearGradient id="paint2_linear_322_15329" x1="60.5649" y1="23.8345" x2="28.7535" y2="35.7287" gradientUnits="userSpaceOnUse">
<stop stop-color="#FAE6AF"/>
<stop offset="1" stop-color="#FFC47F"/>
</linearGradient>
<linearGradient id="paint3_linear_322_15329" x1="23.652" y1="68.5425" x2="21.0011" y2="74.2649" gradientUnits="userSpaceOnUse">
<stop stop-color="#FAE6AF"/>
<stop offset="1" stop-color="#FFC47F"/>
</linearGradient>
<linearGradient id="paint4_linear_322_15329" x1="62.6086" y1="32.4421" x2="59.8107" y2="37.9785" gradientUnits="userSpaceOnUse">
<stop stop-color="#FAE6AF"/>
<stop offset="1" stop-color="#FFC47F"/>
</linearGradient>
<linearGradient id="paint5_linear_322_15329" x1="107.002" y1="26.1699" x2="62.458" y2="46.4349" gradientUnits="userSpaceOnUse">
<stop stop-color="#FAE6AF"/>
<stop offset="1" stop-color="#FFC47F"/>
</linearGradient>
<linearGradient id="paint6_linear_322_15329" x1="107.041" y1="29.1862" x2="71.931" y2="50.0539" gradientUnits="userSpaceOnUse">
<stop stop-color="#FAE6AF"/>
<stop offset="1" stop-color="#FFC47F"/>
</linearGradient>
<linearGradient id="paint7_linear_322_15329" x1="98.3772" y1="64.7412" x2="97.6426" y2="71.613" gradientUnits="userSpaceOnUse">
<stop stop-color="#FAE6AF"/>
<stop offset="1" stop-color="#FFC47F"/>
</linearGradient>
<linearGradient id="paint8_linear_322_15329" x1="56.8614" y1="72.3412" x2="54.8081" y2="78.6201" gradientUnits="userSpaceOnUse">
<stop stop-color="#FAE6AF"/>
<stop offset="1" stop-color="#FFC47F"/>
</linearGradient>
<linearGradient id="paint9_linear_322_15329" x1="98.491" y1="72.3421" x2="97.4956" y2="79.1469" gradientUnits="userSpaceOnUse">
<stop stop-color="#FAE6AF"/>
<stop offset="1" stop-color="#FFC47F"/>
</linearGradient>
<linearGradient id="paint10_linear_322_15329" x1="98.3055" y1="79.9431" x2="97.6773" y2="86.8362" gradientUnits="userSpaceOnUse">
<stop stop-color="#FAE6AF"/>
<stop offset="1" stop-color="#FFC47F"/>
</linearGradient>
</defs>
</svg>
