<svg width="111" height="91" viewBox="0 0 111 91" fill="none" xmlns="http://www.w3.org/2000/svg">
<path d="M91.6347 44.4076V89.6591C91.6347 90.2964 91.1187 90.8124 90.4814 90.8124C89.8441 90.8124 89.3281 90.2964 89.3281 89.6591V44.4076C89.3281 43.7703 89.8441 43.2534 90.4814 43.2534C91.1187 43.2534 91.6347 43.7703 91.6347 44.4076Z" fill="url(#paint0_linear_322_15501)"/>
<path d="M20.3105 72.6267V89.6587C20.3105 90.296 19.7945 90.812 19.1572 90.812C18.5199 90.812 18.0039 90.296 18.0039 89.6587V72.6267C18.0039 71.9894 18.5199 71.4734 19.1572 71.4734C19.7945 71.4734 20.3105 71.9894 20.3105 72.6267Z" fill="url(#paint1_linear_322_15501)"/>
<path d="M67.8582 59.5932V89.6612C67.8582 90.2985 67.3422 90.8145 66.705 90.8145C66.0677 90.8145 65.5508 90.2985 65.5508 89.6612V59.5932C65.5508 58.9559 66.0677 58.4399 66.705 58.4399C67.3423 58.4399 67.8582 58.9559 67.8582 59.5932Z" fill="url(#paint2_linear_322_15501)"/>
<path d="M79.7558 50.5324V89.6593C79.7558 90.2966 79.2398 90.8126 78.6025 90.8126C77.9652 90.8126 77.4492 90.2966 77.4492 89.6593V50.5324C77.4492 49.896 77.9652 49.3792 78.6025 49.3792C79.2398 49.3792 79.7558 49.896 79.7558 50.5324Z" fill="url(#paint3_linear_322_15501)"/>
<path d="M32.2039 62.2463V89.6587C32.2039 90.296 31.6871 90.812 31.0507 90.812C30.4134 90.812 29.8965 90.296 29.8965 89.6587V62.2463C29.8965 61.609 30.4134 61.093 31.0507 61.093C31.6871 61.093 32.2039 61.609 32.2039 62.2463Z" fill="url(#paint4_linear_322_15501)"/>
<path d="M55.9765 67.3066V89.6607C55.9765 90.298 55.4605 90.814 54.8232 90.814C54.1859 90.814 53.6699 90.298 53.6699 89.6607V67.3066C53.6699 66.6693 54.1859 66.1533 54.8232 66.1533C55.4605 66.1533 55.9765 66.6693 55.9765 67.3066Z" fill="url(#paint5_linear_322_15501)"/>
<path d="M44.0868 55.3247V89.6593C44.0868 90.2965 43.5699 90.8125 42.9326 90.8125C42.2962 90.8125 41.7793 90.2965 41.7793 89.6593V55.3247C41.7793 54.6874 42.2962 54.1714 42.9326 54.1714C43.5699 54.1714 44.0868 54.6874 44.0868 55.3247Z" fill="url(#paint6_linear_322_15501)"/>
<path d="M110.575 8.35764L106.722 32.582C106.558 33.5627 105.822 34.3495 104.854 34.5761C103.885 34.8036 102.876 34.4265 102.293 33.6202L96.7789 25.8916L57.9533 53.9225C57.0266 54.5864 55.7476 54.4368 54.9998 53.5765L43.7758 40.3336L3.51828 70.9024C3.13768 71.1945 2.67123 71.3529 2.1915 71.352C1.85516 71.3538 1.52237 71.275 1.22321 71.121C0.472641 70.7563 -0.00176245 69.9943 4.92116e-06 69.1605V54.7193C0.00266028 54.028 0.331908 53.3774 0.888653 52.9659L44.085 20.7181C45.0135 20.0278 46.3182 20.1729 47.0723 21.0518L58.2963 34.2947L86.7646 13.3939L80.2475 3.84284L80.2466 3.84196C79.6828 3.00642 79.6837 1.91244 80.251 1.07874C80.8175 0.244971 81.8354 -0.159508 82.8187 0.0582191L108.887 5.88397C110.012 6.13712 110.749 7.2187 110.572 8.35784L110.575 8.35764Z" fill="url(#paint7_linear_322_15501)"/>
<defs>
<linearGradient id="paint0_linear_322_15501" x1="91.615" y1="46.8138" x2="88.5803" y2="46.8667" gradientUnits="userSpaceOnUse">
<stop stop-color="#FAE6AF"/>
<stop offset="1" stop-color="#FFC47F"/>
</linearGradient>
<linearGradient id="paint1_linear_322_15501" x1="20.2908" y1="72.9211" x2="17.2607" y2="73.0511" gradientUnits="userSpaceOnUse">
<stop stop-color="#FAE6AF"/>
<stop offset="1" stop-color="#FFC47F"/>
</linearGradient>
<linearGradient id="paint2_linear_322_15501" x1="67.8386" y1="60.8636" x2="64.8037" y2="60.9414" gradientUnits="userSpaceOnUse">
<stop stop-color="#FAE6AF"/>
<stop offset="1" stop-color="#FFC47F"/>
</linearGradient>
<linearGradient id="paint3_linear_322_15501" x1="79.7361" y1="52.481" x2="76.7016" y2="52.5417" gradientUnits="userSpaceOnUse">
<stop stop-color="#FAE6AF"/>
<stop offset="1" stop-color="#FFC47F"/>
</linearGradient>
<linearGradient id="paint4_linear_322_15501" x1="32.1843" y1="63.3179" x2="29.1498" y2="63.4026" gradientUnits="userSpaceOnUse">
<stop stop-color="#FAE6AF"/>
<stop offset="1" stop-color="#FFC47F"/>
</linearGradient>
<linearGradient id="paint5_linear_322_15501" x1="55.9568" y1="67.9995" x2="52.9246" y2="68.1015" gradientUnits="userSpaceOnUse">
<stop stop-color="#FAE6AF"/>
<stop offset="1" stop-color="#FFC47F"/>
</linearGradient>
<linearGradient id="paint6_linear_322_15501" x1="44.0671" y1="56.9144" x2="41.0318" y2="56.9832" gradientUnits="userSpaceOnUse">
<stop stop-color="#FAE6AF"/>
<stop offset="1" stop-color="#FFC47F"/>
</linearGradient>
<linearGradient id="paint7_linear_322_15501" x1="109.655" y1="5.3416" x2="-1.38262" y2="67.2545" gradientUnits="userSpaceOnUse">
<stop stop-color="#FAE6AF"/>
<stop offset="1" stop-color="#FFC47F"/>
</linearGradient>
</defs>
</svg>
