<svg width="119" height="105" viewBox="0 0 119 105" fill="none" xmlns="http://www.w3.org/2000/svg">
<path d="M116.801 44.6974C117.897 45.5504 118.506 46.8893 118.506 48.229V59.4348H87.8139V43.8451C87.8139 41.4094 86.8395 39.0951 85.1345 37.2686C86.3528 36.6594 87.0834 36.1726 87.5701 36.0503C87.6916 35.9288 87.814 35.8065 87.814 35.685V32.2747C86.961 30.8135 86.4742 29.1083 86.2304 27.6463C85.7436 27.6463 85.0121 26.9157 84.2815 24.2361C83.307 20.9474 84.2815 20.2168 85.1344 20.2168H85.2559C84.6468 18.3903 84.5253 16.5628 85.0121 14.8576C85.4989 12.9087 86.5957 11.326 87.8132 9.98628C88.5438 9.1333 89.3968 8.40269 90.3713 7.91588C91.1019 7.42907 91.9549 6.94141 92.807 6.69758C93.5376 6.45375 94.2682 6.33226 94.9988 6.21077H95.9733C97.9222 6.21077 99.5049 6.81992 100.602 7.42907C102.551 8.52503 103.403 9.98719 103.403 9.98719C103.403 9.98719 108.397 10.3525 106.204 20.8269C106.934 21.0708 107.3 22.0452 106.569 24.7248C105.839 27.4043 105.108 28.1351 104.62 28.1351C104.499 28.1351 104.376 28.1351 104.255 28.0136C104.011 29.2319 103.646 30.4492 103.159 31.6676V35.5655C103.159 35.687 103.28 35.9308 103.403 35.9308C104.622 36.6598 110.956 39.9476 116.801 44.6976L116.801 44.6974ZM15.2243 36.0504C14.006 36.6596 7.55102 39.8259 1.70508 44.6983C0.609127 45.5513 0 46.8902 0 48.2299V59.435H30.6923V50.6658L30.6914 43.8455C30.6914 41.4098 31.6659 39.0955 33.3709 37.269C32.1526 36.6599 31.422 36.1731 30.9352 36.0507C30.8138 35.9292 30.6914 35.8069 30.6914 35.6854V31.7875C31.3006 30.5693 31.6659 29.2294 31.7874 28.1335C31.9089 28.255 32.0312 28.255 32.1527 28.255C32.6395 28.255 33.371 27.5243 34.1016 24.8447C34.8322 22.0437 34.4669 21.1907 33.7363 20.9469C35.9282 10.4725 30.9352 10.1071 30.9352 10.1071C30.9352 10.1071 30.2046 8.64584 28.1342 7.54899C27.0382 6.81835 25.4547 6.3307 23.5057 6.3307H22.5313C21.6783 6.3307 20.9477 6.57452 20.3394 6.8175C19.4864 7.18282 18.6343 7.54814 17.9037 8.0358C16.9293 8.64495 16.0771 9.37559 15.3456 10.1062C14.1273 11.3245 13.0313 12.9073 12.5445 14.9776C12.0577 16.6826 12.0577 18.5092 12.7884 20.3367H12.6669C11.8139 20.3367 10.9618 20.9459 11.8139 24.356C12.5445 26.9141 13.2752 27.6447 13.7628 27.7662C14.0066 29.2275 14.4934 30.9327 15.3464 32.3946V35.8049C15.467 35.9281 15.467 36.0504 15.2241 36.0504L15.2243 36.0504ZM83.673 94.1465L82.6985 84.0376C82.6985 83.6723 82.2117 83.5508 81.9679 83.7937L79.6535 86.1081L75.0251 81.6019C73.8068 83.307 72.2241 84.8905 70.5189 86.1081L75.0251 90.6143L72.7108 92.9286C72.467 93.1724 72.5893 93.6592 72.9546 93.6592L83.0636 94.6337C83.4289 94.756 83.6728 94.513 83.6728 94.1469L83.673 94.1465ZM33.1281 77.2171C33.372 77.4609 33.8588 77.2171 33.8588 76.8517V73.5631H40.3139C40.1924 72.5886 40.0701 71.4927 40.0701 70.3966C40.0701 69.3007 40.1916 68.3262 40.3139 67.2302H33.7365V63.9415C33.7365 63.5762 33.3712 63.3324 33.0059 63.5762L25.211 70.0313C24.9672 70.2751 24.9672 70.6405 25.211 70.8843L33.1281 77.2171ZM85.4999 63.5763C85.2561 63.3324 84.7692 63.5763 84.7692 63.9416V67.2303H78.3141C78.4356 68.2047 78.558 69.3007 78.558 70.3967C78.558 71.4927 78.4365 72.4671 78.3141 73.5632L84.8915 73.564V76.8527C84.8915 77.218 85.2568 77.4618 85.6221 77.218L93.417 70.7629C93.6608 70.5191 93.6608 70.1537 93.417 69.9099L85.4999 63.5763ZM35.564 94.7557L45.673 93.7813C46.0383 93.7813 46.1598 93.2945 45.9168 93.0506L43.4803 90.6149L47.9865 86.1088C46.2814 84.8905 44.6978 83.3077 43.4803 81.6026L38.9741 86.1088L36.6598 83.7944C36.4159 83.5506 35.9291 83.673 35.9291 84.0383L34.9547 94.1466C34.9547 94.5128 35.1985 94.7557 35.5638 94.7557H35.564ZM59.314 89.7628C58.2181 89.7628 57.2436 89.6413 56.1476 89.519V95.9741H52.8589C52.4936 95.9741 52.2497 96.3394 52.4936 96.7047L58.9487 104.5C59.1925 104.743 59.5578 104.743 59.8017 104.5L66.2568 96.7047C66.5006 96.4609 66.2568 95.9741 65.8915 95.9741H62.6028V89.519C61.3845 89.6405 60.4101 89.7628 59.3141 89.7628H59.314ZM67.5956 4.01927C67.5956 4.01927 66.865 2.558 64.6723 1.33979C63.454 0.609148 61.8713 0 59.801 0H58.8265C57.9735 0 57.2429 0.243829 56.5122 0.486809C55.5377 0.852129 54.6856 1.21745 53.9541 1.8266C52.9796 2.43574 52.1275 3.16638 51.2746 4.01847C50.0563 5.35825 48.8389 6.94176 48.3513 9.01227C47.8645 10.7174 47.8645 12.6663 48.5951 14.6153H48.4736C47.6207 14.6153 46.6471 15.3459 47.6207 18.7561C48.3513 21.4356 49.0819 22.1663 49.6911 22.2877C49.9349 23.8713 50.4217 25.5764 51.2746 27.159V30.6907C51.2746 30.8121 51.1532 31.056 51.0308 31.056C49.691 31.6651 43.1146 35.0752 37.0249 40.069C35.9289 40.922 35.3198 42.3833 35.3198 43.7231V59.3128H43.1146C46.6462 54.0761 52.6146 50.6649 59.3133 50.6649C66.0123 50.6649 71.9796 54.0752 75.512 59.3128H83.3069V50.5436L83.3078 43.8464C83.3078 42.3851 82.6986 41.0453 81.6027 40.1923C75.5129 35.1985 68.814 31.7883 67.4743 31.1793C67.3528 31.0578 67.2304 30.9355 67.2304 30.814V26.6732C67.8396 25.4549 68.2049 24.115 68.4487 22.8977C68.5702 23.0192 68.6926 23.0192 68.8141 23.0192C69.3009 23.0192 70.0323 22.2886 70.8845 19.4876C71.7374 16.5643 71.2498 15.5898 70.5191 15.3468C72.8335 4.38485 67.5958 4.01947 67.5958 4.01947L67.5956 4.01927ZM59.314 85.8654C50.7886 85.8654 43.8459 78.9226 43.8459 70.3972C43.8459 61.8718 50.7886 54.9291 59.314 54.9291C67.8394 54.9291 74.7822 61.8718 74.7822 70.3972C74.7822 78.9226 67.8394 85.8654 59.314 85.8654ZM49.205 64.7951H52.2499C52.8591 62.7247 53.8335 61.141 54.6856 59.8013C52.3713 60.7757 50.4232 62.6023 49.205 64.7951ZM51.7632 73.6859C51.6417 72.7114 51.5193 71.6155 51.5193 70.3972C51.5193 69.1789 51.6408 68.0829 51.7632 67.1085H48.2316C47.8662 68.2045 47.7447 69.3004 47.7447 70.3972C47.7447 71.4932 47.8662 72.5891 48.2316 73.6859H51.7632ZM54.6858 80.994C53.7113 79.6542 52.8592 78.0707 52.2501 76.0002H49.2053C50.4236 78.1921 52.3717 80.0194 54.6858 80.994ZM58.0961 76.0002H54.6858C55.6603 78.5583 57.0001 80.2635 58.0961 81.4808V76.0002ZM58.0961 67.1094H54.0768C53.833 68.0839 53.7115 69.1798 53.7115 70.3981C53.7115 71.6164 53.833 72.7124 54.0768 73.6868L58.0961 73.6859V67.1094ZM58.0961 59.3145C57.0001 60.4105 55.5379 62.2378 54.6858 64.7951H58.0961V59.3145ZM66.8653 67.1094C66.9868 68.0839 67.1091 69.1798 67.1091 70.3981C67.1091 71.6164 66.9876 72.7124 66.8653 73.6868H70.3969C70.7622 72.5908 70.8837 71.4949 70.8837 70.3981C70.8837 69.3021 70.7622 68.2062 70.3969 67.1094H66.8653ZM63.9427 59.8013C64.9171 61.1411 65.7692 62.7246 66.3783 64.7951H69.4232C68.2049 62.6023 66.2568 60.7759 63.9427 59.8013ZM60.5324 64.7951H63.9427C62.9682 62.237 61.6283 60.5318 60.5324 59.3145V64.7951ZM60.5324 73.6859H64.5516C64.7955 72.7114 64.9169 71.6155 64.9169 70.3972C64.9169 69.1789 64.7955 68.0829 64.5516 67.1085L60.5324 67.1094V73.6859ZM60.5324 81.4808C61.6283 80.3848 63.0905 78.5575 63.9427 76.0002H60.5324V81.4808ZM69.4232 76.0002H66.3783C65.7692 78.0706 64.7947 79.6543 63.9427 80.994C66.257 80.0195 68.205 78.1921 69.4232 76.0002Z" fill="url(#paint0_linear_585_7754)"/>
<defs>
<linearGradient id="paint0_linear_585_7754" x1="117.496" y1="7.8368" x2="-16.286" y2="62.3165" gradientUnits="userSpaceOnUse">
<stop stop-color="#FAE6AF"/>
<stop offset="1" stop-color="#FFC47F"/>
</linearGradient>
</defs>
</svg>
