<svg width="89" height="94" viewBox="0 0 89 94" fill="none" xmlns="http://www.w3.org/2000/svg">
<path d="M85.949 65.482L64.4901 82.4485C61.8015 84.5749 58.4676 85.7175 55.0404 85.6888L49.3893 85.6409L28.9497 85.4695C28.5704 85.4657 28.2132 85.2913 27.9785 84.9935L11.0818 63.6239C10.8759 63.3624 10.7811 63.03 10.8203 62.6996C10.8596 62.3682 11.0291 62.0674 11.2916 61.8615L19.9896 55.0322C22.636 52.9547 25.902 51.8235 29.2669 51.8206L30.9144 51.8187L35.4496 51.8139L55.2926 51.7947C57.53 51.7918 59.5988 52.9843 60.7196 54.921C61.8402 56.8577 61.8431 59.2446 60.7263 61.1841C59.6095 63.1227 57.5426 64.319 55.3052 64.321L44.6571 64.3315C42.9283 64.3334 41.5269 65.7366 41.5289 67.4664C41.5308 69.1962 42.934 70.5966 44.6638 70.5946L57.369 70.5822C58.4877 70.5812 59.5739 70.2057 60.4551 69.5152L78.1879 55.6212C79.9503 54.24 82.3141 53.9029 84.3917 54.7352C86.4702 55.5675 87.9471 57.4439 88.268 59.6593C88.589 61.8747 87.7058 64.094 85.9492 65.4818L85.949 65.482ZM6.16605 67.5049C5.96012 67.2443 5.65841 67.0767 5.32891 67.0374C4.99845 66.9991 4.66707 67.093 4.40654 67.2989L0.475752 70.4061V70.4071C-0.066359 70.8362 -0.159266 71.6235 0.269823 72.1666L16.7644 93.0276C17.1935 93.5697 17.9818 93.6626 18.5239 93.2336L22.4537 90.1254H22.4547C22.7152 89.9195 22.8828 89.6187 22.9221 89.2883C22.9604 88.9588 22.8665 88.6264 22.6606 88.3659L6.16605 67.5049ZM32.2577 22.0621C32.2577 16.2109 34.5823 10.599 38.7192 6.46223C42.8569 2.32449 48.4688 0 54.32 0C60.1712 0 65.7831 2.32461 69.9208 6.46223C74.0586 10.599 76.3823 16.2109 76.3823 22.0621C76.3823 27.9132 74.0577 33.5251 69.9208 37.6629C65.7831 41.8006 60.1712 44.1244 54.32 44.1244C48.4688 44.1244 42.8569 41.8007 38.7192 37.6629C34.5824 33.5251 32.2577 27.9132 32.2577 22.0621ZM56.1109 27.6288H56.11C56.0219 28.2811 55.4721 28.7715 54.8141 28.7849C53.5229 28.8969 52.3057 28.1728 51.7873 26.9861C51.0967 25.4019 49.2539 24.6759 47.6677 25.3645C46.0826 26.0532 45.3556 27.896 46.0423 29.4822C47.0921 31.8968 49.1225 33.7482 51.6236 34.572V35.0519C51.6216 35.8833 51.9511 36.6811 52.5383 37.2702C53.1264 37.8583 53.9232 38.1897 54.7546 38.1897C55.586 38.1897 56.3839 37.8583 56.971 37.2702C57.5591 36.6811 57.8877 35.8833 57.8867 35.0519V34.3738C60.2487 33.3422 61.9134 31.168 62.2927 28.6182C62.5752 26.9947 62.3291 25.3232 61.5887 23.8513C60.8493 22.3791 59.6558 21.1828 58.1846 20.4406L53.0911 17.8199C52.4828 17.5258 52.1601 16.8496 52.3133 16.1925C52.4024 15.5527 52.9349 15.0671 53.5805 15.0374C54.8735 14.9206 56.0948 15.6466 56.6092 16.8381C57.2998 18.4243 59.1456 19.1512 60.7325 18.4607C61.4939 18.1283 62.0926 17.5077 62.3972 16.7347C62.7008 15.9617 62.6855 15.0997 62.3541 14.3373C61.4681 12.3144 59.882 10.6775 57.8868 9.72927V8.57702C57.8887 7.74565 57.5592 6.9478 56.9711 6.35873C56.384 5.77064 55.5871 5.44019 54.7547 5.44019C53.9233 5.44019 53.1265 5.77064 52.5383 6.35873C51.9512 6.94777 51.6217 7.74563 51.6236 8.57702V9.0454C50.2338 9.41512 48.9801 10.1775 48.0109 11.2407C47.0416 12.3029 46.3989 13.6218 46.1575 15.0403C45.8385 16.6839 46.0627 18.3878 46.7964 19.8935C47.53 21.3992 48.733 22.6263 50.2243 23.3886L55.3178 26.0093C55.9126 26.3129 56.2354 26.9729 56.1099 27.629L56.1109 27.6288Z" fill="url(#paint0_linear_585_7753)"/>
<defs>
<linearGradient id="paint0_linear_585_7753" x1="87.5797" y1="6.9999" x2="-16.6403" y2="42.4174" gradientUnits="userSpaceOnUse">
<stop stop-color="#FAE6AF"/>
<stop offset="1" stop-color="#FFC47F"/>
</linearGradient>
</defs>
</svg>
