<svg width="73" height="102" viewBox="0 0 73 102" fill="none" xmlns="http://www.w3.org/2000/svg">
<path d="M71.9769 25.6606C71.4423 25.3612 70.8008 25.3612 70.2662 25.6606C66.9731 27.5637 63.4876 29.082 59.8738 30.194V6.20131C59.8738 2.77992 57.0939 0 53.6725 0H6.20131C2.77992 0 0 2.77992 0 6.20131V95.7985C0 99.2199 2.77992 102 6.20131 102H53.6725C57.0939 102 59.8738 99.2199 59.8738 95.7985V59.0607C63.4876 60.1727 66.9731 61.6909 70.2662 63.5941C70.5228 63.7438 70.8222 63.8294 71.1216 63.8294C71.4209 63.8294 71.7203 63.7438 71.9769 63.5941C72.5115 63.2948 72.8323 62.7174 72.8323 62.1187V27.1345C72.8323 26.5144 72.5115 25.9584 71.9769 25.659V25.6606ZM22.58 6.35107H37.7623C38.7032 6.35107 39.473 7.12088 39.473 8.06176C39.473 9.00264 38.7032 9.77245 37.7623 9.77245H22.58C21.6391 9.77245 20.8693 9.00264 20.8693 8.06176C20.8693 7.12088 21.6177 6.35107 22.58 6.35107V6.35107ZM35.1963 95.6707H25.146C24.2051 95.6707 23.4353 94.9009 23.4353 93.96C23.4353 93.0191 24.2051 92.2493 25.146 92.2493H35.1963C36.1371 92.2493 36.907 93.0191 36.907 93.96C36.907 94.9009 36.1371 95.6707 35.1963 95.6707ZM56.4518 31.1141C55.0833 31.4348 53.7147 31.6914 52.3034 31.9053C49.8656 32.2688 47.4065 32.4399 44.9474 32.4399H33.2291C32.2882 32.4399 31.5184 33.2097 31.5184 34.1505V35.6474H28.5461C23.5851 35.6474 19.5648 39.6889 19.5648 44.6286C19.5648 49.5896 23.6064 53.6099 28.5461 53.6099H31.5184V55.1067C31.5184 56.0476 32.2882 56.8174 33.2291 56.8174H36.6718V73.2828C36.6718 74.2237 37.4416 74.9935 38.3825 74.9935H47.1283C47.5774 74.9935 48.0264 74.8011 48.3472 74.4803C48.6679 74.1596 48.839 73.7105 48.839 73.2615L48.6465 56.9458C51.2767 57.1382 53.9068 57.5445 56.4729 58.1432V86.1771H3.44145V16.0387H56.4729V31.1141L56.4518 31.1141Z" fill="url(#paint0_linear_585_7758)"/>
<defs>
<linearGradient id="paint0_linear_585_7758" x1="72.2112" y1="7.63597" x2="-17.7114" y2="30.7334" gradientUnits="userSpaceOnUse">
<stop stop-color="#FAE6AF"/>
<stop offset="1" stop-color="#FFC47F"/>
</linearGradient>
</defs>
</svg>
