<svg width="119" height="117" viewBox="0 0 119 117" fill="none" xmlns="http://www.w3.org/2000/svg">
<path d="M73.9637 55.5654H71.4777C71.2288 54.5708 70.732 53.5763 70.2342 52.5818L71.9745 50.8415C72.3474 50.4686 72.3474 49.7229 71.9745 49.35L68.618 45.9935C68.2451 45.6206 67.4994 45.6206 67.1265 45.9935L65.3862 47.7337C64.5156 47.2369 63.5219 46.8632 62.4026 46.4903V44.0043C62.4026 43.3826 61.9057 42.8857 61.284 42.8857H56.56C55.9383 42.8857 55.4414 43.3826 55.4414 44.0043V46.4903C54.4468 46.7392 53.4523 47.236 52.4578 47.7337L50.7175 45.9935C50.3446 45.6206 49.5989 45.6206 49.226 45.9935L45.8694 49.35C45.4966 49.7229 45.4966 50.4686 45.8694 50.8415L47.6097 52.5818C47.1129 53.4524 46.7391 54.4461 46.3663 55.5654H43.8803C43.2586 55.5654 42.7617 56.0623 42.7617 56.684V61.408C42.7617 62.0297 43.2586 62.5266 43.8803 62.5266H46.3663C46.6151 63.5212 47.112 64.5157 47.6097 65.5102L45.8694 67.2505C45.4966 67.6234 45.4966 68.3691 45.8694 68.742L49.226 72.0985C49.5989 72.4714 50.3446 72.4714 50.7175 72.0985L52.4578 70.3583C53.3283 70.8551 54.322 71.2289 55.4414 71.6017V74.0877C55.4414 74.7094 55.9383 75.2063 56.56 75.2063H61.284C61.9057 75.2063 62.4026 74.7094 62.4026 74.0877V71.6017C63.3972 71.3529 64.3917 70.856 65.3862 70.3583L67.1265 72.0985C67.4994 72.4714 68.2451 72.4714 68.618 72.0985L71.9745 68.742C72.3474 68.3691 72.3474 67.6234 71.9745 67.2505L70.2342 65.5102C70.7311 64.6396 71.1048 63.6459 71.4777 62.5266H73.9637C74.5854 62.5266 75.0823 62.0297 75.0823 61.408V56.684C75.0823 56.0632 74.5854 55.5654 73.9637 55.5654ZM59.0467 64.6407C55.939 64.6407 53.453 62.1547 53.453 59.047C53.453 55.9392 55.939 53.4533 59.0467 53.4533C62.1545 53.4533 64.6405 55.9392 64.6405 59.047C64.6405 62.1547 62.1545 64.6407 59.0467 64.6407Z" fill="url(#paint0_linear_322_15679)"/>
<path d="M78.8114 34.3081C71.1044 28.2167 61.1595 26.1034 51.4633 28.3415C40.1509 30.9524 31.0765 39.9018 28.3417 51.2144C25.234 63.7695 29.5852 76.4493 39.7782 84.2808C40.5239 84.9025 41.0217 86.021 41.0217 87.2644V104.295C41.0217 107.775 43.8806 110.634 47.3612 110.634H51.3396C52.4582 113.991 55.4418 116.353 59.1713 116.353C62.9008 116.353 65.8836 113.867 67.003 110.634H70.9814C74.462 110.634 77.3209 107.775 77.3209 104.295L77.3201 87.1397C77.3201 86.0211 77.6929 85.0265 78.4387 84.4048C86.3945 78.3135 90.9937 69.115 90.9937 59.2943C90.8697 49.4743 86.3945 40.3999 78.8116 34.3081H78.8114ZM48.6042 102.927V95.717H69.4877V102.927H48.6042ZM73.5904 78.3137C70.9795 80.3028 69.3641 83.5347 69.3641 87.1401V88.1347H48.6044V87.2641C48.6044 83.6596 46.9881 80.303 44.3781 78.1897C36.6711 72.2231 33.3146 62.651 35.6767 52.9549C37.7889 44.5014 44.6261 37.7891 53.2036 35.7999C60.6627 34.0596 68.2455 35.6759 74.0872 40.2751C79.9298 44.8743 83.2863 51.7116 83.2863 59.1704C83.1623 66.7532 79.6818 73.7146 73.5902 78.3136L73.5904 78.3137Z" fill="url(#paint1_linear_322_15679)"/>
<path d="M59.0467 19.7647C61.1599 19.7647 62.9001 18.0244 62.9001 15.9113V3.85327C62.9001 1.74012 61.1598 -0.000106812 59.0467 -0.000106812C56.9337 -0.000106812 55.1934 1.74018 55.1934 3.85327V15.9113C55.1934 18.0244 56.9337 19.7647 59.0467 19.7647V19.7647Z" fill="url(#paint2_linear_322_15679)"/>
<path d="M31.3262 31.2019C32.8176 29.7104 32.8176 27.2236 31.3262 25.7321L22.7486 17.1545C21.2572 15.663 18.7703 15.663 17.2788 17.1545C15.7873 18.6459 15.7873 21.1328 17.2788 22.6243L25.8563 31.2019C26.6021 31.9476 27.5966 32.3205 28.5911 32.3205C29.5857 32.3205 30.5803 31.9476 31.326 31.2019H31.3262Z" fill="url(#paint3_linear_322_15679)"/>
<path d="M15.9114 55.1932H3.85337C1.74022 55.1932 0 56.9335 0 59.0466C0 61.1597 1.74029 62.8999 3.85337 62.8999H15.9114C18.0246 62.8999 19.7648 61.1597 19.7648 59.0466C19.7648 56.9335 18.0245 55.1932 15.9114 55.1932Z" fill="url(#paint4_linear_322_15679)"/>
<path d="M114.241 55.1931H102.183C100.07 55.1931 98.3301 56.9334 98.3301 59.0465C98.3301 61.1596 100.07 62.8999 102.183 62.8999H114.241C116.355 62.8999 118.095 61.1596 118.095 59.0465C118.095 56.9334 116.355 55.1931 114.241 55.1931Z" fill="url(#paint5_linear_322_15679)"/>
<path d="M100.814 17.2794C99.323 15.788 96.8361 15.788 95.3446 17.2794L86.767 25.8561C85.2756 27.3476 85.2756 29.8345 86.767 31.326C87.5127 32.0717 88.5073 32.4446 89.5018 32.4446C90.4964 32.4446 91.491 32.0717 92.2366 31.326L100.814 22.7484C102.306 21.133 102.306 18.7709 100.814 17.2794H100.814Z" fill="url(#paint6_linear_322_15679)"/>
<defs>
<linearGradient id="paint0_linear_322_15679" x1="74.8066" y1="45.3053" x2="37.143" y2="58.8539" gradientUnits="userSpaceOnUse">
<stop stop-color="#FAE6AF"/>
<stop offset="1" stop-color="#FFC47F"/>
</linearGradient>
<linearGradient id="paint1_linear_322_15679" x1="90.451" y1="34.1256" x2="11.9065" y2="54.3555" gradientUnits="userSpaceOnUse">
<stop stop-color="#FAE6AF"/>
<stop offset="1" stop-color="#FFC47F"/>
</linearGradient>
<linearGradient id="paint2_linear_322_15679" x1="62.8344" y1="1.47953" x2="52.8872" y2="2.87479" gradientUnits="userSpaceOnUse">
<stop stop-color="#FAE6AF"/>
<stop offset="1" stop-color="#FFC47F"/>
</linearGradient>
<linearGradient id="paint3_linear_322_15679" x1="32.3059" y1="17.255" x2="13.3292" y2="24.0814" gradientUnits="userSpaceOnUse">
<stop stop-color="#FAE6AF"/>
<stop offset="1" stop-color="#FFC47F"/>
</linearGradient>
<linearGradient id="paint4_linear_322_15679" x1="19.5962" y1="55.7701" x2="5.54372" y2="68.7343" gradientUnits="userSpaceOnUse">
<stop stop-color="#FAE6AF"/>
<stop offset="1" stop-color="#FFC47F"/>
</linearGradient>
<linearGradient id="paint5_linear_322_15679" x1="117.926" y1="55.7701" x2="103.874" y2="68.7342" gradientUnits="userSpaceOnUse">
<stop stop-color="#FAE6AF"/>
<stop offset="1" stop-color="#FFC47F"/>
</linearGradient>
<linearGradient id="paint6_linear_322_15679" x1="101.794" y1="17.3799" x2="82.8177" y2="24.2064" gradientUnits="userSpaceOnUse">
<stop stop-color="#FAE6AF"/>
<stop offset="1" stop-color="#FFC47F"/>
</linearGradient>
</defs>
</svg>
