<svg width="128" height="129" viewBox="0 0 128 129" fill="none" xmlns="http://www.w3.org/2000/svg">
<path d="M89.7527 43.4803C83.46 35.9031 73.9768 31.0684 63.3805 31.0684C52.8175 31.0684 43.3574 35.8729 37.0667 43.4102C36.6839 43.6998 36.3568 44.0753 36.1458 44.5439C36.1412 44.5586 36.1385 44.5695 36.133 44.5841C31.7314 50.3481 29.1094 57.5415 29.1094 65.3381C29.1094 73.4051 31.9159 80.8216 36.5954 86.6824C36.6529 86.7647 36.716 86.8396 36.7799 86.9154C43.0692 94.6545 52.6582 99.6097 63.3837 99.6097C73.912 99.6097 83.3402 94.8343 89.632 87.3429C89.6841 87.2835 89.737 87.2278 89.7864 87.163C94.6988 81.232 97.6534 73.6253 97.6534 65.3383C97.6534 57.2191 94.8113 49.7551 90.0715 43.8761C89.9765 43.7327 89.8687 43.6029 89.7536 43.4805L89.7527 43.4803ZM86.5196 81.6775C83.0909 80.2889 79.4136 79.2265 75.5665 78.4956C76.2462 75.2093 76.672 71.7889 76.8446 68.2945H91.5844C91.0691 73.2462 89.2575 77.8113 86.5195 81.6777L86.5196 81.6775ZM35.1713 68.2933H48.8058C48.9785 71.8024 49.4079 75.2393 50.0921 78.5337C46.5758 79.2198 43.21 80.1864 40.0473 81.4207C37.4124 77.6111 35.6765 73.1334 35.1713 68.2933V68.2933ZM39.9329 49.4057C43.0692 50.6381 46.412 51.612 49.9029 52.299C49.2808 55.5604 48.8916 58.9426 48.7646 62.3813H35.1722C35.6692 57.6069 37.3566 53.1814 39.9328 49.4057H39.9329ZM63.3793 36.9762C63.4871 36.9762 63.5894 36.9908 63.6963 36.9917C65.6395 40.0183 67.23 43.5384 68.427 47.393C66.6291 47.5474 64.8072 47.6406 62.961 47.6406C61.0224 47.6406 59.1092 47.5456 57.2272 47.3775C58.4176 43.5524 59.9917 40.0587 61.9167 37.0494C62.4037 37.0265 62.8842 36.9763 63.3794 36.9763L63.3793 36.9762ZM71.1011 38.0743C75.3839 39.2894 79.2457 41.4866 82.4524 44.4073C79.8907 45.3273 77.1873 46.0563 74.3735 46.5853C73.4937 43.5713 72.3992 40.7109 71.1011 38.0742V38.0743ZM54.7084 62.3814C54.8354 59.2294 55.1707 56.1361 55.7472 53.1714C58.1152 53.4172 60.5197 53.5524 62.961 53.5524C65.307 53.5524 67.6313 53.4373 69.9079 53.2071C70.4807 56.1616 70.8178 59.2432 70.9439 62.3821L54.7085 62.3831L54.7084 62.3814ZM70.9285 68.2922C70.7585 71.5071 70.3501 74.6481 69.7134 77.6446C67.4943 77.429 65.2414 77.3148 62.9592 77.3148C60.5874 77.3148 58.246 77.4381 55.9447 77.672C55.3042 74.6699 54.8959 71.5188 54.7214 68.2913H70.9285L70.9285 68.2922ZM51.2889 46.5452C48.7848 46.0646 46.3737 45.4151 44.0698 44.6239C46.9942 41.8969 50.4832 39.7791 54.3532 38.4754C53.15 40.9887 52.1204 43.6956 51.2889 46.5452V46.5452ZM51.5822 84.2699C52.4821 87.1487 53.5784 89.8701 54.8647 92.3862C50.8567 91.1209 47.2498 88.9676 44.226 86.1931C46.5739 85.3955 49.0305 84.7487 51.5822 84.27V84.2699ZM57.5159 83.4705C59.3065 83.3161 61.12 83.2284 62.959 83.2284C64.7067 83.2284 66.4351 83.3134 68.1373 83.4531C66.8647 87.2675 65.1865 90.7317 63.162 93.6844C62.929 93.6844 62.697 93.6588 62.464 93.6515C60.4523 90.7051 58.7867 87.261 57.5161 83.4705L57.5159 83.4705ZM74.0839 84.2315C76.9452 84.7514 79.6942 85.4795 82.3008 86.4022C79.0045 89.3659 75.0241 91.5604 70.6188 92.7251C71.9837 90.104 73.1421 87.251 74.0839 84.2316V84.2315ZM76.8842 62.382C76.7572 58.9569 76.3716 55.5885 75.7532 52.339C79.5757 51.6009 83.2228 50.5301 86.6285 49.1405C89.3072 52.9757 91.076 57.4907 91.584 62.382H76.8842Z" fill="url(#paint0_linear_585_7752)"/>
<path d="M121.239 65.2614C122.484 63.7375 123.235 61.7915 123.235 59.6728C123.235 54.7969 119.268 50.8301 114.39 50.8301C109.517 50.8301 105.55 54.7969 105.55 59.6728C105.55 61.7092 106.248 63.5793 107.409 65.0759C103.648 67.3654 101.125 71.4922 101.125 76.2097C101.125 77.8432 102.448 79.1643 104.08 79.1643C105.713 79.1643 107.036 77.8433 107.036 76.2097C107.036 72.2778 110.236 69.0755 114.172 69.0755C118.106 69.0755 121.308 72.2775 121.308 76.2097C121.308 77.8432 122.631 79.1643 124.265 79.1643C125.896 79.1643 127.219 77.8433 127.219 76.2097C127.218 71.6236 124.828 67.5892 121.239 65.2614H121.239ZM114.39 56.7402C116.006 56.7402 117.324 58.0567 117.324 59.6738C117.324 61.2899 116.007 62.6054 114.39 62.6054C112.777 62.6054 111.461 61.2899 111.461 59.6738C111.462 58.0567 112.777 56.7402 114.39 56.7402V56.7402Z" fill="url(#paint1_linear_585_7752)"/>
<path d="M54.5326 28.3368C56.1661 28.3368 57.4872 27.0158 57.4872 25.3822C57.4872 21.4474 60.6892 18.2461 64.6259 18.2461C68.5579 18.2461 71.762 21.4474 71.762 25.3822C71.762 27.0157 73.0831 28.3368 74.7166 28.3368C76.3502 28.3368 77.6731 27.0158 77.6731 25.3822C77.6731 20.7942 75.284 16.7579 71.6947 14.432C72.9399 12.9081 73.6909 10.9622 73.6909 8.84438C73.6909 3.96847 69.7241 0 64.8491 0C59.9732 0 56.0063 3.96683 56.0063 8.84438C56.0063 10.8799 56.7043 12.7509 57.8646 14.2456C54.1043 16.5387 51.5781 20.6644 51.5781 25.3813C51.5781 27.0148 52.901 28.3368 54.5327 28.3368H54.5326ZM64.8488 5.91177C66.4622 5.91177 67.7786 7.22825 67.7786 8.84532C67.7786 10.4605 66.4621 11.7751 64.8488 11.7751C63.2326 11.7751 61.9152 10.4596 61.9152 8.84532C61.9171 7.22916 63.2326 5.91177 64.8488 5.91177Z" fill="url(#paint2_linear_585_7752)"/>
<path d="M71.6919 115.094C72.9399 113.57 73.6909 111.625 73.6909 109.508C73.6909 104.631 69.724 100.664 64.8491 100.664C59.9731 100.664 56.0063 104.631 56.0063 109.508C56.0063 111.544 56.7043 113.416 57.8646 114.912C54.1043 117.203 51.5781 121.329 51.5781 126.045C51.5781 127.679 52.901 129 54.5327 129C56.1662 129 57.4873 127.679 57.4873 126.045C57.4873 122.113 60.6894 118.908 64.626 118.908C68.558 118.908 71.7621 122.113 71.7621 126.045C71.7621 127.679 73.0832 129 74.7167 129C76.3503 129 77.6732 127.679 77.6732 126.045C77.6732 121.455 75.2841 117.42 71.692 115.094H71.6919ZM64.8491 106.577C66.4625 106.577 67.7789 107.892 67.7789 109.508C67.7789 111.122 66.4624 112.437 64.8491 112.437C63.2329 112.437 61.9155 111.122 61.9155 109.508C61.9174 107.892 63.2329 106.577 64.8491 106.577Z" fill="url(#paint3_linear_585_7752)"/>
<path d="M20.1875 76.2117C20.1875 77.8452 21.5086 79.1663 23.1421 79.1663C24.7738 79.1663 26.0967 77.8452 26.0967 76.2117C26.0967 71.6237 23.7076 67.5902 20.1155 65.2633C21.3634 63.7395 22.1144 61.7935 22.1144 59.6748C22.1144 54.7989 18.1476 50.832 13.2717 50.832C8.39576 50.832 4.42729 54.7989 4.42729 59.6748C4.42729 61.7103 5.12528 63.5813 6.28644 65.076C2.52613 67.3673 0 71.4939 0 76.2117C0 77.8452 1.32104 79.1663 2.9546 79.1663C4.58628 79.1663 5.9092 77.8452 5.9092 76.2117C5.9092 72.2797 9.11124 69.0774 13.0479 69.0774C16.9855 69.0774 20.1875 72.2778 20.1875 76.2117H20.1875ZM13.2726 56.7403C14.8888 56.7403 16.2062 58.0568 16.2062 59.6738C16.2062 61.29 14.8897 62.6055 13.2726 62.6055C11.6565 62.6055 10.3391 61.2899 10.3391 59.6738C10.3391 58.0568 11.6556 56.7403 13.2726 56.7403Z" fill="url(#paint4_linear_585_7752)"/>
<path d="M47.0158 110.732C34.4092 106.189 24.176 96.499 18.9386 84.1466C18.3009 82.6428 16.5668 81.943 15.0657 82.578C13.562 83.2157 12.8612 84.9498 13.4953 86.4543C19.3715 100.316 30.8599 111.194 45.0105 116.293C45.3431 116.41 45.6811 116.467 46.0137 116.467C47.2242 116.467 48.3578 115.717 48.7929 114.514C49.3511 112.977 48.5535 111.284 47.0159 110.731L47.0158 110.732Z" fill="url(#paint5_linear_585_7752)"/>
<path d="M112.524 80.0117C110.993 79.4608 109.297 80.2474 108.739 81.7822C104.268 94.1039 94.8155 104.205 82.8037 109.499C81.3109 110.157 80.6321 111.903 81.2908 113.396C81.7768 114.504 82.8613 115.162 83.9968 115.162C84.3942 115.162 84.7998 115.079 85.1872 114.911C98.6673 108.968 109.274 97.6316 114.296 83.7983C114.85 82.2626 114.059 80.568 112.523 80.0107L112.524 80.0117Z" fill="url(#paint6_linear_585_7752)"/>
<path d="M81.2179 20.5053C91.7588 24.7032 100.528 32.5362 105.904 42.5547C106.437 43.5478 107.457 44.1133 108.51 44.1133C108.984 44.1133 109.462 44 109.908 43.7606C111.346 42.9877 111.884 41.1962 111.114 39.7583C105.078 28.5138 95.2378 19.727 83.4065 15.0115C81.8899 14.4067 80.1715 15.1485 79.5667 16.6642C78.9619 18.1789 79.7001 19.9001 81.2184 20.5049L81.2179 20.5053Z" fill="url(#paint7_linear_585_7752)"/>
<path d="M15.8326 46.0807C16.2428 46.2753 16.6731 46.3676 17.0989 46.3676C18.2043 46.3676 19.265 45.7427 19.7702 44.6774C25.2554 33.1233 35.3068 24.064 47.3493 19.8231C48.8896 19.2822 49.6963 17.5939 49.1555 16.0536C48.6146 14.5151 46.9236 13.702 45.3879 14.2484C31.8685 19.0064 20.5874 29.1736 14.4293 42.1432C13.7313 43.6177 14.3608 45.3791 15.8326 46.0807L15.8326 46.0807Z" fill="url(#paint8_linear_585_7752)"/>
<defs>
<linearGradient id="paint0_linear_585_7752" x1="97.0689" y1="36.1995" x2="17.1941" y2="64.9336" gradientUnits="userSpaceOnUse">
<stop stop-color="#FAE6AF"/>
<stop offset="1" stop-color="#FFC47F"/>
</linearGradient>
<linearGradient id="paint1_linear_585_7752" x1="126.997" y1="52.9513" x2="96.0502" y2="63.2035" gradientUnits="userSpaceOnUse">
<stop stop-color="#FAE6AF"/>
<stop offset="1" stop-color="#FFC47F"/>
</linearGradient>
<linearGradient id="paint2_linear_585_7752" x1="77.4506" y1="2.12137" x2="46.5028" y2="12.3733" gradientUnits="userSpaceOnUse">
<stop stop-color="#FAE6AF"/>
<stop offset="1" stop-color="#FFC47F"/>
</linearGradient>
<linearGradient id="paint3_linear_585_7752" x1="77.4507" y1="102.785" x2="46.503" y2="113.038" gradientUnits="userSpaceOnUse">
<stop stop-color="#FAE6AF"/>
<stop offset="1" stop-color="#FFC47F"/>
</linearGradient>
<linearGradient id="paint4_linear_585_7752" x1="25.8742" y1="52.9532" x2="-5.0747" y2="63.2071" gradientUnits="userSpaceOnUse">
<stop stop-color="#FAE6AF"/>
<stop offset="1" stop-color="#FFC47F"/>
</linearGradient>
<linearGradient id="paint5_linear_585_7752" x1="48.6665" y1="84.8983" x2="7.50245" y2="100.394" gradientUnits="userSpaceOnUse">
<stop stop-color="#FAE6AF"/>
<stop offset="1" stop-color="#FFC47F"/>
</linearGradient>
<linearGradient id="paint6_linear_585_7752" x1="114.188" y1="82.4805" x2="74.7558" y2="95.9055" gradientUnits="userSpaceOnUse">
<stop stop-color="#FAE6AF"/>
<stop offset="1" stop-color="#FFC47F"/>
</linearGradient>
<linearGradient id="paint7_linear_585_7752" x1="111.192" y1="16.9952" x2="74.6115" y2="31.4098" gradientUnits="userSpaceOnUse">
<stop stop-color="#FAE6AF"/>
<stop offset="1" stop-color="#FFC47F"/>
</linearGradient>
<linearGradient id="paint8_linear_585_7752" x1="49.0236" y1="16.4954" x2="8.88873" y2="32.2249" gradientUnits="userSpaceOnUse">
<stop stop-color="#FAE6AF"/>
<stop offset="1" stop-color="#FFC47F"/>
</linearGradient>
</defs>
</svg>
