<svg width="131" height="78" viewBox="0 0 131 78" fill="none" xmlns="http://www.w3.org/2000/svg">
<path d="M129.965 4.37179C127.063 1.98844 123.527 0.506391 119.793 0.10835C116.058 -0.289812 112.289 0.414773 108.949 2.13325L94.3752 9.64446C93.037 8.14352 91.2608 7.10029 89.2982 6.66157L62.8033 0.762864C61.1558 0.392134 59.4306 0.611543 57.9288 1.38235L3.90756 29.2258C2.20707 30.1026 0.925642 31.6186 0.342865 33.4401C-0.239718 35.2617 -0.0751741 37.2402 0.800613 38.9408L18.427 73.1326V73.1317C19.3028 74.8322 20.8189 76.1146 22.6403 76.6981C24.4628 77.2806 26.4413 77.1152 28.142 76.2394L82.1608 48.391C83.6598 47.6146 84.8391 46.3368 85.4938 44.7811L96.0581 19.7824C96.8393 17.9297 97.0209 15.8783 96.5773 13.9176L111.152 6.40643V6.40548C113.657 5.11451 116.486 4.58488 119.289 4.88373C122.092 5.18165 124.746 6.29481 126.924 8.08427C128.447 9.33554 130.746 8.27248 130.823 6.30433C130.854 5.5619 130.538 4.84784 129.967 4.37211L129.965 4.37179ZM91.5947 17.9483C80.131 45.034 81.006 43.574 79.9155 44.143L25.9354 71.9647C24.756 72.5728 23.3062 72.1094 22.698 70.93L5.07553 36.7309C4.7833 36.1654 4.72843 35.5052 4.92232 34.899C5.1162 34.2918 5.54369 33.7867 6.1102 33.4945L60.1314 5.65584C61.2162 5.09406 59.5536 4.95314 88.2437 11.3437C88.7733 11.4855 89.2717 11.7229 89.7153 12.0454L85.0148 14.4685H85.0139C83.3484 12.9014 81.0388 12.2176 78.7888 12.6243C76.5388 13.0319 74.6142 14.4818 73.6041 16.5333C72.5931 18.5846 72.6148 20.9935 73.6627 23.0259C74.7106 25.0583 76.6599 26.4731 78.9174 26.8402C81.175 27.2062 83.4714 26.4798 85.1084 24.8834C86.7455 23.286 87.5276 21.0076 87.2174 18.7426L91.9179 16.3195C91.9131 16.8775 91.8025 17.4298 91.5944 17.9481L91.5947 17.9483ZM81.2319 21.827C80.3674 22.2725 79.3205 22.1533 78.578 21.5253C77.8365 20.8973 77.5452 19.8835 77.8413 18.9576C78.1382 18.0317 78.9629 17.3754 79.9314 17.294C80.8999 17.2136 81.822 17.7243 82.2674 18.5879C82.5606 19.1553 82.6155 19.8145 82.4207 20.4227C82.2268 21.0298 81.7993 21.5349 81.2318 21.8271L81.2319 21.827Z" fill="url(#paint0_linear_322_15854)"/>
<path d="M63.4688 46.1833C63.2172 47.4922 61.9518 48.35 60.6438 48.0985L18.6122 40.0122C17.3013 39.7606 16.4426 38.4943 16.6941 37.1843C16.9457 35.8734 18.2112 35.0147 19.5221 35.2663L61.5537 43.3535H61.5527C62.1826 43.4745 62.7378 43.8415 63.0972 44.3721C63.4566 44.9026 63.5899 45.5543 63.4689 46.1832L63.4688 46.1833Z" fill="url(#paint1_linear_322_15854)"/>
<path d="M49.1121 32.9725C50.8126 32.0977 52.096 30.5816 52.6795 28.7602C53.263 26.9386 53.0994 24.9592 52.2227 23.2586C51.3469 21.5571 49.8318 20.2747 48.0093 19.6912C46.1868 19.1086 44.2083 19.2732 42.5077 20.1499C40.8072 21.0266 39.5248 22.5427 38.942 24.3652C38.3595 26.1876 38.5249 28.1662 39.4026 29.8668C40.2784 31.5654 41.7935 32.846 43.6143 33.4286C45.4349 34.0112 47.4116 33.8476 49.112 32.9727L49.1121 32.9725ZM44.7058 24.4304L44.7049 24.4313C45.5693 23.9859 46.6172 24.105 47.3587 24.7331C48.1011 25.3611 48.3915 26.3749 48.0955 27.3007C47.7994 28.2266 46.9747 28.883 46.0063 28.9634C45.0369 29.0447 44.1147 28.534 43.6693 27.6705C43.3761 27.1021 43.3194 26.441 43.5142 25.8319C43.7081 25.2229 44.1374 24.7169 44.7049 24.4237L44.7058 24.4304Z" fill="url(#paint2_linear_322_15854)"/>
<path d="M29.9463 48.2564C28.2468 49.1322 26.9644 50.6483 26.3816 52.4698C25.799 54.2922 25.9645 56.2708 26.8403 57.9704C27.717 59.6709 29.2321 60.9533 31.0546 61.5361C32.8761 62.1187 34.8546 61.9532 36.5553 61.0774C38.2548 60.2007 39.5372 58.6846 40.1199 56.8631C40.7025 55.0416 40.538 53.0631 39.6613 51.3624C38.7845 49.6629 37.2685 48.3805 35.447 47.7977C33.6254 47.2152 31.6469 47.3806 29.9463 48.2564V48.2564ZM34.3516 56.7986C33.4872 57.244 32.4402 57.1258 31.6968 56.4978C30.9544 55.8698 30.6631 54.856 30.9591 53.9302C31.2551 53.0043 32.0798 52.3469 33.0493 52.2665C34.0187 52.1852 34.9408 52.6959 35.3862 53.5604C35.6813 54.1279 35.7381 54.7899 35.5442 55.399C35.3503 56.009 34.9209 56.5159 34.3516 56.8082L34.3516 56.7986Z" fill="url(#paint3_linear_322_15854)"/>
<defs>
<linearGradient id="paint0_linear_322_15854" x1="129.709" y1="5.76746" x2="4.31853" y2="82.3634" gradientUnits="userSpaceOnUse">
<stop stop-color="#FAE6AF"/>
<stop offset="1" stop-color="#FFC47F"/>
</linearGradient>
<linearGradient id="paint1_linear_322_15854" x1="63.1128" y1="36.1897" x2="40.2907" y2="65.9675" gradientUnits="userSpaceOnUse">
<stop stop-color="#FAE6AF"/>
<stop offset="1" stop-color="#FFC47F"/>
</linearGradient>
<linearGradient id="paint2_linear_322_15854" x1="52.9003" y1="20.4282" x2="36.0922" y2="26.4746" gradientUnits="userSpaceOnUse">
<stop stop-color="#FAE6AF"/>
<stop offset="1" stop-color="#FFC47F"/>
</linearGradient>
<linearGradient id="paint3_linear_322_15854" x1="40.3398" y1="48.535" x2="23.5317" y2="54.5814" gradientUnits="userSpaceOnUse">
<stop stop-color="#FAE6AF"/>
<stop offset="1" stop-color="#FFC47F"/>
</linearGradient>
</defs>
</svg>
