<svg width="96" height="96" viewBox="0 0 96 96" fill="none" xmlns="http://www.w3.org/2000/svg">
<path d="M31.6013 50.4274C31.6013 53.4073 29.1857 55.8228 26.2059 55.8228C23.2261 55.8228 20.8105 53.4073 20.8105 50.4274C20.8105 47.4476 23.2261 45.0321 26.2059 45.0321C29.1857 45.0321 31.6013 47.4476 31.6013 50.4274Z" fill="url(#paint0_linear_322_15849)"/>
<path d="M75.5356 55.8236C71.7031 55.8291 67.9525 56.9337 64.7284 59.0052C61.5035 61.0766 58.9406 64.029 57.342 67.5125L42.2639 61.2301H42.2646C43.3244 58.1188 43.4497 54.766 42.6259 51.5838C41.8021 48.4023 40.0638 45.5318 37.6269 43.3263L45.3718 34.2905C50.7891 37.8779 57.6799 38.3962 63.5724 35.6593C69.4653 32.9224 73.5154 27.3234 74.2696 20.8702C75.0238 14.4171 72.3743 8.035 67.2714 4.0131C62.1685 -0.00862111 55.3438 -1.09315 49.2452 1.14814C43.1472 3.38891 38.6491 8.63488 37.365 15.004C36.0808 21.373 38.1949 27.9521 42.9488 32.3806L35.1703 41.4558L35.1697 41.4564C30.1624 38.2983 23.8627 38.0094 18.5879 40.6953L10.6029 27.719C11.9215 26.3419 12.5271 24.4315 12.2443 22.5459C11.9607 20.661 10.819 19.0128 9.15432 18.0845C7.48892 17.1561 5.48706 17.0515 3.73412 17.8016C1.98132 18.5518 0.675189 20.072 0.196874 21.9176C-0.281406 23.7634 0.122549 25.7267 1.29108 27.2332C2.45893 28.7403 4.25928 29.6212 6.1662 29.6177C6.778 29.6094 7.38497 29.5083 7.96723 29.319L15.9756 42.3326V42.3332C12.6669 44.8314 10.3896 48.4567 9.57765 52.5225C8.7649 56.5876 9.47304 60.8103 11.5672 64.3882C13.6621 67.9662 16.9969 70.6507 20.9395 71.9328L18.429 78.9466C16.4023 78.9645 14.5132 79.9734 13.3709 81.6478C12.2292 83.3221 11.9787 85.4493 12.7013 87.3424C13.4239 89.2363 15.028 90.6554 16.9948 91.1432C18.9624 91.6305 21.0433 91.124 22.5664 89.7875C24.09 88.4504 24.8621 86.4525 24.6336 84.4383C24.4051 82.4246 23.2056 80.6506 21.4219 79.6885L23.949 72.6126C27.328 73.0957 30.7744 72.5341 33.8252 71.0043C36.8765 69.4744 39.387 67.0486 41.0216 64.0515L56.2711 70.4055H56.2704C54.7385 75.8257 55.5595 81.6401 58.5318 86.4236C61.5041 91.2079 66.3531 94.5194 71.8908 95.5476C77.4287 96.575 83.1433 95.2234 87.6336 91.8245C92.1247 88.4255 94.9773 83.2923 95.4914 77.6836C96.0062 72.0749 94.1357 66.5088 90.3383 62.3488C86.5408 58.1895 81.1675 55.8206 75.5355 55.8235L75.5356 55.8236ZM40.0804 18.8269C40.0804 14.7384 41.7045 10.8178 44.5956 7.92674C47.4867 5.03571 51.4072 3.41155 55.4957 3.41155C59.5842 3.41155 63.5048 5.03568 66.3958 7.92674C69.2869 10.8178 70.911 14.7384 70.911 18.8269C70.911 22.9154 69.2869 26.836 66.3958 29.727C63.5048 32.618 59.5842 34.2422 55.4957 34.2422C51.4086 34.2374 47.4907 32.6119 44.6003 29.7222C41.7107 26.8319 40.0852 22.914 40.0804 18.8269ZM35.4558 66.1352V61.9896C35.4558 60.3545 34.8062 58.786 33.65 57.6292C32.4932 56.4731 30.9248 55.8234 29.2897 55.8234H23.1236C21.4884 55.8234 19.92 56.4731 18.7632 57.6292C17.6071 58.7861 16.9574 60.3545 16.9574 61.9896V66.1352C14.1483 63.6225 12.4822 60.0751 12.3425 56.3086C12.2028 52.5429 13.6012 48.8818 16.2163 46.1677C18.8313 43.4535 22.4373 41.9202 26.2066 41.9202C29.9759 41.9202 33.5818 43.4535 36.197 46.1677C38.8121 48.8818 40.2104 52.5431 40.0707 56.3086C39.931 60.0751 38.2649 63.6227 35.4558 66.1352ZM75.5356 92.8204C71.0384 92.8204 66.7255 91.0338 63.5453 87.8538C60.3652 84.6737 58.5788 80.3609 58.5788 75.8635C58.5788 71.3661 60.3654 67.0534 63.5453 63.8732C66.7255 60.6931 71.0382 58.9067 75.5356 58.9067C80.033 58.9067 84.3458 60.6933 87.5259 63.8732C90.7061 67.0534 92.4925 71.3661 92.4925 75.8635C92.4877 80.3595 90.699 84.6695 87.5203 87.8482C84.3416 91.0269 80.0314 92.8155 75.5356 92.8204Z" fill="url(#paint1_linear_322_15849)"/>
<path d="M64.744 15.744L58.5778 18.8271V15.744L52.4117 18.8271V9.57788H47.7871V28.0763H64.744V15.744Z" fill="url(#paint2_linear_322_15849)"/>
<path d="M66.2871 85.1123H84.7855V66.6139H66.2871V85.1123ZM72.4532 69.697H78.6194V75.8631L75.5363 74.3215L72.4532 75.8631V69.697Z" fill="url(#paint3_linear_322_15849)"/>
<defs>
<linearGradient id="paint0_linear_322_15849" x1="31.5092" y1="45.8399" x2="18.9346" y2="50.3633" gradientUnits="userSpaceOnUse">
<stop stop-color="#FAE6AF"/>
<stop offset="1" stop-color="#FFC47F"/>
</linearGradient>
<linearGradient id="paint1_linear_322_15849" x1="94.7602" y1="7.17811" x2="-16.6973" y2="47.1432" gradientUnits="userSpaceOnUse">
<stop stop-color="#FAE6AF"/>
<stop offset="1" stop-color="#FFC47F"/>
</linearGradient>
<linearGradient id="paint2_linear_322_15849" x1="64.5994" y1="10.9627" x2="44.4709" y2="17.6" gradientUnits="userSpaceOnUse">
<stop stop-color="#FAE6AF"/>
<stop offset="1" stop-color="#FFC47F"/>
</linearGradient>
<linearGradient id="paint3_linear_322_15849" x1="84.6277" y1="67.9987" x2="63.0713" y2="75.7531" gradientUnits="userSpaceOnUse">
<stop stop-color="#FAE6AF"/>
<stop offset="1" stop-color="#FFC47F"/>
</linearGradient>
</defs>
</svg>
