<svg width="73" height="96" viewBox="0 0 73 96" fill="none" xmlns="http://www.w3.org/2000/svg">
<path d="M34.9829 20.8365C34.9829 21.413 35.2711 21.8937 35.7518 22.086C35.9442 22.1819 36.2325 22.2784 36.4249 22.2784C36.7131 22.2784 37.0014 22.1826 37.2897 21.9902L51.1289 12.2837C51.5131 11.9955 51.7055 11.6107 51.7055 11.1307C51.7055 10.65 51.5131 10.2659 51.1289 9.97763L37.289 0.270001C36.8083 -0.0182621 36.2318 -0.114127 35.7511 0.174138C35.2705 0.462403 34.9822 0.943064 34.9822 1.42371V9.68873C15.569 10.4577 0 26.5071 0 46.1125C0 46.8814 0.673059 47.5538 1.4413 47.5538C2.21022 47.5538 2.8826 46.8808 2.8826 46.1125C2.8826 28.1409 17.2024 13.3407 34.9817 12.5719L34.9829 20.8365ZM37.8655 4.21048L47.7643 11.13L37.8655 18.0496V4.21048Z" fill="url(#paint0_linear_322_15859)"/>
<path d="M72.8488 48.9951C72.8488 48.2262 72.1757 47.5538 71.4075 47.5538C70.6385 47.5538 69.9662 48.2269 69.9662 48.9951C69.9662 66.9668 55.6464 81.7669 37.8671 82.5358V74.3665C37.8671 73.79 37.5788 73.3093 37.0982 73.1169C36.6175 72.8287 36.041 72.9245 35.5603 73.2128L21.7211 82.824C21.3369 83.1122 21.1445 83.497 21.1445 83.977C21.1445 84.4577 21.3369 84.8418 21.7211 85.1301L35.5603 94.8365C35.8486 95.0289 36.1369 95.1248 36.4251 95.1248C36.6175 95.1248 36.9058 95.0289 37.0982 94.9324C37.5789 94.6441 37.8671 94.1634 37.8671 93.6828V85.4178C57.2803 84.6502 72.8493 68.6008 72.8493 48.9957L72.8488 48.9951ZM34.9834 90.8969L25.0846 83.9773L34.9834 77.0578V90.8969Z" fill="url(#paint1_linear_322_15859)"/>
<path d="M44.3045 39.1924C44.3045 39.9613 44.9776 40.6337 45.7458 40.6337C46.5147 40.6337 47.1871 39.9606 47.1871 39.1924C47.1871 34.2912 43.1507 30.1584 37.8649 29.486V25.0648C37.8649 24.2959 37.1919 23.6235 36.4236 23.6235C35.6547 23.6235 34.9823 24.2966 34.9823 25.0648V29.486C29.6964 30.159 25.6602 34.1953 25.6602 39.1924C25.6602 44.0936 29.6966 48.2264 34.9823 48.8988V62.6415C31.3302 62.065 28.5433 59.2775 28.5433 55.9143C28.5433 55.1454 27.8702 54.473 27.102 54.473C26.3331 54.473 25.6607 55.1461 25.6607 55.9143C25.6607 60.8155 29.6971 64.9484 34.9829 65.6208V70.0419C34.9829 70.8109 35.6559 71.4832 36.4242 71.4832C37.1931 71.4832 37.8655 70.8102 37.8655 70.0419V65.6208C43.1514 64.9477 47.1877 60.9114 47.1877 55.9143C47.1877 51.0131 43.1513 46.8803 37.8655 46.2079L37.8648 32.4645C41.517 33.0417 44.3044 35.8286 44.3044 39.1924H44.3045ZM28.5426 39.1924C28.5426 35.8284 31.3293 33.0417 34.9817 32.4652V46.0162C31.3302 45.439 28.5426 42.5557 28.5426 39.1924V39.1924ZM44.3045 55.9143C44.3045 59.2783 41.5178 62.065 37.8655 62.6415L37.8648 49.0912C41.517 49.6677 44.3044 52.551 44.3044 55.9143H44.3045Z" fill="url(#paint2_linear_322_15859)"/>
<defs>
<linearGradient id="paint0_linear_322_15859" x1="51.2645" y1="3.56" x2="-7.75639" y2="26.6449" gradientUnits="userSpaceOnUse">
<stop stop-color="#FAE6AF"/>
<stop offset="1" stop-color="#FFC47F"/>
</linearGradient>
<linearGradient id="paint1_linear_322_15859" x1="72.4084" y1="51.1151" x2="13.3824" y2="74.1934" gradientUnits="userSpaceOnUse">
<stop stop-color="#FAE6AF"/>
<stop offset="1" stop-color="#FFC47F"/>
</linearGradient>
<linearGradient id="paint2_linear_322_15859" x1="47.0041" y1="27.2064" x2="19.3943" y2="31.6738" gradientUnits="userSpaceOnUse">
<stop stop-color="#FAE6AF"/>
<stop offset="1" stop-color="#FFC47F"/>
</linearGradient>
</defs>
</svg>
