<svg width="86" height="86" viewBox="0 0 86 86" fill="none" xmlns="http://www.w3.org/2000/svg">
<path d="M72.4072 12.0732V10.3234C72.4072 9.45666 71.5574 8.82385 70.6906 9.10671L69.5241 9.50683C62.1424 3.50796 52.9603 0.175245 43.446 0.00906588C6.90348 -0.724692 -14.0422 43.2498 10.9357 70.9943C6.16991 71.5607 3.53719 63.4791 2.93761 60.4467C2.82096 59.8302 2.28787 59.3969 1.65444 59.4138C1.03794 59.4138 0.504848 59.8635 0.388198 60.48C0.321712 60.9466 -1.66135 72.3446 4.02078 79.1264C8.63667 84.6417 17.4847 85.5918 24.066 80.9426C30.0811 83.8921 36.6964 85.3585 43.3793 85.2249C82.0045 84.6253 99.1005 37.8359 72.4066 12.0735L72.4072 12.0732ZM72.4072 15.7892C77.7229 21.6211 81.1554 28.92 82.2886 36.735C80.1056 34.7187 76.7733 32.9023 72.4072 31.4028V15.7892ZM66.6254 10.5236L61.7599 12.2232C59.7272 9.05725 57.4106 6.45764 54.9113 4.49149C59.1264 5.84115 63.0757 7.89074 66.6254 10.5235V10.5236ZM43.9962 2.62514C49.6783 3.10867 55.0273 6.77437 59.2431 13.1062L44.846 18.1385C43.8626 18.4552 43.6794 19.8713 44.5462 20.4214L50.6948 24.6203C50.1781 25.487 49.6286 26.3701 49.0616 27.2862C47.3621 27.1865 45.6624 27.1363 43.9791 27.1194L43.9962 2.62514ZM43.9962 29.7198C45.1458 29.7367 46.3292 29.77 47.5121 29.8196C46.3958 31.6025 45.2124 33.4357 43.9962 35.3016V29.7198ZM33.6312 41.3179V32.2196C33.6312 31.5034 33.0479 30.9202 32.3317 30.9202H26.0331C31.1157 30.1538 36.2477 29.7536 41.3967 29.7204V39.1685C40.9131 39.8847 40.4133 40.6015 39.9304 41.3178L33.6312 41.3179ZM38.1304 43.9169C36.6472 46.0166 35.1477 48.0825 33.6148 50.1157V43.9169H38.1304ZM9.08612 55.5312V33.5023H15.5515V41.3174C15.6851 42.267 16.2012 42.7003 17.3013 42.5341L19.8508 41.5846C20.0007 41.5344 20.1675 41.5344 20.3174 41.5846L22.8505 42.5341C23.5002 42.7843 24.4171 42.4839 24.6003 41.3174V33.5023H31.0657L31.0651 53.4485C30.5151 54.1484 29.9487 54.8483 29.3987 55.5313L9.08612 55.5312ZM27.2328 58.1138C25.4334 60.2299 23.6505 62.1627 21.9339 63.8793C21.2177 61.9966 20.6006 60.0799 20.0844 58.1138H27.2328ZM18.1345 39.4518V33.5033H22.0003V39.4518L20.3176 38.7689C20.1508 38.7024 19.9677 38.7024 19.8009 38.7689L18.1345 39.4518ZM19.5344 29.5207C22.8006 14.174 31.4654 3.52613 41.4301 2.65964V27.1208C33.5485 27.2036 26 28.0371 19.5344 29.5204V29.5207ZM30.5655 4.49319C24.0336 9.62526 18.9348 18.7899 16.7517 30.2216C15.9188 30.4549 15.1185 30.6882 14.3353 30.9215L7.80339 30.9209C7.08717 30.9209 6.50391 31.5042 6.50391 32.2204V34.2367C5.28723 34.9197 4.1545 35.7362 3.12106 36.6531C5.40394 21.5065 16.3015 9.07564 30.5654 4.4941L30.5655 4.49319ZM6.50351 37.2695V41.3185L2.87093 41.3191C3.40402 39.7362 4.88721 38.3697 6.50351 37.2695V37.2695ZM6.50351 43.9017V47.9675C4.88736 46.8675 3.40412 45.5015 2.85406 43.9017H6.50351ZM7.25299 61.2484C5.17018 57.2829 3.77034 53 3.12063 48.5841C4.15357 49.5004 5.28684 50.317 6.50348 51.0005V56.8325C6.50348 57.5487 7.08673 58.1319 7.78665 58.1319H17.4179C18.0514 60.7478 18.8843 63.2973 19.9009 65.7971C17.6681 67.8134 15.5685 69.3299 13.6857 70.2129C11.1859 67.4973 9.01969 64.4975 7.25299 61.2482V61.2484ZM26.5323 79.245C26.9657 78.9283 27.3821 78.6116 27.8155 78.2616C28.6653 79.1616 29.5815 79.9945 30.548 80.7608C29.1814 80.3281 27.8487 79.8282 26.5323 79.245V79.245ZM41.4123 82.5777C37.2962 82.2278 33.3308 80.1782 29.8149 76.6122C33.6806 73.263 37.63 69.0637 41.4123 64.5644V82.5777ZM27.1487 75.529C27.1155 75.546 27.0822 75.5792 27.049 75.6125C25.8323 76.6291 24.5498 77.5955 23.2164 78.4616C23.1994 78.4786 23.1831 78.4786 23.1499 78.4949C17.5004 82.6944 10.002 82.1443 6.00274 77.4789C3.65333 74.6629 2.83682 70.7469 2.65362 67.4474C6.96918 77.0619 14.3012 74.3294 22.0505 67.2643C23.9501 66.2646 33.1983 54.9167 33.298 54.7838C38.8803 47.7019 43.1626 41.1531 43.9955 39.9703C48.5111 33.2554 52.0106 27.4898 53.5434 24.9235C53.8933 24.3403 53.7265 23.5738 53.1602 23.1907L48.1279 19.7413L69.8225 12.1589V34.9042L68.9395 34.2544C68.9395 34.2544 68.9226 34.2544 68.9226 34.2375L64.0068 30.6219C63.4405 30.2055 62.6239 30.3222 62.2075 30.8885C62.1905 30.9217 62.1573 30.955 62.141 30.9882C54.0757 44.3022 39.029 65.5811 27.1474 75.5287L27.1487 75.529ZM67.2237 43.9194C67.1735 46.9524 66.8906 49.9683 66.4071 52.9511C61.4583 54.1678 55.4927 55.0508 48.6937 55.3839C51.7267 51.3349 54.5093 47.3858 56.8588 43.9194H67.2237ZM58.5921 41.3204C60.9082 37.8208 62.6743 35.038 63.6075 33.5223L66.8901 35.9387C67.0732 37.7217 67.1735 39.521 67.2068 41.321L58.5921 41.3204ZM43.9955 61.4321C44.8955 60.2988 45.7949 59.1825 46.6615 58.0493C53.327 57.8329 60.0088 57.0496 65.8913 55.7162C62.6915 70.7468 54.1603 81.7448 43.9955 82.5943V61.4321ZM54.6931 80.8445C61.3416 75.6791 66.4573 66.3477 68.6568 55.0325C74.522 53.4496 79.3712 51.2996 82.2875 48.6004C80.0712 63.7639 69.3398 76.3109 54.6931 80.8445V80.8445ZM69.1234 52.2164C69.5236 49.4669 69.7569 46.7011 69.8064 43.9184H82.4707C81.4039 46.9005 76.7052 49.9837 69.1235 52.2164H69.1234ZM69.7901 41.3188C69.7732 40.2025 69.7236 39.0861 69.6565 37.9697L70.3564 38.4865C71.1561 39.1199 72.4393 38.4695 72.4229 37.4535V34.1377C77.9719 36.1703 81.5712 38.7536 82.4875 41.3193L69.7901 41.3188Z" fill="url(#paint0_linear_322_16026)"/>
<path d="M15.5855 50.3656H13.0029C12.2867 50.3825 11.7198 50.9651 11.7367 51.682C11.7536 52.3819 12.303 52.9482 13.0029 52.9482H15.5855C17.2682 52.9482 17.2682 50.3656 15.5855 50.3656V50.3656Z" fill="url(#paint1_linear_322_16026)"/>
<defs>
<linearGradient id="paint0_linear_322_16026" x1="84.6007" y1="6.38078" x2="-14.8084" y2="42.1806" gradientUnits="userSpaceOnUse">
<stop stop-color="#FAE6AF"/>
<stop offset="1" stop-color="#FFC47F"/>
</linearGradient>
<linearGradient id="paint1_linear_322_16026" x1="16.804" y1="50.5589" x2="12.3397" y2="53.7371" gradientUnits="userSpaceOnUse">
<stop stop-color="#FAE6AF"/>
<stop offset="1" stop-color="#FFC47F"/>
</linearGradient>
</defs>
</svg>
