<svg width="62" height="89" viewBox="0 0 62 89" fill="none" xmlns="http://www.w3.org/2000/svg">
<path d="M30.535 0C13.6287 0.0718668 0 13.291 0 29.5531C0 34.9809 1.51602 40.0578 4.16823 44.4319V44.4312C4.18033 44.4531 4.19168 44.4758 4.20227 44.4985C4.24312 44.5621 4.27717 44.6301 4.30364 44.702L30.8414 88.9988L57.141 44.5006L57.175 44.4333H57.1743C57.1939 44.3864 57.2166 44.341 57.2424 44.2971C57.2552 44.2752 57.2635 44.2502 57.2764 44.2298C59.8545 39.901 61.3433 34.9006 61.3433 29.5553C61.3433 13.2474 47.6416 0.00215277 30.6708 0.00215277V0.00290927C30.6255 0.00593527 30.5801 0.00593527 30.5354 0.00290927L30.535 0ZM30.6704 5.7615C43.4809 5.7615 53.8191 15.736 53.8191 28.0968C53.8191 40.4556 43.4815 50.465 30.6704 50.465C17.8593 50.465 7.48884 40.4564 7.48884 28.0968C7.48884 15.7371 17.8597 5.7615 30.6704 5.7615ZM33.856 15.0134C33.8098 15.0482 33.775 15.0951 33.7546 15.1488C33.7372 15.1806 33.7259 15.2146 33.7206 15.251C33.7183 15.2729 33.7183 15.2956 33.7206 15.3183V21.6894L16.9444 27.4509V27.4517C16.9202 27.46 16.8975 27.4714 16.8764 27.485C16.812 27.5236 16.7636 27.5833 16.7409 27.6544C16.7402 27.6658 16.7402 27.6771 16.7409 27.6885C16.7266 27.7097 16.7152 27.7324 16.7069 27.7566V40.906C16.7122 40.9415 16.7235 40.9763 16.7409 41.0073C16.7493 41.0315 16.7606 41.0542 16.775 41.0754C16.7848 41.0875 16.7962 41.0989 16.8083 41.1095C16.8272 41.1352 16.8506 41.1579 16.8764 41.1768C16.9081 41.1942 16.9422 41.2055 16.9777 41.2108C16.9891 41.2116 17.0004 41.2116 17.0118 41.2108H34.0594C34.0708 41.2116 34.0821 41.2116 34.0935 41.2108C34.1041 41.2116 34.1154 41.2116 34.1268 41.2108H44.2941C44.3418 41.2101 44.3879 41.1987 44.4303 41.1768C44.4681 41.1617 44.5029 41.1382 44.5317 41.1095C44.5438 41.0989 44.5551 41.0875 44.5657 41.0754C44.5823 41.0437 44.5937 41.0096 44.599 40.9741C44.602 40.9514 44.602 40.9287 44.599 40.906V15.3191C44.6043 15.2601 44.5929 15.2011 44.5657 15.1496C44.5551 15.1375 44.5438 15.1262 44.5317 15.1156C44.5127 15.0899 44.49 15.0664 44.4636 15.0475C44.4114 15.0203 44.3531 15.0089 44.2941 15.0142H34.0255C34.0028 15.0112 33.9801 15.0112 33.9574 15.0142C33.9347 15.0112 33.912 15.0112 33.8901 15.0142C33.8787 15.0135 33.8674 15.0135 33.856 15.0142L33.856 15.0134ZM35.8554 17.2504H38.1596V19.318H35.8554V17.2504ZM40.2272 17.2504H42.5314V19.318H40.2272V17.2504ZM35.8554 20.8772H38.1596V22.9788H35.8554V20.8772ZM40.2272 20.8772H42.5314V22.9788H40.2272V20.8772ZM35.8554 24.537H38.1596V26.6046H35.8554V24.537ZM40.2272 24.537H42.5314V26.6046H40.2272V24.537ZM35.8554 28.1638H38.1596V30.2654H35.8554V28.1638ZM40.2272 28.1638H42.5314V30.2654H40.2272V28.1638ZM19.112 29.1805H21.4503V29.8583H19.112V29.1805ZM22.7718 29.1805H25.076V29.8583H22.7718V29.1805ZM26.4317 29.1805H28.7359V29.8583H26.4317V29.1805ZM30.0584 29.1805H32.3627V29.8583H30.0584V29.1805ZM35.854 31.8236H38.1582V33.9253H35.854V31.8236ZM40.2258 31.8236H42.53V33.9253H40.2258V31.8236ZM20.6018 31.8577H30.4644V33.0779H20.6018V31.8577ZM20.6018 33.9924H30.4644V35.28H20.6018V33.9924ZM20.6018 36.1954H30.4644V37.4497H20.6018V36.1954ZM20.6018 38.3642H30.4644V39.6518H20.6018V38.3642Z" fill="url(#paint0_linear_322_16024)"/>
<defs>
<linearGradient id="paint0_linear_322_16024" x1="60.8202" y1="6.66268" x2="-15.2386" y2="25.521" gradientUnits="userSpaceOnUse">
<stop stop-color="#FAE6AF"/>
<stop offset="1" stop-color="#FFC47F"/>
</linearGradient>
</defs>
</svg>
