<svg width="73" height="78" viewBox="0 0 73 78" fill="none" xmlns="http://www.w3.org/2000/svg">
<path d="M72.2249 42.1054C71.66 41.4875 70.8558 41.1334 70.0192 41.1334H68.8516C67.3067 41.1334 66.0347 42.297 65.892 43.8413C64.4898 59.0639 51.8852 70.5435 36.5745 70.5435C20.3395 70.5435 7.1318 57.3384 7.1318 41.1076C7.1318 26.2973 18.4161 13.6594 33.0068 11.8883V13.1378C33.0068 14.2764 33.6319 15.3131 34.6396 15.8444C35.646 16.3757 36.856 16.3063 37.7937 15.6634L45.1602 10.6255C45.9948 10.0546 46.493 9.11035 46.4923 8.09927C46.4923 7.08892 45.9948 6.1446 45.1602 5.57436L37.7937 0.535864C36.8553 -0.107088 35.6468 -0.176462 34.6396 0.354809C33.6319 0.88608 33.0068 1.92286 33.0068 3.0614V4.71669C13.6124 6.60589 -1.09625 23.7373 0.0642024 43.3212C1.13204 61.3488 15.5002 76.0625 33.4856 77.5478C34.5038 77.631 35.5155 77.6726 36.5205 77.6726C55.2637 77.672 71.3138 63.2966 72.9885 44.3579C73.0618 43.5378 72.7823 42.7165 72.2226 42.106L72.2249 42.1054Z" fill="url(#paint0_linear_322_16021)"/>
<path d="M16.5836 23.8337C15.8151 23.8337 15.1385 24.3524 14.9389 25.0958L11.5491 37.7241C11.411 38.2402 11.5187 38.7787 11.8431 39.2023C12.1689 39.6258 12.6612 39.869 13.1945 39.869H15.0559V50.0729C15.0559 52.1471 16.7436 53.834 18.8171 53.834H31.8821L57.0907 53.8347C59.165 53.8347 60.8518 52.147 60.8518 50.0735L60.8525 39.8697H64.8298C65.4041 39.8697 65.936 39.5822 66.2525 39.1025C66.569 38.6221 66.6219 38.0208 66.3953 37.4935L60.9734 24.8658C60.7045 24.2388 60.09 23.8343 59.408 23.8343L31.8837 23.8337H16.5836ZM16.0035 37.9746H13.4435L16.7304 25.7281H30.6473L27.3605 37.9746H16.0035ZM30.9354 51.9405H18.8178C17.7883 51.9405 16.9511 51.1033 16.9511 50.0738L16.9505 39.8699H28.0867C28.5149 39.8699 28.8909 39.5818 29.0019 39.1675L29.1519 38.6085C29.1519 38.6078 29.1526 38.6071 29.1526 38.6065L30.9354 31.9648L30.9354 51.9405ZM45.8937 49.6509H45.3922C44.8689 49.6509 44.4446 49.2273 44.4446 48.7033C44.4446 48.1799 44.8682 47.7557 45.3922 47.7557H45.8937C46.4171 47.7557 46.8413 48.1793 46.8413 48.7033C46.8407 49.2273 46.4171 49.6509 45.8937 49.6509ZM56.6685 46.7414C56.6685 48.3458 55.3635 49.6509 53.7591 49.6509H49.5076C48.9842 49.6509 48.56 49.2273 48.56 48.7033C48.56 48.1799 48.9835 47.7557 49.5076 47.7557H53.7591C54.3188 47.7557 54.7741 47.3004 54.7741 46.7407V43.1051C54.7741 42.5817 55.1976 42.1575 55.7217 42.1575C56.245 42.1575 56.6692 42.5811 56.6692 43.1051L56.6685 46.7414ZM59.2819 25.7281L64.5405 37.9746H38.5792L33.3213 25.7281H59.2819Z" fill="url(#paint1_linear_322_16021)"/>
<defs>
<linearGradient id="paint0_linear_322_16021" x1="72.3775" y1="5.81477" x2="-13.8435" y2="34.9648" gradientUnits="userSpaceOnUse">
<stop stop-color="#FAE6AF"/>
<stop offset="1" stop-color="#FFC47F"/>
</linearGradient>
<linearGradient id="paint1_linear_322_16021" x1="66.0648" y1="26.0796" x2="15.6023" y2="59.3849" gradientUnits="userSpaceOnUse">
<stop stop-color="#FAE6AF"/>
<stop offset="1" stop-color="#FFC47F"/>
</linearGradient>
</defs>
</svg>
