<svg width="62" height="84" viewBox="0 0 62 84" fill="none" xmlns="http://www.w3.org/2000/svg">
<path fill-rule="evenodd" clip-rule="evenodd" d="M27.9394 16.7883C26.5144 16.9199 25.1736 17.5429 24.1508 18.5625C22.9996 19.7162 22.3516 21.2809 22.3516 22.9098V24.5862C22.3516 26.2151 22.9995 27.7799 24.1508 28.9335C25.3046 30.0847 26.8692 30.7328 28.4982 30.7328H32.9684C33.1162 30.7328 33.2591 30.7914 33.3626 30.8974C33.4686 31.001 33.5272 31.1438 33.5272 31.2916V32.9679C33.5272 33.1157 33.4686 33.2585 33.3626 33.3621C33.2591 33.4681 33.1163 33.5267 32.9684 33.5267H25.1455C23.6032 33.5267 22.3516 34.7784 22.3516 36.3206C22.3516 37.8629 23.6032 39.1145 25.1455 39.1145H27.9394V41.9085C27.9394 43.4507 29.191 44.7024 30.7333 44.7024C32.2756 44.7024 33.5272 43.4507 33.5272 41.9085V39.0896C34.9523 38.958 36.2931 38.335 37.3158 37.3154C38.467 36.1617 39.1151 34.597 39.1151 32.9681V31.2917C39.1151 29.6628 38.4671 28.0981 37.3158 26.9444C36.162 25.7932 34.5974 25.1451 32.9684 25.1451H28.4982C28.3504 25.1451 28.2076 25.0865 28.104 24.9805C27.998 24.877 27.9394 24.7341 27.9394 24.5863V22.91C27.9394 22.7622 27.998 22.6194 28.104 22.5158C28.2076 22.4098 28.3504 22.3512 28.4982 22.3512H36.3211C37.8634 22.3512 39.1151 21.0996 39.1151 19.5573C39.1151 18.015 37.8634 16.7634 36.3211 16.7634H33.5272V13.9695C33.5272 12.4272 32.2756 11.1755 30.7333 11.1755C29.191 11.1755 27.9394 12.4272 27.9394 13.9695V16.7883Z" fill="url(#paint0_linear_322_16187)"/>
<path fill-rule="evenodd" clip-rule="evenodd" d="M61.4662 6.14662C61.4662 2.75209 58.7158 0 55.3196 0H6.14662C2.75033 0 0 2.75209 0 6.14662V76.3298C0 78.3697 1.01216 80.275 2.701 81.4175C4.3898 82.5631 6.53457 82.7926 8.42853 82.0355L16.5558 78.7858C16.6893 78.7327 16.8383 78.7327 16.9718 78.7858L28.4511 83.3764C29.9167 83.9633 31.5493 83.9633 33.0149 83.3764L44.4949 78.7858C44.6283 78.7327 44.7774 78.7327 44.9109 78.7858L53.0375 82.0355C54.9314 82.7926 57.0762 82.5631 58.765 81.4175C60.4538 80.2749 61.466 78.3697 61.466 76.3298L61.4662 6.14662ZM55.8783 6.14662V76.3298C55.8783 76.5144 55.7854 76.6878 55.6332 76.7913C55.478 76.8942 55.2852 76.9167 55.1119 76.8468L46.9846 73.5976C45.5191 73.0107 43.8864 73.0107 42.4208 73.5976L30.9415 78.1882C30.808 78.2412 30.659 78.2412 30.5255 78.1882L19.0455 73.5976C17.58 73.0107 15.9473 73.0107 14.4817 73.5976L6.35507 76.8468C6.18109 76.9167 5.98837 76.8942 5.83309 76.7913C5.68092 76.6878 5.58799 76.5144 5.58799 76.3298V6.14662C5.58799 5.83667 5.83932 5.58783 6.14678 5.58783H55.3197C55.6272 5.58783 55.8785 5.83667 55.8785 6.14662H55.8783Z" fill="url(#paint1_linear_322_16187)"/>
<path fill-rule="evenodd" clip-rule="evenodd" d="M16.7627 55.8777H44.7018C46.2441 55.8777 47.4958 54.626 47.4958 53.0838C47.4958 51.5415 46.2441 50.2899 44.7018 50.2899H16.7627C15.2204 50.2899 13.9688 51.5415 13.9688 53.0838C13.9688 54.626 15.2204 55.8777 16.7627 55.8777Z" fill="url(#paint2_linear_322_16187)"/>
<path fill-rule="evenodd" clip-rule="evenodd" d="M16.7627 67.0532H44.7018C46.2441 67.0532 47.4958 65.8016 47.4958 64.2593C47.4958 62.717 46.2441 61.4654 44.7018 61.4654H16.7627C15.2204 61.4654 13.9688 62.717 13.9688 64.2593C13.9688 65.8016 15.2204 67.0532 16.7627 67.0532Z" fill="url(#paint3_linear_322_16187)"/>
<defs>
<linearGradient id="paint0_linear_322_16187" x1="38.9721" y1="13.6854" x2="17.6009" y2="17.5293" gradientUnits="userSpaceOnUse">
<stop stop-color="#FAE6AF"/>
<stop offset="1" stop-color="#FFC47F"/>
</linearGradient>
<linearGradient id="paint1_linear_322_16187" x1="60.942" y1="6.27472" x2="-14.6909" y2="26.2268" gradientUnits="userSpaceOnUse">
<stop stop-color="#FAE6AF"/>
<stop offset="1" stop-color="#FFC47F"/>
</linearGradient>
<linearGradient id="paint2_linear_322_16187" x1="47.2098" y1="50.7082" x2="39.4118" y2="67.5392" gradientUnits="userSpaceOnUse">
<stop stop-color="#FAE6AF"/>
<stop offset="1" stop-color="#FFC47F"/>
</linearGradient>
<linearGradient id="paint3_linear_322_16187" x1="47.2098" y1="61.8837" x2="39.4118" y2="78.7147" gradientUnits="userSpaceOnUse">
<stop stop-color="#FAE6AF"/>
<stop offset="1" stop-color="#FFC47F"/>
</linearGradient>
</defs>
</svg>
