<svg width="70" height="65" viewBox="0 0 70 65" fill="none" xmlns="http://www.w3.org/2000/svg">
<path fill-rule="evenodd" clip-rule="evenodd" d="M2.28096 48.401H6.11537V32.9586H33.0618V16.3754H29.2273C27.7761 16.3754 26.5326 15.1317 26.5326 13.6806V2.6948C26.5326 1.24358 27.7762 0 29.2273 0H40.2131C41.6644 0 42.9079 1.24364 42.9079 2.6948V13.6806C42.9079 15.1318 41.6643 16.3754 40.2131 16.3754H36.3787V32.9586H63.3251V48.401H67.1595C68.6107 48.401 69.8543 49.6446 69.8543 51.0958V62.0816C69.8543 63.5328 68.6107 64.7764 67.1595 64.7764H56.1737C54.7225 64.7764 53.4789 63.5327 53.4789 62.0816V51.0958C53.4789 49.6446 54.7226 48.401 56.1737 48.401H60.0082V36.3786H36.5856V48.401H40.42C41.8713 48.401 43.1149 49.6446 43.1149 51.0958V62.0816C43.1149 63.5328 41.8712 64.7764 40.42 64.7764H29.4343C27.983 64.7764 26.7395 63.5327 26.7395 62.0816V51.0958C26.7395 49.6446 27.9831 48.401 29.4343 48.401H33.2687V36.3786H9.84617V48.401H13.6806C15.1318 48.401 16.3754 49.6446 16.3754 51.0958V62.0816C16.3754 63.5328 15.1317 64.7764 13.6806 64.7764H2.69479C1.24358 64.7764 0 63.5327 0 62.0816V51.0958C0 49.6446 1.24364 48.401 2.69479 48.401H2.28096Z" fill="url(#paint0_linear_322_16198)"/>
<defs>
<linearGradient id="paint0_linear_322_16198" x1="69.2586" y1="4.84932" x2="-10.652" y2="35.8486" gradientUnits="userSpaceOnUse">
<stop stop-color="#FAE6AF"/>
<stop offset="1" stop-color="#FFC47F"/>
</linearGradient>
</defs>
</svg>
