<svg width="78" height="94" viewBox="0 0 78 94" fill="none" xmlns="http://www.w3.org/2000/svg">
<path d="M16.7296 29.155H44.0254C45.4926 29.155 46.6671 27.9812 46.6671 26.5133C46.6671 25.0461 45.4933 23.8716 44.0254 23.8716L16.7296 23.8723C15.2624 23.8723 14.0879 25.0461 14.0879 26.514C14.0886 27.9812 15.2624 29.155 16.7296 29.155V29.155Z" fill="url(#paint0_linear_322_16192)"/>
<path d="M16.7296 44.4175H44.0254C45.4926 44.4175 46.6671 43.2437 46.6671 41.7758C46.6671 40.3086 45.4933 39.1341 44.0254 39.1341L16.7296 39.1348C15.2624 39.1348 14.0879 40.3086 14.0879 41.7765C14.0886 43.2438 15.2624 44.4175 16.7296 44.4175V44.4175Z" fill="url(#paint1_linear_322_16192)"/>
<path d="M30.3286 54.3951H16.7296C15.2624 54.3951 14.0879 55.5689 14.0879 57.0368C14.0879 58.504 15.2617 59.6785 16.7296 59.6785H30.3286C31.7958 59.6785 32.9703 58.5047 32.9703 57.0368C32.9703 55.5689 31.7965 54.3951 30.3286 54.3951Z" fill="url(#paint2_linear_322_16192)"/>
<path d="M60.7554 50.4826V9.19658C60.7554 6.94657 58.8964 4.99006 56.5489 4.99006H47.3523V2.64186C47.3523 1.17462 46.1785 0.00015828 44.7106 0.00015828C43.2434 0.00015828 42.0689 1.17396 42.0689 2.64186V4.99006L33.0682 4.98937V2.6417C33.0682 1.17447 31.8944 0 30.4265 0C28.9592 0 27.7848 1.1738 27.7848 2.6417V4.9899H18.6865V2.6417C18.6865 1.17447 17.5127 0 16.0448 0C14.5776 0 13.4031 1.1738 13.4031 2.6417V4.9899H4.20653C1.85833 4.9899 0 6.84892 0 9.19642V71.7125C0 73.9625 1.85903 75.9191 4.20653 75.9191H35.5135C37.5684 85.7025 46.1773 93.04 56.5479 93.04C68.3862 93.04 77.9736 83.4525 77.9736 71.6143C77.9749 61.1464 70.539 52.4388 60.7556 50.4821L60.7554 50.4826ZM5.2834 10.2728H13.3062V12.621C13.3062 14.0882 14.48 15.2627 15.9479 15.2627C17.4151 15.2627 18.5896 14.0889 18.5896 12.621L18.5889 10.2728H27.6871V12.621C27.6871 14.0882 28.8609 15.2627 30.3288 15.2627C31.7961 15.2627 32.9705 14.0889 32.9705 12.621V10.2728H42.0688V12.621C42.0688 14.0882 43.2426 15.2627 44.7105 15.2627C46.1777 15.2627 47.3522 14.0889 47.3522 12.621V10.2728H55.3749V50.0913C44.3195 50.5806 35.5146 59.3854 35.0254 70.4408L5.28377 70.4402L5.2834 10.2728ZM56.4507 87.6597C47.5476 87.6597 40.3084 80.4198 40.3084 71.5174C40.3084 62.6143 47.5483 55.3751 56.4507 55.3751C65.3538 55.3751 72.593 62.615 72.593 71.5174C72.5937 80.4198 65.3537 87.6597 56.4507 87.6597Z" fill="url(#paint3_linear_322_16192)"/>
<path d="M60.9512 65.2553L54.494 72.5928L51.3629 69.4618C50.2867 68.3856 48.6236 68.3856 47.645 69.4618C46.5688 70.538 46.5688 72.2012 47.645 73.1797L52.7326 78.2672C53.2219 78.7565 53.9064 79.05 54.5916 79.05H54.6892C55.472 79.05 56.1565 78.659 56.6457 78.1696L64.962 68.6797C65.9406 67.6035 65.8423 65.9404 64.7661 64.9618C63.593 64.0815 61.93 64.1791 60.9513 65.2553L60.9512 65.2553Z" fill="url(#paint4_linear_322_16192)"/>
<defs>
<linearGradient id="paint0_linear_322_16192" x1="46.3892" y1="24.2672" x2="39.1468" y2="40.3323" gradientUnits="userSpaceOnUse">
<stop stop-color="#FAE6AF"/>
<stop offset="1" stop-color="#FFC47F"/>
</linearGradient>
<linearGradient id="paint1_linear_322_16192" x1="46.3892" y1="39.5297" x2="39.1468" y2="55.5948" gradientUnits="userSpaceOnUse">
<stop stop-color="#FAE6AF"/>
<stop offset="1" stop-color="#FFC47F"/>
</linearGradient>
<linearGradient id="paint2_linear_322_16192" x1="32.8092" y1="54.7906" x2="23.4414" y2="66.8342" gradientUnits="userSpaceOnUse">
<stop stop-color="#FAE6AF"/>
<stop offset="1" stop-color="#FFC47F"/>
</linearGradient>
<linearGradient id="paint3_linear_322_16192" x1="77.3086" y1="6.96522" x2="-16.7634" y2="35.3254" gradientUnits="userSpaceOnUse">
<stop stop-color="#FAE6AF"/>
<stop offset="1" stop-color="#FFC47F"/>
</linearGradient>
<linearGradient id="paint4_linear_322_16192" x1="65.4782" y1="65.4667" x2="45.0655" y2="74.8693" gradientUnits="userSpaceOnUse">
<stop stop-color="#FAE6AF"/>
<stop offset="1" stop-color="#FFC47F"/>
</linearGradient>
</defs>
</svg>
