<svg width="66" height="66" viewBox="0 0 66 66" fill="none" xmlns="http://www.w3.org/2000/svg">
<path d="M48.2679 44.5528H53.572C55.0349 44.5528 56.2241 45.7429 56.2241 47.2048H58.3458C58.3458 44.5731 56.2037 42.4311 53.572 42.4311H51.9808V40.3094H49.8591V42.4311H48.2679C45.6362 42.4311 43.4941 44.5731 43.4941 47.2048C43.4941 49.8365 45.6362 51.9786 48.2679 51.9786H53.572C55.0349 51.9786 56.2241 53.1687 56.2241 54.6306C56.2241 56.0926 55.0349 57.2827 53.572 57.2827H48.2679C46.805 57.2827 45.6158 56.0926 45.6158 54.6306H43.4941C43.4941 57.2624 45.6362 59.4044 48.2679 59.4044H49.8591V61.526H51.9808V59.4044H53.572C56.2037 59.4044 58.3458 57.2624 58.3458 54.6306C58.3458 51.9989 56.2037 49.8569 53.572 49.8569H48.2679C46.805 49.8569 45.6158 48.6668 45.6158 47.2048C45.6158 45.7429 46.805 44.5528 48.2679 44.5528Z" fill="url(#paint0_linear_322_16359)"/>
<path d="M65.7714 32.8857C65.7714 14.7534 51.0192 0 32.8857 0C14.7522 0 0 14.7534 0 32.8857C0 34.6626 0.150602 36.4394 0.433801 38.1899H0V46.6765H4.24332V53.0415H6.36498V57.2848H2.12166V65.7714H33.9465V59.4065H38.1899V58.5303C40.788 62.8594 45.5138 65.7715 50.9198 65.7715C59.1095 65.7715 65.7714 59.1096 65.7714 50.9199C65.7714 48.3242 65.098 45.8843 63.9226 43.7584C65.1454 40.2704 65.7714 36.6167 65.7714 32.8858V32.8857ZM50.9198 36.0682C50.8763 36.0682 50.8351 36.0744 50.7915 36.0744C50.8426 35.3659 50.8763 34.657 50.8933 33.9465H63.6026C63.5155 36.5243 63.1177 39.0574 62.4007 41.5125C59.6756 38.1917 55.5418 36.0682 50.9196 36.0682L50.9198 36.0682ZM8.48664 38.1899V33.9466H10.6083V36.0682H12.73V33.9466H14.8516V36.0682H16.9733V33.9466H19.0949V36.0682H21.2166V33.9466H23.3383V36.0682H25.4599V33.9466H27.5816V36.0682H29.7032V33.9466H31.8249V36.0682H33.9465V33.9466H36.0682V38.1899H8.48664ZM33.9465 2.99093C35.5231 4.08776 38.0818 6.11608 40.6161 9.18497C42.5511 11.5273 44.6728 14.7544 46.2735 18.8991C42.9253 19.5854 38.8402 20.0817 33.9461 20.1456L33.9465 2.99093ZM31.8249 20.1461C26.9323 20.0826 22.8481 19.5872 19.5011 18.9006C22.9384 10.0597 28.9817 4.99705 31.8249 2.99906V20.1461ZM31.8249 22.2677V31.8256H16.9975C17.0984 27.7395 17.7666 24.1176 18.7882 20.9361C22.3165 21.6734 26.6341 22.2029 31.8249 22.2677V22.2677ZM14.8759 31.8256H2.14833C2.34013 26.2075 4.04316 20.9701 6.86569 16.5024C8.43038 17.4964 11.594 19.1682 16.7135 20.4592C15.6612 23.7913 14.9759 27.5715 14.8765 31.8253L14.8759 31.8256ZM33.9465 31.8256V22.2677C39.1404 22.2028 43.459 21.6724 46.9881 20.9365C47.994 24.0892 48.6707 27.714 48.7726 31.8271L38.1894 31.8266H33.9461L33.9465 31.8256ZM50.8956 31.8256C50.7956 27.5719 50.1104 23.7917 49.0581 20.461C54.1776 19.1701 57.3411 17.4982 58.9059 16.5042C61.7289 20.9716 63.4314 26.2089 63.6232 31.8274L50.8957 31.827L50.8956 31.8256ZM57.7062 14.7384C56.2698 15.6297 53.255 17.2039 48.3548 18.4267C45.2424 10.2317 39.9989 5.03718 36.6137 2.35541C45.2533 3.40486 52.7977 8.04412 57.7066 14.7386L57.7062 14.7384ZM29.1584 2.35638C25.7732 5.03682 20.5297 10.2331 17.4172 18.4276C12.5171 17.2034 9.50225 15.6302 8.06582 14.7394C12.974 8.04339 20.5181 3.40411 29.1588 2.35613L29.1584 2.35638ZM2.14785 33.9473H6.36461V38.1906H2.5883C2.34535 36.7902 2.19664 35.3718 2.14787 33.9473H2.14785ZM4.24296 44.5556H2.1213V40.3123H4.24296V42.4339H6.36461V40.3123H8.48627V42.4339H10.6079V40.3123H12.7296V42.4339H14.8513V40.3123H16.9729V42.4339H19.0946V40.3123H21.2162V42.4339H23.3379V40.3123H25.4595V42.4339H27.5812V40.3123H29.7029V44.5556H4.24296ZM6.36461 46.6772H8.48627V48.7989H10.6079V46.6772H12.7296V48.7989H14.8513V46.6772H16.9729V48.7989H19.0946V46.6772H21.2162V48.7989H23.3379V46.6772H25.4595V48.7989H27.5812V46.6772H29.7029V48.7989H31.8245V46.6772H33.9462V50.9206H6.36461V46.6772ZM31.8245 63.6505H4.24296V59.4072H6.36461V61.5288H8.48627V59.4072H10.6079V61.5288H12.7296V59.4072H14.8513V61.5288H16.9729V59.4072H19.0946V61.5288H21.2162V59.4072H23.3379V61.5288H25.4595V59.4072H27.5812V61.5288H29.7029V59.4072H31.8245V63.6505ZM36.0678 57.2855H8.48627V53.0422H10.6079V55.1639H12.7296V53.0422H14.8513V55.1639H16.9729V53.0422H19.0946V55.1639H21.2162V53.0422H23.3379V55.1639H25.4595V53.0422H27.5812V55.1639H29.7029V53.0422H31.8245V55.1639H33.9462V53.0422H36.0678V57.2855ZM31.8245 44.5556V40.3123H38.1895V33.9473H48.7713C48.7523 34.7206 48.7121 35.4916 48.6505 36.2607C41.5372 37.359 36.0672 43.5042 36.0672 50.9208V44.5558L31.8245 44.5556ZM50.9195 63.6505C43.9 63.6505 38.1895 57.94 38.1895 50.9206C38.1895 43.9011 43.9 38.1906 50.9195 38.1906C57.9389 38.1906 63.6494 43.9011 63.6494 50.9206C63.6494 57.94 57.9389 63.6505 50.9195 63.6505Z" fill="url(#paint1_linear_322_16359)"/>
<defs>
<linearGradient id="paint0_linear_322_16359" x1="58.2191" y1="41.8978" x2="39.8382" y2="46.5262" gradientUnits="userSpaceOnUse">
<stop stop-color="#FAE6AF"/>
<stop offset="1" stop-color="#FFC47F"/>
</linearGradient>
<linearGradient id="paint1_linear_322_16359" x1="65.2105" y1="4.92382" x2="-11.434" y2="32.4948" gradientUnits="userSpaceOnUse">
<stop stop-color="#FAE6AF"/>
<stop offset="1" stop-color="#FFC47F"/>
</linearGradient>
</defs>
</svg>
