<svg width="58" height="74" viewBox="0 0 58 74" fill="none" xmlns="http://www.w3.org/2000/svg">
<path d="M55.3925 8.2066C53.2218 8.2066 51.1253 8.31719 49.152 8.42435C47.4738 8.51434 45.894 8.605 44.4376 8.605C39.1437 8.60432 36.9283 7.68936 36.9283 2.05181C36.9283 0.919093 36.0092 0 34.8765 0H22.5671C21.4344 0 20.5153 0.919093 20.5153 2.05181C20.5153 7.68936 18.2992 8.6043 13.0067 8.6043C11.5497 8.6043 9.96643 8.51843 8.29234 8.42365C6.31879 8.31718 4.22583 8.20658 2.0511 8.20658C0.919076 8.20658 0 9.12567 0 10.2577V43.0834C0 60.042 26.6957 73.1027 27.8316 73.6513C28.1147 73.7866 28.4183 73.8567 28.7219 73.8567C29.0255 73.8567 29.3291 73.7866 29.6121 73.6513C30.7489 73.1018 57.4438 60.0415 57.4438 43.0834V10.2577C57.4438 9.12566 56.5247 8.20658 55.3927 8.20658L55.3925 8.2066ZM53.3407 43.0828C53.3407 55.9176 33.2394 67.1442 28.7218 69.5023C24.2041 67.1428 4.10291 55.9125 4.10291 43.0828V12.3426C5.46917 12.3838 6.79499 12.4532 8.06638 12.5232C9.82698 12.6173 11.4803 12.7073 13.0067 12.7073C18.3001 12.7073 23.7032 11.6282 24.5158 4.10302H32.9311C33.7437 11.6281 39.1477 12.7073 44.4402 12.7073C45.9666 12.7073 47.62 12.6215 49.3763 12.5225C50.6485 12.4532 51.9742 12.3838 53.3405 12.3426L53.3407 43.0828Z" fill="url(#paint0_linear_322_16362)"/>
<path d="M39.3235 21.4308L24.298 43.9658L17.8604 37.5322C17.0601 36.732 15.7599 36.732 14.9596 37.5322C14.1593 38.3325 14.1593 39.6327 14.9596 40.433L23.1661 48.6396C23.5556 49.0242 24.0763 49.2379 24.6182 49.2379C24.6842 49.2379 24.7535 49.2337 24.8195 49.2296C25.4308 49.1637 25.9845 48.836 26.3252 48.3229L42.7375 23.704C43.3654 22.7643 43.1112 21.488 42.1674 20.8602C41.2195 20.233 39.9514 20.4831 39.3236 21.431L39.3235 21.4308Z" fill="url(#paint1_linear_322_16362)"/>
<defs>
<linearGradient id="paint0_linear_322_16362" x1="56.9539" y1="5.5291" x2="-13.16" y2="25.1459" gradientUnits="userSpaceOnUse">
<stop stop-color="#FAE6AF"/>
<stop offset="1" stop-color="#FFC47F"/>
</linearGradient>
<linearGradient id="paint1_linear_322_16362" x1="42.837" y1="22.6655" x2="9.3661" y2="34.7058" gradientUnits="userSpaceOnUse">
<stop stop-color="#FAE6AF"/>
<stop offset="1" stop-color="#FFC47F"/>
</linearGradient>
</defs>
</svg>
