<svg width="83" height="96" viewBox="0 0 83 96" fill="none" xmlns="http://www.w3.org/2000/svg">
<path d="M35.1055 3.67426L41.449 7.32521L47.7926 3.67426L41.449 0L35.1055 3.67426Z" fill="url(#paint0_linear_322_16365)"/>
<path d="M34.4004 12.2217L40.7322 15.8844V8.54744L34.4004 4.89648V12.2217Z" fill="url(#paint1_linear_322_16365)"/>
<path d="M48.4978 12.2217V4.89648L42.166 8.54744V15.8844L48.4978 12.2217Z" fill="url(#paint2_linear_322_16365)"/>
<path d="M0 31.2617L6.32003 27.6107V20.2861L0 23.9362V31.2617Z" fill="url(#paint3_linear_322_16365)"/>
<path d="M14.0864 23.9377L7.73047 20.2876V27.6122L14.0864 31.2631V23.9377Z" fill="url(#paint4_linear_322_16365)"/>
<path d="M7.03886 28.8318L0.695312 32.4827L7.03886 36.157L13.3824 32.4827L7.03886 28.8318Z" fill="url(#paint5_linear_322_16365)"/>
<path d="M13.3824 63.2796L7.03886 59.6053L0.695312 63.2796L7.03886 66.9306L13.3824 63.2796Z" fill="url(#paint6_linear_322_16365)"/>
<path d="M14.0864 64.5018L7.73047 68.1645V75.4891L14.0864 71.8149V64.5018Z" fill="url(#paint7_linear_322_16365)"/>
<path d="M0 71.8134L6.32003 75.4877V68.1631L0 64.5004V71.8134Z" fill="url(#paint8_linear_322_16365)"/>
<path d="M48.4978 83.543L42.166 79.8929V87.2058L48.4978 90.8685V83.543Z" fill="url(#paint9_linear_322_16365)"/>
<path d="M34.4004 83.5433V90.8685L40.7322 87.2058V79.8929L34.4004 83.5433Z" fill="url(#paint10_linear_322_16365)"/>
<path d="M47.7926 92.1006L41.449 88.4255L35.1055 92.1006L41.449 95.7507L47.7926 92.1006Z" fill="url(#paint11_linear_322_16365)"/>
<path d="M82.2027 63.2796L75.8592 59.6053L69.5156 63.2796L75.8592 66.9306L82.2027 63.2796Z" fill="url(#paint12_linear_322_16365)"/>
<path d="M82.8982 64.5018L76.5781 68.1645V75.4891L82.8982 71.8149V64.5018Z" fill="url(#paint13_linear_322_16365)"/>
<path d="M68.8105 71.8134L75.1665 75.4877V68.1631L68.8105 64.5004V71.8134Z" fill="url(#paint14_linear_322_16365)"/>
<path d="M82.8982 23.9377L76.5781 20.2876V27.6122L82.8982 31.2631V23.9377Z" fill="url(#paint15_linear_322_16365)"/>
<path d="M68.8105 31.2617L75.1665 27.6107V20.2861L68.8105 23.9362V31.2617Z" fill="url(#paint16_linear_322_16365)"/>
<path d="M75.8592 28.8318L69.5156 32.4827L75.8592 36.157L82.2027 32.4827L75.8592 28.8318Z" fill="url(#paint17_linear_322_16365)"/>
<path d="M54.9148 66.5965L60.1328 61.3658L57.6433 56.5427C58.206 55.5016 58.6368 54.4121 59.02 53.2517L64.2021 51.6003V44.2157L59.02 42.5401C58.661 41.3912 58.206 40.3016 57.6433 39.2606L60.1328 34.4375L54.9148 29.2069L50.0917 31.7082C49.0381 31.1221 47.9495 30.6904 46.8007 30.3314L45.1493 25.1493H37.7647L36.1132 30.3314C34.9402 30.6904 33.8389 31.1212 32.8222 31.7082L27.9991 29.2069L22.7685 34.4375L25.2698 39.2606C24.7071 40.3017 24.2521 41.3912 23.8931 42.5401L18.7109 44.2157V51.6003L23.8931 53.2517C24.2521 54.4247 24.7071 55.5143 25.2698 56.5427L22.7685 61.3658L27.9991 66.5965L32.8348 64.0952C33.8759 64.6453 34.9655 65.1129 36.1143 65.4719L37.7657 70.6307H45.1504L46.8018 65.4719C47.9506 65.1129 49.0402 64.6462 50.0813 64.0952L54.9148 66.5965ZM41.4497 59.8697C34.8433 59.8697 29.469 54.5072 29.469 47.8766C29.469 41.2701 34.8315 35.8959 41.4497 35.8959C48.0688 35.8959 53.4304 41.2701 53.4304 47.8766C53.4304 54.5072 48.0562 59.8697 41.4497 59.8697Z" fill="url(#paint18_linear_322_16365)"/>
<path d="M6.0918 37.6885H7.97114V58.1074H6.0918V37.6885Z" fill="url(#paint19_linear_322_16365)"/>
<path d="M14.9375 22.3688L32.6163 12.1514L33.5564 13.7786L15.8776 23.996L14.9375 22.3688Z" fill="url(#paint20_linear_322_16365)"/>
<path d="M49.3516 13.7902L50.2916 12.163L67.9704 22.3804L67.0303 24.0076L49.3516 13.7902Z" fill="url(#paint21_linear_322_16365)"/>
<path d="M74.9121 37.6885H76.7914V58.1073H74.9121V37.6885Z" fill="url(#paint22_linear_322_16365)"/>
<path d="M49.332 81.9812L67.0108 71.7655L67.9509 73.3927L50.2721 83.6084L49.332 81.9812Z" fill="url(#paint23_linear_322_16365)"/>
<path d="M14.9375 73.3999L15.8776 71.7727L33.5564 81.9901L32.6163 83.6173L14.9375 73.3999Z" fill="url(#paint24_linear_322_16365)"/>
<defs>
<linearGradient id="paint0_linear_322_16365" x1="47.6844" y1="0.548384" x2="35.6559" y2="8.04255" gradientUnits="userSpaceOnUse">
<stop stop-color="#FAE6AF"/>
<stop offset="1" stop-color="#FFC47F"/>
</linearGradient>
<linearGradient id="paint1_linear_322_16365" x1="40.6782" y1="5.71907" x2="32.6882" y2="7.37533" gradientUnits="userSpaceOnUse">
<stop stop-color="#FAE6AF"/>
<stop offset="1" stop-color="#FFC47F"/>
</linearGradient>
<linearGradient id="paint2_linear_322_16365" x1="48.4438" y1="5.71907" x2="40.4538" y2="7.37533" gradientUnits="userSpaceOnUse">
<stop stop-color="#FAE6AF"/>
<stop offset="1" stop-color="#FFC47F"/>
</linearGradient>
<linearGradient id="paint3_linear_322_16365" x1="6.26614" y1="21.1078" x2="-1.70952" y2="22.7599" gradientUnits="userSpaceOnUse">
<stop stop-color="#FAE6AF"/>
<stop offset="1" stop-color="#FFC47F"/>
</linearGradient>
<linearGradient id="paint4_linear_322_16365" x1="14.0322" y1="21.1093" x2="6.015" y2="22.7794" gradientUnits="userSpaceOnUse">
<stop stop-color="#FAE6AF"/>
<stop offset="1" stop-color="#FFC47F"/>
</linearGradient>
<linearGradient id="paint5_linear_322_16365" x1="13.2742" y1="29.3802" x2="1.24572" y2="36.8743" gradientUnits="userSpaceOnUse">
<stop stop-color="#FAE6AF"/>
<stop offset="1" stop-color="#FFC47F"/>
</linearGradient>
<linearGradient id="paint6_linear_322_16365" x1="13.2742" y1="60.1537" x2="1.24572" y2="67.6479" gradientUnits="userSpaceOnUse">
<stop stop-color="#FAE6AF"/>
<stop offset="1" stop-color="#FFC47F"/>
</linearGradient>
<linearGradient id="paint7_linear_322_16365" x1="14.0322" y1="65.3244" x2="6.01429" y2="66.9929" gradientUnits="userSpaceOnUse">
<stop stop-color="#FAE6AF"/>
<stop offset="1" stop-color="#FFC47F"/>
</linearGradient>
<linearGradient id="paint8_linear_322_16365" x1="6.26614" y1="65.3229" x2="-1.71022" y2="66.9734" gradientUnits="userSpaceOnUse">
<stop stop-color="#FAE6AF"/>
<stop offset="1" stop-color="#FFC47F"/>
</linearGradient>
<linearGradient id="paint9_linear_322_16365" x1="48.4438" y1="80.7146" x2="40.4545" y2="82.3726" gradientUnits="userSpaceOnUse">
<stop stop-color="#FAE6AF"/>
<stop offset="1" stop-color="#FFC47F"/>
</linearGradient>
<linearGradient id="paint10_linear_322_16365" x1="40.6782" y1="80.7146" x2="32.6889" y2="82.3726" gradientUnits="userSpaceOnUse">
<stop stop-color="#FAE6AF"/>
<stop offset="1" stop-color="#FFC47F"/>
</linearGradient>
<linearGradient id="paint11_linear_322_16365" x1="47.6844" y1="88.9739" x2="35.6559" y2="96.4681" gradientUnits="userSpaceOnUse">
<stop stop-color="#FAE6AF"/>
<stop offset="1" stop-color="#FFC47F"/>
</linearGradient>
<linearGradient id="paint12_linear_322_16365" x1="82.0945" y1="60.1537" x2="70.066" y2="67.6479" gradientUnits="userSpaceOnUse">
<stop stop-color="#FAE6AF"/>
<stop offset="1" stop-color="#FFC47F"/>
</linearGradient>
<linearGradient id="paint13_linear_322_16365" x1="82.8443" y1="65.3244" x2="74.8679" y2="66.9748" gradientUnits="userSpaceOnUse">
<stop stop-color="#FAE6AF"/>
<stop offset="1" stop-color="#FFC47F"/>
</linearGradient>
<linearGradient id="paint14_linear_322_16365" x1="75.1123" y1="65.3229" x2="67.0944" y2="66.9914" gradientUnits="userSpaceOnUse">
<stop stop-color="#FAE6AF"/>
<stop offset="1" stop-color="#FFC47F"/>
</linearGradient>
<linearGradient id="paint15_linear_322_16365" x1="82.8443" y1="21.1093" x2="74.8686" y2="22.7613" gradientUnits="userSpaceOnUse">
<stop stop-color="#FAE6AF"/>
<stop offset="1" stop-color="#FFC47F"/>
</linearGradient>
<linearGradient id="paint16_linear_322_16365" x1="75.1123" y1="21.1078" x2="67.0951" y2="22.7779" gradientUnits="userSpaceOnUse">
<stop stop-color="#FAE6AF"/>
<stop offset="1" stop-color="#FFC47F"/>
</linearGradient>
<linearGradient id="paint17_linear_322_16365" x1="82.0945" y1="29.3802" x2="70.066" y2="36.8743" gradientUnits="userSpaceOnUse">
<stop stop-color="#FAE6AF"/>
<stop offset="1" stop-color="#FFC47F"/>
</linearGradient>
<linearGradient id="paint18_linear_322_16365" x1="63.8142" y1="28.5541" x2="10.8052" y2="47.6269" gradientUnits="userSpaceOnUse">
<stop stop-color="#FAE6AF"/>
<stop offset="1" stop-color="#FFC47F"/>
</linearGradient>
<linearGradient id="paint19_linear_322_16365" x1="7.95511" y1="39.2171" x2="5.4844" y2="39.2989" gradientUnits="userSpaceOnUse">
<stop stop-color="#FAE6AF"/>
<stop offset="1" stop-color="#FFC47F"/>
</linearGradient>
<linearGradient id="paint20_linear_322_16365" x1="33.3976" y1="13.0381" x2="14.83" y2="23.5373" gradientUnits="userSpaceOnUse">
<stop stop-color="#FAE6AF"/>
<stop offset="1" stop-color="#FFC47F"/>
</linearGradient>
<linearGradient id="paint21_linear_322_16365" x1="67.8116" y1="13.0497" x2="49.2441" y2="23.5489" gradientUnits="userSpaceOnUse">
<stop stop-color="#FAE6AF"/>
<stop offset="1" stop-color="#FFC47F"/>
</linearGradient>
<linearGradient id="paint22_linear_322_16365" x1="76.7754" y1="39.2171" x2="74.3047" y2="39.2989" gradientUnits="userSpaceOnUse">
<stop stop-color="#FAE6AF"/>
<stop offset="1" stop-color="#FFC47F"/>
</linearGradient>
<linearGradient id="paint23_linear_322_16365" x1="67.7921" y1="72.6521" x2="49.2258" y2="83.1521" gradientUnits="userSpaceOnUse">
<stop stop-color="#FAE6AF"/>
<stop offset="1" stop-color="#FFC47F"/>
</linearGradient>
<linearGradient id="paint24_linear_322_16365" x1="33.3976" y1="72.6594" x2="14.83" y2="83.1587" gradientUnits="userSpaceOnUse">
<stop stop-color="#FAE6AF"/>
<stop offset="1" stop-color="#FFC47F"/>
</linearGradient>
</defs>
</svg>
