<svg width="81" height="75" viewBox="0 0 81 75" fill="none" xmlns="http://www.w3.org/2000/svg">
<path d="M80.4873 25.9674H0C0 29.165 2.10193 31.9059 5.09068 33.066V69.0433H3.61291C1.86342 69.0433 0.445613 70.3767 0.445613 72.0203C0.445613 73.6668 1.86268 74.9996 3.61291 74.9996L76.8733 75.0003C78.6206 75.0003 80.0383 73.6669 80.0383 72.021C80.0383 70.3767 78.6205 69.044 76.8733 69.044H75.3948V33.0667C78.3866 31.9073 80.4878 29.1673 80.4878 25.9689L80.4873 25.9674ZM30.1207 69.0408H11.4241V33.0465C13.8015 32.121 15.6219 30.2065 16.2631 27.8394C17.1664 31.1756 20.3877 33.6551 24.2561 33.6551C26.5639 33.6551 28.6279 32.76 30.1205 31.3399L30.1207 69.0408ZM69.0622 69.0408H33.3958V30.2281C34.8721 32.2901 37.3768 33.6553 40.2442 33.6553C44.1126 33.6553 47.3339 31.1758 48.2372 27.8396C49.1412 31.1758 52.3626 33.6553 56.2302 33.6553C60.0979 33.6553 63.3199 31.1758 64.2225 27.8396C64.8637 30.205 66.6826 32.1212 69.0622 33.0459V69.0408Z" fill="url(#paint0_linear_322_19348)"/>
<path d="M70.24 5.32532H10.2488L0 24.7771H80.4873L70.24 5.32532Z" fill="url(#paint1_linear_322_19348)"/>
<path d="M11.421 4.09505H68.6374C69.5229 4.09505 70.238 3.17774 70.238 2.04789C70.238 0.917363 69.5229 0.000740365 68.6374 0.000740365L11.421 0C10.537 0 9.82031 0.917305 9.82031 2.04715C9.82031 3.17844 10.5362 4.09506 11.421 4.09506V4.09505Z" fill="url(#paint2_linear_322_19348)"/>
<path d="M29.1777 50.6161C29.1777 51.6023 28.3781 52.4026 27.392 52.4026C26.4051 52.4026 25.6055 51.6023 25.6055 50.6161C25.6055 49.6292 26.4051 48.8296 27.392 48.8296C28.3781 48.8296 29.1777 49.6292 29.1777 50.6161Z" fill="url(#paint3_linear_322_19348)"/>
<defs>
<linearGradient id="paint0_linear_322_19348" x1="79.8014" y1="29.6381" x2="1.25727" y2="76.0177" gradientUnits="userSpaceOnUse">
<stop stop-color="#FAE6AF"/>
<stop offset="1" stop-color="#FFC47F"/>
</linearGradient>
<linearGradient id="paint1_linear_322_19348" x1="79.8009" y1="6.78153" x2="46.8575" y2="55.8166" gradientUnits="userSpaceOnUse">
<stop stop-color="#FAE6AF"/>
<stop offset="1" stop-color="#FFC47F"/>
</linearGradient>
<linearGradient id="paint2_linear_322_19348" x1="69.7228" y1="0.306567" x2="66.9966" y2="14.7753" gradientUnits="userSpaceOnUse">
<stop stop-color="#FAE6AF"/>
<stop offset="1" stop-color="#FFC47F"/>
</linearGradient>
<linearGradient id="paint3_linear_322_19348" x1="29.1473" y1="49.0971" x2="24.9843" y2="50.5943" gradientUnits="userSpaceOnUse">
<stop stop-color="#FAE6AF"/>
<stop offset="1" stop-color="#FFC47F"/>
</linearGradient>
</defs>
</svg>
