<svg width="88" height="78" viewBox="0 0 88 78" fill="none" xmlns="http://www.w3.org/2000/svg">
<path d="M5.41992 78.0001H81.6568V38.6083H5.41992V78.0001ZM10.9078 48.7548H13.6158C15.3668 48.7548 16.8111 47.3287 16.8111 45.5777V42.8697H70.2824V45.5777C70.2824 47.3287 71.7085 48.7548 73.4595 48.7548H76.1675V68.5224H73.4595C71.7085 68.5224 70.2824 69.9486 70.2824 71.7178V74.4258H16.8111V71.7178C16.8111 69.9484 15.3668 68.5407 13.6158 68.5407H10.9078V48.7548Z" fill="url(#paint0_linear_322_19316)"/>
<path d="M40.569 60.3537L39.5527 61.5626C40.5639 62.4422 41.7053 62.9471 42.9766 63.0768V64.0912H43.8675V63.0907C45.6098 63.0051 47.0132 62.0273 47.0132 60.2763C47.0132 58.4454 45.7011 57.8271 43.9097 57.4064H43.8676V54.7934C44.5816 54.8954 45.2452 55.1643 45.8579 55.6L46.7626 54.3212C45.8535 53.7004 44.8882 53.3528 43.8676 53.2785V52.5696H42.9767V53.2647C41.2591 53.3535 39.9426 54.381 39.9426 56.0653C39.9426 57.871 41.2207 58.4471 42.9767 58.8652V61.5618C42.1519 61.4327 41.3491 61.0298 40.5689 60.3535L40.569 60.3537ZM43.8682 59.1026C44.6861 59.3476 45.3157 59.6 45.3157 60.4091C45.3157 61.154 44.6169 61.5273 43.8682 61.6042V59.1026ZM41.6413 55.8991C41.6413 55.187 42.2678 54.8155 42.9774 54.7519V57.1565C42.2036 56.9084 41.6413 56.6692 41.6413 55.8991Z" fill="url(#paint1_linear_322_19316)"/>
<path d="M19.5104 71.7091L67.5691 71.7085C67.5691 68.4584 70.2097 65.822 73.4642 65.822V51.4621C70.2091 51.4621 67.5691 48.826 67.5691 45.5757L19.5104 45.5763C19.5104 48.8264 16.8697 51.4628 13.6152 51.4628V65.8227C16.8697 65.8227 19.5104 68.4588 19.5104 71.7091V71.7091ZM61.6198 56.6421H65.6216V60.644H61.6198V56.6421ZM43.2738 48.7309C48.5878 48.7309 52.8887 53.025 52.8887 58.3313C52.8887 63.6372 48.5877 67.9318 43.2738 67.9318C37.9761 67.9318 33.6751 63.637 33.6751 58.3313C33.6751 53.0254 37.9761 48.7309 43.2738 48.7309ZM21.4575 56.6421H25.4587V60.644H21.4575V56.6421Z" fill="url(#paint2_linear_322_19316)"/>
<path d="M70.9521 0.157242L77.3628 6.56754L68.3328 15.9459C67.9846 15.8602 67.627 15.8011 67.2524 15.8011C66.8482 15.8011 66.4641 15.8703 66.0914 15.9685L55.3891 5.20693C55.4231 4.98215 55.4583 4.75737 55.4583 4.52315C55.4583 2.0248 53.4335 0 50.9352 0C48.4375 0 46.412 2.0248 46.412 4.52315C46.412 5.47011 46.7048 6.34711 47.2022 7.07309L38.5108 20.576C38.3811 20.5646 38.2571 20.5369 38.1242 20.5369C37.4449 20.5369 36.8064 20.6975 36.2284 20.9657L27.4867 14.4887C27.5088 14.3086 27.5415 14.1311 27.5415 13.9453C27.5415 11.447 25.5167 9.42217 23.0184 9.42217C20.5206 9.42217 18.4952 11.447 18.4952 13.9453C18.4952 14.2627 18.5292 14.5724 18.5915 14.8715L5.8164 26.8797C5.40399 26.7569 4.97585 26.6701 4.52315 26.6701C2.0248 26.6701 0 28.6948 0 31.1932C0 33.6916 2.0248 35.7164 4.52315 35.7164C7.02151 35.7164 9.0463 33.6916 9.0463 31.1932C9.0463 30.8368 8.9953 30.4943 8.91723 30.1613L21.6131 18.2241C22.0576 18.3708 22.5241 18.469 23.0177 18.469C23.6467 18.469 24.2449 18.34 24.7882 18.1083L33.6395 24.6665C33.6281 24.7987 33.5998 24.9259 33.5998 25.0613C33.5998 27.5596 35.6246 29.5844 38.1229 29.5844C40.6207 29.5844 42.6461 27.5596 42.6461 25.0613C42.6461 24.3788 42.4843 23.7385 42.2135 23.1585L51.3242 9.00702C51.7479 8.9705 52.1559 8.8855 52.5374 8.73942L62.8942 19.1527C62.7928 19.5305 62.721 19.9202 62.721 20.3314C62.721 22.8222 64.7428 24.8445 67.2524 24.8445C69.7438 24.8445 71.7656 22.8222 71.7656 20.3314C71.7656 19.8969 71.6856 19.4852 71.5723 19.0879L80.5546 9.7587L87.0448 16.2489L87.0713 0.156318L70.9521 0.157242Z" fill="url(#paint3_linear_322_19316)"/>
<defs>
<linearGradient id="paint0_linear_322_19316" x1="81.0067" y1="41.5572" x2="13.4259" y2="88.6066" gradientUnits="userSpaceOnUse">
<stop stop-color="#FAE6AF"/>
<stop offset="1" stop-color="#FFC47F"/>
</linearGradient>
<linearGradient id="paint1_linear_322_19316" x1="46.9496" y1="53.4321" x2="37.6361" y2="55.6015" gradientUnits="userSpaceOnUse">
<stop stop-color="#FAE6AF"/>
<stop offset="1" stop-color="#FFC47F"/>
</linearGradient>
<linearGradient id="paint2_linear_322_19316" x1="72.9538" y1="47.5321" x2="26.0312" y2="86.1878" gradientUnits="userSpaceOnUse">
<stop stop-color="#FAE6AF"/>
<stop offset="1" stop-color="#FFC47F"/>
</linearGradient>
<linearGradient id="paint3_linear_322_19316" x1="86.3287" y1="2.67382" x2="21.5509" y2="59.4812" gradientUnits="userSpaceOnUse">
<stop stop-color="#FAE6AF"/>
<stop offset="1" stop-color="#FFC47F"/>
</linearGradient>
</defs>
</svg>
