<svg width="78" height="76" viewBox="0 0 78 76" fill="none" xmlns="http://www.w3.org/2000/svg">
<path d="M52.4325 59.1695L50.2148 57.9447C49.7681 58.7432 49.3728 59.5699 49.0312 60.4187L51.3865 61.3511V61.3517C51.6885 60.6025 52.038 59.8736 52.4327 59.1696L52.4325 59.1695Z" fill="url(#paint0_linear_322_19321)"/>
<path d="M55.1426 54.9298L53.0634 53.4828C52.5658 54.1975 52.0687 54.9253 51.5938 55.6599L53.72 57.0357C54.1803 56.3254 54.661 55.6225 55.1427 54.9298L55.1426 54.9298Z" fill="url(#paint1_linear_322_19321)"/>
<path d="M58.0897 50.618L55.9459 49.2699C55.5184 49.9479 55.0423 50.6491 54.543 51.3689L56.6233 52.8137C57.1464 52.0611 57.644 51.3276 58.0896 50.618H58.0897Z" fill="url(#paint2_linear_322_19321)"/>
<path d="M60.6087 45.9441L58.3225 44.8533C57.9594 45.6127 57.58 46.3637 57.1836 47.1056L59.4178 48.3005C59.8323 47.5252 60.2293 46.7398 60.6087 45.9442L60.6087 45.9441Z" fill="url(#paint3_linear_322_19321)"/>
<path d="M62.6736 41.0958L60.3025 40.2052C60.0079 40.9884 59.6947 41.7727 59.3633 42.5502L61.6947 43.542C62.0396 42.73 62.3659 41.9146 62.6735 41.0959L62.6736 41.0958Z" fill="url(#paint4_linear_322_19321)"/>
<path d="M65.7592 28.2415C65.8305 27.399 65.8661 26.5779 65.8661 25.7998L65.865 25.5476L63.3316 25.5674L63.3328 25.7998C63.3328 26.5061 63.3 27.257 63.2344 28.0289L65.7592 28.2415Z" fill="url(#paint5_linear_322_19321)"/>
<path d="M62.7539 20.7316C62.9388 21.5232 63.0796 22.3245 63.1758 23.132L65.6916 22.8329C65.5841 21.9321 65.4269 21.0381 65.2205 20.1548L62.7539 20.7316Z" fill="url(#paint6_linear_322_19321)"/>
<path d="M61.123 16.1458C61.4793 16.8775 61.7948 17.6285 62.068 18.3947L64.4542 17.5459C64.15 16.6909 63.7977 15.8535 63.4002 15.0375L61.123 16.1458Z" fill="url(#paint7_linear_322_19321)"/>
<path d="M58.5176 12.0257C59.0248 12.6641 59.4975 13.3285 59.9341 14.0173L62.075 12.6641C61.5904 11.8985 61.065 11.1593 60.5019 10.4497L58.5176 12.0257Z" fill="url(#paint8_linear_322_19321)"/>
<path d="M55.0918 8.53619C55.7212 9.057 56.324 9.61003 56.8968 10.1924L58.703 8.41618C58.0691 7.77154 57.4024 7.16026 56.7057 6.58408L55.0918 8.53619Z" fill="url(#paint9_linear_322_19321)"/>
<path d="M54.5365 4.96291C53.7963 4.46586 53.0182 3.99538 52.2226 3.56506L51.0176 5.79411C51.7414 6.18485 52.4494 6.61291 53.1223 7.06587L54.5365 4.96291Z" fill="url(#paint10_linear_322_19321)"/>
<path d="M49.7912 2.39942C48.9752 2.05166 48.1231 1.73781 47.259 1.46298L46.4922 3.87761C47.2816 4.12756 48.0574 4.41424 48.8004 4.72978L49.7912 2.39942Z" fill="url(#paint11_linear_322_19321)"/>
<path d="M41.6797 2.81422C42.4968 2.9194 43.3145 3.06133 44.1095 3.23833L44.6575 0.764346C43.7883 0.572652 42.8954 0.416585 42.0037 0.300659L41.6797 2.81422Z" fill="url(#paint12_linear_322_19321)"/>
<path d="M50.6666 67.0441V66.9536C50.6734 66.3027 50.4127 65.6773 49.945 65.2239C49.4774 64.7703 48.844 64.5289 48.1937 64.556H27.8054C27.1551 64.5289 26.5218 64.7703 26.0541 65.2239C25.5864 65.6774 25.3258 66.3028 25.3326 66.9536V67.0441C25.319 67.7142 25.5717 68.3622 26.0354 68.8457C26.4991 69.3291 27.1359 69.6085 27.8054 69.6226H48.1937C48.8632 69.6085 49.5 69.3291 49.9637 68.8457C50.4274 68.3622 50.6802 67.7141 50.6666 67.0441H50.6666Z" fill="url(#paint13_linear_322_19321)"/>
<path d="M28.8251 70.933C28.2065 70.9398 27.6184 71.2005 27.1977 71.654C26.7764 72.1069 26.5604 72.7131 26.5994 73.3306V73.4211C26.5559 74.0572 26.7656 74.6849 27.1824 75.1678C27.5991 75.6507 28.1895 75.9493 28.8252 75.9996H47.1737C47.8093 75.9493 48.3997 75.6507 48.8165 75.1678C49.2332 74.6849 49.443 74.0572 49.3995 73.4211V73.3306C49.4385 72.7131 49.2225 72.1069 48.8012 71.654C48.3805 71.2005 47.7924 70.9398 47.1738 70.933H28.8251Z" fill="url(#paint14_linear_322_19321)"/>
<path d="M27.8652 30.4001C27.8652 33.0877 28.9329 35.6652 30.8334 37.5652C32.7334 39.4658 35.3109 40.5334 37.9986 40.5334V20.2667C35.3109 20.2667 32.7334 21.3343 30.8334 23.2349C28.9329 25.1349 27.8652 27.7124 27.8652 30.4001Z" fill="url(#paint15_linear_322_19321)"/>
<path d="M26.5127 63.5225C26.8537 63.4303 27.2048 63.3817 27.5577 63.3777H38.0004V48.1328C37.2783 48.1283 36.5567 48.0802 35.8402 47.9881L35.2844 45.3433V45.3438C34.4644 45.194 33.6581 44.9768 32.8738 44.6941L31.0586 46.7202H31.0581C29.7343 46.1496 28.4857 45.4196 27.339 44.5459L28.1787 41.9894C27.542 41.4488 26.9505 40.8573 26.4105 40.2205L23.854 41.0603C22.9803 39.914 22.2503 38.6649 21.6796 37.3412L23.7057 35.526C23.423 34.7417 23.2053 33.9354 23.056 33.1154L20.267 32.5596V28.2393L23.056 27.6834C23.2059 26.8629 23.423 26.0566 23.7057 25.2729L21.6796 23.4577V23.4571C22.2502 22.1334 22.9802 20.8843 23.854 19.7381L26.4105 20.5778C26.9511 19.9411 27.5425 19.3496 28.1793 18.8095L27.3396 16.253C28.4858 15.3794 29.7349 14.6494 31.0587 14.0787L32.8738 16.1048C33.6581 15.8221 34.4645 15.6049 35.2844 15.4551L35.8403 12.8103V12.8108C36.5567 12.7186 37.2783 12.6706 38.0004 12.6661V1.31079C23.3099 1.31079 11.4004 11.9185 11.4004 25.8002C11.4004 32.3218 14.0316 41.2463 18.3439 48.8795C20.7574 53.1512 25.8127 58.5509 26.5128 63.5237L26.5127 63.5225Z" fill="url(#paint16_linear_322_19321)"/>
<path d="M2.5332 68.3995H5.06654V70.9329H2.5332V68.3995Z" fill="url(#paint17_linear_322_19321)"/>
<path d="M2.5332 73.4666H5.06654V75.9999H2.5332V73.4666Z" fill="url(#paint18_linear_322_19321)"/>
<path d="M5.06641 70.933H7.59974V73.4663H5.06641V70.933Z" fill="url(#paint19_linear_322_19321)"/>
<path d="M0 70.933H2.53333V73.4663H0V70.933Z" fill="url(#paint20_linear_322_19321)"/>
<path d="M72.1992 0H74.7326V2.53333H72.1992V0Z" fill="url(#paint21_linear_322_19321)"/>
<path d="M72.1992 5.06702H74.7326V7.60035H72.1992V5.06702Z" fill="url(#paint22_linear_322_19321)"/>
<path d="M74.7324 2.53345H77.2658V5.06678H74.7324V2.53345Z" fill="url(#paint23_linear_322_19321)"/>
<path d="M69.666 2.53351H72.1993V5.06684H69.666V2.53351Z" fill="url(#paint24_linear_322_19321)"/>
<path d="M40.5342 12.6671C40.5359 13.4509 40.7802 14.2143 41.2337 14.8533C41.6878 15.4923 42.3285 15.9746 43.0676 16.2342V22.8005H39.2676V38.0005H41.8009V43.0671C41.8009 43.403 41.9344 43.7253 42.1719 43.9628C42.4094 44.2003 42.7317 44.3338 43.0676 44.3338H46.8676V45.8334C45.7315 46.2349 44.8534 47.1515 44.5004 48.3033C44.1481 49.4557 44.3625 50.7066 45.0789 51.6758C45.7959 52.6445 46.9291 53.2157 48.1341 53.2157C49.3391 53.2157 50.4723 52.6445 51.1893 51.6758C51.9058 50.7066 52.1201 49.4558 51.7678 48.3033C51.4149 47.1514 50.5368 46.2348 49.4006 45.8334V43.0671C49.4006 42.7312 49.2672 42.4089 49.0297 42.1714C48.7922 41.9339 48.4699 41.8005 48.134 41.8005H44.334V38.0005H49.4006V35.4671H57.2336C57.6351 36.6032 58.5517 37.4813 59.7035 37.8343C60.8559 38.1866 62.1068 37.9722 63.076 37.2558C64.0447 36.5388 64.6158 35.4056 64.6158 34.2006C64.6158 32.9956 64.0447 31.8624 63.076 31.1454C62.1068 30.4289 60.8559 30.2146 59.7035 30.5669C58.5516 30.9198 57.635 31.7979 57.2336 32.9341H49.4006V27.8674H54.4673C54.8032 27.8674 55.1255 27.7339 55.363 27.4964C55.6005 27.2589 55.734 26.9366 55.734 26.6007V21.3011C56.87 20.8996 57.7482 19.983 58.1011 18.8312C58.4534 17.6788 58.2391 16.4279 57.5226 15.4587C56.8056 14.49 55.6724 13.9189 54.4674 13.9189C53.2625 13.9189 52.1293 14.49 51.4122 15.4587C50.6958 16.4279 50.4815 17.6788 50.8338 18.8312C51.1866 19.9831 52.0648 20.8997 53.2009 21.3011V25.3341H49.4009V22.8007H45.6009V16.2345C46.4785 15.9223 47.2108 15.2975 47.657 14.4798C48.1037 13.6621 48.2338 12.7088 48.0228 11.8011C47.8113 10.8935 47.2736 10.0957 46.5118 9.55906C45.7501 9.02299 44.8171 8.78548 43.8919 8.89236C42.9662 8.9998 42.1123 9.4437 41.4932 10.1398C40.874 10.8359 40.5324 11.7355 40.5341 12.6675L40.5342 12.6671Z" fill="url(#paint25_linear_322_19321)"/>
<defs>
<linearGradient id="paint0_linear_322_19321" x1="52.4037" y1="58.1998" x2="48.4384" y2="59.6238" gradientUnits="userSpaceOnUse">
<stop stop-color="#FAE6AF"/>
<stop offset="1" stop-color="#FFC47F"/>
</linearGradient>
<linearGradient id="paint1_linear_322_19321" x1="55.1125" y1="53.7488" x2="50.9757" y2="55.2352" gradientUnits="userSpaceOnUse">
<stop stop-color="#FAE6AF"/>
<stop offset="1" stop-color="#FFC47F"/>
</linearGradient>
<linearGradient id="paint2_linear_322_19321" x1="58.0594" y1="49.5352" x2="53.9272" y2="51.0229" gradientUnits="userSpaceOnUse">
<stop stop-color="#FAE6AF"/>
<stop offset="1" stop-color="#FFC47F"/>
</linearGradient>
<linearGradient id="paint3_linear_322_19321" x1="60.5795" y1="45.1113" x2="56.5823" y2="46.54" gradientUnits="userSpaceOnUse">
<stop stop-color="#FAE6AF"/>
<stop offset="1" stop-color="#FFC47F"/>
</linearGradient>
<linearGradient id="paint4_linear_322_19321" x1="62.6454" y1="40.455" x2="58.7808" y2="41.8341" gradientUnits="userSpaceOnUse">
<stop stop-color="#FAE6AF"/>
<stop offset="1" stop-color="#FFC47F"/>
</linearGradient>
<linearGradient id="paint5_linear_322_19321" x1="65.8437" y1="25.7493" x2="62.7607" y2="26.8327" gradientUnits="userSpaceOnUse">
<stop stop-color="#FAE6AF"/>
<stop offset="1" stop-color="#FFC47F"/>
</linearGradient>
<linearGradient id="paint6_linear_322_19321" x1="65.6665" y1="20.3777" x2="62.2328" y2="21.5964" gradientUnits="userSpaceOnUse">
<stop stop-color="#FAE6AF"/>
<stop offset="1" stop-color="#FFC47F"/>
</linearGradient>
<linearGradient id="paint7_linear_322_19321" x1="64.4258" y1="15.2888" x2="60.5371" y2="16.6768" gradientUnits="userSpaceOnUse">
<stop stop-color="#FAE6AF"/>
<stop offset="1" stop-color="#FFC47F"/>
</linearGradient>
<linearGradient id="paint8_linear_322_19321" x1="62.0446" y1="10.7168" x2="57.8964" y2="12.2047" gradientUnits="userSpaceOnUse">
<stop stop-color="#FAE6AF"/>
<stop offset="1" stop-color="#FFC47F"/>
</linearGradient>
<linearGradient id="paint9_linear_322_19321" x1="58.6722" y1="6.85421" x2="54.4648" y2="8.36894" gradientUnits="userSpaceOnUse">
<stop stop-color="#FAE6AF"/>
<stop offset="1" stop-color="#FFC47F"/>
</linearGradient>
<linearGradient id="paint10_linear_322_19321" x1="54.5065" y1="3.82714" x2="50.4107" y2="5.30811" gradientUnits="userSpaceOnUse">
<stop stop-color="#FAE6AF"/>
<stop offset="1" stop-color="#FFC47F"/>
</linearGradient>
<linearGradient id="paint11_linear_322_19321" x1="49.763" y1="1.70754" x2="45.9274" y2="3.10091" gradientUnits="userSpaceOnUse">
<stop stop-color="#FAE6AF"/>
<stop offset="1" stop-color="#FFC47F"/>
</linearGradient>
<linearGradient id="paint12_linear_322_19321" x1="44.6321" y1="0.520581" x2="41.1729" y2="1.78192" gradientUnits="userSpaceOnUse">
<stop stop-color="#FAE6AF"/>
<stop offset="1" stop-color="#FFC47F"/>
</linearGradient>
<linearGradient id="paint13_linear_322_19321" x1="50.4511" y1="64.9334" x2="42.5739" y2="79.0969" gradientUnits="userSpaceOnUse">
<stop stop-color="#FAE6AF"/>
<stop offset="1" stop-color="#FFC47F"/>
</linearGradient>
<linearGradient id="paint14_linear_322_19321" x1="49.2106" y1="71.3123" x2="40.9242" y2="84.7329" gradientUnits="userSpaceOnUse">
<stop stop-color="#FAE6AF"/>
<stop offset="1" stop-color="#FFC47F"/>
</linearGradient>
<linearGradient id="paint15_linear_322_19321" x1="37.9122" y1="21.7839" x2="24.9935" y2="24.1075" gradientUnits="userSpaceOnUse">
<stop stop-color="#FAE6AF"/>
<stop offset="1" stop-color="#FFC47F"/>
</linearGradient>
<linearGradient id="paint16_linear_322_19321" x1="37.7735" y1="5.96821" x2="3.57403" y2="11.2283" gradientUnits="userSpaceOnUse">
<stop stop-color="#FAE6AF"/>
<stop offset="1" stop-color="#FFC47F"/>
</linearGradient>
<linearGradient id="paint17_linear_322_19321" x1="5.04493" y1="68.5892" x2="2.0928" y2="69.6511" gradientUnits="userSpaceOnUse">
<stop stop-color="#FAE6AF"/>
<stop offset="1" stop-color="#FFC47F"/>
</linearGradient>
<linearGradient id="paint18_linear_322_19321" x1="5.04493" y1="73.6562" x2="2.0928" y2="74.7182" gradientUnits="userSpaceOnUse">
<stop stop-color="#FAE6AF"/>
<stop offset="1" stop-color="#FFC47F"/>
</linearGradient>
<linearGradient id="paint19_linear_322_19321" x1="7.57814" y1="71.1226" x2="4.626" y2="72.1846" gradientUnits="userSpaceOnUse">
<stop stop-color="#FAE6AF"/>
<stop offset="1" stop-color="#FFC47F"/>
</linearGradient>
<linearGradient id="paint20_linear_322_19321" x1="2.51173" y1="71.1226" x2="-0.440406" y2="72.1846" gradientUnits="userSpaceOnUse">
<stop stop-color="#FAE6AF"/>
<stop offset="1" stop-color="#FFC47F"/>
</linearGradient>
<linearGradient id="paint21_linear_322_19321" x1="74.7109" y1="0.189652" x2="71.7588" y2="1.25161" gradientUnits="userSpaceOnUse">
<stop stop-color="#FAE6AF"/>
<stop offset="1" stop-color="#FFC47F"/>
</linearGradient>
<linearGradient id="paint22_linear_322_19321" x1="74.7109" y1="5.25667" x2="71.7588" y2="6.31863" gradientUnits="userSpaceOnUse">
<stop stop-color="#FAE6AF"/>
<stop offset="1" stop-color="#FFC47F"/>
</linearGradient>
<linearGradient id="paint23_linear_322_19321" x1="77.2442" y1="2.7231" x2="74.292" y2="3.78506" gradientUnits="userSpaceOnUse">
<stop stop-color="#FAE6AF"/>
<stop offset="1" stop-color="#FFC47F"/>
</linearGradient>
<linearGradient id="paint24_linear_322_19321" x1="72.1777" y1="2.72316" x2="69.2256" y2="3.78512" gradientUnits="userSpaceOnUse">
<stop stop-color="#FAE6AF"/>
<stop offset="1" stop-color="#FFC47F"/>
</linearGradient>
<linearGradient id="paint25_linear_322_19321" x1="64.3997" y1="12.1873" x2="32.3917" y2="18.7685" gradientUnits="userSpaceOnUse">
<stop stop-color="#FAE6AF"/>
<stop offset="1" stop-color="#FFC47F"/>
</linearGradient>
</defs>
</svg>
