<svg width="120" height="120" viewBox="0 0 120 120" fill="none" xmlns="http://www.w3.org/2000/svg">
<path opacity="0.34" d="M18.5391 111.75C28.0013 111.75 35.6719 110.249 35.6719 108.398C35.6719 106.547 28.0013 105.047 18.5391 105.047C9.07687 105.047 1.40625 106.547 1.40625 108.398C1.40625 110.249 9.07687 111.75 18.5391 111.75Z" fill="#575FA8"/>
<path d="M20.4141 102.352L20.0625 108.07H30.2812C30.2812 108.07 26.1094 105.281 24.2578 104.391L24.0469 102.375H20.4141V102.352Z" fill="#F08789"/>
<path d="M23.5781 56.9766L24.2578 103.898H20.2266C20.2266 103.898 15.7734 85.5234 17.9531 80.1563L14.0625 56.9766H23.5781V56.9766Z" fill="#32388D"/>
<path opacity="0.2" d="M23.5781 56.9766H14.0859L17.9766 80.1563C17.2266 82.0078 17.25 85.4297 17.625 89.1094L24.1641 97.1016L23.5781 56.9766Z" fill="#020203"/>
<path d="M9.63281 103.102L8.0625 108.82H19.2188C19.2188 108.82 14.5078 106.031 12.6328 105.141L12.9844 103.125H9.63281V103.102Z" fill="#F08789"/>
<path d="M23.8594 56.3906L19.8984 79.9219L13.2188 103.898H9.21094C9.21094 103.898 10.5 80.8828 14.625 78.4922L11.3672 56.4141H23.8594V56.3906Z" fill="#32388D"/>
<path opacity="0.2" d="M23.6016 58.0078L23.8594 56.3906H11.3672L11.6484 58.3125L23.625 59.8359L23.6016 58.0078Z" fill="#020203"/>
<path d="M30.3047 40.1484C30.3047 40.1484 32.7891 36.1406 36.6562 35.2266L35.1328 37.0547C35.1328 37.0547 35.8594 38.9531 34.9453 39.9141C34.0312 40.875 32.5547 40.9453 32.5547 40.9453L31.5234 42.0937L30.3047 40.1484Z" fill="#F5ABAE"/>
<path d="M20.4844 36.8672L23.8828 43.8047L30.5391 39.3047L32.2031 41.8594C32.2031 41.8594 26.4141 52.7344 23.8594 51.9375C21.3047 51.1406 19.1016 45.3984 19.1016 45.3984L20.4844 36.8672Z" fill="white"/>
<path opacity="0.2" d="M23.8594 43.8047L20.4609 36.8672L19.1016 45.3984C19.1016 45.3984 21.3047 51.1406 23.8594 51.9375C23.9297 51.9609 23.9766 51.9609 24.0469 51.9609L27.1172 41.5781L23.8594 43.8047Z" fill="#020203"/>
<path d="M23.063 20.4843C23.063 20.4843 23.4614 24.0234 23.8598 24.8905H22.7583C22.7583 24.8905 22.852 28.289 22.1489 28.7109C21.6567 29.0155 20.227 28.7109 19.8989 29.1093C19.5708 29.5077 19.0786 32.3437 19.0786 32.3437L14.6489 31.9687L15.0942 28.0077C15.0942 28.0077 12.6098 25.0312 13.3598 21.3749C14.1098 17.7187 22.4067 17.0859 23.063 20.4843Z" fill="#F5ABAE"/>
<path opacity="0.2" d="M17.5313 26.3906L14.0391 26.2031C14.5547 27.3047 15.1172 27.9844 15.1172 27.9844L14.6719 31.9453L19.1016 32.3203C19.1016 32.3203 19.5938 29.4844 19.9219 29.0859C20.0391 28.9453 20.3203 28.875 20.6484 28.875C18.9375 28.4062 17.3906 26.4844 17.5313 26.3906Z" fill="#020203"/>
<path d="M23.2035 21.6561C23.2035 21.6561 22.266 22.2186 20.391 20.9765C20.391 20.9765 19.1254 23.2499 18.0238 22.9452C18.0238 22.9452 17.9769 24.5624 17.7426 24.6796C17.5082 24.7968 17.0394 23.2968 16.5707 23.203C16.1019 23.1093 15.6098 23.578 16.1254 24.9843C16.6176 26.3905 17.5316 26.3905 17.5316 26.3905L15.0941 28.0077C15.0941 28.0077 13.1723 27.3983 12.7973 25.8046C12.7973 25.8046 10.3598 23.4374 11.8363 21.7499C11.8363 21.7499 10.2191 20.3905 13.9926 18.7265C13.9926 18.7265 14.8832 15.4452 16.641 16.9452C16.641 16.9452 19.8988 14.5077 20.6957 16.6874C20.6957 16.6874 24.891 16.3358 25.1488 18.6093C25.4066 20.8827 24.3988 21.4218 24.3988 21.4218C24.3988 21.4218 24.6332 23.2968 23.4613 23.3905L23.2035 21.6561Z" fill="#212226"/>
<path d="M11.5774 36.5623C11.5774 36.5623 9.37426 36.0232 9.74926 33.6795C10.1243 31.3123 13.218 30.2576 19.5696 31.7342C20.3196 31.8982 20.9055 33.1404 20.4133 34.2185C20.4133 34.2185 22.4524 39.2342 23.0852 43.3357C23.718 47.4373 24.0461 51.7263 24.7493 53.7185C25.4289 55.7107 24.8664 57.9373 22.968 57.9373C21.093 57.9373 13.6868 57.9373 11.3899 57.9373C9.09301 57.9373 8.81176 54.7498 9.72582 51.4217C10.6164 48.117 11.9524 38.9529 11.5774 36.5623Z" fill="#444496"/>
<path d="M16.735 35.2733C20.3444 36.0467 17.8366 43.2186 17.11 45.2577C16.3834 47.3202 15.5866 49.1483 16.735 50.7421C17.8834 52.3358 19.8991 54.1171 19.8991 54.1171L18.5397 56.9764C18.5397 56.9764 11.0162 56.0155 9.21156 53.7889C7.43031 51.5624 8.43812 46.5936 9.985 43.1717C11.5319 39.7499 14.0397 34.7108 16.735 35.2733Z" fill="white"/>
<path d="M18.3288 57.4689C18.235 57.422 18.2116 57.3283 18.235 57.2345L20.0631 53.2502C20.11 53.1564 20.2038 53.133 20.2975 53.1564C20.3913 53.2033 20.4147 53.297 20.3913 53.3908L18.5631 57.3751C18.5163 57.4689 18.4225 57.4923 18.3288 57.4689Z" fill="#A77071"/>
<path d="M16.6172 71.0391C16.6172 71.625 16.1484 72.1172 15.5391 72.1172C14.9531 72.1172 14.4609 71.625 14.4609 71.0391C14.4609 70.4531 14.9297 69.9609 15.5391 69.9609C16.1484 69.9844 16.6172 70.4531 16.6172 71.0391Z" fill="#59BCAB"/>
<path d="M9.91406 70.7578C8.41406 70.7578 7.19531 69.5391 7.19531 68.0391C7.19531 66.5391 8.41406 65.3203 9.91406 65.3203C11.4141 65.3203 12.6328 66.5391 12.6328 68.0391C12.6328 69.5391 11.4141 70.7578 9.91406 70.7578ZM9.91406 66.75C9.1875 66.75 8.625 67.3359 8.625 68.0391C8.625 68.7422 9.21094 69.3281 9.91406 69.3281C10.6406 69.3281 11.2031 68.7422 11.2031 68.0391C11.2031 67.3359 10.6406 66.75 9.91406 66.75Z" fill="#FCC450"/>
<path d="M88.0781 17.5781H87.1875V18.4922C87.1875 18.9141 86.8594 19.2422 86.4375 19.2422C86.0156 19.2422 85.6875 18.9141 85.6875 18.4922V17.5781H84.7734C84.3516 17.5781 84.0234 17.25 84.0234 16.8281C84.0234 16.4063 84.3516 16.0781 84.7734 16.0781H85.6875V15.1641C85.6875 14.7422 86.0156 14.4141 86.4375 14.4141C86.8594 14.4141 87.1875 14.7422 87.1875 15.1641V16.0781H88.1016C88.5234 16.0781 88.8516 16.4063 88.8516 16.8281C88.8281 17.25 88.5 17.5781 88.0781 17.5781Z" fill="#59BCAB"/>
<path d="M95.4375 12.8437C95.4375 13.4297 94.9687 13.9219 94.3594 13.9219C93.7734 13.9219 93.2812 13.4531 93.2812 12.8437C93.2812 12.2578 93.7734 11.7656 94.3594 11.7656C94.9453 11.7656 95.4375 12.2344 95.4375 12.8437Z" fill="#345185"/>
<path d="M39.9611 36.9609C36.7267 28.8516 38.3908 19.2656 44.9533 12.7031C48.1173 9.53906 51.9845 7.5 56.0626 6.63281L58.4767 17.5781C53.3908 18.6797 49.5939 23.2031 49.5939 28.6172C49.5939 30.0938 49.8751 31.5 50.3908 32.8125L39.9611 36.9609Z" fill="#345185"/>
<path d="M44.9531 44.5312C44.7891 44.3672 44.6016 44.1797 44.4375 43.9922L52.6172 36.3281C54.6797 38.5312 57.6094 39.8906 60.8672 39.8906C67.1016 39.8906 72.1641 34.8281 72.1641 28.5937C72.1641 24.1406 69.6094 20.2969 65.8594 18.4687L70.8281 8.41406C72.9844 9.46875 75 10.8984 76.7813 12.6797C85.5703 21.4687 85.5703 35.7422 76.7813 44.5312C68.0156 53.3203 53.7422 53.3203 44.9531 44.5312Z" fill="white"/>
<path d="M60.8906 17.3201C60.0469 17.3201 59.25 17.4139 58.4766 17.578L56.0859 6.63265C61.0078 5.55452 66.2344 6.14046 70.8515 8.43733L65.8828 18.492C64.3828 17.7186 62.6719 17.3201 60.8906 17.3201Z" fill="#59BCAB"/>
<path d="M44.4375 43.9922C42.4688 41.8828 40.9687 39.4922 39.9609 36.9609L50.3906 32.8125C50.9062 34.125 51.6797 35.3203 52.6406 36.3516L44.4375 43.9922Z" fill="#C1E4EE"/>
<path d="M112.195 23.6016V99.0234C112.195 100.289 111.164 101.32 109.898 101.32H61.6641C60.3984 101.32 59.3672 100.289 59.3672 99.0234V23.6016C59.3672 22.3359 60.3984 21.2812 61.6641 21.2812H109.875C111.164 21.2812 112.195 22.3125 112.195 23.6016Z" fill="#4FBECB"/>
<path d="M54.0469 103.477H117.516C118.102 103.477 118.594 103.008 118.594 102.398C118.594 101.813 118.125 101.32 117.516 101.32H54.0469C53.4609 101.32 52.9688 101.789 52.9688 102.398C52.9688 103.008 53.4609 103.477 54.0469 103.477Z" fill="#E2E2E1"/>
<path d="M112.195 23.5781V29.2031H59.3672V23.5781C59.3672 22.3125 60.3984 21.2578 61.6641 21.2578H109.875C111.164 21.2812 112.195 22.3125 112.195 23.5781Z" fill="#4FBECB"/>
<path d="M85.7813 99.3281C84.5859 99.3281 83.625 98.3672 83.625 97.1719C83.625 95.9766 84.5859 95.0156 85.7813 95.0156C86.9766 95.0156 87.9375 95.9766 87.9375 97.1719C87.9609 98.3672 86.9766 99.3281 85.7813 99.3281Z" fill="#E6F2EA"/>
<path d="M65.4609 26.0625C64.9687 26.0625 64.5703 25.6641 64.5703 25.1719C64.5703 24.6797 64.9687 24.2812 65.4609 24.2812C65.9531 24.2812 66.3516 24.6797 66.3516 25.1719C66.3281 25.6641 65.9297 26.0625 65.4609 26.0625Z" fill="#E6F2EA"/>
<path d="M68.25 26.0625C67.7578 26.0625 67.3594 25.6641 67.3594 25.1719C67.3594 24.6797 67.7578 24.2812 68.25 24.2812C68.7422 24.2812 69.1406 24.6797 69.1406 25.1719C69.1406 25.6641 68.7422 26.0625 68.25 26.0625Z" fill="#E6F2EA"/>
<path d="M111.375 29.2031H60.1875V92.6953H111.375V29.2031Z" fill="#D2EBF7"/>
<path d="M69.3496 50.4844V42.9609H52.4043V50.4844H69.3496Z" fill="#A9DAE5"/>
<path d="M79.6895 69.6289V62.1055H62.7441V69.6289H79.6895Z" fill="#A9DAE5"/>
<path d="M74.5312 60.0689V52.5454H57.5859V60.0689H74.5312Z" fill="#A9DAE5"/>
<path d="M108.445 31.875H62.7422V40.4297H108.445V31.875Z" fill="#EDF6F4"/>
<path d="M107.062 33.0938H100.992V39.1641H107.062V33.0938Z" fill="#D2E8F2"/>
<path d="M78.8438 33.4688H65.6953V34.6406H78.8438V33.4688Z" fill="#ACD8C8"/>
<path d="M78.8438 35.5547H65.6953V36.7266H78.8438V35.5547Z" fill="#ACD8C8"/>
<path d="M74.5547 37.6406H65.6953V38.8125H74.5547V37.6406Z" fill="#ACD8C8"/>
<path opacity="0.5" d="M117.07 68.4141H79.6875V85.9688H117.07V68.4141Z" fill="#96CEB8"/>
<path d="M98.0859 74.4844H83.4141V75.9609H98.0859V74.4844Z" fill="#E6F2EA"/>
<path d="M94.5938 77.1094H83.4141V78.5859H94.5938V77.1094Z" fill="#E6F2EA"/>
<path d="M90.9609 79.7578H83.4141V81.2344H90.9609V79.7578Z" fill="#E6F2EA"/>
<path d="M96.3984 79.7578H91.8984V81.2344H96.3984V79.7578Z" fill="#E6F2EA"/>
<path d="M93.6094 82.3828H83.4141V83.8594H93.6094V82.3828Z" fill="#E6F2EA"/>
<path d="M76.2422 72.4453H62.7422V85.9453H76.2422V72.4453Z" fill="#9FD2BA"/>
<path d="M72.4785 82.2233C74.126 80.5758 74.126 77.9047 72.4785 76.2572C70.831 74.6096 68.1599 74.6096 66.5124 76.2572C64.8649 77.9047 64.8649 80.5758 66.5124 82.2233C68.1599 83.8708 70.831 83.8708 72.4785 82.2233Z" fill="#7CC39E"/>
<path d="M72.7051 79.2422C72.7051 80.2969 72.1895 81.2344 71.3926 81.8203C71.1582 81.9844 70.9004 82.1484 70.6191 82.2422C70.5019 82.2891 70.3613 82.3359 70.2441 82.3594C70.1738 82.3828 70.0801 82.3828 70.0098 82.4063C69.8457 82.4297 69.6816 82.4531 69.5176 82.4531C69.1895 82.4531 68.8613 82.4063 68.5566 82.3125C67.2441 81.9141 66.3066 80.6953 66.3066 79.2422C66.3066 78.75 66.4238 78.2578 66.6348 77.8359C66.8926 77.3203 67.2676 76.875 67.7363 76.5703C67.8535 76.5 67.9707 76.4297 68.0879 76.3594C68.3457 76.2187 68.627 76.125 68.9316 76.0781C69.1191 76.0313 69.3301 76.0312 69.5176 76.0312C70.877 76.0312 72.0488 76.875 72.4941 78.0703C72.6113 78.4453 72.7051 78.8203 72.7051 79.2422Z" fill="#EFF4F4"/>
<path d="M69.4941 79.6172C69.2832 79.6172 69.1191 79.4531 69.1191 79.2422V77.1797C69.1191 76.9687 69.2832 76.8047 69.4941 76.8047C69.7051 76.8047 69.8691 76.9687 69.8691 77.1797V79.2422C69.8691 79.4531 69.7051 79.6172 69.4941 79.6172Z" fill="#C1D6CF"/>
<path d="M69.4937 79.6168C69.3765 79.6168 69.2594 79.5465 69.1891 79.4527C69.0719 79.2887 69.1422 79.0543 69.3062 78.9371L70.3609 78.2574C70.525 78.1402 70.7593 78.2105 70.8765 78.3746C70.9937 78.5387 70.9234 78.773 70.7593 78.8902L69.7047 79.5699C69.6344 79.5934 69.564 79.6168 69.4937 79.6168Z" fill="#C1D6CF"/>
<path d="M108.445 42.9609H81.7734V69.6328H108.445V42.9609Z" fill="#98D5E9"/>
<path d="M95.1094 57.4922C93.2344 57.4922 91.7109 55.9687 91.7109 54.0937V52.0547C91.7109 50.1797 93.2344 48.6562 95.1094 48.6562C96.9844 48.6562 98.5078 50.1797 98.5078 52.0547V54.0937C98.5078 55.9687 96.9844 57.4922 95.1094 57.4922Z" fill="#F8FCFA"/>
<path d="M95.1103 55.7578C91.8993 55.7578 89.1571 57.6328 87.8681 60.3516C87.1181 61.9453 88.2665 63.7734 90.0243 63.7734H100.22C101.977 63.7734 103.126 61.9453 102.376 60.3516C101.087 57.6328 98.3212 55.7578 95.1103 55.7578Z" fill="#F8FCFA"/>
<path d="M108.439 89.0283V86.8486L62.7363 86.8486V89.0283L108.439 89.0283Z" fill="#FFE1AB"/>
<path d="M111.867 42.0938V34.1484C112.43 34.1484 112.898 34.6172 112.898 35.1797V41.0859C112.898 41.6484 112.43 42.0938 111.867 42.0938Z" fill="#4FBECB"/>
<path d="M111.867 50.9766V43.0312C112.43 43.0312 112.898 43.5 112.898 44.0625V49.9687C112.898 50.5078 112.43 50.9766 111.867 50.9766Z" fill="#4FBECB"/>
<path opacity="0.3" d="M89.8828 29.2031L60.1875 58.8984V42.9375L73.9219 29.2031H89.8828Z" fill="#F6FBFD"/>
<path opacity="0.3" d="M100.992 29.2031L60.1875 70.0078V62.0391L93.0234 29.2031H100.992Z" fill="#F6FBFD"/>
<path opacity="0.3" d="M70.7812 74.9062V81.75C70.7812 82.0312 70.5937 82.2891 70.3359 82.3594V101.297H61.6875C60.4219 101.297 59.3906 100.266 59.3906 99V60.9609H68.7422C69.6328 60.9609 70.3359 61.6875 70.3359 62.5547V74.2969C70.5937 74.3906 70.7812 74.625 70.7812 74.9062Z" fill="#385F82"/>
<path d="M64.1953 57.7969V110.156C64.1953 111.047 63.4687 111.75 62.6016 111.75H35.1094C34.2422 111.75 33.5156 111.047 33.5156 110.156V57.7969C33.5156 56.9063 34.2422 56.2031 35.1094 56.2031H62.5781C63.4687 56.2031 64.1953 56.9063 64.1953 57.7969Z" fill="#5BB98E"/>
<path d="M64.1953 57.7969V61.7109H33.5156V57.7969C33.5156 56.9062 34.2422 56.2031 35.1094 56.2031H62.6016C63.4687 56.2031 64.1953 56.9297 64.1953 57.7969Z" fill="#5BB98E"/>
<path d="M48.8437 110.391C48.0234 110.391 47.3438 109.711 47.3438 108.891C47.3438 108.07 48.0234 107.391 48.8437 107.391C49.6641 107.391 50.3437 108.07 50.3437 108.891C50.3437 109.711 49.6875 110.391 48.8437 110.391Z" fill="#E6F2EA"/>
<path d="M43.2891 59.5078C42.9609 59.5078 42.6797 59.2266 42.6797 58.8984C42.6797 58.5703 42.9609 58.2891 43.2891 58.2891C43.6172 58.2891 43.8984 58.5703 43.8984 58.8984C43.8984 59.25 43.6406 59.5078 43.2891 59.5078Z" fill="#E6F2EA"/>
<path d="M51.9375 59.1328H45.8672C45.75 59.1328 45.6328 59.0391 45.6328 58.8984C45.6328 58.7578 45.7266 58.6641 45.8672 58.6641H51.9375C52.0547 58.6641 52.1719 58.7578 52.1719 58.8984C52.1719 59.0391 52.0547 59.1328 51.9375 59.1328Z" fill="#E6F2EA"/>
<path d="M63.6094 61.7109H34.0781V105.797H63.6094V61.7109Z" fill="#D2EBF7"/>
<path d="M41.8125 85.1484H36.4453V86.8359H41.8125V85.1484Z" fill="#EDF6F4"/>
<path d="M55.4766 85.1484H50.1094V86.8359H55.4766V85.1484Z" fill="#EDF6F4"/>
<path d="M48.6328 85.1484H43.2656V86.8359H48.6328V85.1484Z" fill="#EDF6F4"/>
<path d="M61.2891 88.2188H39.6797V94.1484H61.2891V88.2188Z" fill="#EDF6F4"/>
<path d="M60.3281 89.0625H56.1094V93.2812H60.3281V89.0625Z" fill="#D5EAE4"/>
<path d="M47.6953 89.3203H38.5547V90.1406H47.6953V89.3203Z" fill="#ACD8C8"/>
<path d="M47.6953 90.7734H38.5547V91.5938H47.6953V90.7734Z" fill="#ACD8C8"/>
<path d="M44.6953 92.2266H38.5547V93.0469H44.6953V92.2266Z" fill="#ACD8C8"/>
<path d="M52.2891 95.625H36.4922V103.031H52.2891V95.625Z" fill="#EDF6F4"/>
<path d="M46.6172 96.75H38.5547V97.5703H46.6172V96.75Z" fill="#FFE1AB"/>
<path d="M44.6953 98.1797H38.5547V99H44.6953V98.1797Z" fill="#FFE1AB"/>
<path d="M42.7031 99.6328H38.5547V100.453H42.7031V99.6328Z" fill="#FFE1AB"/>
<path d="M45.6797 99.6328H43.2188V100.453H45.6797V99.6328Z" fill="#ACD8C8"/>
<path d="M44.1562 101.086H38.5547V101.906H44.1562V101.086Z" fill="#FFE1AB"/>
<path opacity="0.5" d="M55.5 64.4531H32.25V83.4141H55.5V64.4531Z" fill="#FFE1AB"/>
<path d="M46.0078 79.9453C49.2956 79.9453 51.9609 77.28 51.9609 73.9922C51.9609 70.7044 49.2956 68.0391 46.0078 68.0391C42.72 68.0391 40.0547 70.7044 40.0547 73.9922C40.0547 77.28 42.72 79.9453 46.0078 79.9453Z" fill="#FCC450"/>
<path d="M50.5078 73.9922C50.5078 75.4922 49.7812 76.8047 48.6797 77.625C48.3516 77.8594 47.9766 78.0703 47.5781 78.2109C47.4141 78.2813 47.2266 78.3281 47.0391 78.375C46.9219 78.3984 46.8047 78.4219 46.7109 78.4453C46.4766 78.4922 46.2422 78.4922 46.0078 78.4922C45.5391 78.4922 45.0938 78.4219 44.6719 78.2813C42.8438 77.7188 41.5078 75.9844 41.5078 73.9688C41.5078 73.2656 41.6719 72.6094 41.9531 72C42.3047 71.2734 42.8437 70.6406 43.5234 70.1953C43.6875 70.0781 43.8516 69.9844 44.0156 69.9141C44.3906 69.7266 44.7891 69.5859 45.1875 69.5156C45.4688 69.4688 45.7266 69.4453 46.0078 69.4453C47.9297 69.4453 49.5703 70.6406 50.2031 72.3281C50.4141 72.8672 50.5078 73.4297 50.5078 73.9922Z" fill="#EFF4F4"/>
<path d="M46.0078 74.5313C45.7266 74.5313 45.4922 74.2969 45.4922 74.0156V71.1328C45.4922 70.8516 45.7266 70.6172 46.0078 70.6172C46.2891 70.6172 46.5234 70.8516 46.5234 71.1328V74.0156C46.5234 74.2969 46.2891 74.5313 46.0078 74.5313Z" fill="#C1D6CF"/>
<path d="M46.0083 74.5313C45.8443 74.5313 45.6568 74.4376 45.563 74.2969C45.399 74.0626 45.4927 73.7344 45.7271 73.5704L47.2271 72.6329C47.4615 72.4688 47.7896 72.5625 47.9536 72.7969C48.1177 73.0313 48.024 73.3594 47.7896 73.5235L46.2896 74.461C46.1958 74.5079 46.1021 74.5313 46.0083 74.5313Z" fill="#C1D6CF"/>
<path opacity="0.3" d="M54.7031 61.7109L34.0781 82.3125V71.25L43.6172 61.7109H54.7031Z" fill="#F6FBFD"/>
<path opacity="0.3" d="M62.4141 61.7109L34.0781 90.0469V84.4922L56.8594 61.7109H62.4141Z" fill="#F6FBFD"/>
<g opacity="0.7">
<path opacity="0.7" d="M65.3203 95.625H53.8828V107.062H65.3203V95.625Z" fill="#9FD2BA"/>
<path opacity="0.7" d="M59.5781 101.859C58.7812 101.859 58.125 101.203 58.125 100.406V99.5391C58.125 98.7422 58.7812 98.0859 59.5781 98.0859C60.375 98.0859 61.0313 98.7422 61.0313 99.5391V100.406C61.0547 101.203 60.3984 101.859 59.5781 101.859Z" fill="#F8FCFA"/>
<path opacity="0.7" d="M59.5781 101.109C58.1953 101.109 57.0234 101.906 56.4609 103.078C56.1328 103.758 56.625 104.555 57.375 104.555H61.7343C62.4843 104.555 62.9765 103.758 62.6484 103.078C62.1562 101.906 60.9609 101.109 59.5781 101.109Z" fill="#F8FCFA"/>
</g>
<path d="M60.9844 64.4531H57.5859V86.8359H60.9844V64.4531Z" fill="#9FD2BA"/>
<path d="M63.9609 77.6719V69.4922C64.3359 69.4922 64.6406 69.7969 64.6406 70.1719V77.0156C64.6406 77.3672 64.3359 77.6719 63.9609 77.6719Z" fill="#5BB98E"/>
<path opacity="0.3" d="M43.4297 56.2031L40.6172 64.4531L34.1484 83.4141L33.5156 85.2891V83.4141H32.2734V64.4531H33.5156V57.7969C33.5156 56.9063 34.2422 56.2031 35.1094 56.2031H43.4297V56.2031Z" fill="#385F82"/>
<path d="M18.2109 113.906H68.5078C69.0937 113.906 69.5859 113.437 69.5859 112.828C69.5859 112.242 69.1172 111.75 68.5078 111.75H18.2109C17.625 111.75 17.1328 112.219 17.1328 112.828C17.1563 113.437 17.625 113.906 18.2109 113.906Z" fill="#E2E2E1"/>
</svg>
