<svg width="120" height="120" viewBox="0 0 120 120" fill="none" xmlns="http://www.w3.org/2000/svg">
<path d="M6.64667 90.4819L48.4467 114.773C49.3326 115.29 50.7598 115.29 51.6457 114.782L115.159 78.1073C116.045 77.5987 116.045 76.7702 115.159 76.2534L73.3594 51.962C72.4817 51.4534 71.0544 51.4534 70.1685 51.962L6.65488 88.6282C5.76897 89.1449 5.76076 89.9734 6.64667 90.4819Z" fill="#AABAFD"/>
<path d="M56.0415 92.9504C55.542 93.2388 55.545 93.7086 56.0412 93.997L66.3451 99.9849C66.8413 100.273 67.6525 100.277 68.152 99.9882L88.4568 88.2652C88.9563 87.9768 88.9533 87.507 88.4571 87.2186L78.1532 81.2306C77.6569 80.9422 76.8458 80.939 76.3464 81.2274L56.0415 92.9504Z" fill="#2E4277"/>
<path d="M5.99023 89.563L5.99844 92.0082C5.99844 92.3363 6.21989 92.6726 6.65465 92.9269L48.4546 117.218C49.3405 117.727 50.7678 117.727 51.6537 117.218L115.167 80.5522C115.61 80.2979 115.832 79.9616 115.832 79.6171L115.824 77.1802C115.824 77.5165 115.602 77.8528 115.159 78.1071L51.6455 114.781C50.7596 115.29 49.3323 115.29 48.4464 114.773L6.64644 90.4817C6.20352 90.2275 5.99023 89.8994 5.99023 89.563Z" fill="#798FFE"/>
<path d="M70.0453 3.59433C70.9304 3.08335 71.6502 3.49353 71.6531 4.51056L71.7664 49.1953C71.7692 50.2063 71.0541 51.451 70.169 51.962L7.57063 88.0997C6.68556 88.6107 5.96573 88.1945 5.96285 87.1835L5.84962 42.4988C5.84674 41.4818 6.56189 40.2431 7.44696 39.7321L70.0453 3.59433Z" fill="#1B2A4F"/>
<path d="M4.16797 41.5248L4.28281 86.2078C4.28281 86.7081 4.46329 87.0691 4.75038 87.2331L6.42927 88.2095C6.14214 88.0455 5.96171 87.6846 5.96171 87.1841L5.84686 42.5012C5.84686 41.484 6.56051 40.2454 7.44642 39.7286L70.0451 3.59495C70.4881 3.34067 70.89 3.31609 71.1853 3.48011L69.5064 2.50376C69.2193 2.3397 68.8092 2.36427 68.3663 2.61855L5.76752 38.7605C4.88161 39.269 4.16797 40.5077 4.16797 41.5248Z" fill="#384E85"/>
<path d="M8.10742 41.9537L8.21636 85.1219L69.5055 49.74L69.3965 6.57178L8.10742 41.9537Z" fill="#384E85"/>
<path d="M8.10742 41.9537L8.12571 49.1942L69.4148 13.8123L69.3965 6.57178L8.10742 41.9537Z" fill="#AABAFD"/>
<path d="M59.2924 15.138C59.8833 14.7969 60.3636 15.0589 60.3655 15.7378C60.3674 16.4167 59.8902 17.2434 59.2993 17.5846C58.7186 17.9198 58.2383 17.646 58.2363 16.9671C58.2344 16.2882 58.7117 15.4732 59.2924 15.138Z" fill="white"/>
<path d="M62.7049 13.1674C63.2856 12.8321 63.7659 13.0941 63.7679 13.7731C63.7698 14.452 63.2925 15.2787 62.7118 15.6139C62.121 15.9551 61.6406 15.6813 61.6387 15.0024C61.6368 14.3234 62.114 13.5085 62.7049 13.1674Z" fill="white"/>
<path d="M66.1072 11.2029C66.6981 10.8618 67.1785 11.1238 67.1804 11.8028C67.1823 12.4817 66.7051 13.3084 66.1142 13.6495C65.5233 13.9906 65.0429 13.7169 65.041 13.0379C65.0391 12.359 65.5164 11.5441 66.1072 11.2029Z" fill="white"/>
<path d="M19.465 87.4832L15.4529 89.8148L13.7246 88.8169L17.7367 86.4854L19.465 87.4832Z" fill="#384E85"/>
<path d="M62.6346 62.3958L58.617 64.7305L56.8887 63.7327L60.9062 61.3979L62.6346 62.3958Z" fill="#384E85"/>
<path d="M73.4275 56.1238L69.41 58.4586L67.6816 57.4607L71.6992 55.126L73.4275 56.1238Z" fill="#384E85"/>
<path d="M66.226 70.7242L62.2139 73.0558L58.6465 70.9961L62.6585 68.6646L66.226 70.7242Z" fill="#384E85"/>
<path d="M86.0144 69.6459L81.9968 71.9806L78.4238 69.9178L82.4414 67.583L86.0144 69.6459Z" fill="#384E85"/>
<path d="M91.4128 66.5085L87.3953 68.8432L79.3242 64.1834L83.3418 61.8486L91.4128 66.5085Z" fill="#384E85"/>
<path d="M77.924 58.7206L70.5163 63.0255L66.9434 60.9626L74.351 56.6577L77.924 58.7206Z" fill="#384E85"/>
<path d="M69.1413 63.8251L65.1238 66.1598L61.5508 64.097L65.5683 61.7622L69.1413 63.8251Z" fill="#384E85"/>
<path d="M82.4175 61.3145L73.001 66.7868L69.4336 64.7272L78.8501 59.2549L82.4175 61.3145Z" fill="#384E85"/>
<path d="M71.624 67.586L67.6065 69.9208L64.0391 67.8611L68.0566 65.5264L71.624 67.586Z" fill="#384E85"/>
<path d="M76.1237 70.183L72.1062 72.5177L68.5332 70.4549L72.5508 68.1201L76.1237 70.183Z" fill="#384E85"/>
<path d="M63.7429 66.9627L59.7253 69.2975L56.1523 67.2346L60.1699 64.8999L63.7429 66.9627Z" fill="#384E85"/>
<path d="M57.2365 65.533L53.2244 67.8646L51.4961 66.8667L55.5082 64.5352L57.2365 65.533Z" fill="#384E85"/>
<path d="M51.8416 68.6678L47.824 71.0025L46.0957 70.0047L50.1133 67.6699L51.8416 68.6678Z" fill="#384E85"/>
<path d="M54.5378 82.7269L50.5202 85.0617L46.9473 82.9988L50.9648 80.6641L54.5378 82.7269Z" fill="#384E85"/>
<path d="M46.4435 71.805L42.4314 74.1365L40.7031 73.1387L44.7152 70.8071L46.4435 71.805Z" fill="#384E85"/>
<path d="M52.9503 73.2347L48.9382 75.5663L45.3652 73.5034L49.3773 71.1719L52.9503 73.2347Z" fill="#384E85"/>
<path d="M41.0506 74.9393L37.033 77.274L35.3047 76.2762L39.3223 73.9414L41.0506 74.9393Z" fill="#384E85"/>
<path d="M47.5573 76.369L43.5398 78.7038L39.9668 76.6409L43.9843 74.3062L47.5573 76.369Z" fill="#384E85"/>
<path d="M55.435 76.9957L51.4229 79.3272L47.8555 77.2676L51.8675 74.936L55.435 76.9957Z" fill="#384E85"/>
<path d="M35.658 78.0735L31.6404 80.4083L29.9121 79.4104L33.9297 77.0757L35.658 78.0735Z" fill="#384E85"/>
<path d="M42.1648 79.5033L38.1472 81.8381L34.5742 79.7752L38.5918 77.4404L42.1648 79.5033Z" fill="#384E85"/>
<path d="M59.9327 79.5927L55.9206 81.9242L52.3477 79.8613L56.3597 77.5298L59.9327 79.5927Z" fill="#384E85"/>
<path d="M50.042 80.13L46.0245 82.4647L42.457 80.405L46.4746 78.0703L50.042 80.13Z" fill="#384E85"/>
<path d="M30.2576 81.2112L26.24 83.546L24.5117 82.5481L28.5293 80.2134L30.2576 81.2112Z" fill="#384E85"/>
<path d="M36.7644 82.641L32.7468 84.9757L29.1738 82.9129L33.1914 80.5781L36.7644 82.641Z" fill="#384E85"/>
<path d="M44.6475 83.2642L40.6299 85.599L37.0625 83.5393L41.08 81.2046L44.6475 83.2642Z" fill="#384E85"/>
<path d="M31.3718 85.7753L27.3542 88.11L23.7812 86.0472L27.7988 83.7124L31.3718 85.7753Z" fill="#384E85"/>
<path d="M49.1452 85.8612L45.1277 88.1959L41.5547 86.1331L45.5723 83.7983L49.1452 85.8612Z" fill="#384E85"/>
<path d="M39.2491 86.4019L35.2315 88.7367L31.6641 86.677L35.6816 84.3423L39.2491 86.4019Z" fill="#384E85"/>
<path d="M43.7468 88.9989L39.7292 91.3336L36.1562 89.2708L40.1738 86.936L43.7468 88.9989Z" fill="#384E85"/>
<path d="M64.6618 82.0555L44.2273 93.9308L40.6543 91.8679L61.0888 79.9927L64.6618 82.0555Z" fill="#384E85"/>
<path d="M38.3542 92.1332L34.3366 94.4679L30.7637 92.4051L34.7812 90.0703L38.3542 92.1332Z" fill="#384E85"/>
<path d="M33.8554 89.5362L24.4444 95.0053L20.877 92.9456L30.288 87.4766L33.8554 89.5362Z" fill="#384E85"/>
<path d="M32.9542 95.2709L28.9421 97.6024L25.3691 95.5396L29.3812 93.208L32.9542 95.2709Z" fill="#384E85"/>
<path d="M42.8512 94.7304L33.4402 100.199L29.8672 98.1366L39.2782 92.6675L42.8512 94.7304Z" fill="#384E85"/>
<path d="M24.8631 84.3455L20.8455 86.6802L19.1172 85.6824L23.1348 83.3477L24.8631 84.3455Z" fill="#384E85"/>
<path d="M68.0271 59.2615L64.0096 61.5962L62.2812 60.5984L66.2988 58.2637L68.0271 59.2615Z" fill="#384E85"/>
<path d="M58.3484 70.097L54.3308 72.4318L50.7578 70.3689L54.7754 68.0342L58.3484 70.097Z" fill="#384E85"/>
<path d="M69.8289 79.0521L65.8113 81.3869L62.2383 79.324L66.2559 76.9893L69.8289 79.0521Z" fill="#384E85"/>
<path d="M65.3308 76.4554L61.3132 78.7902L57.7402 76.7273L61.7578 74.3926L65.3308 76.4554Z" fill="#384E85"/>
<path d="M60.833 73.858L56.8155 76.1928L53.248 74.1331L57.2656 71.7983L60.833 73.858Z" fill="#384E85"/>
<path d="M80.6218 72.7802L76.6042 75.1149L73.0312 73.052L77.0488 70.7173L80.6218 72.7802Z" fill="#384E85"/>
<path d="M75.2218 75.9179L71.2097 78.2494L67.6367 76.1865L71.6488 73.855L75.2218 75.9179Z" fill="#384E85"/>
<path d="M25.9727 88.9125L19.9519 92.4114L16.3789 90.3486L22.3997 86.8496L25.9727 88.9125Z" fill="#384E85"/>
<path d="M13.8059 53.3635C14.5838 52.9144 15.0431 53.0127 15.3718 53.3104L14.9303 54.0263C14.6479 53.7417 14.2854 53.7649 13.8425 54.0206C12.9414 54.5408 12.3699 55.673 12.373 56.7616C12.3761 57.8457 12.9521 58.3242 13.8533 57.8039C14.2961 57.5483 14.6575 57.1402 14.9374 56.5397L15.3816 56.7487C15.0556 57.4288 14.5984 58.0563 13.8205 58.5054C12.5497 59.2391 11.6916 58.6087 11.6875 57.1573C11.6834 55.7059 12.5351 54.0972 13.8059 53.3635Z" fill="#D9DDF6"/>
<path d="M16.6712 55.721C16.933 55.5698 17.1571 55.6975 17.1579 55.9984C17.1588 56.3037 16.9362 56.6849 16.6743 56.8361C16.4086 56.9895 16.1884 56.864 16.1875 56.5587C16.1867 56.2578 16.4054 55.8744 16.6712 55.721Z" fill="#D9DDF6"/>
<path d="M17.0033 52.5211C17.1931 52.1945 17.1936 51.8406 17.0045 51.7307C16.8153 51.6208 16.5081 51.7964 16.3183 52.123C16.1285 52.4496 16.128 52.8035 16.3171 52.9134C16.5063 53.0233 16.8135 52.8477 17.0033 52.5211Z" fill="#D9DDF6"/>
<path d="M18.1449 48.9087L20.2563 54.87L19.7364 55.1701L17.625 49.2089L18.1449 48.9087Z" fill="#D9DDF6"/>
<path d="M22.2592 45.8462L25.9449 47.951L22.2831 54.298L21.692 53.9611L24.7742 48.6269L21.6719 46.8634L22.2592 45.8462Z" fill="#D9DDF6"/>
<path d="M30.0599 47.9595L30.0643 49.5436L26.2096 51.7692L26.2051 50.185L30.0599 47.9595Z" fill="#D9DDF6"/>
</svg>
