<svg width="120" height="120" viewBox="0 0 120 120" fill="none" xmlns="http://www.w3.org/2000/svg">
<path d="M44.9289 23.7418C42.5852 24.7261 33.5149 28.4996 28.4524 38.273C27.3742 40.3589 22.3117 50.1324 26.0383 58.7574C30.9836 70.1949 46.0305 67.4058 52.9446 78.1636C58.8742 87.4214 46.5696 96.5152 51.8664 107.531C54.6321 113.273 61.0071 118.078 66.8899 118.523C85.2883 119.906 118.335 80.273 104.905 49.1714C95.1086 26.5777 63.8899 15.8433 44.9289 23.7418Z" fill="url(#paint0_linear_467_7303)"/>
<path d="M82.4288 41.5074L48.5616 28.9449C47.5304 28.5699 46.4054 29.0856 46.0304 30.1168L23.1554 91.6871C22.7804 92.7184 23.296 93.8434 24.3273 94.2184L58.1944 106.781C59.2257 107.156 60.3507 106.64 60.7257 105.609L83.6007 44.0152C83.9757 43.0074 83.4601 41.8824 82.4288 41.5074Z" fill="#2D548D"/>
<path opacity="0.09" d="M62.132 73.0546C61.2883 73.0546 60.4211 73.0312 59.5305 72.9843C46.382 72.2578 35.6477 66.3984 30.8195 57.3281C23.1086 42.8437 30.6789 22.664 42.2805 16.3125C48.1398 13.0781 53.2258 13.1718 56.4602 13.8281C61.9914 14.9297 66.0695 17.4843 67.9445 21C69.9602 24.7734 68.882 28.3125 67.7336 32.039C66.7023 35.3906 65.6477 38.8359 66.9133 42.5625C68.0383 45.8906 70.968 46.9218 74.0852 48.0234C77.2492 49.1484 80.5305 50.2968 82.2883 53.9296C84.1398 57.7734 83.9055 63.0234 81.7727 66.1875C78.8664 70.4062 71.1789 73.0546 62.132 73.0546ZM52.8039 13.7343C49.9211 13.7343 46.3352 14.3906 42.4211 16.5468C30.9367 22.8515 23.4367 42.8671 31.0773 57.2109C35.8586 66.2109 46.5227 71.9999 59.5773 72.7265C69.6086 73.289 78.4445 70.5937 81.5617 66.0468C83.6477 62.9765 83.882 57.8203 82.0539 54.0703C80.343 50.5312 77.132 49.4062 74.0148 48.3046C70.8508 47.1796 67.8508 46.125 66.6789 42.6796C65.3898 38.8593 66.468 35.3671 67.4992 31.9687C68.6242 28.289 69.7023 24.7968 67.7336 21.1172C65.9055 17.6718 61.8742 15.164 56.4367 14.0859C55.382 13.875 54.1633 13.7343 52.8039 13.7343Z" fill="#AAAAD5"/>
<path opacity="0.2" d="M74.2266 38.4604L70.4766 40.9683L37.7344 62.9526L32.5547 66.4448L39.6797 47.2026L44.8828 43.7104L56.625 35.812L60.375 33.3042L74.2266 38.4604Z" fill="#EEEDF3"/>
<path opacity="0.2" d="M81.6797 41.2261L77.9297 43.7339L33.8906 73.312L28.6875 76.7808L31.2187 70.0073L36.3984 66.5386V66.5151L73.0547 41.9292L76.8047 39.3979L81.6797 41.2261Z" fill="#EEEDF3"/>
<path d="M82.4283 41.5074L81.6783 41.2262L76.8033 39.4215L74.2251 38.4606L60.3736 33.3277L48.5611 28.9449C47.5533 28.5699 46.4048 29.0856 46.0298 30.1168L39.6783 47.2262L32.5298 66.4684L31.1939 70.0543L28.6861 76.8277L23.1548 91.734C23.0845 91.9215 23.0611 92.109 23.0376 92.2965C22.9673 93.1402 23.4829 93.9606 24.3267 94.2652L30.6079 96.609L35.3423 98.3668L47.8579 103.007L52.4283 104.695L58.1939 106.828C59.2017 107.203 60.3501 106.687 60.7251 105.679L83.1783 45.2106L83.6001 44.0856C83.9751 43.0074 83.4595 41.8824 82.4283 41.5074ZM79.2173 45.3277L78.7486 46.6168L59.4126 98.7184C59.2017 99.2574 58.5923 99.5621 58.0298 99.3512L53.7876 97.7809L48.6548 95.8824L38.0611 91.9449L33.2095 90.1402L29.3423 88.7106C28.9204 88.5465 28.6626 88.1715 28.6626 87.7496C28.6626 87.609 28.6626 87.4684 28.7329 87.3277L33.9361 73.3356L36.4439 66.5621L37.7798 62.9762L44.9283 43.734L48.5611 33.9606C48.772 33.4215 49.3814 33.1168 49.9204 33.3277L56.6704 35.8356L70.522 40.9684L73.1001 41.9293L77.9751 43.734L78.6079 43.9684C79.147 44.1793 79.4283 44.7887 79.2173 45.3277Z" fill="#EEEDF3"/>
<path d="M40.3108 97.9685C39.3498 97.6169 38.8577 96.5388 39.2092 95.5779C39.5608 94.6169 40.6389 94.1247 41.5998 94.4763C42.5608 94.8279 43.053 95.906 42.7014 96.8669C42.3264 97.8513 41.2483 98.3201 40.3108 97.9685Z" fill="#C9C7D9"/>
<path opacity="0.1" d="M62.9522 5.17929L15.6788 20.8355C14.5304 21.2105 13.921 22.4527 14.296 23.5777L18.8897 37.4059C19.2647 38.5543 20.5069 39.1637 21.6319 38.7887L26.296 37.2418L28.5694 36.4918C29.1554 36.8668 30.6085 37.8512 31.1944 38.2027C31.7335 38.5074 32.4366 38.273 32.6944 37.7105C32.9757 37.0777 33.5616 35.4371 33.796 34.7808L45.2804 30.9605L68.9054 23.1324C70.0538 22.7574 70.6632 21.5152 70.2882 20.3902L65.6944 6.5621C65.3194 5.41366 64.1007 4.80429 62.9522 5.17929Z" fill="#3F3F3F"/>
<path d="M62.9524 1.52319L12.2336 18.3279C11.0149 18.7263 10.3586 20.0622 10.7571 21.281L15.6789 36.1169C16.0774 37.3357 17.4133 37.9919 18.6321 37.5935L23.6243 35.9294L26.0618 35.1326C26.6711 35.5544 28.2414 36.5857 28.8743 36.9607C29.4368 37.2888 30.2102 37.031 30.4914 36.4216C30.7727 35.7419 31.4289 33.9607 31.6633 33.281L43.9914 29.2029L69.3508 20.7888C70.5696 20.3904 71.2258 19.0544 70.8274 17.8357L65.9055 2.99975C65.5071 1.781 64.1946 1.12475 62.9524 1.52319Z" fill="url(#paint1_linear_467_7303)"/>
<path d="M25.0772 25.289C25.4288 24.6796 25.5225 23.9296 25.2881 23.2031L24.8897 22.0077C24.4444 20.6718 23.0381 19.8515 21.6788 20.2499C20.2725 20.6718 19.5225 22.1484 19.9678 23.5312L20.3897 24.8437C20.6241 25.5702 21.1631 26.1093 21.796 26.3906C20.3428 27.4921 19.4991 29.2499 19.6163 31.1015C19.6631 31.8281 20.3897 32.2734 21.0694 32.0624L28.9913 29.4374C29.671 29.2031 29.9756 28.4062 29.6006 27.7968C28.6163 26.2031 26.9053 25.289 25.0772 25.289Z" fill="white"/>
<path d="M44.1551 12.7732L34.0535 16.1247C33.2332 16.406 32.7879 17.2966 33.0457 18.1169L34.6863 23.0857C34.9676 23.906 35.8582 24.3513 36.6785 24.0935L37.6629 23.7654C37.6629 23.7654 39.5379 25.031 40.1707 25.406C40.6395 25.6638 41.2723 25.4763 41.4832 24.9607C41.7879 24.281 42.5379 22.1482 42.5379 22.1482L46.7801 20.7419C47.6004 20.4607 48.0457 19.57 47.7879 18.7497L46.1473 13.781C45.866 12.9372 44.9754 12.4919 44.1551 12.7732Z" fill="white"/>
<path d="M35.8103 18.4216C35.4821 18.4919 35.1306 18.3278 35.0368 17.9997C34.9196 17.6482 35.1071 17.2732 35.4587 17.1794L43.6618 14.4607C43.99 14.3435 44.3884 14.531 44.4821 14.8825C44.5993 15.2341 44.4118 15.6091 44.0603 15.7028L35.8571 18.4216C35.8337 18.4216 35.8337 18.4216 35.8103 18.4216Z" fill="#E2E1E1"/>
<path d="M36.5134 20.5778C36.1853 20.6482 35.8337 20.4841 35.74 20.156C35.6228 19.8044 35.8103 19.4294 36.1618 19.3357L44.365 16.6169C44.6931 16.4997 45.0915 16.6872 45.1853 17.0388C45.3025 17.3903 45.115 17.7653 44.7634 17.8591L36.5603 20.5778C36.5603 20.5544 36.5368 20.5778 36.5134 20.5778Z" fill="#E2E1E1"/>
<path d="M37.2419 22.7107C36.9138 22.781 36.5622 22.6169 36.4685 22.2888C36.3513 21.9372 36.5388 21.5622 36.8903 21.4685L40.5935 20.2497C40.9216 20.1325 41.2966 20.32 41.4138 20.6716C41.531 21.0232 41.3435 21.3982 40.9919 21.4919L37.2888 22.7107C37.2653 22.7107 37.2653 22.7107 37.2419 22.7107Z" fill="#E2E1E1"/>
<path d="M65.2017 15.1169C64.8736 14.1091 64.2173 13.2653 63.4205 12.7028L63.0689 11.6247C62.4595 9.82003 60.6783 8.76535 58.8501 9.02316L58.7564 8.71847C58.6392 8.36691 58.2642 8.17941 57.9126 8.2966C57.5611 8.41378 57.3736 8.78878 57.4908 9.14035L57.5845 9.44503C55.9673 10.3122 55.1705 12.2341 55.7564 14.0388L56.108 15.1169C55.8033 16.0544 55.7798 17.1091 56.108 18.1169L56.272 18.5857C56.3423 18.82 56.6001 18.9607 56.8345 18.8669L58.6392 18.2575C58.6626 18.3982 58.733 18.5388 58.897 18.5857C59.647 18.8435 60.4908 18.8435 61.3111 18.5857C62.1314 18.3278 62.7876 17.8122 63.2564 17.156C63.3501 17.0153 63.3501 16.8513 63.2798 16.7341L65.0845 16.1247C65.3189 16.0544 65.4595 15.7966 65.3658 15.5622L65.2017 15.1169Z" fill="white"/>
<path d="M57.5143 18.0937C57.8659 19.1484 57.2799 20.3203 56.2253 20.6718C55.1706 21.0234 53.9987 20.4374 53.6471 19.3828C53.2956 18.3281 53.8815 17.1562 54.9362 16.8046C56.0143 16.4531 57.1628 17.0156 57.5143 18.0937Z" fill="#E83C3B"/>
<path opacity="0.1" d="M113.951 44.9997L100.99 43.4529C100.428 43.3826 99.9358 43.781 99.8655 44.3435L98.3186 57.3044C98.2483 57.8669 98.6467 58.3591 99.2092 58.4294L112.17 59.9763C112.733 60.0466 113.225 59.6482 113.295 59.0857L114.842 46.1247C114.912 45.5857 114.514 45.0701 113.951 44.9997Z" fill="#3F3F3F"/>
<path d="M115.474 58.1718L100.333 56.3671C100.076 56.3436 99.8881 56.1093 99.9349 55.8514L101.74 40.7108C101.763 40.453 101.997 40.2655 102.255 40.3124L117.396 42.1171C117.654 42.1405 117.841 42.3749 117.794 42.6327L115.99 57.7733C115.966 58.0077 115.732 58.1952 115.474 58.1718Z" fill="#F8AA09"/>
<path d="M101.553 54.7031L103.053 42.1641C103.076 42 103.217 41.9062 103.357 41.9062L115.896 43.4062C116.061 43.4297 116.154 43.5703 116.154 43.7109L114.654 56.25C114.631 56.4141 114.49 56.5078 114.35 56.5078L101.811 55.0078C101.646 55.0078 101.553 54.8672 101.553 54.7031Z" fill="#FBBA38"/>
<path d="M109.169 50.2969L107.715 51.4453C107.458 51.6563 107.059 51.6094 106.848 51.3516C106.637 51.0938 106.262 51.0469 105.981 51.2578L103.848 52.9453C103.426 53.2735 103.614 53.9766 104.153 54.0469L104.411 54.0703L109.45 54.6797L112.286 55.0078C112.825 55.0782 113.176 54.4453 112.848 54.0235L110.036 50.3907C109.825 50.1328 109.426 50.086 109.169 50.2969Z" fill="#EE9F05"/>
<path d="M106.568 47.8592C106.498 48.4452 105.959 48.867 105.373 48.7967C104.787 48.7264 104.365 48.1873 104.435 47.6014C104.506 47.0155 105.045 46.5936 105.631 46.6639C106.217 46.7342 106.639 47.2733 106.568 47.8592Z" fill="#EE9F05"/>
<path opacity="0.1" d="M32.0148 81.7736C31.5226 80.2033 29.8585 79.3361 28.2882 79.8283L9.16322 85.8751C7.59291 86.3673 6.72572 88.0314 7.21791 89.6017L11.1554 102.047C11.6476 103.617 13.3117 104.485 14.882 103.992L16.757 103.406C16.757 103.406 20.2492 105.82 21.4679 106.547C22.3351 107.063 23.5304 106.688 23.9523 105.75C24.5382 104.461 25.9913 100.477 25.9913 100.477L34.007 97.9454C35.5773 97.4533 36.4445 95.7892 35.9523 94.2189L32.0148 81.7736Z" fill="#3F3F3F"/>
<path d="M24.9834 76.9922L4.47561 83.4844C2.78811 84.0234 1.87405 85.8047 2.38968 87.4922L6.60843 100.852C7.14749 102.539 8.92874 103.453 10.6162 102.938L12.6084 102.305C12.6084 102.305 16.3584 104.906 17.6475 105.68C18.585 106.242 19.874 105.82 20.3194 104.836C20.9522 103.453 22.499 99.1641 22.499 99.1641L31.1006 96.4453C32.7881 95.9063 33.7022 94.125 33.1866 92.4375L28.9678 79.0781C28.4756 77.3906 26.6709 76.4531 24.9834 76.9922Z" fill="url(#paint2_linear_467_7303)"/>
<path d="M25.0542 83.9063L8.41355 89.1797C7.87449 89.3438 7.28855 89.0625 7.12449 88.5C6.96043 87.961 7.26512 87.375 7.80418 87.211L24.4448 81.9375C24.9839 81.7735 25.5698 82.0547 25.7339 82.6172C25.8979 83.1563 25.5932 83.7422 25.0542 83.9063Z" fill="#EDB7D5"/>
<path d="M26.5307 88.6172L9.89012 93.8906C9.35105 94.0547 8.76512 93.7735 8.60105 93.211C8.43699 92.6719 8.74168 92.086 9.28074 91.9219L25.9214 86.6485C26.4604 86.4844 27.0464 86.7657 27.2104 87.3282C27.3745 87.8438 27.0698 88.4297 26.5307 88.6172Z" fill="#EDB7D5"/>
<path d="M18.8901 96.1875L11.3901 98.5547C10.8511 98.7187 10.2651 98.414 10.1011 97.875C9.93699 97.3359 10.2417 96.75 10.7807 96.5859L18.2807 94.2187C18.8198 94.0547 19.4057 94.3594 19.5698 94.8984C19.7339 95.4375 19.4292 96.0234 18.8901 96.1875Z" fill="#EDB7D5"/>
<path opacity="0.1" d="M66.9141 53.7183C66.6328 52.523 65.0391 52.2651 64.3828 53.3198L61.7578 57.562L60.2813 51.398C59.9766 50.1558 58.7344 49.3823 57.4922 49.687L40.5469 53.7183C39.3047 54.023 38.5313 55.2651 38.8359 56.5073L42.8672 73.4526C43.1719 74.6948 44.4141 75.4683 45.6563 75.1636L62.6016 71.1323C63.8438 70.8276 64.6172 69.5855 64.3125 68.3433L62.8359 62.1792L67.0781 64.8042C68.1328 65.4605 69.4453 64.4995 69.1406 63.3042L66.9141 53.7183Z" fill="#3F3F3F"/>
<path d="M66.3994 48.7027L63.5869 53.273L62.0166 46.6636C61.6885 45.3277 60.3526 44.5073 59.0166 44.812L40.8291 49.148C39.4932 49.4761 38.6729 50.812 38.9776 52.148L43.3135 70.3355C43.6416 71.6714 44.9776 72.4917 46.3135 72.187L64.501 67.8511C65.8369 67.523 66.6573 66.187 66.3526 64.8511L64.7822 58.2417L69.3526 61.0542C70.4776 61.7573 71.8838 60.7261 71.5791 59.437L69.1182 49.148C68.8135 47.8589 67.1026 47.5777 66.3994 48.7027Z" fill="#E83B5B"/>
<path d="M49.4297 53.6011L56.0859 57.6792L51.9844 64.3355" fill="white"/>
<path d="M78.9429 79.9689L51.2852 84.3745L53.7737 99.9971L81.4314 95.5914L78.9429 79.9689Z" fill="#E83C3B"/>
<path d="M66.3516 90L78.9375 79.9922L51.2812 84.3984L66.3516 90Z" fill="#EE7375"/>
<path d="M84.5605 106.804H100.381C100.85 106.804 101.248 106.406 101.248 105.937C101.248 105.468 100.85 105.07 100.381 105.07H84.5605C84.0918 105.07 83.6934 105.468 83.6934 105.937C83.6934 106.429 84.0684 106.804 84.5605 106.804Z" fill="#E2E2E1"/>
<path d="M89.7871 103.125L89.0371 98.5542L91.0996 97.9214L91.4277 102.796L89.7871 103.125Z" fill="#D7DDE9"/>
<path d="M91.498 102.304C91.6387 102.328 91.7559 102.375 91.873 102.468C92.5996 103.078 94.8262 104.156 95.9512 104.32C97.1699 104.507 97.2402 105.093 95.5058 105.093C93.7949 105.093 92.5293 104.929 91.7793 104.953C91.0059 104.976 91.2168 105.093 89.3418 105.093C87.8887 105.093 88.3574 103.242 88.873 102.398C89.0371 102.14 89.248 102 89.5527 102.023L91.498 102.304Z" fill="#ED9558"/>
<path d="M83.1543 98.8589L86.0137 95.2261L87.8652 96.3276L84.5137 99.8433L83.1543 98.8589Z" fill="#D7DDE9"/>
<path d="M84.9355 99.5618C85.0058 99.679 85.0761 99.7962 85.0761 99.9368C85.123 100.874 85.8496 103.312 86.7167 104.085C87.5839 104.882 87.0214 105.07 85.6152 104.413C84.0683 103.687 83.7167 102.116 83.1777 101.577C82.6386 101.038 82.6855 101.249 81.4199 99.8665C80.4355 98.8118 82.0996 97.8977 83.0839 97.6868C83.3886 97.6165 83.623 97.6868 83.8105 97.9446L84.9355 99.5618Z" fill="#ED9558"/>
<path d="M81.8654 21.6089C81.8654 21.6089 81.3029 25.3589 82.381 27.0933C83.4592 28.8276 83.6232 29.0854 83.6232 29.0854" fill="#ED8C61"/>
<path d="M84.6305 30.7496C84.3258 30.9371 83.9742 31.0309 83.6461 31.0309C82.9898 31.0309 82.3336 30.7027 81.982 30.0699C81.9586 30.0465 81.7711 29.7184 80.7633 28.1246C80.0602 26.9996 79.8258 25.4762 79.8023 24.1402C79.7555 22.8277 79.8961 21.7027 79.9664 21.3277C80.1305 20.273 81.1148 19.523 82.193 19.6871C83.2477 19.8512 83.9977 20.8355 83.8336 21.9137C83.7398 22.4762 83.7164 23.1324 83.7164 23.7418C83.7164 24.3746 83.7633 24.984 83.857 25.4293C83.9039 25.6871 83.9742 25.9215 84.068 26.0621C85.1695 27.8199 85.3336 28.1012 85.3336 28.1012C85.8727 29.0152 85.568 30.2105 84.6305 30.7496Z" fill="#F6AD86"/>
<path d="M77.4356 52.2183C77.8341 46.6167 75.9591 32.7183 74.9981 27.187C74.8575 26.3433 75.4903 25.5698 76.3575 25.5698H87.8653C88.4747 25.5698 89.0372 25.9917 89.2013 26.5776C90.5138 31.5933 91.3575 52.1948 91.3575 52.1948H77.4356V52.2183Z" fill="#E8E8E8"/>
<path d="M96.4441 40.5698C96.2566 39.5151 94.9676 36.8198 93.5379 34.0073C92.0145 31.0307 90.3035 27.8901 89.5066 26.4838C89.0613 25.6869 88.0535 25.4057 87.2566 25.8276C86.4598 26.2729 86.1785 27.2807 86.6004 28.0776C87.8191 30.2807 89.0613 32.601 90.1629 34.6869C91.4051 37.0776 92.6004 38.5307 93.0926 39.7026C92.202 40.476 89.9754 40.5463 88.2176 40.4291C87.7254 40.3823 85.8504 40.2416 84.6082 41.3901C84.116 41.8354 83.5535 42.6557 83.6004 43.9448C83.6473 44.8354 83.7645 45.1869 84.5613 45.5854C84.8895 45.7494 85.3113 45.7729 85.6629 45.7494C86.577 45.6323 86.6473 45.1401 86.6473 44.0854C86.6473 43.3354 87.0457 42.5854 87.0457 42.5854C87.0457 42.5854 89.7176 43.2416 91.9441 43.5229C94.1707 43.8041 95.0848 43.3588 95.9051 42.4448C96.3738 41.9057 96.5613 41.226 96.4441 40.5698Z" fill="#F6AD86"/>
<path d="M78.0455 61.2652C78.0455 61.2652 76.358 58.1714 77.4361 52.2183H91.3345C91.3345 52.2183 91.522 56.7417 91.2174 61.2652H78.0455Z" fill="#3A63A9"/>
<path d="M93.5142 34.0074L91.897 34.3355L90.1627 34.6871C89.0845 32.6011 87.8189 30.2574 86.6002 28.0777C86.1548 27.2808 86.4595 26.273 87.2564 25.8277C88.0533 25.3824 89.0611 25.6871 89.5064 26.4839C90.2798 27.8902 91.9908 31.0308 93.5142 34.0074Z" fill="#ED8C61"/>
<path d="M77.8809 26.8825C77.6699 25.9918 76.7559 25.4528 75.8887 25.6872C71.9043 26.6715 69.1387 27.5622 67.2168 28.3825C62.7871 30.2575 62.834 31.6403 62.834 32.3434C62.8574 33.1403 63.0215 34.7106 72.5606 38.1793C72.5606 38.4606 72.2559 39.5387 72.0684 39.8903C71.6231 40.6872 72.0918 41.4606 72.5606 42.234C72.7246 42.4918 73.0996 42.82 73.5449 42.82C74.1309 42.82 74.8574 42.07 74.9512 41.4606C75.3027 39.234 75.2559 37.9215 75.1387 37.6637C75.1387 37.6403 75.1152 37.6168 75.1152 37.5934C75.0684 37.5231 75.0449 37.4528 74.9981 37.3825C74.9746 37.3356 74.9278 37.3122 74.9043 37.2653C74.8574 37.2184 74.834 37.1715 74.7871 37.1481C74.7168 37.0778 74.6465 37.0309 74.5762 36.984C74.5528 36.984 74.5527 36.9606 74.5293 36.9606C74.4121 36.8903 74.2949 36.82 74.1777 36.7731C70.9434 35.4372 67.9199 33.2809 66.584 32.3434C67.0528 32.0856 67.709 31.7575 68.5293 31.4528C70.5684 30.6325 73.5684 29.6715 76.6387 28.9215C77.5527 28.6637 78.0918 27.7731 77.8809 26.8825Z" fill="#F6AD86"/>
<path d="M93.772 33.2811L91.5454 33.703L89.811 34.0311L88.3344 34.3123C86.436 30.5858 85.9907 29.742 85.9204 28.4764C85.8501 27.0467 86.2251 26.3201 87.1626 25.8045C88.1001 25.2889 89.2719 25.617 89.7876 26.5545C89.8344 26.6248 91.8501 29.5076 93.772 33.2811Z" fill="#E8E8E8"/>
<path d="M99.8184 79.6404C99.6074 80.9997 98.8809 82.4763 97.8496 84.281C96.1152 87.281 93.4668 90.6326 91.0762 93.4216C89.4121 95.3669 87.8887 97.0544 86.9277 98.2029C86.5059 98.6951 86.1777 99.0935 85.9902 99.3513L84.0215 96.8201C84.748 95.7888 85.4277 94.406 86.2715 93.1169C86.2949 93.0935 86.3184 93.0466 86.3418 93.0232C87.9355 90.6091 89.6465 87.8904 91.0059 85.406C91.0527 85.3122 91.0996 85.2419 91.1465 85.1482C92.5996 82.5232 93.6777 80.2029 93.8887 78.8435C94.2637 76.4294 90.6309 68.8826 87.0449 62.2263C86.6465 61.4529 86.2246 60.7029 85.8262 59.9763C85.6856 59.7185 85.6152 59.4607 85.5918 59.1794C85.4981 57.9607 86.3887 56.5544 87.4902 55.945C88.8262 55.195 90.5606 54.82 91.3106 56.156C92.834 58.9216 100.732 73.7107 99.8184 79.6404Z" fill="#3A63A9"/>
<path d="M91.0762 93.4214C89.4121 95.3667 87.8887 97.0542 86.9277 98.2026C86.7637 96.8433 86.5996 95.3667 86.4355 93.8667C86.4121 93.5854 86.3652 93.2808 86.3418 92.9995C87.9355 90.5854 89.6465 87.8667 91.0059 85.3823C91.0996 87.8433 91.0996 90.7261 91.0762 93.4214Z" fill="#2D548D"/>
<path d="M90.7238 80.39C90.0442 74.8353 85.3801 59.9056 84.6535 58.265C84.0442 56.8588 80.6692 56.5541 79.2629 57.1869C77.8567 57.7963 77.2238 59.4369 77.8332 60.8431C79.7082 65.1088 85.0285 76.5228 85.5676 80.5541C85.8723 82.9681 86.2942 87.8197 87.0442 91.9681C87.5832 94.8509 88.1223 97.6634 88.5207 99.7025C88.8723 101.484 88.8723 101.156 88.8957 101.32L92.2238 100.804C92.2238 100.804 91.5207 86.9525 90.7238 80.39Z" fill="#3A63A9"/>
<path d="M76.6621 28.8748C73.5918 29.6248 70.5918 30.5858 68.5527 31.4061L67.1934 28.3592C69.1152 27.5623 71.8809 26.6483 75.8652 25.6639C76.7559 25.453 77.6465 25.992 77.8574 26.8592C78.0918 27.7733 77.5527 28.6639 76.6621 28.8748Z" fill="#ED8C61"/>
<path d="M75.9121 25.6169C76.9668 25.4528 77.7402 25.9685 78.0215 26.9997C78.3027 28.031 77.5996 28.8278 76.6621 29.3669C75.5371 30.0232 75.1387 30.1638 70.3809 31.8044L67.7324 28.1482C73.8262 25.781 74.1309 25.8747 75.9121 25.6169Z" fill="#E8E8E8"/>
<path d="M83.8336 25.4293C83.7399 25.4293 83.6461 25.4293 83.5758 25.4293C82.1461 25.4293 80.8336 24.9605 79.8023 24.1402C79.7555 22.8277 79.8961 21.7027 79.9664 21.3277C80.1305 20.273 81.1148 19.523 82.193 19.6871C83.2477 19.8512 83.9977 20.8355 83.8336 21.9137C83.7399 22.4762 83.7164 23.1324 83.7164 23.7418C83.6695 24.3512 83.7164 24.9605 83.8336 25.4293Z" fill="#ED8C61"/>
<path d="M89.3414 18.4918C88.568 22.0778 86.5758 24.7028 83.1305 24.7028C79.7086 24.7028 77.5524 22.1012 76.9196 18.4918C76.3571 15.1168 79.7086 11.8121 83.1305 11.8121C86.5992 11.7887 90.068 15.1403 89.3414 18.4918Z" fill="#F6AD86"/>
<path d="M89.8115 101.343L89.788 101.25C88.8505 95.437 87.4209 86.6714 86.7177 81.1401C86.2021 77.1089 81.2099 65.1558 79.3349 60.8901C79.3115 60.8667 79.3115 60.8198 79.3115 60.7964C79.3115 60.7729 79.3115 60.773 79.288 60.7495C78.9833 59.9292 78.0693 56.8823 78.9365 52.0776L79.2177 52.1245C78.3505 56.8589 79.2646 59.8354 79.5459 60.6558C79.5459 60.6792 79.5693 60.7026 79.5693 60.7261C79.5693 60.7495 79.5693 60.7729 79.5927 60.7964C81.4677 65.062 86.4599 77.062 86.9755 81.1167C87.7021 86.6245 89.1084 95.4136 90.0459 101.226L90.0693 101.32L89.8115 101.343Z" fill="#658BC1"/>
<path d="M85.3574 25.5933C85.3574 26.437 85.0293 27.8433 82.8262 27.8433C81.2324 27.8433 79.2168 27.1636 78.4668 25.8745L78.3027 25.5933H85.3574V25.5933Z" fill="#C8D6DB"/>
<path d="M78.959 25.5933C79.5449 26.6245 81.3027 27.2808 82.8262 27.2808C84.3496 27.2808 84.7949 26.5308 84.7949 25.5933H78.959Z" fill="#F6AD86"/>
<path d="M87.3027 42.9136C87.3027 42.8901 87.3965 41.9526 86.4121 40.5933L87.3262 40.0542C88.4746 41.7651 88.3574 42.9839 88.3574 43.0542L87.3027 42.9136Z" fill="#82AACE"/>
<path d="M86.5992 40.0775C87.1149 39.8431 87.7945 39.9603 88.1461 40.3353C88.4742 40.7103 88.3336 41.2259 87.7945 41.4603C87.2789 41.6946 86.5992 41.5775 86.2477 41.2025C85.9195 40.804 86.0602 40.3118 86.5992 40.0775Z" fill="#4E7DB0"/>
<path d="M89.201 13.898C87.326 10.8745 82.7088 10.6401 81.8182 10.687C81.3494 10.7105 80.3182 10.9917 79.8728 11.6948C79.8494 11.2026 79.8728 10.7573 79.8728 10.7573C79.4744 11.2495 79.4041 11.6714 79.4744 11.9995C79.1932 11.6245 79.0057 11.2261 79.0057 11.2261C78.9353 11.7417 79.076 12.0464 79.2869 12.2105C78.0213 12.5151 76.4041 14.2964 76.9666 17.9526C77.201 19.5464 80.8103 18.3276 81.8182 16.7339C82.4978 17.8355 83.8572 18.0698 83.8572 18.0698C83.3885 17.6011 82.9666 16.898 82.6385 16.1948C84.5603 17.3667 87.115 18.6323 87.4197 19.4058C87.4197 19.4058 87.9822 18.1636 87.5603 17.3667C87.5603 17.3667 89.0838 17.7417 89.2713 19.2651C89.2478 19.2183 91.1931 17.1323 89.201 13.898Z" fill="#424344"/>
<path d="M84.7132 52.0699L84.4355 52.1147L85.9533 61.5086L86.231 61.4637L84.7132 52.0699Z" fill="#658BC1"/>
<path d="M85.8027 59.7183L85.7559 59.437C85.7559 59.437 86.3418 59.3433 86.6465 58.8979C86.834 58.6401 86.8809 58.312 86.834 57.937L85.873 51.9839L86.1543 51.937L87.1152 57.8901C87.1855 58.3589 87.1152 58.7573 86.8809 59.062C86.5059 59.6245 85.8262 59.7183 85.8027 59.7183Z" fill="#658BC1"/>
<path d="M76.7323 18.1169C76.4511 18.7263 76.4979 19.3825 76.7557 19.945C77.0604 20.6013 78.0214 20.5544 78.3026 19.8982L79.0995 18.1169C79.4042 17.4607 78.7948 16.7341 78.0917 16.9216C77.5057 17.1091 76.9901 17.531 76.7323 18.1169Z" fill="#F6AD86"/>
<defs>
<linearGradient id="paint0_linear_467_7303" x1="112.313" y1="108.129" x2="-6.594" y2="-1.10502" gradientUnits="userSpaceOnUse">
<stop stop-color="#6FC7DA"/>
<stop offset="0.3693" stop-color="#0D71B9"/>
<stop offset="0.7613" stop-color="#9E1460"/>
<stop offset="1" stop-color="#E7267A"/>
</linearGradient>
<linearGradient id="paint1_linear_467_7303" x1="62.2977" y1="42.372" x2="10.7435" y2="-12.3103" gradientUnits="userSpaceOnUse">
<stop stop-color="#6FC7DA"/>
<stop offset="1" stop-color="#9E1460"/>
</linearGradient>
<linearGradient id="paint2_linear_467_7303" x1="37.7692" y1="93.0602" x2="8.43835" y2="89.8522" gradientUnits="userSpaceOnUse">
<stop stop-color="#6FC7DA"/>
<stop offset="0.6927" stop-color="#9E1460"/>
<stop offset="1" stop-color="#E7267A"/>
</linearGradient>
</defs>
</svg>
